<svg width="351" height="244" viewBox="0 0 351 244" fill="none" xmlns="http://www.w3.org/2000/svg">
<path d="M13.2812 28.375C13.9062 29 14.5573 29.638 15.2344 30.2891C15.9115 30.9401 16.6146 31.5781 17.3438 32.2031C18.0729 32.8281 18.8021 33.4271 19.5312 34C20.2604 34.5469 20.9766 35.0547 21.6797 35.5234L18.7109 37.9844C17.6432 36.6562 16.5755 35.3672 15.5078 34.1172C14.4401 32.8672 13.2943 31.5781 12.0703 30.25C10.7161 32.125 9.19271 33.8177 7.5 35.3281C5.83333 36.8125 3.9974 38.1797 1.99219 39.4297L1.01562 38.375C2.34375 37.3854 3.58073 36.3047 4.72656 35.1328C5.8724 33.9349 6.88802 32.6849 7.77344 31.3828C8.6849 30.0807 9.45312 28.7656 10.0781 27.4375C10.7292 26.0833 11.224 24.7552 11.5625 23.4531C11.6927 22.9323 11.7188 22.5807 11.6406 22.3984C11.5885 22.1901 11.4714 22.0208 11.2891 21.8906C11.0286 21.7344 10.7031 21.5391 10.3125 21.3047C9.94792 21.0703 9.55729 20.875 9.14062 20.7188L10 19.5078C10.9635 19.7422 11.9792 20.0156 13.0469 20.3281C14.1406 20.6146 15.3125 20.9531 16.5625 21.3438C16.1198 22.6719 15.625 23.9219 15.0781 25.0938C14.5573 26.2396 13.9583 27.3333 13.2812 28.375ZM25.3906 40.2109C26.4062 40.3411 27.3438 40.6016 28.2031 40.9922C29.0625 41.3828 29.7917 41.8646 30.3906 42.4375C30.9896 43.0104 31.4583 43.6745 31.7969 44.4297C32.1354 45.1589 32.3047 45.9401 32.3047 46.7734C32.3047 47.7109 32.0833 48.5833 31.6406 49.3906C31.224 50.224 30.625 50.9401 29.8438 51.5391C29.0885 52.138 28.1771 52.6068 27.1094 52.9453C26.0677 53.2839 24.9349 53.4531 23.7109 53.4531C22.4609 53.4531 21.3151 53.2839 20.2734 52.9453C19.2318 52.6068 18.3333 52.138 17.5781 51.5391C16.8229 50.9401 16.224 50.224 15.7812 49.3906C15.3646 48.5833 15.1562 47.7109 15.1562 46.7734C15.1562 45.9141 15.3255 45.1068 15.6641 44.3516C16.0286 43.5964 16.5365 42.9323 17.1875 42.3594C17.8385 41.7604 18.5938 41.2786 19.4531 40.9141C20.3385 40.5234 21.3151 40.276 22.3828 40.1719C22.3307 39.8594 22.1875 39.612 21.9531 39.4297C21.7188 39.2474 21.3281 39.0651 20.7812 38.8828L21.4453 37.7109C22.0182 37.8411 22.7474 37.9974 23.6328 38.1797C24.5182 38.362 25.2865 38.5182 25.9375 38.6484C25.651 39.2474 25.4688 39.7682 25.3906 40.2109ZM28.4375 46.6172C28.4375 45.9401 28.3073 45.3151 28.0469 44.7422C27.7865 44.1693 27.4349 43.6745 26.9922 43.2578C26.5755 42.8151 26.0807 42.4766 25.5078 42.2422C24.9349 42.0078 24.3229 41.8906 23.6719 41.8906C23.0469 41.8906 22.4349 42.0078 21.8359 42.2422C21.263 42.4766 20.7552 42.8151 20.3125 43.2578C19.8958 43.6745 19.5573 44.1693 19.2969 44.7422C19.0365 45.3151 18.9062 45.9401 18.9062 46.6172C18.9062 47.2943 19.0365 47.9193 19.2969 48.4922C19.5573 49.0391 19.8958 49.5208 20.3125 49.9375C20.7552 50.3542 21.263 50.6797 21.8359 50.9141C22.4349 51.1484 23.0469 51.2656 23.6719 51.2656C24.3229 51.2656 24.9349 51.1484 25.5078 50.9141C26.1068 50.6797 26.6146 50.3542 27.0312 49.9375C27.474 49.5208 27.8125 49.0391 28.0469 48.4922C28.3073 47.9193 28.4375 47.2943 28.4375 46.6172ZM25.7812 27.9844C26.4323 27.9323 27.0833 27.8932 27.7344 27.8672C28.4115 27.8411 29.0885 27.776 29.7656 27.6719V20.5625C29.7656 19.7552 29.4531 19.1042 28.8281 18.6094C28.2031 18.0885 27.0573 17.6198 25.3906 17.2031L26.0156 15.7578C26.6406 15.8359 27.3047 15.9401 28.0078 16.0703C28.7109 16.2005 29.401 16.3307 30.0781 16.4609C30.7812 16.5911 31.4453 16.7214 32.0703 16.8516C32.7214 16.9818 33.2943 17.099 33.7891 17.2031C33.737 17.4375 33.6849 17.724 33.6328 18.0625C33.6068 18.401 33.5677 18.7396 33.5156 19.0781C33.4896 19.4167 33.4635 19.7292 33.4375 20.0156C33.4115 20.3021 33.3984 20.5104 33.3984 20.6406V31.3047C33.3984 32.7891 33.3203 34.2865 33.1641 35.7969C33.0339 37.3073 32.8385 38.6224 32.5781 39.7422L29.9219 40.1719C29.8698 39.2865 29.8307 38.3099 29.8047 37.2422C29.7786 36.1484 29.7656 35.1458 29.7656 34.2344V29.9375C29.1146 29.9635 28.4505 29.9896 27.7734 30.0156C27.1224 30.0417 26.4583 30.0807 25.7812 30.1328V30.25C25.7812 30.9271 25.7552 31.6172 25.7031 32.3203C25.6771 33.0234 25.625 33.6875 25.5469 34.3125C25.4688 34.9375 25.3776 35.5104 25.2734 36.0312C25.1693 36.5521 25.0651 36.9818 24.9609 37.3203L22.3828 37.6719C22.3307 37.2292 22.2786 36.5391 22.2266 35.6016C22.1745 34.6641 22.1484 33.7396 22.1484 32.8281V22.125C22.1484 21.7344 22.0964 21.3828 21.9922 21.0703C21.888 20.7578 21.6797 20.4714 21.3672 20.2109C21.0807 19.9505 20.6771 19.7161 20.1562 19.5078C19.6615 19.2995 19.0104 19.0911 18.2031 18.8828L18.8672 17.4766C20.1693 17.6328 21.4583 17.8411 22.7344 18.1016C24.0365 18.3359 25.1823 18.5833 26.1719 18.8438C26.1198 19.0781 26.0677 19.3646 26.0156 19.7031C25.9896 20.0417 25.9505 20.3802 25.8984 20.7188C25.8724 21.0573 25.8464 21.3698 25.8203 21.6562C25.7943 21.9427 25.7812 22.151 25.7812 22.2812V27.9844ZM52.8328 28.4922C54.187 29.6641 55.6453 30.862 57.2078 32.0859C58.7964 33.2839 60.5021 34.4557 62.325 35.6016L59.4734 38.1406C58.1714 36.7604 56.8823 35.4193 55.6063 34.1172C54.3563 32.7891 53.0281 31.4479 51.6219 30.0938C50.0594 32.0469 48.3146 33.7917 46.3875 35.3281C44.4865 36.8385 42.4682 38.2448 40.3328 39.5469L39.3172 38.4141C40.7495 37.4505 42.1167 36.3438 43.4188 35.0938C44.7469 33.8438 45.9578 32.5286 47.0516 31.1484C48.1453 29.7682 49.0958 28.362 49.9031 26.9297C50.7104 25.4974 51.3094 24.1172 51.7 22.7891C51.8302 22.3464 51.8563 22.0469 51.7781 21.8906C51.726 21.7344 51.6479 21.6172 51.5438 21.5391C51.3094 21.3307 50.9708 21.1224 50.5281 20.9141C50.1115 20.6797 49.6297 20.4323 49.0828 20.1719L49.9813 18.9609C51.049 19.2474 52.1948 19.5859 53.4188 19.9766C54.6688 20.3411 55.8016 20.7057 56.8172 21.0703C56.2964 22.4766 55.6974 23.7917 55.0203 25.0156C54.3693 26.2135 53.6401 27.3724 52.8328 28.4922ZM61.8953 15.7578C62.5203 15.8359 63.2104 15.9401 63.9656 16.0703C64.7208 16.1745 65.476 16.3047 66.2313 16.4609C66.9865 16.5911 67.7026 16.7214 68.3797 16.8516C69.0828 16.9818 69.6948 17.0859 70.2156 17.1641C70.1635 17.3984 70.1115 17.6849 70.0594 18.0234C70.0073 18.362 69.9552 18.7135 69.9031 19.0781C69.8771 19.4167 69.851 19.7292 69.825 20.0156C69.799 20.3021 69.7859 20.5104 69.7859 20.6406V36.6562C69.7859 37.2552 69.7599 37.8932 69.7078 38.5703C69.6818 39.2474 69.6297 39.9375 69.5516 40.6406C69.4995 41.3177 69.4214 41.9688 69.3172 42.5938C69.2391 43.1927 69.1609 43.7135 69.0828 44.1562L66.4266 44.5859C66.3745 44.2734 66.3224 43.8438 66.2703 43.2969C66.2443 42.75 66.2052 42.1641 66.1531 41.5391C66.1271 40.888 66.101 40.25 66.075 39.625C66.075 38.974 66.075 38.4141 66.075 37.9453V20.5625C66.075 19.7552 65.6844 19.1042 64.9031 18.6094C64.1479 18.0885 62.9109 17.6198 61.1922 17.2031L61.8953 15.7578ZM72.0125 52.0469C70.424 52.0208 68.8094 52.0078 67.1688 52.0078C65.5281 52.0078 63.9135 52.0208 62.325 52.0469C60.7625 52.0729 59.2651 52.112 57.8328 52.1641C56.4266 52.2161 55.1375 52.2812 53.9656 52.3594C53.0281 52.4115 52.351 52.2292 51.9344 51.8125C51.5177 51.3958 51.3094 50.901 51.3094 50.3281V45.3672C51.3094 44.7943 51.2833 44.3385 51.2313 44C51.1792 43.6354 51.0359 43.3359 50.8016 43.1016C50.5932 42.8672 50.2547 42.6719 49.7859 42.5156C49.3432 42.3594 48.7182 42.1771 47.9109 41.9688L48.6141 40.5625C49.0047 40.6146 49.4995 40.6797 50.0984 40.7578C50.6974 40.8099 51.3094 40.875 51.9344 40.9531C52.5854 41.0312 53.1974 41.1094 53.7703 41.1875C54.3693 41.2656 54.8641 41.3307 55.2547 41.3828C55.2547 41.7214 55.2286 42.2031 55.1766 42.8281C55.1245 43.4531 55.0984 44 55.0984 44.4688V49.0781C55.0984 49.5729 55.1635 49.8724 55.2938 49.9766C55.45 50.1068 55.8016 50.1849 56.3484 50.2109C57.338 50.237 58.5229 50.2109 59.9031 50.1328C61.3094 50.0807 62.7547 49.9896 64.2391 49.8594C65.7495 49.7552 67.2208 49.625 68.6531 49.4688C70.1115 49.3125 71.4005 49.1562 72.5203 49L72.0125 52.0469ZM107.834 27.0078C109.657 27.4245 111.623 27.8151 113.733 28.1797C115.868 28.5182 117.939 28.7786 119.944 28.9609L117.678 31.7734C116.975 31.5391 116.129 31.2656 115.139 30.9531C114.149 30.6406 113.095 30.3281 111.975 30.0156C110.855 29.6771 109.735 29.3516 108.616 29.0391C107.496 28.7005 106.454 28.401 105.491 28.1406C103.121 29.2344 100.673 30.1589 98.1469 30.9141C95.6469 31.6693 93.1339 32.2812 90.6078 32.75L89.6703 31.3828C91.5714 30.9922 93.4203 30.5104 95.2172 29.9375C97.0401 29.3385 98.7719 28.6745 100.412 27.9453C102.053 27.1901 103.59 26.3958 105.022 25.5625C106.454 24.7031 107.743 23.8307 108.889 22.9453C107.353 22.9453 105.842 22.9844 104.358 23.0625C102.899 23.1146 101.506 23.2057 100.178 23.3359C99.8917 23.362 99.5141 23.401 99.0453 23.4531C98.5766 23.5052 98.0687 23.5703 97.5219 23.6484C96.975 23.7005 96.4151 23.7656 95.8422 23.8438C95.2953 23.8958 94.8135 23.9609 94.3969 24.0391L92.3266 20.875C92.6651 20.9271 93.0948 20.9922 93.6156 21.0703C94.1625 21.1224 94.7224 21.1745 95.2953 21.2266C95.8943 21.2786 96.4802 21.3307 97.0531 21.3828C97.626 21.4089 98.1339 21.4219 98.5766 21.4219C99.5141 21.4219 100.647 21.4089 101.975 21.3828C103.303 21.3568 104.683 21.3047 106.116 21.2266C107.574 21.1484 109.006 21.0573 110.412 20.9531C111.845 20.8229 113.121 20.6536 114.241 20.4453L115.491 21.7734C114.371 22.7891 113.16 23.7266 111.858 24.5859C110.582 25.4453 109.241 26.2526 107.834 27.0078ZM109.67 19C109.228 19 108.707 19 108.108 19C107.535 19 106.949 19.013 106.35 19.0391C105.777 19.0391 105.243 19.0521 104.748 19.0781C104.254 19.0781 103.863 19.0781 103.577 19.0781C103.394 19.0781 103.095 19.0911 102.678 19.1172C102.287 19.1172 101.858 19.1432 101.389 19.1953C100.946 19.2214 100.491 19.2604 100.022 19.3125C99.5792 19.3385 99.2146 19.3776 98.9281 19.4297L97.2484 16.4219C97.587 16.5 98.0297 16.5911 98.5766 16.6953C99.1234 16.7734 99.6703 16.8385 100.217 16.8906C100.79 16.9427 101.324 16.9948 101.819 17.0469C102.314 17.0729 102.704 17.0859 102.991 17.0859C103.303 17.0859 103.746 17.0859 104.319 17.0859C104.892 17.0599 105.53 17.0339 106.233 17.0078C106.936 16.9557 107.652 16.9036 108.381 16.8516C109.11 16.7734 109.787 16.6953 110.412 16.6172L109.67 19ZM107.287 36.9688C107.287 37.724 107.261 38.5052 107.209 39.3125C107.157 40.0938 107.079 40.7969 106.975 41.4219C108.85 41.3177 110.621 41.2135 112.287 41.1094C113.954 41.0052 115.321 40.888 116.389 40.7578C116.311 41.4349 116.246 41.9688 116.194 42.3594C116.168 42.75 116.155 43.1667 116.155 43.6094V47.5156C116.155 48.2708 116.103 49.1562 115.998 50.1719C115.92 51.1875 115.751 52.138 115.491 53.0234L112.795 53.5312C112.743 53.2188 112.691 52.8411 112.639 52.3984C112.613 51.9557 112.587 51.487 112.561 50.9922C112.535 50.5234 112.509 50.0547 112.483 49.5859C112.457 49.1432 112.444 48.7526 112.444 48.4141V43.2188C111.454 43.1667 110.373 43.1536 109.202 43.1797C108.03 43.2057 106.845 43.2578 105.647 43.3359C104.449 43.388 103.264 43.4531 102.092 43.5312C100.946 43.6094 99.8656 43.6875 98.85 43.7656C98.0167 43.8177 97.2094 43.8958 96.4281 44C95.6469 44.1042 94.8266 44.2214 93.9672 44.3516L92.4437 41.2266C92.8344 41.2786 93.251 41.3307 93.6937 41.3828C94.1625 41.4349 94.6443 41.487 95.1391 41.5391C95.6339 41.5651 96.1156 41.5911 96.5844 41.6172C97.0531 41.6432 97.4828 41.6562 97.8734 41.6562C98.7068 41.6562 99.6052 41.6562 100.569 41.6562C101.532 41.6302 102.535 41.6042 103.577 41.5781C103.577 40.9531 103.564 40.263 103.537 39.5078C103.511 38.7266 103.498 38.0625 103.498 37.5156V36.7344C102.457 36.7604 101.428 36.7865 100.412 36.8125C99.4229 36.8385 98.4854 36.8646 97.6 36.8906C96.7406 36.9167 95.9594 36.9427 95.2562 36.9688C94.5792 36.9948 94.0453 37.0208 93.6547 37.0469C92.6911 37.099 91.6365 37.1771 90.4906 37.2812C89.3448 37.3854 88.3161 37.5026 87.4047 37.6328L86.0766 34.2344C87.2484 34.3646 88.4984 34.4818 89.8266 34.5859C91.1807 34.6641 92.4437 34.7292 93.6156 34.7812C94.2406 34.8073 95.074 34.8203 96.1156 34.8203C97.1573 34.8203 98.2901 34.8203 99.5141 34.8203C100.764 34.7943 102.053 34.7682 103.381 34.7422C104.735 34.7161 106.024 34.6901 107.248 34.6641C108.472 34.612 109.605 34.5729 110.647 34.5469C111.689 34.4948 112.522 34.4557 113.147 34.4297C114.892 34.3516 116.662 34.2344 118.459 34.0781C120.256 33.9219 121.871 33.7396 123.303 33.5312L122.795 36.7344C122.274 36.7083 121.662 36.6953 120.959 36.6953C120.282 36.6693 119.54 36.6432 118.733 36.6172C117.926 36.5911 117.092 36.5781 116.233 36.5781C115.373 36.5521 114.514 36.5391 113.655 36.5391C112.926 36.5391 112.014 36.5391 110.92 36.5391C109.827 36.5391 108.616 36.5651 107.287 36.6172V36.9688ZM153.206 42.2812C153.206 43.0885 153.18 44.026 153.128 45.0938C153.102 46.1354 153.063 47.1901 153.011 48.2578C152.959 49.2995 152.894 50.2891 152.816 51.2266C152.738 52.1901 152.659 52.9583 152.581 53.5312L149.886 53.8828C149.834 53.4661 149.782 52.9062 149.73 52.2031C149.704 51.5 149.665 50.7448 149.613 49.9375C149.586 49.1562 149.56 48.349 149.534 47.5156C149.534 46.6562 149.534 45.849 149.534 45.0938V20.5625C149.534 19.7552 149.157 19.1042 148.402 18.6094C147.672 18.0885 146.448 17.6198 144.73 17.2031L145.355 15.7578C146.006 15.8359 146.709 15.9401 147.464 16.0703C148.219 16.1745 148.974 16.3047 149.73 16.4609C150.485 16.5911 151.201 16.7214 151.878 16.8516C152.581 16.9818 153.18 17.0859 153.675 17.1641C153.623 17.3984 153.558 17.6849 153.48 18.0234C153.428 18.362 153.376 18.7135 153.323 19.0781C153.297 19.4167 153.271 19.7292 153.245 20.0156C153.219 20.3021 153.206 20.5104 153.206 20.6406V33.2188C154.378 33.1146 155.693 32.9974 157.152 32.8672C158.61 32.7109 159.925 32.5286 161.097 32.3203L160.667 35.4844C160.224 35.4583 159.691 35.4453 159.066 35.4453C158.441 35.4453 157.79 35.4453 157.113 35.4453C156.435 35.4453 155.758 35.4453 155.081 35.4453C154.404 35.4453 153.779 35.4453 153.206 35.4453V42.2812ZM146.956 27.3203C146.357 27.3203 145.628 27.3203 144.769 27.3203C143.909 27.3203 142.972 27.3333 141.956 27.3594C140.967 27.3854 139.938 27.4115 138.87 27.4375C137.803 27.4635 136.774 27.4896 135.784 27.5156C134.795 27.5417 133.883 27.5677 133.05 27.5938C132.217 27.6198 131.527 27.6458 130.98 27.6719C130.667 27.6979 130.251 27.737 129.73 27.7891C129.235 27.8151 128.714 27.8542 128.167 27.9062C127.62 27.9583 127.099 28.0234 126.605 28.1016C126.11 28.1536 125.706 28.2057 125.394 28.2578L123.909 25.0156C124.248 25.0938 124.678 25.1719 125.198 25.25C125.719 25.3021 126.253 25.3542 126.8 25.4062C127.347 25.4583 127.881 25.5104 128.402 25.5625C128.922 25.5885 129.365 25.6016 129.73 25.6016C130.615 25.6016 131.787 25.5885 133.245 25.5625C134.73 25.5104 136.305 25.4453 137.972 25.3672C139.665 25.263 141.344 25.1458 143.011 25.0156C144.704 24.8594 146.188 24.6641 147.464 24.4297L146.956 27.3203ZM144.613 36.8516C144.613 37.7891 144.391 38.6875 143.948 39.5469C143.506 40.3802 142.894 41.1224 142.113 41.7734C141.357 42.3984 140.446 42.8932 139.378 43.2578C138.336 43.6224 137.217 43.8047 136.019 43.8047C134.795 43.8047 133.649 43.6224 132.581 43.2578C131.54 42.8672 130.628 42.3594 129.847 41.7344C129.092 41.1094 128.493 40.3802 128.05 39.5469C127.607 38.6875 127.386 37.7891 127.386 36.8516C127.386 35.8099 127.607 34.8594 128.05 34C128.493 33.1406 129.092 32.4115 129.847 31.8125C130.628 31.1875 131.54 30.7057 132.581 30.3672C133.649 30.0286 134.795 29.8594 136.019 29.8594C137.295 29.8594 138.454 30.0547 139.495 30.4453C140.563 30.8099 141.474 31.3177 142.23 31.9688C142.985 32.5938 143.571 33.3359 143.988 34.1953C144.404 35.0286 144.613 35.9141 144.613 36.8516ZM131.253 36.6562C131.253 37.3333 131.37 37.9714 131.605 38.5703C131.865 39.1693 132.217 39.7031 132.659 40.1719C133.102 40.6146 133.61 40.9792 134.183 41.2656C134.782 41.526 135.42 41.6562 136.097 41.6562C136.722 41.6562 137.321 41.526 137.894 41.2656C138.467 41.0052 138.961 40.6536 139.378 40.2109C139.821 39.7682 140.172 39.2474 140.433 38.6484C140.693 38.0234 140.823 37.3594 140.823 36.6562C140.823 36.0052 140.706 35.3932 140.472 34.8203C140.238 34.2214 139.912 33.7005 139.495 33.2578C139.079 32.8151 138.571 32.4635 137.972 32.2031C137.399 31.9167 136.774 31.7734 136.097 31.7734C134.717 31.7734 133.558 32.2292 132.62 33.1406C131.709 34.026 131.253 35.1979 131.253 36.6562ZM141.175 22.125C140.732 22.125 140.251 22.125 139.73 22.125C139.209 22.125 138.688 22.138 138.167 22.1641C137.646 22.1641 137.139 22.1771 136.644 22.2031C136.175 22.2031 135.771 22.2031 135.433 22.2031C135.251 22.2031 134.99 22.2161 134.652 22.2422C134.313 22.2422 133.935 22.2682 133.519 22.3203C133.102 22.3464 132.685 22.3854 132.269 22.4375C131.852 22.4635 131.474 22.5026 131.136 22.5547L129.534 19.5469C129.847 19.625 130.238 19.7031 130.706 19.7812C131.175 19.8594 131.657 19.9375 132.152 20.0156C132.672 20.0938 133.167 20.1589 133.636 20.2109C134.131 20.237 134.547 20.25 134.886 20.25C135.198 20.25 135.628 20.237 136.175 20.2109C136.722 20.1849 137.308 20.1458 137.933 20.0938C138.584 20.0156 139.235 19.9375 139.886 19.8594C140.563 19.7812 141.201 19.7031 141.8 19.625L141.175 22.125ZM176.606 20.5234C177.7 20.7057 178.989 20.849 180.473 20.9531C181.984 21.0312 183.572 21.0833 185.239 21.1094C186.906 21.1094 188.598 21.0964 190.317 21.0703C192.036 21.0182 193.664 20.9531 195.2 20.875C196.762 20.7969 198.182 20.7057 199.458 20.6016C200.734 20.4714 201.762 20.3542 202.544 20.25L201.919 23.2969C200.33 23.1927 198.664 23.1276 196.919 23.1016C195.2 23.0495 193.494 23.0365 191.802 23.0625C190.135 23.0625 188.546 23.0885 187.036 23.1406C185.526 23.1927 184.184 23.2578 183.012 23.3359V32.9844C183.012 33.5052 183.091 33.8307 183.247 33.9609C183.403 34.0651 183.781 34.1302 184.38 34.1562C185.343 34.1823 186.619 34.1693 188.208 34.1172C189.796 34.0651 191.463 33.987 193.208 33.8828C194.953 33.7786 196.671 33.6615 198.364 33.5312C200.057 33.375 201.515 33.2057 202.739 33.0234L202.153 36.1484C200.565 36.0703 198.833 36.0312 196.958 36.0312C195.109 36.0052 193.273 36.0052 191.45 36.0312C189.627 36.0573 187.895 36.0964 186.255 36.1484C184.614 36.1745 183.221 36.2266 182.075 36.3047C181.164 36.3568 180.473 36.1354 180.005 35.6406C179.562 35.1458 179.341 34.5339 179.341 33.8047V25.2891C179.341 24.7422 179.302 24.2995 179.223 23.9609C179.145 23.6224 178.989 23.3359 178.755 23.1016C178.52 22.8411 178.182 22.6328 177.739 22.4766C177.296 22.2943 176.697 22.099 175.942 21.8906L176.606 20.5234ZM207.856 47.1641C206.815 47.112 205.46 47.0729 203.794 47.0469C202.127 47.0208 200.421 46.9948 198.677 46.9688C197.947 46.9688 197.062 46.9818 196.02 47.0078C194.979 47.0078 193.846 47.0339 192.622 47.0859C191.424 47.112 190.187 47.151 188.911 47.2031C187.661 47.2292 186.463 47.2682 185.317 47.3203C184.171 47.3464 183.13 47.3854 182.192 47.4375C181.281 47.4896 180.565 47.5286 180.044 47.5547C179.054 47.6068 177.999 47.6849 176.88 47.7891C175.76 47.8672 174.718 47.9714 173.755 48.1016L172.505 44.6641C173.677 44.8203 174.914 44.9505 176.216 45.0547C177.544 45.1328 178.807 45.1979 180.005 45.25C180.656 45.276 181.463 45.2891 182.427 45.2891C183.416 45.2891 184.471 45.2891 185.591 45.2891C186.736 45.263 187.908 45.237 189.106 45.2109C190.33 45.1589 191.502 45.1198 192.622 45.0938C193.768 45.0677 194.822 45.0417 195.786 45.0156C196.749 44.9635 197.544 44.9245 198.169 44.8984C199.914 44.7943 201.684 44.6641 203.481 44.5078C205.304 44.3516 206.919 44.1693 208.325 43.9609L207.856 47.1641ZM229.048 30.875C229.257 30.849 229.452 30.8359 229.634 30.8359C229.817 30.8099 229.999 30.7839 230.181 30.7578L229.908 33.2578C228.371 33.1797 227.043 33.1406 225.923 33.1406C224.83 33.1146 223.853 33.1146 222.994 33.1406C222.134 33.1667 221.366 33.2057 220.689 33.2578C220.012 33.3099 219.335 33.349 218.658 33.375C218.658 33.5833 218.645 33.7917 218.619 34C218.619 34.2083 218.619 34.4167 218.619 34.625V40.1328C218.619 40.9141 218.957 41.2786 219.634 41.2266C221.718 41.0703 223.918 40.7839 226.236 40.3672C228.58 39.9245 230.936 39.3385 233.306 38.6094V40.2109C231.015 41.0182 228.645 41.7474 226.197 42.3984C223.775 43.0495 221.34 43.5443 218.892 43.8828C217.46 44.0911 216.444 43.9089 215.845 43.3359C215.246 42.763 214.947 41.8516 214.947 40.6016V35.25C214.947 34.7812 214.908 34.3906 214.83 34.0781C214.778 33.7656 214.647 33.5052 214.439 33.2969C214.257 33.0885 213.983 32.9062 213.619 32.75C213.254 32.5938 212.759 32.4245 212.134 32.2422L212.798 30.9922C215.324 31.2786 217.642 31.4089 219.752 31.3828C221.861 31.3568 223.866 31.2786 225.767 31.1484L226.158 23.9219C225.272 23.8698 224.257 23.8828 223.111 23.9609C221.991 24.0391 220.949 24.1172 219.986 24.1953C219.699 24.2214 219.322 24.2474 218.853 24.2734C218.41 24.2995 217.916 24.3385 217.369 24.3906C216.848 24.4427 216.301 24.5078 215.728 24.5859C215.181 24.638 214.673 24.7031 214.205 24.7812L212.369 21.6562C212.681 21.7083 213.085 21.7734 213.58 21.8516C214.101 21.9297 214.634 22.0078 215.181 22.0859C215.754 22.138 216.314 22.1901 216.861 22.2422C217.434 22.2682 217.929 22.2812 218.345 22.2812C219.048 22.2812 219.882 22.2812 220.845 22.2812C221.809 22.2552 222.824 22.2292 223.892 22.2031C224.986 22.151 226.093 22.0859 227.212 22.0078C228.332 21.9297 229.413 21.8385 230.455 21.7344C230.429 21.8906 230.39 22.112 230.337 22.3984C230.285 22.6589 230.233 22.9453 230.181 23.2578C230.129 23.5443 230.077 23.8177 230.025 24.0781C229.973 24.3385 229.934 24.5339 229.908 24.6641L229.712 26.1094C231.093 26.3177 232.382 26.3958 233.58 26.3438C234.153 26.3177 234.804 26.2917 235.533 26.2656C236.262 26.2396 236.9 26.2005 237.447 26.1484V20.5625C237.447 19.7552 237.056 19.1042 236.275 18.6094C235.52 18.0885 234.283 17.6198 232.564 17.2031L233.267 15.7578C233.892 15.8359 234.582 15.9401 235.337 16.0703C236.093 16.1745 236.848 16.3047 237.603 16.4609C238.358 16.5911 239.074 16.7214 239.752 16.8516C240.455 16.9818 241.067 17.0859 241.587 17.1641C241.535 17.3984 241.483 17.6849 241.431 18.0234C241.379 18.362 241.327 18.7135 241.275 19.0781C241.249 19.4167 241.223 19.7292 241.197 20.0156C241.171 20.3021 241.158 20.5104 241.158 20.6406V42.2812C241.158 43.0885 241.132 44.026 241.08 45.0938C241.054 46.1354 241.002 47.1901 240.923 48.2578C240.871 49.2995 240.793 50.2891 240.689 51.2266C240.611 52.1901 240.52 52.9583 240.416 53.5312L237.837 53.8828C237.785 53.4661 237.733 52.9062 237.681 52.2031C237.655 51.5 237.616 50.7448 237.564 49.9375C237.538 49.1562 237.512 48.349 237.486 47.5156C237.46 46.6562 237.447 45.849 237.447 45.0938V36.9688C236.249 37.0208 235.038 37.112 233.814 37.2422C232.616 37.3724 231.522 37.5417 230.533 37.75L229.009 34.7422C229.765 34.8984 230.546 35.0156 231.353 35.0938C232.16 35.1458 232.903 35.1589 233.58 35.1328C234.153 35.1068 234.804 35.0807 235.533 35.0547C236.262 35.0286 236.9 34.9896 237.447 34.9375V28.2188C236.249 28.2708 235.038 28.362 233.814 28.4922C232.616 28.6224 231.522 28.7917 230.533 29L229.595 27.125L229.048 30.875ZM266.725 20.8359C267.949 20.9922 269.069 21.3047 270.084 21.7734C271.1 22.2422 271.972 22.8281 272.702 23.5312C273.431 24.2344 273.991 25.0417 274.381 25.9531C274.798 26.8646 275.006 27.8281 275.006 28.8438C275.006 30.5625 274.459 32.099 273.366 33.4531C272.298 34.7812 270.866 35.7448 269.069 36.3438C269.85 36.3958 270.67 36.4609 271.53 36.5391C272.415 36.6172 273.222 36.7083 273.952 36.8125C273.847 37.2552 273.756 37.7891 273.678 38.4141C273.6 39.013 273.535 39.5729 273.483 40.0938L272.975 45.0938C274.668 44.9896 276.373 44.8594 278.092 44.7031C279.837 44.5469 281.386 44.3646 282.741 44.1562L282.272 47.3594C281.23 47.3073 279.876 47.2682 278.209 47.2422C276.543 47.2161 274.837 47.1901 273.092 47.1641C272.363 47.1641 271.478 47.1771 270.436 47.2031C269.394 47.2031 268.261 47.2292 267.038 47.2812C265.84 47.3073 264.603 47.3464 263.327 47.3984C262.077 47.4245 260.879 47.4635 259.733 47.5156C258.587 47.5417 257.545 47.5807 256.608 47.6328C255.696 47.6849 254.98 47.724 254.459 47.75C253.47 47.8021 252.415 47.8802 251.295 47.9844C250.176 48.0885 249.134 48.2057 248.17 48.3359L246.92 44.8984C248.092 45.0286 249.329 45.1458 250.631 45.25C251.959 45.3281 253.222 45.3932 254.42 45.4453C254.941 45.4714 255.579 45.4844 256.334 45.4844C257.09 45.4844 257.923 45.4844 258.834 45.4844L258.639 40.7188C258.613 40.4323 258.561 40.1719 258.483 39.9375C258.405 39.6771 258.261 39.4427 258.053 39.2344C257.845 39.026 257.532 38.8568 257.116 38.7266C256.725 38.5703 256.191 38.4531 255.514 38.375L256.061 36.9688C256.504 36.9688 256.998 36.9818 257.545 37.0078C258.118 37.0078 258.691 37.0339 259.264 37.0859C259.863 37.112 260.449 37.151 261.022 37.2031C261.621 37.2552 262.181 37.3203 262.702 37.3984C262.545 38.0755 262.428 38.7135 262.35 39.3125C262.298 39.9115 262.285 40.3672 262.311 40.6797L262.506 45.4062C263.756 45.3802 264.967 45.3542 266.139 45.3281C267.311 45.3021 268.392 45.263 269.381 45.2109L269.85 40.0547C269.876 39.6641 269.863 39.3385 269.811 39.0781C269.759 38.8177 269.616 38.5964 269.381 38.4141C269.173 38.2318 268.86 38.0885 268.444 37.9844C268.053 37.8802 267.519 37.776 266.842 37.6719L267.194 36.8516C266.413 37.0078 265.605 37.0859 264.772 37.0859C263.34 37.0859 262.011 36.8776 260.788 36.4609C259.564 36.0443 258.496 35.4714 257.584 34.7422C256.699 34.013 255.996 33.1406 255.475 32.125C254.98 31.1094 254.733 30.0156 254.733 28.8438C254.733 27.776 254.954 26.7734 255.397 25.8359C255.84 24.8984 256.452 24.0651 257.233 23.3359C258.04 22.6068 258.978 22.0208 260.045 21.5781C261.139 21.1354 262.337 20.862 263.639 20.7578C263.613 20.3932 263.483 20.1068 263.248 19.8984C263.014 19.6641 262.532 19.4427 261.803 19.2344L262.545 18.0625C262.858 18.1406 263.209 18.2188 263.6 18.2969C263.991 18.375 264.394 18.4531 264.811 18.5312C265.254 18.6094 265.683 18.6875 266.1 18.7656C266.543 18.8438 266.933 18.9219 267.272 19C267.168 19.2344 267.064 19.5078 266.959 19.8203C266.855 20.1328 266.777 20.4714 266.725 20.8359ZM271.022 28.7656C271.022 27.9062 270.853 27.099 270.514 26.3438C270.202 25.5885 269.772 24.9375 269.225 24.3906C268.678 23.8177 268.027 23.375 267.272 23.0625C266.543 22.75 265.748 22.5938 264.889 22.5938C264.056 22.5938 263.261 22.75 262.506 23.0625C261.777 23.375 261.139 23.8177 260.592 24.3906C260.045 24.9375 259.603 25.5885 259.264 26.3438C258.952 27.099 258.795 27.9062 258.795 28.7656C258.795 29.651 258.952 30.4714 259.264 31.2266C259.603 31.9818 260.045 32.6328 260.592 33.1797C261.139 33.7266 261.777 34.1562 262.506 34.4688C263.261 34.7552 264.056 34.8984 264.889 34.8984C265.748 34.8984 266.543 34.7552 267.272 34.4688C268.027 34.1562 268.678 33.7266 269.225 33.1797C269.798 32.6328 270.241 31.9818 270.553 31.2266C270.866 30.4714 271.022 29.651 271.022 28.7656ZM288.542 30.2109C288.36 28.9089 288.178 27.6328 287.995 26.3828C287.813 25.1068 287.722 23.7266 287.722 22.2422C287.722 21.7474 287.761 21.2786 287.839 20.8359C287.917 20.3672 288.047 19.9505 288.23 19.5859C288.438 19.2214 288.698 18.9349 289.011 18.7266C289.323 18.4922 289.714 18.375 290.183 18.375C290.704 18.375 291.12 18.4922 291.433 18.7266C291.771 18.9349 292.032 19.2214 292.214 19.5859C292.422 19.9505 292.566 20.3802 292.644 20.875C292.722 21.3438 292.761 21.8255 292.761 22.3203C292.761 23.7526 292.683 25.0938 292.527 26.3438C292.37 27.5677 292.227 28.8307 292.097 30.1328C291.967 31.2526 291.862 32.4245 291.784 33.6484C291.706 34.8464 291.628 36.0052 291.55 37.125C291.498 38.2188 291.459 39.2474 291.433 40.2109C291.407 41.1484 291.394 41.9036 291.394 42.4766H289.284C289.284 41.9036 289.271 41.1484 289.245 40.2109C289.245 39.2734 289.219 38.2448 289.167 37.125C289.115 36.0052 289.037 34.8464 288.933 33.6484C288.829 32.4505 288.698 31.3047 288.542 30.2109ZM290.261 45.4453C291.016 45.4453 291.654 45.7188 292.175 46.2656C292.722 46.7865 292.995 47.4115 292.995 48.1406C292.995 48.8958 292.722 49.5339 292.175 50.0547C291.654 50.6016 291.016 50.875 290.261 50.875C289.532 50.875 288.894 50.6016 288.347 50.0547C287.826 49.5339 287.566 48.8958 287.566 48.1406C287.566 47.4115 287.826 46.7865 288.347 46.2656C288.894 45.7188 289.532 45.4453 290.261 45.4453Z" fill="#771DA0"/>
<path d="M5.376 122.064C5.376 121.376 5.56 120.768 5.928 120.24C6.296 119.696 6.808 119.24 7.464 118.872C8.136 118.488 8.92 118.2 9.816 118.008C10.728 117.816 11.728 117.72 12.816 117.72C13.808 117.72 14.752 117.816 15.648 118.008C16.544 118.2 17.336 118.48 18.024 118.848C18.712 119.216 19.256 119.672 19.656 120.216C20.056 120.744 20.256 121.36 20.256 122.064C20.256 122.768 20.056 123.392 19.656 123.936C19.256 124.496 18.712 124.96 18.024 125.328C17.336 125.696 16.544 125.976 15.648 126.168C14.752 126.36 13.808 126.456 12.816 126.456C11.728 126.456 10.728 126.36 9.816 126.168C8.92 125.976 8.136 125.696 7.464 125.328C6.808 124.96 6.296 124.496 5.928 123.936C5.56 123.392 5.376 122.768 5.376 122.064ZM7.152 122.136C7.152 122.616 7.288 123.032 7.56 123.384C7.848 123.752 8.24 124.056 8.736 124.296C9.248 124.536 9.848 124.712 10.536 124.824C11.224 124.952 11.976 125.016 12.792 125.016C13.512 125.016 14.216 124.952 14.904 124.824C15.592 124.712 16.2 124.536 16.728 124.296C17.256 124.056 17.68 123.752 18 123.384C18.336 123.032 18.504 122.616 18.504 122.136C18.504 121.64 18.336 121.208 18 120.84C17.68 120.472 17.256 120.168 16.728 119.928C16.2 119.672 15.592 119.48 14.904 119.352C14.216 119.224 13.512 119.16 12.792 119.16C11.976 119.16 11.224 119.224 10.536 119.352C9.848 119.48 9.248 119.672 8.736 119.928C8.24 120.168 7.848 120.472 7.56 120.84C7.288 121.208 7.152 121.64 7.152 122.136ZM15.48 116.352C15.48 116.576 15.368 116.688 15.144 116.688H14.232C14.008 116.688 13.896 116.576 13.896 116.352V104.976C13.896 104.752 14.008 104.64 14.232 104.64H15.144C15.368 104.64 15.48 104.752 15.48 104.976V110.28H18.528V104.568C18.528 104.344 18.64 104.232 18.864 104.232H19.776C20 104.232 20.112 104.344 20.112 104.568V117.096C20.112 117.32 20 117.432 19.776 117.432H18.864C18.64 117.432 18.528 117.32 18.528 117.096V111.72H15.48V116.352ZM7.992 105.36C7.976 106.576 7.808 107.736 7.488 108.84C7.68 109.4 7.936 109.952 8.256 110.496C8.576 111.04 8.936 111.552 9.336 112.032C9.752 112.512 10.2 112.952 10.68 113.352C11.16 113.736 11.648 114.056 12.144 114.312C12.32 114.408 12.344 114.552 12.216 114.744L11.64 115.56C11.592 115.624 11.536 115.664 11.472 115.68C11.424 115.68 11.328 115.64 11.184 115.56C10.304 115.016 9.472 114.32 8.688 113.472C7.904 112.624 7.256 111.744 6.744 110.832C6.28 111.808 5.696 112.736 4.992 113.616C4.304 114.48 3.472 115.312 2.496 116.112C2.368 116.208 2.256 116.256 2.16 116.256C2.08 116.256 2.024 116.232 1.992 116.184L1.32 115.416C1.176 115.24 1.216 115.072 1.44 114.912C2.256 114.272 2.96 113.6 3.552 112.896C4.144 112.192 4.64 111.448 5.04 110.664C5.44 109.864 5.744 109.024 5.952 108.144C6.16 107.264 6.28 106.328 6.312 105.336C6.296 105.224 6.32 105.136 6.384 105.072C6.448 104.992 6.52 104.952 6.6 104.952L7.728 105.024C7.904 105.024 7.992 105.136 7.992 105.36ZM31.4023 105.336C31.4023 105.96 31.3623 106.568 31.2823 107.16C31.2183 107.752 31.1223 108.328 30.9943 108.888C31.1863 109.544 31.4583 110.2 31.8103 110.856C32.1783 111.496 32.6023 112.112 33.0823 112.704C33.5783 113.28 34.1143 113.808 34.6903 114.288C35.2663 114.752 35.8583 115.128 36.4663 115.416C36.5623 115.464 36.6023 115.528 36.5863 115.608C36.5863 115.688 36.5703 115.768 36.5383 115.848L36.0583 116.64C36.0103 116.72 35.9543 116.776 35.8903 116.808C35.8263 116.84 35.7223 116.816 35.5783 116.736C35.1143 116.512 34.6263 116.192 34.1143 115.776C33.6183 115.36 33.1223 114.904 32.6263 114.408C32.1463 113.896 31.6983 113.36 31.2823 112.8C30.8663 112.224 30.5223 111.672 30.2503 111.144C29.7063 112.44 28.9863 113.624 28.0903 114.696C27.2103 115.752 26.1703 116.672 24.9703 117.456C24.8903 117.504 24.8023 117.536 24.7063 117.552C24.6103 117.568 24.5303 117.536 24.4663 117.456L23.8663 116.664C23.8183 116.6 23.8103 116.52 23.8423 116.424C23.8743 116.328 23.9303 116.256 24.0103 116.208C24.8743 115.68 25.6583 115.024 26.3623 114.24C27.0823 113.456 27.6903 112.592 28.1863 111.648C28.6983 110.704 29.0823 109.696 29.3383 108.624C29.6103 107.536 29.7383 106.432 29.7223 105.312C29.7223 105.056 29.8183 104.928 30.0103 104.928L31.1383 105C31.3143 105 31.4023 105.112 31.4023 105.336ZM42.6103 125.64C42.6103 125.736 42.5703 125.808 42.4903 125.856C42.4103 125.904 42.3303 125.928 42.2503 125.928H30.2263C29.4743 125.928 28.9783 125.784 28.7383 125.496C28.5143 125.224 28.4023 124.76 28.4023 124.104V119.4C28.4023 119.176 28.5143 119.064 28.7383 119.064H29.7223C29.9463 119.064 30.0583 119.176 30.0583 119.4V123.984C30.0583 124.208 30.0903 124.344 30.1543 124.392C30.2343 124.456 30.3863 124.488 30.6103 124.488H42.2503C42.3303 124.488 42.4103 124.512 42.4903 124.56C42.5703 124.624 42.6103 124.696 42.6103 124.776V125.64ZM41.8903 119.88C41.8903 120.104 41.7783 120.216 41.5543 120.216H40.5703C40.3463 120.216 40.2343 120.104 40.2343 119.88V104.568C40.2343 104.344 40.3463 104.232 40.5703 104.232H41.5543C41.7783 104.232 41.8903 104.344 41.8903 104.568V119.88ZM56.3966 112.224C55.6446 112.224 54.8366 112.168 53.9726 112.056C53.1086 111.944 52.3086 111.736 51.5726 111.432C50.8366 111.112 50.2286 110.688 49.7486 110.16C49.2686 109.632 49.0286 108.944 49.0286 108.096C49.0286 107.264 49.2686 106.584 49.7486 106.056C50.2286 105.528 50.8366 105.112 51.5726 104.808C52.3086 104.504 53.1086 104.296 53.9726 104.184C54.8366 104.056 55.6446 103.992 56.3966 103.992C57.1806 103.992 58.0046 104.048 58.8686 104.16C59.7326 104.272 60.5246 104.48 61.2446 104.784C61.9806 105.088 62.5806 105.512 63.0446 106.056C63.5246 106.584 63.7646 107.264 63.7646 108.096C63.7646 108.944 63.5246 109.632 63.0446 110.16C62.5646 110.688 61.9566 111.112 61.2206 111.432C60.5006 111.736 59.7086 111.944 58.8446 112.056C57.9806 112.168 57.1646 112.224 56.3966 112.224ZM56.3966 105.456C55.8846 105.456 55.3006 105.488 54.6446 105.552C54.0046 105.616 53.3966 105.744 52.8206 105.936C52.2446 106.128 51.7566 106.4 51.3566 106.752C50.9726 107.104 50.7806 107.56 50.7806 108.12C50.7806 108.68 50.9726 109.136 51.3566 109.488C51.7566 109.824 52.2446 110.088 52.8206 110.28C53.3966 110.472 54.0046 110.6 54.6446 110.664C55.3006 110.728 55.8846 110.76 56.3966 110.76C56.9086 110.76 57.4846 110.728 58.1246 110.664C58.7806 110.6 59.3966 110.472 59.9726 110.28C60.5486 110.088 61.0286 109.824 61.4126 109.488C61.8126 109.136 62.0126 108.68 62.0126 108.12C62.0126 107.56 61.8126 107.104 61.4126 106.752C61.0126 106.4 60.5246 106.128 59.9486 105.936C59.3726 105.744 58.7566 105.616 58.1006 105.552C57.4606 105.488 56.8926 105.456 56.3966 105.456ZM66.6206 113.688C66.7006 113.688 66.7806 113.72 66.8606 113.784C66.9406 113.832 66.9806 113.904 66.9806 114V114.816C66.9806 114.896 66.9406 114.968 66.8606 115.032C66.7806 115.096 66.7006 115.128 66.6206 115.128H46.2206C46.1246 115.128 46.0366 115.096 45.9566 115.032C45.8926 114.968 45.8606 114.896 45.8606 114.816V114C45.8606 113.904 45.8926 113.832 45.9566 113.784C46.0366 113.72 46.1246 113.688 46.2206 113.688H66.6206ZM64.1006 125.928C64.1006 126.008 64.0606 126.072 63.9806 126.12C63.9166 126.184 63.8526 126.216 63.7886 126.216H51.0206C50.2686 126.216 49.7726 126.072 49.5326 125.784C49.3086 125.512 49.1966 125.04 49.1966 124.368V122.64C49.1966 121.968 49.3326 121.52 49.6046 121.296C49.8926 121.056 50.3966 120.936 51.1166 120.936H61.4366C61.6606 120.936 61.8046 120.904 61.8686 120.84C61.9326 120.776 61.9646 120.624 61.9646 120.384V119.04C61.9646 118.8 61.9326 118.648 61.8686 118.584C61.8206 118.52 61.6846 118.488 61.4606 118.488H49.4846C49.4046 118.488 49.3246 118.464 49.2446 118.416C49.1806 118.368 49.1486 118.304 49.1486 118.224V117.384C49.1486 117.304 49.1806 117.24 49.2446 117.192C49.3246 117.144 49.4046 117.12 49.4846 117.12H61.7006C62.0846 117.12 62.3966 117.152 62.6366 117.216C62.8766 117.264 63.0686 117.352 63.2126 117.48C63.3566 117.608 63.4526 117.792 63.5006 118.032C63.5646 118.256 63.5966 118.536 63.5966 118.872V120.6C63.5966 121.272 63.4526 121.728 63.1646 121.968C62.8926 122.192 62.3966 122.304 61.6766 122.304H51.3326C51.1086 122.304 50.9646 122.336 50.9006 122.4C50.8526 122.464 50.8286 122.616 50.8286 122.856V124.272C50.8286 124.496 50.8606 124.64 50.9246 124.704C50.9886 124.784 51.1326 124.824 51.3566 124.824H63.7646C63.8446 124.824 63.9166 124.848 63.9806 124.896C64.0606 124.944 64.1006 125.008 64.1006 125.088V125.928ZM86.9175 107.856C86.6935 108.512 86.3815 109.176 85.9815 109.848C85.5815 110.504 85.1175 111.16 84.5895 111.816C85.2455 112.568 85.9895 113.28 86.8215 113.952C87.6695 114.608 88.5015 115.152 89.3175 115.584C89.5255 115.68 89.5735 115.832 89.4615 116.04L88.9095 116.856C88.8615 116.936 88.7895 116.984 88.6935 117C88.5975 117 88.5095 116.976 88.4295 116.928C87.6135 116.48 86.7815 115.904 85.9335 115.2C85.1015 114.496 84.3255 113.752 83.6055 112.968C82.6775 113.944 81.6615 114.848 80.5575 115.68C79.4535 116.512 78.3335 117.184 77.1975 117.696C77.1175 117.728 77.0375 117.76 76.9575 117.792C76.8775 117.808 76.8135 117.776 76.7655 117.696L76.2855 116.856C76.2375 116.776 76.2295 116.696 76.2615 116.616C76.2935 116.52 76.3495 116.456 76.4295 116.424C78.3175 115.464 80.0055 114.272 81.4935 112.848C82.9975 111.424 84.1975 109.792 85.0935 107.952C85.2055 107.728 85.2215 107.568 85.1415 107.472C85.0615 107.376 84.9095 107.328 84.6855 107.328H77.6535C77.4615 107.328 77.3655 107.224 77.3655 107.016V106.176C77.3655 105.984 77.4615 105.888 77.6535 105.888H85.3335C86.1655 105.888 86.7015 106.04 86.9415 106.344C87.1815 106.632 87.1735 107.136 86.9175 107.856ZM94.4775 125.64C94.4775 125.736 94.4375 125.808 94.3575 125.856C94.2775 125.904 94.1975 125.928 94.1175 125.928H82.0935C81.3415 125.928 80.8455 125.784 80.6055 125.496C80.3815 125.224 80.2695 124.76 80.2695 124.104V119.64C80.2695 119.416 80.3815 119.304 80.6055 119.304H81.5895C81.8135 119.304 81.9255 119.416 81.9255 119.64V123.984C81.9255 124.208 81.9575 124.344 82.0215 124.392C82.1015 124.456 82.2535 124.488 82.4775 124.488H94.1175C94.1975 124.488 94.2775 124.512 94.3575 124.56C94.4375 124.624 94.4775 124.696 94.4775 124.776V125.64ZM93.7575 119.976C93.7575 120.2 93.6455 120.312 93.4215 120.312H92.4375C92.2135 120.312 92.1015 120.2 92.1015 119.976V104.568C92.1015 104.344 92.2135 104.232 92.4375 104.232H93.4215C93.6455 104.232 93.7575 104.344 93.7575 104.568V119.976ZM102.624 119.928C102.624 119.256 102.752 118.808 103.008 118.584C103.264 118.344 103.744 118.224 104.448 118.224H114.504C114.888 118.224 115.192 118.248 115.416 118.296C115.656 118.344 115.84 118.432 115.968 118.56C116.112 118.688 116.208 118.864 116.256 119.088C116.304 119.312 116.328 119.592 116.328 119.928V124.464C116.328 125.136 116.2 125.584 115.944 125.808C115.688 126.048 115.208 126.168 114.504 126.168H104.448C104.064 126.168 103.752 126.144 103.512 126.096C103.288 126.048 103.104 125.952 102.96 125.808C102.832 125.68 102.744 125.504 102.696 125.28C102.648 125.072 102.624 124.8 102.624 124.464V119.928ZM104.856 119.664C104.632 119.664 104.48 119.712 104.4 119.808C104.32 119.888 104.28 120.048 104.28 120.288V124.104C104.28 124.344 104.32 124.504 104.4 124.584C104.48 124.68 104.632 124.728 104.856 124.728H114.096C114.32 124.728 114.472 124.68 114.552 124.584C114.632 124.504 114.672 124.344 114.672 124.104V120.288C114.672 120.048 114.632 119.888 114.552 119.808C114.472 119.712 114.32 119.664 114.096 119.664H104.856ZM105.792 105.096C105.792 106.264 105.672 107.352 105.432 108.36C105.624 109.032 105.888 109.672 106.224 110.28C106.576 110.888 106.984 111.456 107.448 111.984C107.912 112.512 108.416 112.992 108.96 113.424C109.52 113.84 110.104 114.192 110.712 114.48C110.808 114.528 110.848 114.6 110.832 114.696C110.832 114.776 110.816 114.848 110.784 114.912L110.28 115.704C110.232 115.784 110.176 115.84 110.112 115.872C110.048 115.904 109.944 115.88 109.8 115.8C109.432 115.608 109.008 115.352 108.528 115.032C108.064 114.696 107.592 114.304 107.112 113.856C106.632 113.408 106.176 112.92 105.744 112.392C105.312 111.848 104.952 111.288 104.664 110.712C104.136 111.928 103.424 113.032 102.528 114.024C101.632 115.016 100.584 115.904 99.3838 116.688C99.3038 116.736 99.2158 116.768 99.1198 116.784C99.0238 116.8 98.9438 116.768 98.8798 116.688L98.2798 115.896C98.2478 115.832 98.2398 115.752 98.2558 115.656C98.2878 115.56 98.3438 115.488 98.4238 115.44C100.328 114.272 101.76 112.8 102.72 111.024C103.68 109.248 104.144 107.264 104.112 105.072C104.112 104.816 104.208 104.688 104.4 104.688L105.528 104.76C105.704 104.76 105.792 104.872 105.792 105.096ZM116.328 116.52C116.328 116.744 116.216 116.856 115.992 116.856H115.008C114.784 116.856 114.672 116.744 114.672 116.52V104.568C114.672 104.344 114.784 104.232 115.008 104.232H115.992C116.216 104.232 116.328 104.344 116.328 104.568V116.52ZM130.81 116.472C129.962 116.472 129.082 116.368 128.17 116.16C127.274 115.952 126.45 115.632 125.698 115.2C124.946 114.752 124.33 114.192 123.85 113.52C123.37 112.832 123.13 112.008 123.13 111.048C123.13 110.088 123.37 109.272 123.85 108.6C124.33 107.912 124.946 107.352 125.698 106.92C126.45 106.472 127.274 106.152 128.17 105.96C129.082 105.752 129.962 105.648 130.81 105.648C131.674 105.648 132.554 105.752 133.45 105.96C134.362 106.152 135.186 106.472 135.922 106.92C136.674 107.352 137.29 107.912 137.77 108.6C138.25 109.272 138.49 110.088 138.49 111.048C138.49 112.008 138.25 112.832 137.77 113.52C137.29 114.192 136.674 114.752 135.922 115.2C135.186 115.632 134.362 115.952 133.45 116.16C132.554 116.368 131.674 116.472 130.81 116.472ZM130.81 107.184C130.234 107.184 129.602 107.248 128.914 107.376C128.226 107.488 127.586 107.696 126.994 108C126.402 108.288 125.906 108.688 125.506 109.2C125.106 109.696 124.906 110.32 124.906 111.072C124.906 111.824 125.106 112.448 125.506 112.944C125.906 113.44 126.402 113.84 126.994 114.144C127.586 114.432 128.226 114.64 128.914 114.768C129.602 114.88 130.234 114.936 130.81 114.936C131.37 114.936 131.986 114.88 132.658 114.768C133.346 114.64 133.986 114.432 134.578 114.144C135.186 113.84 135.69 113.44 136.09 112.944C136.506 112.448 136.714 111.824 136.714 111.072C136.714 110.32 136.506 109.696 136.09 109.2C135.69 108.688 135.186 108.288 134.578 108C133.986 107.696 133.346 107.488 132.658 107.376C131.986 107.248 131.37 107.184 130.81 107.184ZM141.058 121.128C141.138 121.128 141.218 121.16 141.298 121.224C141.378 121.272 141.418 121.344 141.418 121.44V122.256C141.418 122.336 141.378 122.408 141.298 122.472C141.218 122.536 141.138 122.568 141.058 122.568H120.658C120.562 122.568 120.474 122.536 120.394 122.472C120.33 122.408 120.298 122.336 120.298 122.256V121.44C120.298 121.344 120.33 121.272 120.394 121.224C120.474 121.16 120.562 121.128 120.658 121.128H141.058ZM152.54 121.128V116.952H147.74C146.988 116.952 146.492 116.816 146.252 116.544C146.028 116.256 145.916 115.776 145.916 115.104V112.104C145.916 111.416 146.052 110.96 146.324 110.736C146.612 110.512 147.116 110.4 147.836 110.4H158.66C158.884 110.4 159.02 110.368 159.068 110.304C159.132 110.24 159.164 110.088 159.164 109.848V107.352C159.164 107.112 159.132 106.96 159.068 106.896C159.02 106.832 158.884 106.8 158.66 106.8H146.252C146.172 106.8 146.092 106.776 146.012 106.728C145.948 106.68 145.916 106.616 145.916 106.536V105.624C145.916 105.544 145.948 105.48 146.012 105.432C146.092 105.384 146.172 105.36 146.252 105.36H158.924C159.308 105.36 159.62 105.392 159.86 105.456C160.1 105.504 160.292 105.592 160.436 105.72C160.58 105.848 160.676 106.032 160.724 106.272C160.788 106.496 160.82 106.776 160.82 107.112V110.112C160.82 110.8 160.676 111.256 160.388 111.48C160.116 111.704 159.62 111.816 158.9 111.816H148.076C147.852 111.816 147.708 111.848 147.644 111.912C147.596 111.976 147.572 112.128 147.572 112.368V114.96C147.572 115.184 147.604 115.336 147.668 115.416C147.732 115.48 147.876 115.512 148.1 115.512H160.988C161.068 115.512 161.14 115.536 161.204 115.584C161.284 115.632 161.324 115.696 161.324 115.776V116.664C161.324 116.744 161.284 116.816 161.204 116.88C161.14 116.928 161.076 116.952 161.012 116.952H154.196V121.128H163.628C163.708 121.128 163.788 121.16 163.868 121.224C163.948 121.272 163.988 121.344 163.988 121.44V122.256C163.988 122.336 163.948 122.408 163.868 122.472C163.788 122.536 163.708 122.568 163.628 122.568H143.228C143.132 122.568 143.044 122.536 142.964 122.472C142.9 122.408 142.868 122.336 142.868 122.256V121.44C142.868 121.344 142.9 121.272 142.964 121.224C143.044 121.16 143.132 121.128 143.228 121.128H152.54ZM174.997 119.976C174.997 119.88 175.037 119.808 175.117 119.76C175.197 119.712 175.277 119.688 175.357 119.688H181.861V117.048H172.525C172.429 117.048 172.341 117.016 172.261 116.952C172.197 116.888 172.165 116.816 172.165 116.736V115.92C172.165 115.824 172.197 115.752 172.261 115.704C172.341 115.64 172.429 115.608 172.525 115.608H192.925C193.005 115.608 193.085 115.64 193.165 115.704C193.245 115.752 193.285 115.824 193.285 115.92V116.736C193.285 116.816 193.245 116.888 193.165 116.952C193.085 117.016 193.005 117.048 192.925 117.048H183.517V119.688H188.101C188.853 119.688 189.341 119.832 189.565 120.12C189.805 120.392 189.925 120.856 189.925 121.512V126.264C189.925 126.488 189.813 126.6 189.589 126.6H188.605C188.381 126.6 188.269 126.488 188.269 126.264V121.632C188.269 121.408 188.229 121.272 188.149 121.224C188.085 121.16 187.941 121.128 187.717 121.128H175.357C175.277 121.128 175.197 121.104 175.117 121.056C175.037 120.992 174.997 120.92 174.997 120.84V119.976ZM187.957 109.464C187.541 109.784 187.069 110.088 186.541 110.376C186.029 110.664 185.469 110.944 184.861 111.216C185.757 111.472 186.725 111.712 187.765 111.936C188.805 112.144 189.797 112.312 190.741 112.44C190.869 112.472 190.941 112.512 190.957 112.56C190.989 112.608 190.989 112.688 190.957 112.8L190.741 113.616C190.693 113.792 190.565 113.856 190.357 113.808C189.845 113.728 189.269 113.632 188.629 113.52C188.005 113.392 187.357 113.248 186.685 113.088C186.013 112.928 185.341 112.768 184.669 112.608C183.997 112.432 183.357 112.256 182.749 112.08C181.645 112.496 180.453 112.872 179.173 113.208C177.909 113.528 176.581 113.808 175.189 114.048C174.949 114.096 174.797 114.04 174.733 113.88L174.445 113.064C174.413 112.984 174.421 112.912 174.469 112.848C174.517 112.768 174.589 112.712 174.685 112.68C175.853 112.456 176.941 112.216 177.949 111.96C178.957 111.704 179.909 111.432 180.805 111.144C181.717 110.856 182.581 110.552 183.397 110.232C184.213 109.896 185.021 109.536 185.821 109.152C186.093 109.024 186.213 108.904 186.181 108.792C186.165 108.68 186.029 108.624 185.773 108.624H176.221C176.013 108.624 175.909 108.52 175.909 108.312V107.472C175.909 107.28 176.013 107.184 176.221 107.184H186.589C187.837 107.184 188.597 107.408 188.869 107.856C189.141 108.288 188.837 108.824 187.957 109.464ZM185.749 104.232C185.989 104.232 186.109 104.344 186.109 104.568V105.336C186.109 105.576 185.989 105.696 185.749 105.696H179.437C179.197 105.696 179.077 105.576 179.077 105.336V104.568C179.077 104.344 179.197 104.232 179.437 104.232H185.749ZM207.312 117.216C207.312 117.872 207.176 118.48 206.904 119.04C206.648 119.6 206.288 120.096 205.824 120.528C205.36 120.944 204.808 121.272 204.168 121.512C203.528 121.752 202.84 121.872 202.104 121.872C201.352 121.872 200.656 121.752 200.016 121.512C199.392 121.272 198.848 120.944 198.384 120.528C197.92 120.112 197.552 119.624 197.28 119.064C197.024 118.488 196.896 117.872 196.896 117.216C196.896 116.544 197.024 115.928 197.28 115.368C197.552 114.792 197.92 114.296 198.384 113.88C198.848 113.464 199.392 113.136 200.016 112.896C200.656 112.656 201.352 112.536 202.104 112.536C202.84 112.536 203.528 112.664 204.168 112.92C204.808 113.16 205.36 113.488 205.824 113.904C206.288 114.32 206.648 114.816 206.904 115.392C207.176 115.968 207.312 116.576 207.312 117.216ZM212.496 126.024C212.496 126.248 212.384 126.36 212.16 126.36H211.176C210.952 126.36 210.84 126.248 210.84 126.024V104.568C210.84 104.344 210.952 104.232 211.176 104.232H212.16C212.384 104.232 212.496 104.344 212.496 104.568V113.424H215.808C215.904 113.424 215.984 113.456 216.048 113.52C216.128 113.568 216.168 113.64 216.168 113.736V114.552C216.168 114.632 216.128 114.704 216.048 114.768C215.984 114.832 215.904 114.864 215.808 114.864H212.496V126.024ZM205.68 117.216C205.68 116.752 205.592 116.32 205.416 115.92C205.24 115.52 204.992 115.176 204.672 114.888C204.352 114.584 203.968 114.352 203.52 114.192C203.088 114.016 202.616 113.928 202.104 113.928C201.592 113.928 201.112 114.016 200.664 114.192C200.232 114.352 199.856 114.584 199.536 114.888C199.216 115.176 198.96 115.52 198.768 115.92C198.592 116.32 198.504 116.752 198.504 117.216C198.504 117.68 198.592 118.112 198.768 118.512C198.96 118.896 199.216 119.24 199.536 119.544C199.856 119.832 200.232 120.064 200.664 120.24C201.112 120.4 201.592 120.48 202.104 120.48C202.616 120.48 203.088 120.4 203.52 120.24C203.968 120.064 204.352 119.832 204.672 119.544C204.992 119.256 205.24 118.912 205.416 118.512C205.592 118.112 205.68 117.68 205.68 117.216ZM209.112 110.52C209.112 110.728 208.992 110.832 208.752 110.832H195.504C195.424 110.832 195.344 110.8 195.264 110.736C195.2 110.672 195.168 110.592 195.168 110.496V109.728C195.168 109.632 195.2 109.552 195.264 109.488C195.344 109.424 195.424 109.392 195.504 109.392H208.752C208.992 109.392 209.112 109.496 209.112 109.704V110.52ZM205.608 106.44C205.608 106.664 205.488 106.776 205.248 106.776H198.672C198.592 106.776 198.512 106.752 198.432 106.704C198.368 106.64 198.336 106.56 198.336 106.464V105.648C198.336 105.552 198.368 105.472 198.432 105.408C198.496 105.344 198.568 105.312 198.648 105.312H205.248C205.488 105.312 205.608 105.424 205.608 105.648V106.44ZM244.793 121.128C244.873 121.128 244.953 121.16 245.033 121.224C245.113 121.272 245.153 121.344 245.153 121.44V122.256C245.153 122.336 245.113 122.408 245.033 122.472C244.953 122.536 244.873 122.568 244.793 122.568H224.393C224.297 122.568 224.209 122.536 224.129 122.472C224.065 122.408 224.033 122.336 224.033 122.256V121.44C224.033 121.344 224.065 121.272 224.129 121.224C224.209 121.16 224.297 121.128 224.393 121.128H244.793ZM242.177 115.8C242.177 116.024 242.073 116.136 241.865 116.136H228.905C228.201 116.136 227.721 116.024 227.465 115.8C227.209 115.56 227.081 115.104 227.081 114.432V107.496C227.081 106.824 227.209 106.376 227.465 106.152C227.721 105.912 228.201 105.792 228.905 105.792H241.697C241.905 105.792 242.009 105.896 242.009 106.104V106.896C242.009 107.12 241.905 107.232 241.697 107.232H229.312C229.089 107.232 228.937 107.28 228.857 107.376C228.777 107.456 228.737 107.616 228.737 107.856V114.072C228.737 114.296 228.777 114.456 228.857 114.552C228.937 114.648 229.089 114.696 229.312 114.696H241.865C242.073 114.696 242.177 114.8 242.177 115.008V115.8ZM265.203 116.232C265.203 116.456 265.091 116.568 264.867 116.568H263.883C263.659 116.568 263.547 116.456 263.547 116.232V104.568C263.547 104.344 263.659 104.232 263.883 104.232H264.867C265.091 104.232 265.203 104.344 265.203 104.568V116.232ZM250.371 115.824C249.651 115.824 249.163 115.688 248.907 115.416C248.667 115.128 248.547 114.648 248.547 113.976V111.264C248.547 110.592 248.683 110.144 248.955 109.92C249.243 109.68 249.747 109.56 250.467 109.56H256.251C256.475 109.56 256.619 109.528 256.683 109.464C256.747 109.4 256.779 109.248 256.779 109.008V106.968C256.779 106.728 256.747 106.576 256.683 106.512C256.635 106.448 256.499 106.416 256.275 106.416H248.931C248.739 106.416 248.643 106.312 248.643 106.104V105.264C248.643 105.072 248.739 104.976 248.931 104.976H256.539C256.923 104.976 257.235 105.008 257.475 105.072C257.715 105.12 257.907 105.208 258.051 105.336C258.195 105.464 258.291 105.648 258.339 105.888C258.403 106.112 258.435 106.392 258.435 106.728V109.296C258.435 109.968 258.291 110.424 258.003 110.664C257.731 110.888 257.235 111 256.515 111H250.707C250.483 111 250.339 111.032 250.275 111.096C250.227 111.16 250.203 111.312 250.203 111.552V113.856C250.203 114.224 250.379 114.408 250.731 114.408C252.667 114.392 254.443 114.32 256.059 114.192C257.675 114.048 259.275 113.84 260.859 113.568C261.019 113.536 261.123 113.536 261.171 113.568C261.235 113.6 261.283 113.68 261.315 113.808L261.459 114.576C261.491 114.72 261.475 114.816 261.411 114.864C261.363 114.912 261.267 114.952 261.123 114.984C259.667 115.24 258.003 115.448 256.131 115.608C254.275 115.768 252.355 115.84 250.371 115.824ZM253.299 126.168C252.915 126.168 252.603 126.144 252.363 126.096C252.139 126.048 251.963 125.952 251.835 125.808C251.707 125.68 251.619 125.504 251.571 125.28C251.523 125.072 251.499 124.8 251.499 124.464V118.2C251.499 118.12 251.531 118.056 251.595 118.008C251.659 117.96 251.731 117.936 251.811 117.936H252.867C252.947 117.936 253.011 117.968 253.059 118.032C253.123 118.08 253.155 118.136 253.155 118.2V120.504H263.547V118.248C263.547 118.168 263.571 118.096 263.619 118.032C263.683 117.968 263.755 117.936 263.835 117.936H264.891C264.971 117.936 265.043 117.968 265.107 118.032C265.171 118.08 265.203 118.144 265.203 118.224V124.632C265.203 125.24 265.075 125.648 264.819 125.856C264.563 126.064 264.083 126.168 263.379 126.168H253.299ZM253.155 121.944V124.152C253.155 124.392 253.195 124.544 253.275 124.608C253.355 124.688 253.507 124.728 253.731 124.728H262.971C263.195 124.728 263.347 124.688 263.427 124.608C263.507 124.544 263.547 124.392 263.547 124.152V121.944H253.155ZM287.773 126.024C287.773 126.248 287.661 126.36 287.437 126.36H286.453C286.229 126.36 286.117 126.248 286.117 126.024V104.568C286.117 104.344 286.229 104.232 286.453 104.232H287.437C287.661 104.232 287.773 104.344 287.773 104.568V126.024ZM273.205 117.6C273.205 117.84 273.245 118 273.325 118.08C273.405 118.16 273.557 118.208 273.781 118.224C274.565 118.256 275.397 118.264 276.277 118.248C277.173 118.216 278.069 118.168 278.965 118.104C279.861 118.024 280.733 117.928 281.581 117.816C282.445 117.704 283.245 117.576 283.981 117.432C284.253 117.368 284.413 117.464 284.461 117.72L284.581 118.392C284.629 118.616 284.525 118.76 284.269 118.824C283.725 118.952 283.021 119.072 282.157 119.184C281.309 119.296 280.389 119.4 279.397 119.496C278.405 119.576 277.389 119.64 276.349 119.688C275.309 119.72 274.341 119.728 273.445 119.712C272.725 119.696 272.229 119.528 271.957 119.208C271.685 118.888 271.549 118.392 271.549 117.72V105.912C271.549 105.688 271.661 105.576 271.885 105.576H272.869C273.093 105.576 273.205 105.688 273.205 105.912V117.6ZM306.095 118.608C306.127 118.832 306.023 118.968 305.783 119.016C305.191 119.16 304.439 119.296 303.527 119.424C302.631 119.552 301.679 119.664 300.671 119.76C299.679 119.856 298.695 119.928 297.719 119.976C296.743 120.024 295.895 120.04 295.175 120.024C294.455 120.008 293.959 119.84 293.687 119.52C293.431 119.2 293.303 118.704 293.303 118.032V107.712C293.303 107.04 293.431 106.592 293.687 106.368C293.943 106.144 294.423 106.032 295.127 106.032H303.383C303.591 106.032 303.695 106.128 303.695 106.32V107.184C303.695 107.376 303.591 107.472 303.383 107.472H295.439C295.215 107.472 295.079 107.504 295.031 107.568C294.983 107.616 294.959 107.76 294.959 108V117.912C294.959 118.152 294.999 118.312 295.079 118.392C295.159 118.472 295.311 118.52 295.535 118.536C296.303 118.568 297.111 118.568 297.959 118.536C298.823 118.488 299.687 118.424 300.551 118.344C301.431 118.248 302.287 118.144 303.119 118.032C303.967 117.904 304.767 117.768 305.519 117.624C305.775 117.576 305.927 117.664 305.975 117.888L306.095 118.608ZM309.503 126.024C309.503 126.248 309.391 126.36 309.167 126.36H308.183C307.959 126.36 307.847 126.248 307.847 126.024V104.568C307.847 104.344 307.959 104.232 308.183 104.232H309.167C309.391 104.232 309.503 104.344 309.503 104.568V113.304H312.815C312.911 113.304 312.991 113.336 313.055 113.4C313.135 113.448 313.175 113.52 313.175 113.616V114.432C313.175 114.512 313.135 114.584 313.055 114.648C312.991 114.712 312.911 114.744 312.815 114.744H309.503V126.024ZM316.186 123.96C316.186 123.624 316.298 123.336 316.522 123.096C316.762 122.872 317.05 122.76 317.386 122.76C317.722 122.76 318.002 122.872 318.226 123.096C318.466 123.336 318.586 123.624 318.586 123.96C318.586 124.296 318.466 124.576 318.226 124.8C318.002 125.04 317.722 125.16 317.386 125.16C317.05 125.16 316.762 125.04 316.522 124.8C316.298 124.576 316.186 124.296 316.186 123.96ZM20.184 152.76C20.184 153.352 19.976 153.872 19.56 154.32C19.16 154.784 18.624 155.168 17.952 155.472C17.28 155.792 16.504 156.032 15.624 156.192C14.744 156.352 13.824 156.432 12.864 156.432C11.824 156.432 10.856 156.352 9.96 156.192C9.08 156.032 8.312 155.792 7.656 155.472C7 155.168 6.488 154.784 6.12 154.32C5.752 153.872 5.568 153.352 5.568 152.76C5.568 152.184 5.752 151.672 6.12 151.224C6.488 150.776 7 150.4 7.656 150.096C8.312 149.776 9.08 149.536 9.96 149.376C10.856 149.216 11.824 149.136 12.864 149.136C13.824 149.136 14.744 149.216 15.624 149.376C16.504 149.536 17.28 149.768 17.952 150.072C18.624 150.376 19.16 150.76 19.56 151.224C19.976 151.672 20.184 152.184 20.184 152.76ZM11.448 143.904C11.448 144.384 11.344 144.856 11.136 145.32C10.944 145.768 10.648 146.168 10.248 146.52C9.864 146.872 9.384 147.16 8.808 147.384C8.248 147.592 7.608 147.696 6.888 147.696C6.152 147.696 5.496 147.592 4.92 147.384C4.36 147.16 3.888 146.872 3.504 146.52C3.12 146.168 2.824 145.768 2.616 145.32C2.424 144.856 2.328 144.384 2.328 143.904C2.328 143.408 2.424 142.936 2.616 142.488C2.824 142.04 3.12 141.64 3.504 141.288C3.888 140.936 4.36 140.656 4.92 140.448C5.496 140.24 6.152 140.136 6.888 140.136C7.608 140.136 8.248 140.248 8.808 140.472C9.384 140.68 9.864 140.96 10.248 141.312C10.648 141.648 10.944 142.048 11.136 142.512C11.344 142.96 11.448 143.424 11.448 143.904ZM15.48 140.616H18.528V134.568C18.528 134.344 18.64 134.232 18.864 134.232H19.776C20 134.232 20.112 134.344 20.112 134.568V148.104C20.112 148.328 20 148.44 19.776 148.44H18.864C18.64 148.44 18.528 148.328 18.528 148.104V142.056H15.48V147.36C15.48 147.584 15.368 147.696 15.144 147.696H14.232C14.008 147.696 13.896 147.584 13.896 147.36V134.976C13.896 134.752 14.008 134.64 14.232 134.64H15.144C15.368 134.64 15.48 134.752 15.48 134.976V140.616ZM18.504 152.832C18.504 152.432 18.336 152.088 18 151.8C17.664 151.496 17.224 151.248 16.68 151.056C16.152 150.864 15.552 150.72 14.88 150.624C14.208 150.528 13.528 150.48 12.84 150.48C12.088 150.48 11.368 150.528 10.68 150.624C10.008 150.72 9.416 150.864 8.904 151.056C8.392 151.248 7.984 151.496 7.68 151.8C7.392 152.088 7.248 152.432 7.248 152.832C7.248 153.216 7.392 153.544 7.68 153.816C7.984 154.104 8.392 154.344 8.904 154.536C9.416 154.728 10.008 154.864 10.68 154.944C11.368 155.04 12.088 155.088 12.84 155.088C13.528 155.088 14.208 155.04 14.88 154.944C15.552 154.864 16.152 154.728 16.68 154.536C17.224 154.344 17.664 154.104 18 153.816C18.336 153.544 18.504 153.216 18.504 152.832ZM9.912 143.904C9.912 143.248 9.656 142.688 9.144 142.224C8.648 141.744 7.896 141.504 6.888 141.504C5.88 141.504 5.12 141.736 4.608 142.2C4.112 142.664 3.864 143.232 3.864 143.904C3.864 144.544 4.112 145.112 4.608 145.608C5.12 146.088 5.88 146.328 6.888 146.328C7.896 146.328 8.648 146.088 9.144 145.608C9.656 145.112 9.912 144.544 9.912 143.904ZM12.192 138.744C12.192 138.952 12.072 139.056 11.832 139.056H1.776C1.696 139.056 1.616 139.024 1.536 138.96C1.472 138.896 1.44 138.816 1.44 138.72V137.952C1.44 137.856 1.472 137.776 1.536 137.712C1.616 137.648 1.696 137.616 1.776 137.616H11.832C12.072 137.616 12.192 137.72 12.192 137.928V138.744ZM9.792 135.864C9.792 136.088 9.672 136.2 9.432 136.2H4.32C4.24 136.2 4.16 136.176 4.08 136.128C4.016 136.064 3.984 135.984 3.984 135.888V135.072C3.984 134.976 4.016 134.896 4.08 134.832C4.144 134.768 4.216 134.736 4.296 134.736H9.432C9.672 134.736 9.792 134.848 9.792 135.072V135.864ZM34.5943 143.16V145.8H44.0503C44.1303 145.8 44.2103 145.832 44.2903 145.896C44.3703 145.944 44.4103 146.016 44.4103 146.112V146.928C44.4103 147.008 44.3703 147.08 44.2903 147.144C44.2103 147.208 44.1303 147.24 44.0503 147.24H23.6503C23.5543 147.24 23.4663 147.208 23.3863 147.144C23.3223 147.08 23.2903 147.008 23.2903 146.928V146.112C23.2903 146.016 23.3223 145.944 23.3863 145.896C23.4663 145.832 23.5543 145.8 23.6503 145.8H32.9383V143.16H28.5703C28.1863 143.16 27.8743 143.136 27.6343 143.088C27.4103 143.04 27.2343 142.952 27.1063 142.824C26.9783 142.68 26.8903 142.504 26.8423 142.296C26.7943 142.072 26.7703 141.792 26.7703 141.456V134.664C26.7703 134.584 26.8023 134.52 26.8663 134.472C26.9303 134.408 27.0023 134.376 27.0823 134.376H28.1143C28.1943 134.376 28.2583 134.408 28.3063 134.472C28.3703 134.536 28.4023 134.6 28.4023 134.664V137.376H39.2983V134.688C39.2983 134.608 39.3223 134.536 39.3703 134.472C39.4343 134.408 39.5063 134.376 39.5863 134.376H40.6183C40.6983 134.376 40.7703 134.408 40.8343 134.472C40.8983 134.52 40.9303 134.584 40.9303 134.664V141.624C40.9303 142.232 40.8023 142.64 40.5463 142.848C40.2903 143.056 39.8103 143.16 39.1063 143.16H34.5943ZM28.4023 138.792V141.168C28.4023 141.408 28.4423 141.568 28.5223 141.648C28.6023 141.712 28.7543 141.744 28.9783 141.744H38.7223C38.9463 141.744 39.0983 141.712 39.1783 141.648C39.2583 141.568 39.2983 141.408 39.2983 141.168V138.792H28.4023ZM26.1223 149.736C26.1223 149.64 26.1623 149.568 26.2423 149.52C26.3223 149.472 26.4023 149.448 26.4823 149.448H39.2263C39.9783 149.448 40.4663 149.592 40.6903 149.88C40.9303 150.152 41.0503 150.616 41.0503 151.272V156.264C41.0503 156.488 40.9383 156.6 40.7143 156.6H39.7303C39.5063 156.6 39.3943 156.488 39.3943 156.264V151.392C39.3943 151.168 39.3543 151.032 39.2743 150.984C39.2103 150.92 39.0663 150.888 38.8423 150.888H26.4823C26.4023 150.888 26.3223 150.864 26.2423 150.816C26.1623 150.752 26.1223 150.68 26.1223 150.6V149.736ZM64.0352 137.76C63.9552 139.136 63.6832 140.488 63.2192 141.816C62.7552 143.144 62.1072 144.416 61.2752 145.632C60.4592 146.832 59.4672 147.952 58.2992 148.992C57.1472 150.016 55.8352 150.92 54.3632 151.704C54.1552 151.816 54.0032 151.792 53.9072 151.632L53.3792 150.792C53.2672 150.6 53.2992 150.464 53.4752 150.384C54.8352 149.68 56.0352 148.88 57.0752 147.984C58.1312 147.072 59.0272 146.088 59.7632 145.032C60.5152 143.976 61.1072 142.864 61.5392 141.696C61.9712 140.528 62.2432 139.328 62.3552 138.096C62.3872 137.856 62.3552 137.696 62.2592 137.616C62.1632 137.52 62.0032 137.472 61.7792 137.472H54.3392C54.1472 137.472 54.0512 137.368 54.0512 137.16V136.32C54.0512 136.128 54.1472 136.032 54.3392 136.032H62.2352C62.9872 136.032 63.4832 136.176 63.7232 136.464C63.9632 136.736 64.0672 137.168 64.0352 137.76ZM70.3472 156.024C70.3472 156.248 70.2352 156.36 70.0112 156.36H69.0272C68.8032 156.36 68.6912 156.248 68.6912 156.024V134.568C68.6912 134.344 68.8032 134.232 69.0272 134.232H70.0112C70.2352 134.232 70.3472 134.344 70.3472 134.568V143.064H73.6592C73.7552 143.064 73.8352 143.096 73.8992 143.16C73.9792 143.208 74.0192 143.28 74.0192 143.376V144.192C74.0192 144.272 73.9792 144.344 73.8992 144.408C73.8352 144.472 73.7552 144.504 73.6592 144.504H70.3472V156.024ZM93.1095 142.2C93.1095 142.424 93.0055 142.536 92.7975 142.536H80.4135C79.7095 142.536 79.2295 142.424 78.9735 142.2C78.7175 141.96 78.5895 141.504 78.5895 140.832V136.416C78.5895 135.744 78.7175 135.296 78.9735 135.072C79.2295 134.832 79.7095 134.712 80.4135 134.712H92.6295C92.8375 134.712 92.9415 134.816 92.9415 135.024V135.816C92.9415 136.04 92.8375 136.152 92.6295 136.152H80.8215C80.5975 136.152 80.4455 136.2 80.3655 136.296C80.2855 136.376 80.2455 136.536 80.2455 136.776V140.472C80.2455 140.696 80.2855 140.856 80.3655 140.952C80.4455 141.048 80.5975 141.096 80.8215 141.096H92.7975C93.0055 141.096 93.1095 141.2 93.1095 141.408V142.2ZM95.9175 145.152C95.9975 145.152 96.0775 145.184 96.1575 145.248C96.2375 145.296 96.2775 145.368 96.2775 145.464V146.28C96.2775 146.36 96.2375 146.432 96.1575 146.496C96.0775 146.56 95.9975 146.592 95.9175 146.592H75.5175C75.4215 146.592 75.3335 146.56 75.2535 146.496C75.1895 146.432 75.1575 146.36 75.1575 146.28V145.464C75.1575 145.368 75.1895 145.296 75.2535 145.248C75.3335 145.184 75.4215 145.152 75.5175 145.152H95.9175ZM77.9895 149.256C77.9895 149.16 78.0295 149.088 78.1095 149.04C78.1895 148.992 78.2695 148.968 78.3495 148.968H91.0935C91.8455 148.968 92.3335 149.112 92.5575 149.4C92.7975 149.672 92.9175 150.136 92.9175 150.792V156.264C92.9175 156.488 92.8055 156.6 92.5815 156.6H91.5975C91.3735 156.6 91.2615 156.488 91.2615 156.264V150.912C91.2615 150.688 91.2215 150.552 91.1415 150.504C91.0775 150.44 90.9335 150.408 90.7095 150.408H78.3495C78.2695 150.408 78.1895 150.384 78.1095 150.336C78.0295 150.272 77.9895 150.2 77.9895 150.12V149.256ZM110.088 144.864C110.088 145.44 109.96 145.984 109.704 146.496C109.448 147.008 109.096 147.456 108.648 147.84C108.216 148.224 107.696 148.528 107.088 148.752C106.48 148.96 105.824 149.064 105.12 149.064C104.416 149.064 103.76 148.96 103.152 148.752C102.544 148.528 102.016 148.224 101.568 147.84C101.136 147.456 100.792 147.008 100.536 146.496C100.296 145.984 100.176 145.44 100.176 144.864C100.176 144.288 100.296 143.752 100.536 143.256C100.792 142.744 101.136 142.304 101.568 141.936C102.016 141.552 102.544 141.256 103.152 141.048C103.76 140.824 104.416 140.712 105.12 140.712C105.824 140.712 106.48 140.824 107.088 141.048C107.696 141.256 108.216 141.552 108.648 141.936C109.096 142.304 109.448 142.744 109.704 143.256C109.96 143.752 110.088 144.288 110.088 144.864ZM115.488 150.96C115.488 151.184 115.376 151.296 115.152 151.296H114.168C113.944 151.296 113.832 151.184 113.832 150.96V134.568C113.832 134.344 113.944 134.232 114.168 134.232H115.152C115.376 134.232 115.488 134.344 115.488 134.568V142.512H118.8C118.896 142.512 118.976 142.544 119.04 142.608C119.12 142.656 119.16 142.728 119.16 142.824V143.64C119.16 143.72 119.12 143.792 119.04 143.856C118.976 143.92 118.896 143.952 118.8 143.952H115.488V150.96ZM108.456 144.864C108.456 144.48 108.368 144.128 108.192 143.808C108.032 143.472 107.8 143.184 107.496 142.944C107.208 142.704 106.856 142.52 106.44 142.392C106.04 142.248 105.6 142.176 105.12 142.176C104.64 142.176 104.2 142.248 103.8 142.392C103.4 142.52 103.048 142.704 102.744 142.944C102.44 143.184 102.2 143.472 102.024 143.808C101.864 144.128 101.784 144.48 101.784 144.864C101.784 145.248 101.864 145.608 102.024 145.944C102.2 146.28 102.44 146.568 102.744 146.808C103.048 147.048 103.4 147.24 103.8 147.384C104.2 147.528 104.64 147.6 105.12 147.6C105.6 147.6 106.04 147.528 106.44 147.384C106.856 147.24 107.208 147.048 107.496 146.808C107.8 146.568 108.032 146.28 108.192 145.944C108.368 145.608 108.456 145.248 108.456 144.864ZM116.568 155.712C116.568 155.808 116.528 155.88 116.448 155.928C116.368 155.976 116.288 156 116.208 156H103.824C103.072 156 102.576 155.856 102.336 155.568C102.112 155.296 102 154.832 102 154.176V150.864C102 150.64 102.112 150.528 102.336 150.528H103.32C103.544 150.528 103.656 150.64 103.656 150.864V154.08C103.656 154.304 103.688 154.44 103.752 154.488C103.832 154.536 103.984 154.56 104.208 154.56H116.208C116.288 154.56 116.368 154.584 116.448 154.632C116.528 154.696 116.568 154.768 116.568 154.848V155.712ZM112.104 139.248C112.104 139.456 111.984 139.56 111.744 139.56H98.4958C98.4158 139.56 98.3358 139.528 98.2558 139.464C98.1918 139.4 98.1598 139.32 98.1598 139.224V138.456C98.1598 138.36 98.1918 138.28 98.2558 138.216C98.3358 138.152 98.4158 138.12 98.4958 138.12H111.744C111.984 138.12 112.104 138.224 112.104 138.432V139.248ZM108.6 135.984C108.6 136.192 108.48 136.296 108.24 136.296H101.664C101.584 136.296 101.504 136.272 101.424 136.224C101.36 136.176 101.328 136.104 101.328 136.008V135.168C101.328 135.072 101.36 134.992 101.424 134.928C101.488 134.864 101.56 134.832 101.64 134.832H108.24C108.48 134.832 108.6 134.944 108.6 135.168V135.984ZM139.601 147.216C139.601 147.872 139.465 148.48 139.193 149.04C138.937 149.6 138.577 150.096 138.113 150.528C137.649 150.944 137.097 151.272 136.457 151.512C135.817 151.752 135.129 151.872 134.393 151.872C133.641 151.872 132.945 151.752 132.305 151.512C131.681 151.272 131.137 150.944 130.673 150.528C130.209 150.112 129.841 149.624 129.569 149.064C129.313 148.488 129.185 147.872 129.185 147.216C129.185 146.544 129.313 145.928 129.569 145.368C129.841 144.792 130.209 144.296 130.673 143.88C131.137 143.464 131.681 143.136 132.305 142.896C132.945 142.656 133.641 142.536 134.393 142.536C135.129 142.536 135.817 142.664 136.457 142.92C137.097 143.16 137.649 143.488 138.113 143.904C138.577 144.32 138.937 144.816 139.193 145.392C139.465 145.968 139.601 146.576 139.601 147.216ZM144.785 156.024C144.785 156.248 144.673 156.36 144.449 156.36H143.465C143.241 156.36 143.129 156.248 143.129 156.024V134.568C143.129 134.344 143.241 134.232 143.465 134.232H144.449C144.673 134.232 144.785 134.344 144.785 134.568V143.424H148.097C148.193 143.424 148.273 143.456 148.337 143.52C148.417 143.568 148.457 143.64 148.457 143.736V144.552C148.457 144.632 148.417 144.704 148.337 144.768C148.273 144.832 148.193 144.864 148.097 144.864H144.785V156.024ZM137.969 147.216C137.969 146.752 137.881 146.32 137.705 145.92C137.529 145.52 137.281 145.176 136.961 144.888C136.641 144.584 136.257 144.352 135.809 144.192C135.377 144.016 134.905 143.928 134.393 143.928C133.881 143.928 133.401 144.016 132.953 144.192C132.521 144.352 132.145 144.584 131.825 144.888C131.505 145.176 131.249 145.52 131.057 145.92C130.881 146.32 130.793 146.752 130.793 147.216C130.793 147.68 130.881 148.112 131.057 148.512C131.249 148.896 131.505 149.24 131.825 149.544C132.145 149.832 132.521 150.064 132.953 150.24C133.401 150.4 133.881 150.48 134.393 150.48C134.905 150.48 135.377 150.4 135.809 150.24C136.257 150.064 136.641 149.832 136.961 149.544C137.281 149.256 137.529 148.912 137.705 148.512C137.881 148.112 137.969 147.68 137.969 147.216ZM141.401 140.52C141.401 140.728 141.281 140.832 141.041 140.832H127.793C127.713 140.832 127.633 140.8 127.553 140.736C127.489 140.672 127.457 140.592 127.457 140.496V139.728C127.457 139.632 127.489 139.552 127.553 139.488C127.633 139.424 127.713 139.392 127.793 139.392H141.041C141.281 139.392 141.401 139.496 141.401 139.704V140.52ZM137.897 136.44C137.897 136.664 137.777 136.776 137.537 136.776H130.961C130.881 136.776 130.801 136.752 130.721 136.704C130.657 136.64 130.625 136.56 130.625 136.464V135.648C130.625 135.552 130.657 135.472 130.721 135.408C130.785 135.344 130.857 135.312 130.937 135.312H137.537C137.777 135.312 137.897 135.424 137.897 135.648V136.44ZM168.003 144.816C168.003 144.896 167.963 144.968 167.883 145.032C167.819 145.08 167.755 145.104 167.691 145.104H154.515C153.763 145.104 153.267 144.968 153.027 144.696C152.803 144.408 152.691 143.928 152.691 143.256V140.952C152.691 140.28 152.827 139.832 153.099 139.608C153.387 139.368 153.891 139.248 154.611 139.248H165.363C165.587 139.248 165.723 139.216 165.771 139.152C165.835 139.088 165.867 138.936 165.867 138.696V136.68C165.867 136.44 165.835 136.288 165.771 136.224C165.723 136.16 165.587 136.128 165.363 136.128H153.027C152.947 136.128 152.867 136.104 152.787 136.056C152.723 136.008 152.691 135.944 152.691 135.864V134.976C152.691 134.896 152.723 134.832 152.787 134.784C152.867 134.736 152.947 134.712 153.027 134.712H165.603C165.987 134.712 166.299 134.744 166.539 134.808C166.779 134.856 166.971 134.944 167.115 135.072C167.259 135.2 167.355 135.384 167.403 135.624C167.467 135.848 167.499 136.128 167.499 136.464V138.96C167.499 139.632 167.355 140.088 167.067 140.328C166.795 140.552 166.299 140.664 165.579 140.664H154.851C154.627 140.664 154.483 140.696 154.419 140.76C154.371 140.824 154.347 140.976 154.347 141.216V143.136C154.347 143.36 154.379 143.512 154.443 143.592C154.507 143.656 154.651 143.688 154.875 143.688H167.667C167.747 143.688 167.819 143.712 167.883 143.76C167.963 143.808 168.003 143.872 168.003 143.952V144.816ZM159.579 156.216C159.499 156.216 159.427 156.176 159.363 156.096C159.299 156.032 159.267 155.952 159.267 155.856V149.256H149.955C149.859 149.256 149.771 149.224 149.691 149.16C149.627 149.096 149.595 149.024 149.595 148.944V148.128C149.595 148.032 149.627 147.96 149.691 147.912C149.771 147.848 149.859 147.816 149.955 147.816H170.355C170.435 147.816 170.515 147.848 170.595 147.912C170.675 147.96 170.715 148.032 170.715 148.128V148.944C170.715 149.024 170.675 149.096 170.595 149.16C170.515 149.224 170.435 149.256 170.355 149.256H160.923V155.856C160.923 155.952 160.891 156.032 160.827 156.096C160.779 156.176 160.707 156.216 160.611 156.216H159.579ZM194.228 149.616C194.484 149.568 194.62 149.624 194.636 149.784L194.78 150.624C194.812 150.816 194.708 150.928 194.468 150.96C193.94 151.056 193.364 151.152 192.74 151.248C192.116 151.328 191.468 151.408 190.796 151.488C190.14 151.552 189.476 151.616 188.804 151.68C188.132 151.744 187.476 151.792 186.836 151.824C186.372 151.856 185.812 151.88 185.156 151.896C184.516 151.912 183.852 151.928 183.164 151.944C182.492 151.944 181.836 151.944 181.196 151.944C180.556 151.944 180.012 151.936 179.564 151.92C179.468 151.92 179.38 151.888 179.3 151.824C179.236 151.76 179.204 151.688 179.204 151.608V150.792C179.204 150.696 179.236 150.624 179.3 150.576C179.38 150.512 179.468 150.48 179.564 150.48C179.916 150.496 180.348 150.512 180.86 150.528C181.388 150.528 181.94 150.528 182.516 150.528C183.092 150.528 183.676 150.52 184.268 150.504C184.86 150.488 185.412 150.472 185.924 150.456V145.392H182.828C182.124 145.392 181.644 145.28 181.388 145.056C181.132 144.816 181.004 144.36 181.004 143.688V138.096C181.004 137.424 181.132 136.976 181.388 136.752C181.644 136.512 182.124 136.392 182.828 136.392H192.02C192.228 136.392 192.332 136.496 192.332 136.704V137.496C192.332 137.72 192.228 137.832 192.02 137.832H183.236C183.012 137.832 182.86 137.88 182.78 137.976C182.7 138.056 182.66 138.216 182.66 138.456V143.328C182.66 143.552 182.7 143.712 182.78 143.808C182.86 143.904 183.012 143.952 183.236 143.952H192.188C192.396 143.952 192.5 144.056 192.5 144.264V145.056C192.5 145.28 192.396 145.392 192.188 145.392H187.58V150.384C188.124 150.352 188.692 150.312 189.284 150.264C189.876 150.2 190.468 150.136 191.06 150.072C191.652 150.008 192.22 149.936 192.764 149.856C193.308 149.776 193.796 149.696 194.228 149.616ZM197.492 156.024C197.492 156.248 197.38 156.36 197.156 156.36H196.172C195.948 156.36 195.836 156.248 195.836 156.024V134.568C195.836 134.344 195.948 134.232 196.172 134.232H197.156C197.38 134.232 197.492 134.344 197.492 134.568V156.024ZM209.766 135.792C209.766 136.848 209.718 137.864 209.622 138.84C209.542 139.8 209.406 140.728 209.214 141.624C209.374 142.264 209.622 142.944 209.958 143.664C210.294 144.368 210.686 145.072 211.134 145.776C211.598 146.48 212.11 147.168 212.67 147.84C213.246 148.496 213.854 149.088 214.494 149.616C214.574 149.68 214.614 149.76 214.614 149.856C214.63 149.952 214.614 150.032 214.566 150.096L213.966 150.84C213.822 151.016 213.654 151.016 213.462 150.84C213.014 150.456 212.55 150 212.07 149.472C211.606 148.928 211.15 148.36 210.702 147.768C210.27 147.176 209.862 146.568 209.478 145.944C209.094 145.32 208.766 144.72 208.494 144.144C207.982 145.6 207.31 146.944 206.478 148.176C205.646 149.392 204.654 150.528 203.502 151.584C203.342 151.712 203.206 151.72 203.094 151.608L202.374 150.864C202.326 150.816 202.302 150.752 202.302 150.672C202.318 150.592 202.366 150.512 202.446 150.432C203.422 149.504 204.27 148.528 204.99 147.504C205.71 146.48 206.294 145.376 206.742 144.192C207.206 143.008 207.542 141.72 207.75 140.328C207.974 138.936 208.086 137.408 208.086 135.744C208.086 135.632 208.11 135.552 208.158 135.504C208.222 135.44 208.294 135.408 208.374 135.408L209.502 135.456C209.678 135.456 209.766 135.568 209.766 135.792ZM220.062 156.024C220.062 156.248 219.95 156.36 219.726 156.36H218.742C218.518 156.36 218.406 156.248 218.406 156.024V134.568C218.406 134.344 218.518 134.232 218.742 134.232H219.726C219.95 134.232 220.062 134.344 220.062 134.568V156.024ZM242.633 145.68C242.633 145.904 242.521 146.016 242.297 146.016H241.313C241.089 146.016 240.977 145.904 240.977 145.68V134.568C240.977 134.344 241.089 134.232 241.313 134.232H242.297C242.521 134.232 242.633 134.344 242.633 134.568V145.68ZM236.177 136.776C235.985 137.832 235.665 138.808 235.217 139.704C234.769 140.6 234.153 141.448 233.369 142.248C232.601 143.048 231.649 143.808 230.513 144.528C229.377 145.232 228.025 145.92 226.457 146.592C226.201 146.704 226.025 146.656 225.929 146.448L225.569 145.656C225.505 145.528 225.489 145.432 225.521 145.368C225.553 145.288 225.633 145.224 225.761 145.176C230.929 143.048 233.801 140.384 234.377 137.184C234.473 136.736 234.281 136.512 233.801 136.512H226.409C226.217 136.512 226.121 136.408 226.121 136.2V135.36C226.121 135.168 226.217 135.072 226.409 135.072H234.353C235.121 135.072 235.641 135.208 235.913 135.48C236.201 135.752 236.289 136.184 236.177 136.776ZM243.137 156.144C243.137 156.224 243.097 156.288 243.017 156.336C242.953 156.4 242.889 156.432 242.825 156.432H230.753C230.001 156.432 229.505 156.288 229.265 156C229.041 155.728 228.929 155.256 228.929 154.584V152.784C228.929 152.112 229.065 151.664 229.337 151.44C229.625 151.2 230.129 151.08 230.849 151.08H240.449C240.673 151.08 240.817 151.048 240.881 150.984C240.945 150.92 240.977 150.768 240.977 150.528V149.16C240.977 148.92 240.945 148.768 240.881 148.704C240.833 148.64 240.697 148.608 240.473 148.608H229.217C229.137 148.608 229.057 148.584 228.977 148.536C228.913 148.488 228.881 148.424 228.881 148.344V147.48C228.881 147.4 228.913 147.336 228.977 147.288C229.057 147.24 229.137 147.216 229.217 147.216H240.737C241.121 147.216 241.433 147.248 241.673 147.312C241.913 147.36 242.105 147.448 242.249 147.576C242.393 147.704 242.489 147.888 242.537 148.128C242.601 148.352 242.633 148.632 242.633 148.968V150.768C242.633 151.44 242.489 151.896 242.201 152.136C241.929 152.36 241.433 152.472 240.713 152.472H231.089C230.865 152.472 230.721 152.504 230.657 152.568C230.609 152.632 230.585 152.784 230.585 153.024V154.488C230.585 154.712 230.617 154.856 230.681 154.92C230.745 155 230.889 155.04 231.113 155.04H242.801C242.881 155.04 242.953 155.064 243.017 155.112C243.097 155.16 243.137 155.224 243.137 155.304V156.144ZM256.737 150.072C256.353 150.072 256.041 150.048 255.801 150C255.577 149.952 255.401 149.864 255.273 149.736C255.145 149.592 255.057 149.416 255.009 149.208C254.961 148.984 254.937 148.704 254.937 148.368V135.744C254.937 135.664 254.969 135.6 255.033 135.552C255.097 135.488 255.169 135.456 255.249 135.456H256.281C256.361 135.456 256.425 135.488 256.473 135.552C256.537 135.616 256.569 135.68 256.569 135.744V141.312H263.697V135.768C263.697 135.688 263.721 135.616 263.769 135.552C263.833 135.488 263.905 135.456 263.985 135.456H265.017C265.097 135.456 265.169 135.488 265.233 135.552C265.297 135.6 265.329 135.664 265.329 135.744V148.536C265.329 149.144 265.201 149.552 264.945 149.76C264.689 149.968 264.209 150.072 263.505 150.072H256.737ZM256.569 142.728V148.08C256.569 148.32 256.609 148.48 256.689 148.56C256.769 148.624 256.921 148.656 257.145 148.656H263.121C263.345 148.656 263.497 148.624 263.577 148.56C263.657 148.48 263.697 148.32 263.697 148.08V142.728H256.569ZM271.089 156.024C271.089 156.248 270.977 156.36 270.753 156.36H269.769C269.545 156.36 269.433 156.248 269.433 156.024V134.568C269.433 134.344 269.545 134.232 269.769 134.232H270.753C270.977 134.232 271.089 134.344 271.089 134.568V143.304H274.401C274.497 143.304 274.577 143.336 274.641 143.4C274.721 143.448 274.761 143.52 274.761 143.616V144.432C274.761 144.512 274.721 144.584 274.641 144.648C274.577 144.712 274.497 144.744 274.401 144.744H271.089V156.024ZM281.756 156.168C281.372 156.168 281.06 156.144 280.82 156.096C280.596 156.048 280.42 155.952 280.292 155.808C280.164 155.68 280.076 155.504 280.028 155.28C279.98 155.072 279.956 154.8 279.956 154.464V148.08C279.956 148 279.988 147.936 280.052 147.888C280.116 147.84 280.188 147.816 280.268 147.816H281.324C281.404 147.816 281.468 147.848 281.516 147.912C281.58 147.96 281.612 148.016 281.612 148.08V150.504H292.004V148.128C292.004 148.048 292.028 147.976 292.076 147.912C292.14 147.848 292.212 147.816 292.292 147.816H293.348C293.428 147.816 293.5 147.848 293.564 147.912C293.628 147.96 293.66 148.024 293.66 148.104V154.632C293.66 155.24 293.532 155.648 293.276 155.856C293.02 156.064 292.54 156.168 291.836 156.168H281.756ZM279.5 145.824C278.78 145.824 278.292 145.688 278.036 145.416C277.796 145.128 277.676 144.648 277.676 143.976V141.264C277.676 140.592 277.812 140.144 278.084 139.92C278.372 139.68 278.876 139.56 279.596 139.56H285.38C285.604 139.56 285.748 139.528 285.812 139.464C285.876 139.4 285.908 139.248 285.908 139.008V136.968C285.908 136.728 285.876 136.576 285.812 136.512C285.764 136.448 285.628 136.416 285.404 136.416H278.06C277.868 136.416 277.772 136.312 277.772 136.104V135.264C277.772 135.072 277.868 134.976 278.06 134.976H285.668C286.052 134.976 286.364 135.008 286.604 135.072C286.844 135.12 287.036 135.208 287.18 135.336C287.324 135.464 287.42 135.648 287.468 135.888C287.532 136.112 287.564 136.392 287.564 136.728V139.296C287.564 139.968 287.42 140.424 287.132 140.664C286.86 140.888 286.364 141 285.644 141H279.836C279.612 141 279.468 141.032 279.404 141.096C279.356 141.16 279.332 141.312 279.332 141.552V143.856C279.332 144.224 279.508 144.408 279.86 144.408C281.748 144.408 283.5 144.336 285.116 144.192C286.748 144.048 288.372 143.84 289.988 143.568C290.148 143.536 290.252 143.536 290.3 143.568C290.364 143.6 290.412 143.68 290.444 143.808L290.588 144.576C290.62 144.72 290.604 144.816 290.54 144.864C290.492 144.912 290.396 144.952 290.252 144.984C288.796 145.256 287.14 145.472 285.284 145.632C283.428 145.776 281.5 145.84 279.5 145.824ZM281.612 151.944V154.152C281.612 154.392 281.652 154.544 281.732 154.608C281.812 154.688 281.964 154.728 282.188 154.728H291.428C291.652 154.728 291.804 154.688 291.884 154.608C291.964 154.544 292.004 154.392 292.004 154.152V151.944H281.612ZM293.66 146.304C293.66 146.528 293.548 146.64 293.324 146.64H292.34C292.116 146.64 292.004 146.528 292.004 146.304V134.568C292.004 134.344 292.116 134.232 292.34 134.232H293.324C293.548 134.232 293.66 134.344 293.66 134.568V139.992H296.972C297.068 139.992 297.148 140.024 297.212 140.088C297.292 140.136 297.332 140.208 297.332 140.304V141.12C297.332 141.2 297.292 141.272 297.212 141.336C297.148 141.4 297.068 141.432 296.972 141.432H293.66V146.304ZM317.07 156.024C317.07 156.248 316.958 156.36 316.734 156.36H315.75C315.526 156.36 315.414 156.248 315.414 156.024V134.568C315.414 134.344 315.526 134.232 315.75 134.232H316.734C316.958 134.232 317.07 134.344 317.07 134.568V156.024ZM302.502 147.6C302.502 147.84 302.542 148 302.622 148.08C302.702 148.16 302.854 148.208 303.078 148.224C303.862 148.256 304.694 148.264 305.574 148.248C306.47 148.216 307.366 148.168 308.262 148.104C309.158 148.024 310.03 147.928 310.878 147.816C311.742 147.704 312.542 147.576 313.278 147.432C313.55 147.368 313.71 147.464 313.758 147.72L313.878 148.392C313.926 148.616 313.822 148.76 313.566 148.824C313.022 148.952 312.318 149.072 311.454 149.184C310.606 149.296 309.686 149.4 308.694 149.496C307.702 149.576 306.686 149.64 305.646 149.688C304.606 149.72 303.638 149.728 302.742 149.712C302.022 149.696 301.526 149.528 301.254 149.208C300.982 148.888 300.846 148.392 300.846 147.72V135.912C300.846 135.688 300.958 135.576 301.182 135.576H302.166C302.39 135.576 302.502 135.688 302.502 135.912V147.6ZM335.392 148.608C335.424 148.832 335.32 148.968 335.08 149.016C334.488 149.16 333.736 149.296 332.824 149.424C331.928 149.552 330.976 149.664 329.968 149.76C328.976 149.856 327.992 149.928 327.016 149.976C326.04 150.024 325.192 150.04 324.472 150.024C323.752 150.008 323.256 149.84 322.984 149.52C322.728 149.2 322.6 148.704 322.6 148.032V137.712C322.6 137.04 322.728 136.592 322.984 136.368C323.24 136.144 323.72 136.032 324.424 136.032H332.68C332.888 136.032 332.992 136.128 332.992 136.32V137.184C332.992 137.376 332.888 137.472 332.68 137.472H324.736C324.512 137.472 324.376 137.504 324.328 137.568C324.28 137.616 324.256 137.76 324.256 138V147.912C324.256 148.152 324.296 148.312 324.376 148.392C324.456 148.472 324.608 148.52 324.832 148.536C325.6 148.568 326.408 148.568 327.256 148.536C328.12 148.488 328.984 148.424 329.848 148.344C330.728 148.248 331.584 148.144 332.416 148.032C333.264 147.904 334.064 147.768 334.816 147.624C335.072 147.576 335.224 147.664 335.272 147.888L335.392 148.608ZM338.8 156.024C338.8 156.248 338.688 156.36 338.464 156.36H337.48C337.256 156.36 337.144 156.248 337.144 156.024V134.568C337.144 134.344 337.256 134.232 337.48 134.232H338.464C338.688 134.232 338.8 134.344 338.8 134.568V143.304H342.112C342.208 143.304 342.288 143.336 342.352 143.4C342.432 143.448 342.472 143.52 342.472 143.616V144.432C342.472 144.512 342.432 144.584 342.352 144.648C342.288 144.712 342.208 144.744 342.112 144.744H338.8V156.024ZM345.483 153.96C345.483 153.624 345.595 153.336 345.819 153.096C346.059 152.872 346.347 152.76 346.683 152.76C347.019 152.76 347.299 152.872 347.523 153.096C347.763 153.336 347.883 153.624 347.883 153.96C347.883 154.296 347.763 154.576 347.523 154.8C347.299 155.04 347.019 155.16 346.683 155.16C346.347 155.16 346.059 155.04 345.819 154.8C345.595 154.576 345.483 154.296 345.483 153.96Z" fill="black"/>
<path d="M19.32 233.64C19.32 233.864 19.208 233.976 18.984 233.976H18C17.776 233.976 17.664 233.864 17.664 233.64V221.568C17.664 221.344 17.776 221.232 18 221.232H18.984C19.208 221.232 19.32 221.344 19.32 221.568V233.64ZM5.616 236.928C5.616 236.256 5.744 235.808 6 235.584C6.256 235.344 6.736 235.224 7.44 235.224H17.496C17.88 235.224 18.184 235.248 18.408 235.296C18.648 235.344 18.832 235.432 18.96 235.56C19.104 235.688 19.2 235.864 19.248 236.088C19.296 236.312 19.32 236.592 19.32 236.928V241.464C19.32 242.136 19.192 242.584 18.936 242.808C18.68 243.048 18.2 243.168 17.496 243.168H7.44C7.056 243.168 6.744 243.144 6.504 243.096C6.28 243.048 6.096 242.952 5.952 242.808C5.824 242.68 5.736 242.504 5.688 242.28C5.64 242.072 5.616 241.8 5.616 241.464V236.928ZM7.848 236.664C7.624 236.664 7.472 236.712 7.392 236.808C7.312 236.888 7.272 237.048 7.272 237.288V241.104C7.272 241.344 7.312 241.504 7.392 241.584C7.472 241.68 7.624 241.728 7.848 241.728H17.088C17.312 241.728 17.464 241.68 17.544 241.584C17.624 241.504 17.664 241.344 17.664 241.104V237.288C17.664 237.048 17.624 236.888 17.544 236.808C17.464 236.712 17.312 236.664 17.088 236.664H7.848ZM12.864 223.968C12.496 226.192 11.528 228.152 9.96 229.848C8.392 231.544 6.12 233.016 3.144 234.264C2.872 234.376 2.696 234.328 2.616 234.12L2.256 233.328C2.192 233.2 2.184 233.096 2.232 233.016C2.296 232.936 2.368 232.88 2.448 232.848C4.992 231.792 6.984 230.544 8.424 229.104C9.88 227.648 10.76 226.08 11.064 224.4C11.16 223.936 10.968 223.704 10.488 223.704H3.096C2.904 223.704 2.808 223.6 2.808 223.392V222.552C2.808 222.36 2.904 222.264 3.096 222.264H11.04C11.808 222.264 12.328 222.4 12.6 222.672C12.872 222.944 12.96 223.376 12.864 223.968ZM35.6503 231.864C35.6503 232.44 35.5223 232.984 35.2663 233.496C35.0103 234.008 34.6583 234.456 34.2103 234.84C33.7783 235.224 33.2583 235.528 32.6503 235.752C32.0423 235.96 31.3863 236.064 30.6823 236.064C29.9783 236.064 29.3223 235.96 28.7143 235.752C28.1063 235.528 27.5783 235.224 27.1303 234.84C26.6983 234.456 26.3543 234.008 26.0983 233.496C25.8583 232.984 25.7383 232.44 25.7383 231.864C25.7383 231.288 25.8583 230.752 26.0983 230.256C26.3543 229.744 26.6983 229.304 27.1303 228.936C27.5783 228.552 28.1063 228.256 28.7143 228.048C29.3223 227.824 29.9783 227.712 30.6823 227.712C31.3863 227.712 32.0423 227.824 32.6503 228.048C33.2583 228.256 33.7783 228.552 34.2103 228.936C34.6583 229.304 35.0103 229.744 35.2663 230.256C35.5223 230.752 35.6503 231.288 35.6503 231.864ZM41.0503 237.96C41.0503 238.184 40.9383 238.296 40.7143 238.296H39.7303C39.5063 238.296 39.3943 238.184 39.3943 237.96V221.568C39.3943 221.344 39.5063 221.232 39.7303 221.232H40.7143C40.9383 221.232 41.0503 221.344 41.0503 221.568V229.512H44.3623C44.4583 229.512 44.5383 229.544 44.6023 229.608C44.6823 229.656 44.7223 229.728 44.7223 229.824V230.64C44.7223 230.72 44.6823 230.792 44.6023 230.856C44.5383 230.92 44.4583 230.952 44.3623 230.952H41.0503V237.96ZM34.0183 231.864C34.0183 231.48 33.9303 231.128 33.7543 230.808C33.5943 230.472 33.3623 230.184 33.0583 229.944C32.7703 229.704 32.4183 229.52 32.0023 229.392C31.6023 229.248 31.1623 229.176 30.6823 229.176C30.2023 229.176 29.7623 229.248 29.3623 229.392C28.9623 229.52 28.6103 229.704 28.3063 229.944C28.0023 230.184 27.7623 230.472 27.5863 230.808C27.4263 231.128 27.3463 231.48 27.3463 231.864C27.3463 232.248 27.4263 232.608 27.5863 232.944C27.7623 233.28 28.0023 233.568 28.3063 233.808C28.6103 234.048 28.9623 234.24 29.3623 234.384C29.7623 234.528 30.2023 234.6 30.6823 234.6C31.1623 234.6 31.6023 234.528 32.0023 234.384C32.4183 234.24 32.7703 234.048 33.0583 233.808C33.3623 233.568 33.5943 233.28 33.7543 232.944C33.9303 232.608 34.0183 232.248 34.0183 231.864ZM42.1303 242.712C42.1303 242.808 42.0903 242.88 42.0103 242.928C41.9303 242.976 41.8503 243 41.7703 243H29.3863C28.6343 243 28.1383 242.856 27.8983 242.568C27.6743 242.296 27.5623 241.832 27.5623 241.176V237.864C27.5623 237.64 27.6743 237.528 27.8983 237.528H28.8823C29.1063 237.528 29.2183 237.64 29.2183 237.864V241.08C29.2183 241.304 29.2503 241.44 29.3143 241.488C29.3943 241.536 29.5463 241.56 29.7703 241.56H41.7703C41.8503 241.56 41.9303 241.584 42.0103 241.632C42.0903 241.696 42.1303 241.768 42.1303 241.848V242.712ZM37.6663 226.248C37.6663 226.456 37.5463 226.56 37.3063 226.56H24.0583C23.9783 226.56 23.8983 226.528 23.8183 226.464C23.7543 226.4 23.7223 226.32 23.7223 226.224V225.456C23.7223 225.36 23.7543 225.28 23.8183 225.216C23.8983 225.152 23.9783 225.12 24.0583 225.12H37.3063C37.5463 225.12 37.6663 225.224 37.6663 225.432V226.248ZM34.1623 222.984C34.1623 223.192 34.0423 223.296 33.8023 223.296H27.2263C27.1463 223.296 27.0663 223.272 26.9863 223.224C26.9223 223.176 26.8903 223.104 26.8903 223.008V222.168C26.8903 222.072 26.9223 221.992 26.9863 221.928C27.0503 221.864 27.1223 221.832 27.2023 221.832H33.8023C34.0423 221.832 34.1623 221.944 34.1623 222.168V222.984ZM58.3166 231.336C58.3166 231.88 58.2046 232.376 57.9806 232.824C57.7726 233.272 57.4766 233.664 57.0926 234C56.7086 234.336 56.2446 234.616 55.7006 234.84C55.1726 235.048 54.5886 235.184 53.9486 235.248V237.744C54.4926 237.712 55.0606 237.672 55.6526 237.624C56.2446 237.56 56.8206 237.496 57.3806 237.432C57.9566 237.352 58.5086 237.272 59.0366 237.192C59.5646 237.112 60.0446 237.032 60.4766 236.952C60.7326 236.904 60.8686 236.96 60.8846 237.12L61.0286 238.032C61.0606 238.224 60.9566 238.336 60.7166 238.368C59.6446 238.544 58.4686 238.704 57.1886 238.848C55.9086 238.992 54.6206 239.104 53.3246 239.184C52.8606 239.216 52.3166 239.24 51.6926 239.256C51.0686 239.272 50.4286 239.288 49.7726 239.304C49.1326 239.304 48.5006 239.304 47.8766 239.304C47.2686 239.304 46.7406 239.296 46.2926 239.28C46.1966 239.28 46.1086 239.248 46.0286 239.184C45.9646 239.12 45.9326 239.048 45.9326 238.968V238.152C45.9326 238.056 45.9646 237.984 46.0286 237.936C46.1086 237.872 46.1966 237.84 46.2926 237.84C46.6446 237.856 47.0606 237.872 47.5406 237.888C48.0366 237.888 48.5486 237.888 49.0766 237.888C49.6206 237.872 50.1646 237.864 50.7086 237.864C51.2686 237.848 51.7966 237.832 52.2926 237.816V235.272C51.6366 235.208 51.0366 235.072 50.4926 234.864C49.9646 234.64 49.5086 234.36 49.1246 234.024C48.7406 233.672 48.4366 233.272 48.2126 232.824C48.0046 232.36 47.9006 231.864 47.9006 231.336C47.9006 230.744 48.0286 230.208 48.2846 229.728C48.5566 229.232 48.9246 228.816 49.3886 228.48C49.8526 228.128 50.3966 227.864 51.0206 227.688C51.6606 227.496 52.3566 227.4 53.1086 227.4C53.8446 227.4 54.5326 227.496 55.1726 227.688C55.8126 227.88 56.3646 228.152 56.8286 228.504C57.2926 228.84 57.6526 229.248 57.9086 229.728C58.1806 230.208 58.3166 230.744 58.3166 231.336ZM63.6206 243.024C63.6206 243.248 63.5086 243.36 63.2846 243.36H62.3006C62.0766 243.36 61.9646 243.248 61.9646 243.024V221.568C61.9646 221.344 62.0766 221.232 62.3006 221.232H63.2846C63.5086 221.232 63.6206 221.344 63.6206 221.568V230.952H66.9326C67.0286 230.952 67.1086 230.984 67.1726 231.048C67.2526 231.096 67.2926 231.168 67.2926 231.264V232.08C67.2926 232.16 67.2526 232.232 67.1726 232.296C67.1086 232.36 67.0286 232.392 66.9326 232.392H63.6206V243.024ZM56.6846 231.336C56.6846 230.52 56.3486 229.896 55.6766 229.464C55.0046 229.032 54.1486 228.816 53.1086 228.816C52.5966 228.816 52.1166 228.872 51.6686 228.984C51.2366 229.096 50.8606 229.256 50.5406 229.464C50.2206 229.672 49.9646 229.936 49.7726 230.256C49.5966 230.576 49.5086 230.936 49.5086 231.336C49.5086 231.736 49.5966 232.096 49.7726 232.416C49.9646 232.72 50.2206 232.984 50.5406 233.208C50.8606 233.416 51.2366 233.584 51.6686 233.712C52.1166 233.824 52.5966 233.88 53.1086 233.88C54.1486 233.88 55.0046 233.656 55.6766 233.208C56.3486 232.76 56.6846 232.136 56.6846 231.336ZM59.8526 225.84C59.8526 226.048 59.7326 226.152 59.4926 226.152H46.7246C46.6446 226.152 46.5646 226.12 46.4846 226.056C46.4206 225.992 46.3886 225.912 46.3886 225.816V225.024C46.3886 224.928 46.4206 224.848 46.4846 224.784C46.5646 224.72 46.6446 224.688 46.7246 224.688H59.4926C59.7326 224.688 59.8526 224.792 59.8526 225V225.84ZM56.4686 222.816C56.4686 223.04 56.3486 223.152 56.1086 223.152H49.7726C49.6926 223.152 49.6126 223.128 49.5326 223.08C49.4686 223.016 49.4366 222.936 49.4366 222.84V222.024C49.4366 221.928 49.4686 221.848 49.5326 221.784C49.5966 221.72 49.6686 221.688 49.7486 221.688H56.1086C56.3486 221.688 56.4686 221.8 56.4686 222.024V222.816ZM95.9175 238.128C95.9975 238.128 96.0775 238.16 96.1575 238.224C96.2375 238.272 96.2775 238.344 96.2775 238.44V239.256C96.2775 239.336 96.2375 239.408 96.1575 239.472C96.0775 239.536 95.9975 239.568 95.9175 239.568H75.5175C75.4215 239.568 75.3335 239.536 75.2535 239.472C75.1895 239.408 75.1575 239.336 75.1575 239.256V238.44C75.1575 238.344 75.1895 238.272 75.2535 238.224C75.3335 238.16 75.4215 238.128 75.5175 238.128H95.9175ZM93.3015 232.8C93.3015 233.024 93.1975 233.136 92.9895 233.136H80.0295C79.3255 233.136 78.8455 233.024 78.5895 232.8C78.3335 232.56 78.2055 232.104 78.2055 231.432V224.496C78.2055 223.824 78.3335 223.376 78.5895 223.152C78.8455 222.912 79.3255 222.792 80.0295 222.792H92.8215C93.0295 222.792 93.1335 222.896 93.1335 223.104V223.896C93.1335 224.12 93.0295 224.232 92.8215 224.232H80.4375C80.2135 224.232 80.0615 224.28 79.9815 224.376C79.9015 224.456 79.8615 224.616 79.8615 224.856V231.072C79.8615 231.296 79.9015 231.456 79.9815 231.552C80.0615 231.648 80.2135 231.696 80.4375 231.696H92.9895C93.1975 231.696 93.3015 231.8 93.3015 232.008V232.8ZM116.328 234.096C116.328 234.32 116.216 234.432 115.992 234.432H115.008C114.784 234.432 114.672 234.32 114.672 234.096V221.568C114.672 221.344 114.784 221.232 115.008 221.232H115.992C116.216 221.232 116.328 221.344 116.328 221.568V234.096ZM102.624 237.48C102.624 236.808 102.752 236.36 103.008 236.136C103.264 235.896 103.744 235.776 104.448 235.776H114.504C114.888 235.776 115.192 235.8 115.416 235.848C115.656 235.896 115.84 235.984 115.968 236.112C116.112 236.24 116.208 236.416 116.256 236.64C116.304 236.864 116.328 237.144 116.328 237.48V241.464C116.328 242.136 116.2 242.584 115.944 242.808C115.688 243.048 115.208 243.168 114.504 243.168H104.448C104.064 243.168 103.752 243.144 103.512 243.096C103.288 243.048 103.104 242.952 102.96 242.808C102.832 242.68 102.744 242.504 102.696 242.28C102.648 242.072 102.624 241.8 102.624 241.464V237.48ZM104.856 237.216C104.632 237.216 104.48 237.264 104.4 237.36C104.32 237.44 104.28 237.6 104.28 237.84V241.104C104.28 241.344 104.32 241.504 104.4 241.584C104.48 241.68 104.632 241.728 104.856 241.728H114.096C114.32 241.728 114.472 241.68 114.552 241.584C114.632 241.504 114.672 241.344 114.672 241.104V237.84C114.672 237.6 114.632 237.44 114.552 237.36C114.472 237.264 114.32 237.216 114.096 237.216H104.856ZM101.496 233.232C100.776 233.232 100.288 233.096 100.032 232.824C99.7918 232.536 99.6718 232.056 99.6718 231.384V228.552C99.6718 227.88 99.8078 227.432 100.08 227.208C100.368 226.968 100.872 226.848 101.592 226.848H107.376C107.6 226.848 107.744 226.816 107.808 226.752C107.872 226.688 107.904 226.536 107.904 226.296V224.136C107.904 223.896 107.872 223.744 107.808 223.68C107.76 223.616 107.624 223.584 107.4 223.584H100.056C99.8638 223.584 99.7678 223.48 99.7678 223.272V222.432C99.7678 222.24 99.8638 222.144 100.056 222.144H107.664C108.048 222.144 108.36 222.176 108.6 222.24C108.84 222.288 109.032 222.376 109.176 222.504C109.32 222.632 109.416 222.816 109.464 223.056C109.528 223.28 109.56 223.56 109.56 223.896V226.584C109.56 227.256 109.416 227.712 109.128 227.952C108.856 228.176 108.36 228.288 107.64 228.288H101.832C101.608 228.288 101.464 228.32 101.4 228.384C101.352 228.448 101.328 228.6 101.328 228.84V231.264C101.328 231.632 101.504 231.816 101.856 231.816C102.8 231.816 103.704 231.8 104.568 231.768C105.432 231.736 106.272 231.688 107.088 231.624C107.92 231.544 108.736 231.456 109.536 231.36C110.336 231.248 111.152 231.12 111.984 230.976C112.144 230.944 112.248 230.944 112.296 230.976C112.36 231.008 112.408 231.088 112.44 231.216L112.584 231.984C112.616 232.128 112.6 232.224 112.536 232.272C112.488 232.32 112.392 232.36 112.248 232.392C110.744 232.664 109.064 232.88 107.208 233.04C105.352 233.184 103.448 233.248 101.496 233.232Z" fill="black"/>
</svg>
