<svg width="262" height="140" viewBox="0 0 262 140" fill="none" xmlns="http://www.w3.org/2000/svg">
<path d="M10.6875 8.46875C11.5625 8.59375 12.3542 8.83333 13.0625 9.1875C13.7708 9.52083 14.3854 9.94792 14.9062 10.4688C15.4271 10.9688 15.8229 11.5417 16.0938 12.1875C16.3854 12.8333 16.5312 13.5208 16.5312 14.25C16.5312 15.0833 16.3438 15.8646 15.9688 16.5938C15.6146 17.3021 15.1146 17.9167 14.4688 18.4375C13.8229 18.9583 13.0521 19.375 12.1562 19.6875C11.2604 19.9792 10.2917 20.125 9.25 20.125C8.20833 20.125 7.23958 19.9792 6.34375 19.6875C5.46875 19.375 4.70833 18.9583 4.0625 18.4375C3.41667 17.9167 2.91667 17.3021 2.5625 16.5938C2.20833 15.8646 2.03125 15.0833 2.03125 14.25C2.03125 13.4792 2.1875 12.7604 2.5 12.0938C2.8125 11.4062 3.23958 10.8125 3.78125 10.3125C4.34375 9.79167 5.01042 9.36458 5.78125 9.03125C6.55208 8.69792 7.40625 8.48958 8.34375 8.40625C8.30208 8.11458 8.1875 7.89583 8 7.75C7.83333 7.58333 7.51042 7.42708 7.03125 7.28125L7.5625 6.375C7.77083 6.41667 8.03125 6.46875 8.34375 6.53125C8.65625 6.59375 8.96875 6.66667 9.28125 6.75C9.61458 6.8125 9.9375 6.875 10.25 6.9375C10.5833 7 10.875 7.0625 11.125 7.125C11.0625 7.29167 10.9896 7.48958 10.9062 7.71875C10.8229 7.92708 10.75 8.17708 10.6875 8.46875ZM13.4688 14.0938C13.4688 13.4896 13.3542 12.9271 13.125 12.4062C12.9167 11.8854 12.6146 11.4375 12.2188 11.0625C11.8438 10.6667 11.3958 10.3646 10.875 10.1562C10.375 9.92708 9.84375 9.8125 9.28125 9.8125C8.71875 9.8125 8.17708 9.92708 7.65625 10.1562C7.15625 10.3646 6.70833 10.6667 6.3125 11.0625C5.9375 11.4375 5.63542 11.8854 5.40625 12.4062C5.19792 12.9271 5.09375 13.4896 5.09375 14.0938C5.09375 14.7188 5.19792 15.2917 5.40625 15.8125C5.63542 16.3333 5.9375 16.7812 6.3125 17.1562C6.70833 17.5312 7.15625 17.8229 7.65625 18.0312C8.17708 18.2396 8.71875 18.3438 9.28125 18.3438C9.86458 18.3438 10.4062 18.2396 10.9062 18.0312C11.4271 17.8229 11.875 17.5312 12.25 17.1562C12.625 16.7812 12.9167 16.3333 13.125 15.8125C13.3542 15.2917 13.4688 14.7188 13.4688 14.0938ZM25.9688 32.4375C24.6771 32.4167 23.375 32.4062 22.0625 32.4062C20.75 32.4062 19.4583 32.4167 18.1875 32.4375C16.9375 32.4583 15.7396 32.4896 14.5938 32.5312C13.4479 32.5729 12.4167 32.625 11.5 32.6875C10.7708 32.7292 10.2396 32.5833 9.90625 32.25C9.59375 31.9167 9.4375 31.5208 9.4375 31.0625V27.1875C9.4375 26.7292 9.41667 26.3646 9.375 26.0938C9.33333 25.8021 9.21875 25.5625 9.03125 25.375C8.84375 25.1875 8.5625 25.0312 8.1875 24.9062C7.83333 24.7812 7.34375 24.6354 6.71875 24.4688L7.25 23.3125C7.54167 23.3542 7.91667 23.4062 8.375 23.4688C8.85417 23.5312 9.34375 23.5938 9.84375 23.6562C10.3646 23.7188 10.8646 23.7812 11.3438 23.8438C11.8438 23.9062 12.25 23.9688 12.5625 24.0312C12.5208 24.2812 12.4792 24.6562 12.4375 25.1562C12.3958 25.6562 12.375 26.0833 12.375 26.4375V30.0625C12.375 30.4583 12.4375 30.6979 12.5625 30.7812C12.6875 30.8854 12.9896 30.9479 13.4688 30.9688C14.2396 30.9896 15.1771 30.9688 16.2812 30.9062C17.4062 30.8646 18.5625 30.7917 19.75 30.6875C20.9583 30.6042 22.1458 30.5 23.3125 30.375C24.4792 30.25 25.5104 30.125 26.4062 30L25.9688 32.4375ZM24.0312 20.125C24.0312 20.6042 24.0208 21.1146 24 21.6562C23.9792 22.1979 23.9479 22.75 23.9062 23.3125C23.8646 23.8542 23.8125 24.375 23.75 24.875C23.6875 25.3542 23.625 25.7708 23.5625 26.125L21.3438 26.4688C21.3021 26.2188 21.2708 25.875 21.25 25.4375C21.2292 25 21.1979 24.5312 21.1562 24.0312C21.1354 23.5104 21.1146 23 21.0938 22.5C21.0938 21.9792 21.0938 21.5312 21.0938 21.1562V7.25C21.0938 6.60417 20.7917 6.08333 20.1875 5.6875C19.6042 5.27083 18.625 4.89583 17.25 4.5625L17.7188 3.40625C18.2396 3.46875 18.8021 3.55208 19.4062 3.65625C20.0312 3.73958 20.6458 3.84375 21.25 3.96875C21.8542 4.07292 22.4271 4.17708 22.9688 4.28125C23.5104 4.38542 23.9792 4.46875 24.375 4.53125C24.3333 4.71875 24.2917 4.94792 24.25 5.21875C24.2083 5.48958 24.1667 5.77083 24.125 6.0625C24.1042 6.33333 24.0833 6.58333 24.0625 6.8125C24.0417 7.04167 24.0312 7.20833 24.0312 7.3125V13.8125C24.4688 13.7917 24.9479 13.7604 25.4688 13.7188C25.9896 13.6562 26.5208 13.5938 27.0625 13.5312C27.6042 13.4688 28.1354 13.4062 28.6562 13.3438C29.1979 13.2604 29.7083 13.1771 30.1875 13.0938L29.8438 15.5625C29.4688 15.5417 29.0417 15.5312 28.5625 15.5312C28.0833 15.5312 27.5729 15.5312 27.0312 15.5312C26.5104 15.5312 25.9896 15.5312 25.4688 15.5312C24.9479 15.5312 24.4688 15.5312 24.0312 15.5312V20.125ZM42.8125 12.7812C43.875 13.6562 45.0104 14.5312 46.2188 15.4062C47.4271 16.2812 48.7708 17.1667 50.25 18.0625L47.9688 20.125C46.9688 19.0417 45.9688 18.0208 44.9688 17.0625C43.9688 16.0833 42.9375 15.0833 41.875 14.0625C40.5625 15.6042 39.1146 16.9688 37.5312 18.1562C35.9479 19.3229 34.3021 20.4167 32.5938 21.4375L31.7812 20.5C32.8854 19.7708 33.9583 18.9479 35 18.0312C36.0625 17.1146 37.0312 16.1458 37.9062 15.125C38.8021 14.1042 39.5729 13.0521 40.2188 11.9688C40.8646 10.8854 41.3438 9.8125 41.6562 8.75C41.7812 8.39583 41.8125 8.15625 41.75 8.03125C41.6875 7.88542 41.6146 7.78125 41.5312 7.71875C41.3646 7.57292 41.1146 7.41667 40.7812 7.25C40.4479 7.08333 40.0625 6.89583 39.625 6.6875L40.3125 5.71875C41.1875 5.94792 42.1042 6.20833 43.0625 6.5C44.0417 6.79167 44.9479 7.08333 45.7812 7.375C45.3854 8.41667 44.9375 9.38542 44.4375 10.2812C43.9583 11.1562 43.4167 11.9896 42.8125 12.7812ZM50.1875 3.40625C50.6875 3.46875 51.2396 3.55208 51.8438 3.65625C52.4479 3.73958 53.0521 3.84375 53.6562 3.96875C54.2604 4.07292 54.8333 4.17708 55.375 4.28125C55.9375 4.38542 56.4271 4.46875 56.8438 4.53125C56.8021 4.71875 56.7604 4.94792 56.7188 5.21875C56.6771 5.48958 56.6354 5.77083 56.5938 6.0625C56.5729 6.33333 56.5521 6.58333 56.5312 6.8125C56.5104 7.04167 56.5 7.20833 56.5 7.3125V15.625C56.5 16 56.4792 16.4375 56.4375 16.9375C56.3958 17.4375 56.3438 17.9375 56.2812 18.4375C56.2396 18.9375 56.1875 19.4167 56.125 19.875C56.0625 20.3125 56 20.6562 55.9375 20.9062L53.8125 21.2188C53.7708 21.0104 53.7292 20.7396 53.6875 20.4062C53.6667 20.0729 53.6354 19.7292 53.5938 19.375C53.5729 19 53.5521 18.6354 53.5312 18.2812C53.5312 17.9062 53.5312 17.5729 53.5312 17.2812V7.25C53.5312 6.60417 53.2188 6.08333 52.5938 5.6875C51.9896 5.27083 51 4.89583 49.625 4.5625L50.1875 3.40625ZM55.625 30.0312C55.8333 29.9896 56.0312 29.9688 56.2188 29.9688C56.4271 29.9479 56.6146 29.9271 56.7812 29.9062L56.2188 32.1875C55.4688 32.125 54.5938 32.0833 53.5938 32.0625C52.5938 32.0417 51.5625 32.0208 50.5 32C49.4375 32 48.375 32.0104 47.3125 32.0312C46.25 32.0521 45.2708 32.0833 44.375 32.125C44.3333 32.2917 44.2917 32.4688 44.25 32.6562C44.2292 32.8646 44.1979 33.0729 44.1562 33.2812L42.1562 33.625C42.0521 33.2083 41.9583 32.6979 41.875 32.0938C41.7917 31.4896 41.7292 30.9167 41.6875 30.375L41.375 25.2188C41.3333 24.8438 41.2812 24.5417 41.2188 24.3125C41.1771 24.0625 41.0833 23.8646 40.9375 23.7188C40.7917 23.5729 40.5833 23.4583 40.3125 23.375C40.0417 23.2708 39.6667 23.1562 39.1875 23.0312L39.7188 21.875C42.4479 22.2083 45.2188 22.3438 48.0312 22.2812C50.8438 22.1979 53.6562 22.0417 56.4688 21.8125C56.3854 22.3542 56.3021 22.9688 56.2188 23.6562C56.1354 24.3438 56.0521 25.0625 55.9688 25.8125C55.9062 26.5625 55.8438 27.3021 55.7812 28.0312C55.7188 28.7604 55.6667 29.4271 55.625 30.0312ZM53.125 23.8125C52.4792 23.7917 51.7604 23.7812 50.9688 23.7812C50.1979 23.7604 49.4167 23.7604 48.625 23.7812C47.8333 23.8021 47.0625 23.8333 46.3125 23.875C45.5625 23.8958 44.9062 23.9271 44.3438 23.9688L44.5 29.7812V30.5C45.8542 30.4792 47.2812 30.4375 48.7812 30.375C50.3021 30.3333 51.7188 30.2812 53.0312 30.2188L53.125 23.8125ZM77.8438 5.25C78.6979 5.375 79.4792 5.60417 80.1875 5.9375C80.9167 6.25 81.5312 6.64583 82.0312 7.125C82.5521 7.58333 82.9583 8.10417 83.25 8.6875C83.5417 9.27083 83.6875 9.89583 83.6875 10.5625C83.6875 11.3542 83.5 12.0833 83.125 12.75C82.75 13.3958 82.2292 13.9583 81.5625 14.4375C80.9167 14.9167 80.1458 15.2917 79.25 15.5625C78.3542 15.8333 77.375 15.9688 76.3125 15.9688C75.25 15.9688 74.2708 15.8333 73.375 15.5625C72.4792 15.2917 71.6979 14.9167 71.0312 14.4375C70.3854 13.9583 69.875 13.3958 69.5 12.75C69.1458 12.0833 68.9688 11.3542 68.9688 10.5625C68.9688 9.85417 69.125 9.19792 69.4375 8.59375C69.7708 7.96875 70.2188 7.41667 70.7812 6.9375C71.3438 6.45833 72.0208 6.07292 72.8125 5.78125C73.6042 5.46875 74.4688 5.27083 75.4062 5.1875C75.3646 4.95833 75.25 4.77083 75.0625 4.625C74.875 4.47917 74.5521 4.33333 74.0938 4.1875L74.5625 3.34375C74.8125 3.38542 75.0938 3.4375 75.4062 3.5C75.7188 3.5625 76.0312 3.625 76.3438 3.6875C76.6771 3.75 77.0104 3.8125 77.3438 3.875C77.6771 3.9375 77.9792 4 78.25 4.0625C78.1875 4.20833 78.1146 4.38542 78.0312 4.59375C77.9688 4.80208 77.9062 5.02083 77.8438 5.25ZM80.6562 10.4375C80.6562 9.89583 80.5417 9.38542 80.3125 8.90625C80.0833 8.42708 79.7708 8.01042 79.375 7.65625C78.9792 7.30208 78.5208 7.02083 78 6.8125C77.4792 6.60417 76.9271 6.5 76.3438 6.5C75.7604 6.5 75.2083 6.60417 74.6875 6.8125C74.1667 7.02083 73.7083 7.30208 73.3125 7.65625C72.9375 8.01042 72.6354 8.42708 72.4062 8.90625C72.1771 9.38542 72.0625 9.89583 72.0625 10.4375C72.0625 11 72.1667 11.5208 72.375 12C72.6042 12.4792 72.9167 12.8854 73.3125 13.2188C73.7083 13.5521 74.1562 13.8125 74.6562 14C75.1771 14.1875 75.7396 14.2812 76.3438 14.2812C76.9271 14.2812 77.4792 14.1875 78 14C78.5417 13.8125 79 13.5521 79.375 13.2188C79.7708 12.8854 80.0833 12.4792 80.3125 12C80.5417 11.5208 80.6562 11 80.6562 10.4375ZM90.5625 19.5C90.1458 19.4792 89.6562 19.4583 89.0938 19.4375C88.5521 19.4167 87.9583 19.4062 87.3125 19.4062C86.6667 19.3854 86 19.3646 85.3125 19.3438C84.625 19.3229 83.9375 19.3125 83.25 19.3125C82.6667 19.3125 81.9271 19.3229 81.0312 19.3438C80.1354 19.3438 79.1562 19.3542 78.0938 19.375C77.0521 19.3958 75.9792 19.4271 74.875 19.4688C73.7708 19.4896 72.7188 19.5208 71.7188 19.5625C70.7396 19.6042 69.8542 19.6458 69.0625 19.6875C68.2708 19.7083 67.6667 19.7292 67.25 19.75C66.4792 19.7917 65.6354 19.8646 64.7188 19.9688C63.8021 20.0521 62.9792 20.1354 62.25 20.2188L61.1875 17.5C62.125 17.6042 63.125 17.6979 64.1875 17.7812C65.2708 17.8438 66.2812 17.8958 67.2188 17.9375C67.7188 17.9583 68.3854 17.9688 69.2188 17.9688C70.0521 17.9688 70.9583 17.9688 71.9375 17.9688C72.9375 17.9479 73.9688 17.9271 75.0312 17.9062C76.1146 17.8646 77.1458 17.8333 78.125 17.8125C79.1042 17.7917 80.0104 17.7708 80.8438 17.75C81.6771 17.7083 82.3438 17.6771 82.8438 17.6562C84.2396 17.5938 85.6562 17.5 87.0938 17.375C88.5312 17.2292 89.8229 17.0833 90.9688 16.9375L90.5625 19.5ZM81.8438 23.4688C81.3438 23.4479 80.6979 23.4375 79.9062 23.4375C79.1146 23.4375 78.2812 23.4583 77.4062 23.5C76.5521 23.5208 75.7188 23.5521 74.9062 23.5938C74.0938 23.6146 73.4167 23.6458 72.875 23.6875C72.6667 23.7083 72.375 23.7292 72 23.75C71.6458 23.7708 71.25 23.8125 70.8125 23.875C70.3958 23.9167 69.9583 23.9688 69.5 24.0312C69.0625 24.0729 68.6562 24.1354 68.2812 24.2188L66.8438 21.7188C67.0729 21.7604 67.3854 21.8125 67.7812 21.875C68.1771 21.9375 68.6042 21.9896 69.0625 22.0312C69.5208 22.0729 69.9688 22.1146 70.4062 22.1562C70.8438 22.1771 71.2292 22.1875 71.5625 22.1875C72.3542 22.1875 73.3229 22.1875 74.4688 22.1875C75.6354 22.1875 76.8542 22.1771 78.125 22.1562C79.4167 22.1146 80.6875 22.0625 81.9375 22C83.2083 21.9375 84.3438 21.8646 85.3438 21.7812C85.2812 22.0938 85.2188 22.3854 85.1562 22.6562C85.1146 22.8854 85.0625 23.1354 85 23.4062C84.9583 23.6771 84.9167 23.9062 84.875 24.0938L84.5312 26.125C84.6979 26.1042 84.8333 26.0938 84.9375 26.0938C85.0625 26.0938 85.1771 26.0833 85.2812 26.0625L85.0625 28.0312C83.8958 27.9688 82.6458 27.9375 81.3125 27.9375C79.9792 27.9167 78.6875 27.9167 77.4375 27.9375C76.2083 27.9583 75.0833 27.9896 74.0625 28.0312C73.0417 28.0729 72.2708 28.1042 71.75 28.125C71.7292 28.3125 71.7188 28.4896 71.7188 28.6562C71.7188 28.8229 71.7188 28.9896 71.7188 29.1562V30.4688C71.7188 30.6354 71.7188 30.7604 71.7188 30.8438C71.7396 30.9479 71.7708 31.0208 71.8125 31.0625C71.875 31.125 71.9583 31.1562 72.0625 31.1562C72.1667 31.1771 72.3229 31.1875 72.5312 31.1875C73.0312 31.2083 73.6458 31.2083 74.375 31.1875C75.125 31.1875 75.9271 31.1667 76.7812 31.125C77.6354 31.0833 78.5208 31.0312 79.4375 30.9688C80.375 30.9271 81.2812 30.8646 82.1562 30.7812C83.0521 30.7188 83.8958 30.6458 84.6875 30.5625C85.4792 30.4792 86.1667 30.3854 86.75 30.2812L86.2188 32.7812C85.0938 32.7396 83.8229 32.7188 82.4062 32.7188C80.9896 32.7188 79.5729 32.7188 78.1562 32.7188C76.7396 32.7396 75.375 32.7604 74.0625 32.7812C72.75 32.8229 71.625 32.8646 70.6875 32.9062C69.9583 32.9479 69.4479 32.8021 69.1562 32.4688C68.8854 32.1354 68.75 31.6979 68.75 31.1562V29.625C68.75 29.25 68.7188 28.9479 68.6562 28.7188C68.6146 28.4688 68.5104 28.2604 68.3438 28.0938C68.1979 27.9271 67.9688 27.7812 67.6562 27.6562C67.3438 27.5312 66.9375 27.3854 66.4375 27.2188L66.9688 26.25C68.0312 26.375 69.1875 26.4583 70.4375 26.5C71.7083 26.5417 73 26.5625 74.3125 26.5625C75.625 26.5625 76.9167 26.5417 78.1875 26.5C79.4583 26.4583 80.6458 26.4062 81.75 26.3438L81.8438 23.4688ZM112.812 12.375C113.833 13.25 114.927 14.1042 116.094 14.9375C117.26 15.75 118.531 16.5625 119.906 17.375L117.656 19.4375C116.656 18.4167 115.688 17.4479 114.75 16.5312C113.833 15.5938 112.844 14.6354 111.781 13.6562C110.51 15.1354 109.094 16.4479 107.531 17.5938C105.99 18.7188 104.375 19.7396 102.688 20.6562L101.969 19.75C103.115 19.0417 104.198 18.2396 105.219 17.3438C106.26 16.4479 107.208 15.5104 108.062 14.5312C108.917 13.5312 109.656 12.5104 110.281 11.4688C110.927 10.4062 111.427 9.35417 111.781 8.3125C111.885 7.9375 111.906 7.6875 111.844 7.5625C111.802 7.4375 111.74 7.34375 111.656 7.28125C111.49 7.13542 111.229 6.97917 110.875 6.8125C110.521 6.625 110.135 6.42708 109.719 6.21875L110.406 5.25C111.26 5.47917 112.177 5.73958 113.156 6.03125C114.135 6.32292 115.031 6.625 115.844 6.9375C115.469 7.95833 115.021 8.92708 114.5 9.84375C114 10.7396 113.438 11.5833 112.812 12.375ZM123.469 22.5312C122.969 22.5104 122.385 22.5 121.719 22.5C121.073 22.5 120.406 22.5208 119.719 22.5625C119.031 22.5833 118.354 22.6146 117.688 22.6562C117.021 22.6979 116.417 22.7396 115.875 22.7812C115.667 22.8021 115.375 22.8229 115 22.8438C114.646 22.8646 114.25 22.8958 113.812 22.9375C113.396 22.9792 112.958 23.0312 112.5 23.0938C112.062 23.1562 111.656 23.2188 111.281 23.2812L109.812 20.8125C110.042 20.8542 110.354 20.9062 110.75 20.9688C111.167 21.0104 111.594 21.0521 112.031 21.0938C112.49 21.1354 112.938 21.1667 113.375 21.1875C113.833 21.2083 114.229 21.2188 114.562 21.2188C115.354 21.2188 116.25 21.2188 117.25 21.2188C118.271 21.2188 119.323 21.2083 120.406 21.1875C121.51 21.1458 122.625 21.0938 123.75 21.0312C124.875 20.9688 125.938 20.8958 126.938 20.8125C126.854 21.1042 126.781 21.3958 126.719 21.6875C126.656 21.9375 126.604 22.1979 126.562 22.4688C126.521 22.7396 126.479 22.9688 126.438 23.1562L126.031 25.625C126.198 25.6042 126.344 25.5938 126.469 25.5938C126.594 25.5729 126.729 25.5521 126.875 25.5312L126.625 27.5C125.438 27.4375 124.25 27.4062 123.062 27.4062C121.875 27.4062 120.74 27.4167 119.656 27.4375C118.594 27.4583 117.625 27.4896 116.75 27.5312C115.896 27.5521 115.208 27.5729 114.688 27.5938C114.667 27.7812 114.656 27.9583 114.656 28.125C114.656 28.2917 114.656 28.4583 114.656 28.625V30.5938C114.656 30.9062 114.698 31.0938 114.781 31.1562C114.885 31.2396 115.115 31.2917 115.469 31.3125C116.219 31.3333 117.146 31.3229 118.25 31.2812C119.354 31.2604 120.5 31.2083 121.688 31.125C122.875 31.0417 124.052 30.9375 125.219 30.8125C126.385 30.6875 127.406 30.5521 128.281 30.4062L127.781 32.9062C126.656 32.8646 125.458 32.8333 124.188 32.8125C122.938 32.8125 121.688 32.8229 120.438 32.8438C119.208 32.8646 118.01 32.8854 116.844 32.9062C115.698 32.9479 114.656 32.9896 113.719 33.0312C112.99 33.0729 112.479 32.9271 112.188 32.5938C111.896 32.2604 111.75 31.8229 111.75 31.2812V29.0938C111.75 28.7188 111.719 28.4167 111.656 28.1875C111.615 27.9375 111.51 27.7292 111.344 27.5625C111.198 27.3958 110.969 27.25 110.656 27.125C110.344 27 109.938 26.8542 109.438 26.6875L109.969 25.7188C111.031 25.8229 112.135 25.8958 113.281 25.9375C114.448 25.9792 115.604 26 116.75 26C117.917 26 119.062 25.9896 120.188 25.9688C121.312 25.9271 122.375 25.875 123.375 25.8125L123.469 22.5312ZM123.875 12.5625C123.25 12.6042 122.615 12.6458 121.969 12.6875C121.323 12.7292 120.698 12.7812 120.094 12.8438C119.51 12.8854 118.958 12.9375 118.438 13C117.917 13.0625 117.469 13.125 117.094 13.1875L115.969 10.8125C116.24 10.8542 116.552 10.8958 116.906 10.9375C117.26 10.9583 117.625 10.9896 118 11.0312C118.375 11.0521 118.74 11.0729 119.094 11.0938C119.469 11.0938 119.812 11.0938 120.125 11.0938C120.604 11.0729 121.177 11.0625 121.844 11.0625C122.531 11.0625 123.208 11.0417 123.875 11V7.25C123.875 6.60417 123.562 6.08333 122.938 5.6875C122.333 5.27083 121.344 4.89583 119.969 4.5625L120.531 3.40625C121.031 3.46875 121.583 3.55208 122.188 3.65625C122.792 3.73958 123.396 3.84375 124 3.96875C124.604 4.07292 125.177 4.17708 125.719 4.28125C126.281 4.38542 126.771 4.46875 127.188 4.53125C127.146 4.71875 127.104 4.94792 127.062 5.21875C127.021 5.48958 126.979 5.77083 126.938 6.0625C126.917 6.33333 126.896 6.58333 126.875 6.8125C126.854 7.04167 126.844 7.20833 126.844 7.3125V14.75C126.844 15.125 126.823 15.5625 126.781 16.0625C126.74 16.5625 126.688 17.0625 126.625 17.5625C126.583 18.0625 126.531 18.5417 126.469 19C126.406 19.4375 126.344 19.7917 126.281 20.0625L124.125 20.3438C124.083 20.1354 124.052 19.8646 124.031 19.5312C124.01 19.1979 123.979 18.8542 123.938 18.5C123.917 18.125 123.896 17.7604 123.875 17.4062C123.875 17.0521 123.875 16.7292 123.875 16.4375V12.5625ZM144.906 15.6875C143.635 18.0208 142.104 20.1042 140.312 21.9375C138.521 23.7708 136.427 25.4688 134.031 27.0312L133.125 26.1562C134.458 25.2188 135.688 24.1771 136.812 23.0312C137.938 21.8646 138.938 20.6458 139.812 19.375C140.688 18.1042 141.427 16.8021 142.031 15.4688C142.656 14.1354 143.146 12.8125 143.5 11.5C142.917 11.5208 142.271 11.5417 141.562 11.5625C140.854 11.5625 140.198 11.5833 139.594 11.625C139.385 11.6458 139.104 11.6771 138.75 11.7188C138.396 11.7604 138.021 11.8125 137.625 11.875C137.229 11.9167 136.823 11.9688 136.406 12.0312C136.01 12.0938 135.656 12.1562 135.344 12.2188L133.781 9.71875C134.073 9.76042 134.406 9.8125 134.781 9.875C135.156 9.91667 135.542 9.95833 135.938 10C136.354 10.0208 136.76 10.0417 137.156 10.0625C137.573 10.0833 137.958 10.0938 138.312 10.0938C139.833 10.1146 141.208 10.0729 142.438 9.96875C143.688 9.84375 144.958 9.625 146.25 9.3125L147.25 10.25C147.021 11 146.76 11.7292 146.469 12.4375C146.177 13.125 145.865 13.8021 145.531 14.4688C145.948 14.5104 146.344 14.5417 146.719 14.5625C147.094 14.5625 147.448 14.5521 147.781 14.5312C148.094 14.5312 148.427 14.5208 148.781 14.5C149.156 14.4792 149.521 14.4583 149.875 14.4375V8.5C149.875 8.1875 149.823 7.90625 149.719 7.65625C149.635 7.40625 149.479 7.17708 149.25 6.96875C149.021 6.76042 148.698 6.57292 148.281 6.40625C147.865 6.23958 147.344 6.07292 146.719 5.90625L147.25 4.78125C148.25 4.90625 149.271 5.07292 150.312 5.28125C151.354 5.46875 152.271 5.66667 153.062 5.875C153.021 6.0625 152.979 6.29167 152.938 6.5625C152.896 6.83333 152.854 7.10417 152.812 7.375C152.792 7.64583 152.771 7.89583 152.75 8.125C152.729 8.35417 152.719 8.52083 152.719 8.625V23.5C152.719 24.1458 152.698 24.8854 152.656 25.7188C152.635 26.5312 152.594 27.3542 152.531 28.1875C152.49 29.0208 152.427 29.8229 152.344 30.5938C152.281 31.3646 152.208 32.0104 152.125 32.5312L150.125 32.7812C150.083 32.3854 150.052 31.9062 150.031 31.3438C150.01 30.8021 149.979 30.2188 149.938 29.5938C149.917 28.9688 149.896 28.3333 149.875 27.6875C149.875 27.0208 149.875 26.3854 149.875 25.7812V22.25C148.896 22.2917 147.885 22.3646 146.844 22.4688C145.823 22.5521 144.917 22.6875 144.125 22.875L142.906 20.4688C143.51 20.5729 144.188 20.6458 144.938 20.6875C145.688 20.7292 146.312 20.7396 146.812 20.7188C147.229 20.6979 147.708 20.6875 148.25 20.6875C148.812 20.6667 149.354 20.6354 149.875 20.5938V16.125C149.083 16.1667 148.292 16.2292 147.5 16.3125C146.729 16.3958 146.042 16.5208 145.438 16.6875L144.906 15.6875ZM152.344 3.40625C152.844 3.46875 153.375 3.55208 153.938 3.65625C154.5 3.76042 155.052 3.86458 155.594 3.96875C156.156 4.07292 156.688 4.17708 157.188 4.28125C157.688 4.38542 158.135 4.47917 158.531 4.5625C158.49 4.75 158.448 4.97917 158.406 5.25C158.385 5.52083 158.354 5.79167 158.312 6.0625C158.292 6.33333 158.271 6.58333 158.25 6.8125C158.229 7.04167 158.219 7.20833 158.219 7.3125V24.625C158.219 25.2708 158.198 26.0104 158.156 26.8438C158.135 27.6562 158.104 28.4792 158.062 29.3125C158.021 30.1458 157.969 30.9375 157.906 31.6875C157.844 32.4583 157.771 33.1042 157.688 33.625L155.562 33.9062C155.521 33.5104 155.479 33.0312 155.438 32.4688C155.417 31.9271 155.396 31.3333 155.375 30.6875C155.354 30.0625 155.333 29.4271 155.312 28.7812C155.292 28.1146 155.281 27.4792 155.281 26.875V7.25C155.281 6.9375 155.229 6.65625 155.125 6.40625C155.021 6.13542 154.833 5.89583 154.562 5.6875C154.312 5.45833 153.958 5.26042 153.5 5.09375C153.062 4.90625 152.51 4.72917 151.844 4.5625L152.344 3.40625ZM185.938 24.625C185.938 25.2708 185.917 26.0208 185.875 26.875C185.854 27.7083 185.823 28.5521 185.781 29.4062C185.74 30.2396 185.688 31.0312 185.625 31.7812C185.562 32.5521 185.5 33.1667 185.438 33.625L183.281 33.9062C183.24 33.5729 183.198 33.125 183.156 32.5625C183.135 32 183.104 31.3958 183.062 30.75C183.042 30.125 183.021 29.4792 183 28.8125C183 28.125 183 27.4792 183 26.875V7.25C183 6.60417 182.698 6.08333 182.094 5.6875C181.51 5.27083 180.531 4.89583 179.156 4.5625L179.656 3.40625C180.177 3.46875 180.74 3.55208 181.344 3.65625C181.948 3.73958 182.552 3.84375 183.156 3.96875C183.76 4.07292 184.333 4.17708 184.875 4.28125C185.438 4.38542 185.917 4.46875 186.312 4.53125C186.271 4.71875 186.219 4.94792 186.156 5.21875C186.115 5.48958 186.073 5.77083 186.031 6.0625C186.01 6.33333 185.99 6.58333 185.969 6.8125C185.948 7.04167 185.938 7.20833 185.938 7.3125V17.375C186.875 17.2917 187.927 17.1979 189.094 17.0938C190.26 16.9688 191.312 16.8229 192.25 16.6562L191.906 19.1875C191.552 19.1667 191.125 19.1562 190.625 19.1562C190.125 19.1562 189.604 19.1562 189.062 19.1562C188.521 19.1562 187.979 19.1562 187.438 19.1562C186.896 19.1562 186.396 19.1562 185.938 19.1562V24.625ZM180.938 12.6562C180.458 12.6562 179.875 12.6562 179.188 12.6562C178.5 12.6562 177.75 12.6667 176.938 12.6875C176.146 12.7083 175.323 12.7292 174.469 12.75C173.615 12.7708 172.792 12.7917 172 12.8125C171.208 12.8333 170.479 12.8542 169.812 12.875C169.146 12.8958 168.594 12.9167 168.156 12.9375C167.906 12.9583 167.573 12.9896 167.156 13.0312C166.76 13.0521 166.344 13.0833 165.906 13.125C165.469 13.1667 165.052 13.2188 164.656 13.2812C164.26 13.3229 163.938 13.3646 163.688 13.4062L162.5 10.8125C162.771 10.875 163.115 10.9375 163.531 11C163.948 11.0417 164.375 11.0833 164.812 11.125C165.25 11.1667 165.677 11.2083 166.094 11.25C166.51 11.2708 166.865 11.2812 167.156 11.2812C167.865 11.2812 168.802 11.2708 169.969 11.25C171.156 11.2083 172.417 11.1562 173.75 11.0938C175.104 11.0104 176.448 10.9167 177.781 10.8125C179.135 10.6875 180.323 10.5312 181.344 10.3438L180.938 12.6562ZM179.062 20.2812C179.062 21.0312 178.885 21.75 178.531 22.4375C178.177 23.1042 177.688 23.6979 177.062 24.2188C176.458 24.7188 175.729 25.1146 174.875 25.4062C174.042 25.6979 173.146 25.8438 172.188 25.8438C171.208 25.8438 170.292 25.6979 169.438 25.4062C168.604 25.0938 167.875 24.6875 167.25 24.1875C166.646 23.6875 166.167 23.1042 165.812 22.4375C165.458 21.75 165.281 21.0312 165.281 20.2812C165.281 19.4479 165.458 18.6875 165.812 18C166.167 17.3125 166.646 16.7292 167.25 16.25C167.875 15.75 168.604 15.3646 169.438 15.0938C170.292 14.8229 171.208 14.6875 172.188 14.6875C173.208 14.6875 174.135 14.8438 174.969 15.1562C175.823 15.4479 176.552 15.8542 177.156 16.375C177.76 16.875 178.229 17.4688 178.562 18.1562C178.896 18.8229 179.062 19.5312 179.062 20.2812ZM168.375 20.125C168.375 20.6667 168.469 21.1771 168.656 21.6562C168.865 22.1354 169.146 22.5625 169.5 22.9375C169.854 23.2917 170.26 23.5833 170.719 23.8125C171.198 24.0208 171.708 24.125 172.25 24.125C172.75 24.125 173.229 24.0208 173.688 23.8125C174.146 23.6042 174.542 23.3229 174.875 22.9688C175.229 22.6146 175.51 22.1979 175.719 21.7188C175.927 21.2188 176.031 20.6875 176.031 20.125C176.031 19.6042 175.938 19.1146 175.75 18.6562C175.562 18.1771 175.302 17.7604 174.969 17.4062C174.635 17.0521 174.229 16.7708 173.75 16.5625C173.292 16.3333 172.792 16.2188 172.25 16.2188C171.146 16.2188 170.219 16.5833 169.469 17.3125C168.74 18.0208 168.375 18.9583 168.375 20.125ZM176.312 8.5C175.958 8.5 175.573 8.5 175.156 8.5C174.74 8.5 174.323 8.51042 173.906 8.53125C173.49 8.53125 173.083 8.54167 172.688 8.5625C172.312 8.5625 171.99 8.5625 171.719 8.5625C171.573 8.5625 171.365 8.57292 171.094 8.59375C170.823 8.59375 170.521 8.61458 170.188 8.65625C169.854 8.67708 169.521 8.70833 169.188 8.75C168.854 8.77083 168.552 8.80208 168.281 8.84375L167 6.4375C167.25 6.5 167.562 6.5625 167.938 6.625C168.312 6.6875 168.698 6.75 169.094 6.8125C169.51 6.875 169.906 6.92708 170.281 6.96875C170.677 6.98958 171.01 7 171.281 7C171.531 7 171.875 6.98958 172.312 6.96875C172.75 6.94792 173.219 6.91667 173.719 6.875C174.24 6.8125 174.76 6.75 175.281 6.6875C175.823 6.625 176.333 6.5625 176.812 6.5L176.312 8.5ZM207.438 26.8438C208.688 26.8021 209.854 26.7604 210.938 26.7188C212.042 26.6771 212.927 26.6354 213.594 26.5938C214.99 26.5312 216.406 26.4375 217.844 26.3125C219.302 26.1875 220.594 26.0417 221.719 25.875L221.344 28.4375C220.51 28.3958 219.427 28.3646 218.094 28.3438C216.76 28.3229 215.396 28.3021 214 28.2812C213.417 28.2812 212.708 28.2917 211.875 28.3125C211.042 28.3125 210.135 28.3333 209.156 28.375C208.198 28.3958 207.208 28.4271 206.188 28.4688C205.188 28.4896 204.229 28.5208 203.312 28.5625C202.396 28.5833 201.562 28.6146 200.812 28.6562C200.083 28.6979 199.51 28.7292 199.094 28.75C198.302 28.7917 197.458 28.8542 196.562 28.9375C195.667 29 194.833 29.0833 194.062 29.1875L193.062 26.4375C194 26.5625 194.99 26.6667 196.031 26.75C197.094 26.8125 198.104 26.8646 199.062 26.9062C199.667 26.9479 200.448 26.9688 201.406 26.9688C202.385 26.9479 203.438 26.9271 204.562 26.9062V18.8125C204.562 18.4792 204.521 18.1979 204.438 17.9688C204.375 17.7188 204.24 17.5104 204.031 17.3438C203.823 17.1771 203.542 17.0312 203.188 16.9062C202.833 16.7604 202.365 16.6354 201.781 16.5312L202.312 15.4062C202.646 15.4479 203.042 15.4896 203.5 15.5312C203.979 15.5729 204.469 15.6354 204.969 15.7188C205.469 15.7812 205.958 15.8542 206.438 15.9375C206.938 16.0208 207.385 16.1042 207.781 16.1875C207.698 16.5625 207.615 17.0208 207.531 17.5625C207.469 18.1042 207.438 18.5 207.438 18.75V26.8438ZM212.469 22.5C212.698 21.5 212.917 20.3958 213.125 19.1875C213.333 17.9583 213.51 16.7396 213.656 15.5312C213.823 14.3021 213.958 13.125 214.062 12C214.167 10.8542 214.24 9.85417 214.281 9C213.49 9 212.594 9.01042 211.594 9.03125C210.615 9.03125 209.625 9.05208 208.625 9.09375C207.625 9.11458 206.667 9.14583 205.75 9.1875C204.833 9.20833 204.062 9.23958 203.438 9.28125C203.125 9.30208 202.74 9.33333 202.281 9.375C201.844 9.41667 201.375 9.45833 200.875 9.5C200.375 9.54167 199.865 9.60417 199.344 9.6875C198.844 9.75 198.385 9.82292 197.969 9.90625L196.625 7.34375C197.021 7.38542 197.458 7.42708 197.938 7.46875C198.417 7.51042 198.885 7.55208 199.344 7.59375C199.823 7.61458 200.281 7.63542 200.719 7.65625C201.156 7.67708 201.542 7.6875 201.875 7.6875C203 7.6875 204.25 7.67708 205.625 7.65625C207 7.61458 208.385 7.5625 209.781 7.5C211.177 7.4375 212.521 7.36458 213.812 7.28125C215.104 7.17708 216.219 7.05208 217.156 6.90625L217.969 7.6875C217.781 8.91667 217.573 10.1875 217.344 11.5C217.135 12.8125 216.885 14.1146 216.594 15.4062C216.323 16.6771 216.021 17.9271 215.688 19.1562C215.354 20.3646 214.99 21.4792 214.594 22.5H212.469ZM226.562 30.9375C226.25 31.0208 225.948 31.0104 225.656 30.9062C225.365 30.8229 225.104 30.6771 224.875 30.4688C224.667 30.2812 224.49 30.0521 224.344 29.7812C224.219 29.5104 224.156 29.2396 224.156 28.9688C224.156 28.4271 224.354 27.9375 224.75 27.5C225.167 27.0625 225.698 26.8438 226.344 26.8438C227.135 26.8438 227.74 27.1354 228.156 27.7188C228.594 28.2812 228.812 28.9896 228.812 29.8438C228.812 31.0104 228.5 32.0417 227.875 32.9375C227.25 33.8542 226.323 34.5208 225.094 34.9375L224.5 34.0938C225.25 33.8021 225.833 33.4062 226.25 32.9062C226.667 32.4062 226.875 31.8333 226.875 31.1875C226.875 30.9375 226.771 30.8542 226.562 30.9375ZM17.25 54.9062C17.4792 54.8646 17.6979 54.8438 17.9062 54.8438C18.1146 54.8229 18.3021 54.8021 18.4688 54.7812L17.9062 57C16.4062 56.8958 14.7604 56.8542 12.9688 56.875C11.1979 56.875 9.47917 56.9062 7.8125 56.9688C7.77083 57.3229 7.70833 57.7188 7.625 58.1562L5.59375 58.4688C5.48958 58.0521 5.38542 57.5417 5.28125 56.9375C5.17708 56.3333 5.10417 55.7604 5.0625 55.2188L4.59375 48.625C4.55208 48.25 4.5 47.9479 4.4375 47.7188C4.375 47.4896 4.26042 47.3021 4.09375 47.1562C3.92708 47.0104 3.69792 46.8854 3.40625 46.7812C3.11458 46.6771 2.73958 46.5625 2.28125 46.4375L2.8125 45.3125C4.16667 45.4792 5.47917 45.5938 6.75 45.6562C8.04167 45.6979 9.3125 45.7083 10.5625 45.6875C11.8333 45.6667 13.1146 45.6146 14.4062 45.5312C15.6979 45.4479 17.0417 45.3542 18.4375 45.25C18.3542 45.7917 18.2604 46.4792 18.1562 47.3125C18.0521 48.125 17.9375 48.9896 17.8125 49.9062C17.7083 50.8021 17.6042 51.6979 17.5 52.5938C17.3958 53.4688 17.3125 54.2396 17.25 54.9062ZM14.9688 47.2188C13.6562 47.1562 12.375 47.1458 11.125 47.1875C9.89583 47.2292 8.71875 47.3021 7.59375 47.4062L7.84375 54.6562C7.84375 54.7604 7.84375 54.875 7.84375 55C7.86458 55.1042 7.86458 55.2396 7.84375 55.4062C8.96875 55.3854 10.1042 55.3438 11.25 55.2812C12.4167 55.2188 13.5417 55.1667 14.625 55.125L14.9688 47.2188ZM8.15625 60.3125C9.48958 60.5417 11 60.6875 12.6875 60.75C14.375 60.8125 16.0625 60.8229 17.75 60.7812C19.4375 60.7396 21.0208 60.6562 22.5 60.5312C23.9792 60.3854 25.1875 60.2396 26.125 60.0938L25.625 62.5312C24.3542 62.4688 23.1667 62.4271 22.0625 62.4062C20.9792 62.3646 19.9479 62.3542 18.9688 62.375C17.9896 62.375 17.0417 62.3958 16.125 62.4375C15.2083 62.4583 14.2812 62.5 13.3438 62.5625V68.0312C13.3438 68.4479 13.4062 68.6979 13.5312 68.7812C13.6562 68.8854 13.9583 68.9479 14.4375 68.9688C15.2083 68.9896 16.125 68.9792 17.1875 68.9375C18.25 68.9167 19.3542 68.8646 20.5 68.7812C21.6458 68.7188 22.7708 68.6354 23.875 68.5312C25 68.4271 26.0104 68.3021 26.9062 68.1562L26.4375 70.625C23.8333 70.4792 21.3333 70.4271 18.9375 70.4688C16.5625 70.5104 14.4375 70.5833 12.5625 70.6875C11.8333 70.7292 11.2917 70.5417 10.9375 70.125C10.5833 69.7292 10.4062 69.25 10.4062 68.6875V64.1562C10.4062 63.7188 10.375 63.3646 10.3125 63.0938C10.25 62.8229 10.125 62.5938 9.9375 62.4062C9.75 62.1979 9.47917 62.0208 9.125 61.875C8.77083 61.7292 8.29167 61.5729 7.6875 61.4062L8.15625 60.3125ZM19.5938 41.4062C20.0938 41.4688 20.6458 41.5521 21.25 41.6562C21.8542 41.7396 22.4583 41.8438 23.0625 41.9688C23.6667 42.0729 24.2396 42.1771 24.7812 42.2812C25.3438 42.3854 25.8333 42.4688 26.25 42.5312C26.2083 42.7188 26.1667 42.9479 26.125 43.2188C26.0833 43.4896 26.0417 43.7708 26 44.0625C25.9583 44.3333 25.9271 44.5833 25.9062 44.8125C25.8854 45.0417 25.875 45.2083 25.875 45.3125V53.9688C25.875 54.3438 25.8542 54.7812 25.8125 55.2812C25.7917 55.7812 25.75 56.2812 25.6875 56.7812C25.6458 57.2812 25.5938 57.7604 25.5312 58.2188C25.4688 58.6562 25.4062 59 25.3438 59.25L23.1875 59.5938C23.1458 59.3646 23.1146 59.0833 23.0938 58.75C23.0729 58.4167 23.0417 58.0729 23 57.7188C22.9792 57.3646 22.9583 57.0104 22.9375 56.6562C22.9375 56.2812 22.9375 55.9479 22.9375 55.6562V45.25C22.9375 44.6042 22.625 44.0833 22 43.6875C21.3958 43.2708 20.4062 42.8958 19.0312 42.5625L19.5938 41.4062ZM47.4062 43.2812C48.2812 43.4062 49.0833 43.6354 49.8125 43.9688C50.5417 44.3021 51.1667 44.7083 51.6875 45.1875C52.2292 45.6667 52.6458 46.2083 52.9375 46.8125C53.2292 47.4167 53.375 48.0625 53.375 48.75C53.375 49.5417 53.1771 50.2812 52.7812 50.9688C52.4062 51.6354 51.875 52.2188 51.1875 52.7188C50.5208 53.2188 49.7292 53.6146 48.8125 53.9062C47.8958 54.1771 46.8958 54.3125 45.8125 54.3125C44.75 54.3125 43.7708 54.1771 42.875 53.9062C41.9792 53.6146 41.1979 53.2188 40.5312 52.7188C39.8646 52.2188 39.3438 51.6354 38.9688 50.9688C38.5938 50.2812 38.4062 49.5417 38.4062 48.75C38.4062 48.0208 38.5625 47.3438 38.875 46.7188C39.2083 46.0729 39.6667 45.5104 40.25 45.0312C40.8333 44.5312 41.5208 44.125 42.3125 43.8125C43.1042 43.5 43.9688 43.3021 44.9062 43.2188C44.8646 42.9896 44.75 42.8021 44.5625 42.6562C44.3958 42.5104 44.0729 42.375 43.5938 42.25L44.0625 41.3438C44.3125 41.3854 44.5938 41.4375 44.9062 41.5C45.2188 41.5625 45.5417 41.625 45.875 41.6875C46.2292 41.75 46.5729 41.8125 46.9062 41.875C47.2396 41.9375 47.5417 42 47.8125 42.0625C47.75 42.2292 47.6771 42.4167 47.5938 42.625C47.5312 42.8333 47.4688 43.0521 47.4062 43.2812ZM50.3125 48.5938C50.3125 48.0521 50.1875 47.5417 49.9375 47.0625C49.7083 46.5625 49.3958 46.1354 49 45.7812C48.6042 45.4062 48.1354 45.1146 47.5938 44.9062C47.0729 44.6771 46.5208 44.5625 45.9375 44.5625C45.3333 44.5625 44.7604 44.6771 44.2188 44.9062C43.6771 45.1146 43.2083 45.4062 42.8125 45.7812C42.4167 46.1354 42.1042 46.5625 41.875 47.0625C41.6458 47.5417 41.5312 48.0521 41.5312 48.5938C41.5312 49.1979 41.6458 49.7396 41.875 50.2188C42.1042 50.6979 42.4167 51.1146 42.8125 51.4688C43.2083 51.8229 43.6667 52.0938 44.1875 52.2812C44.7292 52.4688 45.3125 52.5625 45.9375 52.5625C46.5417 52.5625 47.1042 52.4688 47.625 52.2812C48.1667 52.0938 48.6354 51.8229 49.0312 51.4688C49.4271 51.1146 49.7396 50.6979 49.9688 50.2188C50.1979 49.7396 50.3125 49.1979 50.3125 48.5938ZM60.1562 58.2812C59.7396 58.2604 59.25 58.2396 58.6875 58.2188C58.1458 58.1979 57.5521 58.1875 56.9062 58.1875C56.2604 58.1667 55.5938 58.1562 54.9062 58.1562C54.2188 58.1354 53.5312 58.125 52.8438 58.125C52.2604 58.125 51.5208 58.1354 50.625 58.1562C49.7292 58.1562 48.75 58.1667 47.6875 58.1875C46.6458 58.2083 45.5729 58.2396 44.4688 58.2812C43.3646 58.3021 42.3125 58.3333 41.3125 58.375C40.3333 58.3958 39.4479 58.4271 38.6562 58.4688C37.8646 58.4896 37.2604 58.5104 36.8438 58.5312C36.0729 58.5729 35.2292 58.6354 34.3125 58.7188C33.3958 58.8021 32.5729 58.8958 31.8438 59L30.7812 56.2812C31.7188 56.3854 32.7188 56.4792 33.7812 56.5625C34.8646 56.6458 35.875 56.7083 36.8125 56.75C37.3125 56.7708 37.9792 56.7812 38.8125 56.7812C39.6458 56.7812 40.5521 56.7708 41.5312 56.75C42.5312 56.7292 43.5625 56.7083 44.625 56.6875C45.7083 56.6667 46.7396 56.6458 47.7188 56.625C48.6979 56.5833 49.6042 56.5521 50.4375 56.5312C51.2708 56.4896 51.9375 56.4583 52.4375 56.4375C53.8333 56.375 55.25 56.2812 56.6875 56.1562C58.125 56.0312 59.4167 55.8854 60.5625 55.7188L60.1562 58.2812ZM53.6562 68.0312C53.8854 67.9896 54.0938 67.9688 54.2812 67.9688C54.4896 67.9479 54.6771 67.9271 54.8438 67.9062L54.3438 70.1875C53.5938 70.125 52.6771 70.0833 51.5938 70.0625C50.5104 70.0417 49.375 70.0208 48.1875 70C47.0208 70 45.8542 70.0104 44.6875 70.0312C43.5417 70.0521 42.5 70.0833 41.5625 70.125C41.5417 70.2917 41.5208 70.4688 41.5 70.6562C41.4792 70.8646 41.4479 71.0729 41.4062 71.2812L39.4062 71.625C39.2188 70.9167 39.1042 70.3333 39.0625 69.875C39.0208 69.4167 38.9792 68.9167 38.9375 68.375L38.5625 64.2812C38.5417 63.8854 38.5104 63.5729 38.4688 63.3438C38.4271 63.1146 38.3333 62.9271 38.1875 62.7812C38.0417 62.6354 37.8333 62.5104 37.5625 62.4062C37.2917 62.3021 36.9167 62.1875 36.4375 62.0625L36.9688 60.9375C38.3229 61.1042 39.7396 61.2188 41.2188 61.2812C42.6979 61.3229 44.1875 61.3333 45.6875 61.3125C47.2083 61.2917 48.7083 61.2396 50.1875 61.1562C51.6875 61.0729 53.1354 60.9792 54.5312 60.875C54.4688 61.4167 54.3958 61.9896 54.3125 62.5938C54.25 63.1979 54.1771 63.8125 54.0938 64.4375C54.0104 65.0625 53.9271 65.6875 53.8438 66.3125C53.7812 66.9167 53.7188 67.4896 53.6562 68.0312ZM51.2188 62.875C50.5729 62.8542 49.8125 62.8438 48.9375 62.8438C48.0625 62.8229 47.1771 62.8229 46.2812 62.8438C45.3854 62.8646 44.5208 62.8958 43.6875 62.9375C42.8542 62.9583 42.1562 62.9896 41.5938 63.0312L41.6875 67.7812C41.6875 67.8854 41.6875 68 41.6875 68.125C41.6875 68.25 41.6771 68.375 41.6562 68.5C43.0938 68.4792 44.6562 68.4375 46.3438 68.375C48.0521 68.3333 49.6562 68.2708 51.1562 68.1875L51.2188 62.875ZM77.8438 43.25C78.6979 43.375 79.4792 43.6042 80.1875 43.9375C80.9167 44.25 81.5312 44.6458 82.0312 45.125C82.5521 45.5833 82.9583 46.1042 83.25 46.6875C83.5417 47.2708 83.6875 47.8958 83.6875 48.5625C83.6875 49.3542 83.5 50.0833 83.125 50.75C82.75 51.3958 82.2292 51.9583 81.5625 52.4375C80.9167 52.9167 80.1458 53.2917 79.25 53.5625C78.3542 53.8333 77.375 53.9688 76.3125 53.9688C75.25 53.9688 74.2708 53.8333 73.375 53.5625C72.4792 53.2917 71.6979 52.9167 71.0312 52.4375C70.3854 51.9583 69.875 51.3958 69.5 50.75C69.1458 50.0833 68.9688 49.3542 68.9688 48.5625C68.9688 47.8542 69.125 47.1979 69.4375 46.5938C69.7708 45.9688 70.2188 45.4167 70.7812 44.9375C71.3438 44.4583 72.0208 44.0729 72.8125 43.7812C73.6042 43.4688 74.4688 43.2708 75.4062 43.1875C75.3646 42.9583 75.25 42.7708 75.0625 42.625C74.875 42.4792 74.5521 42.3333 74.0938 42.1875L74.5625 41.3438C74.8125 41.3854 75.0938 41.4375 75.4062 41.5C75.7188 41.5625 76.0312 41.625 76.3438 41.6875C76.6771 41.75 77.0104 41.8125 77.3438 41.875C77.6771 41.9375 77.9792 42 78.25 42.0625C78.1875 42.2083 78.1146 42.3854 78.0312 42.5938C77.9688 42.8021 77.9062 43.0208 77.8438 43.25ZM80.6562 48.4375C80.6562 47.8958 80.5417 47.3854 80.3125 46.9062C80.0833 46.4271 79.7708 46.0104 79.375 45.6562C78.9792 45.3021 78.5208 45.0208 78 44.8125C77.4792 44.6042 76.9271 44.5 76.3438 44.5C75.7604 44.5 75.2083 44.6042 74.6875 44.8125C74.1667 45.0208 73.7083 45.3021 73.3125 45.6562C72.9375 46.0104 72.6354 46.4271 72.4062 46.9062C72.1771 47.3854 72.0625 47.8958 72.0625 48.4375C72.0625 49 72.1667 49.5208 72.375 50C72.6042 50.4792 72.9167 50.8854 73.3125 51.2188C73.7083 51.5521 74.1562 51.8125 74.6562 52C75.1771 52.1875 75.7396 52.2812 76.3438 52.2812C76.9271 52.2812 77.4792 52.1875 78 52C78.5417 51.8125 79 51.5521 79.375 51.2188C79.7708 50.8854 80.0833 50.4792 80.3125 50C80.5417 49.5208 80.6562 49 80.6562 48.4375ZM90.5625 57.5C90.1458 57.4792 89.6562 57.4583 89.0938 57.4375C88.5521 57.4167 87.9583 57.4062 87.3125 57.4062C86.6667 57.3854 86 57.3646 85.3125 57.3438C84.625 57.3229 83.9375 57.3125 83.25 57.3125C82.6667 57.3125 81.9271 57.3229 81.0312 57.3438C80.1354 57.3438 79.1562 57.3542 78.0938 57.375C77.0521 57.3958 75.9792 57.4271 74.875 57.4688C73.7708 57.4896 72.7188 57.5208 71.7188 57.5625C70.7396 57.6042 69.8542 57.6458 69.0625 57.6875C68.2708 57.7083 67.6667 57.7292 67.25 57.75C66.4792 57.7917 65.6354 57.8646 64.7188 57.9688C63.8021 58.0521 62.9792 58.1354 62.25 58.2188L61.1875 55.5C62.125 55.6042 63.125 55.6979 64.1875 55.7812C65.2708 55.8438 66.2812 55.8958 67.2188 55.9375C67.7188 55.9583 68.3854 55.9688 69.2188 55.9688C70.0521 55.9688 70.9583 55.9688 71.9375 55.9688C72.9375 55.9479 73.9688 55.9271 75.0312 55.9062C76.1146 55.8646 77.1458 55.8333 78.125 55.8125C79.1042 55.7917 80.0104 55.7708 80.8438 55.75C81.6771 55.7083 82.3438 55.6771 82.8438 55.6562C84.2396 55.5938 85.6562 55.5 87.0938 55.375C88.5312 55.2292 89.8229 55.0833 90.9688 54.9375L90.5625 57.5ZM81.8438 61.4688C81.3438 61.4479 80.6979 61.4375 79.9062 61.4375C79.1146 61.4375 78.2812 61.4583 77.4062 61.5C76.5521 61.5208 75.7188 61.5521 74.9062 61.5938C74.0938 61.6146 73.4167 61.6458 72.875 61.6875C72.6667 61.7083 72.375 61.7292 72 61.75C71.6458 61.7708 71.25 61.8125 70.8125 61.875C70.3958 61.9167 69.9583 61.9688 69.5 62.0312C69.0625 62.0729 68.6562 62.1354 68.2812 62.2188L66.8438 59.7188C67.0729 59.7604 67.3854 59.8125 67.7812 59.875C68.1771 59.9375 68.6042 59.9896 69.0625 60.0312C69.5208 60.0729 69.9688 60.1146 70.4062 60.1562C70.8438 60.1771 71.2292 60.1875 71.5625 60.1875C72.3542 60.1875 73.3229 60.1875 74.4688 60.1875C75.6354 60.1875 76.8542 60.1771 78.125 60.1562C79.4167 60.1146 80.6875 60.0625 81.9375 60C83.2083 59.9375 84.3438 59.8646 85.3438 59.7812C85.2812 60.0938 85.2188 60.3854 85.1562 60.6562C85.1146 60.8854 85.0625 61.1354 85 61.4062C84.9583 61.6771 84.9167 61.9062 84.875 62.0938L84.5312 64.125C84.6979 64.1042 84.8333 64.0938 84.9375 64.0938C85.0625 64.0938 85.1771 64.0833 85.2812 64.0625L85.0625 66.0312C83.8958 65.9688 82.6458 65.9375 81.3125 65.9375C79.9792 65.9167 78.6875 65.9167 77.4375 65.9375C76.2083 65.9583 75.0833 65.9896 74.0625 66.0312C73.0417 66.0729 72.2708 66.1042 71.75 66.125C71.7292 66.3125 71.7188 66.4896 71.7188 66.6562C71.7188 66.8229 71.7188 66.9896 71.7188 67.1562V68.4688C71.7188 68.6354 71.7188 68.7604 71.7188 68.8438C71.7396 68.9479 71.7708 69.0208 71.8125 69.0625C71.875 69.125 71.9583 69.1562 72.0625 69.1562C72.1667 69.1771 72.3229 69.1875 72.5312 69.1875C73.0312 69.2083 73.6458 69.2083 74.375 69.1875C75.125 69.1875 75.9271 69.1667 76.7812 69.125C77.6354 69.0833 78.5208 69.0312 79.4375 68.9688C80.375 68.9271 81.2812 68.8646 82.1562 68.7812C83.0521 68.7188 83.8958 68.6458 84.6875 68.5625C85.4792 68.4792 86.1667 68.3854 86.75 68.2812L86.2188 70.7812C85.0938 70.7396 83.8229 70.7188 82.4062 70.7188C80.9896 70.7188 79.5729 70.7188 78.1562 70.7188C76.7396 70.7396 75.375 70.7604 74.0625 70.7812C72.75 70.8229 71.625 70.8646 70.6875 70.9062C69.9583 70.9479 69.4479 70.8021 69.1562 70.4688C68.8854 70.1354 68.75 69.6979 68.75 69.1562V67.625C68.75 67.25 68.7188 66.9479 68.6562 66.7188C68.6146 66.4688 68.5104 66.2604 68.3438 66.0938C68.1979 65.9271 67.9688 65.7812 67.6562 65.6562C67.3438 65.5312 66.9375 65.3854 66.4375 65.2188L66.9688 64.25C68.0312 64.375 69.1875 64.4583 70.4375 64.5C71.7083 64.5417 73 64.5625 74.3125 64.5625C75.625 64.5625 76.9167 64.5417 78.1875 64.5C79.4583 64.4583 80.6458 64.4062 81.75 64.3438L81.8438 61.4688ZM111.5 45.8438C112.354 45.9688 113.135 46.2083 113.844 46.5625C114.573 46.9167 115.188 47.3438 115.688 47.8438C116.208 48.3438 116.604 48.9167 116.875 49.5625C117.167 50.2083 117.312 50.8854 117.312 51.5938C117.312 52.4062 117.125 53.1667 116.75 53.875C116.396 54.5833 115.896 55.1979 115.25 55.7188C114.604 56.2396 113.833 56.6458 112.938 56.9375C112.042 57.2292 111.073 57.375 110.031 57.375C108.99 57.375 108.021 57.2292 107.125 56.9375C106.25 56.6458 105.49 56.2396 104.844 55.7188C104.198 55.1979 103.688 54.5833 103.312 53.875C102.958 53.1667 102.781 52.4062 102.781 51.5938C102.781 50.8438 102.938 50.1354 103.25 49.4688C103.562 48.8021 104 48.2083 104.562 47.6875C105.125 47.1667 105.792 46.7396 106.562 46.4062C107.333 46.0729 108.177 45.8646 109.094 45.7812C109.073 45.5312 108.969 45.3333 108.781 45.1875C108.615 45.0417 108.292 44.8958 107.812 44.75L108.344 43.8125C108.552 43.8542 108.812 43.9062 109.125 43.9688C109.438 44.0312 109.75 44.0938 110.062 44.1562C110.396 44.2188 110.719 44.2812 111.031 44.3438C111.365 44.4062 111.656 44.4688 111.906 44.5312C111.844 44.7188 111.771 44.9271 111.688 45.1562C111.604 45.3646 111.542 45.5938 111.5 45.8438ZM114.25 51.4688C114.25 50.8646 114.135 50.3021 113.906 49.7812C113.698 49.2604 113.396 48.8125 113 48.4375C112.625 48.0417 112.177 47.7396 111.656 47.5312C111.156 47.3021 110.625 47.1875 110.062 47.1875C109.5 47.1875 108.958 47.3021 108.438 47.5312C107.938 47.7396 107.49 48.0417 107.094 48.4375C106.719 48.8125 106.417 49.2604 106.188 49.7812C105.979 50.3021 105.875 50.8646 105.875 51.4688C105.875 52.0729 105.979 52.6354 106.188 53.1562C106.417 53.6562 106.719 54.0938 107.094 54.4688C107.49 54.8229 107.938 55.1042 108.438 55.3125C108.958 55.5208 109.5 55.625 110.062 55.625C110.646 55.625 111.188 55.5208 111.688 55.3125C112.208 55.1042 112.656 54.8229 113.031 54.4688C113.406 54.0938 113.698 53.6562 113.906 53.1562C114.135 52.6354 114.25 52.0729 114.25 51.4688ZM110.688 60.8125C111.771 60.8125 112.958 60.7917 114.25 60.75C115.562 60.7083 116.865 60.6562 118.156 60.5938C119.448 60.5104 120.667 60.4271 121.812 60.3438C122.979 60.2604 123.958 60.1771 124.75 60.0938C124.708 60.6354 124.667 61.0625 124.625 61.375C124.604 61.6667 124.594 61.9896 124.594 62.3438V66.8125C124.594 67.4167 124.552 68.125 124.469 68.9375C124.385 69.75 124.229 70.5104 124 71.2188L121.844 71.625C121.802 71.375 121.771 71.0729 121.75 70.7188C121.729 70.3646 121.698 69.9896 121.656 69.5938C121.635 69.2188 121.615 68.8438 121.594 68.4688C121.594 68.1146 121.594 67.8021 121.594 67.5312V62.0312C119.99 61.9479 118.302 61.9792 116.531 62.125C114.781 62.25 113.094 62.3646 111.469 62.4688C110.802 62.5104 110.146 62.5729 109.5 62.6562C108.875 62.7396 108.229 62.8333 107.562 62.9375L106.344 60.4375C106.656 60.4792 106.99 60.5208 107.344 60.5625C107.719 60.6042 108.104 60.6458 108.5 60.6875C108.896 60.7292 109.281 60.7604 109.656 60.7812C110.031 60.8021 110.375 60.8125 110.688 60.8125ZM124.781 53.6875C125.219 53.6667 125.698 53.6354 126.219 53.5938C126.76 53.5312 127.312 53.4688 127.875 53.4062C128.438 53.3438 128.99 53.2812 129.531 53.2188C130.094 53.1354 130.615 53.0521 131.094 52.9688L130.75 55.4375C130.375 55.4167 129.927 55.4062 129.406 55.4062C128.885 55.4062 128.354 55.4062 127.812 55.4062C127.271 55.4062 126.729 55.4062 126.188 55.4062C125.646 55.4062 125.156 55.4062 124.719 55.4062C124.677 56.1146 124.615 56.8333 124.531 57.5625C124.469 58.2917 124.396 58.8438 124.312 59.2188L122.094 59.5625C122.052 59.3333 122.021 59.0521 122 58.7188C121.979 58.3854 121.948 58.0417 121.906 57.6875C121.885 57.3333 121.865 56.9792 121.844 56.625C121.844 56.25 121.844 55.9167 121.844 55.625V45.25C121.844 44.6042 121.542 44.0833 120.938 43.6875C120.354 43.2708 119.375 42.8958 118 42.5625L118.469 41.4062C118.99 41.4688 119.552 41.5521 120.156 41.6562C120.781 41.7396 121.396 41.8438 122 41.9688C122.604 42.0729 123.177 42.1771 123.719 42.2812C124.26 42.3854 124.729 42.4688 125.125 42.5312C125.083 42.7188 125.042 42.9479 125 43.2188C124.958 43.4896 124.917 43.7708 124.875 44.0625C124.854 44.3333 124.833 44.5833 124.812 44.8125C124.792 45.0417 124.781 45.2083 124.781 45.3125V47.7188C125.219 47.6979 125.698 47.6562 126.219 47.5938C126.76 47.5312 127.312 47.4688 127.875 47.4062C128.438 47.3438 128.99 47.2812 129.531 47.2188C130.094 47.1354 130.615 47.0521 131.094 46.9688L130.75 49.4375C130.375 49.4167 129.938 49.4062 129.438 49.4062C128.938 49.4062 128.406 49.4062 127.844 49.4062C127.302 49.4062 126.76 49.4062 126.219 49.4062C125.698 49.4062 125.219 49.4062 124.781 49.4062V53.6875ZM147.438 46.5C149.146 47.375 150.979 48.2083 152.938 49C154.917 49.7917 156.896 50.4896 158.875 51.0938L156.625 53.375C155.896 52.9792 155.104 52.5521 154.25 52.0938C153.417 51.6146 152.552 51.125 151.656 50.625C150.76 50.125 149.854 49.625 148.938 49.125C148.021 48.625 147.146 48.1458 146.312 47.6875C144.688 49.25 142.875 50.5938 140.875 51.7188C138.875 52.8229 136.885 53.7083 134.906 54.375L134.062 53.3125C135.312 52.8542 136.5 52.3021 137.625 51.6562C138.771 51.0104 139.833 50.3125 140.812 49.5625C141.812 48.8125 142.708 48.0208 143.5 47.1875C144.292 46.3542 144.958 45.5 145.5 44.625C145.729 44.2292 145.708 43.9271 145.438 43.7188C145.25 43.5729 144.948 43.3854 144.531 43.1562C144.135 42.9271 143.781 42.75 143.469 42.625L144.281 41.6562C144.677 41.7812 145.115 41.9167 145.594 42.0625C146.094 42.2083 146.583 42.3646 147.062 42.5312C147.562 42.6771 148.042 42.8333 148.5 43C148.979 43.1458 149.417 43.2917 149.812 43.4375C149.458 43.9792 149.094 44.5104 148.719 45.0312C148.344 45.5312 147.917 46.0208 147.438 46.5ZM141.031 62.0625C142.115 62.0625 143.344 62.0417 144.719 62C146.115 61.9583 147.5 61.9062 148.875 61.8438C150.25 61.7604 151.552 61.6771 152.781 61.5938C154.031 61.5104 155.052 61.4271 155.844 61.3438C155.781 61.8854 155.729 62.3125 155.688 62.625C155.667 62.9375 155.656 63.2708 155.656 63.625V66.8125C155.656 67.4167 155.615 68.125 155.531 68.9375C155.469 69.75 155.333 70.5104 155.125 71.2188L152.969 71.625C152.927 71.375 152.885 71.0729 152.844 70.7188C152.823 70.3646 152.802 69.9896 152.781 69.5938C152.76 69.2188 152.74 68.8438 152.719 68.4688C152.698 68.1146 152.688 67.8021 152.688 67.5312V63.2812C151.896 63.2604 151.031 63.2604 150.094 63.2812C149.156 63.3021 148.208 63.3438 147.25 63.4062C146.292 63.4479 145.344 63.5 144.406 63.5625C143.49 63.625 142.625 63.6875 141.812 63.75C141.146 63.7917 140.5 63.8542 139.875 63.9375C139.25 64.0208 138.594 64.1146 137.906 64.2188L136.688 61.7188C137 61.7604 137.333 61.8021 137.688 61.8438C138.062 61.8854 138.448 61.9271 138.844 61.9688C139.24 61.9896 139.625 62.0104 140 62.0312C140.375 62.0521 140.719 62.0625 141.031 62.0625ZM148.438 56.9375C149.458 56.8958 150.385 56.8646 151.219 56.8438C152.052 56.8229 152.729 56.8021 153.25 56.7812C154.646 56.6979 156.062 56.5938 157.5 56.4688C158.938 56.3438 160.229 56.1979 161.375 56.0312L160.969 58.5938C160.552 58.5729 160.062 58.5521 159.5 58.5312C158.958 58.5104 158.365 58.5 157.719 58.5C157.073 58.4792 156.406 58.4583 155.719 58.4375C155.031 58.4167 154.344 58.4062 153.656 58.4062C153.073 58.4062 152.333 58.4167 151.438 58.4375C150.542 58.4375 149.562 58.4479 148.5 58.4688C147.458 58.4896 146.385 58.5208 145.281 58.5625C144.177 58.5833 143.125 58.6146 142.125 58.6562C141.146 58.6979 140.26 58.7396 139.469 58.7812C138.677 58.8021 138.073 58.8229 137.656 58.8438C136.885 58.8854 136.042 58.9479 135.125 59.0312C134.208 59.1146 133.385 59.2083 132.656 59.3125L131.594 56.5938C132.531 56.7188 133.531 56.8229 134.594 56.9062C135.677 56.9688 136.688 57.0208 137.625 57.0625C138 57.0833 138.479 57.0938 139.062 57.0938C139.646 57.0938 140.281 57.0938 140.969 57.0938C141.656 57.0938 142.385 57.0938 143.156 57.0938C143.948 57.0729 144.74 57.0521 145.531 57.0312V54.625C145.531 54.2917 145.5 54.0208 145.438 53.8125C145.396 53.5833 145.292 53.4062 145.125 53.2812C144.958 53.1354 144.708 53.0312 144.375 52.9688C144.042 52.8854 143.583 52.8125 143 52.75L143.469 51.6562C143.823 51.6562 144.219 51.6667 144.656 51.6875C145.115 51.6875 145.573 51.7083 146.031 51.75C146.51 51.7708 146.979 51.8021 147.438 51.8438C147.917 51.8854 148.365 51.9375 148.781 52C148.74 52.1875 148.698 52.4167 148.656 52.6875C148.615 52.9375 148.573 53.1875 148.531 53.4375C148.51 53.6875 148.49 53.9167 148.469 54.125C148.448 54.3333 148.438 54.5 148.438 54.625V56.9375ZM185.969 52.25C186.865 52.1875 187.875 52.0938 189 51.9688C190.125 51.8438 191.156 51.7083 192.094 51.5625L191.781 54.0312C191.427 54.0104 191 54 190.5 54C190.021 53.9792 189.521 53.9688 189 53.9688C188.479 53.9688 187.948 53.9688 187.406 53.9688C186.885 53.9688 186.396 53.9688 185.938 53.9688C185.938 54.3438 185.917 54.7708 185.875 55.25C185.854 55.7083 185.812 56.1667 185.75 56.625C185.708 57.0833 185.667 57.5104 185.625 57.9062C185.583 58.3021 185.542 58.6146 185.5 58.8438L183.281 59.1562C183.24 58.9479 183.208 58.6771 183.188 58.3438C183.167 58.0104 183.135 57.6667 183.094 57.3125C183.073 56.9375 183.052 56.5729 183.031 56.2188C183.031 55.8438 183.031 55.5104 183.031 55.2188V45.25C183.031 44.6042 182.729 44.0833 182.125 43.6875C181.542 43.2708 180.562 42.8958 179.188 42.5625L179.688 41.4062C180.208 41.4688 180.771 41.5521 181.375 41.6562C181.979 41.7396 182.583 41.8438 183.188 41.9688C183.792 42.0729 184.365 42.1771 184.906 42.2812C185.469 42.3854 185.948 42.4688 186.344 42.5312C186.302 42.7188 186.25 42.9479 186.188 43.2188C186.146 43.4896 186.104 43.7708 186.062 44.0625C186.042 44.3333 186.021 44.5833 186 44.8125C185.979 45.0417 185.969 45.2083 185.969 45.3125V52.25ZM180.938 48.5C180.458 48.5 179.875 48.5 179.188 48.5C178.5 48.5 177.75 48.5104 176.938 48.5312C176.146 48.5312 175.323 48.5417 174.469 48.5625C173.615 48.5833 172.792 48.6042 172 48.625C171.208 48.6458 170.479 48.6771 169.812 48.7188C169.146 48.7396 168.594 48.7604 168.156 48.7812C167.906 48.8021 167.573 48.8333 167.156 48.875C166.76 48.8958 166.344 48.9271 165.906 48.9688C165.469 49.0104 165.052 49.0521 164.656 49.0938C164.26 49.1354 163.938 49.1771 163.688 49.2188L162.5 46.6562C162.771 46.7188 163.115 46.7812 163.531 46.8438C163.948 46.8854 164.375 46.9271 164.812 46.9688C165.25 47.0104 165.677 47.0521 166.094 47.0938C166.51 47.1146 166.865 47.125 167.156 47.125C167.865 47.125 168.802 47.1146 169.969 47.0938C171.156 47.0521 172.417 47 173.75 46.9375C175.104 46.8542 176.448 46.7604 177.781 46.6562C179.135 46.5312 180.323 46.375 181.344 46.1875L180.938 48.5ZM176.312 45.2188C175.958 45.2188 175.573 45.2188 175.156 45.2188C174.74 45.2188 174.323 45.2292 173.906 45.25C173.49 45.25 173.083 45.2604 172.688 45.2812C172.312 45.2812 171.99 45.2812 171.719 45.2812C171.573 45.2812 171.365 45.2917 171.094 45.3125C170.823 45.3125 170.521 45.3333 170.188 45.375C169.854 45.3958 169.521 45.4271 169.188 45.4688C168.854 45.4896 168.552 45.5104 168.281 45.5312L167 43.1562C167.25 43.2188 167.562 43.2812 167.938 43.3438C168.312 43.4062 168.698 43.4688 169.094 43.5312C169.51 43.5729 169.906 43.6146 170.281 43.6562C170.677 43.6771 171.01 43.6875 171.281 43.6875C171.531 43.6875 171.875 43.6771 172.312 43.6562C172.75 43.6354 173.219 43.6042 173.719 43.5625C174.24 43.5 174.76 43.4375 175.281 43.375C175.823 43.3125 176.333 43.25 176.812 43.1875L176.312 45.2188ZM178.75 54.5625C178.75 55.25 178.583 55.8958 178.25 56.5C177.917 57.0833 177.448 57.6042 176.844 58.0625C176.26 58.5208 175.573 58.8854 174.781 59.1562C173.99 59.4062 173.125 59.5312 172.188 59.5312C171.271 59.5312 170.417 59.3958 169.625 59.125C168.833 58.8542 168.135 58.5 167.531 58.0625C166.948 57.6042 166.49 57.0729 166.156 56.4688C165.823 55.8646 165.656 55.2292 165.656 54.5625C165.656 53.8333 165.823 53.1667 166.156 52.5625C166.49 51.9375 166.948 51.4062 167.531 50.9688C168.135 50.5104 168.833 50.1562 169.625 49.9062C170.417 49.6562 171.271 49.5312 172.188 49.5312C173.146 49.5312 174.031 49.6667 174.844 49.9375C175.656 50.2083 176.344 50.5833 176.906 51.0625C177.49 51.5208 177.938 52.0521 178.25 52.6562C178.583 53.2604 178.75 53.8958 178.75 54.5625ZM168.781 54.4062C168.781 54.8854 168.865 55.3333 169.031 55.75C169.219 56.1667 169.469 56.5417 169.781 56.875C170.094 57.1875 170.458 57.4375 170.875 57.625C171.292 57.8125 171.74 57.9062 172.219 57.9062C172.677 57.9062 173.115 57.8229 173.531 57.6562C173.948 57.4688 174.312 57.2188 174.625 56.9062C174.938 56.5938 175.188 56.2292 175.375 55.8125C175.562 55.375 175.656 54.9062 175.656 54.4062C175.656 53.9479 175.562 53.5104 175.375 53.0938C175.208 52.6562 174.969 52.2812 174.656 51.9688C174.344 51.6562 173.979 51.4062 173.562 51.2188C173.146 51.0312 172.698 50.9375 172.219 50.9375C171.26 50.9375 170.448 51.25 169.781 51.875C169.115 52.5 168.781 53.3438 168.781 54.4062ZM183.062 70.0312C181.625 69.9688 180.115 69.9688 178.531 70.0312C176.969 70.0938 175.365 70.1562 173.719 70.2188C173.677 70.4062 173.635 70.5833 173.594 70.75C173.573 70.9375 173.542 71.1042 173.5 71.25L171.469 71.5938C171.406 71.1771 171.344 70.6562 171.281 70.0312C171.219 69.4271 171.188 68.8333 171.188 68.25V63.5938C171.188 63.2604 171.156 62.9792 171.094 62.75C171.031 62.5 170.906 62.2917 170.719 62.125C170.552 61.9375 170.302 61.7812 169.969 61.6562C169.635 61.5312 169.198 61.4062 168.656 61.2812L169.188 60.2188C169.521 60.2604 169.906 60.3021 170.344 60.3438C170.781 60.3854 171.229 60.4479 171.688 60.5312C172.167 60.5938 172.635 60.6667 173.094 60.75C173.573 60.8333 174.01 60.9167 174.406 61C174.365 61.1875 174.312 61.4062 174.25 61.6562C174.208 61.8854 174.167 62.125 174.125 62.375C174.104 62.6042 174.083 62.8333 174.062 63.0625C174.042 63.2708 174.031 63.4375 174.031 63.5625C175.469 63.5208 176.938 63.4688 178.438 63.4062C179.938 63.3438 181.438 63.2396 182.938 63.0938V62.5938C182.938 62.2604 182.896 61.9896 182.812 61.7812C182.729 61.5521 182.583 61.3542 182.375 61.1875C182.167 61 181.875 60.8438 181.5 60.7188C181.146 60.5729 180.688 60.4271 180.125 60.2812L180.594 59.125C181.469 59.2292 182.417 59.3542 183.438 59.5C184.458 59.6458 185.365 59.8021 186.156 59.9688C186.115 60.1562 186.073 60.375 186.031 60.625C185.99 60.875 185.948 61.125 185.906 61.375C185.885 61.625 185.865 61.8542 185.844 62.0625C185.823 62.2708 185.812 62.4375 185.812 62.5625V66.5C185.812 67.4375 185.76 68.2812 185.656 69.0312C185.552 69.8021 185.448 70.4271 185.344 70.9062L183.219 71.2188C183.177 71.0521 183.146 70.8646 183.125 70.6562C183.125 70.4688 183.104 70.2604 183.062 70.0312ZM182.938 67.8438V65C181.5 64.9583 180.031 64.9479 178.531 64.9688C177.052 64.9896 175.552 65.0521 174.031 65.1562V66.9062C174.031 67.5104 174 68.0625 173.938 68.5625C175.375 68.5208 176.865 68.4688 178.406 68.4062C179.969 68.3646 181.479 68.2917 182.938 68.1875V67.8438ZM214.469 45.25C214.469 44.6042 214.156 44.0833 213.531 43.6875C212.927 43.2708 211.938 42.8958 210.562 42.5625L211.094 41.4062C211.594 41.4688 212.146 41.5521 212.75 41.6562C213.354 41.7396 213.958 41.8438 214.562 41.9688C215.167 42.0729 215.74 42.1771 216.281 42.2812C216.844 42.3854 217.333 42.4688 217.75 42.5312C217.708 42.7188 217.667 42.9479 217.625 43.2188C217.583 43.4896 217.542 43.7708 217.5 44.0625C217.479 44.3333 217.458 44.5833 217.438 44.8125C217.417 45.0417 217.406 45.2083 217.406 45.3125V62.625C217.406 63.2708 217.385 64.0208 217.344 64.875C217.323 65.7083 217.281 66.5521 217.219 67.4062C217.177 68.2396 217.125 69.0312 217.062 69.7812C217 70.5521 216.927 71.1667 216.844 71.625L214.75 71.9062C214.708 71.5729 214.667 71.125 214.625 70.5625C214.604 70 214.573 69.3958 214.531 68.75C214.51 68.125 214.49 67.4792 214.469 66.8125C214.469 66.125 214.469 65.4792 214.469 64.875V58.375C213.531 58.75 212.448 59.1354 211.219 59.5312C209.99 59.9062 208.74 60.2708 207.469 60.625C206.198 60.9792 204.948 61.3021 203.719 61.5938C202.49 61.8646 201.406 62.0729 200.469 62.2188C199.406 62.3854 198.635 62.2604 198.156 61.8438C197.677 61.4062 197.438 60.6875 197.438 59.6875V50.1562C197.438 49.8229 197.396 49.5521 197.312 49.3438C197.25 49.1146 197.104 48.9167 196.875 48.75C196.667 48.5833 196.354 48.4375 195.938 48.3125C195.521 48.1875 194.969 48.0625 194.281 47.9375L194.719 46.7812C195.781 46.8229 196.854 46.9167 197.938 47.0625C199.021 47.1875 199.958 47.3229 200.75 47.4688C200.708 47.6562 200.656 47.8854 200.594 48.1562C200.552 48.4271 200.51 48.6979 200.469 48.9688C200.448 49.2396 200.427 49.4896 200.406 49.7188C200.385 49.9479 200.375 50.1146 200.375 50.2188V59.0312C200.375 59.3854 200.438 59.6354 200.562 59.7812C200.688 59.9062 200.875 59.9583 201.125 59.9375C201.833 59.8958 202.75 59.7812 203.875 59.5938C205 59.4062 206.177 59.1771 207.406 58.9062C208.656 58.6146 209.896 58.3125 211.125 58C212.375 57.6667 213.49 57.3333 214.469 57V45.25ZM243.469 45.25C243.469 44.6042 243.167 44.0833 242.562 43.6875C241.979 43.2708 241 42.8958 239.625 42.5625L240.094 41.4062C240.615 41.4688 241.177 41.5521 241.781 41.6562C242.406 41.7396 243.021 41.8438 243.625 41.9688C244.229 42.0729 244.802 42.1771 245.344 42.2812C245.885 42.3854 246.354 42.4688 246.75 42.5312C246.708 42.7188 246.667 42.9479 246.625 43.2188C246.583 43.4896 246.542 43.7708 246.5 44.0625C246.479 44.3333 246.458 44.5833 246.438 44.8125C246.417 45.0417 246.406 45.2083 246.406 45.3125V53.9688C247.302 53.9062 248.333 53.8125 249.5 53.6875C250.667 53.5625 251.729 53.4167 252.688 53.25L252.344 55.7812C251.969 55.7604 251.531 55.75 251.031 55.75C250.531 55.75 250.01 55.75 249.469 55.75C248.948 55.75 248.417 55.75 247.875 55.75C247.333 55.75 246.844 55.75 246.406 55.75V62.625C246.406 63.2708 246.396 64.0208 246.375 64.875C246.354 65.7083 246.323 66.5521 246.281 67.4062C246.24 68.2396 246.188 69.0312 246.125 69.7812C246.062 70.5521 245.99 71.1667 245.906 71.625L243.75 71.9062C243.708 71.5729 243.667 71.125 243.625 70.5625C243.604 70 243.573 69.3958 243.531 68.75C243.51 68.125 243.49 67.4792 243.469 66.8125C243.469 66.125 243.469 65.4792 243.469 64.875V58.9062C242.51 59.2812 241.427 59.6667 240.219 60.0625C239.031 60.4583 237.812 60.8333 236.562 61.1875C235.312 61.5417 234.094 61.8646 232.906 62.1562C231.719 62.4271 230.656 62.625 229.719 62.75C228.635 62.9167 227.854 62.7917 227.375 62.375C226.917 61.9375 226.688 61.2188 226.688 60.2188V51.125C226.688 50.75 226.656 50.4271 226.594 50.1562C226.531 49.8646 226.396 49.625 226.188 49.4375C226 49.2292 225.719 49.0521 225.344 48.9062C224.99 48.7396 224.521 48.5729 223.938 48.4062L224.406 47.25C225.594 47.4375 226.854 47.5625 228.188 47.625C229.542 47.6667 230.896 47.6667 232.25 47.625C233.604 47.5625 234.917 47.4688 236.188 47.3438C237.479 47.1979 238.656 47.0312 239.719 46.8438L239.25 49.25C237.292 49.1667 235.5 49.1458 233.875 49.1875C232.271 49.2292 230.854 49.3021 229.625 49.4062V59.5938C229.625 59.9479 229.688 60.1875 229.812 60.3125C229.958 60.4375 230.146 60.4896 230.375 60.4688C231.083 60.4271 231.979 60.3125 233.062 60.125C234.167 59.9167 235.323 59.6771 236.531 59.4062C237.76 59.1354 238.979 58.8438 240.188 58.5312C241.417 58.1979 242.51 57.875 243.469 57.5625V45.25ZM256.969 64.9688C257.573 64.9688 258.083 65.1771 258.5 65.5938C258.938 66.0104 259.156 66.5208 259.156 67.125C259.156 67.7292 258.938 68.2396 258.5 68.6562C258.083 69.0938 257.573 69.3125 256.969 69.3125C256.365 69.3125 255.844 69.0938 255.406 68.6562C254.99 68.2396 254.781 67.7292 254.781 67.125C254.781 66.5208 254.99 66.0104 255.406 65.5938C255.844 65.1771 256.365 64.9688 256.969 64.9688Z" fill="#2C743F"/>
<path d="M19.32 129.64C19.32 129.864 19.208 129.976 18.984 129.976H18C17.776 129.976 17.664 129.864 17.664 129.64V117.568C17.664 117.344 17.776 117.232 18 117.232H18.984C19.208 117.232 19.32 117.344 19.32 117.568V129.64ZM5.616 132.928C5.616 132.256 5.744 131.808 6 131.584C6.256 131.344 6.736 131.224 7.44 131.224H17.496C17.88 131.224 18.184 131.248 18.408 131.296C18.648 131.344 18.832 131.432 18.96 131.56C19.104 131.688 19.2 131.864 19.248 132.088C19.296 132.312 19.32 132.592 19.32 132.928V137.464C19.32 138.136 19.192 138.584 18.936 138.808C18.68 139.048 18.2 139.168 17.496 139.168H7.44C7.056 139.168 6.744 139.144 6.504 139.096C6.28 139.048 6.096 138.952 5.952 138.808C5.824 138.68 5.736 138.504 5.688 138.28C5.64 138.072 5.616 137.8 5.616 137.464V132.928ZM7.848 132.664C7.624 132.664 7.472 132.712 7.392 132.808C7.312 132.888 7.272 133.048 7.272 133.288V137.104C7.272 137.344 7.312 137.504 7.392 137.584C7.472 137.68 7.624 137.728 7.848 137.728H17.088C17.312 137.728 17.464 137.68 17.544 137.584C17.624 137.504 17.664 137.344 17.664 137.104V133.288C17.664 133.048 17.624 132.888 17.544 132.808C17.464 132.712 17.312 132.664 17.088 132.664H7.848ZM12.864 119.968C12.496 122.192 11.528 124.152 9.96 125.848C8.392 127.544 6.12 129.016 3.144 130.264C2.872 130.376 2.696 130.328 2.616 130.12L2.256 129.328C2.192 129.2 2.184 129.096 2.232 129.016C2.296 128.936 2.368 128.88 2.448 128.848C4.992 127.792 6.984 126.544 8.424 125.104C9.88 123.648 10.76 122.08 11.064 120.4C11.16 119.936 10.968 119.704 10.488 119.704H3.096C2.904 119.704 2.808 119.6 2.808 119.392V118.552C2.808 118.36 2.904 118.264 3.096 118.264H11.04C11.808 118.264 12.328 118.4 12.6 118.672C12.872 118.944 12.96 119.376 12.864 119.968ZM35.6503 127.864C35.6503 128.44 35.5223 128.984 35.2663 129.496C35.0103 130.008 34.6583 130.456 34.2103 130.84C33.7783 131.224 33.2583 131.528 32.6503 131.752C32.0423 131.96 31.3863 132.064 30.6823 132.064C29.9783 132.064 29.3223 131.96 28.7143 131.752C28.1063 131.528 27.5783 131.224 27.1303 130.84C26.6983 130.456 26.3543 130.008 26.0983 129.496C25.8583 128.984 25.7383 128.44 25.7383 127.864C25.7383 127.288 25.8583 126.752 26.0983 126.256C26.3543 125.744 26.6983 125.304 27.1303 124.936C27.5783 124.552 28.1063 124.256 28.7143 124.048C29.3223 123.824 29.9783 123.712 30.6823 123.712C31.3863 123.712 32.0423 123.824 32.6503 124.048C33.2583 124.256 33.7783 124.552 34.2103 124.936C34.6583 125.304 35.0103 125.744 35.2663 126.256C35.5223 126.752 35.6503 127.288 35.6503 127.864ZM41.0503 133.96C41.0503 134.184 40.9383 134.296 40.7143 134.296H39.7303C39.5063 134.296 39.3943 134.184 39.3943 133.96V117.568C39.3943 117.344 39.5063 117.232 39.7303 117.232H40.7143C40.9383 117.232 41.0503 117.344 41.0503 117.568V125.512H44.3623C44.4583 125.512 44.5383 125.544 44.6023 125.608C44.6823 125.656 44.7223 125.728 44.7223 125.824V126.64C44.7223 126.72 44.6823 126.792 44.6023 126.856C44.5383 126.92 44.4583 126.952 44.3623 126.952H41.0503V133.96ZM34.0183 127.864C34.0183 127.48 33.9303 127.128 33.7543 126.808C33.5943 126.472 33.3623 126.184 33.0583 125.944C32.7703 125.704 32.4183 125.52 32.0023 125.392C31.6023 125.248 31.1623 125.176 30.6823 125.176C30.2023 125.176 29.7623 125.248 29.3623 125.392C28.9623 125.52 28.6103 125.704 28.3063 125.944C28.0023 126.184 27.7623 126.472 27.5863 126.808C27.4263 127.128 27.3463 127.48 27.3463 127.864C27.3463 128.248 27.4263 128.608 27.5863 128.944C27.7623 129.28 28.0023 129.568 28.3063 129.808C28.6103 130.048 28.9623 130.24 29.3623 130.384C29.7623 130.528 30.2023 130.6 30.6823 130.6C31.1623 130.6 31.6023 130.528 32.0023 130.384C32.4183 130.24 32.7703 130.048 33.0583 129.808C33.3623 129.568 33.5943 129.28 33.7543 128.944C33.9303 128.608 34.0183 128.248 34.0183 127.864ZM42.1303 138.712C42.1303 138.808 42.0903 138.88 42.0103 138.928C41.9303 138.976 41.8503 139 41.7703 139H29.3863C28.6343 139 28.1383 138.856 27.8983 138.568C27.6743 138.296 27.5623 137.832 27.5623 137.176V133.864C27.5623 133.64 27.6743 133.528 27.8983 133.528H28.8823C29.1063 133.528 29.2183 133.64 29.2183 133.864V137.08C29.2183 137.304 29.2503 137.44 29.3143 137.488C29.3943 137.536 29.5463 137.56 29.7703 137.56H41.7703C41.8503 137.56 41.9303 137.584 42.0103 137.632C42.0903 137.696 42.1303 137.768 42.1303 137.848V138.712ZM37.6663 122.248C37.6663 122.456 37.5463 122.56 37.3063 122.56H24.0583C23.9783 122.56 23.8983 122.528 23.8183 122.464C23.7543 122.4 23.7223 122.32 23.7223 122.224V121.456C23.7223 121.36 23.7543 121.28 23.8183 121.216C23.8983 121.152 23.9783 121.12 24.0583 121.12H37.3063C37.5463 121.12 37.6663 121.224 37.6663 121.432V122.248ZM34.1623 118.984C34.1623 119.192 34.0423 119.296 33.8023 119.296H27.2263C27.1463 119.296 27.0663 119.272 26.9863 119.224C26.9223 119.176 26.8903 119.104 26.8903 119.008V118.168C26.8903 118.072 26.9223 117.992 26.9863 117.928C27.0503 117.864 27.1223 117.832 27.2023 117.832H33.8023C34.0423 117.832 34.1623 117.944 34.1623 118.168V118.984ZM58.3166 127.336C58.3166 127.88 58.2046 128.376 57.9806 128.824C57.7726 129.272 57.4766 129.664 57.0926 130C56.7086 130.336 56.2446 130.616 55.7006 130.84C55.1726 131.048 54.5886 131.184 53.9486 131.248V133.744C54.4926 133.712 55.0606 133.672 55.6526 133.624C56.2446 133.56 56.8206 133.496 57.3806 133.432C57.9566 133.352 58.5086 133.272 59.0366 133.192C59.5646 133.112 60.0446 133.032 60.4766 132.952C60.7326 132.904 60.8686 132.96 60.8846 133.12L61.0286 134.032C61.0606 134.224 60.9566 134.336 60.7166 134.368C59.6446 134.544 58.4686 134.704 57.1886 134.848C55.9086 134.992 54.6206 135.104 53.3246 135.184C52.8606 135.216 52.3166 135.24 51.6926 135.256C51.0686 135.272 50.4286 135.288 49.7726 135.304C49.1326 135.304 48.5006 135.304 47.8766 135.304C47.2686 135.304 46.7406 135.296 46.2926 135.28C46.1966 135.28 46.1086 135.248 46.0286 135.184C45.9646 135.12 45.9326 135.048 45.9326 134.968V134.152C45.9326 134.056 45.9646 133.984 46.0286 133.936C46.1086 133.872 46.1966 133.84 46.2926 133.84C46.6446 133.856 47.0606 133.872 47.5406 133.888C48.0366 133.888 48.5486 133.888 49.0766 133.888C49.6206 133.872 50.1646 133.864 50.7086 133.864C51.2686 133.848 51.7966 133.832 52.2926 133.816V131.272C51.6366 131.208 51.0366 131.072 50.4926 130.864C49.9646 130.64 49.5086 130.36 49.1246 130.024C48.7406 129.672 48.4366 129.272 48.2126 128.824C48.0046 128.36 47.9006 127.864 47.9006 127.336C47.9006 126.744 48.0286 126.208 48.2846 125.728C48.5566 125.232 48.9246 124.816 49.3886 124.48C49.8526 124.128 50.3966 123.864 51.0206 123.688C51.6606 123.496 52.3566 123.4 53.1086 123.4C53.8446 123.4 54.5326 123.496 55.1726 123.688C55.8126 123.88 56.3646 124.152 56.8286 124.504C57.2926 124.84 57.6526 125.248 57.9086 125.728C58.1806 126.208 58.3166 126.744 58.3166 127.336ZM63.6206 139.024C63.6206 139.248 63.5086 139.36 63.2846 139.36H62.3006C62.0766 139.36 61.9646 139.248 61.9646 139.024V117.568C61.9646 117.344 62.0766 117.232 62.3006 117.232H63.2846C63.5086 117.232 63.6206 117.344 63.6206 117.568V126.952H66.9326C67.0286 126.952 67.1086 126.984 67.1726 127.048C67.2526 127.096 67.2926 127.168 67.2926 127.264V128.08C67.2926 128.16 67.2526 128.232 67.1726 128.296C67.1086 128.36 67.0286 128.392 66.9326 128.392H63.6206V139.024ZM56.6846 127.336C56.6846 126.52 56.3486 125.896 55.6766 125.464C55.0046 125.032 54.1486 124.816 53.1086 124.816C52.5966 124.816 52.1166 124.872 51.6686 124.984C51.2366 125.096 50.8606 125.256 50.5406 125.464C50.2206 125.672 49.9646 125.936 49.7726 126.256C49.5966 126.576 49.5086 126.936 49.5086 127.336C49.5086 127.736 49.5966 128.096 49.7726 128.416C49.9646 128.72 50.2206 128.984 50.5406 129.208C50.8606 129.416 51.2366 129.584 51.6686 129.712C52.1166 129.824 52.5966 129.88 53.1086 129.88C54.1486 129.88 55.0046 129.656 55.6766 129.208C56.3486 128.76 56.6846 128.136 56.6846 127.336ZM59.8526 121.84C59.8526 122.048 59.7326 122.152 59.4926 122.152H46.7246C46.6446 122.152 46.5646 122.12 46.4846 122.056C46.4206 121.992 46.3886 121.912 46.3886 121.816V121.024C46.3886 120.928 46.4206 120.848 46.4846 120.784C46.5646 120.72 46.6446 120.688 46.7246 120.688H59.4926C59.7326 120.688 59.8526 120.792 59.8526 121V121.84ZM56.4686 118.816C56.4686 119.04 56.3486 119.152 56.1086 119.152H49.7726C49.6926 119.152 49.6126 119.128 49.5326 119.08C49.4686 119.016 49.4366 118.936 49.4366 118.84V118.024C49.4366 117.928 49.4686 117.848 49.5326 117.784C49.5966 117.72 49.6686 117.688 49.7486 117.688H56.1086C56.3486 117.688 56.4686 117.8 56.4686 118.024V118.816Z" fill="black"/>
</svg>
