<svg width="342" height="141" viewBox="0 0 342 141" fill="none" xmlns="http://www.w3.org/2000/svg">
<path d="M11.9688 9.14258C13.4271 9.35091 14.6562 9.86133 15.6562 10.6738C16.6771 11.4655 17.3333 12.4447 17.625 13.6113C18.0417 13.653 18.4688 13.6947 18.9062 13.7363C19.3438 13.7572 19.7396 13.7572 20.0938 13.7363C20.4896 13.7155 20.9479 13.7051 21.4688 13.7051C22.0104 13.6842 22.5104 13.6634 22.9688 13.6426V7.92383C22.9688 7.27799 22.6562 6.75716 22.0312 6.36133C21.4271 5.94466 20.4375 5.56966 19.0625 5.23633L19.625 4.08008C20.125 4.14258 20.6771 4.22591 21.2812 4.33008C21.8854 4.41341 22.4896 4.51758 23.0938 4.64258C23.6979 4.74674 24.2708 4.85091 24.8125 4.95508C25.375 5.05924 25.8646 5.14258 26.2812 5.20508C26.2396 5.39258 26.1979 5.62174 26.1562 5.89258C26.1146 6.16341 26.0729 6.44466 26.0312 6.73633C25.9896 7.00716 25.9583 7.25716 25.9375 7.48633C25.9167 7.71549 25.9062 7.88216 25.9062 7.98633V20.7988C25.9062 21.278 25.8854 21.7884 25.8438 22.3301C25.8229 22.8717 25.7917 23.4238 25.75 23.9863C25.7083 24.528 25.6458 25.0488 25.5625 25.5488C25.5 26.028 25.4375 26.4447 25.375 26.7988L23.2188 27.1426C23.1771 26.8926 23.1458 26.5488 23.125 26.1113C23.1042 25.6738 23.0729 25.2051 23.0312 24.7051C23.0104 24.1842 22.9896 23.6738 22.9688 23.1738C22.9688 22.653 22.9688 22.2051 22.9688 21.8301V15.1426C22.0938 15.1842 21.1771 15.2572 20.2188 15.3613C19.2812 15.4655 18.4479 15.5905 17.7188 15.7363C17.6146 16.4655 17.3646 17.1426 16.9688 17.7676C16.5729 18.3717 16.0625 18.903 15.4375 19.3613C14.8125 19.8197 14.0833 20.1738 13.25 20.4238C12.4375 20.6738 11.5521 20.7988 10.5938 20.7988C9.55208 20.7988 8.58333 20.653 7.6875 20.3613C6.8125 20.0488 6.05208 19.6322 5.40625 19.1113C4.76042 18.5905 4.26042 17.9759 3.90625 17.2676C3.55208 16.5384 3.375 15.7572 3.375 14.9238C3.375 14.153 3.53125 13.4342 3.84375 12.7676C4.15625 12.0801 4.58333 11.4863 5.125 10.9863C5.6875 10.4655 6.35417 10.0384 7.125 9.70508C7.89583 9.37174 8.73958 9.16341 9.65625 9.08008C9.61458 8.80924 9.5 8.60091 9.3125 8.45508C9.125 8.28841 8.79167 8.13216 8.3125 7.98633L8.84375 7.08008C9.07292 7.12174 9.34375 7.17383 9.65625 7.23633C9.96875 7.29883 10.2812 7.37174 10.5938 7.45508C10.9271 7.51758 11.25 7.58008 11.5625 7.64258C11.875 7.70508 12.1562 7.76758 12.4062 7.83008C12.3438 7.99674 12.2708 8.18424 12.1875 8.39258C12.1042 8.60091 12.0312 8.85091 11.9688 9.14258ZM14.75 14.7676C14.75 14.1634 14.6354 13.6009 14.4062 13.0801C14.1979 12.5592 13.9062 12.1113 13.5312 11.7363C13.1562 11.3405 12.7188 11.0384 12.2188 10.8301C11.7188 10.6009 11.1875 10.4863 10.625 10.4863C10.0417 10.4863 9.48958 10.6009 8.96875 10.8301C8.46875 11.0384 8.03125 11.3405 7.65625 11.7363C7.28125 12.1113 6.97917 12.5592 6.75 13.0801C6.54167 13.6009 6.4375 14.1634 6.4375 14.7676C6.4375 15.3926 6.54167 15.9655 6.75 16.4863C6.97917 17.0072 7.28125 17.4551 7.65625 17.8301C8.03125 18.2051 8.46875 18.4967 8.96875 18.7051C9.48958 18.9134 10.0417 19.0176 10.625 19.0176C11.2083 19.0176 11.75 18.9134 12.25 18.7051C12.75 18.4967 13.1875 18.2051 13.5625 17.8301C13.9375 17.4551 14.2292 17.0072 14.4375 16.4863C14.6458 15.9655 14.75 15.3926 14.75 14.7676ZM27.5938 33.1113C26.3229 33.0905 25.0312 33.0801 23.7188 33.0801C22.4062 33.0801 21.1146 33.0905 19.8438 33.1113C18.5938 33.1322 17.3958 33.1634 16.25 33.2051C15.125 33.2467 14.0938 33.2988 13.1562 33.3613C12.4062 33.403 11.875 33.2572 11.5625 32.9238C11.25 32.5905 11.0938 32.1947 11.0938 31.7363V27.8613C11.0938 27.403 11.0729 27.0384 11.0312 26.7676C10.9896 26.4759 10.875 26.2363 10.6875 26.0488C10.5 25.8613 10.2188 25.7051 9.84375 25.5801C9.46875 25.4551 8.95833 25.3092 8.3125 25.1426L8.875 23.9863C9.1875 24.028 9.58333 24.0801 10.0625 24.1426C10.5417 24.2051 11.0312 24.2676 11.5312 24.3301C12.0521 24.3926 12.5521 24.4551 13.0312 24.5176C13.5312 24.5801 13.9375 24.6426 14.25 24.7051C14.2083 24.9551 14.1667 25.3301 14.125 25.8301C14.0833 26.3301 14.0625 26.7572 14.0625 27.1113V30.7363C14.0625 31.1322 14.125 31.3717 14.25 31.4551C14.375 31.5592 14.6458 31.6217 15.0625 31.6426C15.8542 31.6634 16.8021 31.6426 17.9062 31.5801C19.0104 31.5384 20.1562 31.4655 21.3438 31.3613C22.5521 31.278 23.7396 31.1738 24.9062 31.0488C26.0729 30.9238 27.1042 30.7988 28 30.6738L27.5938 33.1113ZM40.5012 18.1426C40.9804 18.6426 41.4908 19.1738 42.0325 19.7363C42.595 20.278 43.1575 20.8092 43.72 21.3301C44.2825 21.8509 44.8242 22.3405 45.345 22.7988C45.8867 23.2363 46.3658 23.6009 46.7825 23.8926L44.5637 25.8613C43.8346 24.8613 43.0325 23.8092 42.1575 22.7051C41.2825 21.5801 40.4075 20.4967 39.5325 19.4551C38.4075 20.9342 37.1679 22.2988 35.8137 23.5488C34.4596 24.7988 33.0012 25.9759 31.4387 27.0801L30.5637 26.2051C31.8137 25.2259 32.97 24.1634 34.0325 23.0176C35.095 21.8509 36.0429 20.6426 36.8762 19.3926C37.7096 18.1426 38.4283 16.8717 39.0325 15.5801C39.6367 14.2884 40.1054 13.0176 40.4387 11.7676C39.8762 11.7884 39.3346 11.8092 38.8137 11.8301C38.3137 11.8301 37.7825 11.8509 37.22 11.8926C36.9908 11.9134 36.6887 11.9447 36.3137 11.9863C35.9596 12.028 35.5846 12.0801 35.1887 12.1426C34.7929 12.1842 34.3867 12.2363 33.97 12.2988C33.5742 12.3405 33.22 12.3926 32.9075 12.4551L31.345 9.89258C31.6367 9.95508 31.97 10.0176 32.345 10.0801C32.72 10.1217 33.1054 10.1634 33.5012 10.2051C33.9179 10.2467 34.3242 10.2884 34.72 10.3301C35.1367 10.3509 35.5221 10.3613 35.8762 10.3613C36.6262 10.3613 37.3242 10.3509 37.97 10.3301C38.6158 10.3092 39.2304 10.2676 39.8137 10.2051C40.4179 10.1426 41.0012 10.0592 41.5637 9.95508C42.1262 9.85091 42.7096 9.72591 43.3137 9.58008L44.22 10.5176C43.3658 13.2884 42.1262 15.8301 40.5012 18.1426ZM47.5637 18.2988C46.8346 18.3405 46.0742 18.4134 45.2825 18.5176C44.4908 18.6217 43.845 18.7363 43.345 18.8613L42.1262 16.5488C42.7721 16.6738 43.3762 16.7572 43.9387 16.7988C44.5221 16.8405 45.0742 16.8509 45.595 16.8301C45.9492 16.8092 46.2825 16.7988 46.595 16.7988C46.9283 16.7988 47.2512 16.7884 47.5637 16.7676V9.17383C47.5637 8.86133 47.5117 8.58008 47.4075 8.33008C47.3242 8.08008 47.1575 7.85091 46.9075 7.64258C46.6783 7.43424 46.3554 7.24674 45.9387 7.08008C45.5221 6.91341 45.0012 6.74674 44.3762 6.58008L44.9387 5.45508C45.9387 5.58008 46.9596 5.74674 48.0012 5.95508C49.0429 6.14258 49.9596 6.34049 50.7512 6.54883C50.7096 6.73633 50.6679 6.96549 50.6262 7.23633C50.5846 7.50716 50.5429 7.77799 50.5012 8.04883C50.4804 8.31966 50.4596 8.56966 50.4387 8.79883C50.4179 9.02799 50.4075 9.19466 50.4075 9.29883V24.1738C50.4075 24.8197 50.3867 25.5592 50.345 26.3926C50.3242 27.2051 50.2825 28.028 50.22 28.8613C50.1783 29.6947 50.1262 30.4967 50.0637 31.2676C50.0012 32.0384 49.9387 32.6842 49.8762 33.2051L47.8137 33.4551C47.7721 33.0592 47.7408 32.5801 47.72 32.0176C47.6992 31.4759 47.6679 30.8926 47.6262 30.2676C47.6054 29.6426 47.5846 29.0072 47.5637 28.3613C47.5637 27.6947 47.5637 27.0592 47.5637 26.4551V18.2988ZM50.095 4.08008C50.595 4.14258 51.1262 4.22591 51.6887 4.33008C52.2512 4.43424 52.8033 4.53841 53.345 4.64258C53.9075 4.74674 54.4387 4.85091 54.9387 4.95508C55.4387 5.05924 55.8867 5.15299 56.2825 5.23633C56.2408 5.42383 56.1992 5.65299 56.1575 5.92383C56.1367 6.19466 56.1158 6.46549 56.095 6.73633C56.0742 7.00716 56.0533 7.25716 56.0325 7.48633C56.0117 7.71549 56.0012 7.88216 56.0012 7.98633V25.2988C56.0012 25.9447 55.9804 26.6842 55.9387 27.5176C55.9179 28.3301 55.8762 29.153 55.8137 29.9863C55.7721 30.8197 55.72 31.6113 55.6575 32.3613C55.595 33.1322 55.5221 33.778 55.4387 34.2988L53.3137 34.5801C53.2721 34.1842 53.2408 33.7051 53.22 33.1426C53.1992 32.6009 53.1679 32.0072 53.1262 31.3613C53.1054 30.7363 53.0846 30.1009 53.0637 29.4551C53.0637 28.7884 53.0637 28.153 53.0637 27.5488V7.92383C53.0637 7.27799 52.8137 6.75716 52.3137 6.36133C51.8346 5.94466 50.9283 5.56966 49.595 5.23633L50.095 4.08008ZM79.3462 7.92383C79.3462 7.27799 79.0442 6.75716 78.44 6.36133C77.8567 5.94466 76.8775 5.56966 75.5025 5.23633L75.9712 4.08008C76.4921 4.14258 77.0546 4.22591 77.6587 4.33008C78.2837 4.41341 78.8983 4.51758 79.5025 4.64258C80.1067 4.74674 80.6796 4.85091 81.2212 4.95508C81.7629 5.05924 82.2317 5.14258 82.6275 5.20508C82.5858 5.39258 82.5442 5.62174 82.5025 5.89258C82.4608 6.16341 82.4192 6.44466 82.3775 6.73633C82.3567 7.00716 82.3358 7.25716 82.315 7.48633C82.2942 7.71549 82.2837 7.88216 82.2837 7.98633V16.7363C83.1796 16.653 84.2004 16.5488 85.3462 16.4238C86.5129 16.2988 87.5754 16.153 88.5337 15.9863L88.19 18.5176C87.815 18.4967 87.3775 18.4863 86.8775 18.4863C86.3983 18.4863 85.8879 18.4863 85.3462 18.4863C84.8254 18.4863 84.2942 18.4863 83.7525 18.4863C83.2108 18.4863 82.7212 18.4863 82.2837 18.4863V25.2988C82.2837 25.9447 82.2733 26.6947 82.2525 27.5488C82.2317 28.3822 82.2004 29.2259 82.1587 30.0801C82.1171 30.9134 82.065 31.7051 82.0025 32.4551C81.94 33.2259 81.8671 33.8405 81.7837 34.2988L79.6275 34.5801C79.5858 34.2467 79.5442 33.7988 79.5025 33.2363C79.4817 32.6738 79.4504 32.0697 79.4087 31.4238C79.3879 30.7988 79.3671 30.153 79.3462 29.4863C79.3462 28.7988 79.3462 28.153 79.3462 27.5488V21.0488C78.4087 21.4238 77.3567 21.8092 76.19 22.2051C75.0442 22.5801 73.8567 22.9447 72.6275 23.2988C71.4192 23.653 70.2212 23.9759 69.0337 24.2676C67.8671 24.5384 66.8046 24.7467 65.8462 24.8926C64.7421 25.0592 63.9504 24.9342 63.4712 24.5176C63.0129 24.0801 62.7837 23.3613 62.7837 22.3613V12.8301C62.7837 12.4967 62.7421 12.2259 62.6587 12.0176C62.5962 11.7884 62.4504 11.5905 62.2212 11.4238C61.9921 11.2572 61.6692 11.1113 61.2525 10.9863C60.8567 10.8613 60.315 10.7363 59.6275 10.6113L60.0337 9.45508C61.0754 9.49674 62.1379 9.59049 63.2212 9.73633C64.3254 9.86133 65.2837 9.99674 66.0962 10.1426C66.0546 10.3301 66.0129 10.5592 65.9712 10.8301C65.9296 11.1009 65.8879 11.3717 65.8462 11.6426C65.8254 11.9134 65.8046 12.1634 65.7837 12.3926C65.7629 12.6217 65.7525 12.7884 65.7525 12.8926V21.7051C65.7525 22.0592 65.8046 22.3092 65.9087 22.4551C66.0337 22.5801 66.2004 22.6322 66.4087 22.6113C67.1171 22.5697 68.0025 22.4551 69.065 22.2676C70.1483 22.0801 71.2942 21.8509 72.5025 21.5801C73.7108 21.3092 74.9087 21.0072 76.0962 20.6738C77.3046 20.3405 78.3879 20.0176 79.3462 19.7051V7.92383ZM112.942 17.5801C113.172 17.5384 113.39 17.5176 113.599 17.5176C113.807 17.4967 113.995 17.4759 114.161 17.4551L113.599 19.6738C112.099 19.5697 110.453 19.528 108.661 19.5488C106.89 19.5488 105.172 19.5801 103.505 19.6426C103.463 19.9967 103.401 20.3926 103.317 20.8301L101.286 21.1426C101.182 20.7259 101.078 20.2155 100.974 19.6113C100.87 19.0072 100.797 18.4342 100.755 17.8926L100.286 11.2988C100.245 10.9238 100.192 10.6217 100.13 10.3926C100.067 10.1634 99.9529 9.97591 99.7862 9.83008C99.6196 9.68424 99.3904 9.55924 99.0987 9.45508C98.8071 9.35091 98.4321 9.23633 97.9737 9.11133L98.505 7.98633C99.8592 8.15299 101.172 8.26758 102.442 8.33008C103.734 8.37174 105.005 8.38216 106.255 8.36133C107.526 8.34049 108.807 8.28841 110.099 8.20508C111.39 8.12174 112.734 8.02799 114.13 7.92383C114.047 8.46549 113.953 9.15299 113.849 9.98633C113.745 10.7988 113.63 11.6634 113.505 12.5801C113.401 13.4759 113.297 14.3717 113.192 15.2676C113.088 16.1426 113.005 16.9134 112.942 17.5801ZM110.661 9.89258C109.349 9.83008 108.067 9.81966 106.817 9.86133C105.588 9.90299 104.411 9.97591 103.286 10.0801L103.536 17.3301C103.536 17.4342 103.536 17.5488 103.536 17.6738C103.557 17.778 103.557 17.9134 103.536 18.0801C104.661 18.0592 105.797 18.0176 106.942 17.9551C108.109 17.8926 109.234 17.8405 110.317 17.7988L110.661 9.89258ZM103.849 22.9863C105.182 23.2155 106.692 23.3613 108.38 23.4238C110.067 23.4863 111.755 23.4967 113.442 23.4551C115.13 23.4134 116.713 23.3301 118.192 23.2051C119.672 23.0592 120.88 22.9134 121.817 22.7676L121.317 25.2051C120.047 25.1426 118.859 25.1009 117.755 25.0801C116.672 25.0384 115.64 25.028 114.661 25.0488C113.682 25.0488 112.734 25.0697 111.817 25.1113C110.901 25.1322 109.974 25.1738 109.036 25.2363V30.7051C109.036 31.1217 109.099 31.3717 109.224 31.4551C109.349 31.5592 109.651 31.6217 110.13 31.6426C110.901 31.6634 111.817 31.653 112.88 31.6113C113.942 31.5905 115.047 31.5384 116.192 31.4551C117.338 31.3926 118.463 31.3092 119.567 31.2051C120.692 31.1009 121.703 30.9759 122.599 30.8301L122.13 33.2988C119.526 33.153 117.026 33.1009 114.63 33.1426C112.255 33.1842 110.13 33.2572 108.255 33.3613C107.526 33.403 106.984 33.2155 106.63 32.7988C106.276 32.403 106.099 31.9238 106.099 31.3613V26.8301C106.099 26.3926 106.067 26.0384 106.005 25.7676C105.942 25.4967 105.817 25.2676 105.63 25.0801C105.442 24.8717 105.172 24.6947 104.817 24.5488C104.463 24.403 103.984 24.2467 103.38 24.0801L103.849 22.9863ZM115.286 4.08008C115.786 4.14258 116.338 4.22591 116.942 4.33008C117.547 4.41341 118.151 4.51758 118.755 4.64258C119.359 4.74674 119.932 4.85091 120.474 4.95508C121.036 5.05924 121.526 5.14258 121.942 5.20508C121.901 5.39258 121.859 5.62174 121.817 5.89258C121.776 6.16341 121.734 6.44466 121.692 6.73633C121.651 7.00716 121.62 7.25716 121.599 7.48633C121.578 7.71549 121.567 7.88216 121.567 7.98633V16.6426C121.567 17.0176 121.547 17.4551 121.505 17.9551C121.484 18.4551 121.442 18.9551 121.38 19.4551C121.338 19.9551 121.286 20.4342 121.224 20.8926C121.161 21.3301 121.099 21.6738 121.036 21.9238L118.88 22.2676C118.838 22.0384 118.807 21.7572 118.786 21.4238C118.765 21.0905 118.734 20.7467 118.692 20.3926C118.672 20.0384 118.651 19.6842 118.63 19.3301C118.63 18.9551 118.63 18.6217 118.63 18.3301V7.92383C118.63 7.27799 118.317 6.75716 117.692 6.36133C117.088 5.94466 116.099 5.56966 114.724 5.23633L115.286 4.08008ZM140.225 27.5176C141.475 27.4759 142.642 27.4342 143.725 27.3926C144.829 27.3509 145.715 27.3092 146.381 27.2676C147.777 27.2051 149.194 27.1113 150.631 26.9863C152.09 26.8613 153.381 26.7155 154.506 26.5488L154.131 29.1113C153.298 29.0697 152.215 29.0384 150.881 29.0176C149.548 28.9967 148.183 28.9759 146.787 28.9551C146.204 28.9551 145.496 28.9655 144.662 28.9863C143.829 28.9863 142.923 29.0072 141.944 29.0488C140.985 29.0697 139.996 29.1009 138.975 29.1426C137.975 29.1634 137.017 29.1947 136.1 29.2363C135.183 29.2572 134.35 29.2884 133.6 29.3301C132.871 29.3717 132.298 29.403 131.881 29.4238C131.09 29.4655 130.246 29.528 129.35 29.6113C128.454 29.6738 127.621 29.7572 126.85 29.8613L125.85 27.1113C126.787 27.2363 127.777 27.3405 128.819 27.4238C129.881 27.4863 130.892 27.5384 131.85 27.5801C132.454 27.6217 133.235 27.6426 134.194 27.6426C135.173 27.6217 136.225 27.6009 137.35 27.5801V19.4863C137.35 19.153 137.308 18.8717 137.225 18.6426C137.162 18.3926 137.027 18.1842 136.819 18.0176C136.61 17.8509 136.329 17.7051 135.975 17.5801C135.621 17.4342 135.152 17.3092 134.569 17.2051L135.1 16.0801C135.433 16.1217 135.829 16.1634 136.287 16.2051C136.767 16.2467 137.256 16.3092 137.756 16.3926C138.256 16.4551 138.746 16.528 139.225 16.6113C139.725 16.6947 140.173 16.778 140.569 16.8613C140.485 17.2363 140.402 17.6947 140.319 18.2363C140.256 18.778 140.225 19.1738 140.225 19.4238V27.5176ZM145.256 23.1738C145.485 22.1738 145.704 21.0697 145.912 19.8613C146.121 18.6322 146.298 17.4134 146.444 16.2051C146.61 14.9759 146.746 13.7988 146.85 12.6738C146.954 11.528 147.027 10.528 147.069 9.67383C146.277 9.67383 145.381 9.68424 144.381 9.70508C143.402 9.70508 142.412 9.72591 141.412 9.76758C140.412 9.78841 139.454 9.81966 138.537 9.86133C137.621 9.88216 136.85 9.91341 136.225 9.95508C135.912 9.97591 135.527 10.0072 135.069 10.0488C134.631 10.0905 134.162 10.1322 133.662 10.1738C133.162 10.2155 132.652 10.278 132.131 10.3613C131.631 10.4238 131.173 10.4967 130.756 10.5801L129.412 8.01758C129.808 8.05924 130.246 8.10091 130.725 8.14258C131.204 8.18424 131.673 8.22591 132.131 8.26758C132.61 8.28841 133.069 8.30924 133.506 8.33008C133.944 8.35091 134.329 8.36133 134.662 8.36133C135.787 8.36133 137.037 8.35091 138.412 8.33008C139.787 8.28841 141.173 8.23633 142.569 8.17383C143.965 8.11133 145.308 8.03841 146.6 7.95508C147.892 7.85091 149.006 7.72591 149.944 7.58008L150.756 8.36133C150.569 9.59049 150.36 10.8613 150.131 12.1738C149.923 13.4863 149.673 14.7884 149.381 16.0801C149.11 17.3509 148.808 18.6009 148.475 19.8301C148.142 21.0384 147.777 22.153 147.381 23.1738H145.256ZM178.071 16.9863C178.3 16.9447 178.519 16.9134 178.727 16.8926C178.957 16.8717 179.165 16.8509 179.352 16.8301L178.79 19.0176C177.29 18.9134 175.655 18.8717 173.884 18.8926C172.134 18.8926 170.425 18.9238 168.759 18.9863C168.738 19.3405 168.675 19.7467 168.571 20.2051L166.602 20.5176C166.498 20.1009 166.394 19.5905 166.29 18.9863C166.186 18.3822 166.113 17.8197 166.071 17.2988L165.54 11.1113C165.498 10.7363 165.446 10.4342 165.384 10.2051C165.321 9.95508 165.207 9.75716 165.04 9.61133C164.894 9.46549 164.675 9.34049 164.384 9.23633C164.113 9.13216 163.748 9.01758 163.29 8.89258L163.821 7.76758C165.175 7.93424 166.477 8.04883 167.727 8.11133C168.998 8.15299 170.259 8.16341 171.509 8.14258C172.759 8.12174 174.019 8.06966 175.29 7.98633C176.561 7.90299 177.905 7.80924 179.321 7.70508C179.238 8.24674 179.134 8.91341 179.009 9.70508C178.905 10.4967 178.79 11.3301 178.665 12.2051C178.54 13.0592 178.425 13.9134 178.321 14.7676C178.217 15.6009 178.134 16.3405 178.071 16.9863ZM175.852 9.67383C174.54 9.61133 173.269 9.60091 172.04 9.64258C170.832 9.68424 169.665 9.74674 168.54 9.83008L168.79 16.7051C168.79 16.8092 168.79 16.9238 168.79 17.0488C168.811 17.1738 168.811 17.3092 168.79 17.4551C169.915 17.4342 171.05 17.403 172.196 17.3613C173.342 17.2988 174.446 17.2363 175.509 17.1738L175.852 9.67383ZM186.384 15.5488C186.384 15.9238 186.363 16.3613 186.321 16.8613C186.3 17.3613 186.269 17.8613 186.227 18.3613C186.186 18.8613 186.134 19.3405 186.071 19.7988C186.03 20.2363 185.977 20.5905 185.915 20.8613L183.696 21.1426C183.655 20.9342 183.623 20.6634 183.602 20.3301C183.582 19.9967 183.55 19.653 183.509 19.2988C183.488 18.9238 183.467 18.5592 183.446 18.2051C183.446 17.8509 183.446 17.528 183.446 17.2363V7.92383C183.446 7.27799 183.144 6.75716 182.54 6.36133C181.957 5.94466 180.977 5.56966 179.602 5.23633L180.071 4.08008C180.592 4.14258 181.155 4.22591 181.759 4.33008C182.384 4.41341 182.998 4.51758 183.602 4.64258C184.207 4.74674 184.78 4.85091 185.321 4.95508C185.863 5.05924 186.332 5.14258 186.727 5.20508C186.686 5.39258 186.644 5.62174 186.602 5.89258C186.561 6.16341 186.519 6.44466 186.477 6.73633C186.457 7.00716 186.436 7.25716 186.415 7.48633C186.394 7.71549 186.384 7.88216 186.384 7.98633V12.3301C186.821 12.3092 187.3 12.278 187.821 12.2363C188.342 12.1738 188.873 12.1113 189.415 12.0488C189.957 11.9863 190.488 11.9238 191.009 11.8613C191.55 11.778 192.061 11.6947 192.54 11.6113L192.196 14.1113C191.821 14.0905 191.394 14.0801 190.915 14.0801C190.436 14.0801 189.925 14.0801 189.384 14.0801C188.863 14.0801 188.342 14.0801 187.821 14.0801C187.3 14.0801 186.821 14.0801 186.384 14.0801V15.5488ZM173.696 27.0488C174.821 27.0488 175.977 27.028 177.165 26.9863C178.352 26.9447 179.509 26.8926 180.634 26.8301C181.759 26.7467 182.821 26.6634 183.821 26.5801C184.842 26.4967 185.727 26.403 186.477 26.2988L186.165 28.7051C183.957 28.5801 181.769 28.528 179.602 28.5488C177.436 28.5488 175.467 28.6113 173.696 28.7363V30.9863C173.696 31.403 173.748 31.653 173.852 31.7363C173.977 31.8405 174.28 31.903 174.759 31.9238C175.55 31.9447 176.488 31.9342 177.571 31.8926C178.675 31.8717 179.821 31.8197 181.009 31.7363C182.196 31.6738 183.363 31.5905 184.509 31.4863C185.675 31.3822 186.707 31.2572 187.602 31.1113L187.259 33.5176C185.988 33.4551 184.696 33.4134 183.384 33.3926C182.071 33.3717 180.79 33.3717 179.54 33.3926C178.311 33.4134 177.123 33.4342 175.977 33.4551C174.852 33.4967 173.821 33.5384 172.884 33.5801C172.155 33.6217 171.613 33.4759 171.259 33.1426C170.905 32.8092 170.727 32.3301 170.727 31.7051V25.6738C170.727 25.2363 170.696 24.8822 170.634 24.6113C170.571 24.3405 170.446 24.1113 170.259 23.9238C170.071 23.7363 169.8 23.5697 169.446 23.4238C169.092 23.278 168.613 23.1217 168.009 22.9551L168.571 21.8301C169.467 21.9967 170.446 22.1217 171.509 22.2051C172.592 22.2676 173.696 22.3092 174.821 22.3301C175.967 22.3509 177.123 22.3405 178.29 22.2988C179.457 22.2572 180.561 22.2051 181.602 22.1426C182.665 22.0801 183.634 22.0072 184.509 21.9238C185.405 21.8197 186.165 21.7155 186.79 21.6113L186.446 24.0176C183.884 23.8926 181.582 23.8405 179.54 23.8613C177.498 23.8822 175.55 23.9447 173.696 24.0488V27.0488ZM213.697 22.8926C213.197 22.8717 212.604 22.8613 211.916 22.8613C211.229 22.8613 210.52 22.8822 209.791 22.9238C209.062 22.9447 208.343 22.9759 207.635 23.0176C206.947 23.0384 206.343 23.0697 205.822 23.1113C205.593 23.1322 205.291 23.1634 204.916 23.2051C204.562 23.2259 204.166 23.2572 203.729 23.2988C203.291 23.3405 202.843 23.3926 202.385 23.4551C201.947 23.5176 201.541 23.5801 201.166 23.6426L199.697 21.1426C199.947 21.1842 200.27 21.2363 200.666 21.2988C201.083 21.3405 201.51 21.3822 201.947 21.4238C202.406 21.4655 202.854 21.5072 203.291 21.5488C203.75 21.5697 204.145 21.5801 204.479 21.5801C205.27 21.5801 206.187 21.5801 207.229 21.5801C208.27 21.5801 209.354 21.5697 210.479 21.5488C211.604 21.5072 212.739 21.4551 213.885 21.3926C215.052 21.3301 216.135 21.2572 217.135 21.1738C217.072 21.4655 217.01 21.7572 216.947 22.0488C216.906 22.2988 216.854 22.5592 216.791 22.8301C216.75 23.1009 216.708 23.3301 216.666 23.5176L216.26 26.1738C216.427 26.153 216.572 26.1426 216.697 26.1426C216.822 26.1426 216.947 26.1322 217.072 26.1113L216.854 28.0801C215.687 28.0176 214.489 27.9863 213.26 27.9863C212.031 27.9863 210.854 27.9967 209.729 28.0176C208.625 28.0384 207.625 28.0697 206.729 28.1113C205.833 28.1322 205.125 28.153 204.604 28.1738C204.583 28.3613 204.572 28.5384 204.572 28.7051C204.572 28.8717 204.572 29.0384 204.572 29.2051V31.2676C204.572 31.6009 204.614 31.7988 204.697 31.8613C204.781 31.9238 205.031 31.9655 205.447 31.9863C206.197 32.0072 207.135 31.9967 208.26 31.9551C209.406 31.9342 210.583 31.8822 211.791 31.7988C213.02 31.7155 214.229 31.6113 215.416 31.4863C216.604 31.3613 217.625 31.2259 218.479 31.0801L218.01 33.5801C216.885 33.5384 215.677 33.5072 214.385 33.4863C213.093 33.4863 211.802 33.4967 210.51 33.5176C209.239 33.5384 208 33.5592 206.791 33.5801C205.604 33.6217 204.541 33.6634 203.604 33.7051C202.895 33.7467 202.395 33.6009 202.104 33.2676C201.812 32.9342 201.666 32.4967 201.666 31.9551V29.6738C201.666 29.2988 201.635 28.9967 201.572 28.7676C201.531 28.5176 201.427 28.3092 201.26 28.1426C201.114 27.9551 200.885 27.7988 200.572 27.6738C200.281 27.5488 199.895 27.403 199.416 27.2363L199.854 26.2988C200.937 26.403 202.072 26.4759 203.26 26.5176C204.447 26.5592 205.635 26.5801 206.822 26.5801C208.01 26.5801 209.177 26.5697 210.322 26.5488C211.489 26.5072 212.583 26.4551 213.604 26.3926L213.697 22.8926ZM209.572 8.08008C208.989 9.66341 208.156 11.1947 207.072 12.6738C206.01 14.1322 204.781 15.4967 203.385 16.7676C202.01 18.0384 200.51 19.1842 198.885 20.2051C197.281 21.2259 195.656 22.0801 194.01 22.7676L193.229 21.8301C194.52 21.2259 195.802 20.4759 197.072 19.5801C198.343 18.6842 199.531 17.6947 200.635 16.6113C201.739 15.528 202.718 14.3926 203.572 13.2051C204.447 11.9967 205.125 10.778 205.604 9.54883C205.145 9.54883 204.656 9.55924 204.135 9.58008C203.635 9.58008 203.145 9.59049 202.666 9.61133C202.208 9.63216 201.781 9.65299 201.385 9.67383C201.01 9.69466 200.718 9.71549 200.51 9.73633C200.302 9.75716 200.01 9.77799 199.635 9.79883C199.26 9.81966 198.864 9.86133 198.447 9.92383C198.031 9.96549 197.604 10.0176 197.166 10.0801C196.729 10.1426 196.343 10.2155 196.01 10.2988L194.322 7.76758C194.572 7.80924 194.906 7.85091 195.322 7.89258C195.76 7.93424 196.218 7.97591 196.697 8.01758C197.177 8.03841 197.656 8.05924 198.135 8.08008C198.614 8.10091 199.031 8.11133 199.385 8.11133C200.239 8.11133 201.114 8.09049 202.01 8.04883C202.927 8.00716 203.802 7.95508 204.635 7.89258C205.468 7.83008 206.218 7.75716 206.885 7.67383C207.552 7.56966 208.072 7.46549 208.447 7.36133L209.572 8.08008ZM210.822 4.08008C211.322 4.14258 211.875 4.22591 212.479 4.33008C213.083 4.41341 213.687 4.51758 214.291 4.64258C214.895 4.74674 215.468 4.85091 216.01 4.95508C216.572 5.05924 217.062 5.14258 217.479 5.20508C217.437 5.39258 217.385 5.62174 217.322 5.89258C217.281 6.16341 217.239 6.44466 217.197 6.73633C217.177 7.00716 217.156 7.25716 217.135 7.48633C217.114 7.71549 217.104 7.88216 217.104 7.98633V15.0176C217.104 15.3926 217.083 15.8301 217.041 16.3301C217.02 16.8301 216.979 17.3301 216.916 17.8301C216.875 18.3301 216.822 18.8092 216.76 19.2676C216.697 19.7051 216.635 20.0592 216.572 20.3301L214.416 20.6426C214.375 20.4342 214.343 20.1634 214.322 19.8301C214.302 19.4967 214.27 19.153 214.229 18.7988C214.208 18.4238 214.187 18.0592 214.166 17.7051C214.166 17.3301 214.166 17.0072 214.166 16.7363V7.92383C214.166 7.27799 213.854 6.75716 213.229 6.36133C212.625 5.94466 211.635 5.56966 210.26 5.23633L210.822 4.08008ZM244.919 9.48633C246.627 10.403 248.481 11.2676 250.481 12.0801C252.481 12.8717 254.481 13.5801 256.481 14.2051L254.231 16.4551C253.502 16.0384 252.71 15.5905 251.856 15.1113C251.002 14.6113 250.117 14.1113 249.2 13.6113C248.304 13.1113 247.387 12.6113 246.45 12.1113C245.533 11.6113 244.658 11.1217 243.825 10.6426C242.2 12.2467 240.387 13.6217 238.387 14.7676C236.408 15.8926 234.377 16.8405 232.294 17.6113L231.481 16.5488C232.752 16.028 233.971 15.4238 235.137 14.7363C236.325 14.0488 237.419 13.3197 238.419 12.5488C239.419 11.7572 240.315 10.9342 241.106 10.0801C241.898 9.22591 242.565 8.36133 243.106 7.48633C243.356 7.06966 243.335 6.74674 243.044 6.51758C242.856 6.37174 242.554 6.18424 242.137 5.95508C241.742 5.72591 241.387 5.54883 241.075 5.42383L241.887 4.45508C242.283 4.58008 242.721 4.71549 243.2 4.86133C243.7 4.98633 244.19 5.13216 244.669 5.29883C245.169 5.44466 245.648 5.60091 246.106 5.76758C246.585 5.91341 247.023 6.05924 247.419 6.20508C247.065 6.80924 246.679 7.38216 246.262 7.92383C245.846 8.46549 245.398 8.98633 244.919 9.48633ZM246.2 27.1738C246.2 27.7363 246.179 28.3301 246.137 28.9551C246.117 29.5801 246.085 30.2051 246.044 30.8301C246.002 31.4551 245.95 32.0488 245.887 32.6113C245.825 33.1947 245.752 33.7051 245.669 34.1426L243.45 34.5176C243.408 34.1634 243.367 33.7155 243.325 33.1738C243.304 32.653 243.283 32.1009 243.262 31.5176C243.262 30.9551 243.262 30.3822 243.262 29.7988C243.262 29.2155 243.262 28.6947 243.262 28.2363V21.7051C242.45 21.7259 241.648 21.7467 240.856 21.7676C240.065 21.7884 239.325 21.8092 238.637 21.8301C237.95 21.8509 237.335 21.8822 236.794 21.9238C236.252 21.9447 235.815 21.9655 235.481 21.9863C234.69 22.0488 233.835 22.1217 232.919 22.2051C232.023 22.2884 231.21 22.3822 230.481 22.4863L229.419 19.7676C230.356 19.8717 231.356 19.9655 232.419 20.0488C233.502 20.1113 234.512 20.1634 235.45 20.2051C235.971 20.2259 236.627 20.2363 237.419 20.2363C238.231 20.2363 239.117 20.2363 240.075 20.2363C241.033 20.2155 242.023 20.1947 243.044 20.1738C244.085 20.1322 245.075 20.1009 246.012 20.0801C246.971 20.0592 247.846 20.0384 248.637 20.0176C249.45 19.9759 250.106 19.9447 250.606 19.9238C252.002 19.8613 253.419 19.7676 254.856 19.6426C256.315 19.4967 257.606 19.3405 258.731 19.1738L258.356 21.7363C257.94 21.7155 257.45 21.6947 256.887 21.6738C256.346 21.653 255.752 21.6426 255.106 21.6426C254.46 21.6217 253.794 21.6009 253.106 21.5801C252.419 21.5592 251.731 21.5488 251.044 21.5488C250.481 21.5488 249.783 21.5592 248.95 21.5801C248.117 21.5801 247.2 21.6009 246.2 21.6426V27.1738ZM278.265 8.26758C279.119 8.39258 279.9 8.63216 280.609 8.98633C281.338 9.31966 281.953 9.73633 282.453 10.2363C282.973 10.7363 283.369 11.3092 283.64 11.9551C283.932 12.6009 284.078 13.278 284.078 13.9863C284.078 14.8197 283.89 15.5905 283.515 16.2988C283.161 17.0072 282.661 17.6217 282.015 18.1426C281.369 18.6634 280.598 19.0697 279.703 19.3613C278.828 19.653 277.88 19.7988 276.859 19.7988C275.817 19.7988 274.848 19.653 273.953 19.3613C273.078 19.0697 272.317 18.6634 271.671 18.1426C271.025 17.6217 270.525 17.0072 270.171 16.2988C269.817 15.5905 269.64 14.8197 269.64 13.9863C269.64 13.2363 269.796 12.528 270.109 11.8613C270.421 11.1947 270.848 10.6113 271.39 10.1113C271.953 9.59049 272.619 9.16341 273.39 8.83008C274.161 8.49674 275.005 8.28841 275.921 8.20508C275.88 7.97591 275.765 7.78841 275.578 7.64258C275.39 7.47591 275.057 7.30924 274.578 7.14258L275.109 6.23633C275.338 6.27799 275.609 6.33008 275.921 6.39258C276.234 6.45508 276.546 6.51758 276.859 6.58008C277.192 6.64258 277.515 6.70508 277.828 6.76758C278.14 6.83008 278.421 6.89258 278.671 6.95508C278.609 7.12174 278.536 7.31966 278.453 7.54883C278.369 7.77799 278.307 8.01758 278.265 8.26758ZM281.015 13.8613C281.015 13.278 280.9 12.7259 280.671 12.2051C280.463 11.6842 280.171 11.2363 279.796 10.8613C279.421 10.4655 278.984 10.1634 278.484 9.95508C277.984 9.72591 277.453 9.61133 276.89 9.61133C276.307 9.61133 275.755 9.72591 275.234 9.95508C274.734 10.1634 274.296 10.4655 273.921 10.8613C273.546 11.2363 273.244 11.6842 273.015 12.2051C272.807 12.7259 272.703 13.278 272.703 13.8613C272.703 14.4655 272.807 15.028 273.015 15.5488C273.244 16.0488 273.546 16.4863 273.921 16.8613C274.296 17.2363 274.734 17.528 275.234 17.7363C275.755 17.9447 276.307 18.0488 276.89 18.0488C277.473 18.0488 278.015 17.9447 278.515 17.7363C279.015 17.528 279.453 17.2363 279.828 16.8613C280.203 16.4863 280.494 16.0488 280.703 15.5488C280.911 15.028 281.015 14.4655 281.015 13.8613ZM285.921 4.08008C286.421 4.14258 286.973 4.22591 287.578 4.33008C288.182 4.41341 288.786 4.51758 289.39 4.64258C289.994 4.74674 290.567 4.85091 291.109 4.95508C291.671 5.05924 292.161 5.14258 292.578 5.20508C292.536 5.39258 292.494 5.62174 292.453 5.89258C292.411 6.16341 292.369 6.44466 292.328 6.73633C292.286 7.00716 292.255 7.25716 292.234 7.48633C292.213 7.71549 292.203 7.88216 292.203 7.98633V16.1738C292.203 16.5488 292.182 16.9863 292.14 17.4863C292.119 17.9863 292.078 18.4863 292.015 18.9863C291.973 19.4863 291.921 19.9655 291.859 20.4238C291.796 20.8613 291.734 21.2051 291.671 21.4551L289.515 21.7676C289.473 21.5592 289.442 21.2884 289.421 20.9551C289.4 20.6217 289.369 20.278 289.328 19.9238C289.307 19.5488 289.286 19.1842 289.265 18.8301C289.265 18.4551 289.265 18.1217 289.265 17.8301V7.92383C289.265 7.27799 288.953 6.75716 288.328 6.36133C287.723 5.94466 286.734 5.56966 285.359 5.23633L285.921 4.08008ZM280.234 27.1738C280.9 27.8405 281.578 28.4551 282.265 29.0176C282.953 29.5801 283.703 30.1322 284.515 30.6738C286.036 28.7363 287.15 26.7155 287.859 24.6113C287.942 24.3822 287.973 24.1947 287.953 24.0488C287.932 23.8822 287.89 23.7572 287.828 23.6738C287.786 23.6322 287.692 23.5592 287.546 23.4551C287.4 23.3509 287.234 23.2467 287.046 23.1426C286.88 23.0176 286.703 22.903 286.515 22.7988C286.328 22.6738 286.171 22.5801 286.046 22.5176L286.671 21.6113C286.942 21.6738 287.296 21.7572 287.734 21.8613C288.192 21.9655 288.661 22.0801 289.14 22.2051C289.64 22.3301 290.109 22.4655 290.546 22.6113C291.005 22.7363 291.38 22.8509 291.671 22.9551C291.442 23.6842 291.161 24.403 290.828 25.1113C290.515 25.7988 290.161 26.4655 289.765 27.1113C290.765 28.153 291.848 29.1322 293.015 30.0488C294.203 30.9655 295.296 31.7572 296.296 32.4238L293.984 34.4551L288.765 28.5488C287.828 29.8613 286.796 31.028 285.671 32.0488C284.567 33.0905 283.453 33.9863 282.328 34.7363L281.453 33.8926C281.723 33.6634 281.973 33.4342 282.203 33.2051C282.432 32.9967 282.65 32.7676 282.859 32.5176L279.265 28.5488C278.265 29.7572 277.161 30.8613 275.953 31.8613C274.744 32.8822 273.484 33.7988 272.171 34.6113L271.328 33.6738C272.14 33.1113 272.9 32.4759 273.609 31.7676C274.338 31.0801 275.005 30.3613 275.609 29.6113C276.213 28.8405 276.755 28.0592 277.234 27.2676C277.713 26.4759 278.119 25.6947 278.453 24.9238C278.557 24.6947 278.588 24.4967 278.546 24.3301C278.525 24.1426 278.484 24.0072 278.421 23.9238C278.38 23.8822 278.286 23.8197 278.14 23.7363C277.994 23.6322 277.828 23.528 277.64 23.4238C277.473 23.2988 277.296 23.1842 277.109 23.0801C276.921 22.9551 276.765 22.8613 276.64 22.7988L277.265 21.8926C277.536 21.9551 277.89 22.0488 278.328 22.1738C278.786 22.278 279.255 22.3926 279.734 22.5176C280.213 22.6426 280.671 22.778 281.109 22.9238C281.567 23.0488 281.942 23.1634 282.234 23.2676C282.005 23.9551 281.713 24.6322 281.359 25.2988C281.025 25.9447 280.65 26.5697 280.234 27.1738ZM320.422 16.0801C319.152 16.0384 317.777 16.0176 316.297 16.0176C314.818 16.0176 313.35 16.028 311.891 16.0488C310.454 16.0697 309.079 16.1113 307.766 16.1738C306.475 16.2155 305.36 16.2572 304.422 16.2988C303.693 16.3405 303.162 16.1322 302.829 15.6738C302.516 15.2155 302.36 14.6842 302.36 14.0801V9.48633C302.36 9.04883 302.318 8.69466 302.235 8.42383C302.152 8.13216 301.995 7.89258 301.766 7.70508C301.558 7.51758 301.256 7.36133 300.86 7.23633C300.464 7.09049 299.954 6.94466 299.329 6.79883L299.86 5.61133C300.152 5.65299 300.547 5.70508 301.047 5.76758C301.568 5.83008 302.1 5.89258 302.641 5.95508C303.183 6.01758 303.714 6.08008 304.235 6.14258C304.756 6.20508 305.183 6.26758 305.516 6.33008C305.475 6.58008 305.422 6.95508 305.36 7.45508C305.318 7.95508 305.297 8.39258 305.297 8.76758V13.3926C305.297 13.8092 305.37 14.1113 305.516 14.2988C305.683 14.4655 305.975 14.5592 306.391 14.5801C307.183 14.6009 308.193 14.5905 309.422 14.5488C310.672 14.4863 311.975 14.4134 313.329 14.3301C314.683 14.2259 316.027 14.1113 317.36 13.9863C318.693 13.8613 319.85 13.7259 320.829 13.5801L320.422 16.0801ZM325.141 21.8301C324.725 21.8092 324.235 21.7884 323.672 21.7676C323.131 21.7467 322.537 21.7363 321.891 21.7363C321.245 21.7155 320.579 21.6947 319.891 21.6738C319.204 21.653 318.516 21.6426 317.829 21.6426C317.245 21.6426 316.506 21.653 315.61 21.6738C314.714 21.6738 313.735 21.6842 312.672 21.7051C311.631 21.7259 310.558 21.7572 309.454 21.7988C308.35 21.8197 307.297 21.8509 306.297 21.8926C305.318 21.9342 304.433 21.9759 303.641 22.0176C302.85 22.0592 302.245 22.0905 301.829 22.1113C301.058 22.153 300.214 22.2155 299.297 22.2988C298.381 22.3822 297.558 22.4759 296.829 22.5801L295.766 19.8613C296.704 19.9655 297.704 20.0592 298.766 20.1426C299.85 20.2051 300.86 20.2572 301.797 20.2988C302.297 20.3197 302.964 20.3301 303.797 20.3301C304.631 20.3301 305.537 20.3301 306.516 20.3301C307.516 20.3092 308.547 20.2884 309.61 20.2676C310.693 20.2259 311.725 20.1947 312.704 20.1738C313.683 20.153 314.589 20.1322 315.422 20.1113C316.256 20.0697 316.922 20.0384 317.422 20.0176C318.818 19.9551 320.235 19.8613 321.672 19.7363C323.11 19.5905 324.402 19.4342 325.547 19.2676L325.141 21.8301ZM321.297 33.2051C320.006 33.1426 318.61 33.0905 317.11 33.0488C315.631 33.028 314.152 33.028 312.672 33.0488C311.214 33.0697 309.818 33.0905 308.485 33.1113C307.172 33.153 306.047 33.2051 305.11 33.2676C304.36 33.3092 303.829 33.1634 303.516 32.8301C303.225 32.4967 303.079 32.1009 303.079 31.6426V28.1426C303.079 27.6842 303.058 27.3197 303.016 27.0488C302.975 26.778 302.86 26.5488 302.672 26.3613C302.485 26.1738 302.204 26.0176 301.829 25.8926C301.475 25.7467 300.975 25.5905 300.329 25.4238L300.829 24.2676C301.141 24.3092 301.537 24.3613 302.016 24.4238C302.495 24.4863 302.985 24.5488 303.485 24.6113C304.006 24.6738 304.506 24.7467 304.985 24.8301C305.485 24.8926 305.891 24.9447 306.204 24.9863C306.162 25.2363 306.12 25.6113 306.079 26.1113C306.037 26.6113 306.016 27.0488 306.016 27.4238V30.6426C306.016 31.0384 306.079 31.278 306.204 31.3613C306.329 31.4655 306.61 31.528 307.047 31.5488C307.568 31.5488 308.204 31.5384 308.954 31.5176C309.725 31.5176 310.547 31.4967 311.422 31.4551C312.318 31.4342 313.245 31.403 314.204 31.3613C315.162 31.3197 316.1 31.2676 317.016 31.2051C317.933 31.1426 318.797 31.0697 319.61 30.9863C320.422 30.903 321.131 30.8197 321.735 30.7363L321.297 33.2051ZM11.9688 47.1426C12.8438 47.2676 13.6354 47.4967 14.3438 47.8301C15.0521 48.1634 15.6667 48.5905 16.1875 49.1113C16.7083 49.6113 17.1042 50.1947 17.375 50.8613C17.6667 51.5072 17.8125 52.1947 17.8125 52.9238C17.8125 53.7572 17.625 54.5384 17.25 55.2676C16.8958 55.9759 16.3958 56.5905 15.75 57.1113C15.1042 57.6322 14.3333 58.0488 13.4375 58.3613C12.5625 58.653 11.6146 58.7988 10.5938 58.7988C9.55208 58.7988 8.58333 58.653 7.6875 58.3613C6.8125 58.0488 6.05208 57.6322 5.40625 57.1113C4.76042 56.5905 4.26042 55.9759 3.90625 55.2676C3.55208 54.5384 3.375 53.7572 3.375 52.9238C3.375 52.153 3.53125 51.4342 3.84375 50.7676C4.15625 50.0801 4.58333 49.4863 5.125 48.9863C5.6875 48.4655 6.35417 48.0384 7.125 47.7051C7.89583 47.3717 8.73958 47.1634 9.65625 47.0801C9.61458 46.8092 9.5 46.6009 9.3125 46.4551C9.125 46.2884 8.79167 46.1322 8.3125 45.9863L8.84375 45.0801C9.07292 45.1217 9.34375 45.1738 9.65625 45.2363C9.96875 45.2988 10.2812 45.3717 10.5938 45.4551C10.9271 45.5176 11.25 45.5801 11.5625 45.6426C11.875 45.7051 12.1562 45.7676 12.4062 45.8301C12.3438 45.9967 12.2708 46.1842 12.1875 46.3926C12.1042 46.6009 12.0312 46.8509 11.9688 47.1426ZM14.75 52.7676C14.75 52.1634 14.6354 51.6009 14.4062 51.0801C14.1979 50.5592 13.9062 50.1113 13.5312 49.7363C13.1562 49.3405 12.7188 49.0384 12.2188 48.8301C11.7188 48.6009 11.1875 48.4863 10.625 48.4863C10.0417 48.4863 9.48958 48.6009 8.96875 48.8301C8.46875 49.0384 8.03125 49.3405 7.65625 49.7363C7.28125 50.1113 6.97917 50.5592 6.75 51.0801C6.54167 51.6009 6.4375 52.1634 6.4375 52.7676C6.4375 53.3926 6.54167 53.9655 6.75 54.4863C6.97917 55.0072 7.28125 55.4551 7.65625 55.8301C8.03125 56.2051 8.46875 56.4967 8.96875 56.7051C9.48958 56.9134 10.0417 57.0176 10.625 57.0176C11.2083 57.0176 11.75 56.9134 12.25 56.7051C12.75 56.4967 13.1875 56.2051 13.5625 55.8301C13.9375 55.4551 14.2292 55.0072 14.4375 54.4863C14.6458 53.9655 14.75 53.3926 14.75 52.7676ZM19.5938 42.0801C20.0938 42.1426 20.6458 42.2259 21.25 42.3301C21.8542 42.4134 22.4583 42.5176 23.0625 42.6426C23.6667 42.7467 24.2396 42.8509 24.7812 42.9551C25.3438 43.0592 25.8333 43.1426 26.25 43.2051C26.2083 43.3926 26.1667 43.6217 26.125 43.8926C26.0833 44.1634 26.0417 44.4447 26 44.7363C25.9583 45.0072 25.9271 45.2572 25.9062 45.4863C25.8854 45.7155 25.875 45.8822 25.875 45.9863V58.7988C25.875 59.278 25.8542 59.7884 25.8125 60.3301C25.7917 60.8717 25.7604 61.4238 25.7188 61.9863C25.6771 62.528 25.6146 63.0488 25.5312 63.5488C25.4688 64.028 25.4062 64.4447 25.3438 64.7988L23.1875 65.1426C23.1458 64.8926 23.1146 64.5488 23.0938 64.1113C23.0729 63.6738 23.0417 63.2051 23 62.7051C22.9792 62.1842 22.9583 61.6738 22.9375 61.1738C22.9375 60.653 22.9375 60.2051 22.9375 59.8301V45.9238C22.9375 45.278 22.625 44.7572 22 44.3613C21.3958 43.9447 20.4062 43.5697 19.0312 43.2363L19.5938 42.0801ZM27.5625 71.1113C26.2917 71.0905 25 71.0801 23.6875 71.0801C22.375 71.0801 21.0938 71.0905 19.8438 71.1113C18.5938 71.1322 17.3958 71.1634 16.25 71.2051C15.125 71.2467 14.0938 71.2988 13.1562 71.3613C12.4062 71.403 11.875 71.2572 11.5625 70.9238C11.25 70.5905 11.0938 70.1947 11.0938 69.7363V65.8613C11.0938 65.403 11.0729 65.0384 11.0312 64.7676C10.9896 64.4759 10.875 64.2363 10.6875 64.0488C10.5 63.8613 10.2188 63.7051 9.84375 63.5801C9.46875 63.4551 8.95833 63.3092 8.3125 63.1426L8.875 61.9863C9.1875 62.028 9.58333 62.0801 10.0625 62.1426C10.5417 62.2051 11.0312 62.2676 11.5312 62.3301C12.0521 62.3926 12.5521 62.4551 13.0312 62.5176C13.5312 62.5801 13.9375 62.6426 14.25 62.7051C14.2083 62.9551 14.1667 63.3301 14.125 63.8301C14.0833 64.3301 14.0625 64.7572 14.0625 65.1113V68.7363C14.0625 69.1322 14.125 69.3717 14.25 69.4551C14.375 69.5592 14.6458 69.6217 15.0625 69.6426C15.8542 69.6634 16.8021 69.6426 17.9062 69.5801C19.0104 69.5384 20.1562 69.4655 21.3438 69.3613C22.5312 69.278 23.7083 69.1738 24.875 69.0488C26.0417 68.9238 27.0729 68.7988 27.9688 68.6738L27.5625 71.1113ZM39.7512 52.1738C40.2512 52.6738 40.7721 53.1842 41.3137 53.7051C41.8554 54.2259 42.4179 54.7363 43.0012 55.2363C43.5846 55.7363 44.1679 56.2155 44.7512 56.6738C45.3346 57.1113 45.9075 57.5176 46.47 57.8926L44.095 59.8613C43.2408 58.7988 42.3867 57.7676 41.5325 56.7676C40.6783 55.7676 39.7617 54.7363 38.7825 53.6738C37.6992 55.1738 36.4804 56.528 35.1262 57.7363C33.7929 58.9238 32.3242 60.0176 30.72 61.0176L29.9387 60.1738C31.0012 59.3822 31.9908 58.5176 32.9075 57.5801C33.8242 56.6217 34.6367 55.6217 35.345 54.5801C36.0742 53.5384 36.6887 52.4863 37.1887 51.4238C37.7096 50.3405 38.1054 49.278 38.3762 48.2363C38.4804 47.8197 38.5012 47.5384 38.4387 47.3926C38.3971 47.2259 38.3033 47.0905 38.1575 46.9863C37.9492 46.8613 37.6887 46.7051 37.3762 46.5176C37.0846 46.3301 36.7721 46.1738 36.4387 46.0488L37.1262 45.0801C37.8971 45.2676 38.7096 45.4863 39.5637 45.7363C40.4387 45.9655 41.3762 46.2363 42.3762 46.5488C42.0221 47.6113 41.6262 48.6113 41.1887 49.5488C40.7721 50.4655 40.2929 51.3405 39.7512 52.1738ZM49.4387 61.6426C50.2512 61.7467 51.0012 61.9551 51.6887 62.2676C52.3762 62.5801 52.9596 62.9655 53.4387 63.4238C53.9179 63.8822 54.2929 64.4134 54.5637 65.0176C54.8346 65.6009 54.97 66.2259 54.97 66.8926C54.97 67.6426 54.7929 68.3405 54.4387 68.9863C54.1054 69.653 53.6262 70.2259 53.0012 70.7051C52.3971 71.1842 51.6679 71.5592 50.8137 71.8301C49.9804 72.1009 49.0742 72.2363 48.095 72.2363C47.095 72.2363 46.1783 72.1009 45.345 71.8301C44.5117 71.5592 43.7929 71.1842 43.1887 70.7051C42.5846 70.2259 42.1054 69.653 41.7512 68.9863C41.4179 68.3405 41.2512 67.6426 41.2512 66.8926C41.2512 66.2051 41.3867 65.5592 41.6575 64.9551C41.9492 64.3509 42.3554 63.8197 42.8762 63.3613C43.3971 62.8822 44.0012 62.4967 44.6887 62.2051C45.3971 61.8926 46.1783 61.6947 47.0325 61.6113C46.9908 61.3613 46.8762 61.1634 46.6887 61.0176C46.5012 60.8717 46.1887 60.7259 45.7512 60.5801L46.2825 59.6426C46.7408 59.7467 47.3242 59.8717 48.0325 60.0176C48.7408 60.1634 49.3554 60.2884 49.8762 60.3926C49.6471 60.8717 49.5012 61.2884 49.4387 61.6426ZM51.8762 66.7676C51.8762 66.2259 51.7721 65.7259 51.5637 65.2676C51.3554 64.8092 51.0742 64.4134 50.72 64.0801C50.3867 63.7259 49.9908 63.4551 49.5325 63.2676C49.0742 63.0801 48.5846 62.9863 48.0637 62.9863C47.5637 62.9863 47.0742 63.0801 46.595 63.2676C46.1367 63.4551 45.7304 63.7259 45.3762 64.0801C45.0429 64.4134 44.7721 64.8092 44.5637 65.2676C44.3554 65.7259 44.2512 66.2259 44.2512 66.7676C44.2512 67.3092 44.3554 67.8092 44.5637 68.2676C44.7721 68.7051 45.0429 69.0905 45.3762 69.4238C45.7304 69.7572 46.1367 70.0176 46.595 70.2051C47.0742 70.3926 47.5637 70.4863 48.0637 70.4863C48.5846 70.4863 49.0742 70.3926 49.5325 70.2051C50.0117 70.0176 50.4179 69.7572 50.7512 69.4238C51.1054 69.0905 51.3762 68.7051 51.5637 68.2676C51.7721 67.8092 51.8762 67.3092 51.8762 66.7676ZM49.7512 51.8613C50.2721 51.8197 50.7929 51.7884 51.3137 51.7676C51.8554 51.7467 52.3971 51.6947 52.9387 51.6113V45.9238C52.9387 45.278 52.6887 44.7572 52.1887 44.3613C51.6887 43.9447 50.7721 43.5697 49.4387 43.2363L49.9387 42.0801C50.4387 42.1426 50.97 42.2259 51.5325 42.3301C52.095 42.4342 52.6471 42.5384 53.1887 42.6426C53.7512 42.7467 54.2825 42.8509 54.7825 42.9551C55.3033 43.0592 55.7617 43.153 56.1575 43.2363C56.1158 43.4238 56.0742 43.653 56.0325 43.9238C56.0117 44.1947 55.9804 44.4655 55.9387 44.7363C55.9179 45.0072 55.8971 45.2572 55.8762 45.4863C55.8554 45.7155 55.845 45.8822 55.845 45.9863V54.5176C55.845 55.7051 55.7825 56.903 55.6575 58.1113C55.5533 59.3197 55.3971 60.3717 55.1887 61.2676L53.0637 61.6113C53.0221 60.903 52.9908 60.1217 52.97 59.2676C52.9492 58.3926 52.9387 57.5905 52.9387 56.8613V53.4238C52.4179 53.4447 51.8867 53.4655 51.345 53.4863C50.8242 53.5072 50.2929 53.5384 49.7512 53.5801V53.6738C49.7512 54.2155 49.7304 54.7676 49.6887 55.3301C49.6679 55.8926 49.6262 56.4238 49.5637 56.9238C49.5012 57.4238 49.4283 57.8822 49.345 58.2988C49.2617 58.7155 49.1783 59.0592 49.095 59.3301L47.0325 59.6113C46.9908 59.2572 46.9492 58.7051 46.9075 57.9551C46.8658 57.2051 46.845 56.4655 46.845 55.7363V47.1738C46.845 46.8613 46.8033 46.5801 46.72 46.3301C46.6367 46.0801 46.47 45.8509 46.22 45.6426C45.9908 45.4342 45.6679 45.2467 45.2512 45.0801C44.8554 44.9134 44.3346 44.7467 43.6887 44.5801L44.22 43.4551C45.2617 43.5801 46.2929 43.7467 47.3137 43.9551C48.3554 44.1426 49.2721 44.3405 50.0637 44.5488C50.0221 44.7363 49.9804 44.9655 49.9387 45.2363C49.9179 45.5072 49.8867 45.778 49.845 46.0488C49.8242 46.3197 49.8033 46.5697 49.7825 46.7988C49.7617 47.028 49.7512 47.1947 49.7512 47.2988V51.8613ZM82.0663 60.5176C83.0663 60.3926 84.035 60.2572 84.9725 60.1113C85.9308 59.9655 86.8475 59.8092 87.7225 59.6426V45.9238C87.7225 45.278 87.4204 44.7572 86.8163 44.3613C86.2329 43.9447 85.2538 43.5697 83.8788 43.2363L84.3475 42.0801C84.8683 42.1426 85.4308 42.2259 86.035 42.3301C86.66 42.4134 87.2746 42.5176 87.8788 42.6426C88.4829 42.7467 89.0558 42.8509 89.5975 42.9551C90.1392 43.0592 90.6079 43.1426 91.0038 43.2051C90.9621 43.3926 90.9204 43.6217 90.8788 43.8926C90.8371 44.1634 90.7954 44.4447 90.7538 44.7363C90.7329 45.0072 90.7121 45.2572 90.6913 45.4863C90.6704 45.7155 90.66 45.8822 90.66 45.9863V54.6113C91.0975 54.5905 91.5767 54.5592 92.0975 54.5176C92.6392 54.4551 93.1808 54.3926 93.7225 54.3301C94.285 54.2676 94.8267 54.2051 95.3475 54.1426C95.8892 54.0592 96.3996 53.9759 96.8788 53.8926L96.5975 56.4238C96.2225 56.403 95.785 56.3926 95.285 56.3926C94.785 56.3926 94.2642 56.3926 93.7225 56.3926C93.2017 56.3926 92.6704 56.3926 92.1288 56.3926C91.5871 56.3926 91.0975 56.3926 90.66 56.3926V63.2988C90.66 63.9447 90.6496 64.6947 90.6288 65.5488C90.6079 66.3822 90.5663 67.2259 90.5038 68.0801C90.4621 68.9134 90.41 69.7051 90.3475 70.4551C90.285 71.2259 90.2225 71.8405 90.16 72.2988L88.0038 72.5801C87.9621 72.2467 87.9204 71.7988 87.8788 71.2363C87.8579 70.6738 87.8267 70.0697 87.785 69.4238C87.7642 68.7988 87.7433 68.153 87.7225 67.4863C87.7225 66.7988 87.7225 66.153 87.7225 65.5488V60.9863C85.2642 61.5488 82.8371 62.0072 80.4413 62.3613C78.0663 62.6947 75.8996 62.9447 73.9413 63.1113C73.7121 63.1322 73.3892 63.1634 72.9725 63.2051C72.5558 63.2259 72.1079 63.2676 71.6288 63.3301C71.1704 63.3717 70.7017 63.4238 70.2225 63.4863C69.7642 63.528 69.3579 63.5801 69.0038 63.6426L67.4725 60.9863C67.8058 61.0488 68.2017 61.1113 68.66 61.1738C69.1183 61.2155 69.5767 61.2676 70.035 61.3301C70.5142 61.3717 70.9725 61.403 71.41 61.4238C71.8475 61.4447 72.2017 61.4447 72.4725 61.4238C72.5767 61.4238 72.6704 61.4238 72.7538 61.4238C72.8371 61.4238 72.9204 61.4134 73.0038 61.3926L72.5038 54.3926C72.4621 53.7884 72.3163 53.2988 72.0663 52.9238C71.8163 52.5488 71.2538 52.3197 70.3788 52.2363L70.5975 51.1426C71.2017 51.1426 71.9517 51.1738 72.8475 51.2363C73.7642 51.278 74.5871 51.3509 75.3163 51.4551C75.2121 51.8301 75.16 52.3092 75.16 52.8926C75.1808 53.4551 75.2121 53.9342 75.2538 54.3301L75.66 61.2051C76.9517 61.1009 78.2121 60.9759 79.4413 60.8301L79.7225 53.7988C79.7433 53.4655 79.7225 53.1842 79.66 52.9551C79.6183 52.7051 79.5142 52.4967 79.3475 52.3301C79.2017 52.1634 78.9829 52.0176 78.6913 51.8926C78.3996 51.7676 78.0142 51.653 77.535 51.5488L77.8788 50.4863C78.5038 50.5488 79.2642 50.6322 80.16 50.7363C81.0558 50.8197 81.9933 50.9655 82.9725 51.1738C82.8058 51.7155 82.6704 52.2467 82.5663 52.7676C82.4829 53.2676 82.4308 53.6426 82.41 53.8926L82.0663 60.5176ZM85.1288 49.4238C84.2746 49.3822 83.3058 49.3717 82.2225 49.3926C81.16 49.4134 80.0975 49.4551 79.035 49.5176C77.9725 49.5592 76.9725 49.6113 76.035 49.6738C75.0975 49.7363 74.3475 49.778 73.785 49.7988C73.535 49.8197 73.2017 49.8509 72.785 49.8926C72.3683 49.9134 71.9308 49.9447 71.4725 49.9863C71.0142 50.028 70.5663 50.0697 70.1288 50.1113C69.7121 50.153 69.3683 50.1947 69.0975 50.2363L68.0038 47.6426C68.2954 47.7051 68.6704 47.7676 69.1288 47.8301C69.5871 47.8926 70.0558 47.9551 70.535 48.0176C71.0142 48.0592 71.4829 48.1009 71.9413 48.1426C72.4204 48.1634 72.8163 48.1738 73.1288 48.1738C73.8579 48.1738 74.7121 48.1426 75.6913 48.0801C76.6704 48.0176 77.7121 47.9447 78.8163 47.8613C79.9204 47.7572 81.0558 47.6426 82.2225 47.5176C83.41 47.3717 84.5767 47.2155 85.7225 47.0488L85.1288 49.4238ZM105.099 52.7363C106.099 52.7155 107.286 52.6842 108.661 52.6426C110.057 52.6009 111.453 52.5384 112.849 52.4551C114.265 52.3717 115.62 52.278 116.911 52.1738C118.203 52.0697 119.255 51.9551 120.067 51.8301L119.63 54.2676C118.526 54.2259 117.328 54.1947 116.036 54.1738C114.765 54.153 113.474 54.153 112.161 54.1738C110.87 54.1947 109.609 54.2259 108.38 54.2676C107.172 54.2884 106.078 54.3197 105.099 54.3613V58.2988C105.099 58.6947 105.161 58.9447 105.286 59.0488C105.411 59.1322 105.713 59.1842 106.192 59.2051C106.713 59.2259 107.349 59.2259 108.099 59.2051C108.849 59.1842 109.661 59.1634 110.536 59.1426C111.411 59.1009 112.317 59.0592 113.255 59.0176C114.213 58.9551 115.151 58.8926 116.067 58.8301C116.984 58.7467 117.859 58.6634 118.692 58.5801C119.526 58.4967 120.265 58.4134 120.911 58.3301L120.442 60.7988C119.172 60.7363 117.786 60.7051 116.286 60.7051C114.807 60.6842 113.328 60.6842 111.849 60.7051C110.39 60.7259 109.005 60.7572 107.692 60.7988C106.38 60.8197 105.255 60.8613 104.317 60.9238C103.588 60.9655 103.047 60.7884 102.692 60.3926C102.338 59.9967 102.161 59.5072 102.161 58.9238V49.7051C102.161 49.2676 102.13 48.9134 102.067 48.6426C102.005 48.3717 101.88 48.1426 101.692 47.9551C101.505 47.7467 101.234 47.5801 100.88 47.4551C100.526 47.3092 100.047 47.153 99.4425 46.9863L99.9737 45.8926C100.849 46.0384 101.88 46.153 103.067 46.2363C104.276 46.2988 105.547 46.3405 106.88 46.3613C108.213 46.3613 109.567 46.3509 110.942 46.3301C112.317 46.2884 113.63 46.2363 114.88 46.1738C116.13 46.1113 117.265 46.0384 118.286 45.9551C119.307 45.8509 120.13 45.7572 120.755 45.6738L120.255 48.1113C118.984 48.028 117.651 47.9759 116.255 47.9551C114.88 47.9134 113.515 47.903 112.161 47.9238C110.828 47.9238 109.547 47.9447 108.317 47.9863C107.109 48.028 106.036 48.0801 105.099 48.1426V52.7363ZM125.005 67.3301C124.172 67.2884 123.088 67.2572 121.755 67.2363C120.422 67.2155 119.057 67.1947 117.661 67.1738C117.078 67.1738 116.37 67.1842 115.536 67.2051C114.703 67.2051 113.797 67.2259 112.817 67.2676C111.859 67.2884 110.87 67.3197 109.849 67.3613C108.849 67.3822 107.89 67.4134 106.974 67.4551C106.057 67.4759 105.224 67.5072 104.474 67.5488C103.745 67.5905 103.172 67.6217 102.755 67.6426C101.963 67.6842 101.12 67.7467 100.224 67.8301C99.3279 67.9134 98.4946 68.0072 97.7237 68.1113L96.7237 65.3613C97.6612 65.4655 98.6508 65.5592 99.6925 65.6426C100.755 65.7051 101.765 65.7572 102.724 65.7988C103.245 65.8197 103.89 65.8301 104.661 65.8301C105.453 65.8301 106.297 65.8301 107.192 65.8301C108.109 65.8092 109.047 65.7884 110.005 65.7676C110.984 65.7259 111.922 65.6947 112.817 65.6738C113.734 65.653 114.578 65.6322 115.349 65.6113C116.12 65.5697 116.755 65.5384 117.255 65.5176C118.651 65.4551 120.067 65.3613 121.505 65.2363C122.963 65.0905 124.255 64.9342 125.38 64.7676L125.005 67.3301ZM147.256 53.9238C146.569 53.9447 145.829 53.9759 145.037 54.0176C144.267 54.0592 143.496 54.1113 142.725 54.1738C141.975 54.2363 141.267 54.3092 140.6 54.3926C139.954 54.4551 139.433 54.528 139.037 54.6113L137.912 52.1738C138.121 52.2155 138.392 52.2572 138.725 52.2988C139.058 52.3405 139.423 52.3822 139.819 52.4238C140.215 52.4447 140.61 52.4655 141.006 52.4863C141.402 52.4863 141.756 52.4863 142.069 52.4863C142.381 52.4863 142.756 52.4863 143.194 52.4863C143.631 52.4655 144.09 52.4551 144.569 52.4551C145.048 52.4342 145.517 52.4238 145.975 52.4238C146.454 52.403 146.881 52.3822 147.256 52.3613V45.9238C147.256 45.278 146.944 44.7572 146.319 44.3613C145.715 43.9447 144.725 43.5697 143.35 43.2363L143.881 42.0801C144.381 42.1426 144.933 42.2259 145.537 42.3301C146.142 42.4134 146.746 42.5176 147.35 42.6426C147.954 42.7467 148.527 42.8509 149.069 42.9551C149.631 43.0592 150.121 43.1426 150.537 43.2051C150.496 43.3926 150.454 43.6217 150.412 43.8926C150.371 44.1634 150.329 44.4447 150.287 44.7363C150.267 45.0072 150.246 45.2572 150.225 45.4863C150.204 45.7155 150.194 45.8822 150.194 45.9863V63.2988C150.194 63.9447 150.173 64.6947 150.131 65.5488C150.11 66.3822 150.069 67.2259 150.006 68.0801C149.965 68.9134 149.912 69.7051 149.85 70.4551C149.787 71.2259 149.715 71.8405 149.631 72.2988L147.537 72.5801C147.496 72.2467 147.454 71.7988 147.412 71.2363C147.392 70.6738 147.36 70.0697 147.319 69.4238C147.298 68.7988 147.277 68.153 147.256 67.4863C147.256 66.7988 147.256 66.153 147.256 65.5488V53.9238ZM130.162 50.8301C130.162 50.4967 130.121 50.2259 130.037 50.0176C129.975 49.7884 129.829 49.5905 129.6 49.4238C129.392 49.2572 129.079 49.1113 128.662 48.9863C128.246 48.8613 127.694 48.7363 127.006 48.6113L127.444 47.4551C128.506 47.4967 129.569 47.5905 130.631 47.7363C131.715 47.8613 132.652 47.9967 133.444 48.1426C133.402 48.3301 133.36 48.5592 133.319 48.8301C133.277 49.1009 133.235 49.3717 133.194 49.6426C133.173 49.9134 133.152 50.1634 133.131 50.3926C133.11 50.6217 133.1 50.7884 133.1 50.8926V60.1426C133.1 60.4967 133.162 60.7363 133.287 60.8613C133.433 60.9863 133.621 61.0384 133.85 61.0176C134.579 60.9551 135.392 60.8613 136.287 60.7363C137.204 60.5905 138.162 60.4134 139.162 60.2051C140.162 59.9759 141.183 59.7155 142.225 59.4238C143.287 59.1322 144.329 58.7988 145.35 58.4238V59.8613C143.496 60.6322 141.517 61.3197 139.412 61.9238C137.329 62.5072 135.256 62.9655 133.194 63.2988C132.131 63.4655 131.36 63.3301 130.881 62.8926C130.402 62.4551 130.162 61.7363 130.162 60.7363V50.8301Z" fill="#7C58E8"/>
<path d="M19.32 130.314C19.32 130.538 19.208 130.65 18.984 130.65H18C17.776 130.65 17.664 130.538 17.664 130.314V118.242C17.664 118.018 17.776 117.906 18 117.906H18.984C19.208 117.906 19.32 118.018 19.32 118.242V130.314ZM5.616 133.602C5.616 132.93 5.744 132.482 6 132.258C6.256 132.018 6.736 131.898 7.44 131.898H17.496C17.88 131.898 18.184 131.922 18.408 131.97C18.648 132.018 18.832 132.106 18.96 132.234C19.104 132.362 19.2 132.538 19.248 132.762C19.296 132.986 19.32 133.266 19.32 133.602V138.138C19.32 138.81 19.192 139.258 18.936 139.482C18.68 139.722 18.2 139.842 17.496 139.842H7.44C7.056 139.842 6.744 139.818 6.504 139.77C6.28 139.722 6.096 139.626 5.952 139.482C5.824 139.354 5.736 139.178 5.688 138.954C5.64 138.746 5.616 138.474 5.616 138.138V133.602ZM7.848 133.338C7.624 133.338 7.472 133.386 7.392 133.482C7.312 133.562 7.272 133.722 7.272 133.962V137.778C7.272 138.018 7.312 138.178 7.392 138.258C7.472 138.354 7.624 138.402 7.848 138.402H17.088C17.312 138.402 17.464 138.354 17.544 138.258C17.624 138.178 17.664 138.018 17.664 137.778V133.962C17.664 133.722 17.624 133.562 17.544 133.482C17.464 133.386 17.312 133.338 17.088 133.338H7.848ZM12.864 120.642C12.496 122.866 11.528 124.826 9.96 126.522C8.392 128.218 6.12 129.69 3.144 130.938C2.872 131.05 2.696 131.002 2.616 130.794L2.256 130.002C2.192 129.874 2.184 129.77 2.232 129.69C2.296 129.61 2.368 129.554 2.448 129.522C4.992 128.466 6.984 127.218 8.424 125.778C9.88 124.322 10.76 122.754 11.064 121.074C11.16 120.61 10.968 120.378 10.488 120.378H3.096C2.904 120.378 2.808 120.274 2.808 120.066V119.226C2.808 119.034 2.904 118.938 3.096 118.938H11.04C11.808 118.938 12.328 119.074 12.6 119.346C12.872 119.618 12.96 120.05 12.864 120.642ZM35.6503 128.538C35.6503 129.114 35.5223 129.658 35.2663 130.17C35.0103 130.682 34.6583 131.13 34.2103 131.514C33.7783 131.898 33.2583 132.202 32.6503 132.426C32.0423 132.634 31.3863 132.738 30.6823 132.738C29.9783 132.738 29.3223 132.634 28.7143 132.426C28.1063 132.202 27.5783 131.898 27.1303 131.514C26.6983 131.13 26.3543 130.682 26.0983 130.17C25.8583 129.658 25.7383 129.114 25.7383 128.538C25.7383 127.962 25.8583 127.426 26.0983 126.93C26.3543 126.418 26.6983 125.978 27.1303 125.61C27.5783 125.226 28.1063 124.93 28.7143 124.722C29.3223 124.498 29.9783 124.386 30.6823 124.386C31.3863 124.386 32.0423 124.498 32.6503 124.722C33.2583 124.93 33.7783 125.226 34.2103 125.61C34.6583 125.978 35.0103 126.418 35.2663 126.93C35.5223 127.426 35.6503 127.962 35.6503 128.538ZM41.0503 134.634C41.0503 134.858 40.9383 134.97 40.7143 134.97H39.7303C39.5063 134.97 39.3943 134.858 39.3943 134.634V118.242C39.3943 118.018 39.5063 117.906 39.7303 117.906H40.7143C40.9383 117.906 41.0503 118.018 41.0503 118.242V126.186H44.3623C44.4583 126.186 44.5383 126.218 44.6023 126.282C44.6823 126.33 44.7223 126.402 44.7223 126.498V127.314C44.7223 127.394 44.6823 127.466 44.6023 127.53C44.5383 127.594 44.4583 127.626 44.3623 127.626H41.0503V134.634ZM34.0183 128.538C34.0183 128.154 33.9303 127.802 33.7543 127.482C33.5943 127.146 33.3623 126.858 33.0583 126.618C32.7703 126.378 32.4183 126.194 32.0023 126.066C31.6023 125.922 31.1623 125.85 30.6823 125.85C30.2023 125.85 29.7623 125.922 29.3623 126.066C28.9623 126.194 28.6103 126.378 28.3063 126.618C28.0023 126.858 27.7623 127.146 27.5863 127.482C27.4263 127.802 27.3463 128.154 27.3463 128.538C27.3463 128.922 27.4263 129.282 27.5863 129.618C27.7623 129.954 28.0023 130.242 28.3063 130.482C28.6103 130.722 28.9623 130.914 29.3623 131.058C29.7623 131.202 30.2023 131.274 30.6823 131.274C31.1623 131.274 31.6023 131.202 32.0023 131.058C32.4183 130.914 32.7703 130.722 33.0583 130.482C33.3623 130.242 33.5943 129.954 33.7543 129.618C33.9303 129.282 34.0183 128.922 34.0183 128.538ZM42.1303 139.386C42.1303 139.482 42.0903 139.554 42.0103 139.602C41.9303 139.65 41.8503 139.674 41.7703 139.674H29.3863C28.6343 139.674 28.1383 139.53 27.8983 139.242C27.6743 138.97 27.5623 138.506 27.5623 137.85V134.538C27.5623 134.314 27.6743 134.202 27.8983 134.202H28.8823C29.1063 134.202 29.2183 134.314 29.2183 134.538V137.754C29.2183 137.978 29.2503 138.114 29.3143 138.162C29.3943 138.21 29.5463 138.234 29.7703 138.234H41.7703C41.8503 138.234 41.9303 138.258 42.0103 138.306C42.0903 138.37 42.1303 138.442 42.1303 138.522V139.386ZM37.6663 122.922C37.6663 123.13 37.5463 123.234 37.3063 123.234H24.0583C23.9783 123.234 23.8983 123.202 23.8183 123.138C23.7543 123.074 23.7223 122.994 23.7223 122.898V122.13C23.7223 122.034 23.7543 121.954 23.8183 121.89C23.8983 121.826 23.9783 121.794 24.0583 121.794H37.3063C37.5463 121.794 37.6663 121.898 37.6663 122.106V122.922ZM34.1623 119.658C34.1623 119.866 34.0423 119.97 33.8023 119.97H27.2263C27.1463 119.97 27.0663 119.946 26.9863 119.898C26.9223 119.85 26.8903 119.778 26.8903 119.682V118.842C26.8903 118.746 26.9223 118.666 26.9863 118.602C27.0503 118.538 27.1223 118.506 27.2023 118.506H33.8023C34.0423 118.506 34.1623 118.618 34.1623 118.842V119.658ZM58.3166 128.01C58.3166 128.554 58.2046 129.05 57.9806 129.498C57.7726 129.946 57.4766 130.338 57.0926 130.674C56.7086 131.01 56.2446 131.29 55.7006 131.514C55.1726 131.722 54.5886 131.858 53.9486 131.922V134.418C54.4926 134.386 55.0606 134.346 55.6526 134.298C56.2446 134.234 56.8206 134.17 57.3806 134.106C57.9566 134.026 58.5086 133.946 59.0366 133.866C59.5646 133.786 60.0446 133.706 60.4766 133.626C60.7326 133.578 60.8686 133.634 60.8846 133.794L61.0286 134.706C61.0606 134.898 60.9566 135.01 60.7166 135.042C59.6446 135.218 58.4686 135.378 57.1886 135.522C55.9086 135.666 54.6206 135.778 53.3246 135.858C52.8606 135.89 52.3166 135.914 51.6926 135.93C51.0686 135.946 50.4286 135.962 49.7726 135.978C49.1326 135.978 48.5006 135.978 47.8766 135.978C47.2686 135.978 46.7406 135.97 46.2926 135.954C46.1966 135.954 46.1086 135.922 46.0286 135.858C45.9646 135.794 45.9326 135.722 45.9326 135.642V134.826C45.9326 134.73 45.9646 134.658 46.0286 134.61C46.1086 134.546 46.1966 134.514 46.2926 134.514C46.6446 134.53 47.0606 134.546 47.5406 134.562C48.0366 134.562 48.5486 134.562 49.0766 134.562C49.6206 134.546 50.1646 134.538 50.7086 134.538C51.2686 134.522 51.7966 134.506 52.2926 134.49V131.946C51.6366 131.882 51.0366 131.746 50.4926 131.538C49.9646 131.314 49.5086 131.034 49.1246 130.698C48.7406 130.346 48.4366 129.946 48.2126 129.498C48.0046 129.034 47.9006 128.538 47.9006 128.01C47.9006 127.418 48.0286 126.882 48.2846 126.402C48.5566 125.906 48.9246 125.49 49.3886 125.154C49.8526 124.802 50.3966 124.538 51.0206 124.362C51.6606 124.17 52.3566 124.074 53.1086 124.074C53.8446 124.074 54.5326 124.17 55.1726 124.362C55.8126 124.554 56.3646 124.826 56.8286 125.178C57.2926 125.514 57.6526 125.922 57.9086 126.402C58.1806 126.882 58.3166 127.418 58.3166 128.01ZM63.6206 139.698C63.6206 139.922 63.5086 140.034 63.2846 140.034H62.3006C62.0766 140.034 61.9646 139.922 61.9646 139.698V118.242C61.9646 118.018 62.0766 117.906 62.3006 117.906H63.2846C63.5086 117.906 63.6206 118.018 63.6206 118.242V127.626H66.9326C67.0286 127.626 67.1086 127.658 67.1726 127.722C67.2526 127.77 67.2926 127.842 67.2926 127.938V128.754C67.2926 128.834 67.2526 128.906 67.1726 128.97C67.1086 129.034 67.0286 129.066 66.9326 129.066H63.6206V139.698ZM56.6846 128.01C56.6846 127.194 56.3486 126.57 55.6766 126.138C55.0046 125.706 54.1486 125.49 53.1086 125.49C52.5966 125.49 52.1166 125.546 51.6686 125.658C51.2366 125.77 50.8606 125.93 50.5406 126.138C50.2206 126.346 49.9646 126.61 49.7726 126.93C49.5966 127.25 49.5086 127.61 49.5086 128.01C49.5086 128.41 49.5966 128.77 49.7726 129.09C49.9646 129.394 50.2206 129.658 50.5406 129.882C50.8606 130.09 51.2366 130.258 51.6686 130.386C52.1166 130.498 52.5966 130.554 53.1086 130.554C54.1486 130.554 55.0046 130.33 55.6766 129.882C56.3486 129.434 56.6846 128.81 56.6846 128.01ZM59.8526 122.514C59.8526 122.722 59.7326 122.826 59.4926 122.826H46.7246C46.6446 122.826 46.5646 122.794 46.4846 122.73C46.4206 122.666 46.3886 122.586 46.3886 122.49V121.698C46.3886 121.602 46.4206 121.522 46.4846 121.458C46.5646 121.394 46.6446 121.362 46.7246 121.362H59.4926C59.7326 121.362 59.8526 121.466 59.8526 121.674V122.514ZM56.4686 119.49C56.4686 119.714 56.3486 119.826 56.1086 119.826H49.7726C49.6926 119.826 49.6126 119.802 49.5326 119.754C49.4686 119.69 49.4366 119.61 49.4366 119.514V118.698C49.4366 118.602 49.4686 118.522 49.5326 118.458C49.5966 118.394 49.6686 118.362 49.7486 118.362H56.1086C56.3486 118.362 56.4686 118.474 56.4686 118.698V119.49Z" fill="black"/>
</svg>
