<svg width="347" height="116" viewBox="0 0 347 116" fill="none" xmlns="http://www.w3.org/2000/svg">
<path d="M20.9375 27.9375C20.3542 27.9167 19.7396 27.9062 19.0938 27.9062C18.4688 27.8854 17.8125 27.8854 17.125 27.9062V34.125C18.0625 34.0833 18.9062 34.0521 19.6562 34.0312C20.4271 34.0104 21.0625 33.9896 21.5625 33.9688C22.9583 33.9062 24.375 33.8021 25.8125 33.6562C27.2708 33.5104 28.5625 33.3646 29.6875 33.2188L29.3125 35.7812C28.4792 35.7396 27.3958 35.7083 26.0625 35.6875C24.7292 35.6667 23.3646 35.6458 21.9688 35.625C21.3854 35.625 20.6771 35.6354 19.8438 35.6562C19.0104 35.6562 18.1042 35.6771 17.125 35.7188C16.1667 35.7396 15.1771 35.7708 14.1562 35.8125C13.1562 35.8333 12.1979 35.8646 11.2812 35.9062C10.3646 35.9271 9.53125 35.9583 8.78125 36C8.05208 36.0417 7.47917 36.0729 7.0625 36.0938C6.27083 36.1354 5.42708 36.1979 4.53125 36.2812C3.63542 36.3646 2.80208 36.4583 2.03125 36.5625L1.03125 33.8125C1.96875 33.9167 2.95833 34.0104 4 34.0938C5.0625 34.1562 6.07292 34.2083 7.03125 34.25C7.40625 34.2708 7.85417 34.2812 8.375 34.2812C8.91667 34.2812 9.5 34.2812 10.125 34.2812C10.75 34.2812 11.4062 34.2812 12.0938 34.2812C12.7812 34.2604 13.4792 34.2396 14.1875 34.2188V27.9688C13.4375 27.9896 12.6875 28.0104 11.9375 28.0312C11.1875 28.0312 10.4688 28.0521 9.78125 28.0938C9.73958 28.3229 9.69792 28.5208 9.65625 28.6875C9.63542 28.8542 9.60417 29.0208 9.5625 29.1875L7.5625 29.5C7.5 29.1042 7.42708 28.6042 7.34375 28C7.28125 27.375 7.25 26.7708 7.25 26.1875V17.25C7.25 16.9167 7.20833 16.6354 7.125 16.4062C7.0625 16.1771 6.9375 15.9792 6.75 15.8125C6.5625 15.625 6.29167 15.4688 5.9375 15.3438C5.60417 15.1979 5.16667 15.0625 4.625 14.9375L5.09375 13.9062C5.44792 13.9479 5.84375 13.9896 6.28125 14.0312C6.73958 14.0729 7.20833 14.125 7.6875 14.1875C8.1875 14.25 8.66667 14.3229 9.125 14.4062C9.60417 14.4688 10.0521 14.5417 10.4688 14.625C10.4271 14.8125 10.3854 15.0312 10.3438 15.2812C10.3021 15.5312 10.2604 15.7812 10.2188 16.0312C10.1979 16.2812 10.1771 16.5104 10.1562 16.7188C10.1354 16.9271 10.125 17.0938 10.125 17.2188V19.2812C11.7292 19.2396 13.4688 19.1875 15.3438 19.125C17.2396 19.0625 19.0625 18.9583 20.8125 18.8125V16.0312C20.8125 15.6979 20.7708 15.4271 20.6875 15.2188C20.6042 14.9896 20.4479 14.7917 20.2188 14.625C19.9896 14.4375 19.6771 14.2812 19.2812 14.1562C18.9062 14.0312 18.4271 13.8958 17.8438 13.75L18.3438 12.5938C19.2188 12.6979 20.1875 12.8229 21.25 12.9688C22.3125 13.0938 23.2396 13.2396 24.0312 13.4062C23.9896 13.5938 23.9479 13.8125 23.9062 14.0625C23.8854 14.3125 23.8646 14.5625 23.8438 14.8125C23.8229 15.0625 23.8021 15.2917 23.7812 15.5C23.7604 15.7083 23.75 15.875 23.75 16V24.3125C23.75 25.2917 23.6875 26.1771 23.5625 26.9688C23.4375 27.7396 23.3125 28.3646 23.1875 28.8438L21.0938 29.1562C21.0521 28.9896 21.0208 28.8021 21 28.5938C21 28.3854 20.9792 28.1667 20.9375 27.9375ZM20.8125 25.7812V20.75C20 20.7292 19.1458 20.7188 18.25 20.7188C17.3542 20.6979 16.4375 20.6979 15.5 20.7188C14.5833 20.7396 13.6667 20.7708 12.75 20.8125C11.8333 20.8333 10.9583 20.8646 10.125 20.9062V24.8125C10.125 25.4167 10.0938 25.9792 10.0312 26.5C10.8438 26.4792 11.6979 26.4583 12.5938 26.4375C13.5104 26.4167 14.4375 26.3958 15.375 26.375C16.3125 26.3333 17.2396 26.2917 18.1562 26.25C19.0729 26.2083 19.9583 26.1667 20.8125 26.125V25.7812ZM47.0012 24.3125C46.9387 24.9583 46.7304 25.5625 46.3762 26.125C46.0221 26.6667 45.5533 27.1458 44.97 27.5625C44.4075 27.9792 43.7512 28.3125 43.0012 28.5625C42.2512 28.7917 41.4387 28.9062 40.5637 28.9062C39.6679 28.9062 38.8242 28.7708 38.0325 28.5C37.2408 28.2292 36.5533 27.8646 35.97 27.4062C35.3867 26.9479 34.9179 26.4167 34.5637 25.8125C34.2304 25.1875 34.0637 24.5417 34.0637 23.875C34.0637 23.125 34.2304 22.4479 34.5637 21.8438C34.9179 21.2188 35.3867 20.6771 35.97 20.2188C36.5742 19.7604 37.2617 19.4062 38.0325 19.1562C38.8242 18.9062 39.6679 18.7812 40.5637 18.7812C42.1054 18.7812 43.4179 19.1146 44.5012 19.7812C45.5846 20.4271 46.3137 21.25 46.6887 22.25C47.1054 22.2917 47.5221 22.3333 47.9387 22.375C48.3762 22.3958 48.7721 22.3958 49.1262 22.375C49.5429 22.375 50.0012 22.375 50.5012 22.375C51.0012 22.3542 51.4908 22.3333 51.97 22.3125V14.25C51.97 13.6042 51.6575 13.0833 51.0325 12.6875C50.4283 12.2708 49.4387 11.8958 48.0637 11.5625L48.6262 10.4062C49.1262 10.4688 49.6783 10.5521 50.2825 10.6562C50.8867 10.7396 51.4908 10.8438 52.095 10.9688C52.6992 11.0729 53.2721 11.1771 53.8137 11.2812C54.3762 11.3854 54.8658 11.4688 55.2825 11.5312C55.2408 11.7188 55.1887 11.9479 55.1262 12.2188C55.0846 12.4896 55.0429 12.7708 55.0012 13.0625C54.9804 13.3333 54.9596 13.5833 54.9387 13.8125C54.9179 14.0417 54.9075 14.2083 54.9075 14.3125V23.5C54.9075 23.875 54.8867 24.3125 54.845 24.8125C54.8242 25.2917 54.7825 25.7812 54.72 26.2812C54.6783 26.7812 54.6262 27.2604 54.5637 27.7188C54.5012 28.1562 54.4387 28.5104 54.3762 28.7812L52.22 29.0938C52.1783 28.8646 52.1471 28.5833 52.1262 28.25C52.1054 27.9167 52.0742 27.5729 52.0325 27.2188C52.0117 26.8646 51.9908 26.5104 51.97 26.1562C51.97 25.7812 51.97 25.4479 51.97 25.1562V23.875C51.0533 23.9167 50.1575 23.9792 49.2825 24.0625C48.4283 24.125 47.6679 24.2083 47.0012 24.3125ZM37.1887 23.7188C37.1887 24.1979 37.2721 24.6562 37.4387 25.0938C37.6262 25.5104 37.8658 25.8854 38.1575 26.2188C38.47 26.5312 38.8242 26.7812 39.22 26.9688C39.6367 27.1562 40.0846 27.25 40.5637 27.25C41.5221 27.25 42.3242 26.9167 42.97 26.25C43.6367 25.5833 43.97 24.7396 43.97 23.7188C43.97 23.2604 43.8867 22.8229 43.72 22.4062C43.5533 21.9688 43.3137 21.5833 43.0012 21.25C42.7096 20.9167 42.3554 20.6562 41.9387 20.4688C41.5221 20.2812 41.0637 20.1875 40.5637 20.1875C39.6262 20.1875 38.8242 20.5104 38.1575 21.1562C37.5117 21.8021 37.1887 22.6562 37.1887 23.7188ZM44.7512 14.2812C44.3971 14.2812 44.0117 14.2812 43.595 14.2812C43.1783 14.2812 42.7512 14.2917 42.3137 14.3125C41.8971 14.3125 41.4908 14.3229 41.095 14.3438C40.72 14.3438 40.3971 14.3438 40.1262 14.3438C39.9804 14.3438 39.7617 14.3542 39.47 14.375C39.1992 14.375 38.8971 14.3854 38.5637 14.4062C38.2512 14.4271 37.9283 14.4583 37.595 14.5C37.2617 14.5208 36.97 14.5521 36.72 14.5938L35.4387 12.2188C35.6887 12.2812 36.0012 12.3438 36.3762 12.4062C36.7512 12.4688 37.1367 12.5312 37.5325 12.5938C37.9492 12.6354 38.345 12.6771 38.72 12.7188C39.1158 12.7396 39.4492 12.75 39.72 12.75C39.97 12.75 40.3033 12.7396 40.72 12.7188C41.1575 12.6979 41.6262 12.6667 42.1262 12.625C42.6471 12.5625 43.1783 12.5 43.72 12.4375C44.2617 12.375 44.7721 12.3125 45.2512 12.25L44.7512 14.2812ZM49.3762 17.625C48.8971 17.625 48.3137 17.625 47.6262 17.625C46.9387 17.625 46.1887 17.6354 45.3762 17.6562C44.5846 17.6771 43.7617 17.6979 42.9075 17.7188C42.0533 17.7396 41.2304 17.7708 40.4387 17.8125C39.6471 17.8333 38.9179 17.8542 38.2512 17.875C37.5846 17.8958 37.0325 17.9167 36.595 17.9375C36.345 17.9583 36.0117 17.9896 35.595 18.0312C35.1992 18.0521 34.7825 18.0833 34.345 18.125C33.9075 18.1667 33.4804 18.2083 33.0637 18.25C32.6679 18.2917 32.345 18.3333 32.095 18.375L30.8762 15.8125C31.1679 15.875 31.5221 15.9375 31.9387 16C32.3554 16.0417 32.7825 16.0833 33.22 16.125C33.6575 16.1667 34.0846 16.2083 34.5012 16.25C34.9387 16.2708 35.3033 16.2812 35.595 16.2812C36.3033 16.2812 37.2408 16.2708 38.4075 16.25C39.595 16.2083 40.8554 16.1562 42.1887 16.0938C43.5221 16.0104 44.8554 15.9167 46.1887 15.8125C47.5429 15.6875 48.7304 15.5312 49.7512 15.3438L49.3762 17.625ZM54.2512 37.0312C54.4804 36.9896 54.6783 36.9688 54.845 36.9688C55.0325 36.9479 55.22 36.9271 55.4075 36.9062L54.845 39.1875C54.095 39.125 53.2096 39.0833 52.1887 39.0625C51.1887 39.0417 50.1367 39.0208 49.0325 39C47.9492 39 46.8554 39.0104 45.7512 39.0312C44.6679 39.0521 43.6783 39.0833 42.7825 39.125C42.7408 39.2917 42.6992 39.4688 42.6575 39.6562C42.6367 39.8646 42.6054 40.0729 42.5637 40.2812L40.5637 40.625C40.3971 39.9167 40.2929 39.3333 40.2512 38.875C40.2304 38.4167 40.1992 37.9167 40.1575 37.375L39.7825 33.0312C39.7408 32.6562 39.6887 32.3542 39.6262 32.125C39.5846 31.875 39.4908 31.6771 39.345 31.5312C39.1992 31.3854 38.9804 31.2604 38.6887 31.1562C38.4179 31.0312 38.0429 30.9062 37.5637 30.7812L38.1262 29.6875C40.8554 30 43.6575 30.125 46.5325 30.0625C49.4283 30 52.2721 29.8438 55.0637 29.5938C54.9804 30.1354 54.8971 30.7292 54.8137 31.375C54.7512 32 54.6783 32.6458 54.595 33.3125C54.5325 33.9583 54.47 34.6042 54.4075 35.25C54.345 35.875 54.2929 36.4688 54.2512 37.0312ZM51.7512 31.625C51.1054 31.6042 50.3762 31.5938 49.5637 31.5938C48.7721 31.5729 47.9596 31.5729 47.1262 31.5938C46.3137 31.6146 45.5221 31.6458 44.7512 31.6875C43.9804 31.7083 43.3137 31.7396 42.7512 31.7812L42.8762 36.7812V37.5C44.2512 37.4792 45.7096 37.4375 47.2512 37.375C48.8137 37.3333 50.2825 37.2812 51.6575 37.2188L51.7512 31.625ZM78.1913 17.1562C79.0871 17.2812 79.9204 17.5312 80.6913 17.9062C81.4621 18.2812 82.1183 18.75 82.66 19.3125C83.2017 19.8542 83.6288 20.4792 83.9413 21.1875C84.2538 21.8958 84.41 22.6562 84.41 23.4688C84.41 24.3854 84.2121 25.2396 83.8163 26.0312C83.4413 26.8021 82.91 27.4792 82.2225 28.0625C81.5558 28.625 80.7642 29.0729 79.8475 29.4062C78.9308 29.7188 77.9308 29.875 76.8475 29.875C75.7433 29.875 74.7225 29.7188 73.785 29.4062C72.8683 29.0729 72.0663 28.625 71.3788 28.0625C70.7121 27.4792 70.1913 26.8021 69.8163 26.0312C69.4413 25.2396 69.2538 24.3854 69.2538 23.4688C69.2538 22.6354 69.4204 21.8438 69.7538 21.0938C70.0871 20.3438 70.5454 19.6875 71.1288 19.125C71.7329 18.5625 72.4413 18.1042 73.2538 17.75C74.0663 17.3958 74.9621 17.1875 75.9413 17.125C75.9413 16.8125 75.8475 16.5625 75.66 16.375C75.4933 16.1875 75.1496 16.0104 74.6288 15.8438L75.0663 14.9062C75.3163 14.9688 75.5975 15.0312 75.91 15.0938C76.2225 15.1562 76.535 15.2188 76.8475 15.2812C77.1808 15.3438 77.5038 15.4062 77.8163 15.4688C78.1288 15.5312 78.41 15.5938 78.66 15.6562C78.5767 15.8438 78.4933 16.0729 78.41 16.3438C78.3267 16.5938 78.2538 16.8646 78.1913 17.1562ZM81.3788 23.375C81.3788 22.7083 81.2642 22.0938 81.035 21.5312C80.8058 20.9479 80.4829 20.4479 80.0663 20.0312C79.6704 19.5938 79.2017 19.25 78.66 19C78.1183 18.75 77.535 18.625 76.91 18.625C76.285 18.625 75.6913 18.75 75.1288 19C74.5871 19.25 74.1079 19.5938 73.6913 20.0312C73.2746 20.4479 72.9413 20.9479 72.6913 21.5312C72.4621 22.0938 72.3475 22.7083 72.3475 23.375C72.3475 24.0417 72.4621 24.6667 72.6913 25.25C72.9413 25.8125 73.2746 26.3021 73.6913 26.7188C74.1079 27.1146 74.5871 27.4271 75.1288 27.6562C75.6913 27.8854 76.285 28 76.91 28C77.535 28 78.1183 27.8854 78.66 27.6562C79.2225 27.4271 79.7017 27.1146 80.0975 26.7188C80.4933 26.3021 80.8058 25.8125 81.035 25.25C81.2642 24.6667 81.3788 24.0417 81.3788 23.375ZM86.3475 10.4062C86.8475 10.4688 87.3996 10.5521 88.0038 10.6562C88.6079 10.7396 89.2121 10.8438 89.8163 10.9688C90.4204 11.0729 90.9933 11.1771 91.535 11.2812C92.0975 11.3854 92.5871 11.4688 93.0038 11.5312C92.9621 11.7188 92.9204 11.9479 92.8788 12.2188C92.8371 12.4896 92.7954 12.7708 92.7538 13.0625C92.7329 13.3333 92.7121 13.5833 92.6913 13.8125C92.6704 14.0417 92.66 14.2083 92.66 14.3125V31.625C92.66 32.2708 92.6392 33.0208 92.5975 33.875C92.5767 34.7083 92.535 35.5521 92.4725 36.4062C92.4308 37.2396 92.3683 38.0312 92.285 38.7812C92.2225 39.5521 92.1496 40.1667 92.0663 40.625L90.0038 40.9062C89.9621 40.5729 89.9204 40.125 89.8788 39.5625C89.8371 39 89.7954 38.3958 89.7538 37.75C89.7329 37.125 89.7121 36.4792 89.6913 35.8125C89.6913 35.125 89.6913 34.4792 89.6913 33.875V14.25C89.6913 13.6042 89.3788 13.0833 88.7538 12.6875C88.1496 12.2708 87.16 11.8958 85.785 11.5625L86.3475 10.4062ZM106.911 19.7812C107.974 20.6562 109.109 21.5312 110.317 22.4062C111.526 23.2812 112.87 24.1667 114.349 25.0625L112.067 27.125C111.067 26.0208 110.067 25 109.067 24.0625C108.067 23.1042 107.026 22.1042 105.942 21.0625C104.651 22.5833 103.213 23.9375 101.63 25.125C100.067 26.2917 98.4217 27.3958 96.6925 28.4375L95.88 27.5C96.9633 26.7917 98.0258 25.9792 99.0675 25.0625C100.13 24.1458 101.109 23.1771 102.005 22.1562C102.901 21.1146 103.672 20.0521 104.317 18.9688C104.984 17.8854 105.474 16.8125 105.786 15.75C105.89 15.3958 105.911 15.1562 105.849 15.0312C105.807 14.8854 105.734 14.7812 105.63 14.7188C105.463 14.5729 105.213 14.4167 104.88 14.25C104.547 14.0833 104.161 13.8958 103.724 13.6875L104.442 12.7188C105.297 12.9479 106.203 13.2083 107.161 13.5C108.14 13.7917 109.047 14.0833 109.88 14.375C109.484 15.4167 109.036 16.3854 108.536 17.2812C108.057 18.1562 107.515 18.9896 106.911 19.7812ZM114.599 29.8125C115.411 29.9167 116.151 30.1354 116.817 30.4688C117.505 30.7812 118.088 31.1771 118.567 31.6562C119.067 32.1146 119.453 32.6458 119.724 33.25C119.995 33.8333 120.13 34.4688 120.13 35.1562C120.13 35.9271 119.953 36.6354 119.599 37.2812C119.265 37.9479 118.786 38.5208 118.161 39C117.557 39.5 116.838 39.8854 116.005 40.1562C115.172 40.4271 114.265 40.5625 113.286 40.5625C112.307 40.5625 111.401 40.4271 110.567 40.1562C109.734 39.8854 109.015 39.5 108.411 39C107.807 38.5208 107.328 37.9479 106.974 37.2812C106.64 36.6354 106.474 35.9271 106.474 35.1562C106.474 34.4479 106.62 33.7812 106.911 33.1562C107.203 32.5312 107.599 31.9896 108.099 31.5312C108.62 31.0521 109.234 30.6667 109.942 30.375C110.651 30.0625 111.422 29.8646 112.255 29.7812C112.213 29.5312 112.099 29.3333 111.911 29.1875C111.724 29.0417 111.39 28.8958 110.911 28.75L111.442 27.8125C111.692 27.8542 111.963 27.9062 112.255 27.9688C112.567 28.0312 112.88 28.0938 113.192 28.1562C113.526 28.2188 113.849 28.2917 114.161 28.375C114.474 28.4375 114.755 28.5 115.005 28.5625C114.817 29.0208 114.682 29.4375 114.599 29.8125ZM117.036 34.9688C117.036 34.4271 116.932 33.9271 116.724 33.4688C116.536 32.9896 116.265 32.5833 115.911 32.25C115.578 31.8958 115.182 31.625 114.724 31.4375C114.286 31.2292 113.807 31.125 113.286 31.125C112.765 31.125 112.265 31.2292 111.786 31.4375C111.328 31.625 110.922 31.8958 110.567 32.25C110.234 32.5833 109.963 32.9896 109.755 33.4688C109.567 33.9271 109.474 34.4271 109.474 34.9688C109.474 35.5104 109.567 36.0208 109.755 36.5C109.963 36.9583 110.234 37.3542 110.567 37.6875C110.922 38.0417 111.328 38.3125 111.786 38.5C112.265 38.7083 112.765 38.8125 113.286 38.8125C113.807 38.8125 114.297 38.7083 114.755 38.5C115.213 38.3125 115.609 38.0417 115.942 37.6875C116.276 37.3542 116.536 36.9583 116.724 36.5C116.932 36.0208 117.036 35.5104 117.036 34.9688ZM120.099 24.2188C120.099 24.5938 120.078 25.0417 120.036 25.5625C120.015 26.0625 119.974 26.5625 119.911 27.0625C119.87 27.5625 119.817 28.0417 119.755 28.5C119.692 28.9375 119.64 29.2812 119.599 29.5312L117.411 29.875C117.37 29.6458 117.338 29.3646 117.317 29.0312C117.297 28.6979 117.265 28.3542 117.224 28C117.203 27.6458 117.182 27.2917 117.161 26.9375C117.161 26.5625 117.161 26.2292 117.161 25.9375V14.25C117.161 13.6042 116.859 13.0833 116.255 12.6875C115.651 12.2708 114.661 11.8958 113.286 11.5625L113.817 10.4062C114.338 10.4688 114.901 10.5521 115.505 10.6562C116.109 10.7396 116.713 10.8438 117.317 10.9688C117.922 11.0729 118.495 11.1771 119.036 11.2812C119.599 11.3854 120.078 11.4688 120.474 11.5312C120.432 11.7188 120.38 11.9479 120.317 12.2188C120.276 12.4896 120.234 12.7708 120.192 13.0625C120.172 13.3333 120.151 13.5833 120.13 13.8125C120.109 14.0417 120.099 14.2083 120.099 14.3125V19.8438C120.536 19.8229 121.015 19.7917 121.536 19.75C122.078 19.6875 122.62 19.625 123.161 19.5625C123.703 19.5 124.234 19.4375 124.755 19.375C125.276 19.2917 125.765 19.2083 126.224 19.125L125.911 21.5625C125.557 21.5417 125.13 21.5312 124.63 21.5312C124.151 21.5312 123.651 21.5312 123.13 21.5312C122.609 21.5312 122.078 21.5312 121.536 21.5312C121.015 21.5312 120.536 21.5312 120.099 21.5312V24.2188ZM138.569 14.875C139.444 15 140.246 15.2396 140.975 15.5938C141.704 15.9479 142.329 16.3854 142.85 16.9062C143.392 17.4062 143.808 17.9896 144.1 18.6562C144.392 19.3021 144.537 19.9896 144.537 20.7188C144.537 21.5521 144.35 22.3229 143.975 23.0312C143.6 23.7396 143.079 24.3646 142.412 24.9062C141.746 25.4271 140.954 25.8438 140.037 26.1562C139.142 26.4479 138.162 26.5938 137.1 26.5938C136.058 26.5938 135.09 26.4479 134.194 26.1562C133.298 25.8438 132.527 25.4271 131.881 24.9062C131.235 24.3646 130.725 23.7396 130.35 23.0312C129.996 22.3229 129.819 21.5521 129.819 20.7188C129.819 19.9479 129.975 19.2292 130.287 18.5625C130.6 17.875 131.037 17.2708 131.6 16.75C132.183 16.2083 132.86 15.7708 133.631 15.4375C134.423 15.1042 135.287 14.8958 136.225 14.8125C136.183 14.5417 136.069 14.3333 135.881 14.1875C135.715 14.0208 135.392 13.8542 134.912 13.6875L135.412 12.75C135.642 12.7917 135.912 12.8438 136.225 12.9062C136.537 12.9688 136.85 13.0312 137.162 13.0938C137.496 13.1562 137.829 13.2188 138.162 13.2812C138.496 13.3438 138.787 13.4062 139.037 13.4688C138.975 13.6771 138.892 13.8958 138.787 14.125C138.704 14.3542 138.631 14.6042 138.569 14.875ZM141.412 20.5938C141.412 19.9896 141.298 19.4271 141.069 18.9062C140.84 18.3646 140.527 17.9062 140.131 17.5312C139.756 17.1354 139.308 16.8229 138.787 16.5938C138.287 16.3646 137.746 16.25 137.162 16.25C136.579 16.25 136.027 16.3646 135.506 16.5938C135.006 16.8229 134.558 17.1354 134.162 17.5312C133.787 17.9062 133.485 18.3646 133.256 18.9062C133.027 19.4271 132.912 19.9896 132.912 20.5938C132.912 21.2188 133.027 21.7917 133.256 22.3125C133.485 22.8125 133.787 23.25 134.162 23.625C134.558 24 135.006 24.2917 135.506 24.5C136.027 24.7083 136.579 24.8125 137.162 24.8125C137.746 24.8125 138.298 24.7083 138.819 24.5C139.34 24.2917 139.787 24 140.162 23.625C140.558 23.25 140.86 22.8125 141.069 22.3125C141.298 21.7917 141.412 21.2188 141.412 20.5938ZM148.412 30.2812C147.121 30.5729 145.787 30.8438 144.412 31.0938C143.037 31.3438 141.673 31.5729 140.319 31.7812C138.965 31.9896 137.662 32.1771 136.412 32.3438C135.162 32.4896 134.037 32.6042 133.037 32.6875C132.829 32.7083 132.527 32.7396 132.131 32.7812C131.735 32.8021 131.298 32.8438 130.819 32.9062C130.36 32.9479 129.892 33 129.412 33.0625C128.954 33.1042 128.548 33.1562 128.194 33.2188L126.6 30.5625C126.933 30.625 127.329 30.6771 127.787 30.7188C128.246 30.7604 128.715 30.8021 129.194 30.8438C129.673 30.8646 130.131 30.8854 130.569 30.9062C131.006 30.9062 131.371 30.9062 131.662 30.9062C134.621 30.8021 137.558 30.5729 140.475 30.2188C143.392 29.8646 146.037 29.4271 148.412 28.9062V14.25C148.412 13.6042 148.1 13.0833 147.475 12.6875C146.871 12.2708 145.881 11.8958 144.506 11.5625L145.037 10.4062C145.537 10.4688 146.09 10.5521 146.694 10.6562C147.298 10.7396 147.902 10.8438 148.506 10.9688C149.11 11.0729 149.683 11.1771 150.225 11.2812C150.787 11.3854 151.277 11.4688 151.694 11.5312C151.652 11.7188 151.61 11.9479 151.569 12.2188C151.527 12.4896 151.485 12.7708 151.444 13.0625C151.423 13.3333 151.402 13.5833 151.381 13.8125C151.36 14.0417 151.35 14.2083 151.35 14.3125V31.625C151.35 32.2708 151.329 33.0208 151.287 33.875C151.267 34.7083 151.225 35.5521 151.162 36.4062C151.121 37.2396 151.058 38.0312 150.975 38.7812C150.912 39.5521 150.84 40.1667 150.756 40.625L148.694 40.9062C148.652 40.5729 148.61 40.125 148.569 39.5625C148.548 39 148.517 38.3958 148.475 37.75C148.454 37.125 148.433 36.4792 148.412 35.8125C148.412 35.125 148.412 34.4792 148.412 33.875V30.2812ZM167.165 12.4375C168.04 12.5833 169.05 12.6979 170.196 12.7812C171.342 12.8438 172.54 12.8854 173.79 12.9062C175.04 12.9271 176.311 12.9167 177.602 12.875C178.894 12.8333 180.123 12.7812 181.29 12.7188C182.457 12.6562 183.519 12.5833 184.477 12.5C185.436 12.3958 186.227 12.2917 186.852 12.1875L186.384 14.625C185.113 14.5625 183.832 14.5208 182.54 14.5C181.269 14.4792 180.019 14.4688 178.79 14.4688C177.582 14.4688 176.425 14.4896 175.321 14.5312C174.217 14.5521 173.207 14.5938 172.29 14.6562V20.5938C172.29 20.9688 172.342 21.2083 172.446 21.3125C172.571 21.3958 172.873 21.4479 173.352 21.4688C174.144 21.4896 175.113 21.4792 176.259 21.4375C177.425 21.3958 178.644 21.3438 179.915 21.2812C181.186 21.1979 182.446 21.1042 183.696 21C184.946 20.875 186.061 20.75 187.04 20.625L186.54 23.0938C185.269 23.0312 183.946 22.9896 182.571 22.9688C181.196 22.9479 179.842 22.9479 178.509 22.9688C177.175 22.9896 175.905 23.0208 174.696 23.0625C173.509 23.1042 172.446 23.1562 171.509 23.2188C170.78 23.2604 170.227 23.0833 169.852 22.6875C169.498 22.2708 169.321 21.7708 169.321 21.1875V16.25C169.321 15.8125 169.29 15.4583 169.227 15.1875C169.165 14.9167 169.04 14.6875 168.852 14.5C168.665 14.3125 168.394 14.1458 168.04 14C167.686 13.8542 167.207 13.6979 166.602 13.5312L167.165 12.4375ZM192.009 28.5625C191.592 28.5417 191.102 28.5208 190.54 28.5C189.998 28.4792 189.405 28.4688 188.759 28.4688C188.113 28.4479 187.446 28.4271 186.759 28.4062C186.071 28.3854 185.384 28.375 184.696 28.375C184.113 28.375 183.373 28.375 182.477 28.375C181.582 28.375 180.602 28.3958 179.54 28.4375C178.498 28.4583 177.425 28.4896 176.321 28.5312C175.217 28.5521 174.165 28.5833 173.165 28.625C172.186 28.6458 171.3 28.6771 170.509 28.7188C169.717 28.7604 169.113 28.7917 168.696 28.8125C167.925 28.8542 167.082 28.9167 166.165 29C165.248 29.0833 164.425 29.1771 163.696 29.2812L162.634 26.5625C163.571 26.6667 164.571 26.7604 165.634 26.8438C166.717 26.9271 167.727 26.9896 168.665 27.0312C169.165 27.0521 169.832 27.0625 170.665 27.0625C171.498 27.0417 172.405 27.0312 173.384 27.0312C174.384 27.0104 175.415 26.9896 176.477 26.9688C177.561 26.9271 178.592 26.8958 179.571 26.875C180.55 26.8542 181.457 26.8333 182.29 26.8125C183.123 26.7708 183.79 26.7396 184.29 26.7188C185.686 26.6562 187.102 26.5625 188.54 26.4375C189.977 26.3125 191.269 26.1667 192.415 26L192.009 28.5625ZM188.196 39.625C186.905 39.5625 185.509 39.5104 184.009 39.4688C182.53 39.4479 181.061 39.4479 179.602 39.4688C178.144 39.4896 176.759 39.5104 175.446 39.5312C174.134 39.5729 173.009 39.625 172.071 39.6875C171.321 39.7292 170.79 39.5833 170.477 39.25C170.186 38.9167 170.04 38.5208 170.04 38.0625V34.8125C170.04 34.3542 170.019 33.9896 169.977 33.7188C169.936 33.4479 169.821 33.2188 169.634 33.0312C169.446 32.8438 169.165 32.6875 168.79 32.5625C168.436 32.4167 167.936 32.2604 167.29 32.0938L167.79 30.9375C168.102 30.9792 168.498 31.0312 168.977 31.0938C169.457 31.1562 169.946 31.2292 170.446 31.3125C170.967 31.375 171.467 31.4375 171.946 31.5C172.446 31.5625 172.852 31.6146 173.165 31.6562C173.123 31.9062 173.082 32.2812 173.04 32.7812C172.998 33.2812 172.977 33.7188 172.977 34.0938V37.0625C172.977 37.4583 173.04 37.6979 173.165 37.7812C173.29 37.8854 173.571 37.9479 174.009 37.9688C174.53 37.9896 175.165 37.9896 175.915 37.9688C176.686 37.9688 177.509 37.9479 178.384 37.9062C179.28 37.8854 180.196 37.8438 181.134 37.7812C182.092 37.7396 183.019 37.6875 183.915 37.625C184.832 37.5625 185.696 37.4896 186.509 37.4062C187.321 37.3438 188.03 37.2604 188.634 37.1562L188.196 39.625ZM196.291 12.4375C197.166 12.5833 198.177 12.6979 199.322 12.7812C200.468 12.8438 201.666 12.8854 202.916 12.9062C204.166 12.9271 205.437 12.9167 206.729 12.875C208.02 12.8333 209.25 12.7812 210.416 12.7188C211.583 12.6562 212.645 12.5833 213.604 12.5C214.562 12.3958 215.354 12.2917 215.979 12.1875L215.51 14.625C214.239 14.5625 212.958 14.5208 211.666 14.5C210.395 14.4792 209.145 14.4688 207.916 14.4688C206.708 14.4688 205.552 14.4896 204.447 14.5312C203.343 14.5521 202.333 14.5938 201.416 14.6562V20.5938C201.416 20.9688 201.468 21.2083 201.572 21.3125C201.697 21.3958 202 21.4479 202.479 21.4688C203.27 21.4896 204.239 21.4792 205.385 21.4375C206.552 21.3958 207.77 21.3438 209.041 21.2812C210.312 21.1979 211.572 21.1042 212.822 21C214.072 20.875 215.187 20.75 216.166 20.625L215.666 23.0938C214.395 23.0312 213.072 22.9896 211.697 22.9688C210.322 22.9479 208.968 22.9479 207.635 22.9688C206.302 22.9896 205.031 23.0208 203.822 23.0625C202.635 23.1042 201.572 23.1562 200.635 23.2188C199.906 23.2604 199.354 23.0833 198.979 22.6875C198.625 22.2708 198.447 21.7708 198.447 21.1875V16.25C198.447 15.8125 198.416 15.4583 198.354 15.1875C198.291 14.9167 198.166 14.6875 197.979 14.5C197.791 14.3125 197.52 14.1458 197.166 14C196.812 13.8542 196.333 13.6979 195.729 13.5312L196.291 12.4375ZM221.135 28.5625C220.718 28.5417 220.229 28.5208 219.666 28.5C219.125 28.4792 218.531 28.4688 217.885 28.4688C217.239 28.4479 216.572 28.4271 215.885 28.4062C215.197 28.3854 214.51 28.375 213.822 28.375C213.239 28.375 212.5 28.375 211.604 28.375C210.708 28.375 209.729 28.3958 208.666 28.4375C207.625 28.4583 206.552 28.4896 205.447 28.5312C204.343 28.5521 203.291 28.5833 202.291 28.625C201.312 28.6458 200.427 28.6771 199.635 28.7188C198.843 28.7604 198.239 28.7917 197.822 28.8125C197.052 28.8542 196.208 28.9167 195.291 29C194.375 29.0833 193.552 29.1771 192.822 29.2812L191.76 26.5625C192.697 26.6667 193.697 26.7604 194.76 26.8438C195.843 26.9271 196.854 26.9896 197.791 27.0312C198.291 27.0521 198.958 27.0625 199.791 27.0625C200.625 27.0417 201.531 27.0312 202.51 27.0312C203.51 27.0104 204.541 26.9896 205.604 26.9688C206.687 26.9271 207.718 26.8958 208.697 26.875C209.677 26.8542 210.583 26.8333 211.416 26.8125C212.25 26.7708 212.916 26.7396 213.416 26.7188C214.812 26.6562 216.229 26.5625 217.666 26.4375C219.104 26.3125 220.395 26.1667 221.541 26L221.135 28.5625ZM217.322 39.625C216.031 39.5625 214.635 39.5104 213.135 39.4688C211.656 39.4479 210.187 39.4479 208.729 39.4688C207.27 39.4896 205.885 39.5104 204.572 39.5312C203.26 39.5729 202.135 39.625 201.197 39.6875C200.447 39.7292 199.916 39.5833 199.604 39.25C199.312 38.9167 199.166 38.5208 199.166 38.0625V34.8125C199.166 34.3542 199.145 33.9896 199.104 33.7188C199.062 33.4479 198.947 33.2188 198.76 33.0312C198.572 32.8438 198.291 32.6875 197.916 32.5625C197.562 32.4167 197.062 32.2604 196.416 32.0938L196.916 30.9375C197.229 30.9792 197.625 31.0312 198.104 31.0938C198.583 31.1562 199.072 31.2292 199.572 31.3125C200.093 31.375 200.593 31.4375 201.072 31.5C201.572 31.5625 201.979 31.6146 202.291 31.6562C202.25 31.9062 202.208 32.2812 202.166 32.7812C202.125 33.2812 202.104 33.7188 202.104 34.0938V37.0625C202.104 37.4583 202.166 37.6979 202.291 37.7812C202.416 37.8854 202.697 37.9479 203.135 37.9688C203.656 37.9896 204.291 37.9896 205.041 37.9688C205.812 37.9688 206.635 37.9479 207.51 37.9062C208.406 37.8854 209.322 37.8438 210.26 37.7812C211.218 37.7396 212.145 37.6875 213.041 37.625C213.958 37.5625 214.822 37.4896 215.635 37.4062C216.447 37.3438 217.156 37.2604 217.76 37.1562L217.322 39.625ZM244.824 27.125C244.824 27.6042 244.803 28.1146 244.761 28.6562C244.74 29.1979 244.709 29.75 244.667 30.3125C244.626 30.8542 244.574 31.375 244.511 31.875C244.47 32.3542 244.417 32.7708 244.355 33.125L242.136 33.4688C242.095 33.2188 242.063 32.875 242.042 32.4375C242.022 32 241.99 31.5312 241.949 31.0312C241.928 30.5104 241.907 30 241.886 29.5C241.886 28.9792 241.886 28.5312 241.886 28.1562V14.25C241.886 13.6042 241.584 13.0833 240.98 12.6875C240.397 12.2708 239.417 11.8958 238.042 11.5625L238.542 10.4062C239.063 10.4688 239.626 10.5521 240.23 10.6562C240.834 10.7396 241.438 10.8438 242.042 10.9688C242.647 11.0729 243.22 11.1771 243.761 11.2812C244.324 11.3854 244.803 11.4688 245.199 11.5312C245.157 11.7188 245.105 11.9479 245.042 12.2188C245.001 12.4896 244.959 12.7708 244.917 13.0625C244.897 13.3333 244.876 13.5833 244.855 13.8125C244.834 14.0417 244.824 14.2083 244.824 14.3125V22.2188C245.72 22.1562 246.73 22.0625 247.855 21.9375C248.98 21.7917 250.011 21.6354 250.949 21.4688L250.667 23.9375C250.292 23.9375 249.865 23.9375 249.386 23.9375C248.907 23.9375 248.397 23.9375 247.855 23.9375C247.334 23.9375 246.803 23.9375 246.261 23.9375C245.74 23.9375 245.261 23.9375 244.824 23.9375V27.125ZM246.792 39.4375C245.501 39.4167 244.188 39.4062 242.855 39.4062C241.542 39.4062 240.251 39.4167 238.98 39.4375C237.73 39.4583 236.532 39.4896 235.386 39.5312C234.261 39.5729 233.23 39.625 232.292 39.6875C231.563 39.7292 231.032 39.5833 230.699 39.25C230.386 38.9167 230.23 38.5208 230.23 38.0625V34.8125C230.23 34.3542 230.209 33.9896 230.167 33.7188C230.126 33.4479 230.011 33.2188 229.824 33.0312C229.636 32.8438 229.355 32.6875 228.98 32.5625C228.626 32.4167 228.136 32.2604 227.511 32.0938L228.074 30.9375C228.365 30.9792 228.74 31.0312 229.199 31.0938C229.678 31.1562 230.167 31.2292 230.667 31.3125C231.188 31.375 231.688 31.4375 232.167 31.5C232.667 31.5625 233.074 31.6146 233.386 31.6562C233.345 31.9062 233.303 32.2812 233.261 32.7812C233.22 33.2812 233.199 33.7188 233.199 34.0938V37.0625C233.199 37.4583 233.261 37.6979 233.386 37.7812C233.511 37.8854 233.803 37.9479 234.261 37.9688C235.053 37.9896 236.001 37.9688 237.105 37.9062C238.209 37.8646 239.355 37.7917 240.542 37.6875C241.751 37.6042 242.938 37.5 244.105 37.375C245.272 37.25 246.303 37.125 247.199 37L246.792 39.4375ZM237.636 24.75C237.636 25.4375 237.47 26.0938 237.136 26.7188C236.803 27.3438 236.334 27.8854 235.73 28.3438C235.147 28.8021 234.459 29.1667 233.667 29.4375C232.876 29.7083 232.011 29.8438 231.074 29.8438C230.157 29.8438 229.303 29.7083 228.511 29.4375C227.72 29.1667 227.022 28.8021 226.417 28.3438C225.834 27.8646 225.376 27.3229 225.042 26.7188C224.709 26.0938 224.542 25.4375 224.542 24.75C224.542 24 224.709 23.3229 225.042 22.7188C225.397 22.0938 225.865 21.5521 226.449 21.0938C227.032 20.6354 227.72 20.2812 228.511 20.0312C229.303 19.7812 230.157 19.6562 231.074 19.6562C232.032 19.6562 232.917 19.8021 233.73 20.0938C234.542 20.3646 235.23 20.7396 235.792 21.2188C236.376 21.6771 236.824 22.2188 237.136 22.8438C237.47 23.4479 237.636 24.0833 237.636 24.75ZM227.667 24.625C227.667 25.125 227.751 25.5938 227.917 26.0312C228.105 26.4479 228.355 26.8229 228.667 27.1562C228.98 27.4896 229.345 27.75 229.761 27.9375C230.178 28.125 230.626 28.2188 231.105 28.2188C231.563 28.2188 232.001 28.125 232.417 27.9375C232.834 27.75 233.199 27.5 233.511 27.1875C233.824 26.8542 234.074 26.4688 234.261 26.0312C234.449 25.5938 234.542 25.125 234.542 24.625C234.542 24.1667 234.449 23.7188 234.261 23.2812C234.095 22.8438 233.855 22.4688 233.542 22.1562C233.23 21.8229 232.865 21.5625 232.449 21.375C232.032 21.1667 231.584 21.0625 231.105 21.0625C230.626 21.0625 230.178 21.1562 229.761 21.3438C229.345 21.5104 228.98 21.75 228.667 22.0625C228.355 22.375 228.105 22.75 227.917 23.1875C227.751 23.625 227.667 24.1042 227.667 24.625ZM239.824 18.1562C239.345 18.1562 238.761 18.1562 238.074 18.1562C237.386 18.1562 236.636 18.1667 235.824 18.1875C235.032 18.2083 234.209 18.2292 233.355 18.25C232.501 18.2708 231.678 18.2917 230.886 18.3125C230.095 18.3333 229.365 18.3542 228.699 18.375C228.032 18.3958 227.48 18.4167 227.042 18.4375C226.792 18.4583 226.459 18.4896 226.042 18.5312C225.647 18.5521 225.23 18.5833 224.792 18.625C224.355 18.6667 223.938 18.7083 223.542 18.75C223.147 18.7917 222.824 18.8333 222.574 18.875L221.386 16.3125C221.657 16.375 222.001 16.4375 222.417 16.5C222.834 16.5625 223.261 16.6146 223.699 16.6562C224.136 16.6979 224.563 16.7396 224.98 16.7812C225.397 16.8021 225.751 16.8125 226.042 16.8125C226.751 16.8125 227.688 16.8021 228.855 16.7812C230.042 16.7396 231.303 16.6875 232.636 16.625C233.99 16.5417 235.334 16.4375 236.667 16.3125C238.022 16.1875 239.209 16.0312 240.23 15.8438L239.824 18.1562ZM235.199 14.5938C234.845 14.5938 234.459 14.5938 234.042 14.5938C233.626 14.5938 233.209 14.6042 232.792 14.625C232.376 14.625 231.97 14.6354 231.574 14.6562C231.199 14.6562 230.876 14.6562 230.605 14.6562C230.459 14.6562 230.251 14.6667 229.98 14.6875C229.709 14.6875 229.407 14.7083 229.074 14.75C228.74 14.7708 228.407 14.8021 228.074 14.8438C227.74 14.8646 227.438 14.8958 227.167 14.9375L225.886 12.5938C226.136 12.6562 226.449 12.7188 226.824 12.7812C227.199 12.8229 227.584 12.875 227.98 12.9375C228.397 12.9792 228.792 13.0208 229.167 13.0625C229.563 13.0833 229.897 13.0938 230.167 13.0938C230.417 13.0938 230.761 13.0833 231.199 13.0625C231.636 13.0417 232.105 13.0104 232.605 12.9688C233.126 12.9062 233.647 12.8542 234.167 12.8125C234.709 12.75 235.22 12.6875 235.699 12.625L235.199 14.5938ZM273.451 28.8438C274.451 28.7188 275.42 28.5833 276.358 28.4375C277.316 28.2917 278.233 28.1354 279.108 27.9688V14.25C279.108 13.6042 278.805 13.0833 278.201 12.6875C277.618 12.2708 276.639 11.8958 275.264 11.5625L275.733 10.4062C276.253 10.4688 276.816 10.5521 277.42 10.6562C278.045 10.7396 278.66 10.8438 279.264 10.9688C279.868 11.0729 280.441 11.1771 280.983 11.2812C281.524 11.3854 281.993 11.4688 282.389 11.5312C282.347 11.7188 282.305 11.9479 282.264 12.2188C282.222 12.4896 282.18 12.7708 282.139 13.0625C282.118 13.3333 282.097 13.5833 282.076 13.8125C282.055 14.0417 282.045 14.2083 282.045 14.3125V22.9375C282.483 22.9167 282.962 22.8854 283.483 22.8438C284.024 22.7812 284.566 22.7188 285.108 22.6562C285.67 22.5938 286.212 22.5312 286.733 22.4688C287.274 22.3854 287.785 22.3021 288.264 22.2188L287.983 24.75C287.608 24.7292 287.17 24.7188 286.67 24.7188C286.17 24.7188 285.649 24.7188 285.108 24.7188C284.587 24.7188 284.055 24.7188 283.514 24.7188C282.972 24.7188 282.483 24.7188 282.045 24.7188V31.625C282.045 32.2708 282.035 33.0208 282.014 33.875C281.993 34.7083 281.951 35.5521 281.889 36.4062C281.847 37.2396 281.795 38.0312 281.733 38.7812C281.67 39.5521 281.608 40.1667 281.545 40.625L279.389 40.9062C279.347 40.5729 279.305 40.125 279.264 39.5625C279.243 39 279.212 38.3958 279.17 37.75C279.149 37.125 279.128 36.4792 279.108 35.8125C279.108 35.125 279.108 34.4792 279.108 33.875V29.3125C276.649 29.875 274.222 30.3333 271.826 30.6875C269.451 31.0208 267.285 31.2708 265.326 31.4375C265.097 31.4583 264.774 31.4896 264.358 31.5312C263.941 31.5521 263.493 31.5938 263.014 31.6562C262.555 31.6979 262.087 31.75 261.608 31.8125C261.149 31.8542 260.743 31.9062 260.389 31.9688L258.858 29.3125C259.191 29.375 259.587 29.4375 260.045 29.5C260.503 29.5417 260.962 29.5938 261.42 29.6562C261.899 29.6979 262.358 29.7292 262.795 29.75C263.233 29.7708 263.587 29.7708 263.858 29.75C263.962 29.75 264.055 29.75 264.139 29.75C264.222 29.75 264.305 29.7396 264.389 29.7188L263.889 22.7188C263.847 22.1146 263.701 21.625 263.451 21.25C263.201 20.875 262.639 20.6458 261.764 20.5625L261.983 19.4688C262.587 19.4688 263.337 19.5 264.233 19.5625C265.149 19.6042 265.972 19.6771 266.701 19.7812C266.597 20.1562 266.545 20.6354 266.545 21.2188C266.566 21.7812 266.597 22.2604 266.639 22.6562L267.045 29.5312C268.337 29.4271 269.597 29.3021 270.826 29.1562L271.108 22.125C271.128 21.7917 271.108 21.5104 271.045 21.2812C271.003 21.0312 270.899 20.8229 270.733 20.6562C270.587 20.4896 270.368 20.3438 270.076 20.2188C269.785 20.0938 269.399 19.9792 268.92 19.875L269.264 18.8125C269.889 18.875 270.649 18.9583 271.545 19.0625C272.441 19.1458 273.378 19.2917 274.358 19.5C274.191 20.0417 274.055 20.5729 273.951 21.0938C273.868 21.5938 273.816 21.9688 273.795 22.2188L273.451 28.8438ZM276.514 17.75C275.66 17.7083 274.691 17.6979 273.608 17.7188C272.545 17.7396 271.483 17.7812 270.42 17.8438C269.358 17.8854 268.358 17.9375 267.42 18C266.483 18.0625 265.733 18.1042 265.17 18.125C264.92 18.1458 264.587 18.1771 264.17 18.2188C263.753 18.2396 263.316 18.2708 262.858 18.3125C262.399 18.3542 261.951 18.3958 261.514 18.4375C261.097 18.4792 260.753 18.5208 260.483 18.5625L259.389 15.9688C259.68 16.0312 260.055 16.0938 260.514 16.1562C260.972 16.2188 261.441 16.2812 261.92 16.3438C262.399 16.3854 262.868 16.4271 263.326 16.4688C263.805 16.4896 264.201 16.5 264.514 16.5C265.243 16.5 266.097 16.4688 267.076 16.4062C268.055 16.3438 269.097 16.2708 270.201 16.1875C271.305 16.0833 272.441 15.9688 273.608 15.8438C274.795 15.6979 275.962 15.5417 277.108 15.375L276.514 17.75ZM296.484 21.0625C297.484 21.0417 298.671 21.0104 300.046 20.9688C301.442 20.9271 302.838 20.8646 304.234 20.7812C305.65 20.6979 307.005 20.6042 308.296 20.5C309.588 20.3958 310.64 20.2812 311.453 20.1562L311.015 22.5938C309.911 22.5521 308.713 22.5208 307.421 22.5C306.15 22.4792 304.859 22.4792 303.546 22.5C302.255 22.5208 300.994 22.5521 299.765 22.5938C298.557 22.6146 297.463 22.6458 296.484 22.6875V26.625C296.484 27.0208 296.546 27.2708 296.671 27.375C296.796 27.4583 297.098 27.5104 297.578 27.5312C298.098 27.5521 298.734 27.5521 299.484 27.5312C300.234 27.5104 301.046 27.4896 301.921 27.4688C302.796 27.4271 303.703 27.3854 304.64 27.3438C305.598 27.2812 306.536 27.2188 307.453 27.1562C308.369 27.0729 309.244 26.9896 310.078 26.9062C310.911 26.8229 311.65 26.7396 312.296 26.6562L311.828 29.125C310.557 29.0625 309.171 29.0312 307.671 29.0312C306.192 29.0104 304.713 29.0104 303.234 29.0312C301.775 29.0521 300.39 29.0833 299.078 29.125C297.765 29.1458 296.64 29.1875 295.703 29.25C294.973 29.2917 294.432 29.1146 294.078 28.7188C293.723 28.3229 293.546 27.8333 293.546 27.25V18.0312C293.546 17.5938 293.515 17.2396 293.453 16.9688C293.39 16.6979 293.265 16.4688 293.078 16.2812C292.89 16.0729 292.619 15.9062 292.265 15.7812C291.911 15.6354 291.432 15.4792 290.828 15.3125L291.359 14.2188C292.234 14.3646 293.265 14.4792 294.453 14.5625C295.661 14.625 296.932 14.6667 298.265 14.6875C299.598 14.6875 300.953 14.6771 302.328 14.6562C303.703 14.6146 305.015 14.5625 306.265 14.5C307.515 14.4375 308.65 14.3646 309.671 14.2812C310.692 14.1771 311.515 14.0833 312.14 14L311.64 16.4375C310.369 16.3542 309.036 16.3021 307.64 16.2812C306.265 16.2396 304.9 16.2292 303.546 16.25C302.213 16.25 300.932 16.2708 299.703 16.3125C298.494 16.3542 297.421 16.4062 296.484 16.4688V21.0625ZM316.39 35.6562C315.557 35.6146 314.473 35.5833 313.14 35.5625C311.807 35.5417 310.442 35.5208 309.046 35.5C308.463 35.5 307.755 35.5104 306.921 35.5312C306.088 35.5312 305.182 35.5521 304.203 35.5938C303.244 35.6146 302.255 35.6458 301.234 35.6875C300.234 35.7083 299.275 35.7396 298.359 35.7812C297.442 35.8021 296.609 35.8333 295.859 35.875C295.13 35.9167 294.557 35.9479 294.14 35.9688C293.348 36.0104 292.505 36.0729 291.609 36.1562C290.713 36.2396 289.88 36.3333 289.109 36.4375L288.109 33.6875C289.046 33.7917 290.036 33.8854 291.078 33.9688C292.14 34.0312 293.15 34.0833 294.109 34.125C294.63 34.1458 295.275 34.1562 296.046 34.1562C296.838 34.1562 297.682 34.1562 298.578 34.1562C299.494 34.1354 300.432 34.1146 301.39 34.0938C302.369 34.0521 303.307 34.0208 304.203 34C305.119 33.9792 305.963 33.9583 306.734 33.9375C307.505 33.8958 308.14 33.8646 308.64 33.8438C310.036 33.7812 311.453 33.6875 312.89 33.5625C314.348 33.4167 315.64 33.2604 316.765 33.0938L316.39 35.6562ZM338.641 22.25C337.954 22.2708 337.214 22.3021 336.422 22.3438C335.652 22.3854 334.881 22.4375 334.11 22.5C333.36 22.5625 332.652 22.6354 331.985 22.7188C331.339 22.7812 330.818 22.8542 330.422 22.9375L329.297 20.5C329.506 20.5417 329.777 20.5833 330.11 20.625C330.443 20.6667 330.808 20.7083 331.204 20.75C331.6 20.7708 331.995 20.7917 332.391 20.8125C332.787 20.8125 333.141 20.8125 333.454 20.8125C333.766 20.8125 334.141 20.8125 334.579 20.8125C335.016 20.7917 335.475 20.7812 335.954 20.7812C336.433 20.7604 336.902 20.75 337.36 20.75C337.839 20.7292 338.266 20.7083 338.641 20.6875V14.25C338.641 13.6042 338.329 13.0833 337.704 12.6875C337.1 12.2708 336.11 11.8958 334.735 11.5625L335.266 10.4062C335.766 10.4688 336.318 10.5521 336.922 10.6562C337.527 10.7396 338.131 10.8438 338.735 10.9688C339.339 11.0729 339.912 11.1771 340.454 11.2812C341.016 11.3854 341.506 11.4688 341.922 11.5312C341.881 11.7188 341.839 11.9479 341.797 12.2188C341.756 12.4896 341.714 12.7708 341.672 13.0625C341.652 13.3333 341.631 13.5833 341.61 13.8125C341.589 14.0417 341.579 14.2083 341.579 14.3125V31.625C341.579 32.2708 341.558 33.0208 341.516 33.875C341.495 34.7083 341.454 35.5521 341.391 36.4062C341.35 37.2396 341.297 38.0312 341.235 38.7812C341.172 39.5521 341.1 40.1667 341.016 40.625L338.922 40.9062C338.881 40.5729 338.839 40.125 338.797 39.5625C338.777 39 338.745 38.3958 338.704 37.75C338.683 37.125 338.662 36.4792 338.641 35.8125C338.641 35.125 338.641 34.4792 338.641 33.875V22.25ZM321.547 19.1562C321.547 18.8229 321.506 18.5521 321.422 18.3438C321.36 18.1146 321.214 17.9167 320.985 17.75C320.777 17.5833 320.464 17.4375 320.047 17.3125C319.631 17.1875 319.079 17.0625 318.391 16.9375L318.829 15.7812C319.891 15.8229 320.954 15.9167 322.016 16.0625C323.1 16.1875 324.037 16.3229 324.829 16.4688C324.787 16.6562 324.745 16.8854 324.704 17.1562C324.662 17.4271 324.62 17.6979 324.579 17.9688C324.558 18.2396 324.537 18.4896 324.516 18.7188C324.495 18.9479 324.485 19.1146 324.485 19.2188V28.4688C324.485 28.8229 324.547 29.0625 324.672 29.1875C324.818 29.3125 325.006 29.3646 325.235 29.3438C325.964 29.2812 326.777 29.1875 327.672 29.0625C328.589 28.9167 329.547 28.7396 330.547 28.5312C331.547 28.3021 332.568 28.0417 333.61 27.75C334.672 27.4583 335.714 27.125 336.735 26.75V28.1875C334.881 28.9583 332.902 29.6458 330.797 30.25C328.714 30.8333 326.641 31.2917 324.579 31.625C323.516 31.7917 322.745 31.6562 322.266 31.2188C321.787 30.7812 321.547 30.0625 321.547 29.0625V19.1562Z" fill="#012B95"/>
<path d="M19.32 105.64C19.32 105.864 19.208 105.976 18.984 105.976H18C17.776 105.976 17.664 105.864 17.664 105.64V93.568C17.664 93.344 17.776 93.232 18 93.232H18.984C19.208 93.232 19.32 93.344 19.32 93.568V105.64ZM5.616 108.928C5.616 108.256 5.744 107.808 6 107.584C6.256 107.344 6.736 107.224 7.44 107.224H17.496C17.88 107.224 18.184 107.248 18.408 107.296C18.648 107.344 18.832 107.432 18.96 107.56C19.104 107.688 19.2 107.864 19.248 108.088C19.296 108.312 19.32 108.592 19.32 108.928V113.464C19.32 114.136 19.192 114.584 18.936 114.808C18.68 115.048 18.2 115.168 17.496 115.168H7.44C7.056 115.168 6.744 115.144 6.504 115.096C6.28 115.048 6.096 114.952 5.952 114.808C5.824 114.68 5.736 114.504 5.688 114.28C5.64 114.072 5.616 113.8 5.616 113.464V108.928ZM7.848 108.664C7.624 108.664 7.472 108.712 7.392 108.808C7.312 108.888 7.272 109.048 7.272 109.288V113.104C7.272 113.344 7.312 113.504 7.392 113.584C7.472 113.68 7.624 113.728 7.848 113.728H17.088C17.312 113.728 17.464 113.68 17.544 113.584C17.624 113.504 17.664 113.344 17.664 113.104V109.288C17.664 109.048 17.624 108.888 17.544 108.808C17.464 108.712 17.312 108.664 17.088 108.664H7.848ZM12.864 95.968C12.496 98.192 11.528 100.152 9.96 101.848C8.392 103.544 6.12 105.016 3.144 106.264C2.872 106.376 2.696 106.328 2.616 106.12L2.256 105.328C2.192 105.2 2.184 105.096 2.232 105.016C2.296 104.936 2.368 104.88 2.448 104.848C4.992 103.792 6.984 102.544 8.424 101.104C9.88 99.648 10.76 98.08 11.064 96.4C11.16 95.936 10.968 95.704 10.488 95.704H3.096C2.904 95.704 2.808 95.6 2.808 95.392V94.552C2.808 94.36 2.904 94.264 3.096 94.264H11.04C11.808 94.264 12.328 94.4 12.6 94.672C12.872 94.944 12.96 95.376 12.864 95.968ZM35.6503 103.864C35.6503 104.44 35.5223 104.984 35.2663 105.496C35.0103 106.008 34.6583 106.456 34.2103 106.84C33.7783 107.224 33.2583 107.528 32.6503 107.752C32.0423 107.96 31.3863 108.064 30.6823 108.064C29.9783 108.064 29.3223 107.96 28.7143 107.752C28.1063 107.528 27.5783 107.224 27.1303 106.84C26.6983 106.456 26.3543 106.008 26.0983 105.496C25.8583 104.984 25.7383 104.44 25.7383 103.864C25.7383 103.288 25.8583 102.752 26.0983 102.256C26.3543 101.744 26.6983 101.304 27.1303 100.936C27.5783 100.552 28.1063 100.256 28.7143 100.048C29.3223 99.824 29.9783 99.712 30.6823 99.712C31.3863 99.712 32.0423 99.824 32.6503 100.048C33.2583 100.256 33.7783 100.552 34.2103 100.936C34.6583 101.304 35.0103 101.744 35.2663 102.256C35.5223 102.752 35.6503 103.288 35.6503 103.864ZM41.0503 109.96C41.0503 110.184 40.9383 110.296 40.7143 110.296H39.7303C39.5063 110.296 39.3943 110.184 39.3943 109.96V93.568C39.3943 93.344 39.5063 93.232 39.7303 93.232H40.7143C40.9383 93.232 41.0503 93.344 41.0503 93.568V101.512H44.3623C44.4583 101.512 44.5383 101.544 44.6023 101.608C44.6823 101.656 44.7223 101.728 44.7223 101.824V102.64C44.7223 102.72 44.6823 102.792 44.6023 102.856C44.5383 102.92 44.4583 102.952 44.3623 102.952H41.0503V109.96ZM34.0183 103.864C34.0183 103.48 33.9303 103.128 33.7543 102.808C33.5943 102.472 33.3623 102.184 33.0583 101.944C32.7703 101.704 32.4183 101.52 32.0023 101.392C31.6023 101.248 31.1623 101.176 30.6823 101.176C30.2023 101.176 29.7623 101.248 29.3623 101.392C28.9623 101.52 28.6103 101.704 28.3063 101.944C28.0023 102.184 27.7623 102.472 27.5863 102.808C27.4263 103.128 27.3463 103.48 27.3463 103.864C27.3463 104.248 27.4263 104.608 27.5863 104.944C27.7623 105.28 28.0023 105.568 28.3063 105.808C28.6103 106.048 28.9623 106.24 29.3623 106.384C29.7623 106.528 30.2023 106.6 30.6823 106.6C31.1623 106.6 31.6023 106.528 32.0023 106.384C32.4183 106.24 32.7703 106.048 33.0583 105.808C33.3623 105.568 33.5943 105.28 33.7543 104.944C33.9303 104.608 34.0183 104.248 34.0183 103.864ZM42.1303 114.712C42.1303 114.808 42.0903 114.88 42.0103 114.928C41.9303 114.976 41.8503 115 41.7703 115H29.3863C28.6343 115 28.1383 114.856 27.8983 114.568C27.6743 114.296 27.5623 113.832 27.5623 113.176V109.864C27.5623 109.64 27.6743 109.528 27.8983 109.528H28.8823C29.1063 109.528 29.2183 109.64 29.2183 109.864V113.08C29.2183 113.304 29.2503 113.44 29.3143 113.488C29.3943 113.536 29.5463 113.56 29.7703 113.56H41.7703C41.8503 113.56 41.9303 113.584 42.0103 113.632C42.0903 113.696 42.1303 113.768 42.1303 113.848V114.712ZM37.6663 98.248C37.6663 98.456 37.5463 98.56 37.3063 98.56H24.0583C23.9783 98.56 23.8983 98.528 23.8183 98.464C23.7543 98.4 23.7223 98.32 23.7223 98.224V97.456C23.7223 97.36 23.7543 97.28 23.8183 97.216C23.8983 97.152 23.9783 97.12 24.0583 97.12H37.3063C37.5463 97.12 37.6663 97.224 37.6663 97.432V98.248ZM34.1623 94.984C34.1623 95.192 34.0423 95.296 33.8023 95.296H27.2263C27.1463 95.296 27.0663 95.272 26.9863 95.224C26.9223 95.176 26.8903 95.104 26.8903 95.008V94.168C26.8903 94.072 26.9223 93.992 26.9863 93.928C27.0503 93.864 27.1223 93.832 27.2023 93.832H33.8023C34.0423 93.832 34.1623 93.944 34.1623 94.168V94.984ZM58.3166 103.336C58.3166 103.88 58.2046 104.376 57.9806 104.824C57.7726 105.272 57.4766 105.664 57.0926 106C56.7086 106.336 56.2446 106.616 55.7006 106.84C55.1726 107.048 54.5886 107.184 53.9486 107.248V109.744C54.4926 109.712 55.0606 109.672 55.6526 109.624C56.2446 109.56 56.8206 109.496 57.3806 109.432C57.9566 109.352 58.5086 109.272 59.0366 109.192C59.5646 109.112 60.0446 109.032 60.4766 108.952C60.7326 108.904 60.8686 108.96 60.8846 109.12L61.0286 110.032C61.0606 110.224 60.9566 110.336 60.7166 110.368C59.6446 110.544 58.4686 110.704 57.1886 110.848C55.9086 110.992 54.6206 111.104 53.3246 111.184C52.8606 111.216 52.3166 111.24 51.6926 111.256C51.0686 111.272 50.4286 111.288 49.7726 111.304C49.1326 111.304 48.5006 111.304 47.8766 111.304C47.2686 111.304 46.7406 111.296 46.2926 111.28C46.1966 111.28 46.1086 111.248 46.0286 111.184C45.9646 111.12 45.9326 111.048 45.9326 110.968V110.152C45.9326 110.056 45.9646 109.984 46.0286 109.936C46.1086 109.872 46.1966 109.84 46.2926 109.84C46.6446 109.856 47.0606 109.872 47.5406 109.888C48.0366 109.888 48.5486 109.888 49.0766 109.888C49.6206 109.872 50.1646 109.864 50.7086 109.864C51.2686 109.848 51.7966 109.832 52.2926 109.816V107.272C51.6366 107.208 51.0366 107.072 50.4926 106.864C49.9646 106.64 49.5086 106.36 49.1246 106.024C48.7406 105.672 48.4366 105.272 48.2126 104.824C48.0046 104.36 47.9006 103.864 47.9006 103.336C47.9006 102.744 48.0286 102.208 48.2846 101.728C48.5566 101.232 48.9246 100.816 49.3886 100.48C49.8526 100.128 50.3966 99.864 51.0206 99.688C51.6606 99.496 52.3566 99.4 53.1086 99.4C53.8446 99.4 54.5326 99.496 55.1726 99.688C55.8126 99.88 56.3646 100.152 56.8286 100.504C57.2926 100.84 57.6526 101.248 57.9086 101.728C58.1806 102.208 58.3166 102.744 58.3166 103.336ZM63.6206 115.024C63.6206 115.248 63.5086 115.36 63.2846 115.36H62.3006C62.0766 115.36 61.9646 115.248 61.9646 115.024V93.568C61.9646 93.344 62.0766 93.232 62.3006 93.232H63.2846C63.5086 93.232 63.6206 93.344 63.6206 93.568V102.952H66.9326C67.0286 102.952 67.1086 102.984 67.1726 103.048C67.2526 103.096 67.2926 103.168 67.2926 103.264V104.08C67.2926 104.16 67.2526 104.232 67.1726 104.296C67.1086 104.36 67.0286 104.392 66.9326 104.392H63.6206V115.024ZM56.6846 103.336C56.6846 102.52 56.3486 101.896 55.6766 101.464C55.0046 101.032 54.1486 100.816 53.1086 100.816C52.5966 100.816 52.1166 100.872 51.6686 100.984C51.2366 101.096 50.8606 101.256 50.5406 101.464C50.2206 101.672 49.9646 101.936 49.7726 102.256C49.5966 102.576 49.5086 102.936 49.5086 103.336C49.5086 103.736 49.5966 104.096 49.7726 104.416C49.9646 104.72 50.2206 104.984 50.5406 105.208C50.8606 105.416 51.2366 105.584 51.6686 105.712C52.1166 105.824 52.5966 105.88 53.1086 105.88C54.1486 105.88 55.0046 105.656 55.6766 105.208C56.3486 104.76 56.6846 104.136 56.6846 103.336ZM59.8526 97.84C59.8526 98.048 59.7326 98.152 59.4926 98.152H46.7246C46.6446 98.152 46.5646 98.12 46.4846 98.056C46.4206 97.992 46.3886 97.912 46.3886 97.816V97.024C46.3886 96.928 46.4206 96.848 46.4846 96.784C46.5646 96.72 46.6446 96.688 46.7246 96.688H59.4926C59.7326 96.688 59.8526 96.792 59.8526 97V97.84ZM56.4686 94.816C56.4686 95.04 56.3486 95.152 56.1086 95.152H49.7726C49.6926 95.152 49.6126 95.128 49.5326 95.08C49.4686 95.016 49.4366 94.936 49.4366 94.84V94.024C49.4366 93.928 49.4686 93.848 49.5326 93.784C49.5966 93.72 49.6686 93.688 49.7486 93.688H56.1086C56.3486 93.688 56.4686 93.8 56.4686 94.024V94.816Z" fill="black"/>
</svg>
