<svg width="242" height="141" viewBox="0 0 242 141" fill="none" xmlns="http://www.w3.org/2000/svg">
<path d="M24.2188 25.2988C24.2188 25.9447 24.1979 26.6947 24.1562 27.5488C24.1354 28.3822 24.1042 29.2259 24.0625 30.0801C24.0208 30.9134 23.9688 31.7051 23.9062 32.4551C23.8438 33.2259 23.7812 33.8405 23.7188 34.2988L21.5625 34.5801C21.5208 34.2467 21.4792 33.7988 21.4375 33.2363C21.4167 32.6738 21.3854 32.0697 21.3438 31.4238C21.3229 30.7988 21.3021 30.153 21.2812 29.4863C21.2812 28.7988 21.2812 28.153 21.2812 27.5488V7.92383C21.2812 7.27799 20.9792 6.75716 20.375 6.36133C19.7917 5.94466 18.8125 5.56966 17.4375 5.23633L17.9062 4.08008C18.4271 4.14258 18.9896 4.22591 19.5938 4.33008C20.2188 4.41341 20.8333 4.51758 21.4375 4.64258C22.0417 4.74674 22.6146 4.85091 23.1562 4.95508C23.6979 5.05924 24.1667 5.14258 24.5625 5.20508C24.5208 5.39258 24.4792 5.62174 24.4375 5.89258C24.3958 6.16341 24.3542 6.44466 24.3125 6.73633C24.2917 7.00716 24.2708 7.25716 24.25 7.48633C24.2292 7.71549 24.2188 7.88216 24.2188 7.98633V17.7051C25.1354 17.6426 26.1562 17.5592 27.2812 17.4551C28.4062 17.3301 29.4375 17.1842 30.375 17.0176L30.0938 19.5488C29.7188 19.528 29.2812 19.5176 28.7812 19.5176C28.3021 19.5176 27.7917 19.5176 27.25 19.5176C26.7292 19.5176 26.2083 19.5176 25.6875 19.5176C25.1667 19.5176 24.6771 19.5176 24.2188 19.5176V25.2988ZM17.2812 10.3301C16.6562 12.1426 15.8333 13.8926 14.8125 15.5801C13.8125 17.2676 12.6562 18.8509 11.3438 20.3301C10.0312 21.8092 8.59375 23.1634 7.03125 24.3926C5.48958 25.6217 3.875 26.6842 2.1875 27.5801L1.3125 26.6113C2.79167 25.7363 4.17708 24.7051 5.46875 23.5176C6.78125 22.3092 7.94792 21.0384 8.96875 19.7051C10.0104 18.3717 10.8958 17.0072 11.625 15.6113C12.375 14.2155 12.9375 12.8822 13.3125 11.6113C13 11.6113 12.6042 11.6217 12.125 11.6426C11.6667 11.6634 11.1875 11.6842 10.6875 11.7051C10.1875 11.7051 9.70833 11.7155 9.25 11.7363C8.79167 11.7572 8.41667 11.7676 8.125 11.7676C7.89583 11.7676 7.59375 11.7884 7.21875 11.8301C6.84375 11.8717 6.4375 11.9134 6 11.9551C5.58333 11.9967 5.15625 12.0488 4.71875 12.1113C4.28125 12.153 3.88542 12.2051 3.53125 12.2676L1.90625 9.73633C2.17708 9.77799 2.52083 9.83008 2.9375 9.89258C3.35417 9.93424 3.79167 9.97591 4.25 10.0176C4.70833 10.0592 5.15625 10.1009 5.59375 10.1426C6.05208 10.1634 6.45833 10.1738 6.8125 10.1738C7.5625 10.1738 8.36458 10.1634 9.21875 10.1426C10.0938 10.1009 10.9479 10.0488 11.7812 9.98633C12.6354 9.92383 13.4479 9.84049 14.2188 9.73633C15.0104 9.63216 15.6979 9.51758 16.2812 9.39258L17.2812 10.3301ZM42.6562 14.8301C43.6562 15.6009 44.7292 16.3405 45.875 17.0488C47.0208 17.7572 48.3542 18.4863 49.875 19.2363L47.5938 21.2676C46.5521 20.3717 45.5417 19.4863 44.5625 18.6113C43.6042 17.7363 42.5938 16.8405 41.5312 15.9238C40.0312 17.403 38.4271 18.6947 36.7188 19.7988C35.0104 20.8822 33.3542 21.7676 31.75 22.4551L30.9062 21.4238C32.2396 20.778 33.5208 20.0176 34.75 19.1426C35.9792 18.2676 37.1146 17.3197 38.1562 16.2988C39.1979 15.2572 40.125 14.1634 40.9375 13.0176C41.7708 11.8509 42.4583 10.6634 43 9.45508C42.7083 9.45508 42.3646 9.46549 41.9688 9.48633C41.5729 9.50716 41.1667 9.52799 40.75 9.54883C40.3333 9.56966 39.9271 9.59049 39.5312 9.61133C39.1354 9.63216 38.7917 9.64258 38.5 9.64258C38.2708 9.64258 37.9688 9.66341 37.5938 9.70508C37.2188 9.74674 36.8125 9.78841 36.375 9.83008C35.9583 9.87174 35.5312 9.92383 35.0938 9.98633C34.6562 10.028 34.2604 10.0801 33.9062 10.1426L32.2812 7.64258C32.5312 7.68424 32.8646 7.73633 33.2812 7.79883C33.6979 7.84049 34.1354 7.88216 34.5938 7.92383C35.0729 7.96549 35.5312 8.00716 35.9688 8.04883C36.4271 8.06966 36.8333 8.08008 37.1875 8.08008C37.9375 8.08008 38.7083 8.06966 39.5 8.04883C40.3125 8.02799 41.1042 7.98633 41.875 7.92383C42.6458 7.86133 43.3854 7.77799 44.0938 7.67383C44.8229 7.56966 45.4792 7.44466 46.0625 7.29883L47.0312 8.20508C46.5521 9.45508 45.9375 10.6322 45.1875 11.7363C44.4375 12.8197 43.5938 13.8509 42.6562 14.8301ZM48.9375 23.4863C49.75 23.5905 50.4896 23.8092 51.1562 24.1426C51.8438 24.4551 52.4271 24.8509 52.9062 25.3301C53.4062 25.7884 53.7917 26.3197 54.0625 26.9238C54.3333 27.5072 54.4688 28.1426 54.4688 28.8301C54.4688 29.6009 54.2917 30.3092 53.9375 30.9551C53.6042 31.6217 53.125 32.1947 52.5 32.6738C51.8958 33.1738 51.1771 33.5592 50.3438 33.8301C49.5104 34.1009 48.6146 34.2363 47.6562 34.2363C46.6562 34.2363 45.7396 34.1009 44.9062 33.8301C44.0729 33.5592 43.3542 33.1738 42.75 32.6738C42.1458 32.1947 41.6667 31.6217 41.3125 30.9551C40.9792 30.3092 40.8125 29.6009 40.8125 28.8301C40.8125 28.1426 40.9479 27.4967 41.2188 26.8926C41.5104 26.2676 41.9167 25.7155 42.4375 25.2363C42.9583 24.7572 43.5625 24.3613 44.25 24.0488C44.9583 23.7363 45.7396 23.5384 46.5938 23.4551C46.5521 23.2051 46.4375 23.0072 46.25 22.8613C46.0625 22.7155 45.7292 22.5697 45.25 22.4238L45.7812 21.4863C46.2604 21.5905 46.8438 21.7155 47.5312 21.8613C48.2188 21.9863 48.8229 22.1113 49.3438 22.2363C49.1562 22.6947 49.0208 23.1113 48.9375 23.4863ZM51.375 28.6426C51.375 28.1009 51.2708 27.6009 51.0625 27.1426C50.875 26.6634 50.6042 26.2572 50.25 25.9238C49.9167 25.5697 49.5208 25.2988 49.0625 25.1113C48.6042 24.903 48.125 24.7988 47.625 24.7988C47.0833 24.7988 46.5833 24.903 46.125 25.1113C45.6667 25.2988 45.2604 25.5697 44.9062 25.9238C44.5729 26.2572 44.3021 26.6634 44.0938 27.1426C43.9062 27.6009 43.8125 28.1009 43.8125 28.6426C43.8125 29.1842 43.9062 29.6947 44.0938 30.1738C44.3021 30.6322 44.5729 31.028 44.9062 31.3613C45.2604 31.7155 45.6667 31.9863 46.125 32.1738C46.5833 32.3822 47.0833 32.4863 47.625 32.4863C48.1458 32.4863 48.625 32.3822 49.0625 32.1738C49.5208 31.9863 49.9167 31.7155 50.25 31.3613C50.6042 31.028 50.875 30.6322 51.0625 30.1738C51.2708 29.6947 51.375 29.1842 51.375 28.6426ZM54.5312 17.7988C54.5312 18.1738 54.5104 18.6113 54.4688 19.1113C54.4479 19.6113 54.4167 20.1217 54.375 20.6426C54.3333 21.1426 54.2812 21.6217 54.2188 22.0801C54.1771 22.5176 54.125 22.8613 54.0625 23.1113L51.8438 23.4551C51.8021 23.2259 51.7708 22.9447 51.75 22.6113C51.7292 22.278 51.6979 21.9342 51.6562 21.5801C51.6354 21.2051 51.6146 20.8405 51.5938 20.4863C51.5938 20.1322 51.5938 19.8092 51.5938 19.5176V7.92383C51.5938 7.27799 51.2917 6.75716 50.6875 6.36133C50.1042 5.94466 49.125 5.56966 47.75 5.23633L48.2188 4.08008C48.7396 4.14258 49.3021 4.22591 49.9062 4.33008C50.5312 4.41341 51.1458 4.51758 51.75 4.64258C52.3542 4.74674 52.9271 4.85091 53.4688 4.95508C54.0104 5.05924 54.4792 5.14258 54.875 5.20508C54.8333 5.39258 54.7917 5.62174 54.75 5.89258C54.7083 6.16341 54.6667 6.44466 54.625 6.73633C54.6042 7.00716 54.5833 7.25716 54.5625 7.48633C54.5417 7.71549 54.5312 7.88216 54.5312 7.98633V13.7051C54.9688 13.6842 55.4479 13.653 55.9688 13.6113C56.4896 13.5488 57.0208 13.4863 57.5625 13.4238C58.1042 13.3613 58.6354 13.2988 59.1562 13.2363C59.6979 13.153 60.2083 13.0697 60.6875 12.9863L60.3438 15.4551C59.9688 15.4342 59.5417 15.4238 59.0625 15.4238C58.5833 15.4238 58.0729 15.4238 57.5312 15.4238C57.0104 15.4238 56.4896 15.4238 55.9688 15.4238C55.4479 15.4238 54.9688 15.4238 54.5312 15.4238V17.7988ZM81.0938 9.14258C81.9688 9.26758 82.7604 9.50716 83.4688 9.86133C84.1771 10.1947 84.7917 10.6217 85.3125 11.1426C85.8333 11.6426 86.2292 12.2155 86.5 12.8613C86.7917 13.5072 86.9375 14.1947 86.9375 14.9238C86.9375 15.7572 86.75 16.5384 86.375 17.2676C86.0208 17.9759 85.5208 18.5905 84.875 19.1113C84.2292 19.6322 83.4583 20.0488 82.5625 20.3613C81.6667 20.653 80.6979 20.7988 79.6562 20.7988C78.6146 20.7988 77.6458 20.653 76.75 20.3613C75.875 20.0488 75.1146 19.6322 74.4688 19.1113C73.8229 18.5905 73.3229 17.9759 72.9688 17.2676C72.6146 16.5384 72.4375 15.7572 72.4375 14.9238C72.4375 14.153 72.5938 13.4342 72.9062 12.7676C73.2188 12.0801 73.6458 11.4863 74.1875 10.9863C74.75 10.4655 75.4167 10.0384 76.1875 9.70508C76.9583 9.37174 77.8125 9.16341 78.75 9.08008C78.7083 8.78841 78.5938 8.56966 78.4062 8.42383C78.2396 8.25716 77.9167 8.10091 77.4375 7.95508L77.9688 7.04883C78.1771 7.09049 78.4375 7.14258 78.75 7.20508C79.0625 7.26758 79.375 7.34049 79.6875 7.42383C80.0208 7.48633 80.3438 7.54883 80.6562 7.61133C80.9896 7.67383 81.2812 7.73633 81.5312 7.79883C81.4688 7.96549 81.3958 8.16341 81.3125 8.39258C81.2292 8.60091 81.1562 8.85091 81.0938 9.14258ZM83.875 14.7676C83.875 14.1634 83.7604 13.6009 83.5312 13.0801C83.3229 12.5592 83.0208 12.1113 82.625 11.7363C82.25 11.3405 81.8021 11.0384 81.2812 10.8301C80.7812 10.6009 80.25 10.4863 79.6875 10.4863C79.125 10.4863 78.5833 10.6009 78.0625 10.8301C77.5625 11.0384 77.1146 11.3405 76.7188 11.7363C76.3438 12.1113 76.0417 12.5592 75.8125 13.0801C75.6042 13.6009 75.5 14.1634 75.5 14.7676C75.5 15.3926 75.6042 15.9655 75.8125 16.4863C76.0417 17.0072 76.3438 17.4551 76.7188 17.8301C77.1146 18.2051 77.5625 18.4967 78.0625 18.7051C78.5833 18.9134 79.125 19.0176 79.6875 19.0176C80.2708 19.0176 80.8125 18.9134 81.3125 18.7051C81.8333 18.4967 82.2812 18.2051 82.6562 17.8301C83.0312 17.4551 83.3229 17.0072 83.5312 16.4863C83.7604 15.9655 83.875 15.3926 83.875 14.7676ZM96.375 33.1113C95.0833 33.0905 93.7812 33.0801 92.4688 33.0801C91.1562 33.0801 89.8646 33.0905 88.5938 33.1113C87.3438 33.1322 86.1458 33.1634 85 33.2051C83.8542 33.2467 82.8229 33.2988 81.9062 33.3613C81.1771 33.403 80.6458 33.2572 80.3125 32.9238C80 32.5905 79.8438 32.1947 79.8438 31.7363V27.8613C79.8438 27.403 79.8229 27.0384 79.7812 26.7676C79.7396 26.4759 79.625 26.2363 79.4375 26.0488C79.25 25.8613 78.9688 25.7051 78.5938 25.5801C78.2396 25.4551 77.75 25.3092 77.125 25.1426L77.6562 23.9863C77.9479 24.028 78.3229 24.0801 78.7812 24.1426C79.2604 24.2051 79.75 24.2676 80.25 24.3301C80.7708 24.3926 81.2708 24.4551 81.75 24.5176C82.25 24.5801 82.6562 24.6426 82.9688 24.7051C82.9271 24.9551 82.8854 25.3301 82.8438 25.8301C82.8021 26.3301 82.7812 26.7572 82.7812 27.1113V30.7363C82.7812 31.1322 82.8438 31.3717 82.9688 31.4551C83.0938 31.5592 83.3958 31.6217 83.875 31.6426C84.6458 31.6634 85.5833 31.6426 86.6875 31.5801C87.8125 31.5384 88.9688 31.4655 90.1562 31.3613C91.3646 31.278 92.5521 31.1738 93.7188 31.0488C94.8854 30.9238 95.9167 30.7988 96.8125 30.6738L96.375 33.1113ZM94.4375 20.7988C94.4375 21.278 94.4271 21.7884 94.4062 22.3301C94.3854 22.8717 94.3542 23.4238 94.3125 23.9863C94.2708 24.528 94.2188 25.0488 94.1562 25.5488C94.0938 26.028 94.0312 26.4447 93.9688 26.7988L91.75 27.1426C91.7083 26.8926 91.6771 26.5488 91.6562 26.1113C91.6354 25.6738 91.6042 25.2051 91.5625 24.7051C91.5417 24.1842 91.5208 23.6738 91.5 23.1738C91.5 22.653 91.5 22.2051 91.5 21.8301V7.92383C91.5 7.27799 91.1979 6.75716 90.5938 6.36133C90.0104 5.94466 89.0312 5.56966 87.6562 5.23633L88.125 4.08008C88.6458 4.14258 89.2083 4.22591 89.8125 4.33008C90.4375 4.41341 91.0521 4.51758 91.6562 4.64258C92.2604 4.74674 92.8333 4.85091 93.375 4.95508C93.9167 5.05924 94.3854 5.14258 94.7812 5.20508C94.7396 5.39258 94.6979 5.62174 94.6562 5.89258C94.6146 6.16341 94.5729 6.44466 94.5312 6.73633C94.5104 7.00716 94.4896 7.25716 94.4688 7.48633C94.4479 7.71549 94.4375 7.88216 94.4375 7.98633V14.4863C94.875 14.4655 95.3542 14.4342 95.875 14.3926C96.3958 14.3301 96.9271 14.2676 97.4688 14.2051C98.0104 14.1426 98.5417 14.0801 99.0625 14.0176C99.6042 13.9342 100.115 13.8509 100.594 13.7676L100.25 16.2363C99.875 16.2155 99.4479 16.2051 98.9688 16.2051C98.4896 16.2051 97.9792 16.2051 97.4375 16.2051C96.9167 16.2051 96.3958 16.2051 95.875 16.2051C95.3542 16.2051 94.875 16.2051 94.4375 16.2051V20.7988ZM114.219 15.6738C115.26 16.528 116.354 17.3717 117.5 18.2051C118.667 19.0384 119.927 19.8405 121.281 20.6113L119 22.6738C118.083 21.7363 117.135 20.7676 116.156 19.7676C115.198 18.7467 114.188 17.7467 113.125 16.7676C111.688 18.2259 110.135 19.5176 108.469 20.6426C106.823 21.7467 105.188 22.6738 103.562 23.4238L102.719 22.4551C104.115 21.7051 105.417 20.8613 106.625 19.9238C107.833 18.9863 108.938 17.9863 109.938 16.9238C110.958 15.8613 111.865 14.7572 112.656 13.6113C113.448 12.4447 114.115 11.2572 114.656 10.0488C114.344 10.0488 114 10.0592 113.625 10.0801C113.25 10.1009 112.865 10.1217 112.469 10.1426C112.073 10.1634 111.688 10.1842 111.312 10.2051C110.938 10.2259 110.604 10.2363 110.312 10.2363C110.083 10.2363 109.771 10.2572 109.375 10.2988C109 10.3197 108.594 10.3613 108.156 10.4238C107.74 10.4655 107.312 10.5176 106.875 10.5801C106.458 10.6217 106.083 10.6634 105.75 10.7051L104.094 8.17383C104.365 8.21549 104.708 8.26758 105.125 8.33008C105.542 8.37174 105.979 8.41341 106.438 8.45508C106.896 8.49674 107.344 8.53841 107.781 8.58008C108.24 8.60091 108.635 8.61133 108.969 8.61133C110.531 8.63216 112.073 8.58008 113.594 8.45508C115.115 8.33008 116.479 8.14258 117.688 7.89258L118.594 8.79883C118.094 10.0488 117.469 11.2467 116.719 12.3926C115.969 13.5384 115.135 14.6322 114.219 15.6738ZM128.438 33.2676C127.167 33.2051 125.875 33.1634 124.562 33.1426C123.271 33.1217 122 33.1113 120.75 33.1113C119.521 33.1322 118.344 33.1634 117.219 33.2051C116.094 33.2467 115.062 33.2988 114.125 33.3613C113.375 33.403 112.844 33.2572 112.531 32.9238C112.219 32.5905 112.062 32.1947 112.062 31.7363V27.9238C112.062 27.4655 112.042 27.1009 112 26.8301C111.958 26.5384 111.844 26.2988 111.656 26.1113C111.469 25.9238 111.188 25.7676 110.812 25.6426C110.438 25.5176 109.927 25.3717 109.281 25.2051L109.844 24.0488C110.156 24.0905 110.552 24.1426 111.031 24.2051C111.51 24.2676 112 24.3301 112.5 24.3926C113.021 24.4551 113.521 24.5176 114 24.5801C114.5 24.6426 114.906 24.7051 115.219 24.7676C115.177 25.0176 115.135 25.3926 115.094 25.8926C115.052 26.3926 115.031 26.8197 115.031 27.1738V30.7363C115.031 31.1322 115.094 31.3717 115.219 31.4551C115.344 31.5592 115.615 31.6217 116.031 31.6426C116.823 31.6634 117.76 31.653 118.844 31.6113C119.948 31.5905 121.083 31.5384 122.25 31.4551C123.438 31.3717 124.604 31.278 125.75 31.1738C126.917 31.0697 127.948 30.9447 128.844 30.7988L128.438 33.2676ZM123.906 15.7363C122.781 15.7988 121.708 15.8822 120.688 15.9863C119.667 16.0905 118.802 16.2259 118.094 16.3926L116.938 13.9863C117.167 14.028 117.448 14.0697 117.781 14.1113C118.135 14.153 118.5 14.1947 118.875 14.2363C119.271 14.2572 119.656 14.278 120.031 14.2988C120.427 14.2988 120.781 14.2988 121.094 14.2988C121.49 14.2988 121.938 14.2988 122.438 14.2988C122.938 14.278 123.427 14.2572 123.906 14.2363V7.92383C123.906 7.27799 123.594 6.75716 122.969 6.36133C122.365 5.94466 121.375 5.56966 120 5.23633L120.562 4.08008C121.062 4.14258 121.615 4.22591 122.219 4.33008C122.823 4.41341 123.427 4.51758 124.031 4.64258C124.635 4.74674 125.208 4.85091 125.75 4.95508C126.312 5.05924 126.802 5.14258 127.219 5.20508C127.177 5.39258 127.135 5.62174 127.094 5.89258C127.052 6.16341 127.01 6.44466 126.969 6.73633C126.948 7.00716 126.927 7.25716 126.906 7.48633C126.885 7.71549 126.875 7.88216 126.875 7.98633V21.1113C126.875 21.5905 126.854 22.1009 126.812 22.6426C126.792 23.1842 126.75 23.7363 126.688 24.2988C126.646 24.8405 126.583 25.3613 126.5 25.8613C126.438 26.3405 126.375 26.7572 126.312 27.1113L124.188 27.4863C124.146 27.2363 124.104 26.8926 124.062 26.4551C124.042 25.9967 124.01 25.5176 123.969 25.0176C123.948 24.4967 123.927 23.9863 123.906 23.4863C123.906 22.9863 123.906 22.5488 123.906 22.1738V15.7363ZM155.531 20.7988C155.531 21.278 155.51 21.7884 155.469 22.3301C155.448 22.8717 155.417 23.4238 155.375 23.9863C155.333 24.528 155.281 25.0488 155.219 25.5488C155.177 26.028 155.125 26.4447 155.062 26.7988L152.844 27.1426C152.802 26.8926 152.771 26.5488 152.75 26.1113C152.729 25.6738 152.698 25.2051 152.656 24.7051C152.635 24.1842 152.615 23.6738 152.594 23.1738C152.594 22.653 152.594 22.2051 152.594 21.8301V7.92383C152.594 7.27799 152.292 6.75716 151.688 6.36133C151.104 5.94466 150.125 5.56966 148.75 5.23633L149.25 4.08008C149.771 4.14258 150.333 4.22591 150.938 4.33008C151.542 4.41341 152.146 4.51758 152.75 4.64258C153.354 4.74674 153.927 4.85091 154.469 4.95508C155.031 5.05924 155.51 5.14258 155.906 5.20508C155.865 5.39258 155.812 5.62174 155.75 5.89258C155.708 6.16341 155.667 6.44466 155.625 6.73633C155.604 7.00716 155.583 7.25716 155.562 7.48633C155.542 7.71549 155.531 7.88216 155.531 7.98633V15.8926C156.427 15.8301 157.438 15.7363 158.562 15.6113C159.688 15.4655 160.719 15.3092 161.656 15.1426L161.375 17.6113C161 17.6113 160.573 17.6113 160.094 17.6113C159.615 17.6113 159.104 17.6113 158.562 17.6113C158.042 17.6113 157.51 17.6113 156.969 17.6113C156.448 17.6113 155.969 17.6113 155.531 17.6113V20.7988ZM157.5 33.1113C156.208 33.0905 154.896 33.0801 153.562 33.0801C152.25 33.0801 150.958 33.0905 149.688 33.1113C148.438 33.1322 147.24 33.1634 146.094 33.2051C144.969 33.2467 143.938 33.2988 143 33.3613C142.271 33.403 141.74 33.2572 141.406 32.9238C141.094 32.5905 140.938 32.1947 140.938 31.7363V28.4863C140.938 28.028 140.917 27.6634 140.875 27.3926C140.833 27.1217 140.719 26.8926 140.531 26.7051C140.344 26.5176 140.062 26.3613 139.688 26.2363C139.333 26.0905 138.844 25.9342 138.219 25.7676L138.781 24.6113C139.073 24.653 139.448 24.7051 139.906 24.7676C140.385 24.8301 140.875 24.903 141.375 24.9863C141.896 25.0488 142.396 25.1113 142.875 25.1738C143.375 25.2363 143.781 25.2884 144.094 25.3301C144.052 25.5801 144.01 25.9551 143.969 26.4551C143.927 26.9551 143.906 27.3926 143.906 27.7676V30.7363C143.906 31.1322 143.969 31.3717 144.094 31.4551C144.219 31.5592 144.51 31.6217 144.969 31.6426C145.76 31.6634 146.708 31.6426 147.812 31.5801C148.917 31.5384 150.062 31.4655 151.25 31.3613C152.458 31.278 153.646 31.1738 154.812 31.0488C155.979 30.9238 157.01 30.7988 157.906 30.6738L157.5 33.1113ZM148.344 18.4238C148.344 19.1113 148.177 19.7676 147.844 20.3926C147.51 21.0176 147.042 21.5592 146.438 22.0176C145.854 22.4759 145.167 22.8405 144.375 23.1113C143.583 23.3822 142.719 23.5176 141.781 23.5176C140.865 23.5176 140.01 23.3822 139.219 23.1113C138.427 22.8405 137.729 22.4759 137.125 22.0176C136.542 21.5384 136.083 20.9967 135.75 20.3926C135.417 19.7676 135.25 19.1113 135.25 18.4238C135.25 17.6738 135.417 16.9967 135.75 16.3926C136.104 15.7676 136.573 15.2259 137.156 14.7676C137.74 14.3092 138.427 13.9551 139.219 13.7051C140.01 13.4551 140.865 13.3301 141.781 13.3301C142.74 13.3301 143.625 13.4759 144.438 13.7676C145.25 14.0384 145.938 14.4134 146.5 14.8926C147.083 15.3509 147.531 15.8926 147.844 16.5176C148.177 17.1217 148.344 17.7572 148.344 18.4238ZM138.375 18.2988C138.375 18.7988 138.458 19.2676 138.625 19.7051C138.812 20.1217 139.062 20.4967 139.375 20.8301C139.688 21.1634 140.052 21.4238 140.469 21.6113C140.885 21.7988 141.333 21.8926 141.812 21.8926C142.271 21.8926 142.708 21.7988 143.125 21.6113C143.542 21.4238 143.906 21.1738 144.219 20.8613C144.531 20.528 144.781 20.1426 144.969 19.7051C145.156 19.2676 145.25 18.7988 145.25 18.2988C145.25 17.8405 145.156 17.3926 144.969 16.9551C144.802 16.5176 144.562 16.1426 144.25 15.8301C143.938 15.4967 143.573 15.2363 143.156 15.0488C142.74 14.8405 142.292 14.7363 141.812 14.7363C141.333 14.7363 140.885 14.8301 140.469 15.0176C140.052 15.1842 139.688 15.4238 139.375 15.7363C139.062 16.0488 138.812 16.4238 138.625 16.8613C138.458 17.2988 138.375 17.778 138.375 18.2988ZM150.531 11.8301C150.052 11.8301 149.469 11.8301 148.781 11.8301C148.094 11.8301 147.344 11.8405 146.531 11.8613C145.74 11.8822 144.917 11.903 144.062 11.9238C143.208 11.9447 142.385 11.9655 141.594 11.9863C140.802 12.0072 140.073 12.028 139.406 12.0488C138.74 12.0697 138.188 12.0905 137.75 12.1113C137.5 12.1322 137.167 12.1634 136.75 12.2051C136.354 12.2259 135.938 12.2572 135.5 12.2988C135.062 12.3405 134.646 12.3822 134.25 12.4238C133.854 12.4655 133.531 12.5072 133.281 12.5488L132.094 9.98633C132.365 10.0488 132.708 10.1113 133.125 10.1738C133.542 10.2363 133.969 10.2884 134.406 10.3301C134.844 10.3717 135.271 10.4134 135.688 10.4551C136.104 10.4759 136.458 10.4863 136.75 10.4863C137.458 10.4863 138.396 10.4759 139.562 10.4551C140.75 10.4134 142.01 10.3613 143.344 10.2988C144.698 10.2155 146.042 10.1113 147.375 9.98633C148.729 9.86133 149.917 9.70508 150.938 9.51758L150.531 11.8301ZM145.906 8.26758C145.552 8.26758 145.167 8.26758 144.75 8.26758C144.333 8.26758 143.917 8.27799 143.5 8.29883C143.083 8.29883 142.677 8.30924 142.281 8.33008C141.906 8.33008 141.583 8.33008 141.312 8.33008C141.167 8.33008 140.958 8.34049 140.688 8.36133C140.417 8.36133 140.115 8.38216 139.781 8.42383C139.448 8.44466 139.115 8.47591 138.781 8.51758C138.448 8.53841 138.146 8.56966 137.875 8.61133L136.594 6.26758C136.844 6.33008 137.156 6.39258 137.531 6.45508C137.906 6.49674 138.292 6.54883 138.688 6.61133C139.104 6.65299 139.5 6.69466 139.875 6.73633C140.271 6.75716 140.604 6.76758 140.875 6.76758C141.125 6.76758 141.469 6.75716 141.906 6.73633C142.344 6.71549 142.812 6.68424 143.312 6.64258C143.833 6.58008 144.354 6.52799 144.875 6.48633C145.417 6.42383 145.927 6.36133 146.406 6.29883L145.906 8.26758ZM193.531 22.8926C193.031 22.8717 192.438 22.8613 191.75 22.8613C191.062 22.8613 190.354 22.8822 189.625 22.9238C188.896 22.9447 188.177 22.9759 187.469 23.0176C186.781 23.0384 186.177 23.0697 185.656 23.1113C185.427 23.1322 185.125 23.1634 184.75 23.2051C184.396 23.2259 184 23.2572 183.562 23.2988C183.125 23.3405 182.677 23.3926 182.219 23.4551C181.781 23.5176 181.375 23.5801 181 23.6426L179.531 21.1426C179.781 21.1842 180.104 21.2363 180.5 21.2988C180.917 21.3405 181.344 21.3822 181.781 21.4238C182.24 21.4655 182.688 21.5072 183.125 21.5488C183.583 21.5697 183.979 21.5801 184.312 21.5801C185.104 21.5801 186.021 21.5801 187.062 21.5801C188.104 21.5801 189.188 21.5697 190.312 21.5488C191.438 21.5072 192.573 21.4551 193.719 21.3926C194.885 21.3301 195.969 21.2572 196.969 21.1738C196.906 21.4655 196.844 21.7572 196.781 22.0488C196.74 22.2988 196.688 22.5592 196.625 22.8301C196.583 23.1009 196.542 23.3301 196.5 23.5176L196.094 26.1738C196.26 26.153 196.406 26.1426 196.531 26.1426C196.656 26.1426 196.781 26.1322 196.906 26.1113L196.688 28.0801C195.521 28.0176 194.323 27.9863 193.094 27.9863C191.865 27.9863 190.688 27.9967 189.562 28.0176C188.458 28.0384 187.458 28.0697 186.562 28.1113C185.667 28.1322 184.958 28.153 184.438 28.1738C184.417 28.3613 184.406 28.5384 184.406 28.7051C184.406 28.8717 184.406 29.0384 184.406 29.2051V31.2676C184.406 31.6009 184.448 31.7988 184.531 31.8613C184.615 31.9238 184.865 31.9655 185.281 31.9863C186.031 32.0072 186.969 31.9967 188.094 31.9551C189.24 31.9342 190.417 31.8822 191.625 31.7988C192.854 31.7155 194.062 31.6113 195.25 31.4863C196.438 31.3613 197.458 31.2259 198.312 31.0801L197.844 33.5801C196.719 33.5384 195.51 33.5072 194.219 33.4863C192.927 33.4863 191.635 33.4967 190.344 33.5176C189.073 33.5384 187.833 33.5592 186.625 33.5801C185.438 33.6217 184.375 33.6634 183.438 33.7051C182.729 33.7467 182.229 33.6009 181.938 33.2676C181.646 32.9342 181.5 32.4967 181.5 31.9551V29.6738C181.5 29.2988 181.469 28.9967 181.406 28.7676C181.365 28.5176 181.26 28.3092 181.094 28.1426C180.948 27.9551 180.719 27.7988 180.406 27.6738C180.115 27.5488 179.729 27.403 179.25 27.2363L179.688 26.2988C180.771 26.403 181.906 26.4759 183.094 26.5176C184.281 26.5592 185.469 26.5801 186.656 26.5801C187.844 26.5801 189.01 26.5697 190.156 26.5488C191.323 26.5072 192.417 26.4551 193.438 26.3926L193.531 22.8926ZM189.406 8.08008C188.823 9.66341 187.99 11.1947 186.906 12.6738C185.844 14.1322 184.615 15.4967 183.219 16.7676C181.844 18.0384 180.344 19.1842 178.719 20.2051C177.115 21.2259 175.49 22.0801 173.844 22.7676L173.062 21.8301C174.354 21.2259 175.635 20.4759 176.906 19.5801C178.177 18.6842 179.365 17.6947 180.469 16.6113C181.573 15.528 182.552 14.3926 183.406 13.2051C184.281 11.9967 184.958 10.778 185.438 9.54883C184.979 9.54883 184.49 9.55924 183.969 9.58008C183.469 9.58008 182.979 9.59049 182.5 9.61133C182.042 9.63216 181.615 9.65299 181.219 9.67383C180.844 9.69466 180.552 9.71549 180.344 9.73633C180.135 9.75716 179.844 9.77799 179.469 9.79883C179.094 9.81966 178.698 9.86133 178.281 9.92383C177.865 9.96549 177.438 10.0176 177 10.0801C176.562 10.1426 176.177 10.2155 175.844 10.2988L174.156 7.76758C174.406 7.80924 174.74 7.85091 175.156 7.89258C175.594 7.93424 176.052 7.97591 176.531 8.01758C177.01 8.03841 177.49 8.05924 177.969 8.08008C178.448 8.10091 178.865 8.11133 179.219 8.11133C180.073 8.11133 180.948 8.09049 181.844 8.04883C182.76 8.00716 183.635 7.95508 184.469 7.89258C185.302 7.83008 186.052 7.75716 186.719 7.67383C187.385 7.56966 187.906 7.46549 188.281 7.36133L189.406 8.08008ZM190.656 4.08008C191.156 4.14258 191.708 4.22591 192.312 4.33008C192.917 4.41341 193.521 4.51758 194.125 4.64258C194.729 4.74674 195.302 4.85091 195.844 4.95508C196.406 5.05924 196.896 5.14258 197.312 5.20508C197.271 5.39258 197.219 5.62174 197.156 5.89258C197.115 6.16341 197.073 6.44466 197.031 6.73633C197.01 7.00716 196.99 7.25716 196.969 7.48633C196.948 7.71549 196.938 7.88216 196.938 7.98633V15.0176C196.938 15.3926 196.917 15.8301 196.875 16.3301C196.854 16.8301 196.812 17.3301 196.75 17.8301C196.708 18.3301 196.656 18.8092 196.594 19.2676C196.531 19.7051 196.469 20.0592 196.406 20.3301L194.25 20.6426C194.208 20.4342 194.177 20.1634 194.156 19.8301C194.135 19.4967 194.104 19.153 194.062 18.7988C194.042 18.4238 194.021 18.0592 194 17.7051C194 17.3301 194 17.0072 194 16.7363V7.92383C194 7.27799 193.688 6.75716 193.062 6.36133C192.458 5.94466 191.469 5.56966 190.094 5.23633L190.656 4.08008ZM219.219 27.9238C220.052 27.8822 220.812 27.8509 221.5 27.8301C222.188 27.8092 222.75 27.7884 223.188 27.7676C224.583 27.7051 226 27.6009 227.438 27.4551C228.896 27.3092 230.188 27.1634 231.312 27.0176L230.938 29.5801C230.104 29.5384 229.021 29.5072 227.688 29.4863C226.354 29.4655 224.99 29.4447 223.594 29.4238C223.01 29.4238 222.302 29.4342 221.469 29.4551C220.635 29.4551 219.729 29.4759 218.75 29.5176C217.792 29.5384 216.802 29.5697 215.781 29.6113C214.781 29.6322 213.823 29.6634 212.906 29.7051C211.99 29.7259 211.156 29.7572 210.406 29.7988C209.677 29.8405 209.104 29.8717 208.688 29.8926C207.896 29.9342 207.052 29.9967 206.156 30.0801C205.26 30.1634 204.427 30.2467 203.656 30.3301L202.656 27.6113C203.594 27.7155 204.583 27.8092 205.625 27.8926C206.688 27.9551 207.698 28.0072 208.656 28.0488C209.052 28.0697 209.531 28.0801 210.094 28.0801C210.656 28.0801 211.271 28.0801 211.938 28.0801C212.625 28.0801 213.333 28.0801 214.062 28.0801C214.792 28.0592 215.531 28.0384 216.281 28.0176V22.7988C215.094 22.8197 213.979 22.8405 212.938 22.8613C211.896 22.8822 210.99 22.9134 210.219 22.9551C209.51 22.9967 209.01 22.8509 208.719 22.5176C208.427 22.1634 208.281 21.7259 208.281 21.2051V17.4863C208.281 17.1113 208.25 16.8092 208.188 16.5801C208.146 16.3301 208.042 16.1217 207.875 15.9551C207.729 15.7676 207.51 15.6113 207.219 15.4863C206.927 15.3613 206.531 15.2155 206.031 15.0488L206.562 14.1113C207.604 14.2155 208.781 14.2884 210.094 14.3301C211.427 14.3717 212.792 14.3926 214.188 14.3926C215.583 14.3926 216.969 14.3822 218.344 14.3613C219.74 14.3197 221.021 14.2676 222.188 14.2051L222.438 9.17383C221.938 9.15299 221.229 9.14258 220.312 9.14258C219.396 9.14258 218.438 9.16341 217.438 9.20508C216.438 9.22591 215.469 9.25716 214.531 9.29883C213.615 9.31966 212.896 9.35091 212.375 9.39258C212.146 9.41341 211.844 9.43424 211.469 9.45508C211.115 9.47591 210.719 9.50716 210.281 9.54883C209.865 9.59049 209.427 9.64258 208.969 9.70508C208.531 9.76758 208.115 9.83008 207.719 9.89258L206.344 7.42383C206.552 7.46549 206.854 7.51758 207.25 7.58008C207.646 7.64258 208.062 7.69466 208.5 7.73633C208.958 7.77799 209.406 7.81966 209.844 7.86133C210.302 7.88216 210.688 7.89258 211 7.89258C211.792 7.89258 212.833 7.89258 214.125 7.89258C215.417 7.89258 216.781 7.88216 218.219 7.86133C219.656 7.81966 221.062 7.76758 222.438 7.70508C223.833 7.64258 225.031 7.56966 226.031 7.48633C225.969 7.67383 225.875 8.00716 225.75 8.48633C225.646 8.96549 225.573 9.39258 225.531 9.76758L224.906 13.9863C225.344 13.9655 225.729 13.9342 226.062 13.8926L225.844 15.8926C224.677 15.8301 223.365 15.7988 221.906 15.7988C220.448 15.7988 219.021 15.8092 217.625 15.8301C216.229 15.8509 214.958 15.8822 213.812 15.9238C212.667 15.9447 211.833 15.9655 211.312 15.9863C211.312 16.153 211.302 16.3301 211.281 16.5176C211.26 16.6842 211.25 16.8509 211.25 17.0176V20.5176C211.25 20.8301 211.292 21.028 211.375 21.1113C211.479 21.1738 211.729 21.2155 212.125 21.2363C212.625 21.2572 213.26 21.2676 214.031 21.2676C214.802 21.2467 215.635 21.2155 216.531 21.1738C217.448 21.1322 218.396 21.0905 219.375 21.0488C220.354 20.9863 221.312 20.9238 222.25 20.8613C223.188 20.778 224.062 20.6947 224.875 20.6113C225.708 20.528 226.417 20.4342 227 20.3301L226.469 22.8301C225.469 22.7884 224.344 22.7676 223.094 22.7676C221.844 22.7467 220.552 22.7467 219.219 22.7676V27.9238ZM10.6875 47.1426C11.5625 47.2676 12.3542 47.5072 13.0625 47.8613C13.7708 48.1947 14.3854 48.6217 14.9062 49.1426C15.4271 49.6426 15.8229 50.2155 16.0938 50.8613C16.3854 51.5072 16.5312 52.1947 16.5312 52.9238C16.5312 53.7572 16.3438 54.5384 15.9688 55.2676C15.6146 55.9759 15.1146 56.5905 14.4688 57.1113C13.8229 57.6322 13.0521 58.0488 12.1562 58.3613C11.2604 58.653 10.2917 58.7988 9.25 58.7988C8.20833 58.7988 7.23958 58.653 6.34375 58.3613C5.46875 58.0488 4.70833 57.6322 4.0625 57.1113C3.41667 56.5905 2.91667 55.9759 2.5625 55.2676C2.20833 54.5384 2.03125 53.7572 2.03125 52.9238C2.03125 52.153 2.1875 51.4342 2.5 50.7676C2.8125 50.0801 3.23958 49.4863 3.78125 48.9863C4.34375 48.4655 5.01042 48.0384 5.78125 47.7051C6.55208 47.3717 7.40625 47.1634 8.34375 47.0801C8.30208 46.7884 8.1875 46.5697 8 46.4238C7.83333 46.2572 7.51042 46.1009 7.03125 45.9551L7.5625 45.0488C7.77083 45.0905 8.03125 45.1426 8.34375 45.2051C8.65625 45.2676 8.96875 45.3405 9.28125 45.4238C9.61458 45.4863 9.9375 45.5488 10.25 45.6113C10.5833 45.6738 10.875 45.7363 11.125 45.7988C11.0625 45.9655 10.9896 46.1634 10.9062 46.3926C10.8229 46.6009 10.75 46.8509 10.6875 47.1426ZM13.4688 52.7676C13.4688 52.1634 13.3542 51.6009 13.125 51.0801C12.9167 50.5592 12.6146 50.1113 12.2188 49.7363C11.8438 49.3405 11.3958 49.0384 10.875 48.8301C10.375 48.6009 9.84375 48.4863 9.28125 48.4863C8.71875 48.4863 8.17708 48.6009 7.65625 48.8301C7.15625 49.0384 6.70833 49.3405 6.3125 49.7363C5.9375 50.1113 5.63542 50.5592 5.40625 51.0801C5.19792 51.6009 5.09375 52.1634 5.09375 52.7676C5.09375 53.3926 5.19792 53.9655 5.40625 54.4863C5.63542 55.0072 5.9375 55.4551 6.3125 55.8301C6.70833 56.2051 7.15625 56.4967 7.65625 56.7051C8.17708 56.9134 8.71875 57.0176 9.28125 57.0176C9.86458 57.0176 10.4062 56.9134 10.9062 56.7051C11.4271 56.4967 11.875 56.2051 12.25 55.8301C12.625 55.4551 12.9167 55.0072 13.125 54.4863C13.3542 53.9655 13.4688 53.3926 13.4688 52.7676ZM25.9688 71.1113C24.6771 71.0905 23.375 71.0801 22.0625 71.0801C20.75 71.0801 19.4583 71.0905 18.1875 71.1113C16.9375 71.1322 15.7396 71.1634 14.5938 71.2051C13.4479 71.2467 12.4167 71.2988 11.5 71.3613C10.7708 71.403 10.2396 71.2572 9.90625 70.9238C9.59375 70.5905 9.4375 70.1947 9.4375 69.7363V65.8613C9.4375 65.403 9.41667 65.0384 9.375 64.7676C9.33333 64.4759 9.21875 64.2363 9.03125 64.0488C8.84375 63.8613 8.5625 63.7051 8.1875 63.5801C7.83333 63.4551 7.34375 63.3092 6.71875 63.1426L7.25 61.9863C7.54167 62.028 7.91667 62.0801 8.375 62.1426C8.85417 62.2051 9.34375 62.2676 9.84375 62.3301C10.3646 62.3926 10.8646 62.4551 11.3438 62.5176C11.8438 62.5801 12.25 62.6426 12.5625 62.7051C12.5208 62.9551 12.4792 63.3301 12.4375 63.8301C12.3958 64.3301 12.375 64.7572 12.375 65.1113V68.7363C12.375 69.1322 12.4375 69.3717 12.5625 69.4551C12.6875 69.5592 12.9896 69.6217 13.4688 69.6426C14.2396 69.6634 15.1771 69.6426 16.2812 69.5801C17.4062 69.5384 18.5625 69.4655 19.75 69.3613C20.9583 69.278 22.1458 69.1738 23.3125 69.0488C24.4792 68.9238 25.5104 68.7988 26.4062 68.6738L25.9688 71.1113ZM24.0312 58.7988C24.0312 59.278 24.0208 59.7884 24 60.3301C23.9792 60.8717 23.9479 61.4238 23.9062 61.9863C23.8646 62.528 23.8125 63.0488 23.75 63.5488C23.6875 64.028 23.625 64.4447 23.5625 64.7988L21.3438 65.1426C21.3021 64.8926 21.2708 64.5488 21.25 64.1113C21.2292 63.6738 21.1979 63.2051 21.1562 62.7051C21.1354 62.1842 21.1146 61.6738 21.0938 61.1738C21.0938 60.653 21.0938 60.2051 21.0938 59.8301V45.9238C21.0938 45.278 20.7917 44.7572 20.1875 44.3613C19.6042 43.9447 18.625 43.5697 17.25 43.2363L17.7188 42.0801C18.2396 42.1426 18.8021 42.2259 19.4062 42.3301C20.0312 42.4134 20.6458 42.5176 21.25 42.6426C21.8542 42.7467 22.4271 42.8509 22.9688 42.9551C23.5104 43.0592 23.9792 43.1426 24.375 43.2051C24.3333 43.3926 24.2917 43.6217 24.25 43.8926C24.2083 44.1634 24.1667 44.4447 24.125 44.7363C24.1042 45.0072 24.0833 45.2572 24.0625 45.4863C24.0417 45.7155 24.0312 45.8822 24.0312 45.9863V52.4863C24.4688 52.4655 24.9479 52.4342 25.4688 52.3926C25.9896 52.3301 26.5208 52.2676 27.0625 52.2051C27.6042 52.1426 28.1354 52.0801 28.6562 52.0176C29.1979 51.9342 29.7083 51.8509 30.1875 51.7676L29.8438 54.2363C29.4688 54.2155 29.0417 54.2051 28.5625 54.2051C28.0833 54.2051 27.5729 54.2051 27.0312 54.2051C26.5104 54.2051 25.9896 54.2051 25.4688 54.2051C24.9479 54.2051 24.4688 54.2051 24.0312 54.2051V58.7988ZM50.3125 54.8926C50.9583 54.8717 51.6042 54.8509 52.25 54.8301C52.9167 54.7884 53.5521 54.7259 54.1562 54.6426V45.9238C54.1562 45.278 53.9062 44.7572 53.4062 44.3613C52.9062 43.9447 51.9896 43.5697 50.6562 43.2363L51.1875 42.0801C51.6875 42.1426 52.2188 42.2259 52.7812 42.3301C53.3438 42.4342 53.8958 42.5384 54.4375 42.6426C54.9792 42.7467 55.5 42.8509 56 42.9551C56.5208 43.0592 56.9896 43.153 57.4062 43.2363C57.3646 43.4238 57.3229 43.653 57.2812 43.9238C57.2396 44.1947 57.1979 44.4655 57.1562 44.7363C57.1354 45.0072 57.1146 45.2572 57.0938 45.4863C57.0729 45.7155 57.0625 45.8822 57.0625 45.9863V63.2988C57.0625 63.9447 57.0417 64.6842 57 65.5176C56.9792 66.3301 56.9479 67.153 56.9062 67.9863C56.8646 68.8197 56.8021 69.6113 56.7188 70.3613C56.6562 71.1322 56.5833 71.778 56.5 72.2988L54.375 72.5801C54.3542 72.2051 54.3229 71.7363 54.2812 71.1738C54.2604 70.6322 54.2396 70.0384 54.2188 69.3926C54.1979 68.7676 54.1771 68.1217 54.1562 67.4551C54.1562 66.7884 54.1562 66.153 54.1562 65.5488V56.4551C53.5312 56.4759 52.8854 56.4967 52.2188 56.5176C51.5729 56.5384 50.9375 56.5697 50.3125 56.6113V62.1738C50.3125 62.8197 50.3021 63.5592 50.2812 64.3926C50.2604 65.2051 50.2292 66.028 50.1875 66.8613C50.1458 67.6947 50.0938 68.4967 50.0312 69.2676C49.9688 70.0384 49.8958 70.6842 49.8125 71.2051L47.7812 71.4551C47.7396 71.1009 47.6979 70.6426 47.6562 70.0801C47.6354 69.5384 47.6042 68.9551 47.5625 68.3301C47.5417 67.6842 47.5208 67.028 47.5 66.3613C47.4792 65.6738 47.4688 65.0384 47.4688 64.4551V59.8926C45.9688 60.4967 44.4583 61.0488 42.9375 61.5488C41.4167 62.0488 39.8854 62.4134 38.3438 62.6426C37.2188 62.8092 36.4479 62.6842 36.0312 62.2676C35.6146 61.8509 35.4062 61.153 35.4062 60.1738V51.0488C35.4062 50.7155 35.3646 50.4447 35.2812 50.2363C35.2188 50.0072 35.0729 49.8197 34.8438 49.6738C34.6354 49.5072 34.3333 49.3717 33.9375 49.2676C33.5417 49.1426 33.0104 49.0176 32.3438 48.8926L32.8125 47.7363C33.7917 47.778 34.8021 47.8613 35.8438 47.9863C36.9062 48.1113 37.8125 48.2363 38.5625 48.3613C38.5 48.7363 38.4375 49.1842 38.375 49.7051C38.3125 50.2259 38.2812 50.6947 38.2812 51.1113V59.5488C38.2812 59.903 38.3438 60.153 38.4688 60.2988C38.6146 60.4447 38.7917 60.5072 39 60.4863C39.4583 60.4447 40 60.3717 40.625 60.2676C41.25 60.1634 41.9271 60.028 42.6562 59.8613C43.4062 59.6947 44.1875 59.4967 45 59.2676C45.8333 59.0384 46.6562 58.778 47.4688 58.4863V47.1738C47.4688 46.8613 47.4167 46.5801 47.3125 46.3301C47.2292 46.0801 47.0625 45.8509 46.8125 45.6426C46.5833 45.4342 46.2604 45.2467 45.8438 45.0801C45.4271 44.9134 44.9062 44.7467 44.2812 44.5801L44.8438 43.4551C45.8438 43.5801 46.8542 43.7467 47.875 43.9551C48.9167 44.1426 49.8438 44.3405 50.6562 44.5488C50.6146 44.7363 50.5729 44.9655 50.5312 45.2363C50.4896 45.5072 50.4479 45.778 50.4062 46.0488C50.3854 46.3197 50.3646 46.5697 50.3438 46.7988C50.3229 47.028 50.3125 47.1947 50.3125 47.2988V54.8926ZM85.1562 52.9238C86.0521 52.8613 87.0625 52.7676 88.1875 52.6426C89.3125 52.5176 90.3438 52.3822 91.2812 52.2363L90.9688 54.7051C90.6146 54.6842 90.1875 54.6738 89.6875 54.6738C89.2083 54.653 88.7083 54.6426 88.1875 54.6426C87.6667 54.6426 87.1354 54.6426 86.5938 54.6426C86.0729 54.6426 85.5833 54.6426 85.125 54.6426C85.125 55.0176 85.1042 55.4447 85.0625 55.9238C85.0417 56.3822 85 56.8405 84.9375 57.2988C84.8958 57.7572 84.8542 58.1842 84.8125 58.5801C84.7708 58.9759 84.7292 59.2884 84.6875 59.5176L82.4688 59.8301C82.4271 59.6217 82.3958 59.3509 82.375 59.0176C82.3542 58.6842 82.3229 58.3405 82.2812 57.9863C82.2604 57.6113 82.2396 57.2467 82.2188 56.8926C82.2188 56.5176 82.2188 56.1842 82.2188 55.8926V45.9238C82.2188 45.278 81.9167 44.7572 81.3125 44.3613C80.7292 43.9447 79.75 43.5697 78.375 43.2363L78.875 42.0801C79.3958 42.1426 79.9583 42.2259 80.5625 42.3301C81.1667 42.4134 81.7708 42.5176 82.375 42.6426C82.9792 42.7467 83.5521 42.8509 84.0938 42.9551C84.6562 43.0592 85.1354 43.1426 85.5312 43.2051C85.4896 43.3926 85.4375 43.6217 85.375 43.8926C85.3333 44.1634 85.2917 44.4447 85.25 44.7363C85.2292 45.0072 85.2083 45.2572 85.1875 45.4863C85.1667 45.7155 85.1562 45.8822 85.1562 45.9863V52.9238ZM80.125 49.1738C79.6458 49.1738 79.0625 49.1738 78.375 49.1738C77.6875 49.1738 76.9375 49.1842 76.125 49.2051C75.3333 49.2051 74.5104 49.2155 73.6562 49.2363C72.8021 49.2572 71.9792 49.278 71.1875 49.2988C70.3958 49.3197 69.6667 49.3509 69 49.3926C68.3333 49.4134 67.7812 49.4342 67.3438 49.4551C67.0938 49.4759 66.7604 49.5072 66.3438 49.5488C65.9479 49.5697 65.5312 49.6009 65.0938 49.6426C64.6562 49.6842 64.2396 49.7259 63.8438 49.7676C63.4479 49.8092 63.125 49.8509 62.875 49.8926L61.6875 47.3301C61.9583 47.3926 62.3021 47.4551 62.7188 47.5176C63.1354 47.5592 63.5625 47.6009 64 47.6426C64.4375 47.6842 64.8646 47.7259 65.2812 47.7676C65.6979 47.7884 66.0521 47.7988 66.3438 47.7988C67.0521 47.7988 67.9896 47.7884 69.1562 47.7676C70.3438 47.7259 71.6042 47.6738 72.9375 47.6113C74.2917 47.528 75.6354 47.4342 76.9688 47.3301C78.3229 47.2051 79.5104 47.0488 80.5312 46.8613L80.125 49.1738ZM75.5 45.8926C75.1458 45.8926 74.7604 45.8926 74.3438 45.8926C73.9271 45.8926 73.5104 45.903 73.0938 45.9238C72.6771 45.9238 72.2708 45.9342 71.875 45.9551C71.5 45.9551 71.1771 45.9551 70.9062 45.9551C70.7604 45.9551 70.5521 45.9655 70.2812 45.9863C70.0104 45.9863 69.7083 46.0072 69.375 46.0488C69.0417 46.0697 68.7083 46.1009 68.375 46.1426C68.0417 46.1634 67.7396 46.1842 67.4688 46.2051L66.1875 43.8301C66.4375 43.8926 66.75 43.9551 67.125 44.0176C67.5 44.0801 67.8854 44.1426 68.2812 44.2051C68.6979 44.2467 69.0938 44.2884 69.4688 44.3301C69.8646 44.3509 70.1979 44.3613 70.4688 44.3613C70.7188 44.3613 71.0625 44.3509 71.5 44.3301C71.9375 44.3092 72.4062 44.278 72.9062 44.2363C73.4271 44.1738 73.9479 44.1113 74.4688 44.0488C75.0104 43.9863 75.5208 43.9238 76 43.8613L75.5 45.8926ZM77.9375 55.2363C77.9375 55.9238 77.7708 56.5697 77.4375 57.1738C77.1042 57.7572 76.6354 58.278 76.0312 58.7363C75.4479 59.1947 74.7604 59.5592 73.9688 59.8301C73.1771 60.0801 72.3125 60.2051 71.375 60.2051C70.4583 60.2051 69.6042 60.0697 68.8125 59.7988C68.0208 59.528 67.3229 59.1738 66.7188 58.7363C66.1354 58.278 65.6771 57.7467 65.3438 57.1426C65.0104 56.5384 64.8438 55.903 64.8438 55.2363C64.8438 54.5072 65.0104 53.8405 65.3438 53.2363C65.6771 52.6113 66.1354 52.0801 66.7188 51.6426C67.3229 51.1842 68.0208 50.8301 68.8125 50.5801C69.6042 50.3301 70.4583 50.2051 71.375 50.2051C72.3333 50.2051 73.2188 50.3405 74.0312 50.6113C74.8438 50.8822 75.5312 51.2572 76.0938 51.7363C76.6771 52.1947 77.125 52.7259 77.4375 53.3301C77.7708 53.9342 77.9375 54.5697 77.9375 55.2363ZM67.9688 55.0801C67.9688 55.5592 68.0521 56.0072 68.2188 56.4238C68.4062 56.8405 68.6562 57.2155 68.9688 57.5488C69.2812 57.8613 69.6458 58.1113 70.0625 58.2988C70.4792 58.4863 70.9271 58.5801 71.4062 58.5801C71.8646 58.5801 72.3021 58.4967 72.7188 58.3301C73.1354 58.1426 73.5 57.8926 73.8125 57.5801C74.125 57.2676 74.375 56.903 74.5625 56.4863C74.75 56.0488 74.8438 55.5801 74.8438 55.0801C74.8438 54.6217 74.75 54.1842 74.5625 53.7676C74.3958 53.3301 74.1562 52.9551 73.8438 52.6426C73.5312 52.3301 73.1667 52.0801 72.75 51.8926C72.3333 51.7051 71.8854 51.6113 71.4062 51.6113C70.4479 51.6113 69.6354 51.9238 68.9688 52.5488C68.3021 53.1738 67.9688 54.0176 67.9688 55.0801ZM82.25 70.7051C80.8125 70.6426 79.3021 70.6426 77.7188 70.7051C76.1562 70.7676 74.5521 70.8301 72.9062 70.8926C72.8646 71.0801 72.8229 71.2572 72.7812 71.4238C72.7604 71.6113 72.7292 71.778 72.6875 71.9238L70.6562 72.2676C70.5938 71.8509 70.5312 71.3301 70.4688 70.7051C70.4062 70.1009 70.375 69.5072 70.375 68.9238V64.2676C70.375 63.9342 70.3438 63.653 70.2812 63.4238C70.2188 63.1738 70.0938 62.9655 69.9062 62.7988C69.7396 62.6113 69.4896 62.4551 69.1562 62.3301C68.8229 62.2051 68.3854 62.0801 67.8438 61.9551L68.375 60.8926C68.7083 60.9342 69.0938 60.9759 69.5312 61.0176C69.9688 61.0592 70.4167 61.1217 70.875 61.2051C71.3542 61.2676 71.8229 61.3405 72.2812 61.4238C72.7604 61.5072 73.1979 61.5905 73.5938 61.6738C73.5521 61.8613 73.5 62.0801 73.4375 62.3301C73.3958 62.5592 73.3542 62.7988 73.3125 63.0488C73.2917 63.278 73.2708 63.5072 73.25 63.7363C73.2292 63.9447 73.2188 64.1113 73.2188 64.2363C74.6562 64.1947 76.125 64.1426 77.625 64.0801C79.125 64.0176 80.625 63.9134 82.125 63.7676V63.2676C82.125 62.9342 82.0833 62.6634 82 62.4551C81.9167 62.2259 81.7708 62.028 81.5625 61.8613C81.3542 61.6738 81.0625 61.5176 80.6875 61.3926C80.3333 61.2467 79.875 61.1009 79.3125 60.9551L79.7812 59.7988C80.6562 59.903 81.6042 60.028 82.625 60.1738C83.6458 60.3197 84.5521 60.4759 85.3438 60.6426C85.3021 60.8301 85.2604 61.0488 85.2188 61.2988C85.1771 61.5488 85.1354 61.7988 85.0938 62.0488C85.0729 62.2988 85.0521 62.528 85.0312 62.7363C85.0104 62.9447 85 63.1113 85 63.2363V67.1738C85 68.1113 84.9479 68.9551 84.8438 69.7051C84.7396 70.4759 84.6354 71.1009 84.5312 71.5801L82.4062 71.8926C82.3646 71.7259 82.3333 71.5384 82.3125 71.3301C82.3125 71.1426 82.2917 70.9342 82.25 70.7051ZM82.125 68.5176V65.6738C80.6875 65.6322 79.2188 65.6217 77.7188 65.6426C76.2396 65.6634 74.7396 65.7259 73.2188 65.8301V67.5801C73.2188 68.1842 73.1875 68.7363 73.125 69.2363C74.5625 69.1947 76.0521 69.1426 77.5938 69.0801C79.1562 69.0384 80.6667 68.9655 82.125 68.8613V68.5176ZM113.656 45.9238C113.656 45.278 113.344 44.7572 112.719 44.3613C112.115 43.9447 111.125 43.5697 109.75 43.2363L110.281 42.0801C110.781 42.1426 111.333 42.2259 111.938 42.3301C112.542 42.4134 113.146 42.5176 113.75 42.6426C114.354 42.7467 114.927 42.8509 115.469 42.9551C116.031 43.0592 116.521 43.1426 116.938 43.2051C116.896 43.3926 116.854 43.6217 116.812 43.8926C116.771 44.1634 116.729 44.4447 116.688 44.7363C116.667 45.0072 116.646 45.2572 116.625 45.4863C116.604 45.7155 116.594 45.8822 116.594 45.9863V63.2988C116.594 63.9447 116.573 64.6947 116.531 65.5488C116.51 66.3822 116.469 67.2259 116.406 68.0801C116.365 68.9134 116.312 69.7051 116.25 70.4551C116.188 71.2259 116.115 71.8405 116.031 72.2988L113.938 72.5801C113.896 72.2467 113.854 71.7988 113.812 71.2363C113.792 70.6738 113.76 70.0697 113.719 69.4238C113.698 68.7988 113.677 68.153 113.656 67.4863C113.656 66.7988 113.656 66.153 113.656 65.5488V59.0488C112.719 59.4238 111.635 59.8092 110.406 60.2051C109.177 60.5801 107.927 60.9447 106.656 61.2988C105.385 61.653 104.135 61.9759 102.906 62.2676C101.677 62.5384 100.594 62.7467 99.6562 62.8926C98.5938 63.0592 97.8229 62.9342 97.3438 62.5176C96.8646 62.0801 96.625 61.3613 96.625 60.3613V50.8301C96.625 50.4967 96.5833 50.2259 96.5 50.0176C96.4375 49.7884 96.2917 49.5905 96.0625 49.4238C95.8542 49.2572 95.5417 49.1113 95.125 48.9863C94.7083 48.8613 94.1562 48.7363 93.4688 48.6113L93.9062 47.4551C94.9688 47.4967 96.0417 47.5905 97.125 47.7363C98.2083 47.8613 99.1458 47.9967 99.9375 48.1426C99.8958 48.3301 99.8438 48.5592 99.7812 48.8301C99.7396 49.1009 99.6979 49.3717 99.6562 49.6426C99.6354 49.9134 99.6146 50.1634 99.5938 50.3926C99.5729 50.6217 99.5625 50.7884 99.5625 50.8926V59.7051C99.5625 60.0592 99.625 60.3092 99.75 60.4551C99.875 60.5801 100.062 60.6322 100.312 60.6113C101.021 60.5697 101.938 60.4551 103.062 60.2676C104.188 60.0801 105.365 59.8509 106.594 59.5801C107.844 59.2884 109.083 58.9863 110.312 58.6738C111.562 58.3405 112.677 58.0072 113.656 57.6738V45.9238ZM142.656 45.9238C142.656 45.278 142.354 44.7572 141.75 44.3613C141.167 43.9447 140.188 43.5697 138.812 43.2363L139.281 42.0801C139.802 42.1426 140.365 42.2259 140.969 42.3301C141.594 42.4134 142.208 42.5176 142.812 42.6426C143.417 42.7467 143.99 42.8509 144.531 42.9551C145.073 43.0592 145.542 43.1426 145.938 43.2051C145.896 43.3926 145.854 43.6217 145.812 43.8926C145.771 44.1634 145.729 44.4447 145.688 44.7363C145.667 45.0072 145.646 45.2572 145.625 45.4863C145.604 45.7155 145.594 45.8822 145.594 45.9863V54.6426C146.49 54.5801 147.521 54.4863 148.688 54.3613C149.854 54.2363 150.917 54.0905 151.875 53.9238L151.531 56.4551C151.156 56.4342 150.719 56.4238 150.219 56.4238C149.719 56.4238 149.198 56.4238 148.656 56.4238C148.135 56.4238 147.604 56.4238 147.062 56.4238C146.521 56.4238 146.031 56.4238 145.594 56.4238V63.2988C145.594 63.9447 145.583 64.6947 145.562 65.5488C145.542 66.3822 145.51 67.2259 145.469 68.0801C145.427 68.9134 145.375 69.7051 145.312 70.4551C145.25 71.2259 145.177 71.8405 145.094 72.2988L142.938 72.5801C142.896 72.2467 142.854 71.7988 142.812 71.2363C142.792 70.6738 142.76 70.0697 142.719 69.4238C142.698 68.7988 142.677 68.153 142.656 67.4863C142.656 66.7988 142.656 66.153 142.656 65.5488V59.5801C141.698 59.9551 140.615 60.3405 139.406 60.7363C138.219 61.1322 137 61.5072 135.75 61.8613C134.5 62.2155 133.281 62.5384 132.094 62.8301C130.906 63.1009 129.844 63.2988 128.906 63.4238C127.823 63.5905 127.042 63.4655 126.562 63.0488C126.104 62.6113 125.875 61.8926 125.875 60.8926V51.7988C125.875 51.4238 125.844 51.1009 125.781 50.8301C125.719 50.5384 125.583 50.2988 125.375 50.1113C125.188 49.903 124.906 49.7259 124.531 49.5801C124.177 49.4134 123.708 49.2467 123.125 49.0801L123.594 47.9238C124.781 48.1113 126.042 48.2363 127.375 48.2988C128.729 48.3405 130.083 48.3405 131.438 48.2988C132.792 48.2363 134.104 48.1426 135.375 48.0176C136.667 47.8717 137.844 47.7051 138.906 47.5176L138.438 49.9238C136.479 49.8405 134.688 49.8197 133.062 49.8613C131.458 49.903 130.042 49.9759 128.812 50.0801V60.2676C128.812 60.6217 128.875 60.8613 129 60.9863C129.146 61.1113 129.333 61.1634 129.562 61.1426C130.271 61.1009 131.167 60.9863 132.25 60.7988C133.354 60.5905 134.51 60.3509 135.719 60.0801C136.948 59.8092 138.167 59.5176 139.375 59.2051C140.604 58.8717 141.698 58.5488 142.656 58.2363V45.9238ZM156.156 65.6426C156.76 65.6426 157.271 65.8509 157.688 66.2676C158.125 66.6842 158.344 67.1947 158.344 67.7988C158.344 68.403 158.125 68.9134 157.688 69.3301C157.271 69.7676 156.76 69.9863 156.156 69.9863C155.552 69.9863 155.031 69.7676 154.594 69.3301C154.177 68.9134 153.969 68.403 153.969 67.7988C153.969 67.1947 154.177 66.6842 154.594 66.2676C155.031 65.8509 155.552 65.6426 156.156 65.6426Z" fill="#017987"/>
<path d="M19.32 130.314C19.32 130.538 19.208 130.65 18.984 130.65H18C17.776 130.65 17.664 130.538 17.664 130.314V118.242C17.664 118.018 17.776 117.906 18 117.906H18.984C19.208 117.906 19.32 118.018 19.32 118.242V130.314ZM5.616 133.602C5.616 132.93 5.744 132.482 6 132.258C6.256 132.018 6.736 131.898 7.44 131.898H17.496C17.88 131.898 18.184 131.922 18.408 131.97C18.648 132.018 18.832 132.106 18.96 132.234C19.104 132.362 19.2 132.538 19.248 132.762C19.296 132.986 19.32 133.266 19.32 133.602V138.138C19.32 138.81 19.192 139.258 18.936 139.482C18.68 139.722 18.2 139.842 17.496 139.842H7.44C7.056 139.842 6.744 139.818 6.504 139.77C6.28 139.722 6.096 139.626 5.952 139.482C5.824 139.354 5.736 139.178 5.688 138.954C5.64 138.746 5.616 138.474 5.616 138.138V133.602ZM7.848 133.338C7.624 133.338 7.472 133.386 7.392 133.482C7.312 133.562 7.272 133.722 7.272 133.962V137.778C7.272 138.018 7.312 138.178 7.392 138.258C7.472 138.354 7.624 138.402 7.848 138.402H17.088C17.312 138.402 17.464 138.354 17.544 138.258C17.624 138.178 17.664 138.018 17.664 137.778V133.962C17.664 133.722 17.624 133.562 17.544 133.482C17.464 133.386 17.312 133.338 17.088 133.338H7.848ZM12.864 120.642C12.496 122.866 11.528 124.826 9.96 126.522C8.392 128.218 6.12 129.69 3.144 130.938C2.872 131.05 2.696 131.002 2.616 130.794L2.256 130.002C2.192 129.874 2.184 129.77 2.232 129.69C2.296 129.61 2.368 129.554 2.448 129.522C4.992 128.466 6.984 127.218 8.424 125.778C9.88 124.322 10.76 122.754 11.064 121.074C11.16 120.61 10.968 120.378 10.488 120.378H3.096C2.904 120.378 2.808 120.274 2.808 120.066V119.226C2.808 119.034 2.904 118.938 3.096 118.938H11.04C11.808 118.938 12.328 119.074 12.6 119.346C12.872 119.618 12.96 120.05 12.864 120.642ZM35.6503 128.538C35.6503 129.114 35.5223 129.658 35.2663 130.17C35.0103 130.682 34.6583 131.13 34.2103 131.514C33.7783 131.898 33.2583 132.202 32.6503 132.426C32.0423 132.634 31.3863 132.738 30.6823 132.738C29.9783 132.738 29.3223 132.634 28.7143 132.426C28.1063 132.202 27.5783 131.898 27.1303 131.514C26.6983 131.13 26.3543 130.682 26.0983 130.17C25.8583 129.658 25.7383 129.114 25.7383 128.538C25.7383 127.962 25.8583 127.426 26.0983 126.93C26.3543 126.418 26.6983 125.978 27.1303 125.61C27.5783 125.226 28.1063 124.93 28.7143 124.722C29.3223 124.498 29.9783 124.386 30.6823 124.386C31.3863 124.386 32.0423 124.498 32.6503 124.722C33.2583 124.93 33.7783 125.226 34.2103 125.61C34.6583 125.978 35.0103 126.418 35.2663 126.93C35.5223 127.426 35.6503 127.962 35.6503 128.538ZM41.0503 134.634C41.0503 134.858 40.9383 134.97 40.7143 134.97H39.7303C39.5063 134.97 39.3943 134.858 39.3943 134.634V118.242C39.3943 118.018 39.5063 117.906 39.7303 117.906H40.7143C40.9383 117.906 41.0503 118.018 41.0503 118.242V126.186H44.3623C44.4583 126.186 44.5383 126.218 44.6023 126.282C44.6823 126.33 44.7223 126.402 44.7223 126.498V127.314C44.7223 127.394 44.6823 127.466 44.6023 127.53C44.5383 127.594 44.4583 127.626 44.3623 127.626H41.0503V134.634ZM34.0183 128.538C34.0183 128.154 33.9303 127.802 33.7543 127.482C33.5943 127.146 33.3623 126.858 33.0583 126.618C32.7703 126.378 32.4183 126.194 32.0023 126.066C31.6023 125.922 31.1623 125.85 30.6823 125.85C30.2023 125.85 29.7623 125.922 29.3623 126.066C28.9623 126.194 28.6103 126.378 28.3063 126.618C28.0023 126.858 27.7623 127.146 27.5863 127.482C27.4263 127.802 27.3463 128.154 27.3463 128.538C27.3463 128.922 27.4263 129.282 27.5863 129.618C27.7623 129.954 28.0023 130.242 28.3063 130.482C28.6103 130.722 28.9623 130.914 29.3623 131.058C29.7623 131.202 30.2023 131.274 30.6823 131.274C31.1623 131.274 31.6023 131.202 32.0023 131.058C32.4183 130.914 32.7703 130.722 33.0583 130.482C33.3623 130.242 33.5943 129.954 33.7543 129.618C33.9303 129.282 34.0183 128.922 34.0183 128.538ZM42.1303 139.386C42.1303 139.482 42.0903 139.554 42.0103 139.602C41.9303 139.65 41.8503 139.674 41.7703 139.674H29.3863C28.6343 139.674 28.1383 139.53 27.8983 139.242C27.6743 138.97 27.5623 138.506 27.5623 137.85V134.538C27.5623 134.314 27.6743 134.202 27.8983 134.202H28.8823C29.1063 134.202 29.2183 134.314 29.2183 134.538V137.754C29.2183 137.978 29.2503 138.114 29.3143 138.162C29.3943 138.21 29.5463 138.234 29.7703 138.234H41.7703C41.8503 138.234 41.9303 138.258 42.0103 138.306C42.0903 138.37 42.1303 138.442 42.1303 138.522V139.386ZM37.6663 122.922C37.6663 123.13 37.5463 123.234 37.3063 123.234H24.0583C23.9783 123.234 23.8983 123.202 23.8183 123.138C23.7543 123.074 23.7223 122.994 23.7223 122.898V122.13C23.7223 122.034 23.7543 121.954 23.8183 121.89C23.8983 121.826 23.9783 121.794 24.0583 121.794H37.3063C37.5463 121.794 37.6663 121.898 37.6663 122.106V122.922ZM34.1623 119.658C34.1623 119.866 34.0423 119.97 33.8023 119.97H27.2263C27.1463 119.97 27.0663 119.946 26.9863 119.898C26.9223 119.85 26.8903 119.778 26.8903 119.682V118.842C26.8903 118.746 26.9223 118.666 26.9863 118.602C27.0503 118.538 27.1223 118.506 27.2023 118.506H33.8023C34.0423 118.506 34.1623 118.618 34.1623 118.842V119.658ZM58.3166 128.01C58.3166 128.554 58.2046 129.05 57.9806 129.498C57.7726 129.946 57.4766 130.338 57.0926 130.674C56.7086 131.01 56.2446 131.29 55.7006 131.514C55.1726 131.722 54.5886 131.858 53.9486 131.922V134.418C54.4926 134.386 55.0606 134.346 55.6526 134.298C56.2446 134.234 56.8206 134.17 57.3806 134.106C57.9566 134.026 58.5086 133.946 59.0366 133.866C59.5646 133.786 60.0446 133.706 60.4766 133.626C60.7326 133.578 60.8686 133.634 60.8846 133.794L61.0286 134.706C61.0606 134.898 60.9566 135.01 60.7166 135.042C59.6446 135.218 58.4686 135.378 57.1886 135.522C55.9086 135.666 54.6206 135.778 53.3246 135.858C52.8606 135.89 52.3166 135.914 51.6926 135.93C51.0686 135.946 50.4286 135.962 49.7726 135.978C49.1326 135.978 48.5006 135.978 47.8766 135.978C47.2686 135.978 46.7406 135.97 46.2926 135.954C46.1966 135.954 46.1086 135.922 46.0286 135.858C45.9646 135.794 45.9326 135.722 45.9326 135.642V134.826C45.9326 134.73 45.9646 134.658 46.0286 134.61C46.1086 134.546 46.1966 134.514 46.2926 134.514C46.6446 134.53 47.0606 134.546 47.5406 134.562C48.0366 134.562 48.5486 134.562 49.0766 134.562C49.6206 134.546 50.1646 134.538 50.7086 134.538C51.2686 134.522 51.7966 134.506 52.2926 134.49V131.946C51.6366 131.882 51.0366 131.746 50.4926 131.538C49.9646 131.314 49.5086 131.034 49.1246 130.698C48.7406 130.346 48.4366 129.946 48.2126 129.498C48.0046 129.034 47.9006 128.538 47.9006 128.01C47.9006 127.418 48.0286 126.882 48.2846 126.402C48.5566 125.906 48.9246 125.49 49.3886 125.154C49.8526 124.802 50.3966 124.538 51.0206 124.362C51.6606 124.17 52.3566 124.074 53.1086 124.074C53.8446 124.074 54.5326 124.17 55.1726 124.362C55.8126 124.554 56.3646 124.826 56.8286 125.178C57.2926 125.514 57.6526 125.922 57.9086 126.402C58.1806 126.882 58.3166 127.418 58.3166 128.01ZM63.6206 139.698C63.6206 139.922 63.5086 140.034 63.2846 140.034H62.3006C62.0766 140.034 61.9646 139.922 61.9646 139.698V118.242C61.9646 118.018 62.0766 117.906 62.3006 117.906H63.2846C63.5086 117.906 63.6206 118.018 63.6206 118.242V127.626H66.9326C67.0286 127.626 67.1086 127.658 67.1726 127.722C67.2526 127.77 67.2926 127.842 67.2926 127.938V128.754C67.2926 128.834 67.2526 128.906 67.1726 128.97C67.1086 129.034 67.0286 129.066 66.9326 129.066H63.6206V139.698ZM56.6846 128.01C56.6846 127.194 56.3486 126.57 55.6766 126.138C55.0046 125.706 54.1486 125.49 53.1086 125.49C52.5966 125.49 52.1166 125.546 51.6686 125.658C51.2366 125.77 50.8606 125.93 50.5406 126.138C50.2206 126.346 49.9646 126.61 49.7726 126.93C49.5966 127.25 49.5086 127.61 49.5086 128.01C49.5086 128.41 49.5966 128.77 49.7726 129.09C49.9646 129.394 50.2206 129.658 50.5406 129.882C50.8606 130.09 51.2366 130.258 51.6686 130.386C52.1166 130.498 52.5966 130.554 53.1086 130.554C54.1486 130.554 55.0046 130.33 55.6766 129.882C56.3486 129.434 56.6846 128.81 56.6846 128.01ZM59.8526 122.514C59.8526 122.722 59.7326 122.826 59.4926 122.826H46.7246C46.6446 122.826 46.5646 122.794 46.4846 122.73C46.4206 122.666 46.3886 122.586 46.3886 122.49V121.698C46.3886 121.602 46.4206 121.522 46.4846 121.458C46.5646 121.394 46.6446 121.362 46.7246 121.362H59.4926C59.7326 121.362 59.8526 121.466 59.8526 121.674V122.514ZM56.4686 119.49C56.4686 119.714 56.3486 119.826 56.1086 119.826H49.7726C49.6926 119.826 49.6126 119.802 49.5326 119.754C49.4686 119.69 49.4366 119.61 49.4366 119.514V118.698C49.4366 118.602 49.4686 118.522 49.5326 118.458C49.5966 118.394 49.6686 118.362 49.7486 118.362H56.1086C56.3486 118.362 56.4686 118.474 56.4686 118.698V119.49Z" fill="black"/>
</svg>
