<svg width="261" height="181" viewBox="0 0 261 181" fill="none" xmlns="http://www.w3.org/2000/svg">
<path fill-rule="evenodd" clip-rule="evenodd" d="M56.0941 3.4668C26.7477 3.4668 2.95764 27.2568 2.95764 56.6033V101.411C2.95764 130.2 25.8841 153.753 54.6624 154.528L187.018 158.096C189.844 165.161 198.277 174.599 213.29 178.153C205.751 169.389 204.715 162.943 206.379 158.162C231.332 155.564 251.502 135.593 253.753 109.96L258.03 61.2518C260.758 30.1902 236.279 3.4668 205.098 3.4668H56.0941Z" fill="#D2E3A2"/>
<path fill-rule="evenodd" clip-rule="evenodd" d="M56.0941 6.1242C28.2149 6.1242 5.61443 28.7247 5.61443 56.6039V101.412C5.61443 128.761 27.3945 151.136 54.734 151.873L187.09 155.44C188.15 155.469 189.091 156.125 189.485 157.11C191.493 162.13 196.889 168.85 206.323 173.034C202.811 166.948 202.32 161.743 203.869 157.289C204.208 156.316 205.079 155.627 206.104 155.52C229.807 153.052 248.968 134.078 251.106 109.729L255.384 61.0199C257.975 31.5115 234.72 6.1242 205.098 6.1242H56.0941ZM0.300781 56.6039C0.300781 25.7901 25.2803 0.810547 56.0941 0.810547H205.098C237.838 0.810547 263.541 28.8702 260.677 61.4848L256.4 110.193C254.091 136.477 233.842 157.088 208.492 160.583C207.902 164.098 209.063 169.166 215.304 176.421C216.054 177.294 216.158 178.551 215.56 179.534C214.961 180.518 213.798 181.004 212.677 180.739C197.918 177.245 188.972 168.3 185.272 160.707L54.5908 157.185C24.3735 156.37 0.300781 131.64 0.300781 101.412V56.6039Z" fill="white"/>
</svg>
