<svg width="538" height="343" viewBox="0 0 538 343" fill="none" xmlns="http://www.w3.org/2000/svg">
<path fill-rule="evenodd" clip-rule="evenodd" d="M38.5991 9.06543C22.0306 9.06543 8.59912 22.4969 8.59912 39.0654V259.693C8.59912 276.262 22.0306 289.693 38.5991 289.693H420.392L416.779 342.363L433.715 338.404L470.525 289.693H507.349C523.918 289.693 537.349 276.262 537.349 259.693V39.0654C537.349 22.4969 523.918 9.06543 507.349 9.06543H38.5991Z" fill="#452B00"/>
<path fill-rule="evenodd" clip-rule="evenodd" d="M30.5991 0.0654297C14.0306 0.0654297 0.599121 13.4969 0.599121 30.0654V250.693C0.599121 267.262 14.0306 280.693 30.5991 280.693H416.665V342.995L463.108 280.693H499.349C515.918 280.693 529.349 267.262 529.349 250.693V30.0654C529.349 13.4969 515.918 0.0654297 499.349 0.0654297H30.5991Z" fill="#FFCA75"/>
<mask id="mask0_706_11795" style="mask-type:alpha" maskUnits="userSpaceOnUse" x="0" y="0" width="530" height="281">
<rect x="0.599121" y="0.0654297" width="528.75" height="280.628" rx="30" fill="#FFB338"/>
</mask>
<g mask="url(#mask0_706_11795)">
<path d="M43.6715 16.303L44.5742 31.9168L57.9483 40.0248L43.3776 45.7083L39.7993 60.9334L29.8913 48.8321L14.3057 50.1337L22.7529 36.9712L16.6989 22.5506L31.8274 26.5169L43.6715 16.303Z" fill="#FBAE33"/>
<path d="M525.455 231.584L526.517 249.937L542.237 259.467L525.11 266.148L520.904 284.044L509.258 269.819L490.938 271.349L500.867 255.878L493.751 238.927L511.534 243.589L525.455 231.584Z" fill="#FBAE33"/>
<path d="M392.039 262.276L392.805 275.536L404.163 282.422L391.789 287.248L388.75 300.178L380.336 289.901L367.1 291.007L374.274 279.829L369.133 267.582L381.98 270.95L392.039 262.276Z" fill="#FBAE33"/>
<path d="M449.68 -0.736366L450.447 12.5234L461.805 19.4091L449.431 24.2357L446.392 37.1654L437.978 26.8886L424.742 27.9939L431.916 16.8159L426.774 4.56934L439.622 7.93771L449.68 -0.736366Z" fill="#FBAE33"/>
<path d="M73.343 -16.6839L74.0402 -4.62462L84.3697 1.63761L73.1161 6.02726L70.3523 17.7863L62.6999 8.43993L50.6624 9.44517L57.1866 -0.72084L52.5107 -11.8586L64.1953 -8.79518L73.343 -16.6839Z" fill="#FBAE33"/>
<path d="M174.007 252.162L174.906 267.721L188.234 275.801L173.714 281.465L170.148 296.637L160.275 284.578L144.743 285.875L153.161 272.758L147.128 258.388L162.204 262.34L174.007 252.162Z" fill="#FBAE33"/>
<path d="M52.4846 202.415L53.1947 214.697L63.7141 221.074L52.2535 225.544L49.4389 237.52L41.6458 228.001L29.3868 229.025L36.031 218.672L31.2691 207.329L43.1686 210.449L52.4846 202.415Z" fill="#FBAE33"/>
<path d="M72.2902 240.059L73.0568 253.318L84.4146 260.204L72.0406 265.031L69.0017 277.96L60.5876 267.683L47.3517 268.789L54.5254 257.611L49.3841 245.364L62.2318 248.733L72.2902 240.059Z" fill="#FBAE33"/>
<path d="M510.269 -11.256L511.217 5.1289L525.251 13.6374L509.961 19.6016L506.206 35.5785L495.809 22.8797L479.453 24.2455L488.318 10.433L481.965 -4.69986L497.84 -0.537614L510.269 -11.256Z" fill="#FBAE33"/>
<path d="M512.788 191.692L521.224 200.64L533.377 198.764L527.474 209.552L533.014 220.531L520.93 218.25L512.201 226.911L510.636 214.714L499.701 209.088L510.817 203.831L512.788 191.692Z" fill="#FBAE33"/>
<path d="M22.2767 246.397L21.6578 259.665L32.2365 267.696L19.4271 271.208L15.0578 283.75L7.76002 272.653L-5.519 272.374L2.78009 262.004L-1.05753 249.288L11.3694 253.977L22.2767 246.397Z" fill="#FBAE33"/>
</g>
</svg>
