<svg width="251" height="160" viewBox="0 0 251 160" fill="none" xmlns="http://www.w3.org/2000/svg">
<path fill-rule="evenodd" clip-rule="evenodd" d="M30.0005 4.44336C13.4319 4.44336 0.000488281 17.8748 0.000488281 34.4433V105.151C0.000488281 121.719 13.4319 135.151 30.0005 135.151H34.6573L50.7251 157.838L58.1177 159.682L56.5407 135.151H216.275C232.843 135.151 246.275 121.719 246.275 105.151V34.4434C246.275 17.8748 232.843 4.44336 216.275 4.44336H30.0005Z" fill="#0F333C"/>
<path fill-rule="evenodd" clip-rule="evenodd" d="M34.2749 0.253906C17.7064 0.253906 4.2749 13.6853 4.2749 30.2539V100.961C4.2749 117.53 17.7063 130.961 34.2749 130.961H37.792L58.0645 159.979V130.961H220.549C237.118 130.961 250.549 117.53 250.549 100.961V30.2539C250.549 13.6854 237.118 0.253906 220.549 0.253906H34.2749Z" fill="#9BD6E3"/>
<mask id="mask0_706_11845" style="mask-type:alpha" maskUnits="userSpaceOnUse" x="4" y="0" width="247" height="131">
<rect x="4.2749" y="0.253906" width="246.274" height="130.707" rx="30" fill="#FFB338"/>
</mask>
<g mask="url(#mask0_706_11845)">
<path d="M24.3365 7.81697L24.757 15.0894L30.9862 18.8658L24.1997 21.513L22.533 28.6043L17.9182 22.968L10.6589 23.5742L14.5933 17.4436L11.7736 10.7269L18.82 12.5743L24.3365 7.81697Z" fill="white"/>
<path d="M248.736 108.087L249.23 116.635L256.552 121.074L248.575 124.186L246.616 132.521L241.192 125.896L232.659 126.609L237.284 119.403L233.969 111.508L242.252 113.679L248.736 108.087Z" fill="white"/>
<path d="M186.594 122.384L186.951 128.56L192.241 131.767L186.478 134.015L185.062 140.037L181.143 135.251L174.978 135.765L178.32 130.559L175.925 124.855L181.909 126.424L186.594 122.384Z" fill="white"/>
<path d="M213.442 -0.120124L213.799 6.05586L219.089 9.26296L213.326 11.511L211.91 17.5332L207.991 12.7467L201.827 13.2615L205.168 8.05512L202.773 2.3511L208.757 3.91997L213.442 -0.120124Z" fill="white"/>
<path d="M38.1567 -7.5458L38.4815 -1.92897L43.2926 0.987767L38.051 3.03232L36.7637 8.50928L33.1995 4.15606L27.5928 4.62427L30.6316 -0.110722L28.4537 -5.29832L33.896 -3.87148L38.1567 -7.5458Z" fill="white"/>
<path d="M85.0417 117.672L85.4607 124.919L91.6683 128.683L84.9053 131.321L83.2444 138.387L78.6456 132.771L71.4116 133.375L75.3323 127.265L72.5223 120.572L79.5443 122.413L85.0417 117.672Z" fill="white"/>
<path d="M28.4408 94.5013L28.7716 100.221L33.6712 103.192L28.3332 105.274L27.0223 110.852L23.3925 106.418L17.6826 106.895L20.7773 102.073L18.5594 96.7902L24.1018 98.2432L28.4408 94.5013Z" fill="white"/>
<path d="M37.6662 112.035L38.0233 118.211L43.3134 121.418L37.55 123.666L36.1346 129.689L32.2156 124.902L26.0507 125.417L29.392 120.21L26.9973 114.506L32.9814 116.075L37.6662 112.035Z" fill="white"/>
<path d="M241.663 -5.01956L242.104 2.61199L248.641 6.57496L241.519 9.35288L239.77 16.7944L234.928 10.8797L227.31 11.5159L231.439 5.08244L228.48 -1.96592L235.874 -0.0272805L241.663 -5.01956Z" fill="white"/>
<path d="M242.836 89.5071L246.765 93.6747L252.426 92.8008L249.676 97.8254L252.257 102.939L246.628 101.877L242.562 105.911L241.834 100.23L236.74 97.6095L241.918 95.1607L242.836 89.5071Z" fill="white"/>
<path d="M14.3714 114.986L14.0832 121.166L19.0104 124.906L13.0442 126.542L11.0091 132.384L7.61003 127.215L1.4251 127.085L5.29054 122.255L3.50311 116.332L9.29117 118.516L14.3714 114.986Z" fill="white"/>
</g>
</svg>
