<svg width="251" height="161" viewBox="0 0 251 161" fill="none" xmlns="http://www.w3.org/2000/svg">
<path fill-rule="evenodd" clip-rule="evenodd" d="M34.5 5.06641C17.9315 5.06641 4.5 18.4979 4.5 35.0664V105.773C4.5 122.342 17.9315 135.773 34.5 135.773H196.299L194.617 160.306L202.505 158.462L219.65 135.773H220.774C237.343 135.773 250.774 122.342 250.774 105.773V35.0664C250.774 18.4979 237.343 5.06641 220.774 5.06641H34.5Z" fill="#6A460B"/>
<path fill-rule="evenodd" clip-rule="evenodd" d="M30.7734 0.874023C14.2049 0.874023 0.773438 14.3055 0.773438 30.874V101.581C0.773438 118.15 14.2049 131.581 30.7734 131.581H194.563V160.6L216.195 131.581H217.047C233.616 131.581 247.047 118.15 247.047 101.581V30.874C247.047 14.3055 233.616 0.874023 217.047 0.874023H30.7734Z" fill="#FFD38D"/>
<mask id="mask0_143_867" style="mask-type:alpha" maskUnits="userSpaceOnUse" x="0" y="0" width="248" height="132">
<rect x="0.773438" y="0.874023" width="246.274" height="130.707" rx="30" fill="#FFB338"/>
</mask>
<g mask="url(#mask0_143_867)">
<path d="M20.835 8.43611L21.2555 15.7085L27.4847 19.485L20.6982 22.1321L19.0315 29.2235L14.4167 23.5871L7.15745 24.1933L11.0919 18.0627L8.2721 11.346L15.3185 13.1934L20.835 8.43611Z" fill="#FFB744"/>
<path d="M245.234 108.707L245.728 117.255L253.05 121.694L245.073 124.806L243.114 133.141L237.69 126.516L229.157 127.229L233.782 120.023L230.467 112.128L238.75 114.299L245.234 108.707Z" fill="#FFB744"/>
<path d="M183.093 123.003L183.451 129.179L188.741 132.386L182.977 134.634L181.562 140.656L177.643 135.87L171.478 136.385L174.819 131.178L172.425 125.474L178.409 127.043L183.093 123.003Z" fill="#FFB744"/>
<path d="M209.941 0.499991L210.298 6.67597L215.588 9.88307L209.825 12.1312L208.409 18.1533L204.49 13.3668L198.326 13.8816L201.667 8.67523L199.272 2.97121L205.256 4.54009L209.941 0.499991Z" fill="#FFB744"/>
<path d="M34.6547 -6.92666L34.9795 -1.30984L39.7906 1.6069L34.5491 3.65145L33.2618 9.12841L29.6976 4.77519L24.0909 5.2434L27.1296 0.508412L24.9518 -4.67918L30.3941 -3.25234L34.6547 -6.92666Z" fill="#FFB744"/>
<path d="M81.5402 118.292L81.9592 125.54L88.1668 129.303L81.4038 131.941L79.7429 139.008L75.1442 133.391L67.9101 133.995L71.8309 127.886L69.0209 121.192L76.0428 123.033L81.5402 118.292Z" fill="#FFB744"/>
<path d="M24.9389 95.1224L25.2696 100.843L30.1692 103.813L24.8312 105.895L23.5203 111.473L19.8905 107.04L14.1807 107.516L17.2753 102.694L15.0574 97.4112L20.5998 98.8643L24.9389 95.1224Z" fill="#FFB744"/>
<path d="M34.1657 112.654L34.5228 118.83L39.8129 122.037L34.0495 124.285L32.6341 130.308L28.7151 125.521L22.5502 126.036L25.8915 120.83L23.4968 115.126L29.4809 116.694L34.1657 112.654Z" fill="#FFB744"/>
<path d="M238.16 -4.39847L238.601 3.23308L245.138 7.19604L238.016 9.97397L236.267 17.4155L231.425 11.5008L223.807 12.1369L227.936 5.70353L224.977 -1.34483L232.371 0.593808L238.16 -4.39847Z" fill="#FFB744"/>
<path d="M239.334 90.1272L243.263 94.2949L248.924 93.421L246.174 98.4455L248.755 103.559L243.126 102.497L239.061 106.531L238.332 100.85L233.238 98.2297L238.416 95.7808L239.334 90.1272Z" fill="#FFB744"/>
<path d="M10.8694 115.607L10.5812 121.787L15.5084 125.527L9.54221 127.163L7.50716 133.005L4.10807 127.836L-2.07685 127.706L1.78859 122.876L0.00115585 116.954L5.78921 119.137L10.8694 115.607Z" fill="#FFB744"/>
</g>
</svg>
