<svg width="205" height="142" viewBox="0 0 205 142" fill="none" xmlns="http://www.w3.org/2000/svg">
<path d="M172.361 47.9643C174.847 48.8573 177.341 49.7125 179.721 50.8893C182.968 52.4937 186.021 54.3781 188.712 56.7922C191.981 59.7248 194.781 63.0433 196.605 67.0997C197.839 69.843 198.629 72.7112 198.784 75.7119C198.902 77.9179 199.587 79.8477 200.692 81.7586C202.724 85.2663 203.806 89.0919 204.214 93.1483C204.699 97.9804 204.169 102.661 202.485 107.194C200.472 112.617 197.161 117.12 192.734 120.85C188.314 124.57 183.301 127.098 177.7 128.358C169.633 130.174 161.709 129.61 154.024 126.417C151.167 125.228 148.443 123.794 145.881 122.065C145.151 121.573 144.852 121.683 144.413 122.447C141.507 127.484 137.439 131.404 132.524 134.461C127.234 137.75 121.437 139.649 115.318 140.622C111.845 141.174 108.326 141.284 104.848 141.011C97.0685 140.398 89.792 138.154 83.3139 133.663C81.1116 132.138 79.0229 130.462 77.3769 128.32C76.9077 127.707 76.658 128.116 76.3477 128.433C73.5627 131.298 70.3085 133.508 66.6986 135.173C62.7558 136.993 58.6199 138.151 54.2835 138.597C47.9946 139.248 41.8911 138.537 36.0525 136.088C30.3463 133.697 25.7035 130.049 22.892 124.385C22.6044 123.802 22.332 123.2 22.1541 122.576C21.9611 121.899 21.7606 121.728 20.966 121.906C16.868 122.811 12.8986 122.391 9.25846 120.207C4.78585 117.524 2.36413 113.362 1.123 108.424C0.222419 104.833 0.0862022 101.2 0.441892 97.5149C0.960292 92.1153 2.5382 87.0637 4.99398 82.2467C6.63999 79.0153 8.65682 76.0714 11.0672 73.3583C13.7954 70.2895 16.9512 67.8375 20.6481 66.0553C23.4785 64.6931 26.4678 64.3147 29.5631 64.4849C30.1761 64.519 30.8269 65.2909 31.3491 64.6514C31.7048 64.2163 31.6896 63.486 31.8675 62.8995C32.8891 59.5242 34.6335 56.5803 37.0477 54.0034C42.2544 48.4486 48.8309 45.7053 56.1868 44.4339C58.3626 44.0593 60.5611 43.9041 62.7217 43.9155C68.2236 43.942 73.6232 44.8047 78.8072 46.7761C80.7673 47.5216 82.7085 48.3048 84.5588 49.2773C85.2172 49.6216 85.4442 49.406 85.7016 48.8384C86.7648 46.4999 88.2406 44.4528 90.0834 42.663C93.7046 39.1477 97.9956 36.9417 102.949 35.9919C104.678 35.6589 106.411 35.5416 108.163 35.5795C108.526 35.587 108.927 35.7043 109.249 35.4092C111.183 35.4281 113.059 35.7649 114.902 36.3249C115.004 36.3476 115.107 36.3779 115.205 36.4157C116.124 36.6919 117.04 36.9795 117.907 37.3995C118.005 37.4412 118.096 37.4903 118.183 37.5471C125.051 40.5705 129.781 45.622 132.433 52.6261C132.887 53.8218 132.872 53.8218 133.898 53.0234C138.809 49.213 144.474 47.2529 150.536 46.2691C157.566 45.1301 164.498 45.6447 171.355 47.4799C171.722 47.5859 172.093 47.6691 172.361 47.9643Z" fill="#BFEEF6"/>
<path d="M115.012 36.5975C113.426 36.2153 111.837 35.8482 110.202 35.712C109.869 35.6855 109.517 35.6515 109.241 35.4169C109.786 28.6777 112.318 22.8277 117.203 18.1092C121.906 13.5646 127.616 11.177 134.109 10.5943C151.406 9.04284 168.403 21.9423 171.896 39.4581C172.456 42.2658 172.622 45.1075 172.361 47.9644C169.849 47.4044 167.362 46.746 164.801 46.4281C155.076 45.2286 145.745 46.2881 137.076 51.1921C135.82 51.9035 134.612 52.7095 133.557 53.6971C132.838 54.3706 132.649 54.1171 132.376 53.3262C129.996 46.3752 125.418 41.3539 118.86 38.0997C118.557 37.9483 118.243 37.8121 117.937 37.6721C118.198 37.3164 118.402 36.9305 118.55 36.4234C118.133 36.7829 118.281 37.3694 117.872 37.6381C116.987 37.3088 116.101 36.9796 115.212 36.6467C115.216 36.4158 115.364 36.2266 115.394 35.9731C115.22 36.1775 115.216 36.4499 115.012 36.5975Z" fill="#FCCD11"/>
<path d="M111.462 20.5119C111.402 20.9092 111.171 20.9622 110.868 20.8411C108.972 20.0729 107.073 19.3048 105.181 18.5215C104.734 18.3361 104.814 17.9842 105.018 17.6701C105.775 16.4933 106.528 15.309 107.323 14.1587C107.69 13.6289 108.053 13.7765 108.31 14.3138C109.037 15.8236 109.748 17.3372 110.494 18.8394C110.785 19.4145 111.141 19.9594 111.462 20.5119Z" fill="#FCCE13"/>
<path d="M105.219 33.8758C103.229 34.1218 101.234 34.3677 99.244 34.6137C98.5856 34.6969 98.3775 34.4207 98.5251 33.785C98.7975 32.6196 99.0473 31.4503 99.297 30.2773C99.4294 29.6454 99.7586 29.4335 100.262 29.8951C101.802 31.3103 103.577 32.4077 105.279 33.6072C105.257 33.698 105.238 33.7888 105.219 33.8758Z" fill="#FCCE13"/>
<path d="M123.631 10.2496C122.818 9.65173 122.326 8.91764 121.815 8.20626C121.312 7.51002 120.88 6.75323 120.317 6.10996C119.658 5.35696 119.934 4.97857 120.676 4.5699C121.52 4.10448 122.326 3.57473 123.298 3.41202C123.703 3.34391 124.161 3.35904 124.047 3.92285C123.635 5.97374 124.059 8.08518 123.631 10.2496Z" fill="#FCCE14"/>
<path d="M158.463 14.3097C159.189 12.467 159.912 10.6242 160.65 8.78519C160.873 8.23651 161.293 8.47112 161.585 8.66788C162.383 9.2052 163.132 9.82198 163.76 10.5561C164.063 10.908 164.332 11.3393 163.685 11.6345C161.937 12.4367 160.279 13.4054 158.697 14.5141C158.622 14.446 158.542 14.3778 158.463 14.3097Z" fill="#FCCE14"/>
<path d="M143.754 0.472068C143.728 0.57045 143.713 0.6764 143.675 0.770999C142.96 2.40188 142.245 4.03275 141.522 5.65984C141.442 5.83769 141.412 6.10257 141.166 6.1177C140.897 6.13662 140.875 5.87931 140.822 5.6939C140.353 4.0441 139.887 2.39431 139.422 0.740727C139.301 0.313142 139.448 0.0861064 139.917 0.0898903C141.049 0.0974582 142.184 0.0936739 143.315 0.105026C143.542 0.105026 143.83 0.0785386 143.754 0.472068Z" fill="#FCCE14"/>
<path d="M172.282 30.1796C172.142 30.1152 171.945 30.0887 171.854 29.9752C171.684 29.7633 171.862 29.5968 172.02 29.4644C173.428 28.2649 174.684 26.9102 175.963 25.5783C176.353 25.1734 176.629 25.2529 176.977 25.6275C177.503 26.1951 177.844 26.8573 178.063 27.5838C178.237 28.1514 178.037 28.666 177.469 28.8287C175.763 29.313 174.033 29.7293 172.282 30.1796Z" fill="#FCCE13"/>
<path d="M175.524 46.106C177.095 45.3113 178.521 44.8383 179.978 44.4372C180.584 44.2707 180.72 44.6151 180.78 45.054C180.871 45.6973 180.928 46.3481 180.981 46.9952C181.057 47.892 180.64 48.2174 179.804 47.8466C178.468 47.2601 177.14 46.6508 175.524 46.106Z" fill="#FCCE14"/>
<path d="M28.1286 68.2311C29.0481 68.3181 30.5806 68.1138 32.1206 67.9927C33.0855 67.917 33.725 67.2019 34.0996 66.0288C35.3067 62.2752 36.9489 58.7713 39.8361 55.956C43.4497 52.4332 47.7975 50.2877 52.622 49.0201C55.1118 48.3654 57.6508 48.0741 60.2277 47.953C67.0691 47.6276 73.5623 48.986 79.7566 51.8429C81.2777 52.5429 82.7232 53.417 84.0816 54.4084C84.7022 54.8625 84.9784 54.7641 85.4628 54.1586C87.7104 51.3585 89.4813 48.18 92.1679 45.7205C95.8043 42.3906 100.023 40.4759 104.931 39.9008C110.664 39.2272 115.818 40.6651 120.498 43.889C124.521 46.6627 127.082 50.5185 128.429 55.203C128.812 56.5274 129.428 57.6512 130.794 58.2453C131.676 58.6275 132.414 58.4534 133.072 57.8669C136.788 54.5673 141.261 52.7889 145.957 51.5023C148.666 50.7607 151.436 50.3898 154.255 50.212C161.978 49.7239 169.303 51.1769 176.323 54.3705C180.485 56.2625 184.224 58.7637 187.398 62.0671C190.634 65.431 192.87 69.336 193.611 74.0054C193.672 74.3762 193.733 74.7849 193.638 75.133C193.282 76.412 193.88 77.3542 194.561 78.338C197.267 82.2506 199.14 86.5264 199.984 91.2261C200.96 96.6636 200.445 101.957 198.179 107.005C193.804 116.756 186.063 122.22 175.766 124.343C173.103 124.892 170.401 125.115 167.691 124.945C161.312 124.547 155.363 122.78 150.047 119.136C149.203 118.557 148.458 117.835 147.64 117.214C147.008 116.737 146.29 116.56 145.506 116.824C145.139 116.949 144.768 116.945 144.394 116.828C142.589 116.257 141.457 116.711 140.667 118.489C139.38 121.388 137.515 123.851 135.278 126.069C131.139 130.174 126.159 132.853 120.657 134.59C116.185 136.001 111.561 136.652 106.88 136.482C100.451 136.251 94.2264 134.995 88.4975 131.907C86.4731 130.814 85.0503 128.978 83.514 127.321C82.0724 125.762 80.7858 124.067 79.6317 122.277C79.4652 122.02 79.2155 121.77 79.1701 121.49C79.0376 120.703 78.7387 120.113 77.8646 120.007C76.9451 119.897 76.3208 120.306 75.7797 121.04C74.565 122.693 73.4034 124.407 71.9163 125.834C67.3453 130.22 61.8775 132.8 55.6529 133.841C53.3863 134.219 51.1122 134.529 48.8116 134.442C42.1821 134.189 36.0218 132.49 30.6865 128.384C26.9669 125.52 24.5565 121.781 23.5916 117.165C23.3684 116.105 22.6154 116.211 21.9229 116.314C20.6402 116.503 19.365 116.768 18.1011 117.059C15.108 117.755 12.4668 117.048 10.1322 115.11C7.02554 112.53 5.57629 109.018 5.04654 105.185C3.60865 94.7754 6.72663 85.5577 12.8225 77.2179C15.301 73.8238 18.4001 71.0955 22.0894 69.0484C23.796 68.0987 25.6425 68.1668 28.1286 68.2311Z" fill="#FEFCF9"/>
<path d="M115.011 36.597C114.989 36.1505 114.996 35.7078 115.435 35.4353C115.56 35.3559 115.761 35.4202 115.776 35.5451C115.832 36.0256 115.583 36.3738 115.212 36.65C115.148 36.6311 115.079 36.6121 115.011 36.597Z" fill="#F65607"/>
<path d="M141.405 30.702C141.344 29.7598 141.552 28.7911 142.09 27.9246C142.744 26.8613 143.853 26.8121 144.64 27.7732C145.832 29.2263 145.911 32.4199 144.795 33.907C144.061 34.887 143.077 34.9362 142.305 33.9827C141.56 33.0518 141.371 31.9431 141.405 30.702Z" fill="#181300"/>
<path d="M123.283 30.4405C123.215 29.4983 123.468 28.5448 123.998 27.6745C124.645 26.6112 125.761 26.562 126.545 27.5307C127.725 28.9875 127.801 32.1774 126.692 33.6607C125.962 34.6407 124.959 34.6861 124.199 33.7212C123.468 32.7941 123.249 31.6892 123.283 30.4405Z" fill="#181300"/>
<path d="M134.753 41.8074C132.611 41.7582 130.655 41.2474 128.876 40.116C128.646 39.9684 128.415 39.8133 128.218 39.6279C128.059 39.4765 127.764 39.31 127.957 39.0451C128.157 38.7689 128.437 38.8786 128.683 39.0489C128.88 39.1851 129.084 39.31 129.296 39.4273C131.786 40.7782 134.39 41.3458 137.19 40.5587C138.026 40.3241 138.794 39.9684 139.422 39.3592C139.702 39.0905 140.024 38.924 140.304 39.257C140.572 39.5787 140.258 39.8284 140.035 40.029C138.51 41.3685 136.675 41.7771 134.753 41.8074Z" fill="#181400"/>
<path d="M152.526 37.1651C151.878 37.6305 151.943 38.4592 151.504 39.023C151.428 39.1214 151.288 39.2084 151.171 39.2197C151.02 39.2349 150.967 39.0873 150.929 38.9473C150.834 38.5651 151.527 37.0175 151.886 36.8888C152.03 36.8359 152.215 36.8661 152.374 36.904C152.435 36.9115 152.465 37.0478 152.526 37.1651Z" fill="#F55206"/>
<path d="M156.359 39.6278C156.132 39.6202 156.056 39.4537 156.094 39.2834C156.245 38.6023 156.616 38.0423 157.153 37.6034C157.271 37.5088 157.411 37.6412 157.464 37.7699C157.592 38.0688 156.661 39.6202 156.359 39.6278Z" fill="#F55106"/>
<path d="M153.491 39.2461C153.498 39.2612 153.453 39.1742 153.415 39.0834C153.29 38.792 154.1 37.3541 154.433 37.2785C154.58 37.2444 154.713 37.2747 154.781 37.4109C154.909 37.6871 153.918 39.2726 153.491 39.2461Z" fill="#F55106"/>
<path d="M117.872 37.6376C117.88 37.5354 117.876 37.4333 117.891 37.3349C117.993 36.7711 118.069 36.1884 118.636 35.8705C118.761 35.8024 118.95 35.9197 118.909 36.0597C118.723 36.6765 118.731 37.4257 117.936 37.6754L117.872 37.6376Z" fill="#F55106"/>
</svg>
