<svg width="201" height="36" viewBox="0 0 201 36" fill="none" xmlns="http://www.w3.org/2000/svg">
<path d="M194.229 2.12695H198.806V20.9594H194.229V2.12695ZM199.359 25.5677C199.359 26.3255 199.083 26.9502 198.53 27.4417C197.997 27.9333 197.321 28.1791 196.502 28.1791C195.683 28.1791 194.997 27.9333 194.444 27.4417C193.911 26.9502 193.645 26.3255 193.645 25.5677C193.645 24.8099 193.911 24.1852 194.444 23.6937C194.997 23.2021 195.683 22.9563 196.502 22.9563C197.321 22.9563 197.997 23.2021 198.53 23.6937C199.083 24.1852 199.359 24.8099 199.359 25.5677Z" fill="white"/>
<path d="M190.6 8.88672V26.9204C190.6 29.071 189.996 30.6787 188.788 31.7437C187.62 32.9112 185.818 33.4949 183.381 33.4949H172.474V29.6854H182.951C185.019 29.6854 186.053 29.03 186.053 27.7192V26.5825C185.439 26.9921 184.507 27.1969 183.258 27.1969H178.865C176.53 27.1764 174.697 26.5006 173.365 25.1693C172.055 23.879 171.399 22.0561 171.399 19.7008V8.88672H175.946V19.3629C175.946 20.7351 176.171 21.7284 176.622 22.3429C177.154 23.0392 178.025 23.3874 179.233 23.3874H182.705C183.934 23.3874 184.814 23.0392 185.347 22.3429C185.818 21.708 186.053 20.7146 186.053 19.3629V8.88672H190.6Z" fill="white"/>
<path d="M161.607 18.687H156.2C154.459 18.687 153.589 19.3731 153.589 20.7453V21.3905C153.589 22.7423 154.459 23.4181 156.2 23.4181H161.607C163.389 23.4181 164.28 22.7423 164.28 21.3905V20.7453C164.28 19.3731 163.389 18.687 161.607 18.687ZM154.971 27.1969C153.19 27.1969 151.756 26.6746 150.67 25.6301C149.585 24.5856 149.042 23.2952 149.042 21.7592V20.4381C149.042 18.902 149.585 17.6015 150.67 16.5364C151.756 15.4714 153.138 14.9389 154.818 14.9389H164.28V14.8775C164.28 13.3823 163.246 12.6348 161.177 12.6348H150.486V8.88672H161.607C163.901 8.88672 165.683 9.49091 166.953 10.6993C168.202 11.8872 168.827 13.5052 168.827 15.5534V21.9128C168.827 23.5103 168.253 24.8109 167.107 25.8144C166.042 26.7361 164.587 27.1969 162.744 27.1969H154.971Z" fill="white"/>
<path d="M124.24 27.1962V3.04883H137.266C140.256 3.04883 142.56 3.87832 144.178 5.5373C145.899 7.2782 146.759 9.47993 146.759 12.1425V18.164C146.759 20.7856 145.899 22.977 144.178 24.7384C142.56 26.3769 140.256 27.1962 137.266 27.1962H124.24ZM128.787 6.85833V23.3867H137.02C138.659 23.3867 139.949 22.8644 140.891 21.8199C141.772 20.8163 142.212 19.5055 142.212 17.8875V12.3883C142.212 10.7498 141.782 9.42872 140.922 8.42514C139.959 7.3806 138.659 6.85833 137.02 6.85833H128.787Z" fill="white"/>
<path d="M112.746 8.88672V26.9204C112.746 29.071 112.141 30.6787 110.933 31.7437C109.766 32.9112 107.963 33.4949 105.526 33.4949H94.6198V29.6854H105.096C107.165 29.6854 108.199 29.03 108.199 27.7192V26.5825C107.584 26.9921 106.653 27.1969 105.403 27.1969H101.01C98.6751 27.1764 96.842 26.5006 95.5108 25.1693C94.2 23.879 93.5446 22.0561 93.5446 19.7008V8.88672H98.0914V19.3629C98.0914 20.7351 98.3167 21.7284 98.7673 22.3429C99.2998 23.0392 100.17 23.3874 101.379 23.3874H104.85C106.079 23.3874 106.96 23.0392 107.492 22.3429C107.963 21.708 108.199 20.7146 108.199 19.3629V8.88672H112.746Z" fill="white"/>
<path d="M75.9187 16.6286V23.3874H83.2919C84.5003 23.3874 85.381 23.0392 85.934 22.3429C86.3846 21.7284 86.6098 20.7761 86.6098 19.4857V16.6593C86.6098 15.3485 86.3846 14.3859 85.934 13.7715C85.381 13.0546 84.5003 12.6962 83.2919 12.6962H79.2059C77.9975 12.6962 77.127 13.0546 76.5945 13.7715C76.1439 14.3859 75.9187 15.3383 75.9187 16.6286ZM71.3718 16.3828C71.3718 14.0275 72.0272 12.2047 73.338 10.9144C74.6693 9.58308 76.5024 8.9072 78.8372 8.88672H83.6606C85.9954 8.9072 87.8285 9.58308 89.1598 10.9144C90.491 12.2047 91.1567 14.0275 91.1567 16.3828V19.7315C91.1567 22.0664 90.491 23.879 89.1598 25.1693C87.8285 26.5006 86.0057 27.1764 83.6913 27.1969H75.9187V33.2798H71.3718V16.3828Z" fill="white"/>
<path d="M53.8073 16.6286V23.3874H61.1806C62.389 23.3874 63.2696 23.0392 63.8226 22.3429C64.2732 21.7284 64.4985 20.7761 64.4985 19.4857V16.6593C64.4985 15.3485 64.2732 14.3859 63.8226 13.7715C63.2696 13.0546 62.389 12.6962 61.1806 12.6962H57.0946C55.8862 12.6962 55.0157 13.0546 54.4832 13.7715C54.0326 14.3859 53.8073 15.3383 53.8073 16.6286ZM49.2605 16.3828C49.2605 14.0275 49.9159 12.2047 51.2267 10.9144C52.558 9.58308 54.391 8.9072 56.7259 8.88672H61.5492C63.8841 8.9072 65.7171 9.58308 67.0484 10.9144C68.3797 12.2047 69.0453 14.0275 69.0453 16.3828V19.7315C69.0453 22.0664 68.3797 23.879 67.0484 25.1693C65.7171 26.5006 63.8943 27.1764 61.5799 27.1969H53.8073V33.2798H49.2605V16.3828Z" fill="white"/>
<path d="M39.5301 18.687H34.1231C32.3822 18.687 31.5117 19.3731 31.5117 20.7453V21.3905C31.5117 22.7423 32.3822 23.4181 34.1231 23.4181H39.5301C41.312 23.4181 42.2029 22.7423 42.2029 21.3905V20.7453C42.2029 19.3731 41.312 18.687 39.5301 18.687ZM32.8942 27.1969C31.1124 27.1969 29.6787 26.6746 28.5932 25.6301C27.5077 24.5856 26.9649 23.2952 26.9649 21.7592V20.4381C26.9649 18.902 27.5077 17.6015 28.5932 16.5364C29.6787 15.4714 31.0611 14.9389 32.7406 14.9389H42.2029V14.8775C42.2029 13.3823 41.1686 12.6348 39.1 12.6348H28.4088V8.88672H39.5301C41.824 8.88672 43.6059 9.49091 44.8757 10.6993C46.1251 11.8872 46.7498 13.5052 46.7498 15.5534V21.9128C46.7498 23.5103 46.1763 24.8109 45.0293 25.8144C43.9643 26.7361 42.5101 27.1969 40.6668 27.1969H32.8942Z" fill="white"/>
<path d="M24.6125 3.04883V27.1962H20.0657V14.7846H6.97816V27.1962H2.43134V3.04883H6.97816V10.9443H20.0657V3.04883H24.6125Z" fill="white"/>
<path fill-rule="evenodd" clip-rule="evenodd" d="M192.692 2.12593C192.692 1.27757 193.38 0.589844 194.229 0.589844H198.806C199.654 0.589844 200.342 1.27757 200.342 2.12593V20.9584C200.342 21.6081 199.939 22.1636 199.369 22.3881C199.434 22.4412 199.498 22.4965 199.561 22.5542C200.444 23.3441 200.895 24.387 200.895 25.5667C200.895 26.7463 200.444 27.7893 199.561 28.5792C198.709 29.3605 197.648 29.7141 196.502 29.7141C195.35 29.7141 194.288 29.3577 193.423 28.5888C193.416 28.5824 193.409 28.576 193.402 28.5694C192.538 27.7724 192.109 26.7311 192.109 25.5667C192.109 24.4023 192.538 23.3609 193.402 22.5639C193.406 22.5596 193.411 22.5553 193.416 22.551L193.423 22.5446C193.49 22.4848 193.559 22.4276 193.628 22.3728C193.078 22.139 192.692 21.5938 192.692 20.9584V2.12593ZM198.53 27.4407C199.083 26.9492 199.359 26.3245 199.359 25.5667C199.359 24.8089 199.083 24.1842 198.53 23.6926C197.997 23.2011 197.321 22.9553 196.502 22.9553C195.683 22.9553 194.997 23.2011 194.444 23.6926C193.911 24.1842 193.645 24.8089 193.645 25.5667C193.645 26.3245 193.911 26.9492 194.444 27.4407C194.997 27.9323 195.683 28.178 196.502 28.178C197.321 28.178 197.997 27.9323 198.53 27.4407ZM194.229 2.12593V20.9584H198.806V2.12593H194.229Z" fill="#FFBF80"/>
<path fill-rule="evenodd" clip-rule="evenodd" d="M190.6 26.9194V8.8857H186.053V19.3618C186.053 20.7136 185.818 21.7069 185.347 22.3419C184.814 23.0382 183.934 23.3864 182.705 23.3864H179.233C178.025 23.3864 177.154 23.0382 176.622 22.3419C176.171 21.7274 175.946 20.7341 175.946 19.3618V8.8857H171.399V19.6998C171.399 22.0551 172.055 23.8779 173.365 25.1683C174.697 26.4995 176.53 27.1754 178.865 27.1959H183.258C183.721 27.1959 184.141 27.1677 184.517 27.1113C185.155 27.0157 185.667 26.8391 186.053 26.5815V27.7182C186.053 27.941 186.024 28.1448 185.964 28.3297C185.672 29.2328 184.668 29.6844 182.951 29.6844H172.474V33.4939H183.381C185.818 33.4939 187.62 32.9102 188.788 31.7427C189.996 30.6777 190.6 29.0699 190.6 26.9194ZM189.84 32.863C191.454 31.4184 192.136 29.3372 192.136 26.9194V8.8857C192.136 8.03734 191.449 7.34961 190.6 7.34961H186.053C185.205 7.34961 184.517 8.03734 184.517 8.8857V19.3618C184.517 20.5788 184.297 21.1713 184.12 21.4174C183.979 21.5963 183.644 21.8503 182.705 21.8503H179.233C178.331 21.8503 177.999 21.6056 177.852 21.4214C177.697 21.1997 177.482 20.6135 177.482 19.3618V8.8857C177.482 8.03734 176.794 7.34961 175.946 7.34961H171.399C170.551 7.34961 169.863 8.03734 169.863 8.8857V19.6998C169.863 22.3434 170.606 24.6052 172.284 26.2592C173.147 27.1205 174.161 27.7432 175.3 28.1483H172.474C171.626 28.1483 170.938 28.836 170.938 29.6844V33.4939C170.938 34.3422 171.626 35.03 172.474 35.03H183.381C186.013 35.03 188.273 34.4061 189.84 32.863Z" fill="#FFBF80"/>
<path fill-rule="evenodd" clip-rule="evenodd" d="M156.2 18.686H161.607C163.389 18.686 164.28 19.3721 164.28 20.7443V21.3895C164.28 22.7412 163.389 23.4171 161.607 23.4171H156.2C154.459 23.4171 153.589 22.7412 153.589 21.3895V20.7443C153.589 19.3721 154.459 18.686 156.2 18.686ZM150.67 25.6291C151.756 26.6736 153.19 27.1959 154.971 27.1959H162.744C164.587 27.1959 166.042 26.7351 167.107 25.8134C168.254 24.8098 168.827 23.5093 168.827 21.9117V15.5523C168.827 13.5042 168.202 11.8862 166.953 10.6983C165.683 9.4899 163.901 8.8857 161.607 8.8857H150.486V12.6338H161.177C162.388 12.6338 163.244 12.8898 163.746 13.4018C164.102 13.7647 164.28 14.2563 164.28 14.8765V14.9379H154.818C153.138 14.9379 151.756 15.4704 150.67 16.5354C149.585 17.6005 149.042 18.901 149.042 20.4371V21.7581C149.042 23.2942 149.585 24.5845 150.67 25.6291ZM150.486 14.1699C149.638 14.1699 148.95 13.4821 148.95 12.6338V8.8857C148.95 8.03734 149.638 7.34961 150.486 7.34961H161.607C164.17 7.34961 166.377 8.02964 168.012 9.58552C169.623 11.1175 170.363 13.1693 170.363 15.5523V21.9117C170.363 23.9279 169.616 25.6585 168.118 26.9694L168.112 26.975C166.691 28.2046 164.841 28.732 162.744 28.732H154.971C152.87 28.732 151.028 28.1054 149.605 26.736C148.212 25.3955 147.506 23.7026 147.506 21.7581V20.4371C147.506 18.4932 148.211 16.7961 149.595 15.439C150.132 14.9119 150.724 14.49 151.366 14.1699H150.486ZM161.607 20.222H156.2C155.49 20.222 155.241 20.369 155.193 20.4069C155.18 20.4167 155.176 20.4213 155.167 20.4421C155.154 20.4722 155.125 20.5612 155.125 20.7443V21.3895C155.125 21.5648 155.153 21.6466 155.164 21.6706C155.17 21.6854 155.172 21.6876 155.184 21.6969C155.233 21.7351 155.486 21.881 156.2 21.881H161.607C162.348 21.881 162.622 21.733 162.684 21.6864C162.7 21.6739 162.702 21.6703 162.707 21.6588C162.716 21.6381 162.744 21.5605 162.744 21.3895V20.7443C162.744 20.5654 162.715 20.4807 162.703 20.454C162.696 20.4364 162.692 20.4306 162.675 20.4176C162.615 20.3713 162.344 20.222 161.607 20.222Z" fill="#FFBF80"/>
<path fill-rule="evenodd" clip-rule="evenodd" d="M124.24 28.7312C123.392 28.7312 122.704 28.0435 122.704 27.1952V3.04781C122.704 2.19945 123.392 1.51172 124.24 1.51172H137.266C140.542 1.51172 143.29 2.42758 145.274 4.45962C147.303 6.51422 148.295 9.11523 148.295 12.1415V18.1629C148.295 21.157 147.298 23.7425 145.277 25.8107L145.272 25.8168C143.286 27.8275 140.539 28.7312 137.266 28.7312H124.24ZM128.787 23.3856V6.85731H137.02C138.659 6.85731 139.959 7.37958 140.922 8.42413C141.782 9.42771 142.212 10.7487 142.212 12.3872V17.8864C142.212 19.5045 141.772 20.8153 140.891 21.8188C139.949 22.8634 138.659 23.3856 137.02 23.3856H128.787ZM139.744 20.7978C140.325 20.1315 140.676 19.209 140.676 17.8864V12.3872C140.676 11.0387 140.331 10.1066 139.774 9.44476C139.149 8.77784 138.289 8.3934 137.02 8.3934H130.323V21.8496H137.02C138.298 21.8496 139.142 21.4605 139.744 20.7978ZM124.24 27.1952H137.266C140.256 27.1952 142.561 26.3759 144.179 24.7374C145.899 22.976 146.759 20.7845 146.759 18.1629V12.1415C146.759 9.47891 145.899 7.27718 144.179 5.53628C142.561 3.8773 140.256 3.04781 137.266 3.04781H124.24V27.1952Z" fill="#FFBF80"/>
<path fill-rule="evenodd" clip-rule="evenodd" d="M112.746 26.9194V8.8857H108.199V19.3618C108.199 20.7136 107.963 21.7069 107.492 22.3419C106.96 23.0382 106.079 23.3864 104.85 23.3864H101.379C100.17 23.3864 99.2998 23.0382 98.7673 22.3419C98.3167 21.7274 98.0914 20.7341 98.0914 19.3618V8.8857H93.5446V19.6998C93.5446 22.0551 94.2 23.8779 95.5108 25.1683C96.8421 26.4995 98.6751 27.1754 101.01 27.1959H105.403C105.867 27.1959 106.287 27.1677 106.663 27.1113C107.3 27.0157 107.812 26.8391 108.199 26.5815V27.7182C108.199 27.941 108.169 28.1448 108.109 28.3297C107.817 29.2328 106.813 29.6844 105.096 29.6844H94.6198V33.4939H105.526C107.963 33.4939 109.766 32.9102 110.933 31.7427C112.142 30.6777 112.746 29.0699 112.746 26.9194ZM111.985 32.863C113.599 31.4184 114.282 29.3372 114.282 26.9194V8.8857C114.282 8.03734 113.594 7.34961 112.746 7.34961H108.199C107.351 7.34961 106.663 8.03734 106.663 8.8857V19.3618C106.663 20.5788 106.443 21.1713 106.265 21.4174C106.124 21.5963 105.789 21.8503 104.85 21.8503H101.379C100.476 21.8503 100.144 21.6056 99.9974 21.4214C99.8424 21.1997 99.6275 20.6135 99.6275 19.3618V8.8857C99.6275 8.03734 98.9398 7.34961 98.0914 7.34961H93.5446C92.6962 7.34961 92.0085 8.03734 92.0085 8.8857V19.6998C92.0085 22.3432 92.7514 24.6048 94.4289 26.2587C95.2918 27.1203 96.3059 27.7431 97.4449 28.1483H94.6198C93.7715 28.1483 93.0837 28.836 93.0837 29.6844V33.4939C93.0837 34.3422 93.7715 35.03 94.6198 35.03H105.526C108.158 35.03 110.418 34.4061 111.985 32.863Z" fill="#FFBF80"/>
<path fill-rule="evenodd" clip-rule="evenodd" d="M75.9187 16.6276C75.9187 15.3373 76.144 14.3849 76.5946 13.7705C77.1271 13.0536 77.9975 12.6952 79.2059 12.6952H83.2919C84.5003 12.6952 85.381 13.0536 85.934 13.7705C86.3846 14.3849 86.6099 15.3475 86.6099 16.6583V19.4847C86.6099 20.775 86.3846 21.7274 85.934 22.3419C85.381 23.0382 84.5003 23.3864 83.2919 23.3864H75.9187V16.6276ZM77.4548 21.8503H83.2919C84.1771 21.8503 84.5383 21.6139 84.7119 21.4099C84.8735 21.1718 85.0738 20.6135 85.0738 19.4847V16.6583C85.0738 15.4889 84.8662 14.9238 84.7057 14.6934C84.5302 14.4752 84.1753 14.2313 83.2919 14.2313H79.2059C78.3037 14.2313 77.9792 14.4847 77.8304 14.6827C77.6667 14.909 77.4548 15.4664 77.4548 16.6276V21.8503ZM73.338 10.9133C72.0272 12.2037 71.3718 14.0265 71.3718 16.3818V33.2788H75.9187V27.1959H83.6913C86.0057 27.1754 87.8285 26.4995 89.1598 25.1683C90.4911 23.8779 91.1567 22.0654 91.1567 19.7305V16.3818C91.1567 14.0265 90.4911 12.2037 89.1598 10.9133C87.8285 9.58206 85.9954 8.90618 83.6606 8.8857H78.8372C76.5024 8.90618 74.6693 9.58206 73.338 10.9133ZM90.2376 9.81879C91.9369 11.471 92.6928 13.734 92.6928 16.3818V19.7305C92.6928 22.3624 91.9343 24.6131 90.2375 26.2628C88.56 27.9354 86.3198 28.7088 83.7049 28.7319L83.6913 28.732H77.4548V33.2788C77.4548 34.1272 76.767 34.8149 75.9187 34.8149H71.3718C70.5235 34.8149 69.8358 34.1272 69.8358 33.2788V16.3818C69.8358 13.7384 70.5787 11.4766 72.2563 9.82273C73.9368 8.14486 76.1907 7.37277 78.8238 7.34967L78.8372 7.34961H83.6606L83.674 7.34967C86.3051 7.37275 88.5575 8.14365 90.2376 9.81879Z" fill="#FFBF80"/>
<path fill-rule="evenodd" clip-rule="evenodd" d="M53.8073 16.6276C53.8073 15.3373 54.0326 14.3849 54.4832 13.7705C55.0157 13.0536 55.8862 12.6952 57.0946 12.6952H61.1806C62.389 12.6952 63.2697 13.0536 63.8227 13.7705C64.2732 14.3849 64.4985 15.3475 64.4985 16.6583V19.4847C64.4985 20.775 64.2732 21.7274 63.8227 22.3419C63.2697 23.0382 62.389 23.3864 61.1806 23.3864H53.8073V16.6276ZM55.3434 21.8503H61.1806C62.0658 21.8503 62.427 21.6139 62.6006 21.4099C62.7621 21.1718 62.9624 20.6135 62.9624 19.4847V16.6583C62.9624 15.4889 62.7549 14.9238 62.5943 14.6934C62.4189 14.4752 62.064 14.2313 61.1806 14.2313H57.0946C56.1924 14.2313 55.8679 14.4847 55.7191 14.6827C55.5554 14.909 55.3434 15.4664 55.3434 16.6276V21.8503ZM51.2267 10.9133C49.9159 12.2037 49.2605 14.0265 49.2605 16.3818V33.2788H53.8073V27.1959H61.58C63.8943 27.1754 65.7172 26.4995 67.0484 25.1683C68.3797 23.8779 69.0454 22.0654 69.0454 19.7305V16.3818C69.0454 14.0265 68.3797 12.2037 67.0484 10.9133C65.7172 9.58206 63.8841 8.90618 61.5492 8.8857H56.7259C54.3911 8.90618 52.558 9.58206 51.2267 10.9133ZM68.1262 9.81879C69.8256 11.471 70.5815 13.734 70.5815 16.3818V19.7305C70.5815 22.3624 69.823 24.6131 68.1262 26.2628C66.4487 27.9354 64.2084 28.7088 61.5936 28.7319L61.58 28.732H55.3434V33.2788C55.3434 34.1272 54.6557 34.8149 53.8073 34.8149H49.2605C48.4122 34.8149 47.7244 34.1272 47.7244 33.2788V16.3818C47.7244 13.7385 48.4673 11.4769 50.1447 9.82296C51.8252 8.14493 54.0792 7.37277 56.7124 7.34967L56.7259 7.34961H61.5492L61.5627 7.34967C64.1937 7.37275 66.4462 8.14365 68.1262 9.81879Z" fill="#FFBF80"/>
<path fill-rule="evenodd" clip-rule="evenodd" d="M34.1231 18.686H39.5301C41.312 18.686 42.2029 19.3721 42.2029 20.7443V21.3895C42.2029 22.7412 41.312 23.4171 39.5301 23.4171H34.1231C32.3822 23.4171 31.5118 22.7412 31.5118 21.3895V20.7443C31.5118 19.3721 32.3822 18.686 34.1231 18.686ZM28.5932 25.6291C29.6787 26.6736 31.1124 27.1959 32.8942 27.1959H40.6669C42.5102 27.1959 43.9643 26.7351 45.0293 25.8134C46.1763 24.8098 46.7498 23.5093 46.7498 21.9117V15.5523C46.7498 13.5042 46.1251 11.8862 44.8757 10.6983C43.6059 9.4899 41.824 8.8857 39.5301 8.8857H28.4088V12.6338H39.1C40.3106 12.6338 41.1669 12.8898 41.6691 13.4018C42.025 13.7647 42.2029 14.2563 42.2029 14.8765V14.9379H32.7406C31.0612 14.9379 29.6787 15.4704 28.5932 16.5354C27.5077 17.6005 26.9649 18.901 26.9649 20.4371V21.7581C26.9649 23.2942 27.5077 24.5845 28.5932 25.6291ZM28.4088 14.1699C27.5605 14.1699 26.8728 13.4821 26.8728 12.6338V8.8857C26.8728 8.03734 27.5605 7.34961 28.4088 7.34961H39.5301C42.0924 7.34961 44.2993 8.02951 45.9342 9.58508C47.5455 11.1171 48.2859 13.169 48.2859 15.5523V21.9117C48.2859 23.9279 47.539 25.6585 46.0409 26.9694L46.0345 26.975C44.6136 28.2046 42.7633 28.732 40.6669 28.732H32.8942C30.7928 28.732 28.9512 28.1054 27.5281 26.736C26.135 25.3955 25.4288 23.7026 25.4288 21.7581V20.4371C25.4288 18.4932 26.1341 16.7961 27.5174 15.439C28.0545 14.9119 28.6473 14.49 29.2884 14.1699H28.4088ZM39.5301 20.222H34.1231C33.4128 20.222 33.1636 20.369 33.1155 20.4069C33.103 20.4167 33.0985 20.4213 33.0897 20.4421C33.077 20.4722 33.0478 20.5612 33.0478 20.7443V21.3895C33.0478 21.5648 33.0762 21.6466 33.0865 21.6706C33.0928 21.6854 33.0947 21.6876 33.1067 21.6969C33.1559 21.7351 33.409 21.881 34.1231 21.881H39.5301C40.2706 21.881 40.545 21.733 40.6063 21.6864C40.6229 21.6739 40.6244 21.6703 40.6295 21.6588C40.6386 21.6381 40.6669 21.5605 40.6669 21.3895V20.7443C40.6669 20.5654 40.6377 20.4807 40.6262 20.454C40.6186 20.4364 40.6144 20.4306 40.5975 20.4176C40.5374 20.3713 40.2669 20.222 39.5301 20.222Z" fill="#FFBF80"/>
<path fill-rule="evenodd" clip-rule="evenodd" d="M24.6125 1.51172C25.4609 1.51172 26.1486 2.19945 26.1486 3.04781V27.1952C26.1486 28.0435 25.4609 28.7312 24.6125 28.7312H20.0657C19.2173 28.7312 18.5296 28.0435 18.5296 27.1952V16.3196H8.51427V27.1952C8.51427 28.0435 7.82654 28.7312 6.97818 28.7312H2.43135C1.58299 28.7312 0.895264 28.0435 0.895264 27.1952V3.04781C0.895264 2.19945 1.58299 1.51172 2.43135 1.51172H6.97818C7.82654 1.51172 8.51427 2.19945 8.51427 3.04781V9.40722H18.5296V3.04781C18.5296 2.19945 19.2173 1.51172 20.0657 1.51172H24.6125ZM20.0657 10.9433H6.97818V3.04781H2.43135V27.1952H6.97818V14.7835H20.0657V27.1952H24.6125V3.04781H20.0657V10.9433Z" fill="#FFBF80"/>
</svg>
