<svg width="181" height="200" viewBox="0 0 181 200" fill="none" xmlns="http://www.w3.org/2000/svg">
<path fill-rule="evenodd" clip-rule="evenodd" d="M99.8854 46.0039H23.2993V122.59C23.2993 164.887 57.5881 199.176 99.8854 199.176H176.471V122.59C176.471 80.2927 142.183 46.0039 99.8854 46.0039ZM38.2336 65.9163C41.4059 65.9163 43.9776 63.3446 43.9776 60.1723C43.9776 57 41.4059 54.4284 38.2336 54.4284C35.0613 54.4284 32.4896 57 32.4896 60.1723C32.4896 63.3446 35.0613 65.9163 38.2336 65.9163Z" fill="black" fill-opacity="0.15"/>
<path fill-rule="evenodd" clip-rule="evenodd" d="M103.715 42.1738H27.1287V118.76C27.1287 161.057 61.4174 195.346 103.715 195.346H180.301V118.76C180.301 76.4626 146.012 42.1738 103.715 42.1738ZM42.0629 62.0862C45.2352 62.0862 47.8069 59.5145 47.8069 56.3423C47.8069 53.17 45.2352 50.5983 42.0629 50.5983C38.8906 50.5983 36.319 53.17 36.319 56.3423C36.319 59.5145 38.8906 62.0862 42.0629 62.0862Z" fill="white"/>
<path d="M27.6287 42.6738H103.715C145.736 42.6738 179.801 76.7387 179.801 118.76V194.846H103.715C61.6936 194.846 27.6287 160.781 27.6287 118.76V42.6738ZM42.0629 62.5862C45.5114 62.5862 48.3069 59.7907 48.3069 56.3423C48.3069 52.8938 45.5114 50.0983 42.0629 50.0983C38.6145 50.0983 35.819 52.8938 35.819 56.3423C35.819 59.7907 38.6145 62.5862 42.0629 62.5862Z" stroke="black" stroke-opacity="0.15"/>
<path fill-rule="evenodd" clip-rule="evenodd" d="M31.6069 19.027C36.2917 29.8076 39.8845 43.3092 40.3403 52.0938L39.8049 52.1216C39.3534 43.4197 35.7831 29.9824 31.1153 19.2407C28.7812 13.8696 26.1818 9.1939 23.5754 6.12621C22.2717 4.59178 20.9794 3.47544 19.7325 2.869C18.4931 2.26621 17.309 2.17077 16.1874 2.65585C15.0848 3.13269 14.5016 4.04985 14.3368 5.34863C14.1699 6.66309 14.4372 8.3493 15.0409 10.2936C16.2467 14.1772 18.76 18.9837 21.5869 23.6784C24.4113 28.3688 27.5383 32.9305 29.9601 36.3208C31.1708 38.0156 32.2048 39.417 32.936 40.3945C33.3016 40.8833 33.5915 41.266 33.7899 41.5265C33.889 41.6567 33.9654 41.7563 34.0168 41.8234L34.0752 41.8992L34.0945 41.9242C34.0946 41.9244 34.0947 41.9245 33.8827 42.0886C33.6707 42.2526 33.6706 42.2525 33.6704 42.2522L33.6506 42.2265L33.5916 42.1499C33.5398 42.0823 33.463 41.9821 33.3634 41.8513C33.1641 41.5897 32.8733 41.2057 32.5067 40.7156C31.7736 39.7355 30.7372 38.3309 29.5239 36.6324C27.0976 33.236 23.9619 28.6618 21.1277 23.955C18.296 19.2525 15.7547 14.4005 14.5289 10.4525C13.9167 8.48099 13.6238 6.70808 13.8049 5.28113C13.988 3.83849 14.6608 2.73194 15.9746 2.16379C17.2693 1.60387 18.6189 1.73128 19.9669 2.38689C21.3074 3.03883 22.6563 4.2164 23.984 5.77909C26.6404 8.90562 29.2647 13.6369 31.6069 19.027Z" fill="black"/>
</svg>
