<svg width="295" height="143" viewBox="0 0 295 143" fill="none" xmlns="http://www.w3.org/2000/svg">
<path fill-rule="evenodd" clip-rule="evenodd" d="M64.9351 7.06934C33.8392 7.06934 8.6311 32.2775 8.6311 63.3733C8.6311 94.4691 33.8393 119.677 64.9351 119.677H230.417C226.12 128.093 218.788 136.566 206.803 141.989C222.869 135.972 250.13 124.109 266.094 112.552C283.317 102.922 294.961 84.5076 294.961 63.3733C294.961 32.2775 269.753 7.06934 238.657 7.06934H64.9351Z" fill="#16C48D"/>
<path fill-rule="evenodd" clip-rule="evenodd" d="M56.885 1.47892C56.2721 1.47892 55.6616 1.48879 55.0536 1.50837L55.0239 0.585601C55.6418 0.565694 56.2622 0.555664 56.885 0.555664H58.6946V1.47892H56.885ZM65.933 1.47892H62.3138V0.555664H65.933V1.47892ZM73.1714 1.47892H69.5522V0.555664H73.1714V1.47892ZM80.4099 1.47892H76.7906V0.555664H80.4099V1.47892ZM87.6483 1.47892H84.0291V0.555664H87.6483V1.47892ZM94.8867 1.47892H91.2675V0.555664H94.8867V1.47892ZM102.125 1.47892H98.5059V0.555664H102.125V1.47892ZM109.364 1.47892H105.744V0.555664H109.364V1.47892ZM116.602 1.47892H112.983V0.555664H116.602V1.47892ZM123.84 1.47892H120.221V0.555664H123.84V1.47892ZM131.079 1.47892H127.46V0.555664H131.079V1.47892ZM138.317 1.47892H134.698V0.555664H138.317V1.47892ZM145.556 1.47892H141.937V0.555664H145.556V1.47892ZM152.794 1.47892H149.175V0.555664H152.794V1.47892ZM160.033 1.47892H156.413V0.555664H160.033V1.47892ZM167.271 1.47892H163.652V0.555664H167.271V1.47892ZM174.509 1.47892H170.89V0.555664H174.509V1.47892ZM181.748 1.47892H178.129V0.555664H181.748V1.47892ZM188.986 1.47892H185.367V0.555664H188.986V1.47892ZM196.225 1.47892H192.606V0.555664H196.225V1.47892ZM203.463 1.47892H199.844V0.555664H203.463V1.47892ZM210.702 1.47892H207.082V0.555664H210.702V1.47892ZM217.94 1.47892H214.321V0.555664H217.94V1.47892ZM225.178 1.47892H221.559V0.555664H225.178V1.47892ZM230.607 1.47892H228.798V0.555664H230.607C231.23 0.555664 231.85 0.565694 232.468 0.585602L232.439 1.50837C231.831 1.48879 231.22 1.47892 230.607 1.47892ZM51.4088 1.74398C50.1885 1.86274 48.9798 2.02077 47.7839 2.21678L47.6346 1.30569C48.8503 1.10642 50.079 0.945783 51.3194 0.825071L51.4088 1.74398ZM239.708 2.21678C238.512 2.02077 237.304 1.86274 236.083 1.74398L236.173 0.825072C237.413 0.945784 238.642 1.10642 239.858 1.30569L239.708 2.21678ZM44.1983 2.92622C43.0068 3.203 41.83 3.51793 40.6691 3.86964L40.4014 2.98605C41.5816 2.62848 42.7781 2.30831 43.9894 2.02691L44.1983 2.92622ZM246.823 3.86964C245.662 3.51793 244.485 3.203 243.294 2.92622L243.503 2.02691C244.714 2.30831 245.911 2.62848 247.091 2.98605L246.823 3.86964ZM37.2086 5.04402C36.0649 5.4747 34.939 5.94185 33.8325 6.44404L33.4509 5.60331C34.5759 5.09278 35.7204 4.61786 36.8832 4.18L37.2086 5.04402ZM253.66 6.44404C252.553 5.94185 251.427 5.47471 250.284 5.04402L250.609 4.18C251.772 4.61786 252.916 5.09278 254.041 5.60331L253.66 6.44404ZM30.5567 8.06251C29.4807 8.63885 28.4257 9.24943 27.3933 9.89278L26.905 9.10921C27.9545 8.45522 29.0269 7.83454 30.1208 7.24865L30.5567 8.06251ZM260.099 9.89278C259.066 9.24943 258.012 8.63885 256.935 8.06251L257.371 7.24865C258.465 7.83454 259.538 8.45523 260.587 9.10921L260.099 9.89278ZM24.3563 11.926C23.3657 12.6371 22.3993 13.3798 21.4586 14.1527L20.8725 13.4393C21.8287 12.6538 22.811 11.8988 23.8179 11.176L24.3563 11.926ZM266.034 14.1527C265.093 13.3798 264.127 12.6371 263.136 11.926L263.674 11.176C264.681 11.8988 265.664 12.6538 266.62 13.4394L266.034 14.1527ZM18.7117 16.5636C17.8224 17.3968 16.9605 18.2587 16.1273 19.1479L15.4536 18.5167C16.3005 17.6128 17.1766 16.7367 18.0804 15.8899L18.7117 16.5636ZM271.365 19.1479C270.532 18.2587 269.67 17.3968 268.781 16.5636L269.412 15.8899C270.316 16.7367 271.192 17.6128 272.039 18.5167L271.365 19.1479ZM13.7164 21.8949C12.9436 22.8356 12.2008 23.802 11.4897 24.7926L10.7397 24.2542C11.4625 23.2472 12.2175 22.2649 13.0031 21.3088L13.7164 21.8949ZM276.002 24.7926C275.291 23.802 274.549 22.8356 273.776 21.8949L274.489 21.3088C275.275 22.2649 276.03 23.2472 276.753 24.2542L276.002 24.7926ZM279.866 30.993C279.29 29.9169 278.679 28.862 278.036 27.8296L278.819 27.3413C279.473 28.3908 280.094 29.4632 280.68 30.5571L279.866 30.993ZM9.45651 27.8296C8.81315 28.862 8.20257 29.917 7.62623 30.993L6.81237 30.5571C7.39827 29.4632 8.01895 28.3908 8.67294 27.3413L9.45651 27.8296ZM282.884 37.6448C282.454 36.5011 281.987 35.3753 281.484 34.2687L282.325 33.8872C282.836 35.0121 283.311 36.1567 283.749 37.3195L282.884 37.6448ZM6.00776 34.2687C5.50557 35.3753 5.03843 36.5011 4.60774 37.6448L3.74372 37.3195C4.18158 36.1567 4.6565 35.0121 5.16703 33.8872L6.00776 34.2687ZM285.002 44.6346C284.725 43.4431 284.411 42.2662 284.059 41.1054L284.942 40.8377C285.3 42.0179 285.62 43.2143 285.902 44.4257L285.002 44.6346ZM3.43336 41.1054C3.08165 42.2662 2.76672 43.4431 2.48994 44.6346L1.59063 44.4257C1.87203 43.2144 2.1922 42.0179 2.54977 40.8377L3.43336 41.1054ZM286.185 51.8451C286.066 50.6248 285.908 49.4161 285.712 48.2202L286.623 48.0708C286.822 49.2866 286.983 50.5153 287.103 51.7556L286.185 51.8451ZM1.7805 48.2202C1.58449 49.4161 1.42646 50.6248 1.3077 51.8451L0.388792 51.7556C0.509505 50.5153 0.670142 49.2866 0.869406 48.0708L1.7805 48.2202ZM1.0721 55.4899C1.05251 56.0979 1.04264 56.7084 1.04264 57.3212C1.04264 57.9341 1.05251 58.5446 1.0721 59.1526L0.149322 59.1823C0.129415 58.5644 0.119385 57.944 0.119385 57.3212C0.119385 56.6985 0.129414 56.0781 0.149322 55.4601L1.0721 55.4899ZM286.45 57.3212C286.45 56.7084 286.44 56.0979 286.42 55.4899L287.343 55.4601C287.363 56.0781 287.373 56.6985 287.373 57.3212C287.373 57.983 287.362 58.6421 287.339 59.2985L286.416 59.2669C286.438 58.6211 286.45 57.9725 286.45 57.3212ZM1.3077 62.7974C1.42646 64.0177 1.58449 65.2264 1.7805 66.4223L0.869408 66.5716C0.670143 65.3559 0.509506 64.1272 0.388793 62.8868L1.3077 62.7974ZM285.614 67.001C285.836 65.731 286.015 64.4463 286.149 63.1483L287.068 63.2435C286.931 64.5629 286.749 65.8689 286.523 67.1599L285.614 67.001ZM2.48994 70.0079C2.76673 71.1994 3.08165 72.3762 3.43336 73.5371L2.54977 73.8048C2.1922 72.6246 1.87203 71.4281 1.59063 70.2168L2.48994 70.0079ZM283.743 74.5456C284.141 73.3173 284.497 72.0703 284.811 70.8063L285.707 71.0285C285.388 72.3135 285.026 73.5813 284.621 74.8301L283.743 74.5456ZM4.60775 76.9976C5.03843 78.1413 5.50557 79.2672 6.00776 80.3737L5.16704 80.7553C4.6565 79.6303 4.18158 78.4858 3.74373 77.323L4.60775 76.9976ZM280.834 81.7557C281.401 80.5931 281.928 79.4079 282.415 78.2019L283.271 78.5473C282.776 79.7734 282.24 80.9783 281.664 82.1602L280.834 81.7557ZM7.62624 83.6495C8.20258 84.7255 8.81315 85.7805 9.45651 86.8129L8.67294 87.3012C8.01895 86.2517 7.39827 85.1793 6.81238 84.0854L7.62624 83.6495ZM276.949 88.4895C277.673 87.4157 278.36 86.3153 279.009 85.1902L279.809 85.6516C279.149 86.7954 278.45 87.9139 277.714 89.0055L276.949 88.4895ZM11.4897 89.8499C12.2008 90.8405 12.9436 91.8069 13.7164 92.7476L13.0031 93.3337C12.2175 92.3775 11.4625 91.3952 10.7397 90.3883L11.4897 89.8499ZM272.167 94.6201C273.033 93.6557 273.866 92.661 274.664 91.6378L275.392 92.2056C274.581 93.2457 273.734 94.2567 272.854 95.237L272.167 94.6201ZM16.1273 95.4945C16.9605 96.3838 17.8224 97.2457 18.7117 98.0789L18.0804 98.7526C17.1766 97.9057 16.3005 97.0296 15.4536 96.1258L16.1273 95.4945ZM266.584 100.031C267.576 99.1951 268.538 98.3249 269.469 97.4225L270.112 98.0854C269.166 99.0026 268.188 99.8872 267.179 100.737L266.584 100.031ZM21.4586 100.49C22.3993 101.263 23.3657 102.005 24.3563 102.716L23.8179 103.466C22.811 102.744 21.8287 101.989 20.8725 101.203L21.4586 100.49ZM261.935 103.555C262.472 103.19 263.002 102.817 263.525 102.434L264.07 103.18C263.556 103.556 263.035 103.923 262.508 104.282C262.146 104.718 261.759 105.156 261.348 105.596L260.674 104.966C261.088 104.521 261.477 104.08 261.839 103.643L261.881 103.592L261.935 103.555ZM27.3933 104.75C28.4257 105.393 29.4807 106.004 30.5567 106.58L30.1208 107.394C29.0269 106.808 27.9545 106.187 26.905 105.533L27.3933 104.75ZM255.422 109.726C256.387 108.959 257.294 108.196 258.137 107.439L258.754 108.126C257.896 108.897 256.974 109.672 255.996 110.449L255.422 109.726ZM33.8325 108.198C34.939 108.701 36.0649 109.168 37.2086 109.598L36.8832 110.462C35.7204 110.025 34.5759 109.55 33.4509 109.039L33.8325 108.198ZM40.6691 110.773C41.83 111.125 43.0068 111.439 44.1983 111.716L43.9894 112.616C42.7781 112.334 41.5816 112.014 40.4014 111.656L40.6691 110.773ZM249.647 113.92C250.661 113.239 251.639 112.558 252.578 111.879L253.119 112.627C252.171 113.313 251.184 114 250.162 114.686L249.647 113.92ZM47.7839 112.426C48.9798 112.622 50.1885 112.78 51.4088 112.898L51.3194 113.817C50.079 113.697 48.8503 113.536 47.6346 113.337L47.7839 112.426ZM55.0536 113.134C55.6616 113.154 56.2721 113.164 56.885 113.164H58.7349V114.087H56.885C56.2622 114.087 55.6418 114.077 55.0239 114.057L55.0536 113.134ZM62.4348 113.164H66.1347V114.087H62.4348V113.164ZM69.8346 113.164H73.5345V114.087H69.8346V113.164ZM77.2344 113.164H80.9343V114.087H77.2344V113.164ZM84.6342 113.164H88.3342V114.087H84.6342V113.164ZM92.0341 113.164H95.734V114.087H92.0341V113.164ZM99.4339 113.164H103.134V114.087H99.4339V113.164ZM106.834 113.164H110.534V114.087H106.834V113.164ZM114.234 113.164H117.933V114.087H114.234V113.164ZM121.633 113.164H125.333V114.087H121.633V113.164ZM129.033 113.164H132.733V114.087H129.033V113.164ZM136.433 113.164H140.133V114.087H136.433V113.164ZM143.833 113.164H147.533V114.087H143.833V113.164ZM151.233 113.164H154.933V114.087H151.233V113.164ZM158.632 113.164H162.332V114.087H158.632V113.164ZM166.032 113.164H169.732V114.087H166.032V113.164ZM173.432 113.164H177.132V114.087H173.432V113.164ZM180.832 113.164H184.532V114.087H180.832V113.164ZM188.232 113.164H191.932V114.087H188.232V113.164ZM195.632 113.164H199.331V114.087H195.632V113.164ZM203.031 113.164H206.731V114.087H203.031V113.164ZM210.431 113.164H214.131V114.087H210.431V113.164ZM217.831 113.164H220.34L220.115 113.783C219.892 114.397 219.654 115.015 219.4 115.637L218.545 115.288C218.709 114.886 218.866 114.486 219.017 114.087H217.831V113.164ZM243.608 117.741C244.647 117.119 245.663 116.494 246.653 115.869L247.146 116.649C246.149 117.279 245.127 117.907 244.083 118.533L243.608 117.741ZM217.759 119.255C217.176 120.416 216.537 121.579 215.837 122.736L215.047 122.258C215.734 121.122 216.362 119.981 216.933 118.841L217.759 119.255ZM237.4 121.301C238.454 120.721 239.494 120.138 240.517 119.552L240.976 120.353C239.948 120.942 238.903 121.527 237.845 122.11L237.4 121.301ZM231.075 124.658C232.142 124.111 233.202 123.558 234.251 123.001L234.684 123.817C233.63 124.376 232.567 124.93 231.497 125.479L231.075 124.658ZM213.642 126.05C212.88 127.106 212.061 128.15 211.182 129.176L210.481 128.575C211.343 127.57 212.146 126.546 212.894 125.51L213.642 126.05ZM224.665 127.85C225.739 127.33 226.812 126.804 227.88 126.273L228.291 127.099C227.22 127.633 226.144 128.16 225.067 128.681L224.665 127.85ZM218.186 130.901C219.265 130.406 220.348 129.903 221.433 129.392L221.826 130.228C220.739 130.74 219.653 131.244 218.571 131.741L218.186 130.901ZM208.473 132.086C207.547 133.001 206.567 133.894 205.531 134.761L204.939 134.053C205.955 133.203 206.916 132.327 207.824 131.43L208.473 132.086ZM211.645 133.829C212.727 133.356 213.82 132.873 214.921 132.381L215.298 133.224C214.195 133.717 213.099 134.201 212.014 134.675L211.645 133.829ZM205.052 136.638C206.136 136.187 207.24 135.723 208.359 135.246L208.721 136.096C207.599 136.573 206.493 137.039 205.406 137.49L205.052 136.638ZM200.315 138.57C201.024 138.12 201.712 137.658 202.38 137.186L201.847 136.432C200.806 137.168 199.715 137.877 198.573 138.557L198.912 139.128C198.744 139.194 198.577 139.26 198.41 139.326L198.748 140.185C199.831 139.758 200.947 139.313 202.091 138.85L201.744 137.994C201.263 138.189 200.786 138.381 200.315 138.57ZM195.355 141.349C195.423 141.315 195.49 141.282 195.557 141.249L195.146 140.422C194.569 140.709 193.98 140.988 193.379 141.26L193.731 142.113C194.277 141.909 194.835 141.698 195.405 141.48L195.355 141.349Z" fill="white"/>
<path d="M260.658 53.1088C260.622 52.9104 260.568 52.7121 260.496 52.5137C260.424 52.3154 260.37 52.1621 260.334 52.0539C260.243 51.8014 260.135 51.5129 260.009 51.1884C259.883 50.8457 259.82 50.5031 259.82 50.1605C259.82 49.7277 259.946 49.3761 260.198 49.1056C260.451 48.8171 260.82 48.6729 261.307 48.6729C261.776 48.6729 262.137 48.8171 262.389 49.1056C262.66 49.3761 262.795 49.7277 262.795 50.1605C262.795 50.5031 262.732 50.8457 262.606 51.1884C262.497 51.5129 262.398 51.8014 262.308 52.0539C262.272 52.1441 262.227 52.2973 262.173 52.5137C262.137 52.7301 262.101 52.9104 262.065 53.0547C262.191 52.9465 262.317 52.8113 262.443 52.649C262.57 52.4867 262.669 52.3695 262.741 52.2973C262.921 52.099 263.129 51.8646 263.363 51.5941C263.597 51.3236 263.859 51.1072 264.147 50.9449C264.526 50.7105 264.896 50.6474 265.256 50.7556C265.617 50.8457 265.924 51.0982 266.176 51.5129C266.428 51.9277 266.492 52.3064 266.365 52.649C266.257 52.9916 266.005 53.2711 265.608 53.4875C265.319 53.6678 264.995 53.794 264.634 53.8661C264.292 53.9202 263.994 53.9743 263.742 54.0284C263.633 54.0465 263.471 54.0825 263.255 54.1366C263.038 54.1727 262.84 54.2178 262.66 54.2719C262.84 54.362 263.038 54.4251 263.255 54.4612C263.471 54.4792 263.642 54.5063 263.769 54.5424C264.021 54.5965 264.319 54.6596 264.661 54.7317C265.022 54.7858 265.347 54.903 265.635 55.0833C266.014 55.2997 266.257 55.5972 266.365 55.9759C266.474 56.3366 266.41 56.7243 266.176 57.139C265.924 57.5537 265.617 57.7972 265.256 57.8693C264.914 57.9414 264.544 57.8603 264.147 57.6259C263.859 57.4636 263.597 57.2472 263.363 56.9767C263.147 56.7062 262.948 56.4718 262.768 56.2735C262.696 56.1833 262.588 56.048 262.443 55.8677C262.299 55.6694 262.164 55.4981 262.038 55.3538C262.074 55.5522 262.119 55.7776 262.173 56.03C262.227 56.2644 262.272 56.4357 262.308 56.5439C262.398 56.7964 262.497 57.0939 262.606 57.4365C262.732 57.7611 262.795 58.0947 262.795 58.4373C262.795 58.8701 262.66 59.2307 262.389 59.5193C262.137 59.7897 261.776 59.925 261.307 59.925C260.82 59.925 260.451 59.7897 260.198 59.5193C259.946 59.2307 259.82 58.8701 259.82 58.4373C259.82 58.0947 259.883 57.7611 260.009 57.4365C260.135 57.0939 260.243 56.7964 260.334 56.5439C260.37 56.4177 260.424 56.2374 260.496 56.003C260.568 55.7685 260.622 55.5522 260.658 55.3538C260.46 55.5341 260.298 55.7054 260.171 55.8677C260.045 56.03 259.928 56.1653 259.82 56.2735C259.639 56.4718 259.441 56.7062 259.225 56.9767C259.008 57.2472 258.747 57.4636 258.44 57.6259C258.043 57.8603 257.665 57.9414 257.304 57.8693C256.962 57.7972 256.664 57.5537 256.412 57.139C256.177 56.7243 256.114 56.3366 256.222 55.9759C256.33 55.5972 256.574 55.2997 256.953 55.0833C257.241 54.903 257.557 54.7858 257.899 54.7317C258.26 54.6596 258.566 54.5965 258.819 54.5424C258.963 54.5063 259.143 54.4612 259.36 54.4071C259.576 54.353 259.766 54.2989 259.928 54.2448C259.729 54.1727 259.531 54.1276 259.333 54.1096C259.134 54.0735 258.972 54.0465 258.846 54.0284C258.593 53.9743 258.287 53.9202 257.926 53.8661C257.584 53.794 257.268 53.6678 256.98 53.4875C256.583 53.2711 256.321 52.9916 256.195 52.649C256.087 52.3064 256.159 51.9277 256.412 51.5129C256.664 51.0982 256.971 50.8457 257.331 50.7556C257.692 50.6474 258.062 50.7105 258.44 50.9449C258.747 51.1072 259.008 51.3236 259.225 51.5941C259.459 51.8646 259.666 52.099 259.847 52.2973C259.937 52.3875 260.054 52.5137 260.198 52.676C260.361 52.8203 260.514 52.9645 260.658 53.1088Z" fill="white"/>
<path d="M250.921 59.465C250.776 60.0961 250.569 60.6912 250.298 61.2502C250.046 61.8092 249.712 62.296 249.298 62.7108C248.901 63.1255 248.432 63.4591 247.891 63.7116C247.368 63.946 246.764 64.0632 246.079 64.0632C245.267 64.0632 244.537 63.8919 243.888 63.5493C243.257 63.2067 242.671 62.828 242.13 62.4133C241.589 61.9985 241.075 61.6198 240.588 61.2772C240.101 60.9346 239.605 60.7633 239.1 60.7633C238.235 60.7633 237.505 61.0608 236.91 61.6559C236.332 62.2329 235.819 63.0083 235.368 63.9821L234.259 63.4411C234.475 62.846 234.746 62.269 235.07 61.71C235.395 61.151 235.773 60.6551 236.206 60.2223C236.639 59.7896 237.126 59.4469 237.667 59.1945C238.226 58.924 238.839 58.7798 239.506 58.7617C240.119 58.7617 240.714 58.942 241.291 59.3027C241.886 59.6453 242.463 60.033 243.022 60.4658C243.6 60.8805 244.177 61.2682 244.754 61.6288C245.331 61.9715 245.926 62.1428 246.539 62.1428C247.224 62.1247 247.855 61.8993 248.432 61.4666C249.009 61.0158 249.478 60.2043 249.839 59.0322L250.921 59.465Z" fill="white"/>
<path d="M217.083 60.8989C216.055 62.4677 214.847 63.9103 213.458 65.2267C212.088 66.543 210.501 67.7872 208.698 68.9593L207.914 68.202C209.086 67.3545 210.15 66.4258 211.105 65.416C212.079 64.4062 212.945 63.3603 213.702 62.2784C214.459 61.1784 215.099 60.0604 215.622 58.9244C216.163 57.7883 216.587 56.6523 216.894 55.5163C216.389 55.5343 215.83 55.5523 215.217 55.5704C214.604 55.5704 214.036 55.5884 213.513 55.6245C213.332 55.6425 213.089 55.6696 212.782 55.7056C212.476 55.7417 212.151 55.7868 211.809 55.8409C211.466 55.8769 211.114 55.922 210.754 55.9761C210.411 56.0302 210.104 56.0843 209.834 56.1384L208.482 53.9745C208.734 54.0106 209.023 54.0557 209.347 54.1098C209.672 54.1458 210.005 54.1819 210.348 54.218C210.709 54.236 211.06 54.254 211.403 54.2721C211.763 54.2901 212.097 54.2991 212.404 54.2991C213.72 54.3171 214.91 54.2811 215.974 54.1909C217.056 54.0827 218.156 53.8934 219.274 53.6229L220.139 54.4343C219.779 55.5523 219.364 56.6072 218.895 57.599C218.444 58.5727 217.93 59.5194 217.353 60.4391C217.804 60.5292 218.246 60.5924 218.679 60.6284C219.13 60.6465 219.553 60.6465 219.95 60.6284C220.293 60.6104 220.671 60.5924 221.086 60.5743C221.519 60.5563 221.916 60.5292 222.276 60.4932V52.9196C222.276 52.6491 222.231 52.4057 222.141 52.1893C222.069 51.9729 221.925 51.7746 221.708 51.5943C221.51 51.4139 221.23 51.2516 220.87 51.1074C220.509 50.9631 220.058 50.8189 219.517 50.6746L220.004 49.7009C220.87 49.8091 221.753 49.9533 222.655 50.1336C223.557 50.2959 224.35 50.4672 225.035 50.6476C224.999 50.8099 224.963 51.0082 224.927 51.2426C224.891 51.477 224.855 51.7115 224.819 51.9459C224.801 52.1803 224.783 52.3967 224.765 52.5951C224.747 52.7934 224.738 52.9377 224.738 53.0278V65.9029C224.738 66.4619 224.72 67.102 224.684 67.8233C224.666 68.5266 224.629 69.2388 224.575 69.9601C224.539 70.6814 224.485 71.3757 224.413 72.0428C224.359 72.71 224.305 73.269 224.251 73.7198L222.493 73.9362C222.457 73.5936 222.43 73.1789 222.412 72.692C222.393 72.2232 222.366 71.7183 222.33 71.1773C222.312 70.6363 222.294 70.0863 222.276 69.5273C222.276 68.9503 222.276 68.4003 222.276 67.8774V61.9267C221.501 61.9628 220.735 62.0259 219.977 62.1161C219.22 62.2062 218.526 62.3235 217.894 62.4677L217.083 60.8989ZM224.548 48.5107C224.981 48.5648 225.441 48.637 225.928 48.7271C226.415 48.8173 226.893 48.9075 227.361 48.9976C227.848 49.0878 228.308 49.1779 228.741 49.2681C229.174 49.3583 229.561 49.4394 229.904 49.5115C229.868 49.6738 229.832 49.8722 229.796 50.1066C229.778 50.341 229.751 50.5754 229.715 50.8099C229.697 51.0443 229.679 51.2607 229.66 51.459C229.642 51.6574 229.633 51.8016 229.633 51.8918V66.8766C229.633 67.4356 229.615 68.0758 229.579 68.797C229.561 69.5003 229.534 70.2126 229.498 70.9339C229.462 71.6552 229.417 72.3404 229.363 72.9895C229.309 73.6567 229.246 74.2157 229.174 74.6665L227.334 74.91C227.298 74.5674 227.262 74.1526 227.226 73.6658C227.208 73.1969 227.19 72.683 227.172 72.124C227.154 71.583 227.136 71.033 227.118 70.474C227.1 69.897 227.091 69.347 227.091 68.8241V51.8377C227.091 51.5672 227.046 51.3238 226.956 51.1074C226.865 50.873 226.703 50.6656 226.469 50.4853C226.252 50.2869 225.946 50.1156 225.549 49.9714C225.17 49.8091 224.693 49.6558 224.116 49.5115L224.548 48.5107Z" fill="white"/>
<path d="M200.989 66.8766C200.989 67.4356 200.971 68.0848 200.935 68.8241C200.917 69.5454 200.89 70.2757 200.854 71.015C200.818 71.7363 200.773 72.4215 200.718 73.0707C200.664 73.7379 200.61 74.2698 200.556 74.6665L198.69 74.91C198.654 74.6215 198.618 74.2338 198.582 73.7469C198.564 73.26 198.537 72.7371 198.5 72.1781C198.482 71.6371 198.464 71.0781 198.446 70.5011C198.446 69.906 198.446 69.347 198.446 68.8241V51.8377C198.446 51.2787 198.185 50.8279 197.662 50.4853C197.157 50.1246 196.31 49.8 195.119 49.5115L195.552 48.5107C196.003 48.5648 196.49 48.637 197.013 48.7271C197.536 48.7993 198.059 48.8894 198.582 48.9976C199.105 49.0878 199.6 49.1779 200.069 49.2681C200.556 49.3583 200.971 49.4304 201.314 49.4845C201.277 49.6468 201.232 49.8451 201.178 50.0795C201.142 50.314 201.106 50.5574 201.07 50.8099C201.052 51.0443 201.034 51.2607 201.016 51.459C200.998 51.6574 200.989 51.8016 200.989 51.8918V60.6014C201.8 60.5292 202.711 60.4481 203.721 60.3579C204.731 60.2497 205.641 60.1235 206.453 59.9793L206.155 62.1702C205.849 62.1522 205.479 62.1431 205.046 62.1431C204.613 62.1431 204.163 62.1431 203.694 62.1431C203.225 62.1431 202.756 62.1431 202.287 62.1431C201.818 62.1431 201.386 62.1431 200.989 62.1431V66.8766ZM196.661 56.5171C196.246 56.5171 195.742 56.5171 195.146 56.5171C194.551 56.5171 193.902 56.5261 193.199 56.5441C192.514 56.5621 191.801 56.5802 191.062 56.5982C190.323 56.6162 189.611 56.6343 188.925 56.6523C188.24 56.6703 187.609 56.6884 187.032 56.7064C186.455 56.7244 185.977 56.7425 185.598 56.7605C185.382 56.7785 185.093 56.8056 184.733 56.8416C184.39 56.8597 184.03 56.8867 183.651 56.9228C183.272 56.9589 182.912 57.0039 182.569 57.058C182.226 57.0941 181.947 57.1302 181.73 57.1662L180.703 54.9212C180.937 54.9753 181.235 55.0294 181.595 55.0835C181.956 55.1196 182.326 55.1556 182.704 55.1917C183.083 55.2278 183.453 55.2638 183.813 55.2999C184.174 55.3179 184.48 55.3269 184.733 55.3269C185.346 55.3269 186.157 55.3179 187.167 55.2999C188.195 55.2638 189.286 55.2187 190.44 55.1646C191.612 55.0925 192.775 55.0114 193.929 54.9212C195.101 54.813 196.129 54.6778 197.013 54.5155L196.661 56.5171ZM195.038 63.1169C195.038 63.766 194.885 64.3882 194.578 64.9832C194.272 65.5602 193.848 66.0742 193.307 66.525C192.784 66.9578 192.153 67.3004 191.414 67.5528C190.693 67.8053 189.917 67.9315 189.088 67.9315C188.24 67.9315 187.447 67.8053 186.707 67.5528C185.986 67.2823 185.355 66.9307 184.814 66.4979C184.291 66.0652 183.876 65.5602 183.57 64.9832C183.263 64.3882 183.11 63.766 183.11 63.1169C183.11 62.3956 183.263 61.7374 183.57 61.1423C183.876 60.5473 184.291 60.0424 184.814 59.6276C185.355 59.1949 185.986 58.8613 186.707 58.6268C187.447 58.3924 188.24 58.2752 189.088 58.2752C189.971 58.2752 190.774 58.4105 191.495 58.6809C192.234 58.9334 192.865 59.285 193.388 59.7358C193.911 60.1686 194.317 60.6825 194.606 61.2776C194.894 61.8546 195.038 62.4677 195.038 63.1169ZM185.788 62.9816C185.788 63.4505 185.869 63.8923 186.031 64.307C186.211 64.7217 186.455 65.0914 186.761 65.416C187.068 65.7225 187.42 65.975 187.816 66.1733C188.231 66.3537 188.673 66.4438 189.142 66.4438C189.575 66.4438 189.989 66.3537 190.386 66.1733C190.783 65.993 191.125 65.7496 191.414 65.443C191.72 65.1365 191.964 64.7758 192.144 64.3611C192.324 63.9283 192.415 63.4685 192.415 62.9816C192.415 62.5308 192.333 62.1071 192.171 61.7104C192.009 61.2956 191.783 60.935 191.495 60.6284C191.206 60.3219 190.855 60.0784 190.44 59.8981C190.043 59.6998 189.611 59.6006 189.142 59.6006C188.186 59.6006 187.384 59.9162 186.734 60.5473C186.103 61.1604 185.788 61.9718 185.788 62.9816ZM192.658 52.9196C192.351 52.9196 192.018 52.9196 191.657 52.9196C191.297 52.9196 190.936 52.9286 190.575 52.9467C190.215 52.9467 189.863 52.9557 189.52 52.9737C189.196 52.9737 188.916 52.9737 188.682 52.9737C188.556 52.9737 188.375 52.9827 188.141 53.0008C187.907 53.0008 187.645 53.0188 187.357 53.0549C187.068 53.0729 186.78 53.1 186.491 53.136C186.202 53.1541 185.941 53.1811 185.707 53.2172L184.598 51.1344C184.814 51.1885 185.084 51.2426 185.409 51.2967C185.734 51.3508 186.067 51.4049 186.41 51.459C186.77 51.5131 187.113 51.5582 187.438 51.5943C187.78 51.6123 188.069 51.6213 188.303 51.6213C188.52 51.6213 188.817 51.6123 189.196 51.5943C189.575 51.5762 189.98 51.5492 190.413 51.5131C190.864 51.459 191.315 51.4049 191.765 51.3508C192.234 51.2967 192.676 51.2426 193.091 51.1885L192.658 52.9196Z" fill="white"/>
<path d="M171.587 59.0324C170.614 59.0144 169.559 59.0144 168.423 59.0324V62.3593C169.324 62.3233 170.145 62.2962 170.884 62.2782C171.642 62.2602 172.246 62.2421 172.696 62.2241C173.905 62.17 175.131 62.0889 176.375 61.9807C177.619 61.8544 178.737 61.7192 179.729 61.5749L179.377 63.7929C179.017 63.7749 178.593 63.7568 178.106 63.7388C177.637 63.7208 177.123 63.7118 176.564 63.7118C176.005 63.6937 175.428 63.6757 174.833 63.6577C174.238 63.6396 173.643 63.6306 173.048 63.6306C172.543 63.6306 171.903 63.6396 171.128 63.6577C170.352 63.6577 169.505 63.6667 168.585 63.6847C167.683 63.7027 166.755 63.7298 165.799 63.7659C164.843 63.7839 163.933 63.8109 163.067 63.847C162.22 63.8831 161.453 63.9191 160.768 63.9552C160.083 63.9732 159.56 63.9913 159.199 64.0093C158.532 64.0634 157.802 64.1265 157.008 64.1986C156.215 64.2708 155.503 64.3519 154.872 64.4421L153.952 62.0889C154.763 62.179 155.629 62.2602 156.549 62.3323C157.486 62.3864 158.361 62.4315 159.172 62.4675C159.497 62.4856 159.903 62.4946 160.389 62.4946C160.894 62.4946 161.444 62.4946 162.039 62.4946C162.634 62.4946 163.257 62.4946 163.906 62.4946C164.573 62.4766 165.249 62.4585 165.934 62.4405V59.0865C165.321 59.1045 164.708 59.1226 164.095 59.1406C163.5 59.1406 162.914 59.1586 162.337 59.1947C162.319 59.3389 162.292 59.4742 162.256 59.6004C162.238 59.7086 162.211 59.8078 162.175 59.8979L160.444 60.1684C160.389 59.8258 160.335 59.384 160.281 58.8431C160.227 58.3021 160.2 57.7882 160.2 57.3013V52.5678C160.2 52.2793 160.173 52.0359 160.119 51.8375C160.065 51.6392 159.957 51.4679 159.794 51.3236C159.632 51.1613 159.407 51.0261 159.118 50.9179C158.83 50.8097 158.451 50.7015 157.982 50.5933L158.388 49.6466C158.694 49.6827 159.037 49.7187 159.416 49.7548C159.794 49.7909 160.182 49.8449 160.579 49.9171C160.994 49.9712 161.399 50.0343 161.796 50.1064C162.211 50.1785 162.598 50.2507 162.959 50.3228C162.887 50.6474 162.815 51.0441 162.743 51.5129C162.689 51.9818 162.661 52.3244 162.661 52.5408V53.1088C164.014 53.0727 165.456 53.0276 166.989 52.9735C168.522 52.9195 170.019 52.8383 171.479 52.7301V51.6752C171.479 51.3867 171.443 51.1433 171.371 50.9449C171.299 50.7466 171.173 50.5753 170.992 50.431C170.812 50.2687 170.56 50.1335 170.235 50.0253C169.91 49.899 169.496 49.7728 168.991 49.6466L169.424 48.6729C170.163 48.763 170.983 48.8712 171.885 48.9974C172.787 49.1237 173.589 49.2499 174.292 49.3761C174.256 49.5384 174.22 49.7277 174.184 49.9441C174.148 50.1605 174.112 50.3769 174.076 50.5933C174.058 50.8097 174.04 51.017 174.022 51.2154C174.004 51.3957 173.995 51.54 173.995 51.6482V55.6513C173.995 56.5169 173.932 57.2833 173.805 57.9505C173.697 58.6176 173.598 59.1676 173.508 59.6004L171.696 59.8709C171.678 59.7627 171.66 59.6365 171.642 59.4922C171.642 59.3299 171.624 59.1766 171.587 59.0324ZM171.479 56.9226V54.3801C170.127 54.344 168.675 54.335 167.124 54.353C165.592 54.371 164.104 54.4251 162.661 54.5153V56.1112C162.661 56.4177 162.652 56.7152 162.634 57.0038C162.616 57.2742 162.589 57.5357 162.553 57.7882C163.239 57.7701 163.951 57.7521 164.69 57.7341C165.447 57.716 166.214 57.698 166.989 57.68C167.765 57.6439 168.531 57.6078 169.288 57.5718C170.046 57.5357 170.776 57.4996 171.479 57.4636V56.9226ZM162.175 66.4437C163.112 66.4437 164.176 66.4256 165.366 66.3896C166.574 66.3535 167.774 66.3084 168.964 66.2543C170.154 66.1822 171.281 66.1101 172.345 66.0379C173.427 65.9658 174.319 65.8937 175.023 65.8215C174.95 66.2904 174.896 66.66 174.86 66.9305C174.842 67.201 174.833 67.4895 174.833 67.7961V70.5009C174.833 71.0238 174.797 71.6369 174.725 72.3402C174.671 73.0435 174.545 73.7016 174.346 74.3147L172.507 74.6664C172.471 74.45 172.435 74.1885 172.399 73.882C172.381 73.5754 172.363 73.2508 172.345 72.9082C172.327 72.5836 172.309 72.2591 172.291 71.9345C172.273 71.6279 172.264 71.3574 172.264 71.123V67.5256C171.578 67.4895 170.83 67.4805 170.019 67.4985C169.207 67.5166 168.387 67.5526 167.557 67.6067C166.728 67.6428 165.907 67.6879 165.096 67.742C164.302 67.7961 163.554 67.8502 162.851 67.9043C162.274 67.9403 161.706 67.9944 161.147 68.0666C160.606 68.1387 160.047 68.2198 159.47 68.31L158.415 66.1461C158.685 66.1822 158.974 66.2182 159.28 66.2543C159.605 66.2904 159.939 66.3264 160.281 66.3625C160.624 66.3805 160.957 66.3986 161.282 66.4166C161.607 66.4346 161.904 66.4437 162.175 66.4437Z" fill="white"/>
<path d="M145.513 58.5727C145.964 58.5547 146.405 58.5367 146.838 58.5186C147.289 58.5006 147.749 58.4646 148.218 58.4105V51.8377C148.218 51.5672 148.173 51.3238 148.082 51.1074C147.992 50.873 147.83 50.6656 147.596 50.4853C147.379 50.2869 147.082 50.1156 146.703 49.9714C146.324 49.8091 145.846 49.6558 145.269 49.5115L145.675 48.5107C146.108 48.5648 146.568 48.637 147.055 48.7271C147.541 48.8173 148.019 48.9075 148.488 48.9976C148.975 49.0878 149.435 49.1779 149.868 49.2681C150.318 49.3583 150.715 49.4394 151.058 49.5115C151.022 49.6738 150.986 49.8722 150.95 50.1066C150.913 50.341 150.877 50.5754 150.841 50.8099C150.823 51.0443 150.805 51.2607 150.787 51.459C150.769 51.6574 150.76 51.8016 150.76 51.8918V59.7629C150.76 60.8809 150.715 61.9448 150.625 62.9546C150.535 63.9644 150.4 64.857 150.219 65.6324L148.353 65.7947C148.317 65.1996 148.281 64.5234 148.245 63.766C148.227 63.0087 148.218 62.3144 148.218 61.6833V59.9522C147.316 59.9883 146.405 60.0424 145.486 60.1145C145.45 60.8899 145.387 61.6382 145.296 62.3595C145.224 63.0808 145.116 63.6308 144.972 64.0095L143.214 64.28C143.196 64.1177 143.178 63.9103 143.16 63.6578C143.142 63.4054 143.124 63.1349 143.106 62.8464C143.087 62.5398 143.069 62.2243 143.051 61.8997C143.051 61.5571 143.051 61.2325 143.051 60.926V52.9196C143.051 52.6491 143.006 52.4057 142.916 52.1893C142.844 51.9729 142.709 51.7746 142.51 51.5943C142.312 51.4139 142.033 51.2516 141.672 51.1074C141.311 50.9631 140.851 50.8189 140.292 50.6746L140.779 49.7009C141.663 49.8091 142.547 49.9533 143.43 50.1336C144.332 50.2959 145.125 50.4672 145.81 50.6476C145.774 50.8099 145.738 51.0082 145.702 51.2426C145.666 51.477 145.63 51.7115 145.594 51.9459C145.576 52.1803 145.558 52.3967 145.54 52.5951C145.522 52.7934 145.513 52.9377 145.513 53.0278V58.5727ZM142.294 55.5433C141.699 55.5433 140.996 55.5523 140.184 55.5704C139.391 55.5704 138.57 55.5884 137.723 55.6245C136.893 55.6425 136.082 55.6696 135.289 55.7056C134.513 55.7417 133.846 55.7687 133.287 55.7868C133.071 55.8048 132.791 55.8318 132.448 55.8679C132.124 55.8859 131.781 55.922 131.421 55.9761C131.06 56.0122 130.708 56.0482 130.366 56.0843C130.041 56.1204 129.771 56.1564 129.554 56.1925L128.553 54.0016C128.788 54.0557 129.076 54.1098 129.419 54.1639C129.78 54.1999 130.14 54.236 130.501 54.2721C130.88 54.3081 131.24 54.3442 131.583 54.3802C131.944 54.3983 132.241 54.4073 132.475 54.4073C133.071 54.4073 133.774 54.3983 134.585 54.3802C135.397 54.3442 136.253 54.2991 137.155 54.245C138.075 54.1729 139.003 54.0827 139.941 53.9745C140.879 53.8663 141.771 53.7311 142.619 53.5688L142.294 55.5433ZM139.589 52.7303C138.976 52.7123 138.309 52.7213 137.588 52.7573C136.884 52.7754 136.289 52.7844 135.802 52.7844C135.676 52.7844 135.496 52.7934 135.261 52.8114C135.045 52.8114 134.802 52.8295 134.531 52.8655C134.279 52.8836 134.008 52.9106 133.72 52.9467C133.449 52.9647 133.206 52.9918 132.989 53.0278L131.88 50.9992C132.097 51.0533 132.358 51.1074 132.665 51.1615C132.989 51.2156 133.323 51.2697 133.666 51.3238C134.008 51.3598 134.333 51.3959 134.639 51.432C134.964 51.45 135.234 51.459 135.451 51.459C135.667 51.459 135.947 51.45 136.289 51.432C136.65 51.3959 137.038 51.3598 137.452 51.3238C137.867 51.2877 138.291 51.2426 138.724 51.1885C139.156 51.1344 139.571 51.0803 139.968 51.0262L139.589 52.7303ZM141.753 60.8448C141.753 61.4218 141.618 61.9628 141.347 62.4677C141.077 62.9726 140.698 63.4144 140.211 63.7931C139.742 64.1718 139.183 64.4693 138.534 64.6857C137.885 64.9021 137.182 65.0103 136.425 65.0103C135.667 65.0103 134.964 64.9021 134.315 64.6857C133.666 64.4693 133.098 64.1718 132.611 63.7931C132.142 63.4144 131.772 62.9726 131.502 62.4677C131.231 61.9628 131.096 61.4218 131.096 60.8448C131.096 60.2497 131.231 59.6998 131.502 59.1949C131.772 58.6719 132.142 58.2211 132.611 57.8424C133.098 57.4638 133.666 57.1752 134.315 56.9769C134.964 56.7605 135.667 56.6523 136.425 56.6523C137.236 56.6523 137.966 56.7695 138.615 57.0039C139.265 57.2384 139.824 57.5539 140.292 57.9506C140.761 58.3293 141.122 58.7711 141.374 59.276C141.627 59.7809 141.753 60.3038 141.753 60.8448ZM133.72 60.7366C133.72 61.1333 133.783 61.512 133.909 61.8727C134.053 62.2153 134.243 62.5218 134.477 62.7923C134.73 63.0447 135.018 63.2521 135.343 63.4144C135.685 63.5587 136.046 63.6308 136.425 63.6308C136.803 63.6308 137.155 63.5587 137.479 63.4144C137.804 63.2702 138.093 63.0718 138.345 62.8193C138.597 62.5489 138.796 62.2423 138.94 61.8997C139.084 61.5391 139.156 61.1514 139.156 60.7366C139.156 60.3399 139.084 59.9702 138.94 59.6276C138.814 59.267 138.624 58.9514 138.372 58.6809C138.138 58.4105 137.849 58.2031 137.506 58.0588C137.182 57.8965 136.821 57.8154 136.425 57.8154C136.046 57.8154 135.685 57.8875 135.343 58.0318C135.018 58.176 134.73 58.3834 134.477 58.6539C134.243 58.9063 134.053 59.2129 133.909 59.5735C133.783 59.9342 133.72 60.3219 133.72 60.7366ZM145.378 65.957C146.063 66.0471 146.685 66.2184 147.244 66.4709C147.821 66.7233 148.317 67.0389 148.732 67.4176C149.146 67.7963 149.471 68.229 149.705 68.7159C149.94 69.2028 150.057 69.7167 150.057 70.2577C150.057 70.8708 149.913 71.4388 149.624 71.9617C149.336 72.5027 148.93 72.9625 148.407 73.3412C147.902 73.7379 147.298 74.0444 146.595 74.2608C145.891 74.4952 145.125 74.6124 144.296 74.6124C143.466 74.6124 142.7 74.4952 141.997 74.2608C141.293 74.0444 140.689 73.7379 140.184 73.3412C139.679 72.9625 139.283 72.5027 138.994 71.9617C138.706 71.4388 138.561 70.8708 138.561 70.2577C138.561 69.6987 138.679 69.1757 138.913 68.6888C139.147 68.1839 139.481 67.7422 139.914 67.3635C140.347 66.9848 140.86 66.6692 141.456 66.4168C142.051 66.1643 142.7 66.002 143.403 65.9299C143.367 65.7316 143.277 65.5783 143.133 65.4701C142.988 65.3619 142.718 65.2537 142.321 65.1455L142.7 64.3341C143.115 64.4242 143.592 64.5144 144.133 64.6045C144.692 64.6767 145.224 64.7758 145.729 64.9021C145.675 65.0463 145.612 65.2086 145.54 65.3889C145.486 65.5693 145.432 65.7586 145.378 65.957ZM147.433 70.1495C147.433 69.7167 147.343 69.32 147.163 68.9593C147 68.5807 146.775 68.2561 146.487 67.9856C146.198 67.6971 145.864 67.4807 145.486 67.3364C145.107 67.1741 144.701 67.093 144.269 67.093C143.836 67.093 143.421 67.1741 143.024 67.3364C142.646 67.4807 142.312 67.6971 142.024 67.9856C141.753 68.2561 141.528 68.5807 141.347 68.9593C141.185 69.32 141.104 69.7167 141.104 70.1495C141.104 70.5822 141.185 70.988 141.347 71.3666C141.528 71.7273 141.753 72.0428 142.024 72.3133C142.312 72.6018 142.646 72.8182 143.024 72.9625C143.421 73.1248 143.836 73.2059 144.269 73.2059C144.701 73.2059 145.107 73.1248 145.486 72.9625C145.882 72.8182 146.216 72.6018 146.487 72.3133C146.775 72.0428 147 71.7273 147.163 71.3666C147.343 70.988 147.433 70.5822 147.433 70.1495Z" fill="white"/>
<path d="M109.025 68.932C109.746 68.8959 110.404 68.8688 110.999 68.8508C111.594 68.8328 112.081 68.8147 112.46 68.7967C113.668 68.7426 114.894 68.6615 116.138 68.5533C117.401 68.4271 118.519 68.2918 119.492 68.1476L119.168 70.3655C118.446 70.3295 117.509 70.3024 116.355 70.2844C115.201 70.2663 114.02 70.2483 112.811 70.2303C112.306 70.2303 111.693 70.2393 110.972 70.2573C110.251 70.2573 109.466 70.2754 108.619 70.3114C107.789 70.3295 106.933 70.3565 106.049 70.3926C105.184 70.4106 104.354 70.4377 103.561 70.4737C102.767 70.4917 102.046 70.5188 101.397 70.5549C100.766 70.5909 100.27 70.618 99.9093 70.636C99.2241 70.6721 98.4938 70.7262 97.7184 70.7983C96.943 70.8704 96.2217 70.9516 95.5545 71.0417L94.689 68.6615C95.5004 68.7516 96.3569 68.8328 97.2586 68.9049C98.1782 68.959 99.0528 69.0041 99.8823 69.0402C100.225 69.0582 100.64 69.0672 101.126 69.0672C101.613 69.0672 102.145 69.0672 102.722 69.0672C103.317 69.0672 103.931 69.0672 104.562 69.0672C105.193 69.0492 105.833 69.0311 106.482 69.0131V62.6026C105.436 62.6207 104.462 62.6477 103.561 62.6838C102.659 62.7018 101.866 62.7289 101.181 62.7649C100.549 62.801 100.081 62.6477 99.7741 62.3051C99.4675 61.9625 99.3142 61.5387 99.3142 61.0338V54.9209C99.3142 54.5422 99.2872 54.2357 99.2331 54.0012C99.179 53.7668 99.0708 53.5685 98.9085 53.4062C98.7462 53.2259 98.5118 53.0816 98.2053 52.9734C97.8987 52.8472 97.484 52.7119 96.961 52.5677L97.4209 51.621C98.1782 51.7472 99.0798 51.8464 100.126 51.9185C101.172 51.9726 102.272 52.0087 103.426 52.0267C104.58 52.0267 105.752 52.0177 106.942 51.9997C108.15 51.9636 109.295 51.9185 110.377 51.8644C111.477 51.8103 112.469 51.7472 113.352 51.6751C114.236 51.6029 114.948 51.5218 115.489 51.4316L115.056 53.5144C113.956 53.4603 112.802 53.4242 111.594 53.4062C110.386 53.3701 109.196 53.3611 108.024 53.3791C106.852 53.3791 105.734 53.3972 104.67 53.4332C103.606 53.4513 102.668 53.4873 101.857 53.5414V60.4929C101.857 60.8355 101.911 61.0519 102.019 61.142C102.127 61.2141 102.389 61.2592 102.803 61.2773C103.254 61.2773 103.804 61.2773 104.453 61.2773C105.103 61.2592 105.806 61.2412 106.563 61.2232C107.339 61.1871 108.132 61.151 108.943 61.115C109.773 61.0609 110.584 61.0068 111.378 60.9527C112.189 60.8805 112.956 60.8084 113.677 60.7363C114.416 60.6642 115.065 60.592 115.624 60.5199L115.219 62.6567C114.299 62.6207 113.307 62.5936 112.243 62.5756C111.179 62.5575 110.107 62.5575 109.025 62.5756V68.932Z" fill="white"/>
<path d="M85.6817 65.3073C85.249 65.2892 84.6809 65.2802 83.9777 65.2802C83.2925 65.2802 82.5712 65.2983 81.8138 65.3343C81.0745 65.3524 80.3442 65.3794 79.6229 65.4155C78.9196 65.4335 78.3336 65.4606 77.8647 65.4966C77.6844 65.5146 77.432 65.5327 77.1074 65.5507C76.8008 65.5687 76.4582 65.5958 76.0795 65.6319C75.7189 65.6679 75.3402 65.713 74.9435 65.7671C74.5648 65.8032 74.2132 65.8482 73.8886 65.9023L72.6173 63.7655C72.8337 63.8016 73.1132 63.8467 73.4558 63.9008C73.7985 63.9549 74.1681 63.9999 74.5648 64.036C74.9615 64.0721 75.3492 64.1081 75.7279 64.1442C76.1066 64.1622 76.4402 64.1712 76.7287 64.1712C77.4139 64.1712 78.2614 64.1712 79.2713 64.1712C80.2811 64.1532 81.3359 64.1352 82.4359 64.1171C83.5539 64.0811 84.6629 64.045 85.7629 64.009C86.8628 63.9549 87.8456 63.8827 88.7111 63.7926C88.657 64.0631 88.603 64.3155 88.5489 64.5499C88.5128 64.7663 88.4677 64.9917 88.4136 65.2261C88.3775 65.4425 88.3415 65.6319 88.3054 65.7941L88.0079 67.8228C88.1521 67.8047 88.2694 67.7957 88.3595 67.7957C88.4677 67.7957 88.5669 67.7867 88.657 67.7687L88.4677 69.4727C87.4579 69.4186 86.367 69.3916 85.1949 69.3916C84.0408 69.3916 82.9228 69.4006 81.8409 69.4186C80.7589 69.4367 79.7762 69.4637 78.8926 69.4998C78.009 69.5178 77.3418 69.5358 76.891 69.5539C76.873 69.7162 76.8639 69.8694 76.8639 70.0137C76.8639 70.158 76.8639 70.3022 76.8639 70.4465V71.9341C76.8639 72.2227 76.891 72.394 76.9451 72.4481C77.0172 72.5022 77.2246 72.5382 77.5672 72.5562C78.2164 72.5743 79.0819 72.5653 80.1639 72.5292C81.2638 72.5112 82.4089 72.4661 83.599 72.394C84.7891 72.3218 85.9522 72.2317 87.0882 72.1235C88.2243 72.0153 89.171 71.8981 89.9283 71.7718L89.4685 73.9357C88.4948 73.8997 87.3948 73.8816 86.1686 73.8816C84.9424 73.8816 83.7072 73.8816 82.463 73.8816C81.2187 73.8997 80.0286 73.9177 78.8926 73.9357C77.7565 73.9718 76.7828 74.0078 75.9714 74.0439C75.3402 74.08 74.8984 73.9538 74.646 73.6652C74.4116 73.3767 74.2944 72.998 74.2944 72.5292V70.8522C74.2944 70.5276 74.2673 70.2662 74.2132 70.0678C74.1771 69.8514 74.087 69.6711 73.9427 69.5268C73.8165 69.3826 73.6181 69.2563 73.3477 69.1482C73.0772 69.04 72.7255 68.9137 72.2928 68.7695L72.7526 67.931C73.6722 68.0392 74.682 68.1113 75.782 68.1474C76.882 68.1834 78 68.2015 79.136 68.2015C80.272 68.2015 81.39 68.1834 82.49 68.1474C83.608 68.1113 84.6449 68.0662 85.6006 68.0121L85.6817 65.3073ZM89.1439 57.355C88.044 57.319 86.8448 57.301 85.5465 57.301C84.2662 57.301 82.9859 57.31 81.7056 57.328C80.4434 57.346 79.2352 57.3731 78.0811 57.4091C76.9451 57.4452 75.9804 57.4813 75.1869 57.5173C74.5558 57.5534 74.096 57.3821 73.8075 57.0034C73.537 56.6067 73.4018 56.1289 73.4018 55.5699V52.5945C73.4018 52.2159 73.3657 51.9003 73.2936 51.6478C73.2214 51.3954 73.0862 51.188 72.8878 51.0257C72.7075 50.8634 72.446 50.7282 72.1034 50.62C71.7608 50.4938 71.319 50.3766 70.7781 50.2684L71.2379 49.2676C71.4903 49.3036 71.8329 49.3397 72.2657 49.3758C72.7165 49.4118 73.1763 49.4569 73.6452 49.511C74.114 49.5651 74.5739 49.6192 75.0247 49.6733C75.4755 49.7274 75.8361 49.7815 76.1066 49.8356C76.0705 50.07 76.0345 50.4036 75.9984 50.8364C75.9623 51.2511 75.9443 51.6298 75.9443 51.9724V55.0018C75.9443 55.3445 76.0074 55.6059 76.1336 55.7862C76.2779 55.9485 76.5304 56.0387 76.891 56.0567C77.5762 56.0748 78.4598 56.0567 79.5417 56.0026C80.6237 55.9485 81.7597 55.8854 82.9498 55.8133C84.14 55.7231 85.3121 55.624 86.4661 55.5158C87.6382 55.3895 88.648 55.2723 89.4956 55.1641L89.1439 57.355ZM93.2282 61.3853C92.8676 61.3672 92.4438 61.3492 91.957 61.3312C91.4881 61.3131 90.9742 61.3041 90.4152 61.3041C89.8562 61.2861 89.2792 61.2681 88.6841 61.25C88.089 61.232 87.494 61.223 86.8989 61.223C86.394 61.223 85.7539 61.232 84.9785 61.25C84.2031 61.25 83.3556 61.259 82.4359 61.2771C81.5343 61.2951 80.6056 61.3221 79.6499 61.3582C78.6942 61.3762 77.7836 61.4033 76.918 61.4394C76.0705 61.4754 75.3042 61.5115 74.6189 61.5476C73.9337 61.5656 73.4108 61.5836 73.0501 61.6016C72.3829 61.6377 71.6526 61.7008 70.8592 61.791C70.0658 61.8631 69.3535 61.9443 68.7224 62.0344L67.8027 59.6812C68.6142 59.7714 69.4797 59.8525 70.3994 59.9246C71.3371 59.9787 72.2116 60.0238 73.0231 60.0599C73.4558 60.0779 74.0329 60.0869 74.7542 60.0869C75.4755 60.0869 76.2599 60.0869 77.1074 60.0869C77.9729 60.0689 78.8655 60.0509 79.7852 60.0328C80.7229 59.9968 81.6155 59.9697 82.463 59.9517C83.3105 59.9337 84.0949 59.9156 84.8162 59.8976C85.5375 59.8615 86.1145 59.8345 86.5473 59.8165C87.7554 59.7624 88.9816 59.6812 90.2259 59.573C91.4701 59.4468 92.5881 59.3116 93.5799 59.1673L93.2282 61.3853Z" fill="white"/>
<path d="M55.7392 52.0263C56.5867 52.1525 57.3621 52.3869 58.0654 52.7295C58.7686 53.0722 59.3727 53.5049 59.8776 54.0279C60.4006 54.5328 60.7973 55.1098 61.0678 55.759C61.3563 56.4081 61.5005 57.1024 61.5005 57.8417C61.5005 58.5991 61.3653 59.3023 61.0948 59.9515C60.8243 60.6006 60.4456 61.1777 59.9588 61.6826C59.4719 62.1875 58.8859 62.6202 58.2006 62.9809C57.5154 63.3235 56.7671 63.5579 55.9556 63.6842V68.9315C56.7671 68.8955 57.5064 68.8684 58.1736 68.8504C58.8408 68.8324 59.3908 68.8143 59.8235 68.7963C61.0317 68.7422 62.2579 68.6611 63.5021 68.5529C64.7644 68.4266 65.8824 68.2914 66.8561 68.1471L66.5315 70.3651C65.8102 70.329 64.8726 70.302 63.7185 70.284C62.5644 70.2659 61.3833 70.2479 60.1752 70.2299C59.6703 70.2299 59.0572 70.2389 58.3359 70.2569C57.6146 70.2569 56.8302 70.2749 55.9827 70.311C55.1532 70.329 54.2966 70.3561 53.4131 70.3922C52.5475 70.4102 51.718 70.4372 50.9246 70.4733C50.1312 70.4913 49.4099 70.5184 48.7607 70.5544C48.1296 70.5905 47.6337 70.6176 47.2731 70.6356C46.5878 70.6717 45.8575 70.7258 45.0822 70.7979C44.3068 70.87 43.5855 70.9512 42.9183 71.0413L42.0527 68.6611C42.8642 68.7512 43.7207 68.8324 44.6223 68.9045C45.542 68.9586 46.4165 69.0037 47.246 69.0397C47.5706 69.0578 47.9583 69.0668 48.4091 69.0668C48.8779 69.0668 49.3829 69.0668 49.9238 69.0668C50.4648 69.0668 51.0328 69.0668 51.6279 69.0668C52.2229 69.0488 52.818 69.0307 53.4131 69.0127V63.7382C52.5475 63.6481 51.7451 63.4407 51.0058 63.1161C50.2845 62.7735 49.6624 62.3498 49.1394 61.8449C48.6165 61.3219 48.2017 60.7269 47.8952 60.0597C47.6067 59.3744 47.4624 58.6351 47.4624 57.8417C47.4624 57.0663 47.6157 56.336 47.9222 55.6508C48.2288 54.9656 48.6525 54.3615 49.1935 53.8385C49.7525 53.3156 50.4107 52.8918 51.168 52.5673C51.9254 52.2427 52.7459 52.0443 53.6294 51.9722C53.6294 51.7017 53.5483 51.4853 53.386 51.323C53.2237 51.1607 52.8811 51.0075 52.3582 50.8632L52.8721 50.0518C53.0885 50.1059 53.3319 50.16 53.6024 50.214C53.8729 50.2681 54.1524 50.3222 54.4409 50.3763C54.7474 50.4304 55.045 50.4845 55.3335 50.5386C55.64 50.5927 55.9105 50.6468 56.145 50.7009C56.0728 50.8632 55.9917 51.0616 55.9015 51.296C55.8294 51.5304 55.7753 51.7738 55.7392 52.0263ZM58.7416 57.8417C58.7416 57.2106 58.6244 56.6155 58.39 56.0565C58.1736 55.4975 57.876 55.0196 57.4974 54.6229C57.1187 54.2082 56.6679 53.8836 56.145 53.6492C55.64 53.4148 55.0901 53.2976 54.495 53.2976C53.918 53.2976 53.368 53.4148 52.845 53.6492C52.3401 53.8836 51.8984 54.2082 51.5197 54.6229C51.141 55.0196 50.8344 55.4975 50.6 56.0565C50.3836 56.6155 50.2754 57.2106 50.2754 57.8417C50.2754 58.4909 50.3836 59.0859 50.6 59.6269C50.8344 60.1679 51.141 60.6367 51.5197 61.0334C51.8984 61.4301 52.3401 61.7457 52.845 61.9801C53.368 62.1965 53.918 62.3047 54.495 62.3047C55.0901 62.3047 55.64 62.1965 56.145 61.9801C56.6679 61.7457 57.1187 61.4301 57.4974 61.0334C57.8941 60.6367 58.2006 60.1679 58.417 59.6269C58.6334 59.0859 58.7416 58.4909 58.7416 57.8417Z" fill="white"/>
</svg>
