<svg width="378" height="46" viewBox="0 0 378 46" fill="none" xmlns="http://www.w3.org/2000/svg">
<path d="M368.35 20.4488L368.35 20.4488L368.344 20.4578C367.659 21.5192 367.137 22.4148 366.785 23.1405C366.443 23.8442 366.225 24.458 366.225 24.929C366.225 25.2194 366.298 25.529 366.531 25.7625C366.765 25.996 367.074 26.069 367.365 26.069C367.668 26.069 367.945 25.9578 368.158 25.7323C368.348 25.5309 368.459 25.2682 368.524 24.9932C368.603 24.7828 368.681 24.5607 368.759 24.3271C368.831 24.1104 368.915 23.893 369.011 23.6748C369.217 23.3145 369.399 22.9906 369.555 22.7033C369.735 22.4206 369.887 22.1934 370.011 22.0196L370.012 22.0197L370.018 22.0101C371.378 20.0105 372.444 18.4516 373.216 17.3331L373.216 17.3331L373.219 17.3286C373.99 16.1858 374.553 15.3281 374.905 14.7593C375.274 14.206 375.535 13.7946 375.679 13.5358C376.272 12.5126 376.723 11.6215 377.028 10.8661C377.33 10.1191 377.505 9.46492 377.505 8.92898C377.505 8.6188 377.432 8.2932 377.198 8.04566C376.959 7.79277 376.636 7.70898 376.325 7.70898C376.031 7.70898 375.775 7.82946 375.58 8.03631C375.399 8.22882 375.283 8.4815 375.205 8.7479C375.199 8.76924 375.194 8.79097 375.19 8.81295L375.03 9.85295L375.03 9.85295L375.03 9.85827C374.988 10.1524 374.842 10.5747 374.559 11.1412C374.277 11.6797 373.888 12.3283 373.39 13.0892L371.114 16.3636L371.114 16.3636L371.11 16.3688L368.35 20.4488ZM364.425 30.249C364.425 30.6645 364.534 31.0667 364.838 31.3594C365.139 31.6486 365.546 31.749 365.965 31.749C366.385 31.749 366.79 31.6336 367.081 31.3187C367.366 31.011 367.465 30.5969 367.465 30.169C367.465 29.7535 367.355 29.3512 367.051 29.0586C366.75 28.7694 366.344 28.669 365.925 28.669C365.504 28.669 365.099 28.7844 364.808 29.0993C364.523 29.4069 364.425 29.8211 364.425 30.249Z" fill="white" stroke="#4E3AFF" stroke-linejoin="round"/>
<path d="M352.073 30.4012C352.992 29.719 353.99 28.8049 355.066 27.6646C354.939 28.3082 354.875 28.9037 354.875 29.4497C354.875 30.4384 355.042 31.2686 355.453 31.8637C355.887 32.4923 356.543 32.7897 357.335 32.7897C357.84 32.7897 358.465 32.5496 359.165 32.1735C359.886 31.8122 360.707 31.305 361.623 30.6582L361.623 30.6582L361.627 30.655C362.116 30.302 362.644 29.8962 363.209 29.4383C363.78 28.9765 364.428 28.4094 365.152 27.7385C365.996 26.9755 366.64 26.3494 367.076 25.8642C367.294 25.6223 367.47 25.4043 367.595 25.214C367.658 25.1187 367.714 25.0209 367.755 24.923C367.795 24.8298 367.835 24.7069 367.835 24.5697C367.835 24.2841 367.757 23.9802 367.517 23.7549C367.282 23.5353 366.977 23.4697 366.695 23.4697C366.318 23.4697 366 23.6797 365.749 23.9278L361.557 27.7607L361.557 27.7607L361.555 27.7626C360.501 28.7373 359.596 29.4455 358.837 29.9009L358.837 29.9009L358.831 29.9049C358.457 30.1367 358.145 30.3022 357.892 30.4085C357.631 30.5177 357.465 30.5497 357.375 30.5497C357.308 30.5497 357.284 30.5365 357.283 30.5356C357.281 30.5348 357.28 30.5341 357.278 30.5318C357.276 30.5298 357.272 30.5247 357.266 30.5148C357.208 30.3722 357.155 30.0659 357.155 29.5297C357.155 28.5786 357.47 27.1751 358.145 25.2882C358.807 23.4389 359.8 21.1658 361.127 18.4655C361.403 18.2413 361.515 17.9112 361.515 17.5697C361.515 17.2373 361.398 16.9136 361.108 16.692C360.842 16.49 360.504 16.4297 360.175 16.4297C359.815 16.4297 359.515 16.5983 359.319 16.8923C359.314 16.8989 359.31 16.9056 359.306 16.9124C359.21 17.0715 359.094 17.3064 358.959 17.6028L358.953 17.6185C358.64 18.3744 358.288 19.1039 357.898 19.8069L357.897 19.8068L357.894 19.8126C357.528 20.4922 357.109 21.1999 356.636 21.9358C355.587 23.5089 354.407 24.9907 353.096 26.3813C352.63 26.8471 352.069 27.3553 351.414 27.9063C350.79 28.4259 350.184 28.8641 349.595 29.2226C348.999 29.585 348.605 29.7097 348.375 29.7097C348.313 29.7097 348.282 29.696 348.263 29.6833C348.24 29.6689 348.202 29.6351 348.16 29.5519C348.067 29.3712 347.995 29.0366 347.995 28.4897C347.995 27.3452 348.294 25.9549 348.922 24.3077L348.927 24.2929C349.418 22.873 350.251 21.188 351.439 19.2337C351.629 18.9355 351.795 18.6038 351.795 18.2897C351.795 17.9793 351.676 17.6717 351.383 17.4802C351.191 17.3329 350.959 17.2297 350.695 17.2297C350.305 17.2297 349.967 17.3899 349.715 17.6843L349.715 17.6842L349.706 17.6951C349.223 18.292 348.751 19.059 348.287 19.9861C347.826 20.9085 347.393 21.8966 346.988 22.9502L346.988 22.9502L346.984 22.9608C346.605 24.016 346.293 25.0463 346.049 26.0515L346.049 26.0515L346.047 26.0612C345.828 27.0433 345.715 27.9082 345.715 28.6497C345.715 29.626 345.914 30.4512 346.399 31.0381C346.899 31.6433 347.63 31.9097 348.495 31.9097C349.575 31.9097 350.775 31.3641 352.073 30.4012Z" fill="white" stroke="#4E3AFF" stroke-linejoin="round"/>
<path d="M338.434 17.1434L338.434 17.1434L338.429 17.1463C337.314 17.8437 336.301 18.7467 335.391 19.8497C334.481 20.9256 333.749 22.0997 333.196 23.3709C332.64 24.6485 332.354 25.8897 332.354 27.0903C332.354 28.3673 332.637 29.4184 333.291 30.1528C333.954 30.8982 334.921 31.2303 336.094 31.2303C337.34 31.2303 338.523 30.8814 339.636 30.1961C340.73 29.5231 341.706 28.6429 342.566 27.5614C343.423 26.4827 344.102 25.306 344.6 24.0325L344.601 24.0291C345.101 22.7254 345.354 21.4383 345.354 20.1703C345.354 19.1758 345.104 18.2588 344.602 17.4308C344.045 16.5131 343.149 16.0703 342.014 16.0703C340.79 16.0703 339.594 16.4359 338.434 17.1434ZM336.271 28.9144C336.227 28.92 336.184 28.9314 336.144 28.948C336.124 28.9493 336.095 28.9503 336.054 28.9503C335.541 28.9503 335.24 28.8034 335.055 28.5861C334.857 28.3534 334.714 27.9511 334.714 27.2903C334.714 26.5288 334.929 25.6401 335.39 24.6155L335.39 24.6155L335.392 24.6113C335.855 23.5563 336.448 22.5511 337.171 21.5954C337.92 20.6401 338.701 19.8611 339.511 19.2525C340.338 18.6517 341.063 18.3903 341.694 18.3903C342.108 18.3903 342.417 18.5197 342.661 18.7639C342.891 18.9945 343.034 19.3344 343.034 19.8503C343.034 20.8339 342.871 21.8351 342.539 22.8558C342.208 23.8727 341.725 24.827 341.088 25.7197L341.086 25.722C340.478 26.5829 339.759 27.3011 338.928 27.8801C338.113 28.4485 337.229 28.7915 336.271 28.9144Z" fill="white" stroke="#4E3AFF" stroke-linejoin="round"/>
<path d="M320.069 30.9692L319.609 30.7723C319.522 30.9751 319.449 31.1982 319.449 31.4092C319.449 31.7361 319.549 32.0654 319.825 32.3002C320.086 32.5217 320.423 32.5892 320.749 32.5892C321.021 32.5892 321.255 32.4794 321.439 32.3054C321.646 32.1352 321.785 31.8629 321.889 31.6037C322.003 31.3481 322.178 30.9009 322.414 30.2732C322.682 29.6291 322.976 28.8807 323.295 28.0286L324.334 25.3925L324.334 25.3925L324.336 25.3878C324.681 24.4835 325.001 23.6454 325.294 22.8735C325.584 22.1711 325.81 21.6078 325.971 21.1856C327.62 19.7716 329.282 18.332 330.957 16.8667C332.687 15.3756 334.445 13.8843 336.229 12.3931C338.118 10.8232 340.061 9.25324 342.057 7.68311C344.076 6.11535 346.095 4.62759 348.114 3.21976C348.308 3.08574 348.479 2.94165 348.607 2.78451C348.733 2.62943 348.849 2.4207 348.849 2.16922C348.849 1.85905 348.776 1.53345 348.542 1.28591C348.303 1.033 347.98 0.949219 347.669 0.949219C347.41 0.949219 347.157 1.00528 346.931 1.14047C346.78 1.23122 346.632 1.33526 346.485 1.4517C342.827 4.12217 339.209 6.92587 335.631 9.86275L335.63 9.86392C332.315 12.6054 329.059 15.4051 325.86 18.2629C325.748 17.5402 325.636 16.8042 325.523 16.0551C325.362 14.9805 325.174 13.9322 324.959 12.9102C324.796 12.0705 324.541 10.9683 324.194 9.60688C323.846 8.21549 323.445 6.7048 322.99 5.07499L322.99 5.07499L322.989 5.07186C322.937 4.88932 322.846 4.64662 322.653 4.4837C322.586 4.41504 322.512 4.37187 322.455 4.34485C322.374 4.3064 322.29 4.28366 322.217 4.26893C322.07 4.23954 321.896 4.22922 321.709 4.22922C321.525 4.22922 321.302 4.25552 321.11 4.37739C320.88 4.52366 320.769 4.76004 320.769 5.00922C320.769 5.08679 320.784 5.18003 320.796 5.24924C320.811 5.33294 320.833 5.43888 320.86 5.56489C320.915 5.81759 320.996 6.16561 321.103 6.60702C321.315 7.48408 321.555 8.50833 321.821 9.68003C322.087 10.8498 322.366 12.14 322.659 13.5508C322.951 14.9591 323.204 16.2864 323.416 17.5331C323.618 18.7183 323.732 19.6592 323.765 20.3634L319.847 30.2183L319.609 30.7723L320.069 30.9692Z" fill="white" stroke="#4E3AFF" stroke-linejoin="round"/>
<path d="M296.481 17.1434L296.481 17.1434L296.476 17.1463C295.36 17.8437 294.348 18.7467 293.438 19.8497C292.528 20.9256 291.795 22.0997 291.243 23.3709C290.687 24.6485 290.401 25.8897 290.401 27.0903C290.401 28.3673 290.684 29.4184 291.338 30.1528C292.001 30.8982 292.968 31.2303 294.141 31.2303C295.387 31.2303 296.57 30.8814 297.683 30.1961C298.777 29.5231 299.753 28.6429 300.613 27.5614C301.47 26.4827 302.149 25.306 302.647 24.0325L302.648 24.0291C303.147 22.7254 303.401 21.4383 303.401 20.1703C303.401 19.1758 303.151 18.2588 302.649 17.4308C302.091 16.5131 301.196 16.0703 300.061 16.0703C298.837 16.0703 297.641 16.4359 296.481 17.1434ZM294.318 28.9144C294.274 28.92 294.231 28.9314 294.191 28.948C294.171 28.9493 294.142 28.9503 294.101 28.9503C293.588 28.9503 293.287 28.8034 293.102 28.5861C292.904 28.3534 292.761 27.9511 292.761 27.2903C292.761 26.5288 292.976 25.6401 293.437 24.6155L293.437 24.6155L293.439 24.6113C293.902 23.5563 294.495 22.5511 295.217 21.5954C295.967 20.6401 296.748 19.8611 297.558 19.2525C298.385 18.6517 299.11 18.3903 299.741 18.3903C300.155 18.3903 300.464 18.5197 300.708 18.7639C300.938 18.9945 301.081 19.3344 301.081 19.8503C301.081 20.8339 300.917 21.8351 300.586 22.8558C300.255 23.8727 299.772 24.827 299.134 25.7197L299.133 25.722C298.525 26.5829 297.806 27.3011 296.975 27.8801C296.16 28.4485 295.276 28.7915 294.318 28.9144Z" fill="white" stroke="#4E3AFF" stroke-linejoin="round"/>
<path d="M282.545 26.1231L282.544 26.1265C281.886 27.6028 281.388 28.8678 281.054 29.9184C280.723 30.9603 280.541 31.8256 280.541 32.49C280.541 32.9267 280.607 33.3396 280.808 33.6575C281.034 34.0141 281.39 34.19 281.801 34.19C282.097 34.19 282.412 34.1208 282.653 33.8941C282.9 33.662 282.981 33.3484 282.981 33.05V32.97C282.981 32.9493 282.979 32.9285 282.977 32.908L282.94 32.6173C282.94 32.1201 283.084 31.3858 283.406 30.389C283.732 29.3836 284.227 28.1474 284.896 26.6771C286.211 23.7852 288.185 20.0178 290.822 15.371L291.152 15.349C291.574 15.3243 292.095 15.3363 292.719 15.3883C293.351 15.4409 293.941 15.5065 294.49 15.585C294.498 15.5861 294.505 15.587 294.513 15.5877C295.069 15.6407 295.466 15.67 295.681 15.67C295.984 15.67 296.305 15.6038 296.553 15.3837C296.812 15.1536 296.901 14.8367 296.901 14.53C296.901 14.2547 296.825 13.9673 296.604 13.7464C296.393 13.5349 296.115 13.4522 295.849 13.4322C294.758 13.2994 293.809 13.2057 293.002 13.1517C292.652 13.1167 292.337 13.0891 292.058 13.069C292.444 12.4914 293.067 11.5684 293.934 10.2909L293.935 10.2903C294.525 9.41853 294.974 8.70396 295.279 8.15096C295.431 7.87487 295.551 7.6302 295.635 7.4207C295.713 7.22449 295.781 7.00937 295.781 6.81C295.781 6.53584 295.669 6.29999 295.493 6.11569C295.269 5.8511 294.956 5.75 294.641 5.75C294.083 5.75 293.641 6.06128 293.314 6.51938C293.308 6.52774 293.302 6.53629 293.297 6.545C293.029 6.97365 292.787 7.37698 292.57 7.75484C292.36 8.09706 292.163 8.41261 291.979 8.70156L291.979 8.70149L291.973 8.7111L289.358 13.0316C287.487 13.0523 285.974 13.2816 284.849 13.7481C283.713 14.2193 282.901 14.9146 282.901 15.93C282.901 16.2204 282.973 16.53 283.207 16.7635C283.44 16.9971 283.75 17.07 284.041 17.07C284.278 17.07 284.575 17.0226 284.794 16.8036C284.942 16.6557 285.07 16.4727 285.126 16.2513C285.13 16.2346 285.133 16.2177 285.136 16.2007C285.136 16.2005 285.136 16.1986 285.138 16.1942C285.14 16.1895 285.145 16.1801 285.155 16.1662C285.177 16.1372 285.222 16.0925 285.305 16.0379C285.476 15.9259 285.755 15.8061 286.172 15.6924L286.172 15.6925L286.182 15.6897C286.78 15.5137 287.405 15.3985 288.057 15.3449C285.651 19.7415 283.813 23.3353 282.545 26.1231Z" fill="white" stroke="#4E3AFF" stroke-linejoin="round"/>
<path d="M269.622 20.3519C269.916 19.6046 270.157 18.9606 270.346 18.4208C270.455 18.1351 270.54 17.8846 270.599 17.6722C270.655 17.4665 270.697 17.2644 270.697 17.0892C270.697 16.7741 270.599 16.4544 270.329 16.2268C270.075 16.013 269.748 15.9492 269.437 15.9492C268.844 15.9492 268.546 16.4588 268.402 16.8911C268.338 17.083 268.134 17.5113 267.756 18.2122L267.756 18.2121L267.753 18.2185C267.417 18.8642 266.961 19.6214 266.381 20.4919L266.381 20.4919L266.378 20.4958C265.538 21.7818 264.593 23.0296 263.541 24.2391C262.496 25.4149 261.359 26.4725 260.133 27.4123L260.131 27.4136C259.266 28.0816 258.512 28.5707 257.865 28.8911C257.213 29.214 256.702 29.3492 256.317 29.3492C255.99 29.3492 255.823 29.2514 255.72 29.1203C255.599 28.9662 255.497 28.6774 255.497 28.1692C255.497 25.6794 256.723 22.5549 259.29 18.7699C259.347 18.6871 259.377 18.5893 259.377 18.4892C259.377 18.1547 259.322 17.8155 259.14 17.5475C258.934 17.2453 258.617 17.1092 258.277 17.1092C257.883 17.1092 257.567 17.385 257.343 17.637L257.343 17.637L257.338 17.6431C256.336 18.8073 255.599 19.8848 255.145 20.8739C255.037 21.0927 254.977 21.3259 254.977 21.5692C254.977 21.6145 254.96 21.7215 254.889 21.9112C254.379 23.2263 253.975 24.3997 253.676 25.4302L253.676 25.4301L253.673 25.442C253.4 26.4798 253.257 27.3916 253.257 28.1692C253.257 29.2437 253.488 30.1429 254.039 30.7771C254.601 31.4247 255.42 31.7092 256.397 31.7092C258.054 31.7092 260.013 30.6554 262.24 28.7507C263.047 28.0733 263.805 27.346 264.513 26.5689C263.915 27.893 263.287 29.2046 262.63 30.5036L262.629 30.5056C261.752 32.2596 260.93 33.8115 260.162 35.1621C259.395 36.5099 258.659 37.6666 257.953 38.6345C256.959 39.9945 256.013 40.9576 255.119 41.5532L255.119 41.5532L255.114 41.5569C254.216 42.1726 253.503 42.4292 252.957 42.4292C252.824 42.4292 252.727 42.3856 252.631 42.2622C252.605 42.2285 252.556 42.1371 252.517 41.9412C252.479 41.7511 252.457 41.4964 252.457 41.1692C252.457 40.5849 252.507 40.0297 252.608 39.5028C252.709 38.9688 252.849 38.4625 253.025 37.9834M269.622 20.3519C269.192 21.4537 268.576 22.9267 267.775 24.7686C266.972 26.615 265.97 28.8068 264.768 31.3433L264.768 31.3436C263.267 34.5061 261.787 37.1071 260.324 39.139C259.234 40.6913 258.03 41.9934 256.709 43.0397C255.42 44.0817 254.19 44.6692 253.037 44.6692C252.122 44.6692 251.353 44.3956 250.825 43.7724C250.311 43.1652 250.097 42.3079 250.097 41.2892C250.097 39.5925 250.458 37.9519 251.177 36.3716C251.254 36.1847 251.369 36.006 251.542 35.8729C251.724 35.7324 251.938 35.6692 252.157 35.6692C252.46 35.6692 252.781 35.7354 253.029 35.9555C253.288 36.1856 253.377 36.5026 253.377 36.8092C253.377 37.0125 253.309 37.2118 253.225 37.3895C253.17 37.5779 253.103 37.7759 253.025 37.9834M269.622 20.3519C269.622 20.3516 269.622 20.3513 269.622 20.351L269.157 20.1692L269.622 20.352C269.622 20.352 269.622 20.3519 269.622 20.3519ZM253.025 37.9834C253.025 37.9838 253.025 37.9843 253.025 37.9848L252.557 37.8092M253.025 37.9834C253.025 37.9829 253.026 37.9825 253.026 37.9821L252.557 37.8092M252.557 37.8092C252.637 37.5959 252.703 37.3959 252.757 37.2092M252.557 37.8092C252.37 38.3159 252.223 38.8492 252.117 39.4092C252.01 39.9692 251.957 40.5559 251.957 41.1692C251.957 41.8626 252.05 42.3292 252.237 42.5692C252.423 42.8092 252.663 42.9292 252.957 42.9292C253.65 42.9292 254.463 42.6092 255.397 41.9692L252.757 37.2092M252.757 37.2092C252.837 37.0492 252.877 36.9159 252.877 36.8092C252.877 36.3826 252.637 36.1692 252.157 36.1692C251.917 36.1692 251.743 36.3026 251.637 36.5692C250.943 38.0892 250.597 39.6626 250.597 41.2892C250.597 43.2092 251.41 44.1692 253.037 44.1692C254.023 44.1692 255.143 43.6626 256.397 42.6492L252.757 37.2092Z" fill="white" stroke="#4E3AFF" stroke-linejoin="round"/>
<path d="M235.053 25.8519L235.053 25.8519L235.051 25.8573C234.578 26.9976 234.333 28.0897 234.333 29.1288C234.333 29.9462 234.549 30.6493 235.068 31.1416C235.583 31.6292 236.309 31.8288 237.153 31.8288C239.098 31.8288 241.121 30.9003 243.213 29.1483C243.213 29.1552 243.213 29.162 243.213 29.1688C243.213 29.9321 243.392 30.5975 243.839 31.0717C244.291 31.5515 244.934 31.7488 245.673 31.7488C246.688 31.7488 247.61 31.5795 248.429 31.2284C249.188 30.9033 249.834 30.5879 250.363 30.2815L250.376 30.2736C251.177 29.7763 252.013 29.1456 252.882 28.3851L252.882 28.3852L252.888 28.3793C253.749 27.5991 254.715 26.6732 255.786 25.6024C256.185 25.2038 256.493 24.7475 256.493 24.2488C256.493 23.9785 256.403 23.6965 256.155 23.4984C255.929 23.3173 255.646 23.2688 255.393 23.2688C255.102 23.2688 254.792 23.3418 254.559 23.5753C253.712 24.4222 252.825 25.2695 251.898 26.1171C250.98 26.9301 250.107 27.6071 249.278 28.1508L249.278 28.1507L249.269 28.1568C248.876 28.4269 248.36 28.7058 247.711 28.9912C247.09 29.2646 246.546 29.3888 246.073 29.3888C245.821 29.3888 245.724 29.3246 245.683 29.2823C245.639 29.2363 245.573 29.1232 245.573 28.8488C245.573 28.0442 246.007 26.9222 247.006 25.4496L247.009 25.4462L248.529 23.1662C248.583 23.084 248.613 22.9875 248.613 22.8888C248.613 22.5984 248.54 22.2888 248.306 22.0553C248.073 21.8218 247.763 21.7488 247.473 21.7488C247.152 21.7488 246.865 21.8692 246.639 22.0953C246.631 22.1031 246.624 22.1112 246.616 22.1196C246.242 22.5478 245.906 22.9366 245.611 23.2859L245.993 23.6088L245.611 23.2859C245.318 23.6315 245.08 23.9092 244.896 24.1196C244.894 24.1218 244.892 24.124 244.89 24.1263C244.888 24.1291 244.886 24.132 244.883 24.1348C243.675 25.6325 242.504 26.8003 241.373 27.6488L241.372 27.6488L241.367 27.6532C240.807 28.0861 240.138 28.5114 239.357 28.9277L239.357 28.9276L239.351 28.931C238.632 29.3278 237.981 29.5088 237.393 29.5088C237.057 29.5088 236.899 29.4323 236.827 29.3672C236.765 29.3111 236.693 29.1974 236.693 28.9288C236.693 28.2615 236.847 27.5418 237.172 26.7657C237.532 25.9435 237.983 25.1313 238.526 24.3293C239.073 23.5232 239.628 22.8268 240.191 22.2375C241.4 21.016 242.49 20.1171 243.462 19.5261C244.438 18.9328 245.264 18.6688 245.953 18.6688C246.412 18.6688 246.667 18.7562 246.796 18.8514C246.897 18.9255 246.973 19.0409 246.973 19.2888C246.973 19.4517 246.937 19.6018 246.865 19.7452C246.861 19.754 246.857 19.7629 246.853 19.7719C246.749 20.0153 246.693 20.2687 246.693 20.5288C246.693 20.8401 246.776 21.1635 247.029 21.4023C247.277 21.6361 247.602 21.7088 247.913 21.7088C248.136 21.7088 248.353 21.65 248.545 21.5192C248.732 21.3909 248.867 21.213 248.962 21.018C249.145 20.6418 249.213 20.1401 249.213 19.5688C249.213 18.6497 248.978 17.869 248.423 17.3225C247.87 16.7774 247.081 16.5488 246.153 16.5488C245.099 16.5488 244.023 16.8413 242.929 17.4016C241.845 17.9303 240.796 18.6493 239.783 19.5531C238.77 20.4291 237.854 21.4138 237.034 22.5064C236.212 23.5763 235.55 24.6914 235.053 25.8519Z" fill="white" stroke="#4E3AFF" stroke-linejoin="round"/>
<path d="M206.438 16.2133L206.437 16.2152C204.38 20.0882 202.839 23.2778 201.816 25.7797C201.306 27.0156 200.919 28.0799 200.659 28.9694C200.401 29.852 200.259 30.5923 200.259 31.1697C200.259 31.5441 200.32 31.913 200.515 32.2008C200.735 32.5232 201.071 32.6697 201.439 32.6697C201.762 32.6697 202.084 32.563 202.309 32.282C202.467 32.0853 202.579 31.8452 202.579 31.5697C202.579 31.4752 202.572 31.3595 202.539 31.2435V31.243V31.2426V31.2421V31.2417V31.2412V31.2408V31.2403V31.2399V31.2394V31.2389V31.2385V31.238V31.2376V31.2371V31.2367V31.2362V31.2357V31.2353V31.2348V31.2343V31.2339V31.2334V31.233V31.2325V31.232V31.2316V31.2311V31.2306V31.2302V31.2297V31.2292V31.2288V31.2283V31.2278V31.2273V31.2269V31.2264V31.2259V31.2254V31.225V31.2245V31.224V31.2235V31.2231V31.2226V31.2221V31.2216V31.2212V31.2207V31.2202V31.2197V31.2192V31.2187V31.2183V31.2178V31.2173V31.2168V31.2163V31.2158V31.2154V31.2149V31.2144V31.2139V31.2134V31.2129V31.2124V31.2119V31.2114V31.2109V31.2105V31.21V31.2095V31.209V31.2085V31.208V31.2075V31.207V31.2065V31.206V31.2055V31.205V31.2045V31.204V31.204C202.726 31.5853 203.11 31.874 203.527 32.0926L203.527 32.0927L203.535 32.0969C204.168 32.4132 205.003 32.5497 205.999 32.5497C207.419 32.5497 209.047 32.3996 210.879 32.1033C212.707 31.8075 214.575 31.4177 216.482 30.9344L216.482 30.9344L216.488 30.9327C218.391 30.4236 220.122 29.9002 221.682 29.3624L221.683 29.3618C223.999 28.554 226.079 27.6362 227.921 26.6069C229.809 25.5671 231.319 24.3253 232.435 22.8745C233.576 21.3919 234.139 19.6286 234.139 17.6097C234.139 15.1272 233.383 12.9 231.876 10.9456C230.392 8.99525 228.513 7.37867 226.245 6.0946L226.244 6.0939C221.889 3.64454 216.762 2.42969 210.879 2.42969C210.604 2.42969 210.304 2.48845 210.07 2.6934C209.823 2.90951 209.739 3.2073 209.739 3.48969C209.739 3.83624 209.893 4.13071 210.125 4.36324C210.134 4.37229 210.144 4.38099 210.153 4.38932C210.448 4.64179 210.83 4.75667 211.24 4.78822L211.24 4.78838L211.253 4.78903L212.192 4.83718C212.146 4.98439 212.077 5.17509 211.979 5.4143C211.796 5.83125 211.494 6.47471 211.07 7.34886C210.645 8.19873 210.06 9.342 209.315 10.7795C208.57 12.2167 207.611 14.0277 206.438 16.2133ZM203.399 29.7497C203.19 29.7497 202.95 29.7929 202.752 29.9481C202.792 29.806 202.839 29.653 202.892 29.4888C203.137 28.7332 203.507 27.781 204.007 26.6287C205.007 24.3256 206.51 21.2524 208.52 17.4051C209.161 16.2297 209.828 14.9748 210.522 13.6404C211.215 12.3076 211.869 11.0411 212.482 9.84114C213.123 8.63879 213.635 7.6031 214.014 6.73604C214.216 6.30572 214.372 5.94293 214.478 5.65148C214.558 5.43415 214.626 5.21685 214.65 5.02703C219.028 5.55783 222.576 6.59688 225.313 8.12523C229.67 10.6043 231.739 13.6373 231.739 17.2097C231.739 18.9268 231.274 20.3625 230.363 21.5444C229.429 22.7564 228.116 23.8205 226.405 24.7279L226.402 24.7295C224.697 25.6474 222.737 26.4901 220.518 27.2561C219.486 27.6001 218.347 27.9578 217.101 28.3291C215.858 28.6728 214.575 28.9902 213.251 29.2814L213.249 29.2818C211.955 29.5724 210.701 29.81 209.488 29.9947C208.307 30.1521 207.251 30.2297 206.319 30.2297C205.663 30.2297 205.202 30.1896 204.911 30.1225C204.575 30.045 204.342 29.9729 204.196 29.9101C203.944 29.8021 203.676 29.7497 203.399 29.7497Z" fill="white" stroke="#4E3AFF" stroke-linejoin="round"/>
<path d="M173.316 23.9776L173.316 23.9776L173.314 23.9815C172.671 25.562 172.147 26.9729 171.742 28.2134C171.342 29.4158 171.117 30.3624 171.117 31.0099C171.117 31.3003 171.19 31.61 171.424 31.8435C171.657 32.077 171.967 32.1499 172.257 32.1499C172.573 32.1499 172.863 32.0461 173.104 31.8383C173.335 31.6388 173.495 31.3659 173.606 31.0628L173.606 31.0628L173.61 31.0521L174.09 29.6521L174.09 29.6513C174.477 28.5185 174.991 27.4647 175.632 26.4885C176.31 25.4985 177.066 24.5602 177.9 23.6735C179.374 22.121 180.738 20.9822 181.992 20.2402L181.994 20.2387C183.291 19.4608 184.359 19.1099 185.217 19.1099C185.443 19.1099 185.519 19.1577 185.533 19.1685C185.536 19.1714 185.539 19.1735 185.542 19.1828C185.547 19.1951 185.557 19.2271 185.557 19.2899C185.557 19.5218 185.475 19.9223 185.265 20.5257C185.062 21.1105 184.739 21.8489 184.291 22.7452C184.29 22.7456 184.29 22.746 184.29 22.7463L182.451 26.3844L182.45 26.3863C182.154 26.9783 181.932 27.4616 181.791 27.8304C181.635 28.2347 181.557 28.6555 181.557 29.0899C181.557 29.6708 181.716 30.1954 182.118 30.567C182.512 30.9317 183.056 31.0699 183.657 31.0699C185.182 31.0699 186.626 30.5933 187.98 29.6619C189.296 28.7573 190.854 27.4001 192.651 25.6035C193.049 25.2049 193.357 24.7486 193.357 24.2499C193.357 23.9796 193.267 23.6976 193.02 23.4995C192.793 23.3184 192.511 23.2699 192.257 23.2699C191.968 23.2699 191.66 23.3422 191.427 23.5732C190.551 24.4223 189.649 25.2715 188.72 26.1209C187.805 26.9571 186.923 27.644 186.073 28.1851C185.256 28.6797 184.542 28.904 183.922 28.9098C183.932 28.8356 183.959 28.7137 184.019 28.5321C184.097 28.2987 184.216 28.0016 184.382 27.6371C184.714 26.9088 185.216 25.9426 185.893 24.7344L185.894 24.7323C186.581 23.4946 187.102 22.4231 187.453 21.5213C187.801 20.6289 187.997 19.8632 187.997 19.2499C187.997 18.5855 187.759 18.0045 187.291 17.5364C186.808 17.0541 186.18 16.8299 185.457 16.8299C184.218 16.8299 182.746 17.3126 181.064 18.2078C179.512 19.0221 178.02 20.1918 176.585 21.7054L177.001 20.6773L177.001 20.6756C177.208 20.1587 177.482 19.5584 177.824 18.8735L177.824 18.8736L177.828 18.8668C178.171 18.1537 178.514 17.4672 178.857 16.8075C179.219 16.162 179.531 15.6917 179.792 15.3813C180.152 14.9927 180.613 14.436 181.171 13.7178C181.761 12.9671 182.377 12.1504 183.019 11.2679C183.69 10.3815 184.309 9.50749 184.874 8.64578C185.465 7.76021 185.939 6.98801 186.295 6.33111C186.486 5.9901 186.636 5.69188 186.74 5.4403C186.837 5.20302 186.917 4.95333 186.917 4.72992C186.917 4.46618 186.851 4.17654 186.631 3.95637C186.411 3.7362 186.121 3.66992 185.857 3.66992C185.601 3.66992 185.363 3.77684 185.162 3.90217C184.954 4.03241 184.735 4.21526 184.508 4.4372C184.053 4.8817 183.514 5.53174 182.895 6.37354C181.653 8.06033 180.043 10.5769 178.068 13.9139C177.66 14.5933 177.228 15.3904 176.771 16.3036C176.315 17.19 175.872 18.1028 175.442 19.042L175.442 19.042L175.44 19.0469C174.692 20.7302 173.984 22.3738 173.316 23.9776Z" fill="white" stroke="#4E3AFF" stroke-linejoin="round"/>
<path d="M164.381 26.1231L164.38 26.1265C163.722 27.6028 163.224 28.8678 162.89 29.9184C162.558 30.9604 162.376 31.8256 162.376 32.49C162.376 32.9267 162.443 33.3396 162.644 33.6575C162.87 34.0141 163.226 34.19 163.636 34.19C163.933 34.19 164.248 34.1208 164.489 33.8941C164.736 33.662 164.816 33.3484 164.816 33.05V32.97C164.816 32.9493 164.815 32.9286 164.813 32.908L164.776 32.6173C164.776 32.1201 164.92 31.3858 165.242 30.389C165.568 29.3836 166.063 28.1474 166.732 26.6771C168.047 23.7852 170.021 20.0178 172.658 15.371L172.988 15.349C173.41 15.3243 173.931 15.3363 174.555 15.3883C175.186 15.4409 175.777 15.5065 176.326 15.585C176.334 15.5861 176.341 15.587 176.349 15.5877C176.905 15.6407 177.302 15.67 177.516 15.67C177.82 15.67 178.141 15.6038 178.389 15.3837C178.648 15.1536 178.736 14.8367 178.736 14.53C178.736 14.2547 178.661 13.9673 178.44 13.7464C178.229 13.5349 177.951 13.4522 177.685 13.4322C176.594 13.2994 175.645 13.2057 174.838 13.1517C174.488 13.1167 174.173 13.0891 173.894 13.069C174.28 12.4914 174.903 11.5684 175.77 10.2909L175.771 10.2903C176.361 9.41853 176.81 8.70396 177.115 8.15096C177.266 7.87487 177.387 7.63019 177.471 7.42069C177.549 7.22449 177.616 7.00936 177.616 6.81C177.616 6.53584 177.505 6.29999 177.329 6.11569C177.105 5.85111 176.792 5.75 176.476 5.75C175.918 5.75 175.477 6.06128 175.15 6.51938C175.144 6.52774 175.138 6.53629 175.132 6.545C174.865 6.97365 174.622 7.37698 174.406 7.75484C174.196 8.09706 173.999 8.41261 173.815 8.70156L173.815 8.70149L173.809 8.7111L171.194 13.0316C169.323 13.0523 167.81 13.2816 166.685 13.7481C165.549 14.2193 164.736 14.9146 164.736 15.93C164.736 16.2204 164.809 16.53 165.043 16.7636C165.276 16.9971 165.586 17.07 165.876 17.07C166.114 17.07 166.411 17.0226 166.63 16.8036C166.778 16.6557 166.906 16.4727 166.962 16.2513C166.966 16.2346 166.969 16.2177 166.971 16.2007L166.971 16.2007C166.971 16.2003 166.972 16.1985 166.974 16.1942C166.976 16.1895 166.981 16.1801 166.991 16.1662C167.013 16.1372 167.058 16.0925 167.141 16.0379C167.311 15.9259 167.591 15.8061 168.008 15.6924L168.008 15.6925L168.018 15.6897C168.616 15.5137 169.24 15.3985 169.892 15.3449C167.487 19.7415 165.648 23.3353 164.381 26.1231Z" fill="white" stroke="#4E3AFF" stroke-linejoin="round"/>
<path d="M148.409 30.6527C148.397 30.67 148.387 30.6879 148.378 30.7065C148.267 30.9276 148.205 31.1637 148.205 31.4101C148.205 31.6911 148.296 31.9824 148.55 32.1881C148.783 32.3777 149.077 32.4301 149.345 32.4301C149.6 32.4301 149.887 32.3604 150.094 32.132C150.223 32.0278 150.343 31.9025 150.455 31.7624C150.461 31.7553 150.467 31.7481 150.472 31.7407L152.471 28.9416C152.471 28.9415 152.471 28.9414 152.471 28.9413C154.087 26.6896 155.604 24.8449 157.02 23.402C158.471 21.9508 159.906 20.7014 161.323 19.6519L161.323 19.6519L161.326 19.6491C161.971 19.1621 162.498 18.8072 162.909 18.5762C163.345 18.3318 163.579 18.2701 163.665 18.2701C163.684 18.2701 163.696 18.2718 163.702 18.2731C163.709 18.2834 163.725 18.3111 163.74 18.3713C163.742 18.378 163.743 18.3846 163.745 18.3912C163.822 18.6525 163.932 18.9005 164.1 19.0909C164.281 19.2958 164.528 19.4301 164.825 19.4301C165.254 19.4301 165.63 19.2541 165.873 18.8844C166.091 18.5515 166.165 18.1155 166.165 17.6501C166.165 17.1252 166.024 16.6418 165.658 16.2963C165.297 15.956 164.802 15.8301 164.265 15.8301C163.459 15.8301 162.543 16.1539 161.538 16.7254C160.525 17.3014 159.377 18.1546 158.096 19.2735L158.096 19.2738C157.234 20.028 156.386 20.8223 155.551 21.6565C155.532 21.6758 155.513 21.6951 155.494 21.7144C155.501 21.6975 155.509 21.6806 155.517 21.6636C155.893 20.8856 156.203 20.1972 156.448 19.5994C156.688 19.0131 156.845 18.5049 156.845 18.1301C156.845 17.7997 156.762 17.46 156.509 17.2065C156.255 16.953 155.915 16.8701 155.585 16.8701C155.321 16.8701 155.032 16.9364 154.811 17.1565C154.595 17.3729 154.527 17.6564 154.525 17.9165C154.524 17.9208 154.52 17.9437 154.507 17.992C154.488 18.0606 154.457 18.1553 154.411 18.2793C154.32 18.5266 154.179 18.8649 153.988 19.2977C153.605 20.1617 153.029 21.3778 152.257 22.949C152.256 22.9492 152.256 22.9493 152.256 22.9495L148.618 30.3065C148.618 30.3068 148.617 30.307 148.617 30.3073C148.577 30.3877 148.51 30.5014 148.409 30.6527Z" fill="white" stroke="#4E3AFF" stroke-linejoin="round"/>
<path d="M151.196 10.4833C151.189 10.4865 151.183 10.4899 151.176 10.4934C150.857 10.6711 150.463 11.0477 150.015 11.5476C149.842 11.7238 149.634 12.0136 149.399 12.3801C149.151 12.7653 148.93 13.152 148.735 13.5401C148.639 13.7205 148.56 13.8847 148.503 14.0292C148.451 14.1634 148.399 14.3279 148.399 14.4905C148.399 14.7942 148.476 15.1138 148.716 15.354C148.956 15.5942 149.276 15.6705 149.579 15.6705C149.817 15.6705 150.114 15.623 150.333 15.404L149.979 15.0505L150.333 15.404C150.457 15.2803 150.567 15.1318 150.632 14.9568L151.467 13.7798L151.475 13.7678C151.486 13.7516 151.532 13.6963 151.652 13.6009C151.765 13.5105 151.92 13.4019 152.124 13.2745C152.134 13.2683 152.144 13.2617 152.153 13.2548C152.472 13.0234 152.752 12.7734 152.992 12.5039C153.248 12.2194 153.479 11.8725 153.479 11.4905C153.479 11.1464 153.382 10.8005 153.105 10.5497C152.837 10.3075 152.485 10.2305 152.139 10.2305C151.824 10.2305 151.506 10.3282 151.196 10.4833ZM140.801 31.299C140.806 31.3035 140.811 31.3079 140.816 31.3122C141.296 31.7177 141.985 31.8705 142.779 31.8705C143.809 31.8705 144.886 31.5764 146.003 31.0177C147.092 30.4732 148.089 29.8725 148.993 29.2148L148.993 29.2149L149.002 29.2082C149.576 28.7711 150.174 28.268 150.796 27.6997C151.416 27.1336 152.089 26.4882 152.813 25.764C153.211 25.3654 153.519 24.9091 153.519 24.4105C153.519 24.1401 153.429 23.8581 153.182 23.66C152.955 23.479 152.673 23.4305 152.419 23.4305C152.131 23.4305 151.824 23.5023 151.591 23.7316C151.063 24.2332 150.415 24.8285 149.646 25.5182L149.645 25.5181L149.639 25.5241C148.905 26.2061 148.117 26.8759 147.275 27.5334C146.443 28.1578 145.627 28.6746 144.83 29.0862C144.048 29.4899 143.381 29.6705 142.819 29.6705C142.685 29.6705 142.59 29.661 142.527 29.6486C142.522 29.6191 142.519 29.5802 142.519 29.5305C142.519 29.1393 142.655 28.5126 142.971 27.6169L142.971 27.6169L142.975 27.6044C143.265 26.7074 143.528 26.1083 143.755 25.7678C143.847 25.6305 144.059 25.3548 144.407 24.9258L144.416 24.9142C144.765 24.4583 145.127 23.9759 145.502 23.4671C145.875 22.9601 146.169 22.5591 146.384 22.2646C146.388 22.2591 146.392 22.2535 146.395 22.2478C146.932 21.4425 147.429 20.6632 147.887 19.91C148.119 19.5277 148.3 19.1946 148.426 18.9146C148.543 18.6517 148.639 18.3762 148.639 18.1305C148.639 17.8238 148.55 17.5069 148.291 17.2768C148.044 17.0566 147.723 16.9905 147.419 16.9905C147.093 16.9905 146.786 17.1424 146.519 17.3336C146.242 17.5311 145.95 17.812 145.644 18.1602L145.643 18.1612C145.058 18.8298 144.455 19.6822 143.832 20.7116C143.211 21.737 142.618 22.8155 142.052 23.9469L142.052 23.9468L142.048 23.9555C141.509 25.0879 141.062 26.1571 140.708 27.1627C140.356 28.1391 140.159 28.9636 140.159 29.6105C140.159 30.2859 140.346 30.8811 140.801 31.299Z" fill="white" stroke="#4E3AFF" stroke-linejoin="round"/>
<path d="M129.817 4.01466C129.897 3.893 129.979 3.77243 130.061 3.65295L129.649 3.36969L130.061 3.65295C130.214 3.43011 130.338 3.2289 130.426 3.05329C130.505 2.89533 130.589 2.69325 130.589 2.48969C130.589 2.2073 130.505 1.90951 130.258 1.6934C130.024 1.48845 129.724 1.42969 129.449 1.42969C129.265 1.42969 129.105 1.49874 128.987 1.5678C128.863 1.63978 128.743 1.73627 128.628 1.84416C128.397 2.05939 128.137 2.3649 127.851 2.74618C127.656 2.9971 127.45 3.28622 127.233 3.61234C127.227 3.62065 127.222 3.62912 127.217 3.63775C127.062 3.90259 126.888 4.18733 126.695 4.4921C125.154 4.87359 123.877 5.21958 122.867 5.53006C121.829 5.82314 121.051 6.08461 120.559 6.31595C120.161 6.49771 119.829 6.82604 119.829 7.32969C119.829 7.62613 119.898 7.94147 120.125 8.18237C120.357 8.42896 120.67 8.50969 120.969 8.50969C121.084 8.50969 121.191 8.47049 121.275 8.40466C121.285 8.40139 121.295 8.39785 121.307 8.39403C121.476 8.33777 121.766 8.25034 122.186 8.13045C122.815 7.95062 123.718 7.7025 124.894 7.38586C123.986 8.81344 123.096 10.2411 122.222 11.6687C121.127 13.4579 120.072 15.2205 119.057 16.9567C115.329 23.2892 112.916 27.7194 111.839 30.2236C111.553 30.2339 111.283 30.2872 111.057 30.4119C110.688 30.6155 110.509 30.967 110.509 31.3697C110.509 31.6641 110.595 31.9715 110.848 32.1946C110.913 32.2518 110.982 32.2981 111.056 32.3353C110.962 32.6851 110.909 32.9933 110.909 33.2497C110.909 33.5401 110.982 33.8497 111.215 34.0832C111.449 34.3167 111.758 34.3897 112.049 34.3897C112.339 34.3897 112.649 34.3167 112.882 34.0832C113.116 33.8497 113.189 33.5401 113.189 33.2497C113.189 33.2285 113.199 33.1425 113.261 32.9627C113.296 32.8636 113.341 32.7477 113.399 32.6142C114.302 32.6778 115.186 32.7097 116.049 32.7097C120.699 32.7097 124.791 32.1723 128.316 31.0876L128.318 31.0869C130.06 30.5426 131.657 29.8334 133.107 28.9577C134.569 28.0753 135.754 27.0196 136.651 25.7867C137.594 24.5276 138.069 23.1033 138.069 21.5297C138.069 19.997 137.522 18.7 136.431 17.6752C135.661 16.9523 134.636 16.3787 133.375 15.9409C134.187 15.663 134.995 15.3602 135.798 15.0326L135.798 15.0327L135.806 15.0293C137.135 14.4597 138.346 13.8204 139.439 13.1104C140.569 12.3936 141.482 11.5971 142.164 10.7158L142.164 10.7158L142.169 10.7097C142.868 9.77725 143.229 8.75349 143.229 7.64969C143.229 6.94584 143.034 6.30996 142.635 5.76266C142.24 5.22078 141.666 4.79372 140.947 4.46497C139.521 3.81315 137.444 3.50969 134.769 3.50969C133.339 3.50969 132.121 3.60364 131.12 3.79759L129.817 4.01466ZM131.522 27.215L131.522 27.215L131.518 27.2172C130.22 27.97 128.83 28.5678 127.347 29.0102C124.122 29.9541 120.451 30.4297 116.329 30.4297H116.323H116.317H116.312H116.306H116.301H116.295H116.289H116.284H116.278H116.273H116.267H116.262H116.256H116.251H116.245H116.24H116.234H116.229H116.223H116.218H116.212H116.207H116.201H116.196H116.19H116.185H116.179H116.174H116.169H116.163H116.158H116.152H116.147H116.142H116.136H116.131H116.126H116.12H116.115H116.11H116.104H116.099H116.094H116.088H116.083H116.078H116.072H116.067H116.062H116.057H116.051H116.046H116.041H116.036H116.03H116.025H116.02H116.015H116.01H116.004H115.999H115.994H115.989H115.984H115.979H115.973H115.968H115.963H115.958H115.953H115.948H115.943H115.938H115.932H115.927H115.922H115.917H115.912H115.907H115.902H115.897H115.892H115.887H115.882H115.877H115.872H115.867H115.862H115.857H115.852H115.847H115.842H115.837H115.832H115.827H115.822H115.817H115.813H115.808H115.803H115.798H115.793H115.788H115.783H115.778H115.774H115.769H115.764H115.759H115.754H115.749H115.745H115.74H115.735H115.73H115.725H115.721H115.716H115.711H115.706H115.702H115.697H115.692H115.687H115.683H115.678H115.673H115.669H115.664H115.659H115.655H115.65H115.645H115.641H115.636H115.631H115.627H115.622H115.618H115.613H115.608H115.604H115.599H115.595H115.59H115.585H115.581H115.576H115.572H115.567H115.563H115.558H115.554H115.549H115.545H115.54H115.536H115.531H115.527H115.522H115.518H115.514H115.509H115.505H115.5H115.496H115.491H115.487H115.483H115.478H115.474H115.47H115.465H115.461H115.456H115.452H115.448H115.443H115.439H115.435H115.431H115.426H115.422H115.418H115.413H115.409H115.405H115.401H115.396H115.392H115.388H115.384H115.379H115.375H115.371H115.367H115.363H115.358H115.354H115.35H115.346H115.342H115.338H115.334H115.329H115.325H115.321H115.317H115.313H115.309H115.305H115.301H115.297H115.293H115.289H115.285H115.28H115.276H115.272H115.268H115.264H115.26H115.256H115.252H115.248H115.244H115.24H115.237H115.233H115.229H115.225H115.221H115.217H115.213H115.209H115.205H115.201H115.197H115.193H115.19H115.186H115.182H115.178H115.174H115.17H115.167H115.163H115.159H115.155H115.151H115.148H115.144H115.14H115.136H115.132H115.129H115.125H115.121H115.117H115.114H115.11H115.106H115.103H115.099H115.095H115.092H115.088H115.084H115.081H115.077H115.073H115.07H115.066H115.062H115.059H115.055H115.052H115.048H115.044H115.041H115.037H115.034H115.03H115.027H115.023H115.019H115.016H115.012H115.009H115.005H115.002H114.998H114.995H114.991H114.988H114.985H114.981H114.978H114.974H114.971H114.967H114.964H114.961H114.957H114.954H114.95H114.947H114.944H114.94H114.937H114.933H114.93H114.927H114.923H114.92H114.917H114.914H114.91H114.907H114.904H114.9H114.897H114.894H114.891H114.887H114.884H114.881H114.878H114.874H114.871H114.868H114.865H114.862H114.858H114.855H114.852H114.849H114.846H114.843H114.84H114.836H114.833H114.83H114.827H114.824H114.821H114.818H114.815H114.812H114.809H114.805H114.802H114.799H114.796H114.793H114.79H114.787H114.784H114.781H114.778H114.775H114.772H114.769H114.766H114.763H114.76H114.758H114.755H114.752H114.749H114.746H114.743H114.74H114.737H114.734H114.731H114.729H114.726H114.723H114.72H114.717H114.714H114.711H114.709H114.706H114.703H114.7H114.697H114.695H114.692H114.689H114.686H114.684H114.681H114.678H114.675H114.673H114.67H114.667H114.665H114.662H114.659H114.657H114.654H114.651H114.649H114.646H114.643H114.641H114.638H114.635H114.633H114.63H114.628H114.625H114.622H114.62H114.617H114.615H114.612H114.61H114.607H114.605H114.602H114.6H114.597H114.595H114.592H114.59H114.587H114.585H114.582H114.58H114.577H114.575H114.572H114.57H114.567H114.565H114.563H114.56H114.558H114.555H114.553H114.551H114.548H114.546H114.544H114.541H114.539H114.537H114.534H114.532H114.53H114.527H114.525H114.523H114.521H114.518H114.516H114.514H114.512H114.509H114.507H114.505H114.503H114.5H114.498H114.496H114.494H114.492H114.49H114.487H114.485H114.483H114.481H114.479H114.477H114.475H114.472H114.47H114.468H114.466H114.464H114.462H114.46H114.458H114.456H114.454H114.452H114.45H114.448H114.446H114.444H114.442H114.44H114.438H114.436H114.434H114.432H114.43H114.43C114.408 30.4279 114.386 30.426 114.365 30.4242C115.88 27.2721 117.758 23.7783 120 19.942C122.367 15.8919 125.112 11.45 128.235 6.61606C129.401 6.37349 130.505 6.19039 131.547 6.06625C132.676 5.93497 133.75 5.86969 134.769 5.86969C136.966 5.86969 138.555 6.07004 139.579 6.43991C140.088 6.62387 140.423 6.83788 140.626 7.05866C140.82 7.26839 140.909 7.49809 140.909 7.76969C140.909 8.48211 140.589 9.20188 139.855 9.93613C139.126 10.6651 138.171 11.3433 136.979 11.9654C135.8 12.5681 134.581 13.0923 133.323 13.5381C129.865 14.7522 126.816 15.3497 124.169 15.3497C123.893 15.3497 123.594 15.4085 123.359 15.6134C123.112 15.8295 123.029 16.1273 123.029 16.4097C123.029 16.6991 123.091 17.0096 123.304 17.2505C123.527 17.5034 123.834 17.5897 124.129 17.5897C124.205 17.5897 124.293 17.573 124.344 17.563C124.413 17.5496 124.5 17.5305 124.602 17.5066C124.802 17.46 125.076 17.3915 125.422 17.3019C126.031 17.2273 126.666 17.1897 127.329 17.1897C129.301 17.1897 131.107 17.5008 132.75 18.1169C134.925 18.9617 135.829 20.1077 135.829 21.4897C135.829 22.5899 135.449 23.6287 134.658 24.6173L134.657 24.6186C133.877 25.6005 132.836 26.4678 131.522 27.215Z" fill="white" stroke="#4E3AFF" stroke-linejoin="round"/>
<path d="M100.95 20.3519C101.244 19.6046 101.485 18.9606 101.674 18.4208C101.783 18.1351 101.868 17.8846 101.927 17.6722C101.983 17.4664 102.025 17.2644 102.025 17.0892C102.025 16.7741 101.927 16.4544 101.657 16.2268C101.403 16.013 101.076 15.9492 100.765 15.9492C100.172 15.9492 99.8744 16.4588 99.7303 16.8911C99.6664 17.083 99.4618 17.5113 99.0844 18.2122L99.0844 18.2121L99.0811 18.2185C98.7453 18.8642 98.289 19.6214 97.7087 20.4919L97.7086 20.4919L97.706 20.4958C96.8662 21.7818 95.9207 23.0296 94.8692 24.2391C93.8238 25.4149 92.6876 26.4725 91.4606 27.4123L91.459 27.4136C90.5945 28.0816 89.8399 28.5707 89.1928 28.8911C88.5407 29.214 88.0301 29.3492 87.6447 29.3492C87.3182 29.3492 87.1509 29.2514 87.0478 29.1203C86.9268 28.9662 86.8247 28.6774 86.8247 28.1692C86.8247 25.6794 88.051 22.5549 90.6185 18.7699C90.6746 18.6871 90.7047 18.5893 90.7047 18.4892C90.7047 18.1547 90.6505 17.8155 90.4678 17.5476C90.2617 17.2453 89.9456 17.1092 89.6047 17.1092C89.2113 17.1092 88.895 17.385 88.671 17.637L88.6709 17.637L88.6657 17.6431C87.6639 18.8073 86.9267 19.8848 86.4733 20.8739C86.3654 21.0927 86.3047 21.3259 86.3047 21.5692C86.3047 21.6145 86.2884 21.7215 86.2175 21.9112C85.7076 23.2263 85.3027 24.3997 85.0044 25.4302L85.0043 25.4301L85.0011 25.442C84.728 26.4798 84.5847 27.3916 84.5847 28.1692C84.5847 29.2437 84.8164 30.1429 85.3672 30.7771C85.9296 31.4247 86.7478 31.7092 87.7247 31.7092C89.382 31.7092 91.3409 30.6554 93.5679 28.7507C94.3754 28.0733 95.1332 27.346 95.8411 26.5688C95.243 27.893 94.6155 29.2046 93.9585 30.5036L93.9575 30.5056C93.0805 32.2596 92.258 33.8115 91.49 35.1621C90.7236 36.5099 89.9871 37.6666 89.2808 38.6345C88.2869 39.9945 87.3407 40.9576 86.4473 41.5532L86.4473 41.5532L86.4419 41.5569C85.544 42.1726 84.8315 42.4292 84.2847 42.4292C84.1521 42.4292 84.0553 42.3856 83.9594 42.2622C83.9331 42.2285 83.8842 42.1371 83.845 41.9412C83.807 41.7511 83.7847 41.4964 83.7847 41.1692C83.7847 40.5849 83.8355 40.0297 83.9358 39.5028C84.0376 38.9688 84.1769 38.4625 84.3534 37.9834M100.95 20.3519C100.52 21.4537 99.904 22.9267 99.1032 24.7686C98.3004 26.615 97.298 28.8068 96.0966 31.3433L96.0964 31.3436C94.5956 34.5061 93.1148 37.1071 91.6522 39.139C90.5625 40.6913 89.3582 41.9934 88.037 43.0397C86.7477 44.0817 85.5179 44.6692 84.3647 44.6692C83.4506 44.6692 82.6811 44.3956 82.1532 43.7724C81.6387 43.1652 81.4247 42.3079 81.4247 41.2892C81.4247 39.5925 81.786 37.9519 82.5053 36.3716C82.5818 36.1848 82.6969 36.006 82.8698 35.8729C83.0525 35.7324 83.2658 35.6692 83.4847 35.6692C83.7882 35.6692 84.1092 35.7354 84.3569 35.9555C84.6157 36.1856 84.7047 36.5026 84.7047 36.8092C84.7047 37.0125 84.6375 37.2118 84.553 37.3895C84.4979 37.5779 84.4311 37.7759 84.3534 37.9834M100.95 20.3519C100.95 20.3516 100.95 20.3513 100.95 20.351L100.485 20.1692L100.95 20.352C100.95 20.352 100.95 20.3519 100.95 20.3519ZM84.3534 37.9834C84.3532 37.9838 84.353 37.9843 84.3528 37.9848L83.8847 37.8092M84.3534 37.9834C84.3535 37.9829 84.3537 37.9825 84.3539 37.9821L83.8847 37.8092M83.8847 37.8092C83.9647 37.5959 84.0313 37.3959 84.0847 37.2092M83.8847 37.8092C83.698 38.3159 83.5513 38.8492 83.4447 39.4092C83.338 39.9692 83.2847 40.5559 83.2847 41.1692C83.2847 41.8626 83.378 42.3292 83.5647 42.5692C83.7513 42.8092 83.9913 42.9292 84.2847 42.9292C84.978 42.9292 85.7913 42.6092 86.7247 41.9692L84.0847 37.2092M84.0847 37.2092C84.1647 37.0492 84.2047 36.9159 84.2047 36.8092C84.2047 36.3826 83.9647 36.1692 83.4847 36.1692C83.2447 36.1692 83.0714 36.3026 82.9647 36.5692C82.2714 38.0892 81.9247 39.6626 81.9247 41.2892C81.9247 43.2092 82.738 44.1692 84.3647 44.1692C85.3513 44.1692 86.4713 43.6626 87.7247 42.6492L84.0847 37.2092Z" fill="white" stroke="#4E3AFF" stroke-linejoin="round"/>
<path d="M66.8356 40.6089C66.7823 40.6356 66.7156 40.6489 66.6356 40.6489C66.369 40.6489 66.1823 40.5422 66.0756 40.3289C65.9689 40.1156 65.9156 39.7022 65.9156 39.0889C65.9156 36.5289 66.929 33.0222 68.9556 28.5689M66.8356 40.6089L75.1556 18.4889C72.969 20.8889 70.9023 24.2489 68.9556 28.5689M66.8356 40.6089H66.9956C67.3423 40.6089 67.5156 40.8222 67.5156 41.2489C67.5156 41.7289 67.1823 41.9689 66.5156 41.9689C65.2623 41.9689 64.6356 41.0756 64.6356 39.2889M66.8356 40.6089L64.6356 39.2889M68.9556 28.5689L68.9556 28.5689L68.9556 28.5689ZM64.6356 39.2889C64.6356 36.9422 65.6623 33.2089 67.7156 28.0889L64.6356 39.2889ZM67.2524 27.9007L67.2516 27.9028C65.198 33.0232 64.1356 36.8364 64.1356 39.2889C64.1356 40.2254 64.2971 41.017 64.6963 41.586C65.1182 42.1875 65.7539 42.4689 66.5156 42.4689C66.8939 42.4689 67.2677 42.4035 67.5578 42.1947C67.8782 41.964 68.0156 41.6188 68.0156 41.2489C68.0156 40.9808 67.9632 40.6869 67.7737 40.4536C67.568 40.2004 67.2766 40.1089 66.9956 40.1089H66.9953H66.995H66.9947H66.9944H66.9941H66.9937H66.9934H66.9931H66.9928H66.9925H66.9922H66.9919H66.9916H66.9912H66.9909H66.9906H66.9903H66.99H66.9897H66.9894H66.9891H66.9887H66.9884H66.9881H66.9878H66.9875H66.9872H66.9869H66.9866H66.9862H66.9859H66.9856H66.9853H66.985H66.9847H66.9844H66.9841H66.9837H66.9834H66.9831H66.9828H66.9825H66.9822H66.9819H66.9816H66.9812H66.9809H66.9806H66.9803H66.98H66.9797H66.9794H66.9791H66.9787H66.9784H66.9781H66.9778H66.9775H66.9772H66.9769H66.9766H66.9762H66.9759H66.9756H66.9753H66.975H66.9747H66.9744H66.9741H66.9737H66.9734H66.9731H66.9728H66.9725H66.9722H66.9719H66.9716H66.9712H66.9709H66.9706H66.9703H66.97H66.9697H66.9694H66.9691H66.9687H66.9684H66.9681H66.9678H66.9675H66.9672H66.9669H66.9666H66.9662H66.9659H66.9656H66.9653H66.965H66.9647H66.9644H66.9641H66.9637H66.9634H66.9631H66.9628H66.9625H66.9622H66.9619H66.9616H66.9612H66.9609H66.9606H66.9603H66.96H66.9597H66.9594H66.9591H66.9587H66.9584H66.9581H66.9578H66.9575H66.9572H66.9569H66.9566H66.9562H66.9559H66.9556H66.9553H66.955H66.9547H66.9544H66.9541H66.9537H66.9534H66.9531H66.9528H66.9525H66.9522H66.9519H66.9516H66.9512H66.9509H66.9506H66.9503H66.95H66.9497H66.9494H66.9491H66.9487H66.9484H66.9481H66.9478H66.9475H66.9472H66.9469H66.9466H66.9462H66.9459H66.9456H66.9453H66.945H66.9447H66.9444H66.9441H66.9437H66.9434H66.9431H66.9428H66.9425H66.9422H66.9419H66.9416H66.9412H66.9409H66.9406H66.9403H66.94H66.9397H66.9394H66.9391H66.9387H66.9384H66.9381H66.9378H66.9375H66.9372H66.9369H66.9366H66.9362H66.9359H66.9356H66.9353H66.935H66.9347H66.9344H66.9341H66.9337H66.9334H66.9331H66.9328H66.9325H66.9322H66.9319H66.9316H66.9312H66.9309H66.9306H66.9303H66.93H66.9297H66.9294H66.9291H66.9287H66.9284H66.9281H66.9278H66.9275H66.9272H66.9269H66.9266H66.9262H66.9259H66.9256H66.9253H66.925H66.9247H66.9244H66.9241H66.9237H66.9234H66.9231H66.9228H66.9225H66.9222H66.9219H66.9216H66.9212H66.9209H66.9206H66.9203H66.92H66.9197H66.9194H66.9191H66.9187H66.9184H66.9181H66.9178H66.9175H66.9172H66.9169H66.9166H66.9162H66.9159H66.9156H66.9153H66.915H66.9147H66.9144H66.9141H66.9137H66.9134H66.9131H66.9128H66.9125H66.9122H66.9119H66.9116H66.9112H66.9109H66.9106H66.9103H66.91H66.9097H66.9094H66.9091H66.9087H66.9084H66.9081H66.9078H66.9075H66.9072H66.9069H66.9066H66.9062H66.9059H66.9056H66.9053H66.905H66.9047H66.9044H66.9041H66.9037H66.9034H66.9031H66.9028H66.9025H66.9022H66.9019H66.9016H66.9012H66.9009H66.9006H66.9003H66.9H66.8997H66.8994H66.8991H66.8987H66.8984H66.8981H66.8978H66.8975H66.8972H66.8969H66.8966H66.8962H66.8959H66.8956H66.8953H66.895H66.8947H66.8944H66.8941H66.8937H66.8934H66.8931H66.8928H66.8925H66.8922H66.8919H66.8916H66.8912H66.8909H66.8906H66.8903H66.89H66.8897H66.8894H66.8891H66.8887H66.8884H66.8881H66.8878H66.8875H66.8872H66.8869H66.8866H66.8862H66.8859H66.8856H66.8853H66.885H66.8847H66.8844H66.8841H66.8837H66.8834H66.8831H66.8828H66.8825H66.8822H66.8819H66.8816H66.8812H66.8809H66.8806H66.8803H66.88H66.8797H66.8794H66.8791H66.8787H66.8784H66.8781H66.8778H66.8775H66.8772H66.8769H66.8766H66.8762H66.8759H66.8756H66.8753H66.875H66.8747H66.8744H66.8741H66.8737H66.8734H66.8731H66.8728H66.8725H66.8722H66.8719H66.8716H66.8712H66.8709H66.8706H66.8703H66.87H66.8697H66.8694H66.8691H66.8687H66.8684H66.8681H66.8678H66.8675H66.8672H66.8669H66.8666H66.8662H66.8659H66.8656H66.8653H66.865H66.8647H66.8644H66.8641H66.8637H66.8634H66.8631H66.8628H66.8625H66.8622H66.8619H66.8616H66.8612H66.8609H66.8606H66.8603H66.86H66.8597H66.8594H66.8591H66.8587H66.8584H66.8581H66.8578H66.8575H66.8572H66.8569H66.8566H66.8562H66.8559H66.8556H66.8553H66.855H66.8547H66.8544H66.8541H66.8537H66.8534H66.8531H66.8528H66.8525H66.8522H66.8519H66.8516H66.8512H66.8509H66.8506H66.8503H66.85H66.8497H66.8494H66.8491H66.8487H66.8484H66.8481H66.8478H66.8475H66.8472H66.8469H66.8466H66.8462H66.8459H66.8456H66.8453H66.845H66.8447H66.8444H66.8441H66.8437H66.8434H66.8431H66.8428H66.8425H66.8422H66.8419H66.8416H66.8412H66.8409H66.8406H66.8403H66.84H66.8397H66.8394H66.8391H66.8387H66.8384H66.8381H66.8378H66.8375H66.8372H66.8369H66.8366H66.8362H66.8359H66.8356C66.7682 40.1089 66.7016 40.1225 66.6398 40.1489C66.6385 40.1489 66.6371 40.1489 66.6356 40.1489C66.5686 40.1489 66.5453 40.1357 66.5437 40.1348C66.5424 40.134 66.5412 40.1333 66.5392 40.131C66.5368 40.1285 66.5308 40.1211 66.5228 40.1053C66.5066 40.0728 66.4755 39.9811 66.4515 39.7949C66.4285 39.6168 66.4156 39.3832 66.4156 39.0889C66.4156 36.6393 67.3915 33.2129 69.4107 28.776L69.4115 28.7743C71.299 24.5856 73.2882 21.3329 75.3711 18.9966C75.6988 19.039 76.1839 19.2243 76.8543 19.6352L76.856 19.6362C78.9253 20.8935 79.7756 22.11 79.7756 23.2489C79.7756 23.5792 79.6702 24.0273 79.4171 24.6095C79.4146 24.6152 79.4123 24.6209 79.41 24.6267C79.2019 25.1584 78.8687 25.7923 78.4016 26.5317C77.7237 26.6985 77.0347 26.8544 76.3343 26.9993C75.5502 27.1615 74.7663 27.3507 73.9827 27.5669L73.9826 27.5668L73.9719 27.57C72.8718 27.9 71.9955 28.3196 71.3864 28.8526C70.7632 29.3979 70.4156 30.0683 70.4156 30.8489C70.4156 31.3702 70.6264 31.8268 71.0021 32.2025C71.3983 32.5987 71.9032 32.7889 72.4756 32.7889C73.7015 32.7889 75.1148 32.27 76.694 31.317L76.694 31.3171L76.7026 31.3117C77.2266 30.9807 77.7236 30.6218 78.1935 30.2349L78.1935 30.2349L78.1957 30.233C78.6393 29.8633 79.0511 29.4815 79.4306 29.0874C82.2281 28.7825 84.6419 27.706 86.6539 25.8571C86.6591 25.8523 86.6642 25.8474 86.6692 25.8425C86.9669 25.5447 87.2033 25.2698 87.3446 25.0259C87.4884 24.7944 87.6156 24.5243 87.6156 24.2489C87.6156 23.9786 87.5256 23.6966 87.278 23.4985C87.0516 23.3174 86.769 23.2689 86.5156 23.2689C86.232 23.2689 85.9484 23.3523 85.7275 23.5699C84.7172 24.5279 83.7347 25.2256 82.7816 25.677L82.7816 25.677L82.7769 25.6793C82.3126 25.9052 81.8877 26.0887 81.5012 26.2319C81.6225 25.9773 81.73 25.7218 81.8234 25.4655C82.0819 24.8031 82.2156 24.1432 82.2156 23.4889C82.2156 22.6017 81.9929 21.7477 81.5564 20.9328C81.1277 20.1327 80.569 19.4438 79.8814 18.8696C79.1506 18.224 78.3234 17.6923 77.4025 17.2737C76.4815 16.8551 75.6226 16.6289 74.8356 16.6289C74.6601 16.6289 74.4829 16.6835 74.3299 16.7447C74.3171 16.7498 74.3044 16.7555 74.292 16.7617C74.1116 16.8519 73.9324 17.005 73.7621 17.1754C73.7555 17.1819 73.7492 17.1886 73.743 17.1955C73.2757 17.7177 72.7324 18.3976 72.1141 19.231L72.114 19.2309L72.1079 19.2395C71.5122 20.0789 70.8788 21.0629 70.2078 22.19C69.563 23.238 68.9972 24.2348 68.511 25.1802C68.0251 26.125 67.6054 27.0319 67.2524 27.9007ZM74.2944 29.8093L74.2944 29.8093L74.2977 29.8083C74.5343 29.7382 74.7507 29.6757 74.9473 29.6208C74.7303 29.7601 74.5237 29.8829 74.3273 29.9893C73.7362 30.3098 73.2692 30.465 72.9124 30.5008C72.9484 30.4511 73.0068 30.3914 73.1013 30.3221C73.3325 30.1526 73.7179 29.9758 74.2944 29.8093ZM72.7203 30.5066C72.7203 30.5065 72.7211 30.5067 72.7226 30.507L72.7203 30.5066Z" fill="white" stroke="#4E3AFF" stroke-linejoin="round"/>
<path d="M50.9633 27.9007L50.9625 27.9028C48.909 33.0232 47.8466 36.8364 47.8466 39.2889C47.8466 40.2254 48.008 41.017 48.4072 41.586C48.8291 42.1875 49.4648 42.4689 50.2266 42.4689C50.6049 42.4689 50.9787 42.4035 51.2687 42.1947C51.5891 41.964 51.7266 41.6188 51.7266 41.2489C51.7266 40.9808 51.6742 40.6869 51.4846 40.4536C51.2789 40.2004 50.9876 40.1089 50.7066 40.1089H50.7062H50.7059H50.7056H50.7053H50.705H50.7047H50.7044H50.7041H50.7037H50.7034H50.7031H50.7028H50.7025H50.7022H50.7019H50.7016H50.7012H50.7009H50.7006H50.7003H50.7H50.6997H50.6994H50.6991H50.6987H50.6984H50.6981H50.6978H50.6975H50.6972H50.6969H50.6966H50.6962H50.6959H50.6956H50.6953H50.695H50.6947H50.6944H50.6941H50.6937H50.6934H50.6931H50.6928H50.6925H50.6922H50.6919H50.6916H50.6912H50.6909H50.6906H50.6903H50.69H50.6897H50.6894H50.6891H50.6887H50.6884H50.6881H50.6878H50.6875H50.6872H50.6869H50.6866H50.6862H50.6859H50.6856H50.6853H50.685H50.6847H50.6844H50.6841H50.6837H50.6834H50.6831H50.6828H50.6825H50.6822H50.6819H50.6816H50.6812H50.6809H50.6806H50.6803H50.68H50.6797H50.6794H50.6791H50.6787H50.6784H50.6781H50.6778H50.6775H50.6772H50.6769H50.6766H50.6762H50.6759H50.6756H50.6753H50.675H50.6747H50.6744H50.6741H50.6737H50.6734H50.6731H50.6728H50.6725H50.6722H50.6719H50.6716H50.6712H50.6709H50.6706H50.6703H50.67H50.6697H50.6694H50.6691H50.6687H50.6684H50.6681H50.6678H50.6675H50.6672H50.6669H50.6666H50.6662H50.6659H50.6656H50.6653H50.665H50.6647H50.6644H50.6641H50.6637H50.6634H50.6631H50.6628H50.6625H50.6622H50.6619H50.6616H50.6612H50.6609H50.6606H50.6603H50.66H50.6597H50.6594H50.6591H50.6587H50.6584H50.6581H50.6578H50.6575H50.6572H50.6569H50.6566H50.6562H50.6559H50.6556H50.6553H50.655H50.6547H50.6544H50.6541H50.6537H50.6534H50.6531H50.6528H50.6525H50.6522H50.6519H50.6516H50.6512H50.6509H50.6506H50.6503H50.65H50.6497H50.6494H50.6491H50.6487H50.6484H50.6481H50.6478H50.6475H50.6472H50.6469H50.6466H50.6462H50.6459H50.6456H50.6453H50.645H50.6447H50.6444H50.6441H50.6437H50.6434H50.6431H50.6428H50.6425H50.6422H50.6419H50.6416H50.6412H50.6409H50.6406H50.6403H50.64H50.6397H50.6394H50.6391H50.6387H50.6384H50.6381H50.6378H50.6375H50.6372H50.6369H50.6366H50.6362H50.6359H50.6356H50.6353H50.635H50.6347H50.6344H50.6341H50.6337H50.6334H50.6331H50.6328H50.6325H50.6322H50.6319H50.6316H50.6312H50.6309H50.6306H50.6303H50.63H50.6297H50.6294H50.6291H50.6287H50.6284H50.6281H50.6278H50.6275H50.6272H50.6269H50.6266H50.6262H50.6259H50.6256H50.6253H50.625H50.6247H50.6244H50.6241H50.6237H50.6234H50.6231H50.6228H50.6225H50.6222H50.6219H50.6216H50.6212H50.6209H50.6206H50.6203H50.62H50.6197H50.6194H50.6191H50.6187H50.6184H50.6181H50.6178H50.6175H50.6172H50.6169H50.6166H50.6162H50.6159H50.6156H50.6153H50.615H50.6147H50.6144H50.6141H50.6137H50.6134H50.6131H50.6128H50.6125H50.6122H50.6119H50.6116H50.6112H50.6109H50.6106H50.6103H50.61H50.6097H50.6094H50.6091H50.6087H50.6084H50.6081H50.6078H50.6075H50.6072H50.6069H50.6066H50.6062H50.6059H50.6056H50.6053H50.605H50.6047H50.6044H50.6041H50.6037H50.6034H50.6031H50.6028H50.6025H50.6022H50.6019H50.6016H50.6012H50.6009H50.6006H50.6003H50.6H50.5997H50.5994H50.5991H50.5987H50.5984H50.5981H50.5978H50.5975H50.5972H50.5969H50.5966H50.5962H50.5959H50.5956H50.5953H50.595H50.5947H50.5944H50.5941H50.5937H50.5934H50.5931H50.5928H50.5925H50.5922H50.5919H50.5916H50.5912H50.5909H50.5906H50.5903H50.59H50.5897H50.5894H50.5891H50.5887H50.5884H50.5881H50.5878H50.5875H50.5872H50.5869H50.5866H50.5862H50.5859H50.5856H50.5853H50.585H50.5847H50.5844H50.5841H50.5837H50.5834H50.5831H50.5828H50.5825H50.5822H50.5819H50.5816H50.5812H50.5809H50.5806H50.5803H50.58H50.5797H50.5794H50.5791H50.5787H50.5784H50.5781H50.5778H50.5775H50.5772H50.5769H50.5766H50.5762H50.5759H50.5756H50.5753H50.575H50.5747H50.5744H50.5741H50.5737H50.5734H50.5731H50.5728H50.5725H50.5722H50.5719H50.5716H50.5712H50.5709H50.5706H50.5703H50.57H50.5697H50.5694H50.5691H50.5687H50.5684H50.5681H50.5678H50.5675H50.5672H50.5669H50.5666H50.5662H50.5659H50.5656H50.5653H50.565H50.5647H50.5644H50.5641H50.5637H50.5634H50.5631H50.5628H50.5625H50.5622H50.5619H50.5616H50.5612H50.5609H50.5606H50.5603H50.56H50.5597H50.5594H50.5591H50.5587H50.5584H50.5581H50.5578H50.5575H50.5572H50.5569H50.5566H50.5562H50.5559H50.5556H50.5553H50.555H50.5547H50.5544H50.5541H50.5537H50.5534H50.5531H50.5528H50.5525H50.5522H50.5519H50.5516H50.5512H50.5509H50.5506H50.5503H50.55H50.5497H50.5494H50.5491H50.5487H50.5484H50.5481H50.5478H50.5475H50.5472H50.5469H50.5466C50.4791 40.1089 50.4125 40.1225 50.3507 40.1489C50.3495 40.1489 50.3481 40.1489 50.3466 40.1489C50.2795 40.1489 50.2563 40.1357 50.2546 40.1348C50.2533 40.134 50.2522 40.1333 50.2501 40.131C50.2478 40.1285 50.2417 40.1211 50.2338 40.1053C50.2175 40.0728 50.1865 39.9811 50.1624 39.7949C50.1395 39.6168 50.1266 39.3832 50.1266 39.0889C50.1266 36.6393 51.1025 33.2129 53.1217 28.776L53.1224 28.7743C55.0099 24.5856 56.9992 21.3329 59.0821 18.9966C59.4098 19.039 59.8949 19.2243 60.5653 19.6352L60.5669 19.6362C62.6362 20.8935 63.4866 22.11 63.4866 23.2489C63.4866 23.5792 63.3812 24.0273 63.128 24.6095C63.1256 24.6152 63.1232 24.6209 63.1209 24.6267C62.9129 25.1584 62.5797 25.7923 62.1125 26.5317C61.4347 26.6985 60.7456 26.8544 60.0453 26.9993C59.2611 27.1615 58.4772 27.3507 57.6936 27.5669L57.6936 27.5668L57.6829 27.57C56.5827 27.9 55.7064 28.3196 55.0973 28.8526C54.4741 29.3979 54.1266 30.0683 54.1266 30.8489C54.1266 31.3702 54.3373 31.8268 54.713 32.2025C55.1093 32.5987 55.6142 32.7889 56.1866 32.7889C57.4124 32.7889 58.8257 32.27 60.4049 31.317L60.4049 31.3171L60.4136 31.3117C60.9376 30.9807 61.4346 30.6218 61.9044 30.2349L61.9044 30.2349L61.9066 30.233C62.3503 29.8633 62.762 29.4815 63.1416 29.0874C65.939 28.7825 68.3528 27.706 70.3649 25.8571C70.3701 25.8523 70.3751 25.8474 70.3801 25.8425C70.6778 25.5447 70.9143 25.2698 71.0555 25.0259C71.1993 24.7944 71.3266 24.5243 71.3266 24.2489C71.3266 23.9786 71.2365 23.6966 70.9889 23.4985C70.7626 23.3174 70.48 23.2689 70.2266 23.2689C69.943 23.2689 69.6593 23.3523 69.4385 23.5699C68.4281 24.5279 67.4456 25.2256 66.4925 25.677L66.4925 25.677L66.4878 25.6793C66.0235 25.9052 65.5986 26.0887 65.2122 26.2319C65.3335 25.9773 65.4409 25.7218 65.5344 25.4655C65.7929 24.8031 65.9266 24.1432 65.9266 23.4889C65.9266 22.6017 65.7038 21.7477 65.2673 20.9328C64.8387 20.1327 64.2799 19.4438 63.5923 18.8696C62.8615 18.224 62.0344 17.6923 61.1135 17.2737C60.1924 16.8551 59.3336 16.6289 58.5466 16.6289C58.3711 16.6289 58.1939 16.6835 58.0409 16.7447C58.028 16.7498 58.0153 16.7555 58.0029 16.7617C57.8226 16.8519 57.6433 17.005 57.473 17.1754C57.4665 17.1819 57.4601 17.1886 57.4539 17.1955C56.9867 17.7177 56.4433 18.3976 55.825 19.231L55.8249 19.2309L55.8188 19.2395C55.2231 20.0789 54.5898 21.0629 53.9188 22.19C53.2739 23.238 52.7081 24.2348 52.2219 25.1802C51.736 26.125 51.3163 27.0319 50.9633 27.9007ZM58.0053 29.8093L58.0053 29.8093L58.0086 29.8083C58.2452 29.7382 58.4617 29.6757 58.6582 29.6208C58.4412 29.7601 58.2346 29.8829 58.0383 29.9893C57.4472 30.3098 56.9801 30.4651 56.6234 30.5008C56.6594 30.4511 56.7178 30.3914 56.8122 30.3221C57.0434 30.1526 57.4288 29.9758 58.0053 29.8093ZM56.4313 30.5066C56.4313 30.5065 56.4321 30.5067 56.4335 30.507L56.4313 30.5066Z" fill="white" stroke="#4E3AFF" stroke-linejoin="round"/>
<path d="M33.8029 25.8519L33.8029 25.8519L33.8006 25.8573C33.3278 26.9976 33.0825 28.0897 33.0825 29.1288C33.0825 29.9462 33.2993 30.6493 33.8185 31.1416C34.3327 31.6292 35.0585 31.8288 35.9025 31.8288C37.8483 31.8288 39.8706 30.9003 41.9626 29.1483C41.9625 29.1552 41.9625 29.162 41.9625 29.1688C41.9625 29.9321 42.1418 30.5975 42.5886 31.0717C43.0407 31.5515 43.6843 31.7488 44.4225 31.7488C45.4381 31.7488 46.3603 31.5795 47.1795 31.2284C47.9381 30.9033 48.5839 30.5879 49.113 30.2815L49.1262 30.2736C49.9275 29.7763 50.7627 29.1456 51.6318 28.3851L51.6318 28.3852L51.6383 28.3793C52.4992 27.5991 53.4653 26.6732 54.5361 25.6024C54.9347 25.2038 55.2425 24.7475 55.2425 24.2488C55.2425 23.9785 55.1525 23.6965 54.9049 23.4984C54.6785 23.3173 54.3959 23.2688 54.1425 23.2688C53.8521 23.2688 53.5425 23.3418 53.309 23.5753C52.462 24.4222 51.5751 25.2695 50.6481 26.1171C49.73 26.9301 48.8567 27.6071 48.0282 28.1508L48.0281 28.1507L48.0193 28.1568C47.6264 28.4269 47.1097 28.7058 46.4612 28.9912C45.8397 29.2646 45.2957 29.3888 44.8225 29.3888C44.5714 29.3888 44.4736 29.3246 44.4329 29.2823C44.3888 29.2363 44.3225 29.1232 44.3225 28.8488C44.3225 28.0442 44.757 26.9222 45.7563 25.4496L45.7585 25.4462L47.2785 23.1662C47.3333 23.084 47.3625 22.9875 47.3625 22.8888C47.3625 22.5984 47.2896 22.2888 47.0561 22.0553C46.8226 21.8218 46.5129 21.7488 46.2225 21.7488C45.9017 21.7488 45.615 21.8692 45.389 22.0953C45.3811 22.1031 45.3735 22.1112 45.3662 22.1196C44.9915 22.5478 44.6563 22.9366 44.3608 23.2859L44.7425 23.6088L44.3608 23.2859C44.0684 23.6315 43.8303 23.9092 43.6462 24.1196C43.6443 24.1218 43.6424 24.124 43.6405 24.1263C43.6381 24.1291 43.6357 24.132 43.6334 24.1348C42.4248 25.6325 41.2538 26.8003 40.1225 27.6488L40.1225 27.6488L40.1168 27.6532C39.5565 28.0861 38.8877 28.5114 38.1072 28.9277L38.1072 28.9276L38.101 28.931C37.3818 29.3278 36.7313 29.5088 36.1425 29.5088C35.8073 29.5088 35.6493 29.4323 35.577 29.3672C35.5147 29.3111 35.4425 29.1974 35.4425 28.9288C35.4425 28.2615 35.5971 27.5418 35.9222 26.7657C36.2822 25.9435 36.7332 25.1313 37.2765 24.3293C37.8225 23.5232 38.3776 22.8268 38.9409 22.2375C40.1496 21.016 41.2399 20.1171 42.2122 19.5261C43.1883 18.9328 44.014 18.6688 44.7025 18.6688C45.1625 18.6688 45.4167 18.7562 45.5459 18.8514C45.6466 18.9255 45.7225 19.0408 45.7225 19.2888C45.7225 19.4517 45.687 19.6018 45.6153 19.7452C45.6109 19.754 45.6068 19.7629 45.603 19.7719C45.4986 20.0152 45.4425 20.2687 45.4425 20.5288C45.4425 20.8401 45.5263 21.1635 45.7792 21.4023C46.0268 21.6361 46.3523 21.7088 46.6625 21.7088C46.8859 21.7088 47.1032 21.65 47.2946 21.5192C47.4823 21.3909 47.6168 21.213 47.7119 21.018C47.8954 20.6418 47.9625 20.1401 47.9625 19.5688C47.9625 18.6497 47.7285 17.869 47.1733 17.3225C46.6195 16.7774 45.831 16.5488 44.9025 16.5488C43.8492 16.5488 42.7728 16.8413 41.6789 17.4016C40.5949 17.9303 39.5464 18.6493 38.5326 19.5531C37.5202 20.4291 36.6041 21.4138 35.7844 22.5064C34.9616 23.5763 34.3003 24.6914 33.8029 25.8519Z" fill="white" stroke="#4E3AFF" stroke-linejoin="round"/>
<path d="M6.97753 19.2073L6.97818 19.2061C7.14994 18.8969 7.38039 18.4973 7.669 18.008C7.25947 18.107 6.90093 18.2317 6.59099 18.38L6.5822 18.3842L6.58217 18.3841C6.28162 18.5207 6.02242 18.6277 5.80826 18.7016C5.60982 18.77 5.3984 18.8289 5.21526 18.8289C4.90509 18.8289 4.57949 18.7562 4.33195 18.5224C4.07905 18.2836 3.99526 17.9602 3.99526 17.6489C3.99526 17.2558 4.23319 16.9591 4.4972 16.7526C4.76405 16.5438 5.13051 16.3665 5.5647 16.2089C6.39666 15.907 7.5961 15.6364 9.14416 15.3913C9.57871 14.6529 10.1132 13.7591 10.7474 12.7102L10.7518 12.703L10.7518 12.703C11.4724 11.5554 12.3261 10.2082 13.3128 8.66142C14.0301 7.51908 14.6402 6.52428 15.1436 5.67656C15.6413 4.81191 16.0444 4.03123 16.3549 3.3336C16.4314 3.14591 16.5467 2.9662 16.7204 2.83259C16.9031 2.69207 17.1164 2.62891 17.3353 2.62891C17.6724 2.62891 18.0154 2.7189 18.2678 2.98453C18.5156 3.24536 18.5953 3.59139 18.5953 3.92891C18.5953 4.07941 18.5409 4.23203 18.5005 4.33447C18.4522 4.45747 18.3841 4.60274 18.3006 4.7663C18.1331 5.09428 17.8867 5.52833 17.565 6.06449C17.5647 6.06504 17.5643 6.0656 17.564 6.06616L17.1353 5.80891C16.5219 6.84891 15.5486 8.44891 14.2153 10.6089L6.97753 19.2073ZM6.97753 19.2073C5.13055 22.5533 3.73849 25.4696 2.8071 27.9533C1.87815 30.4306 1.39526 32.5088 1.39526 34.1689C1.39526 34.4879 1.48695 34.8145 1.75187 35.0515C2.00619 35.2791 2.33773 35.3489 2.65526 35.3489C2.91327 35.3489 3.19063 35.2892 3.41273 35.0968C3.63777 34.9017 3.7314 34.6356 3.75304 34.3766C3.80557 33.9047 3.87127 33.3924 3.95024 32.8396C4.02611 32.3085 4.19328 31.5324 4.4574 30.5016C4.717 29.6213 5.21446 28.2841 5.95761 26.4793L5.95857 26.4769C6.69491 24.6624 7.71094 22.6025 9.01002 20.2959C9.01032 20.2953 9.01062 20.2948 9.01092 20.2943L10.6024 17.5185C12.6744 17.2991 14.9584 17.1889 17.4553 17.1889C18.3782 17.1889 19.8766 17.2286 21.956 17.3085L21.9563 17.3085C23.9017 17.3824 26.3389 17.502 29.2686 17.6672M6.97753 19.2073L29.2686 17.6672M29.2686 17.6672C28.1008 20.3534 27.2098 22.6646 26.5985 24.5982C25.9405 26.6797 25.5953 28.3581 25.5953 29.6089C25.5953 30.098 25.6487 30.5347 25.8005 30.8668C25.8793 31.039 25.9938 31.2037 26.1607 31.3254C26.333 31.451 26.5314 31.5089 26.7353 31.5089C27.0055 31.5089 27.2976 31.464 27.5336 31.2974C27.8015 31.1083 27.9153 30.8227 27.9153 30.5289V29.6489C27.9153 28.6243 28.231 27.1061 28.9004 25.0647C29.5425 23.1064 30.4978 20.7029 31.7695 17.851L32.6144 17.9073C32.9622 17.9404 33.3327 17.8786 33.6088 17.6025C33.8348 17.3764 33.9553 17.0897 33.9553 16.7689C33.9553 16.5651 33.9012 16.365 33.78 16.1885C33.6615 16.0158 33.4985 15.8941 33.3237 15.8092C33.1739 15.7364 33.0032 15.6847 32.8164 15.6498C33.6518 13.9141 34.6346 12.0921 35.7654 10.1838L35.7674 10.1804C36.6148 8.72401 37.3764 7.55672 38.0524 6.67263C38.7346 5.78061 39.2832 5.203 39.7013 4.89909C40.0223 4.68241 40.2753 4.36138 40.2753 3.92891C40.2753 3.64625 40.2096 3.34119 39.99 3.10694C39.7647 2.86661 39.4609 2.78891 39.1753 2.78891C38.7838 2.78891 38.3884 3.0172 38.0304 3.29259C37.6256 3.60397 37.0569 4.25361 36.3416 5.18064C35.6022 6.11214 34.7502 7.39888 33.7865 9.0316C33.1165 10.1306 32.4732 11.2429 31.8567 12.3687L31.8547 12.3725C31.3164 13.3757 30.8005 14.401 30.3069 15.4483C24.2251 15.0627 20.017 14.8689 17.6953 14.8689C16.5144 14.8689 15.3598 14.8957 14.2315 14.9495C13.4681 14.9858 12.7286 15.0345 12.0132 15.0955L29.2686 17.6672Z" fill="white" stroke="#4E3AFF" stroke-linejoin="round"/>
</svg>
