<svg width="250" height="160" viewBox="0 0 250 160" fill="none" xmlns="http://www.w3.org/2000/svg">
<path fill-rule="evenodd" clip-rule="evenodd" d="M33.7261 4.44531C17.1575 4.44531 3.72607 17.8768 3.72607 34.4453V105.152C3.72607 121.721 17.1575 135.152 33.7261 135.152H195.525L193.843 159.685L201.731 157.841L218.876 135.152H220C236.569 135.152 250 121.721 250 105.152V34.4453C250 17.8768 236.569 4.44531 220 4.44531H33.7261Z" fill="#452B00"/>
<path fill-rule="evenodd" clip-rule="evenodd" d="M30 0.25293C13.4315 0.25293 0 13.6844 0 30.2529V100.96C0 117.529 13.4315 130.96 30 130.96H193.79V159.979L215.422 130.96H216.274C232.843 130.96 246.274 117.529 246.274 100.96V30.2529C246.274 13.6844 232.843 0.25293 216.274 0.25293H30Z" fill="#FFCA75"/>
<mask id="mask0_706_11825" style="mask-type:alpha" maskUnits="userSpaceOnUse" x="0" y="0" width="247" height="131">
<rect y="0.25293" width="246.274" height="130.707" rx="30" fill="#FFB338"/>
</mask>
<g mask="url(#mask0_706_11825)">
<path d="M20.0616 7.81502L20.4821 15.0874L26.7113 18.8639L19.9248 21.5111L18.2581 28.6024L13.6433 22.966L6.38401 23.5722L10.3184 17.4416L7.49866 10.7249L14.5451 12.5723L20.0616 7.81502Z" fill="#FBAE33"/>
<path d="M244.461 108.086L244.955 116.634L252.277 121.073L244.3 124.185L242.341 132.52L236.916 125.895L228.383 126.608L233.008 119.402L229.694 111.507L237.976 113.678L244.461 108.086Z" fill="#FBAE33"/>
<path d="M182.319 122.382L182.676 128.558L187.966 131.765L182.203 134.013L180.787 140.035L176.868 135.249L170.704 135.763L174.045 130.557L171.65 124.853L177.634 126.422L182.319 122.382Z" fill="#FBAE33"/>
<path d="M209.167 -0.121103L209.524 6.05487L214.814 9.26197L209.05 11.5101L207.635 17.5323L203.716 12.7457L197.551 13.2605L200.892 8.05413L198.498 2.35011L204.482 3.91899L209.167 -0.121103Z" fill="#FBAE33"/>
<path d="M33.8813 -7.54775L34.2061 -1.93093L39.0172 0.985806L33.7756 3.03036L32.4883 8.50732L28.9241 4.1541L23.3174 4.62231L26.3562 -0.112682L24.1783 -5.30027L29.6206 -3.87344L33.8813 -7.54775Z" fill="#FBAE33"/>
<path d="M80.7673 117.671L81.1863 124.918L87.3939 128.682L80.6309 131.32L78.97 138.386L74.3712 132.77L67.1371 133.374L71.0579 127.264L68.2479 120.571L75.2699 122.412L80.7673 117.671Z" fill="#FBAE33"/>
<path d="M24.1659 94.5013L24.4967 100.221L29.3963 103.192L24.0583 105.274L22.7473 110.852L19.1176 106.418L13.4077 106.895L16.5024 102.073L14.2845 96.7901L19.8269 98.2432L24.1659 94.5013Z" fill="#FBAE33"/>
<path d="M33.3918 112.033L33.7489 118.209L39.039 121.416L33.2756 123.664L31.8602 129.687L27.9411 124.9L21.7763 125.415L25.1176 120.208L22.7229 114.504L28.707 116.073L33.3918 112.033Z" fill="#FBAE33"/>
<path d="M237.387 -5.01956L237.828 2.61199L244.365 6.57495L237.243 9.35287L235.494 16.7944L230.652 10.8797L223.034 11.5158L227.163 5.08244L224.204 -1.96592L231.598 -0.0272858L237.387 -5.01956Z" fill="#FBAE33"/>
<path d="M238.561 89.5061L242.49 93.6738L248.15 92.7999L245.401 97.8245L247.981 102.938L242.353 101.876L238.287 105.91L237.558 100.229L232.465 97.6086L237.643 95.1597L238.561 89.5061Z" fill="#FBAE33"/>
<path d="M10.0965 114.986L9.80827 121.166L14.7355 124.906L8.76927 126.542L6.73421 132.384L3.33512 127.215L-2.8498 127.085L1.01564 122.255L-0.771793 116.332L5.01626 118.516L10.0965 114.986Z" fill="#FBAE33"/>
</g>
</svg>
