<svg width="252" height="161" viewBox="0 0 252 161" fill="none" xmlns="http://www.w3.org/2000/svg">
<path fill-rule="evenodd" clip-rule="evenodd" d="M30.7734 5.06445C14.2049 5.06445 0.773438 18.4959 0.773438 35.0644V105.772C0.773438 122.34 14.2049 135.772 30.7734 135.772H35.4303L51.498 158.459L58.8906 160.303L57.3137 135.772H217.048C233.616 135.772 247.048 122.34 247.048 105.772V35.0645C247.048 18.4959 233.616 5.06445 217.048 5.06445H30.7734Z" fill="#1A4048"/>
<path fill-rule="evenodd" clip-rule="evenodd" d="M35.0469 0.875C18.4783 0.875 5.04688 14.3064 5.04688 30.875V101.582C5.04688 118.151 18.4783 131.582 35.0468 131.582H38.564L58.8364 160.6V131.582H221.321C237.89 131.582 251.321 118.151 251.321 101.582V30.875C251.321 14.3065 237.89 0.875 221.321 0.875H35.0469Z" fill="#A9EAF9"/>
<mask id="mask0_143_887" style="mask-type:alpha" maskUnits="userSpaceOnUse" x="5" y="0" width="247" height="132">
<rect x="5.04688" y="0.875" width="246.274" height="130.707" rx="30" fill="#FFB338"/>
</mask>
<g mask="url(#mask0_143_887)">
<path d="M25.1085 8.43806L25.529 15.7105L31.7582 19.4869L24.9716 22.1341L23.3049 29.2254L18.6902 23.5891L11.4309 24.1953L15.3653 18.0646L12.5455 11.348L19.5919 13.1954L25.1085 8.43806Z" fill="white"/>
<path d="M249.507 108.708L250.002 117.256L257.324 121.695L249.347 124.807L247.387 133.142L241.963 126.517L233.43 127.23L238.055 120.024L234.741 112.129L243.023 114.3L249.507 108.708Z" fill="white"/>
<path d="M187.365 123.005L187.722 129.181L193.012 132.388L187.249 134.636L185.833 140.658L181.914 135.872L175.749 136.386L179.091 131.18L176.696 125.476L182.68 127.045L187.365 123.005Z" fill="white"/>
<path d="M214.215 0.50097L214.572 6.67695L219.862 9.88405L214.098 12.1321L212.683 18.1543L208.764 13.3678L202.599 13.8826L205.94 8.67621L203.546 2.97219L209.53 4.54107L214.215 0.50097Z" fill="white"/>
<path d="M38.9282 -6.9247L39.2529 -1.30788L44.0641 1.60886L38.8225 3.65341L37.5352 9.13037L33.971 4.77715L28.3643 5.24536L31.4031 0.510371L29.2252 -4.67722L34.6675 -3.25039L38.9282 -6.9247Z" fill="white"/>
<path d="M85.8137 118.293L86.2327 125.54L92.4403 129.304L85.6773 131.942L84.0164 139.009L79.4176 133.392L72.1835 133.996L76.1043 127.886L73.2943 121.193L80.3163 123.034L85.8137 118.293Z" fill="white"/>
<path d="M29.2123 95.1224L29.5431 100.843L34.4427 103.813L29.1047 105.895L27.7937 111.473L24.164 107.04L18.4541 107.516L21.5488 102.694L19.3309 97.4112L24.8732 98.8643L29.2123 95.1224Z" fill="white"/>
<path d="M38.4372 112.656L38.7943 118.832L44.0844 122.039L38.321 124.287L36.9056 130.31L32.9866 125.523L26.8217 126.038L30.163 120.831L27.7683 115.127L33.7524 116.696L38.4372 112.656Z" fill="white"/>
<path d="M242.435 -4.39847L242.877 3.23309L249.414 7.19605L242.292 9.97398L240.543 17.4155L235.7 11.5008L228.082 12.1369L232.211 5.70354L229.252 -1.34482L236.646 0.593813L242.435 -4.39847Z" fill="white"/>
<path d="M243.608 90.1282L247.537 94.2958L253.197 93.4219L250.448 98.4465L253.028 103.56L247.4 102.498L243.334 106.532L242.605 100.851L237.512 98.2306L242.69 95.7818L243.608 90.1282Z" fill="white"/>
<path d="M15.1429 115.607L14.8547 121.787L19.7819 125.527L13.8157 127.163L11.7806 133.005L8.38151 127.836L2.19659 127.706L6.06203 122.876L4.27459 116.954L10.0627 119.137L15.1429 115.607Z" fill="white"/>
</g>
</svg>
