<svg width="122" height="89" viewBox="0 0 122 89" fill="none" xmlns="http://www.w3.org/2000/svg">
<path d="M45.5931 0.760794C-25.0726 9.74545 -1.27256 68.4242 40.4095 88.6612C36.2626 84.1693 36.954 77.7185 37.8181 75.0547C71.5096 80.238 128.007 77.0399 120.967 35.3159C115.136 0.756756 69.3499 -1.75898 45.5931 0.760794Z" fill="#FEF051"/>
<path d="M57.0416 58.6692C56.0425 60.1974 54.7789 61.4609 53.2508 62.46C52.5303 62.9229 51.761 63.2884 50.9673 63.5982C49.1677 64.3014 47.2566 64.3327 45.3734 64.5137C44.2073 64.6251 43.5634 64.0821 43.3092 62.8881C42.8846 60.8692 42.8672 58.805 42.6653 56.7617C42.3276 53.3329 42.0457 49.8973 41.7463 46.465C41.6836 45.7445 41.7463 45.0657 42.432 44.6236C42.8428 44.3834 43.3301 44.4078 43.7618 44.2338C47.3819 42.9075 50.929 43.0085 54.1837 45.1632C57.8561 47.5929 59.1232 51.1365 58.3748 55.4389C58.0824 56.5772 57.7134 57.6841 57.0416 58.6692Z" fill="#BC00D6"/>
<path d="M21.3585 31.9113C22.5525 34.428 24.7873 35.3713 27.4084 34.4906C28.6755 34.066 29.6745 33.2445 30.6283 32.3638C31.1191 31.9148 30.8511 31.3369 30.6979 30.8531C30.5308 30.3205 30.0539 30.6059 29.7163 30.6581C28.9644 30.7695 28.2264 30.9575 27.478 31.0724C26.5869 31.2081 25.8663 30.773 25.6958 30.0385C25.5113 29.2344 25.9708 28.5069 26.9176 28.312C29.1141 27.856 31.321 27.4417 33.5314 27.0414C34.325 26.8987 35.063 27.3721 35.2162 28.0892C35.3902 28.9142 35.0943 29.5825 34.2833 29.8227C33.6045 30.0246 33.5035 30.317 33.6288 30.9714C33.9456 32.6492 34.1754 34.341 34.426 36.0327C34.4817 36.4052 34.5234 36.7881 34.5095 37.164C34.4817 37.8776 34.0988 38.3789 33.3991 38.5111C32.6855 38.6469 32.1494 38.2814 31.8849 37.6374C31.7074 37.2093 31.6517 36.7219 31.5925 36.2555C31.5159 35.6359 31.3279 35.4897 30.7745 35.8935C29.5561 36.7846 28.1812 37.352 26.6844 37.5643C23.3636 38.0377 20.262 36.3355 18.8453 33.2793C16.0536 27.2607 20.0984 18.8891 26.5486 17.3575C28.8634 16.8075 31.0077 17.173 32.9257 18.6315C33.5209 19.3834 33.6045 20.0482 33.1694 20.5669C32.6542 21.1795 32.045 21.2909 31.1435 20.7792C29.4935 19.8428 27.8296 19.7628 26.1031 20.5007C24.46 21.2213 23.2452 22.4187 22.3088 23.9225C20.8051 26.4462 20.3525 29.0917 21.3585 31.9113Z" fill="#BC00D6"/>
<path d="M37.5239 23.5643C38.2444 22.1337 39.1356 20.8492 40.5175 19.972C43.5459 18.0505 47.1487 18.7258 49.5749 21.6742C52.3248 25.0124 52.6312 30.4113 50.278 34.035C47.5037 38.3026 42.2371 38.609 38.9859 34.6859C38.7457 34.3935 38.5194 34.0907 38.2862 33.7913C36.3055 30.5123 36.1176 27.0975 37.5239 23.5643Z" fill="#BC00D6"/>
<path d="M61.2502 51.276C61.7306 49.6365 62.2353 48.0109 63.1125 46.5245C63.4676 45.9258 63.847 45.3445 64.3099 44.8223C66.8127 41.9923 70.0709 41.78 72.9253 44.2584C75.1496 46.1903 76.3888 48.7314 77.3461 51.4396C78.2685 54.0433 78.7524 56.748 79.0483 59.4875C79.0587 59.5815 79.0622 59.6755 79.0657 59.773C79.097 60.859 78.5818 61.59 77.7394 61.6457C76.9458 61.6979 76.347 61.0783 76.2078 60.0375C76.079 59.0663 76.0059 58.0882 75.8319 57.124C75.1983 53.6082 74.1889 50.2317 71.9297 47.3704C69.7855 44.6552 67.4811 44.8084 65.6849 47.7637C65.0235 48.8532 64.6058 50.0472 64.2612 51.2655C64.0976 52.0766 64.1881 52.9329 63.84 53.7126C63.4536 55.8848 63.2761 58.0708 63.4919 60.2742C63.5093 60.4622 63.4989 60.6502 63.471 60.8381C63.3179 61.7989 62.8097 62.3001 62.0195 62.2688C61.2398 62.2375 60.648 61.5657 60.5679 60.685C60.3695 58.5198 60.4705 56.3686 60.7385 54.2139C60.8638 53.2288 61.0205 52.2472 61.2502 51.276Z" fill="#BC00D6"/>
<path d="M77.9478 31.7199C76.1482 34.3759 73.5932 35.8692 70.5125 36.5445C70.1157 36.6315 69.7015 36.6942 69.2942 36.6942C67.4249 36.6976 66.5582 35.803 66.6069 33.9547C66.7218 29.694 66.8367 25.4298 66.9515 21.1692C66.9829 20.0483 67.5224 19.3347 68.4623 19.1746C72.0511 18.5619 76.7608 20.9116 78.3899 24.1628C78.6858 24.7511 78.8459 25.402 79.0722 26.0251C79.4307 28.0684 79.0652 29.969 77.9478 31.7199Z" fill="#BC00D6"/>
<path d="M91.5765 51.8257C90.762 52.8874 89.8708 53.869 88.6003 54.3981C88.2418 54.5478 88.1826 54.8089 88.1861 55.157C88.2278 57.9 87.368 60.3123 85.544 62.373C85.1646 62.8011 84.7991 63.2363 84.2874 63.5147C83.6121 63.8837 82.9264 63.9638 82.3938 63.3198C81.8368 62.6445 82.0039 61.9379 82.5817 61.36C83.2779 60.6604 83.8975 59.912 84.4092 59.0696C84.6042 58.8468 84.639 58.5474 84.7887 58.3038C84.907 57.9104 85.0532 57.524 85.1368 57.1237C85.5545 55.1013 85.5405 55.1152 83.7339 54.2659C81.6697 53.2947 80.2774 51.6447 79.2157 49.6815C78.1923 47.7913 77.6423 45.755 77.4334 43.6211C77.3882 43.1721 77.416 42.73 77.5831 42.3123C77.8059 41.7693 78.2097 41.4281 78.8084 41.4212C79.3688 41.4177 79.7552 41.7275 79.9954 42.2218C80.2948 42.8379 80.2704 43.5167 80.3714 44.1711C80.5245 45.1771 80.7577 46.1553 81.165 47.0916C81.3739 47.6207 81.6106 48.1394 81.9134 48.6233C82.3903 49.5318 83.0203 50.315 83.8105 50.9625C86.0557 52.8108 88.4158 52.1634 89.5436 49.3925C90.3721 47.2831 90.48 45.1249 90.0205 42.918C89.9648 42.6465 89.9439 42.3576 89.9265 42.0756C89.8778 41.2854 90.3129 40.6484 90.9778 40.4813C91.6635 40.3108 92.2936 40.6449 92.68 41.362C92.9863 41.9329 93.0211 42.5629 93.0977 43.1825C93.4492 46.0474 93.2578 48.8321 91.855 51.4324C91.7819 51.5855 91.6914 51.7143 91.5765 51.8257Z" fill="#BC00D6"/>
<path d="M52.6411 27.7482C52.6377 25.3916 53.1145 23.7034 54.2598 22.2657C56.4458 19.5123 60.1008 19.2478 62.9273 21.5974C65.914 24.0828 66.8573 28.883 65.0333 32.3257C63.1153 35.9528 58.8163 36.7778 55.7113 34.0975C53.6193 32.2943 52.6864 29.9482 52.6411 27.7482Z" fill="#BC00D6"/>
<path d="M103.362 43.691C103.919 43.6527 104.493 43.8546 104.772 44.5369C104.953 44.9755 105.2 44.9998 105.652 44.9302C106.864 44.7527 107.957 45.3967 108.159 46.2982C108.395 47.3529 107.731 48.3172 106.547 48.8254C105.579 49.2396 104.573 49.4694 103.55 49.6643C102.857 49.7966 102.408 49.8035 102.38 48.7836C102.352 47.8055 101.869 46.8447 101.632 45.8666C101.319 44.5821 102.008 43.6666 103.362 43.691Z" fill="#BC00D6"/>
<path d="M91.9346 62.5093C91.9798 60.6713 92.6134 59.0597 93.4314 57.5141C94.8307 54.8721 96.7835 52.7069 99.2515 51.0187C99.5892 50.7889 99.9373 50.5557 100.31 50.3921C100.804 50.1728 101.34 50.1345 101.629 50.7054C101.904 51.2484 101.643 51.6835 101.149 51.9759C100.714 52.2301 100.237 52.4285 99.8328 52.7243C96.8253 54.9382 94.6462 57.7717 93.4592 61.3327C93.2399 61.9941 93.0972 62.6729 93.0833 63.3725C93.0763 63.7485 92.958 64.1035 92.5089 64.0792C92.133 64.0618 92.0077 63.745 91.9833 63.4004C91.9589 63.0871 91.9485 62.7703 91.9346 62.5093Z" fill="#BD01D5"/>
<path d="M70.3559 52.2295C70.6518 51.9928 70.9303 51.7317 71.2436 51.5229C71.8214 51.14 72.4375 51.0564 72.991 51.5403C73.5827 52.0589 73.5305 52.7029 73.2068 53.3538C73.179 53.4095 73.1442 53.4617 73.1093 53.514C71.2505 56.3057 66.318 56.4345 64.2643 53.7472C63.9336 53.1763 63.9405 52.6333 64.4244 52.1459C65.0301 51.5368 65.6984 51.6517 66.3772 52.0102C66.687 52.2086 66.9933 52.4105 67.3031 52.6089C68.3927 53.0893 69.3987 52.8526 70.3559 52.2295Z" fill="#BD01D6"/>
<path d="M53.6406 56.9742C52.478 59.4039 50.5217 60.6048 47.8588 60.758C47.2113 60.7962 46.9816 60.5595 46.9468 59.9016C46.7449 55.9891 46.5186 52.08 46.261 48.1709C46.2123 47.4503 46.449 47.2275 47.1487 47.2275C49.8499 47.231 51.8723 48.4041 53.2716 50.6876C54.3855 52.7239 54.5631 54.816 53.6406 56.9742Z" fill="#FEF051"/>
<path d="M40.521 24.1075C40.8934 23.4182 41.3912 22.8404 42.0491 22.4088C43.1247 21.6917 44.2595 21.542 45.4674 22.0398C47.8414 23.1781 49.3069 26.0742 49.0075 29.04C48.8509 30.5855 48.4053 32.0197 47.3436 33.1962C45.7424 34.975 43.4136 35.1177 41.7254 33.426C39.414 31.1076 39.0416 28.309 39.9675 25.2631C40.1381 24.8698 40.2982 24.473 40.521 24.1075Z" fill="#FEF051"/>
<path d="M72.055 22.4192C73.0645 22.7951 74.0113 23.279 74.798 24.0378C76.6151 25.7887 76.8657 28.1975 75.4559 30.2931C74.429 31.8212 72.9531 32.7367 71.2927 33.4155C69.4965 33.9237 69.4861 33.9237 69.5 32.1101C69.5209 29.2105 69.7715 26.3178 69.7019 23.4182C69.6706 22.1302 70.0674 21.8831 71.3345 22.2207C71.5747 22.2834 71.8392 22.266 72.055 22.4192Z" fill="#FEF051"/>
<path d="M55.4927 27.7241C55.4996 25.0194 56.5857 23.3137 58.2287 22.9273C59.7882 22.5618 61.5321 23.6549 62.465 25.6077C63.203 27.1567 63.3631 28.7614 62.7818 30.3974C61.8593 32.9942 59.2416 33.6069 57.2888 31.6749C56.0531 30.4601 55.5066 28.9459 55.4927 27.7241Z" fill="#FEF051"/>
<circle cx="55.719" cy="3.79907" r="2.4856" fill="#FECF51"/>
<circle cx="44.6355" cy="4.90259" r="2.4856" fill="#FECF51"/>
<circle cx="33.5525" cy="7.38794" r="2.4856" fill="#FECF51"/>
<circle cx="23.1208" cy="11.2629" r="2.4856" fill="#FECF51"/>
<circle cx="13.3474" cy="17.5168" r="2.4856" fill="#FECF51"/>
<circle cx="7.75122" cy="26.1077" r="2.4856" fill="#FECF51"/>
<circle cx="5.26538" cy="37.9524" r="2.4856" fill="#FECF51"/>
<circle cx="7.75122" cy="49.1917" r="2.4856" fill="#FECF51"/>
<circle cx="13.3474" cy="59.6477" r="2.4856" fill="#FECF51"/>
<circle cx="20.7561" cy="68.9211" r="2.4856" fill="#FECF51"/>
<circle cx="29.3474" cy="77.1975" r="2.4856" fill="#FECF51"/>
<circle cx="66.3621" cy="3.40454" r="2.4856" fill="#FECF51"/>
<circle cx="78.2048" cy="5.35571" r="2.4856" fill="#FECF51"/>
<circle cx="89.7649" cy="8.37622" r="2.4856" fill="#FECF51"/>
<circle cx="100.557" cy="13.3469" r="2.4856" fill="#FECF51"/>
<circle cx="109.692" cy="20.8948" r="2.4856" fill="#FECF51"/>
<circle cx="115.57" cy="31.5823" r="2.4856" fill="#FECF51"/>
<circle cx="117.173" cy="42.9231" r="2.4856" fill="#FECF51"/>
<circle cx="113.968" cy="54.8899" r="2.4856" fill="#FECF51"/>
<circle cx="105.529" cy="62.2708" r="2.4856" fill="#FECF51"/>
<circle cx="94.7361" cy="67.9993" r="2.4856" fill="#FECF51"/>
<circle cx="81.8469" cy="71.4065" r="2.4856" fill="#FECF51"/>
<circle cx="68.7654" cy="72.97" r="2.4856" fill="#FECF51"/>
<circle cx="55.8279" cy="72.97" r="2.4856" fill="#FECF51"/>
<circle cx="40.9836" cy="71.4065" r="2.4856" fill="#FECF51"/>
</svg>
