<svg width="259" height="141" viewBox="0 0 259 141" fill="none" xmlns="http://www.w3.org/2000/svg">
<path fill-rule="evenodd" clip-rule="evenodd" d="M130.01 140.811L129.279 138.885C128.327 136.496 126.015 133.943 122.753 131.437C119.515 128.948 115.437 126.579 111.097 124.524C102.387 120.401 92.7905 117.625 86.9896 117.625C86.2163 117.625 85.3968 117.615 84.5382 117.606C76.0049 117.509 63.6003 117.369 54.1968 125.841C48.8957 130.617 41.1528 130.969 35.2468 127.926C29.5458 124.989 25.4913 118.856 26.8496 110.441C3.2095 112.235 -5.4356 83.8179 9.01469 71.6341C-5.43552 59.45 3.20939 31.0316 26.8496 32.8256C25.4912 24.4108 29.5458 18.2776 35.2468 15.3402C41.1528 12.2972 48.8957 12.6487 54.1968 17.4252C63.6003 25.8978 76.0037 25.7575 84.537 25.6609C85.396 25.6512 86.216 25.6419 86.9896 25.6419C92.7905 25.6419 102.387 22.865 111.097 18.742C115.437 16.6872 119.515 14.3175 122.753 11.8292C126.015 9.32303 128.327 6.77002 129.279 4.3803L130.009 2.7832L130.738 4.3803C131.692 6.76988 134.009 9.32296 137.277 11.8293C140.522 14.3177 144.607 16.6875 148.956 18.7422C157.682 22.8653 167.298 25.6425 173.111 25.6425C173.886 25.6425 174.707 25.6518 175.568 25.6615C184.118 25.7581 196.546 25.8984 205.968 17.4252C211.279 12.6493 219.036 12.2979 224.952 15.3405C230.663 18.2774 234.726 24.4105 233.365 32.8263C257.046 31.0315 265.716 59.4478 251.235 71.6347C265.716 83.8211 257.046 112.236 233.365 110.442C234.726 118.857 230.663 124.99 224.952 127.927C219.036 130.969 211.279 130.618 205.968 125.842C196.546 117.369 184.118 117.51 175.568 117.606C174.707 117.616 173.886 117.625 173.111 117.625C167.298 117.625 157.682 120.402 148.956 124.525C144.607 126.58 140.522 128.949 137.277 131.438C134.009 133.944 131.692 136.497 130.738 138.886L130.01 140.811Z" fill="black" fill-opacity="0.1"/>
<path fill-rule="evenodd" clip-rule="evenodd" d="M128.038 138.839L127.307 136.913C126.355 134.523 124.043 131.97 120.781 129.464C117.543 126.976 113.465 124.606 109.125 122.552C100.416 118.429 90.8187 115.652 85.0178 115.652C84.2445 115.652 83.425 115.643 82.5664 115.633C74.0331 115.536 61.6285 115.396 52.225 123.868C46.9239 128.645 39.181 128.996 33.275 125.953C27.574 123.016 23.5195 116.883 24.8778 108.469C1.2377 110.262 -7.4074 81.8452 7.04288 69.6615C-7.40732 57.4773 1.23759 29.0589 24.8778 30.8529C23.5194 22.4381 27.574 16.3049 33.275 13.3676C39.181 10.3245 46.9239 10.676 52.225 15.4525C61.6285 23.9252 74.0319 23.7848 82.5652 23.6883C83.4241 23.6785 84.2442 23.6693 85.0178 23.6693C90.8187 23.6693 100.416 20.8923 109.125 16.7693C113.465 14.7146 117.543 12.3449 120.781 9.85652C124.043 7.35037 126.355 4.79737 127.307 2.40765L128.037 0.810547L128.767 2.40765C129.72 4.79723 132.037 7.35031 135.305 9.8566C138.55 12.3451 142.635 14.7148 146.984 16.7696C155.71 20.8927 165.326 23.6698 171.139 23.6698C171.914 23.6698 172.735 23.6791 173.596 23.6888C182.146 23.7854 194.574 23.9258 203.997 15.4525C209.307 10.6767 217.064 10.3253 222.98 13.3678C228.691 16.3047 232.754 22.4378 231.393 30.8536C255.074 29.0588 263.745 57.4752 249.263 69.662C263.745 81.8485 255.074 110.264 231.393 108.469C232.754 116.884 228.691 123.017 222.98 125.954C217.064 128.996 209.307 128.645 203.997 123.869C194.574 115.397 182.146 115.537 173.596 115.633C172.735 115.643 171.914 115.652 171.139 115.652C165.326 115.652 155.71 118.43 146.984 122.552C142.635 124.607 138.55 126.977 135.305 129.465C132.037 131.971 129.72 134.524 128.766 136.914L128.038 138.839Z" fill="#C2F0F5"/>
<path fill-rule="evenodd" clip-rule="evenodd" d="M128.043 130.63L127.342 128.933C126.429 126.828 124.211 124.578 121.082 122.37C117.976 120.178 114.065 118.09 109.902 116.28C101.548 112.647 92.3431 110.201 86.7789 110.201C86.0372 110.201 85.2512 110.193 84.4276 110.184C76.2427 110.099 64.3444 109.975 55.3248 117.44C50.24 121.648 42.8132 121.958 37.1483 119.277C31.68 116.689 27.791 111.285 29.0938 103.872C6.41874 105.452 -1.87347 80.4147 11.987 69.68C-1.87339 58.9449 6.41863 33.9064 29.0938 35.487C27.791 28.073 31.68 22.6692 37.1483 20.0812C42.8132 17.4001 50.24 17.7098 55.3248 21.9182C64.3444 29.3832 76.2415 29.2595 84.4265 29.1744C85.2504 29.1659 86.037 29.1577 86.7789 29.1577C92.3431 29.1577 101.548 26.711 109.902 23.0783C114.065 21.268 117.976 19.1801 121.082 16.9877C124.211 14.7796 126.429 12.5302 127.342 10.4247L128.043 9.01758L128.742 10.4247C129.656 12.5301 131.879 14.7796 135.013 16.9878C138.126 19.1803 142.045 21.2682 146.216 23.0786C154.586 26.7113 163.809 29.1582 169.385 29.1582C170.128 29.1582 170.916 29.1664 171.742 29.1749C179.942 29.26 191.864 29.3837 200.901 21.9182C205.995 17.7103 213.435 17.4007 219.11 20.0814C224.588 22.669 228.485 28.0727 227.18 35.4876C249.894 33.9063 258.21 58.943 244.32 69.6805C258.21 80.4176 249.894 105.453 227.18 103.872C228.485 111.287 224.588 116.69 219.11 119.278C213.435 121.958 205.995 121.649 200.901 117.441C191.864 109.976 179.942 110.099 171.742 110.185C170.916 110.193 170.128 110.201 169.385 110.201C163.809 110.201 154.586 112.648 146.216 116.281C142.045 118.091 138.126 120.179 135.013 122.371C131.879 124.579 129.656 126.829 128.742 128.934L128.043 130.63Z" stroke="white"/>
</svg>
