<svg width="201" height="62" viewBox="0 0 201 62" fill="none" xmlns="http://www.w3.org/2000/svg">
<path d="M194.353 25.1172H198.542V45.8165H194.353V25.1172ZM199.165 51.1817C199.165 51.9432 198.899 52.5547 198.368 53.0162C197.838 53.5008 197.192 53.7431 196.43 53.7431C195.669 53.7431 195.022 53.5008 194.492 53.0162C193.961 52.5547 193.696 51.9432 193.696 51.1817C193.696 50.4202 193.961 49.8086 194.492 49.3471C195.022 48.8625 195.669 48.6202 196.43 48.6202C197.192 48.6202 197.838 48.8625 198.368 49.3471C198.899 49.8086 199.165 50.4202 199.165 51.1817Z" fill="white"/>
<path d="M189.413 40.8687V52.6375C189.413 55.0144 188.767 56.7797 187.474 57.9335C186.228 59.1565 184.29 59.7681 181.659 59.7681H169.96V56.1682H181.763C184.094 56.1682 185.259 55.1413 185.259 53.0875V51.703C184.498 52.3491 183.252 52.6721 181.521 52.6721H176.017C173.571 52.6721 171.633 51.9568 170.202 50.5261C168.794 49.1184 168.091 47.1339 168.091 44.5724V40.8687C168.091 38.2842 168.794 36.2881 170.202 34.8805C171.633 33.4497 173.571 32.7344 176.017 32.7344H181.452C183.898 32.7344 185.836 33.4497 187.267 34.8805C188.698 36.3112 189.413 38.3073 189.413 40.8687ZM185.259 44.3647V41.111C185.259 39.6111 184.982 38.4803 184.428 37.7188C183.713 36.7958 182.629 36.3343 181.175 36.3343H176.294C174.84 36.3343 173.767 36.7958 173.075 37.7188C172.521 38.4803 172.244 39.6111 172.244 41.111V44.3647C172.244 45.8416 172.521 46.9608 173.075 47.7223C173.767 48.6223 174.84 49.0723 176.294 49.0723H181.175C182.629 49.0723 183.713 48.6223 184.428 47.7223C184.982 46.9608 185.259 45.8416 185.259 44.3647Z" fill="white"/>
<path d="M151.991 32.7344H156.076C158.66 32.7344 160.691 33.4843 162.168 34.9843C163.645 36.4842 164.383 38.5726 164.383 41.2495V52.6722H160.23V41.4572C160.23 39.7957 159.907 38.5842 159.26 37.8227C158.453 36.8304 157.287 36.3343 155.764 36.3343H152.234C150.757 36.3343 149.603 36.8304 148.772 37.8227C148.172 38.5842 147.872 39.7957 147.872 41.4572V52.6722H143.719V41.2495C143.719 38.5726 144.457 36.4842 145.934 34.9843C147.411 33.4843 149.43 32.7344 151.991 32.7344Z" fill="white"/>
<path d="M135.411 52.6722V32.7344H139.634V52.6722H135.411Z" fill="white"/>
<path fill-rule="evenodd" clip-rule="evenodd" d="M135.411 54.4011C134.455 54.4011 133.68 53.6263 133.68 52.6704V32.7327C133.68 31.7768 134.455 31.002 135.411 31.002H139.634C140.59 31.002 141.365 31.7768 141.365 32.7327V52.6704C141.365 53.6263 140.59 54.4011 139.634 54.4011H135.411ZM135.411 52.6704H139.634V32.7327H135.411V52.6704Z" fill="#76CAFF"/>
<path d="M118.966 32.7344H123.05C125.635 32.7344 127.666 33.4843 129.143 34.9843C130.619 36.4842 131.358 38.5726 131.358 41.2495V52.6722H127.204V41.4572C127.204 39.7957 126.881 38.5842 126.235 37.8227C125.427 36.8304 124.262 36.3343 122.739 36.3343H119.208C117.731 36.3343 116.578 36.8304 115.747 37.8227C115.147 38.5842 114.847 39.7957 114.847 41.4572V52.6722H110.693V41.2495C110.693 38.5726 111.432 36.4842 112.908 34.9843C114.385 33.4843 116.405 32.7344 118.966 32.7344Z" fill="white"/>
<path d="M92.8774 38.9649C92.8774 37.0035 93.512 35.4574 94.7812 34.3266C95.935 33.2651 97.7464 32.7344 100.216 32.7344H107.9V36.3343H100.492C98.208 36.3343 97.0657 37.3842 97.0657 39.4841V52.6722H92.8774V38.9649Z" fill="white"/>
<path d="M80.9966 49.0723C82.4734 49.0723 83.558 48.6223 84.2503 47.7223C84.8272 46.9608 85.1157 45.8416 85.1157 44.3647V41.111C85.1157 39.6111 84.8272 38.4803 84.2503 37.7188C83.558 36.7958 82.4734 36.3343 80.9966 36.3343H75.4583C74.0045 36.3343 72.9315 36.7958 72.2392 37.7188C71.6853 38.4803 71.4084 39.6111 71.4084 41.111V44.3647C71.4084 45.8416 71.6853 46.9608 72.2392 47.7223C72.9315 48.6223 74.0045 49.0723 75.4583 49.0723H80.9966ZM81.3081 52.6722H75.1814C72.7122 52.6491 70.7738 51.9337 69.3662 50.5261C67.9585 49.1415 67.2547 47.157 67.2547 44.5724V40.8687C67.2547 38.2611 67.9585 36.265 69.3662 34.8805C70.7738 33.4728 72.7122 32.7575 75.1814 32.7344H81.3081C83.8003 32.7575 85.7502 33.4728 87.1579 34.8805C88.5655 36.265 89.2694 38.2611 89.2694 40.8687V44.5724C89.2694 47.157 88.5655 49.1415 87.1579 50.5261C85.7502 51.9337 83.8003 52.6491 81.3081 52.6722Z" fill="white"/>
<path d="M48.1132 52.0485C47.1209 52.0485 46.3017 51.4947 45.6556 50.3871L36.9674 35.053V52.6716H32.8137V28.7878C32.8368 26.9879 33.5867 26.0879 35.0636 26.0879C36.0097 26.0879 36.8059 26.6417 37.452 27.7494L48.1132 46.7526L58.8089 27.7494C59.4551 26.6417 60.2281 26.0879 61.1281 26.0879C62.628 26.0879 63.4011 26.9879 63.4473 28.7878V52.6716H59.2936V35.053L50.5708 50.3871C49.9246 51.4947 49.1054 52.0485 48.1132 52.0485Z" fill="white"/>
<path d="M99.2959 20.1337V12.1032H90.3308C88.877 12.1032 87.804 12.5647 87.1117 13.4878C86.5579 14.2493 86.281 15.38 86.281 16.88V20.1337C86.281 21.6106 86.5579 22.7298 87.1117 23.4913C87.804 24.3913 88.877 24.8412 90.3308 24.8412H95.2114C96.6652 24.8412 97.7498 24.3913 98.4652 23.4913C99.019 22.7298 99.2959 21.6106 99.2959 20.1337ZM103.45 20.3414C103.45 22.9259 102.734 24.9105 101.304 26.295C99.8959 27.7027 97.9575 28.418 95.4883 28.4411H90.0539C87.5848 28.418 85.6464 27.7027 84.2387 26.295C82.8311 24.9105 82.1273 22.9259 82.1273 20.3414V16.6723C82.1273 14.0647 82.8311 12.0686 84.2387 10.684C85.6464 9.2764 87.5848 8.5495 90.0539 8.50335H99.2959V1.85742H103.45V20.3414Z" fill="white"/>
<path d="M70.281 24.8399C71.7579 24.8399 72.8425 24.3899 73.5348 23.4899C74.1117 22.7284 74.4001 21.6092 74.4001 20.1323V16.8786C74.4001 15.3786 74.1117 14.2479 73.5348 13.4864C72.8425 12.5634 71.7579 12.1018 70.281 12.1018H64.7428C63.289 12.1018 62.2159 12.5634 61.5237 13.4864C60.9698 14.2479 60.6929 15.3786 60.6929 16.8786V20.1323C60.6929 21.6092 60.9698 22.7284 61.5237 23.4899C62.2159 24.3899 63.289 24.8399 64.7428 24.8399H70.281ZM70.5926 28.4397H64.4659C61.9967 28.4167 60.0583 27.7013 58.6507 26.2936C57.243 24.9091 56.5392 22.9245 56.5392 20.34V16.6363C56.5392 14.0287 57.243 12.0326 58.6507 10.648C60.0583 9.24039 61.9967 8.52503 64.4659 8.50195H70.5926C73.0848 8.52503 75.0347 9.24039 76.4424 10.648C77.85 12.0326 78.5538 14.0287 78.5538 16.6363V20.34C78.5538 22.9245 77.85 24.9091 76.4424 26.2936C75.0347 27.7013 73.0848 28.4167 70.5926 28.4397Z" fill="white"/>
<path d="M44.6584 24.8399C46.1353 24.8399 47.2198 24.3899 47.9121 23.4899C48.489 22.7284 48.7775 21.6092 48.7775 20.1323V16.8786C48.7775 15.3786 48.489 14.2479 47.9121 13.4864C47.2198 12.5634 46.1353 12.1018 44.6584 12.1018H39.1201C37.6663 12.1018 36.5933 12.5634 35.901 13.4864C35.3472 14.2479 35.0703 15.3786 35.0703 16.8786V20.1323C35.0703 21.6092 35.3472 22.7284 35.901 23.4899C36.5933 24.3899 37.6663 24.8399 39.1201 24.8399H44.6584ZM44.9699 28.4397H38.8432C36.3741 28.4167 34.4357 27.7013 33.028 26.2936C31.6204 24.9091 30.9166 22.9245 30.9166 20.34V16.6363C30.9166 14.0287 31.6204 12.0326 33.028 10.648C34.4357 9.24039 36.3741 8.52503 38.8432 8.50195H44.9699C47.4621 8.52503 49.4121 9.24039 50.8197 10.648C52.2274 12.0326 52.9312 14.0287 52.9312 16.6363V20.34C52.9312 22.9245 52.2274 24.9091 50.8197 26.2936C49.4121 27.7013 47.4621 28.4167 44.9699 28.4397Z" fill="white"/>
<path d="M12.8372 28.4422C9.60651 28.4422 7.13736 27.5653 5.42973 25.8115C3.56056 23.8962 2.62598 21.4848 2.62598 18.5772V11.862C2.62598 8.90826 3.56056 6.48527 5.42973 4.59303C7.13736 2.81616 9.60651 1.92773 12.8372 1.92773H25.3329V5.52761H13.0102C11.0488 5.52761 9.47959 6.17374 8.3027 7.466C7.28736 8.64289 6.79122 10.1659 6.81429 12.0351V18.3695C6.79122 20.2156 7.28736 21.7271 8.3027 22.9039C9.47959 24.1962 11.0372 24.8423 12.9756 24.8423H19.2408C21.8484 24.8423 23.1522 23.8731 23.1522 21.9347V19.1656H17.9601V15.4965H27.3405V22.1078C27.3405 24.0001 26.6482 25.5462 25.2637 26.7461C23.9714 27.8768 22.0215 28.4422 19.4139 28.4422H12.8372Z" fill="white"/>
<path fill-rule="evenodd" clip-rule="evenodd" d="M194.353 25.1155V45.8148H198.541V25.1155H194.353ZM198.368 53.0145C198.899 52.553 199.165 51.9415 199.165 51.18C199.165 50.4184 198.899 49.8069 198.368 49.3454C197.838 48.8608 197.192 48.6185 196.43 48.6185C195.669 48.6185 195.022 48.8608 194.492 49.3454C193.961 49.8069 193.695 50.4184 193.695 51.18C193.695 51.9415 193.961 52.553 194.492 53.0145C195.022 53.4991 195.669 53.7414 196.43 53.7414C197.192 53.7414 197.838 53.4991 198.368 53.0145ZM199.52 54.3065C198.653 55.0914 197.588 55.4721 196.43 55.4721C195.272 55.4721 194.207 55.0913 193.34 54.3065C192.408 53.4882 191.965 52.3887 191.965 51.18C191.965 49.9711 192.408 48.8716 193.34 48.0533C193.567 47.8482 193.807 47.6708 194.058 47.5205C193.243 47.3805 192.622 46.6701 192.622 45.8148V25.1155C192.622 24.1596 193.397 23.3848 194.353 23.3848H198.541C199.497 23.3848 200.272 24.1596 200.272 25.1155V45.8148C200.272 46.6796 199.638 47.3963 198.809 47.5249C199.058 47.6743 199.296 47.8503 199.52 48.0533C200.452 48.8716 200.895 49.9711 200.895 51.18C200.895 52.3887 200.452 53.4882 199.52 54.3065Z" fill="#76CAFF"/>
<path fill-rule="evenodd" clip-rule="evenodd" d="M187.475 57.9318C188.767 56.778 189.413 55.0127 189.413 52.6358V40.867C189.413 38.3055 188.698 36.3095 187.267 34.8787C185.836 33.448 183.898 32.7327 181.452 32.7327H176.017C173.571 32.7327 171.633 33.448 170.202 34.8787C168.794 36.2864 168.091 38.2825 168.091 40.867V44.5707C168.091 47.1322 168.794 49.1167 170.202 50.5244C171.633 51.9551 173.571 52.6704 176.017 52.6704H181.521C182.284 52.6704 182.954 52.6076 183.528 52.4818C184.257 52.3225 184.834 52.0623 185.259 51.7012V53.0858C185.259 53.3196 185.244 53.5402 185.214 53.7474C184.979 55.3601 183.828 56.1665 181.763 56.1665H169.96V59.7663H181.659C184.29 59.7663 186.228 59.1548 187.475 57.9318ZM188.658 59.1955C186.957 60.8444 184.501 61.4971 181.659 61.4971H169.96C169.004 61.4971 168.229 60.7222 168.229 59.7663V56.1665C168.229 55.2106 169.004 54.4358 169.96 54.4358H181.763C182.129 54.4358 182.412 54.404 182.629 54.3577C182.266 54.3877 181.896 54.4011 181.521 54.4011H176.017C173.215 54.4011 170.799 53.5693 168.978 51.7482C167.16 49.9301 166.36 47.4535 166.36 44.5707V40.867C166.36 37.9662 167.157 35.4758 168.978 33.6549C170.799 31.8338 173.215 31.002 176.017 31.002H181.452C184.254 31.002 186.669 31.8338 188.491 33.6549C190.327 35.491 191.144 37.9749 191.144 40.867V52.6358C191.144 55.2994 190.417 57.6055 188.658 59.1955ZM185.259 41.1093V44.363C185.259 45.8399 184.982 46.9591 184.428 47.7206C183.713 48.6206 182.629 49.0706 181.175 49.0706H176.294C174.84 49.0706 173.767 48.6206 173.075 47.7206C172.521 46.9591 172.244 45.8399 172.244 44.363V41.1093C172.244 39.6093 172.521 38.4786 173.075 37.7171C173.767 36.7941 174.84 36.3325 176.294 36.3325H181.175C182.629 36.3325 183.713 36.7941 184.428 37.7171C184.982 38.4786 185.259 39.6093 185.259 41.1093ZM183.043 38.7557C183.284 39.1002 183.528 39.8013 183.528 41.1093V44.363C183.528 45.6311 183.29 46.323 183.05 46.6733C182.744 47.0405 182.225 47.3399 181.175 47.3399H176.294C175.232 47.3399 174.74 47.0347 174.461 46.6841C174.218 46.3373 173.975 45.6443 173.975 44.363V41.1093C173.975 39.7876 174.225 39.0856 174.468 38.745C174.75 38.3741 175.238 38.0632 176.294 38.0632H181.175C182.219 38.0632 182.734 38.3684 183.043 38.7557Z" fill="#76CAFF"/>
<path fill-rule="evenodd" clip-rule="evenodd" d="M156.076 32.7327H151.991C149.43 32.7327 147.411 33.4826 145.934 34.9826C144.457 36.4825 143.719 38.5709 143.719 41.2478V52.6704H147.872V41.4554C147.872 39.794 148.172 38.5825 148.772 37.8209C149.603 36.8287 150.757 36.3325 152.234 36.3325H155.764C157.287 36.3325 158.453 36.8287 159.26 37.8209C159.907 38.5825 160.23 39.794 160.23 41.4554V52.6704H164.383V41.2478C164.383 38.5709 163.645 36.4825 162.168 34.9826C160.691 33.4826 158.66 32.7327 156.076 32.7327ZM150.118 38.9098C150.57 38.3817 151.202 38.0632 152.234 38.0632H155.764C156.877 38.0632 157.503 38.4033 157.918 38.9135C157.926 38.9226 157.933 38.9317 157.941 38.9407C158.195 39.2399 158.499 39.9524 158.499 41.4554V52.6704C158.499 53.6263 159.274 54.4011 160.23 54.4011H164.383C165.339 54.4011 166.114 53.6263 166.114 52.6704V41.2478C166.114 38.2459 165.277 35.6738 163.401 33.7683C161.528 31.8656 159.012 31.002 156.076 31.002H151.991C149.074 31.002 146.571 31.8686 144.701 33.7683C142.825 35.6738 141.988 38.2459 141.988 41.2478V52.6704C141.988 53.6263 142.763 54.4011 143.719 54.4011H147.872C148.828 54.4011 149.603 53.6263 149.603 52.6704V41.4554C149.603 39.9606 149.881 39.2251 150.118 38.9098Z" fill="#76CAFF"/>
<path fill-rule="evenodd" clip-rule="evenodd" d="M123.05 32.7327H118.966C116.405 32.7327 114.385 33.4826 112.909 34.9826C111.432 36.4825 110.693 38.5709 110.693 41.2478V52.6704H114.847V41.4554C114.847 39.794 115.147 38.5825 115.747 37.8209C116.578 36.8287 117.731 36.3325 119.208 36.3325H122.739C124.262 36.3325 125.427 36.8287 126.235 37.8209C126.881 38.5825 127.204 39.794 127.204 41.4554V52.6704H131.358V41.2478C131.358 38.5709 130.619 36.4825 129.143 34.9826C127.666 33.4826 125.635 32.7327 123.05 32.7327ZM117.093 38.9098C117.545 38.3817 118.177 38.0632 119.208 38.0632H122.739C123.851 38.0632 124.477 38.4033 124.893 38.9135C124.9 38.9226 124.908 38.9317 124.915 38.9407C125.169 39.2399 125.473 39.9524 125.473 41.4554V52.6704C125.473 53.6263 126.248 54.4011 127.204 54.4011H131.358C132.314 54.4011 133.089 53.6263 133.089 52.6704V41.2478C133.089 38.2459 132.252 35.6738 130.376 33.7683C128.502 31.8656 125.986 31.002 123.05 31.002H118.966C116.048 31.002 113.546 31.8686 111.675 33.7683C109.799 35.6738 108.962 38.2459 108.962 41.2478V52.6704C108.962 53.6263 109.737 54.4011 110.693 54.4011H114.847C115.803 54.4011 116.578 53.6263 116.578 52.6704V41.4554C116.578 39.9606 116.855 39.2251 117.093 38.9098Z" fill="#76CAFF"/>
<path fill-rule="evenodd" clip-rule="evenodd" d="M100.216 32.7327C97.7464 32.7327 95.9349 33.2634 94.7811 34.3249C93.5119 35.4556 92.8773 37.0017 92.8773 38.9632V52.6704H97.0657V39.4824C97.0657 37.3825 98.2079 36.3325 100.492 36.3325H107.9V32.7327H100.216ZM107.9 31.002C108.856 31.002 109.631 31.7768 109.631 32.7327V36.3325C109.631 37.2884 108.856 38.0632 107.9 38.0632H100.492C99.5825 38.0632 99.2228 38.2754 99.0936 38.3942C98.992 38.4876 98.7964 38.7385 98.7964 39.4824V52.6704C98.7964 53.6263 98.0215 54.4011 97.0657 54.4011H92.8773C91.9215 54.4011 91.1466 53.6263 91.1466 52.6704V38.9632C91.1466 36.5966 91.9306 34.5518 93.6199 33.0416C95.2332 31.5641 97.5569 31.002 100.216 31.002H107.9Z" fill="#76CAFF"/>
<path fill-rule="evenodd" clip-rule="evenodd" d="M84.2503 47.7206C83.558 48.6206 82.4734 49.0706 80.9966 49.0706H75.4583C74.0045 49.0706 72.9315 48.6206 72.2392 47.7206C71.6853 46.9591 71.4084 45.8399 71.4084 44.363V41.1093C71.4084 39.6093 71.6853 38.4786 72.2392 37.7171C72.9315 36.7941 74.0045 36.3325 75.4583 36.3325H80.9966C82.4734 36.3325 83.558 36.7941 84.2503 37.7171C84.8272 38.4786 85.1156 39.6093 85.1156 41.1093V44.363C85.1156 45.8399 84.8272 46.9591 84.2503 47.7206ZM73.6317 38.745C73.9145 38.3741 74.4025 38.0632 75.4583 38.0632H80.9966C82.0965 38.0632 82.5893 38.387 82.8657 38.7555L82.8708 38.7622C83.1227 39.0947 83.3849 39.7857 83.3849 41.1093V44.363C83.3849 45.6501 83.128 46.3327 82.8744 46.6707C82.603 47.0203 82.1065 47.3399 80.9966 47.3399H75.4583C74.3958 47.3399 73.904 47.0348 73.6256 46.6842C73.3824 46.3374 73.1391 45.6444 73.1391 44.363V41.1093C73.1391 39.7876 73.389 39.0856 73.6317 38.745ZM75.1814 52.6704H81.3081C83.8003 52.6474 85.7502 51.932 87.1579 50.5244C88.5655 49.1398 89.2694 47.1552 89.2694 44.5707V40.867C89.2694 38.2594 88.5655 36.2633 87.1579 34.8787C85.7502 33.4711 83.8003 32.7557 81.3081 32.7327H75.1814C72.7122 32.7557 70.7738 33.4711 69.3662 34.8787C67.9585 36.2633 67.2547 38.2594 67.2547 40.867V44.5707C67.2547 47.1552 67.9585 49.1398 69.3662 50.5244C70.7738 51.932 72.7122 52.6474 75.1814 52.6704ZM68.1475 51.7533C66.3195 49.9521 65.524 47.4671 65.524 44.5707V40.867C65.524 37.9527 66.3167 35.4538 68.1475 33.6498C69.9483 31.852 72.3604 31.0282 75.1652 31.002L75.1814 31.002H81.3081L81.3241 31.002C84.1468 31.0282 86.5728 31.8491 88.3766 33.6498C90.2074 35.4538 91.0001 37.9527 91.0001 40.867V44.5707C91.0001 47.4671 90.2046 49.9521 88.3766 51.7533C86.5728 53.554 84.1468 54.3749 81.3241 54.4011L81.3081 54.4011H75.1814L75.1652 54.4011C72.3604 54.3749 69.9483 53.5511 68.1475 51.7533Z" fill="#76CAFF"/>
<path fill-rule="evenodd" clip-rule="evenodd" d="M32.2833 25.4102C32.2077 25.4856 32.1345 25.5655 32.0639 25.6503C31.3297 26.5314 31.0972 27.6664 31.0831 28.761L31.083 28.7832V52.667C31.083 53.6228 31.8578 54.3977 32.8137 54.3977H36.9674C37.9232 54.3977 38.6981 53.6228 38.6981 52.667V41.6138L44.1498 51.2356L44.1606 51.2545C45.0127 52.7153 46.3233 53.7746 48.1132 53.7746C49.903 53.7746 51.2136 52.7153 52.0657 51.2545L52.0751 51.2382L57.5628 41.5911V52.667C57.5628 53.6228 58.3377 54.3977 59.2936 54.3977H63.4473C64.4031 54.3977 65.178 53.6228 65.178 52.667V28.7832C65.178 28.7684 65.1778 28.7536 65.1774 28.7388C65.1748 28.6384 65.1704 28.5378 65.1639 28.4371H64.4659C64.1073 28.4337 63.7599 28.4157 63.4236 28.3832C63.4358 28.5112 63.4437 28.6445 63.4473 28.7832V52.667H59.2936V35.0484L50.5708 50.3825C49.9246 51.4901 49.1054 52.0439 48.1132 52.0439C47.1209 52.0439 46.3017 51.4901 45.6556 50.3825L36.9674 35.0484V52.667H32.8137V28.7832C32.8259 27.8332 33.0406 27.1339 33.4577 26.6853C33.3094 26.5605 33.1662 26.4291 33.0281 26.291C32.7529 26.0203 32.5047 25.7267 32.2833 25.4102ZM59.3925 26.9324C59.1308 26.7375 58.8835 26.5237 58.6507 26.291C58.4714 26.1146 58.3036 25.9285 58.1471 25.7327C57.8302 26.0753 57.5531 26.4627 57.314 26.8727L57.3007 26.8959L48.1156 43.2151L39.8248 28.4371H38.8433C38.4881 28.4337 38.1439 28.4161 37.8107 28.3841L48.1132 46.748L58.8089 27.7448C58.9932 27.429 59.1877 27.1582 59.3925 26.9324Z" fill="#76CAFF"/>
<path fill-rule="evenodd" clip-rule="evenodd" d="M95.5045 30.17L95.4884 30.1701H90.0539L90.0378 30.17C87.233 30.1438 84.8209 29.32 83.0201 27.5222C81.192 25.721 80.3966 23.2361 80.3966 20.3397V16.6706C80.3966 13.7563 81.1892 11.2574 83.0201 9.45339C84.8159 7.66061 87.2208 6.82358 90.0216 6.77123C90.0324 6.77103 90.0431 6.77093 90.0539 6.77093H97.5652V1.85571C97.5652 0.899865 98.3401 0.125 99.2959 0.125H103.45C104.405 0.125 105.18 0.899865 105.18 1.85571V20.3397C105.18 23.2413 104.37 25.7279 102.517 27.5272C100.717 29.3216 98.3068 30.1439 95.5045 30.17ZM101.304 26.2933C102.734 24.9088 103.45 22.9242 103.45 20.3397V1.85571H99.2959V8.50164H90.0539C87.5848 8.54779 85.6464 9.27469 84.2388 10.6823C82.8311 12.0669 82.1273 14.063 82.1273 16.6706V20.3397C82.1273 22.9242 82.8311 24.9088 84.2388 26.2933C85.6464 27.701 87.5848 28.4163 90.0539 28.4394H95.4884C97.9575 28.4163 99.8959 27.701 101.304 26.2933ZM90.3309 12.1015C88.8771 12.1015 87.804 12.563 87.1117 13.4861C86.5579 14.2476 86.281 15.3783 86.281 16.8783V20.132C86.281 21.6089 86.5579 22.7281 87.1117 23.4896C87.804 24.3896 88.8771 24.8395 90.3309 24.8395H95.2115C96.6652 24.8395 97.7498 24.3896 98.4652 23.4896C99.019 22.7281 99.2959 21.6089 99.2959 20.132V12.1015H90.3309ZM97.0862 22.4423C96.7804 22.8095 96.262 23.1088 95.2115 23.1088H90.3309C89.2683 23.1088 88.7766 22.8037 88.4982 22.4531C88.255 22.1063 88.0117 21.4134 88.0117 20.132V16.8783C88.0117 15.5566 88.2615 14.8546 88.5042 14.514C88.7871 14.1431 89.2751 13.8322 90.3309 13.8322H97.5652V20.132C97.5652 21.4002 97.3269 22.092 97.0862 22.4423Z" fill="#76CAFF"/>
<path fill-rule="evenodd" clip-rule="evenodd" d="M63.4472 30.1236C63.7753 30.1506 64.1096 30.1655 64.4497 30.1686L64.4659 30.1687H70.5926L70.6086 30.1686C73.4313 30.1425 75.8572 29.3216 77.6611 27.5208C79.4891 25.7197 80.2845 23.2347 80.2845 20.3383V16.6346C80.2845 13.7203 79.4919 11.2214 77.6611 9.41741C75.8572 7.61663 73.4313 6.79574 70.6086 6.76961L70.5926 6.76953H64.4659L64.4497 6.76961C61.6449 6.79582 59.2328 7.6196 57.432 9.41738C55.6012 11.2214 54.8085 13.7203 54.8085 16.6346V20.3383C54.8085 23.2347 55.604 25.7197 57.432 27.5208C57.7517 27.84 58.0907 28.1285 58.4478 28.3873L58.8089 27.7457C58.9931 27.4299 59.1876 27.1592 59.3925 26.9334C59.1307 26.7385 58.8834 26.5247 58.6507 26.2919C57.243 24.9074 56.5392 22.9228 56.5392 20.3383V16.6346C56.5392 14.027 57.243 12.0309 58.6507 10.6463C60.0583 9.23868 61.9967 8.52332 64.4659 8.50024H70.5926C73.0848 8.52332 75.0347 9.23868 76.4424 10.6463C77.85 12.0309 78.5538 14.027 78.5538 16.6346V20.3383C78.5538 22.9228 77.85 24.9074 76.4424 26.2919C75.0347 27.6996 73.0848 28.4149 70.5926 28.438H64.4659C64.1072 28.4347 63.7598 28.4167 63.4236 28.3841C63.4357 28.5121 63.4436 28.6455 63.4472 28.7842V30.1236ZM73.5348 23.4882C72.8425 24.3882 71.7579 24.8381 70.281 24.8381H64.7428C63.289 24.8381 62.2159 24.3882 61.5237 23.4882C60.9698 22.7267 60.6929 21.6075 60.6929 20.1306V16.8769C60.6929 15.3769 60.9698 14.2462 61.5237 13.4847C62.2159 12.5616 63.289 12.1001 64.7428 12.1001H70.281C71.7579 12.1001 72.8425 12.5616 73.5348 13.4847C74.1117 14.2462 74.4001 15.3769 74.4001 16.8769V20.1306C74.4001 21.6075 74.1117 22.7267 73.5348 23.4882ZM62.9162 14.5126C63.199 14.1417 63.687 13.8308 64.7428 13.8308H70.281C71.381 13.8308 71.8738 14.1546 72.1502 14.5231L72.1552 14.5298C72.4071 14.8623 72.6694 15.5533 72.6694 16.8769V20.1306C72.6694 21.4176 72.4124 22.1003 72.1589 22.4382C71.8875 22.7879 71.391 23.1074 70.281 23.1074H64.7428C63.6803 23.1074 63.1885 22.8023 62.9101 22.4517C62.6669 22.1049 62.4236 21.412 62.4236 20.1306V16.8769C62.4236 15.5552 62.6735 14.8532 62.9162 14.5126Z" fill="#76CAFF"/>
<path fill-rule="evenodd" clip-rule="evenodd" d="M47.9121 23.4882C47.2198 24.3882 46.1353 24.8381 44.6584 24.8381H39.1201C37.6663 24.8381 36.5933 24.3882 35.901 23.4882C35.3472 22.7267 35.0703 21.6075 35.0703 20.1306V16.8769C35.0703 15.3769 35.3472 14.2462 35.901 13.4847C36.5933 12.5616 37.6663 12.1001 39.1201 12.1001H44.6584C46.1353 12.1001 47.2198 12.5616 47.9121 13.4847C48.489 14.2462 48.7775 15.3769 48.7775 16.8769V20.1306C48.7775 21.6075 48.489 22.7267 47.9121 23.4882ZM37.2936 14.5125C37.5764 14.1417 38.0644 13.8308 39.1201 13.8308H44.6584C45.7583 13.8308 46.2512 14.1546 46.5275 14.5231L46.5326 14.5298C46.7845 14.8623 47.0468 15.5533 47.0468 16.8769V20.1306C47.0468 21.4175 46.7898 22.1001 46.5363 22.4381C46.2649 22.7878 45.7685 23.1074 44.6584 23.1074H39.1201C38.0576 23.1074 37.5659 22.8023 37.2875 22.4517C37.0442 22.1049 36.801 21.412 36.801 20.1306V16.8769C36.801 15.5552 37.0508 14.8531 37.2936 14.5125ZM38.8432 28.438H44.9699C47.4621 28.4149 49.4121 27.6996 50.8197 26.2919C52.2274 24.9074 52.9312 22.9228 52.9312 20.3383V16.6346C52.9312 14.027 52.2274 12.0309 50.8197 10.6463C49.4121 9.23868 47.4621 8.52332 44.9699 8.50024H38.8432C36.3741 8.52332 34.4357 9.23868 33.028 10.6463C31.6204 12.0309 30.9166 14.027 30.9166 16.6346V20.3383C30.9166 22.9228 31.6204 24.9074 33.028 26.2919C33.1661 26.43 33.3093 26.5615 33.4576 26.6862C33.1001 27.0706 32.8913 27.6391 32.8312 28.3917C32.4719 28.1318 32.1307 27.8417 31.8091 27.5206C29.9812 25.7194 29.1859 23.2345 29.1859 20.3383V16.6346C29.1859 13.7204 29.9784 11.2216 31.8091 9.41763C33.61 7.61968 36.0221 6.79582 38.827 6.76961L38.8432 6.76953H44.9699L44.9859 6.76961C47.8087 6.79574 50.2346 7.61663 52.0384 9.41741C53.8692 11.2214 54.6619 13.7203 54.6619 16.6346V20.3383C54.6619 23.2345 53.8665 25.7194 52.0387 27.5206C50.2348 29.3215 47.8088 30.1425 44.9859 30.1686L44.9699 30.1687H38.8432L38.827 30.1686C38.8217 30.1686 38.8164 30.1685 38.8111 30.1685L37.8106 28.3851C38.1438 28.417 38.488 28.4347 38.8432 28.438Z" fill="#76CAFF"/>
<path fill-rule="evenodd" clip-rule="evenodd" d="M25.3329 0.195312C26.2887 0.195312 27.0636 0.970178 27.0636 1.92602V5.5259C27.0636 6.48174 26.2887 7.25661 25.3329 7.25661H13.0102C11.4799 7.25661 10.4033 7.73724 9.5981 8.61236C8.92141 9.40574 8.52604 10.4866 8.54487 12.012L8.545 12.0334V18.3678L8.54487 18.3894C8.52616 19.8857 8.91814 20.9571 9.59809 21.7542C10.4073 22.6338 11.475 23.1099 12.9756 23.1099H19.2408C20.3806 23.1099 20.9206 22.8892 21.1418 22.7247C21.2668 22.6318 21.4215 22.4741 21.4215 21.933V20.8946H17.9601C17.0042 20.8946 16.2294 20.1197 16.2294 19.1639V15.4948C16.2294 14.5389 17.0042 13.7641 17.9601 13.7641H27.3405C28.2964 13.7641 29.0712 14.5389 29.0712 15.4948V22.1061C29.0712 24.4801 28.176 26.5092 26.4002 28.0497C24.6642 29.5668 22.2293 30.1712 19.4139 30.1712H12.8372C9.29576 30.1712 6.31894 29.2031 4.19109 27.0186M25.2637 26.7444C26.6482 25.5444 27.3405 23.9983 27.3405 22.1061V15.4948H17.9601V19.1639H23.1522V21.933C23.1522 23.8714 21.8484 24.8406 19.2408 24.8406H12.9756C11.0372 24.8406 9.47958 24.1945 8.3027 22.9022C7.28735 21.7253 6.79121 20.2139 6.81429 18.3678V12.0334C6.79121 10.1642 7.28735 8.64118 8.3027 7.46429C9.47958 6.17203 11.0488 5.5259 13.0102 5.5259H25.3329V1.92602H12.8372C9.6065 1.92602 7.13736 2.81445 5.42972 4.59131C3.56056 6.48356 2.62597 8.90655 2.62597 11.8603V18.5754C2.62597 21.483 3.56056 23.8945 5.42972 25.8098C7.13736 27.5636 9.6065 28.4405 12.8372 28.4405H19.4139C22.0215 28.4405 23.9714 27.8751 25.2637 26.7444ZM4.19041 27.0179C1.97748 24.75 0.895264 21.8915 0.895264 18.5754V11.8603C0.895264 8.5104 1.96992 5.63551 4.19019 3.38341C6.31634 1.17658 9.29333 0.195312 12.8372 0.195312H25.3329" fill="#76CAFF"/>
<path fill-rule="evenodd" clip-rule="evenodd" d="M141.775 25.3932C141.775 27.7828 139.838 29.72 137.448 29.72C135.059 29.72 133.121 27.7828 133.121 25.3932C133.121 23.0036 135.059 21.0664 137.448 21.0664C139.838 21.0664 141.775 23.0036 141.775 25.3932ZM137.448 27.9892C138.882 27.9892 140.044 26.8269 140.044 25.3932C140.044 23.9594 138.882 22.7971 137.448 22.7971C136.014 22.7971 134.852 23.9594 134.852 25.3932C134.852 26.8269 136.014 27.9892 137.448 27.9892Z" fill="#76CAFF"/>
<path d="M140.044 25.3929C140.044 26.8267 138.882 27.989 137.448 27.989C136.015 27.989 134.852 26.8267 134.852 25.3929C134.852 23.9592 136.015 22.7969 137.448 22.7969C138.882 22.7969 140.044 23.9592 140.044 25.3929Z" fill="white"/>
</svg>
