<svg width="201" height="41" viewBox="0 0 201 41" fill="none" xmlns="http://www.w3.org/2000/svg">
<path d="M191.896 4.07422H197.634V27.6837H191.896V4.07422ZM198.328 33.4609C198.328 34.4109 197.981 35.1941 197.288 35.8103C196.62 36.4265 195.773 36.7346 194.746 36.7346C193.719 36.7346 192.859 36.4265 192.165 35.8103C191.498 35.1941 191.164 34.4109 191.164 33.4609C191.164 32.5109 191.498 31.7277 192.165 31.1115C192.859 30.4953 193.719 30.1872 194.746 30.1872C195.773 30.1872 196.62 30.4953 197.288 31.1115C197.981 31.7277 198.328 32.5109 198.328 33.4609Z" fill="white"/>
<path d="M177.211 28.5308C175.875 29.5579 173.886 30.0714 171.241 30.0714H160.495C156.259 30.0714 154.14 27.9787 154.14 23.7935V4.45913H172.05V8.81129H159.764V23.0617C159.764 24.8334 160.547 25.7192 162.113 25.7192H171.01C174.245 25.7192 176.312 24.628 177.211 22.4455V3.91992H182.872V14.9736H188.38V19.4413H182.872V37.7743H177.211V28.5308Z" fill="white"/>
<path d="M135.511 30.0714H124.843C120.375 30.0714 118.141 28.12 118.141 24.2171V4.45913H123.841V23.4083C123.841 24.9233 124.547 25.6807 125.96 25.6807H135.434C138.875 25.6807 141.07 24.5638 142.02 22.3299V3.91992H147.72V37.7743H142.02V28.5308C140.659 29.5579 138.49 30.0714 135.511 30.0714Z" fill="white"/>
<path d="M84.0064 3.30273H95.7148V7.00014H84.0064V3.30273ZM100.76 11.5834H78.9609V7.92449H100.76V11.5834ZM80.2319 18.4005C80.2319 16.5004 81.1178 15.0112 82.8894 13.9328C84.6611 12.8544 86.9848 12.3152 89.8606 12.3152C92.7107 12.3152 95.0216 12.8544 96.7932 13.9328C98.5906 15.0112 99.4893 16.5004 99.4893 18.4005C99.4893 20.2749 98.5906 21.7513 96.7932 22.8297C95.0216 23.8824 92.7107 24.4088 89.8606 24.4088C86.9848 24.4088 84.6611 23.8824 82.8894 22.8297C81.1178 21.7513 80.2319 20.2749 80.2319 18.4005ZM93.8276 18.4005C93.8276 17.6045 93.4553 16.9883 92.7107 16.5518C91.9917 16.0896 91.0417 15.8585 89.8606 15.8585C88.6795 15.8585 87.7166 16.0896 86.972 16.5518C86.253 17.014 85.8936 17.6302 85.8936 18.4005C85.8936 19.1451 86.253 19.7485 86.972 20.2107C87.7166 20.6472 88.6795 20.8654 89.8606 20.8654C91.0417 20.8654 91.9917 20.6472 92.7107 20.2107C93.4553 19.7485 93.8276 19.1451 93.8276 18.4005ZM109.58 12.6618H114.51V16.7444H109.58V23.9851H103.918V3.91897H109.58V12.6618ZM89.1288 25.3331V27.9906H103.995V25.3331H109.657V37.6963H89.2058C85.38 37.6963 83.4672 35.9888 83.4672 32.5739V25.3331H89.1288ZM89.1288 31.7266V32.0732C89.1288 33.28 89.7194 33.8834 90.9005 33.8834H103.995V31.7266H89.1288Z" fill="white"/>
<path d="M49.1906 12.6642C49.1906 13.948 49.6271 15.0392 50.5001 15.9379C51.3988 16.8366 52.5157 17.2859 53.8509 17.2859C55.1604 17.2859 56.2645 16.8366 57.1631 15.9379C58.0618 15.0392 58.5111 13.948 58.5111 12.6642C58.5111 11.3803 58.0618 10.2891 57.1631 9.39041C56.2645 8.49173 55.1604 8.0424 53.8509 8.0424C52.5157 8.0424 51.3988 8.49173 50.5001 9.39041C49.6271 10.2891 49.1906 11.3803 49.1906 12.6642ZM43.4904 12.5871C43.4904 10.0965 44.4661 8.02956 46.4175 6.38627C48.3689 4.7173 50.8467 3.88281 53.8509 3.88281C56.855 3.88281 59.3328 4.7173 61.2842 6.38627C63.2356 8.02956 64.2113 10.0965 64.2113 12.5871C64.2113 14.4102 63.6978 16.0021 62.6707 17.3629H66.6762V21.561H55.1604V27.3382H49.4987V21.561H41.6802V17.3629H45.031C44.004 16.0021 43.4904 14.4102 43.4904 12.5871ZM73.9555 3.92133V30.3809H68.2939V27.2997H59.5125V23.2172H68.2939V3.92133H73.9555ZM55.0063 33.4621H74.0326V37.6987H52.9265C48.6386 37.6987 46.4946 35.5034 46.4946 31.1127V28.3396H52.1562V30.5735C52.1562 32.4992 53.1062 33.4621 55.0063 33.4621Z" fill="white"/>
<path d="M12.6294 10.9299C12.6294 11.9826 13.3355 12.7273 14.7477 13.1638C16.1599 13.5746 18.1883 13.78 20.833 13.78C23.452 13.78 25.4933 13.5746 26.9568 13.1638C28.4204 12.7273 29.1522 11.9826 29.1522 10.9299C29.1522 9.90284 28.4204 9.15823 26.9568 8.69605C25.4933 8.2082 23.452 7.96427 20.833 7.96427C18.214 7.96427 16.1856 8.2082 14.7477 8.69605C13.3355 9.15823 12.6294 9.90284 12.6294 10.9299ZM6.81367 10.8914C6.81367 8.52915 8.0333 6.75748 10.4726 5.57636C12.9375 4.39525 16.4038 3.80469 20.8715 3.80469C25.3649 3.80469 28.8312 4.38241 31.2705 5.53785C33.7354 6.69329 34.9679 8.46496 34.9679 10.8529C34.9679 13.2921 33.7354 15.0766 31.2705 16.2064C28.8312 17.3362 25.3649 17.9011 20.8715 17.9011C16.4038 17.9011 12.9375 17.3362 10.4726 16.2064C8.0333 15.0766 6.81367 13.305 6.81367 10.8914ZM3.46289 19.2876H38.3187V23.6397H3.46289V19.2876ZM34.5827 31.7278C34.5827 34.013 33.3631 35.682 30.9238 36.7347C28.4846 37.7875 25.1595 38.3138 20.9485 38.3138C16.7376 38.3138 13.4125 37.7875 10.9733 36.7347C8.53399 35.682 7.31436 34.013 7.31436 31.7278C7.31436 29.4169 8.53399 27.7351 10.9733 26.6824C13.4125 25.604 16.7376 25.0648 20.9485 25.0648C25.1595 25.0648 28.4846 25.604 30.9238 26.6824C33.3631 27.7351 34.5827 29.4169 34.5827 31.7278ZM20.91 34.1157C23.4006 34.1157 25.3264 33.9232 26.6872 33.538C28.0481 33.1785 28.7285 32.588 28.7285 31.7663C28.7285 30.8933 28.0481 30.2643 26.6872 29.8791C25.3264 29.4683 23.4006 29.2629 20.91 29.2629C18.4708 29.2629 16.5579 29.4683 15.1713 29.8791C13.8105 30.2643 13.1301 30.8933 13.1301 31.7663C13.1301 32.588 13.8105 33.1785 15.1713 33.538C16.5579 33.9232 18.4708 34.1157 20.91 34.1157Z" fill="white"/>
<path fill-rule="evenodd" clip-rule="evenodd" d="M189.328 4.07546C189.328 2.65739 190.478 1.50781 191.896 1.50781H197.634C199.052 1.50781 200.202 2.65739 200.202 4.07546V27.6849C200.202 28.4292 199.885 29.0995 199.379 29.5685C200.382 30.6342 200.895 31.9787 200.895 33.4621C200.895 35.1173 200.256 36.5996 199.012 37.7146C197.81 38.815 196.32 39.3035 194.746 39.3035C193.163 39.3035 191.674 38.8105 190.459 37.7306C190.453 37.7249 190.447 37.7191 190.44 37.7132C190.435 37.7083 190.429 37.7033 190.424 37.6982C189.203 36.5714 188.596 35.0918 188.596 33.4621C188.596 31.9768 189.1 30.6161 190.114 29.5336C189.629 29.0666 189.328 28.411 189.328 27.6849V4.07546ZM197.634 27.6849V4.07546H191.896V27.6849H197.634ZM195.52 30.2526C195.275 30.2098 195.016 30.1884 194.746 30.1884C194.475 30.1884 194.216 30.2098 193.969 30.2526C193.277 30.3722 192.676 30.6589 192.165 31.1127C191.498 31.729 191.164 32.5121 191.164 33.4621C191.164 34.4122 191.498 35.1953 192.165 35.8115C192.859 36.4278 193.719 36.7359 194.746 36.7359C195.773 36.7359 196.62 36.4278 197.288 35.8115C197.981 35.1953 198.328 34.4122 198.328 33.4621C198.328 32.5121 197.981 31.729 197.288 31.1127C196.796 30.6589 196.207 30.3722 195.52 30.2526Z" fill="#91B959"/>
<path fill-rule="evenodd" clip-rule="evenodd" d="M151.573 4.46036C151.573 3.04229 152.722 1.89272 154.14 1.89272H172.05C173.468 1.89272 174.617 3.04229 174.617 4.46036V8.81252C174.617 10.2306 173.468 11.3802 172.05 11.3802H162.331V23.0629C162.331 23.0948 162.332 23.1247 162.332 23.1528H171.01C172.362 23.1528 173.238 22.9216 173.788 22.6314C174.157 22.4363 174.434 22.1883 174.643 21.851V3.92116C174.643 2.50309 175.793 1.35352 177.211 1.35352H182.872C184.29 1.35352 185.44 2.50309 185.44 3.92116V12.4072H188.38C189.798 12.4072 190.948 13.5568 190.948 14.9749V19.4426C190.948 20.8606 189.798 22.0102 188.38 22.0102H185.44V37.7755C185.44 39.1936 184.29 40.3432 182.872 40.3432H177.211C175.793 40.3432 174.643 39.1936 174.643 37.7755V32.3361C173.571 32.5482 172.427 32.6403 171.241 32.6403H160.495C157.989 32.6403 155.636 32.0206 153.925 30.3298C152.207 28.6333 151.573 26.2911 151.573 23.7947V4.46036ZM174.643 29.7062C173.665 29.9505 172.531 30.0726 171.241 30.0726H160.495C156.259 30.0726 154.14 27.98 154.14 23.7947V4.46036H172.05V8.81252H159.764V23.0629C159.764 24.8346 160.547 25.7205 162.113 25.7205H171.01C174.245 25.7205 176.312 24.6292 177.211 22.4467V3.92116H182.872V14.9749H188.38V19.4426H182.872V37.7755H177.211V28.532C176.527 29.0582 175.671 29.4496 174.643 29.7062Z" fill="#91B959"/>
<path fill-rule="evenodd" clip-rule="evenodd" d="M115.574 4.46036C115.574 3.04229 116.723 1.89272 118.141 1.89272H123.841C125.259 1.89272 126.409 3.04229 126.409 4.46036V23.1143H135.434C137.927 23.1143 138.966 22.4616 139.453 21.7134V3.92116C139.453 2.50309 140.602 1.35352 142.02 1.35352H147.72C149.139 1.35352 150.288 2.50309 150.288 3.92116V37.7755C150.288 39.1936 149.139 40.3432 147.72 40.3432H142.02C140.602 40.3432 139.453 39.1936 139.453 37.7755V32.2969C138.227 32.5394 136.898 32.6403 135.511 32.6403H124.843C122.292 32.6403 119.899 32.0907 118.127 30.5428C116.289 28.937 115.574 26.6626 115.574 24.2184V4.46036ZM139.453 29.6682C140.501 29.4115 141.357 29.0328 142.02 28.532V37.7755H147.72V3.92116H142.02V22.3312C141.07 24.565 138.875 25.6819 135.434 25.6819H125.96C124.547 25.6819 123.841 24.9245 123.841 23.4096V4.46036H118.141V24.2184C118.141 28.1212 120.375 30.0726 124.843 30.0726H135.511C137.037 30.0726 138.351 29.9378 139.453 29.6682Z" fill="#91B959"/>
<path fill-rule="evenodd" clip-rule="evenodd" d="M81.4387 3.30397C81.4387 1.8859 82.5883 0.736328 84.0064 0.736328H95.7148C97.1329 0.736328 98.2825 1.8859 98.2825 3.30397V5.35809H100.76C100.963 5.35809 101.161 5.3817 101.351 5.42633V3.92021C101.351 2.50214 102.5 1.35256 103.918 1.35256H109.58C110.998 1.35256 112.148 2.50214 112.148 3.92021V10.0954H114.51C115.928 10.0954 117.078 11.245 117.078 12.663V16.7456C117.078 18.1637 115.928 19.3132 114.51 19.3132H112.148V23.9863C112.148 24.1689 112.129 24.3469 112.093 24.5187C112.178 24.7749 112.225 25.0492 112.225 25.3344V37.6976C112.225 39.1156 111.075 40.2652 109.657 40.2652H89.2059C86.9645 40.2652 84.804 39.7714 83.192 38.3325C81.5245 36.844 80.8995 34.7586 80.8995 32.5751V25.3344C80.8995 25.0991 80.9312 24.8711 80.9905 24.6546C78.8931 23.1756 77.6643 21.0516 77.6643 18.4017C77.6643 16.7828 78.1151 15.3563 78.9426 14.1522C77.533 14.1424 76.3933 12.9966 76.3933 11.5846V7.92573C76.3933 6.50766 77.5429 5.35809 78.961 5.35809H81.4387V3.30397ZM84.0064 7.00138H95.7148V3.30397H84.0064V7.00138ZM78.961 7.92573V11.5846H100.76V7.92573H78.961ZM96.7932 13.934C95.0216 12.8556 92.7107 12.3164 89.8606 12.3164C86.9848 12.3164 84.6611 12.8556 82.8895 13.934C82.7729 14.005 82.6601 14.0777 82.5512 14.1523C81.005 15.2102 80.2319 16.6267 80.2319 18.4017C80.2319 20.2761 81.1178 21.7525 82.8895 22.8309C82.8899 22.8312 82.8903 22.8314 82.8907 22.8317C83.0768 22.9422 83.2689 23.0469 83.4672 23.1458C84.9935 23.9074 86.8807 24.3249 89.1288 24.3983C89.3686 24.4061 89.6126 24.41 89.8606 24.41C90.4284 24.41 90.9749 24.3891 91.4999 24.3473C93.6101 24.1794 95.3746 23.6739 96.7932 22.8309C98.5906 21.7525 99.4893 20.2761 99.4893 18.4017C99.4893 16.6267 98.705 15.2102 97.1364 14.1523C97.0259 14.0777 96.9115 14.005 96.7932 13.934ZM92.7107 16.553C91.9917 16.0908 91.0417 15.8598 89.8606 15.8598C88.6795 15.8598 87.7166 16.0908 86.972 16.553C86.2531 17.0152 85.8936 17.6314 85.8936 18.4017C85.8936 19.1463 86.2531 19.7497 86.972 20.2119C87.7166 20.6484 88.6795 20.8667 89.8606 20.8667C91.0417 20.8667 91.9917 20.6484 92.7107 20.2119C93.4553 19.7497 93.8276 19.1463 93.8276 18.4017C93.8276 17.6058 93.4553 16.9895 92.7107 16.553ZM100.767 14.1523C100.989 14.4721 101.184 14.8079 101.351 15.1591V14.084C101.163 14.1282 100.968 14.1518 100.767 14.1523ZM101.351 21.6194C100.685 23.0111 99.571 24.1586 98.1143 25.0326L98.1049 25.0383C97.8752 25.1747 97.6404 25.3033 97.4005 25.4242H101.428V25.3344C101.428 25.1518 101.447 24.9738 101.483 24.8021C101.397 24.5458 101.351 24.2715 101.351 23.9863V21.6194ZM103.918 23.9863H109.58V16.7456H114.51V12.663H109.58V3.92021H103.918V23.9863ZM103.995 27.9919H89.1288V25.3344H83.4672V32.5751C83.4672 35.9901 85.3801 37.6976 89.2059 37.6976H109.657V25.3344H103.995V27.9919ZM103.995 31.7278V33.8846H90.9005C89.7194 33.8846 89.1288 33.2812 89.1288 32.0744V31.7278H103.995Z" fill="#91B959"/>
<path fill-rule="evenodd" clip-rule="evenodd" d="M43.7711 14.7965C44.0224 15.7283 44.4424 16.5842 45.031 17.3642H41.6803V21.5623H49.4987V27.3395H55.1604V21.5623H66.6763V17.3642H62.6707C63.2594 16.5842 63.6794 15.7283 63.9306 14.7965C64.1178 14.1026 64.2113 13.3665 64.2113 12.5884C64.2113 10.0977 63.2356 8.0308 61.2842 6.3875C59.3328 4.71853 56.855 3.88405 53.8509 3.88405C50.8467 3.88405 48.369 4.71853 46.4176 6.3875C44.4661 8.0308 43.4904 10.0977 43.4904 12.5884C43.4904 13.3665 43.584 14.1026 43.7711 14.7965ZM41.1468 14.852C39.9847 15.0976 39.1126 16.129 39.1126 17.3642V21.5623C39.1126 22.9804 40.2622 24.1299 41.6803 24.1299H46.9311V25.7732H46.4946C45.0765 25.7732 43.9269 26.9228 43.9269 28.3409V31.1139C43.9269 33.69 44.5557 36.0965 46.2656 37.8474C47.9866 39.6096 50.3712 40.2676 52.9265 40.2676H74.0326C75.4506 40.2676 76.6002 39.118 76.6002 37.6999V33.4633C76.6002 32.862 76.3935 32.309 76.0474 31.8715C76.347 31.4514 76.5232 30.9374 76.5232 30.3821V3.92256C76.5232 2.50449 75.3736 1.35492 73.9555 1.35492H68.2939C66.8758 1.35492 65.7262 2.50449 65.7262 3.92256V7.91827C65.0833 6.61587 64.1514 5.44683 62.9458 4.42997C60.4535 2.30165 57.3539 1.31641 53.8509 1.31641C50.348 1.31641 47.2485 2.30156 44.7563 4.42966C42.2466 6.54637 40.9228 9.32256 40.9228 12.5884C40.9228 13.3659 40.9969 14.1218 41.1468 14.852ZM68.2939 23.2184H59.5125V27.301H68.2939V30.3821H73.9555V3.92256H68.2939V23.2184ZM65.7262 29.8686H59.5125C58.6035 29.8686 57.8048 29.3962 57.3486 28.6836C56.8967 29.4177 56.0857 29.9071 55.1604 29.9071H54.7239V30.5747C54.7239 30.7067 54.7318 30.8075 54.7417 30.8817C54.8076 30.8896 54.8947 30.8957 55.0063 30.8957H65.7776C65.7439 30.7297 65.7262 30.558 65.7262 30.3821V29.8686ZM52.1562 28.3409H46.4946V31.1139C46.4946 35.5046 48.6386 37.6999 52.9265 37.6999H74.0326V33.4633H55.0063C53.1063 33.4633 52.1562 32.5004 52.1562 30.5747V28.3409ZM52.3288 14.1366C52.7165 14.5188 53.1661 14.7195 53.8509 14.7195C54.5025 14.7195 54.9465 14.5246 55.3476 14.1235C55.7592 13.7119 55.9435 13.276 55.9435 12.6654C55.9435 12.0548 55.7592 11.6189 55.3475 11.2072C54.9465 10.8062 54.5025 10.6113 53.8509 10.6113C53.1661 10.6113 52.7165 10.812 52.3288 11.1942C51.9429 11.597 51.7583 12.0383 51.7583 12.6654C51.7583 13.2925 51.9429 13.7338 52.3288 14.1366ZM50.5001 15.9391C49.6271 15.0405 49.1906 13.9492 49.1906 12.6654C49.1906 11.3816 49.6271 10.2903 50.5001 9.39165C51.3988 8.49297 52.5157 8.04363 53.8509 8.04363C55.1604 8.04363 56.2645 8.49297 57.1631 9.39165C58.0618 10.2903 58.5112 11.3816 58.5112 12.6654C58.5112 13.9492 58.0618 15.0405 57.1631 15.9391C56.2645 16.8378 55.1604 17.2872 53.8509 17.2872C52.5157 17.2872 51.3988 16.8378 50.5001 15.9391Z" fill="#91B959"/>
<path fill-rule="evenodd" clip-rule="evenodd" d="M10.4726 5.5776C8.03331 6.75872 6.81368 8.53039 6.81368 10.8926C6.81368 13.3062 8.03331 15.0779 10.4726 16.2076C10.8797 16.3942 11.3141 16.5654 11.7758 16.7212C14.1098 17.5086 17.1417 17.9023 20.8715 17.9023C24.6228 17.9023 27.6583 17.5086 29.9779 16.7212C30.4368 16.5654 30.8676 16.3942 31.2705 16.2076C33.7354 15.0779 34.9679 13.2934 34.9679 10.8541C34.9679 8.4662 33.7354 6.69453 31.2705 5.53909C28.8312 4.38365 25.3649 3.80593 20.8715 3.80593C16.4038 3.80593 12.9375 4.39648 10.4726 5.5776ZM32.3649 3.21637C29.4272 1.82614 25.5216 1.23828 20.8715 1.23828C16.2347 1.23828 12.3265 1.84206 9.36305 3.26206L9.35358 3.26662C7.83597 4.00146 6.53311 5.00034 5.61346 6.33625C4.6799 7.69236 4.24604 9.24497 4.24604 10.8926C4.24604 12.5534 4.67348 14.1221 5.61346 15.4875C5.92329 15.9376 6.27654 16.3479 6.66672 16.7212H3.46291C2.04484 16.7212 0.895264 17.8708 0.895264 19.2888V23.641C0.895264 25.059 2.04484 26.2086 3.46291 26.2086H7.03912C6.71509 26.5202 6.41746 26.859 6.15049 27.2272C5.18732 28.5553 4.74673 30.0959 4.74673 31.7291C4.74673 33.3559 5.19095 34.889 6.156 36.2096C7.10297 37.5055 8.43314 38.4363 9.95584 39.0934C12.8493 40.3422 16.5694 40.8827 20.9486 40.8827C25.3277 40.8827 29.0478 40.3422 31.9413 39.0934C33.464 38.4363 34.7942 37.5055 35.7411 36.2096C36.7062 34.889 37.1504 33.3559 37.1504 31.7291C37.1504 30.0959 36.7098 28.5553 35.7466 27.2272C35.4797 26.859 35.182 26.5202 34.858 26.2086H38.3187C39.7368 26.2086 40.8863 25.059 40.8863 23.641V19.2888C40.8863 17.8708 39.7368 16.7212 38.3187 16.7212H35.0933C35.4871 16.3463 35.8436 15.9339 36.1563 15.4811C37.105 14.1075 37.5355 12.5275 37.5355 10.8541C37.5355 9.19419 37.0986 7.62982 36.1513 6.26813C35.219 4.92784 33.899 3.93623 32.3649 3.21637ZM3.46291 19.2888V23.641H38.3187V19.2888H3.46291ZM29.6886 26.2086C27.401 25.4469 24.4876 25.066 20.9486 25.066C17.4095 25.066 14.4962 25.4469 12.2085 26.2086C11.7742 26.3532 11.3625 26.5116 10.9733 26.6836C8.53401 27.7364 7.31437 29.4182 7.31437 31.7291C7.31437 34.0143 8.53401 35.6832 10.9733 36.736C13.4125 37.7887 16.7376 38.3151 20.9486 38.3151C25.1595 38.3151 28.4846 37.7887 30.9239 36.736C33.3631 35.6832 34.5828 34.0143 34.5828 31.7291C34.5828 29.4182 33.3631 27.7364 30.9239 26.6836C30.5347 26.5116 30.1229 26.3532 29.6886 26.2086ZM26.9569 8.69729C25.4933 8.20944 23.452 7.96551 20.833 7.96551C18.214 7.96551 16.1856 8.20944 14.7477 8.69729C13.3355 9.15946 12.6294 9.90408 12.6294 10.9311C12.6294 11.9839 13.3355 12.7285 14.7477 13.165C16.1599 13.5758 18.1883 13.7812 20.833 13.7812C23.452 13.7812 25.4933 13.5758 26.9569 13.165C28.4204 12.7285 29.1522 11.9839 29.1522 10.9311C29.1522 9.90408 28.4204 9.15946 26.9569 8.69729ZM25.3022 10.9066C24.2357 10.6758 22.7679 10.5332 20.833 10.5332C18.8863 10.5332 17.4256 10.6776 16.3794 10.9082C17.4392 11.0976 18.9036 11.2136 20.833 11.2136C22.7343 11.2136 24.2071 11.0988 25.3022 10.9066ZM15.1714 29.8804C13.8105 30.2655 13.1301 30.8946 13.1301 31.7676C13.1301 32.5892 13.8105 33.1798 15.1714 33.5392C16.5579 33.9244 18.4708 34.117 20.91 34.117C23.4007 34.117 25.3264 33.9244 26.6873 33.5392C28.0481 33.1798 28.7285 32.5892 28.7285 31.7676C28.7285 30.8946 28.0481 30.2655 26.6873 29.8804C25.3264 29.4695 23.4007 29.2641 20.91 29.2641C18.4708 29.2641 16.5579 29.4695 15.1714 29.8804Z" fill="#91B959"/>
</svg>
