<svg width="181" height="181" viewBox="0 0 181 181" fill="none" xmlns="http://www.w3.org/2000/svg">
<path fill-rule="evenodd" clip-rule="evenodd" d="M157.292 152.109C171.906 136.259 180.833 115.085 180.833 91.8264C180.833 42.6988 141.007 2.87305 91.8794 2.87305C42.7519 2.87305 2.92612 42.6988 2.92612 91.8264C2.92612 140.954 42.7519 180.78 91.8794 180.78C110.035 180.78 126.92 175.341 140.994 166.003C152.156 171.672 165.518 175.932 180.895 177.348C169.136 167.81 161.777 159.358 157.292 152.109Z" fill="black" fill-opacity="0.15"/>
<path fill-rule="evenodd" clip-rule="evenodd" d="M155.261 150.077C169.875 134.228 178.802 113.054 178.802 89.7951C178.802 40.6676 138.976 0.841797 89.8486 0.841797C40.721 0.841797 0.895264 40.6676 0.895264 89.7951C0.895264 138.923 40.721 178.748 89.8486 178.748C108.004 178.748 124.889 173.309 138.963 163.972C150.126 169.641 163.487 173.9 178.864 175.316C167.105 165.779 159.746 157.327 155.261 150.077Z" fill="white"/>
<path fill-rule="evenodd" clip-rule="evenodd" d="M148.011 148.713C163.223 133.695 172.651 112.831 172.651 89.7651C172.651 44.0185 135.566 6.93359 89.8194 6.93359C44.0729 6.93359 6.98792 44.0185 6.98792 89.7651C6.98792 135.512 44.0729 172.597 89.8194 172.597C107.175 172.597 123.284 167.259 136.595 158.135C144.106 163.176 155.077 167.786 170.374 171.784C158.791 162.39 151.922 154.783 148.011 148.713Z" fill="white"/>
<path fill-rule="evenodd" clip-rule="evenodd" d="M89.0009 6.77544C89.2734 6.7728 89.5463 6.77148 89.8195 6.77148C90.0927 6.77148 90.3655 6.7728 90.6381 6.77544L90.635 7.10037C90.3634 7.09774 90.0916 7.09643 89.8195 7.09643C89.5473 7.09643 89.2755 7.09774 89.004 7.10037L89.0009 6.77544ZM85.7456 6.86973C86.2855 6.84363 86.8267 6.82269 87.3693 6.80696L87.3787 7.13177C86.8383 7.14744 86.2991 7.16829 85.7613 7.19429L85.7456 6.86973ZM92.2697 6.80696C92.8122 6.82269 93.3535 6.84363 93.8934 6.86973L93.8777 7.19429C93.3399 7.1683 92.8007 7.14744 92.2602 7.13177L92.2697 6.80696ZM82.4905 7.09065C83.0305 7.04341 83.5719 7.00133 84.1148 6.96448L84.1368 7.28867C83.596 7.32539 83.0567 7.3673 82.5188 7.41436L82.4905 7.09065ZM95.5241 6.96448C96.067 7.00133 96.6085 7.04341 97.1484 7.09065L97.1201 7.41436C96.5822 7.3673 96.0429 7.32539 95.5021 7.28867L95.5241 6.96448ZM79.2492 7.43828C79.7881 7.36978 80.3286 7.30644 80.8707 7.24832L80.9054 7.57142C80.3654 7.62931 79.827 7.6924 79.2902 7.76063L79.2492 7.43828ZM98.7682 7.24833C99.3103 7.30644 99.8508 7.36978 100.39 7.43828L100.349 7.76063C99.812 7.6924 99.2735 7.62931 98.7336 7.57142L98.7682 7.24833ZM76.0258 7.91254C76.5613 7.82297 77.0985 7.73852 77.6374 7.65925L77.6847 7.98073C77.1479 8.05969 76.6128 8.14381 76.0794 8.23303L76.0258 7.91254ZM102.002 7.65925C102.54 7.73852 103.078 7.82297 103.613 7.91254L103.56 8.23303C103.026 8.14381 102.491 8.05969 101.954 7.98073L102.002 7.65925ZM105.218 8.19731C105.752 8.29748 106.284 8.40276 106.814 8.5131L106.748 8.83122C106.22 8.72132 105.69 8.61646 105.158 8.51668L105.218 8.19731ZM72.8246 8.5131C73.3549 8.40276 73.8869 8.29748 74.4208 8.19731L74.4808 8.51668C73.949 8.61646 73.419 8.72132 72.8908 8.83123L72.8246 8.5131ZM108.409 8.86148C108.939 8.98269 109.467 9.10897 109.992 9.24027L109.914 9.55554C109.39 9.42476 108.864 9.29897 108.337 9.17823L108.409 8.86148ZM69.6465 9.24028C70.1723 9.10898 70.7001 8.9827 71.2298 8.86148L71.3023 9.17824C70.7746 9.29897 70.2489 9.42476 69.7252 9.55554L69.6465 9.24028ZM111.57 9.65093C112.095 9.79317 112.619 9.94043 113.14 10.0927L113.048 10.4046C112.53 10.2529 112.008 10.1062 111.485 9.96457L111.57 9.65093ZM66.4993 10.0927C67.0203 9.94044 67.5434 9.79317 68.0686 9.65093L68.1535 9.96458C67.6304 10.1063 67.1094 10.2529 66.5905 10.4046L66.4993 10.0927ZM114.697 10.5646C115.217 10.7276 115.734 10.8957 116.249 11.0686L116.146 11.3766C115.633 11.2044 115.117 11.037 114.6 10.8746L114.697 10.5646ZM63.3896 11.0686C63.9047 10.8957 64.4221 10.7276 64.9417 10.5646L65.039 10.8746C64.5215 11.037 64.0061 11.2044 63.493 11.3767L63.3896 11.0686ZM117.788 11.6021C118.3 11.7854 118.81 11.9735 119.317 12.1665L119.202 12.4703C118.696 12.278 118.189 12.0906 117.678 11.908L117.788 11.6021ZM60.3216 12.1666C60.829 11.9736 61.3388 11.7854 61.8509 11.6021L61.9604 11.9081C61.4503 12.0906 60.9425 12.278 60.4371 12.4703L60.3216 12.1666ZM120.835 12.7611C121.339 12.9642 121.84 13.1721 122.339 13.3848L122.212 13.6837C121.715 13.4719 121.215 13.2648 120.714 13.0625L120.835 12.7611ZM57.2997 13.3848C57.7986 13.1721 58.2999 12.9642 58.8038 12.7611L58.9252 13.0625C58.4234 13.2648 57.9241 13.4719 57.4272 13.6837L57.2997 13.3848ZM123.833 14.0393C124.329 14.2622 124.822 14.4898 125.312 14.7221L125.173 15.0158C124.685 14.7844 124.194 14.5577 123.7 14.3356L123.833 14.0393ZM54.3268 14.7221C54.8171 14.4898 55.31 14.2622 55.8055 14.0393L55.9388 14.3356C55.4453 14.5577 54.9543 14.7844 54.4659 15.0158L54.3268 14.7221ZM51.4089 16.1758C51.89 15.9241 52.3739 15.6771 52.8606 15.4346L53.0055 15.7255C52.5208 15.967 52.0388 16.213 51.5595 16.4637L51.4089 16.1758ZM126.778 15.4346C127.265 15.6771 127.749 15.9241 128.23 16.1758L128.079 16.4637C127.6 16.213 127.118 15.967 126.633 15.7255L126.778 15.4346ZM48.5511 17.7429C49.0222 17.4724 49.4962 17.2063 49.9731 16.9448L50.1293 17.2297C49.6543 17.4902 49.1821 17.7552 48.7129 18.0247L48.5511 17.7429ZM129.666 16.9448C130.143 17.2063 130.617 17.4724 131.088 17.7429L130.926 18.0247C130.457 17.7552 129.985 17.4902 129.51 17.2297L129.666 16.9448ZM45.7573 19.421C46.2173 19.1322 46.6804 18.8478 47.1465 18.5679L47.3138 18.8465C46.8496 19.1253 46.3883 19.4086 45.9301 19.6962L45.7573 19.421ZM132.492 18.5679C132.959 18.8478 133.422 19.1322 133.882 19.421L133.709 19.6962C133.251 19.4086 132.789 19.1253 132.325 18.8465L132.492 18.5679ZM43.0317 21.2073C43.4798 20.9009 43.9311 20.5987 44.3855 20.3009L44.5637 20.5727C44.111 20.8693 43.6615 21.1703 43.2151 21.4755L43.0317 21.2073ZM135.253 20.3009C135.708 20.5987 136.159 20.9009 136.607 21.2073L136.424 21.4755C135.977 21.1703 135.528 20.8693 135.075 20.5727L135.253 20.3009ZM40.3778 23.0993C40.8136 22.7755 41.2527 22.4559 41.695 22.1406L41.8837 22.4052C41.4431 22.7193 41.0057 23.0376 40.5716 23.3601L40.3778 23.0993ZM137.944 22.1406C138.386 22.4559 138.825 22.7755 139.261 23.0993L139.067 23.3601C138.633 23.0376 138.196 22.7193 137.755 22.4052L137.944 22.1406ZM37.7997 25.0938C38.2227 24.7531 38.6491 24.4165 39.0788 24.0841L39.2777 24.3411C38.8496 24.6722 38.4248 25.0075 38.0035 25.3469L37.7997 25.0938ZM140.56 24.0841C140.99 24.4166 141.416 24.7532 141.839 25.0938L141.635 25.3469C141.214 25.0076 140.789 24.6723 140.361 24.3411L140.56 24.0841ZM35.3017 27.1874C35.7112 26.8304 36.1241 26.4773 36.5406 26.1283L36.7493 26.3773C36.3345 26.725 35.9231 27.0767 35.5153 27.4323L35.3017 27.1874ZM143.098 26.1283C143.515 26.4774 143.928 26.8304 144.337 27.1874L144.124 27.4323C143.716 27.0767 143.304 26.725 142.89 26.3774L143.098 26.1283ZM32.8875 29.3768C33.2827 29.0041 33.6816 28.6352 34.084 28.2702L34.3023 28.5109C33.9014 28.8745 33.5041 29.2419 33.1104 29.6132L32.8875 29.3768ZM145.555 28.2702C145.957 28.6352 146.356 29.0041 146.751 29.3769L146.529 29.6132C146.135 29.242 145.738 28.8745 145.337 28.5109L145.555 28.2702ZM30.5605 31.6588C30.9409 31.271 31.325 30.8869 31.7128 30.5065L31.9404 30.7385C31.554 31.1174 31.1714 31.5 30.7925 31.8864L30.5605 31.6588ZM147.926 30.5065C148.314 30.8869 148.698 31.271 149.078 31.6589L148.846 31.8864C148.468 31.5 148.085 31.1174 147.699 30.7385L147.926 30.5065ZM28.3242 34.03C28.6892 33.6276 29.0581 33.2287 29.4308 32.8335L29.6672 33.0564C29.2959 33.4501 28.9285 33.8474 28.5649 34.2483L28.3242 34.03ZM150.208 32.8335C150.581 33.2287 150.95 33.6276 151.315 34.0301L151.074 34.2484C150.71 33.8474 150.343 33.4501 149.972 33.0564L150.208 32.8335ZM26.1823 36.4866C26.5313 36.0701 26.8844 35.6572 27.2414 35.2477L27.4863 35.4613C27.1307 35.8691 26.779 36.2805 26.4313 36.6953L26.1823 36.4866ZM152.398 35.2477C152.755 35.6572 153.108 36.0702 153.457 36.4866L153.208 36.6953C152.86 36.2805 152.508 35.8691 152.153 35.4613L152.398 35.2477ZM24.138 39.0248C24.4705 38.5951 24.8071 38.1687 25.1478 37.7457L25.4009 37.9495C25.0615 38.3708 24.7262 38.7956 24.3951 39.2237L24.138 39.0248ZM154.491 37.7457C154.832 38.1687 155.168 38.5951 155.501 39.0248L155.244 39.2237C154.913 38.7956 154.577 38.3709 154.238 37.9495L154.491 37.7457ZM22.1946 41.6411C22.5099 41.1987 22.8295 40.7596 23.1532 40.3238L23.4141 40.5176C23.0916 40.9517 22.7733 41.3891 22.4592 41.8297L22.1946 41.6411ZM156.486 40.3238C156.809 40.7596 157.129 41.1987 157.444 41.6411L157.18 41.8297C156.866 41.3891 156.547 40.9517 156.225 40.5176L156.486 40.3238ZM20.3549 44.3315C20.6527 43.8771 20.9549 43.4258 21.2613 42.9777L21.5295 43.1611C21.2243 43.6075 20.9233 44.057 20.6267 44.5097L20.3549 44.3315ZM158.378 42.9777C158.684 43.4258 158.986 43.8772 159.284 44.3316L159.012 44.5097C158.716 44.057 158.415 43.6075 158.109 43.1611L158.378 42.9777ZM18.6219 47.0925C18.9018 46.6264 19.1862 46.1634 19.475 45.7033L19.7502 45.8761C19.4625 46.3343 19.1793 46.7956 18.9004 47.2598L18.6219 47.0925ZM160.164 45.7033C160.453 46.1634 160.737 46.6264 161.017 47.0925L160.739 47.2598C160.46 46.7956 160.176 46.3343 159.889 45.8761L160.164 45.7033ZM16.9988 49.9191C17.2603 49.4422 17.5263 48.9682 17.7969 48.4971L18.0787 48.6589C17.8092 49.1282 17.5442 49.6003 17.2837 50.0753L16.9988 49.9191ZM161.842 48.4971C162.113 48.9682 162.379 49.4422 162.64 49.9191L162.355 50.0754C162.095 49.6003 161.83 49.1282 161.56 48.6589L161.842 48.4971ZM15.4886 52.8066C15.731 52.32 15.9781 51.8361 16.2297 51.3549L16.5177 51.5055C16.267 51.9848 16.0209 52.4668 15.7795 52.9515L15.4886 52.8066ZM163.409 51.3549C163.661 51.8361 163.908 52.32 164.15 52.8066L163.859 52.9515C163.618 52.4668 163.372 51.9848 163.121 51.5055L163.409 51.3549ZM164.863 54.2728C165.095 54.7631 165.323 55.256 165.546 55.7516L165.249 55.8849C165.027 55.3913 164.801 54.9003 164.569 54.412L164.863 54.2728ZM14.0933 55.7516C14.3162 55.2561 14.5438 54.7631 14.7761 54.2728L15.0698 54.412C14.8384 54.9003 14.6116 55.3913 14.3896 55.8849L14.0933 55.7516ZM166.2 57.2458C166.413 57.7446 166.621 58.246 166.824 58.7498L166.522 58.8713C166.32 58.3695 166.113 57.8701 165.901 57.3732L166.2 57.2458ZM12.8151 58.7498C13.0182 58.246 13.2261 57.7446 13.4388 57.2458L13.7377 57.3732C13.5259 57.8701 13.3188 58.3695 13.1164 58.8713L12.8151 58.7498ZM167.418 60.2676C167.611 60.775 167.8 61.2848 167.983 61.797L167.677 61.9065C167.494 61.3963 167.307 60.8885 167.115 60.3831L167.418 60.2676ZM11.6561 61.797C11.8394 61.2849 12.0275 60.775 12.2205 60.2676L12.5242 60.3831C12.332 60.8886 12.1446 61.3964 11.962 61.9065L11.6561 61.797ZM168.516 63.3356C168.689 63.8507 168.857 64.3681 169.02 64.8877L168.71 64.985C168.548 64.4675 168.381 63.9521 168.208 63.439L168.516 63.3356ZM10.6186 64.8878C10.7816 64.3682 10.9496 63.8508 11.1226 63.3356L11.4306 63.439C11.2584 63.9521 11.091 64.4675 10.9286 64.9851L10.6186 64.8878ZM169.492 66.4454C169.645 66.9663 169.792 67.4894 169.934 68.0146L169.62 68.0996C169.479 67.5765 169.332 67.0554 169.18 66.5365L169.492 66.4454ZM9.7049 68.0146C9.84714 67.4895 9.99441 66.9664 10.1466 66.4454L10.4585 66.5365C10.3069 67.0555 10.1602 67.5765 10.0185 68.0996L9.7049 68.0146ZM170.345 69.5925C170.476 70.1183 170.602 70.6461 170.723 71.1758L170.407 71.2483C170.286 70.7207 170.16 70.195 170.029 69.6712L170.345 69.5925ZM8.91546 71.1758C9.03667 70.6461 9.16295 70.1183 9.29425 69.5925L9.60951 69.6713C9.47873 70.195 9.35295 70.7207 9.23221 71.2483L8.91546 71.1758ZM171.072 72.7707C171.182 73.3009 171.287 73.833 171.388 74.3669L171.068 74.4268C170.968 73.895 170.864 73.365 170.754 72.8369L171.072 72.7707ZM8.25129 74.3669C8.35146 73.833 8.45674 73.3009 8.56707 72.7707L8.8852 72.8369C8.7753 73.365 8.67043 73.895 8.57066 74.4268L8.25129 74.3669ZM7.71323 77.5834C7.7925 77.0445 7.87694 76.5073 7.96652 75.9718L8.28701 76.0254C8.19779 76.5588 8.11367 77.0939 8.03471 77.6307L7.71323 77.5834ZM171.672 75.9718C171.762 76.5073 171.846 77.0445 171.926 77.5834L171.604 77.6307C171.525 77.0939 171.441 76.5588 171.352 76.0254L171.672 75.9718ZM7.3023 80.8167C7.36042 80.2747 7.42376 79.7341 7.49226 79.1952L7.81461 79.2362C7.74637 79.773 7.68329 80.3114 7.6254 80.8514L7.3023 80.8167ZM172.147 79.1952C172.215 79.7341 172.279 80.2747 172.337 80.8167L172.014 80.8514C171.956 80.3114 171.893 79.773 171.824 79.2362L172.147 79.1952ZM7.01846 84.0608C7.05531 83.5179 7.09739 82.9765 7.14463 82.4365L7.46834 82.4649C7.42128 83.0027 7.37936 83.5421 7.34265 84.0828L7.01846 84.0608ZM172.494 82.4365C172.542 82.9765 172.584 83.518 172.62 84.0608L172.296 84.0828C172.26 83.5421 172.218 83.0027 172.171 82.4649L172.494 82.4365ZM6.86094 87.3153C6.87667 86.7727 6.89761 86.2315 6.92371 85.6916L7.24827 85.7073C7.22227 86.2451 7.20142 86.7843 7.18575 87.3247L6.86094 87.3153ZM172.715 85.6916C172.741 86.2315 172.762 86.7728 172.778 87.3153L172.453 87.3247C172.438 86.7843 172.417 86.2451 172.391 85.7073L172.715 85.6916ZM6.82546 89.7655C6.82546 89.4923 6.82678 89.2194 6.82942 88.9469L7.15434 88.95C7.15172 89.2215 7.15041 89.4934 7.15041 89.7655C7.15041 90.0376 7.15172 90.3095 7.15434 90.581L6.82942 90.5841C6.82678 90.3116 6.82546 90.0387 6.82546 89.7655ZM172.81 88.9469C172.812 89.2194 172.813 89.4923 172.813 89.7655C172.813 90.0402 172.812 90.3145 172.809 90.5886L172.485 90.5854C172.487 90.3124 172.489 90.0391 172.489 89.7655C172.489 89.4934 172.487 89.2215 172.485 88.95L172.81 88.9469ZM6.9237 93.8394C6.89761 93.2995 6.87667 92.7582 6.86094 92.2157L7.18574 92.2062C7.20142 92.7467 7.22227 93.2859 7.24827 93.8237L6.9237 93.8394ZM172.778 92.2306C172.762 92.7792 172.74 93.3265 172.714 93.8723L172.389 93.8565C172.416 93.3128 172.437 92.7676 172.453 92.2212L172.778 92.2306ZM7.14463 97.0944C7.09738 96.5545 7.05531 96.013 7.01845 95.4702L7.34265 95.4481C7.37936 95.9889 7.42128 96.5283 7.46834 97.0661L7.14463 97.0944ZM172.618 95.5134C172.58 96.0609 172.537 96.607 172.489 97.1516L172.166 97.1231C172.213 96.5806 172.256 96.0366 172.293 95.4912L172.618 95.5134ZM7.49226 100.336C7.42376 99.7968 7.36042 99.2563 7.3023 98.7142L7.62539 98.6796C7.68328 99.2196 7.74637 99.758 7.81461 100.295L7.49226 100.336ZM172.329 98.7865C172.27 99.3318 172.206 99.8755 172.136 100.418L171.814 100.376C171.883 99.8363 171.947 99.2947 172.006 98.7516L172.329 98.7865ZM7.96652 103.559C7.87694 103.024 7.7925 102.486 7.71323 101.948L8.03471 101.9C8.11367 102.437 8.19779 102.972 8.28701 103.506L7.96652 103.559ZM171.911 102.046C171.831 102.589 171.745 103.13 171.654 103.669L171.334 103.615C171.424 103.078 171.51 102.539 171.59 101.998L171.911 102.046ZM8.56707 106.76C8.45674 106.23 8.35146 105.698 8.25129 105.164L8.57066 105.104C8.67043 105.636 8.7753 106.166 8.8852 106.694L8.56707 106.76ZM171.365 105.287C171.263 105.825 171.155 106.362 171.043 106.898L170.725 106.831C170.837 106.298 170.944 105.763 171.045 105.226L171.365 105.287ZM9.29425 109.938C9.16296 109.413 9.03667 108.885 8.91546 108.355L9.23221 108.283C9.35295 108.81 9.47874 109.336 9.60952 109.86L9.29425 109.938ZM170.69 108.502C170.566 109.037 170.438 109.569 170.304 110.1L169.989 110.021C170.122 109.492 170.25 108.962 170.373 108.429L170.69 108.502ZM10.1467 113.086C9.99442 112.565 9.84715 112.042 9.70491 111.516L10.0186 111.431C10.1602 111.955 10.3069 112.476 10.4586 112.994L10.1467 113.086ZM169.887 111.689C169.742 112.218 169.593 112.745 169.438 113.27L169.126 113.178C169.281 112.655 169.43 112.131 169.573 111.604L169.887 111.689ZM11.1226 116.195C10.9496 115.68 10.7816 115.163 10.6186 114.643L10.9286 114.546C11.091 115.064 11.2584 115.579 11.4306 116.092L11.1226 116.195ZM168.958 114.841C168.793 115.364 168.622 115.884 168.446 116.403L168.139 116.298C168.314 115.782 168.483 115.264 168.648 114.743L168.958 114.841ZM12.2205 119.263C12.0275 118.756 11.8394 118.246 11.6561 117.734L11.962 117.625C12.1446 118.135 12.332 118.642 12.5242 119.148L12.2205 119.263ZM167.904 117.954C167.718 118.47 167.526 118.983 167.33 119.494L167.027 119.378C167.222 118.869 167.413 118.357 167.598 117.844L167.904 117.954ZM13.4388 122.285C13.2261 121.786 13.0182 121.285 12.8151 120.781L13.1164 120.66C13.3188 121.162 13.5259 121.661 13.7377 122.158L13.4388 122.285ZM166.726 121.022C166.52 121.53 166.308 122.035 166.092 122.538L165.794 122.409C166.009 121.908 166.22 121.405 166.425 120.9L166.726 121.022ZM14.7761 125.258C14.5438 124.768 14.3162 124.275 14.0933 123.779L14.3896 123.646C14.6117 124.14 14.8384 124.631 15.0698 125.119L14.7761 125.258ZM165.428 124.04C165.201 124.54 164.97 125.036 164.733 125.53L164.44 125.39C164.676 124.898 164.906 124.403 165.132 123.906L165.428 124.04ZM16.2297 128.176C15.9781 127.695 15.731 127.211 15.4886 126.724L15.7795 126.58C16.0209 127.064 16.267 127.546 16.5177 128.025L16.2297 128.176ZM164.01 127.005C163.763 127.495 163.513 127.982 163.257 128.466L162.97 128.314C163.224 127.832 163.474 127.347 163.719 126.859L164.01 127.005ZM17.7969 131.034C17.5263 130.563 17.2603 130.089 16.9988 129.612L17.2837 129.456C17.5442 129.931 17.8092 130.403 18.0787 130.872L17.7969 131.034ZM162.475 129.911C162.21 130.39 161.94 130.867 161.665 131.34L161.384 131.177C161.658 130.706 161.927 130.231 162.191 129.754L162.475 129.911ZM19.4749 133.828C19.1862 133.368 18.9018 132.905 18.6219 132.439L18.9004 132.271C19.1793 132.735 19.4625 133.197 19.7502 133.655L19.4749 133.828ZM160.827 132.754C160.542 133.222 160.254 133.688 159.96 134.15L159.686 133.976C159.978 133.516 160.266 133.052 160.549 132.585L160.827 132.754ZM21.2613 136.553C20.9548 136.105 20.6527 135.654 20.3549 135.199L20.6266 135.021C20.9233 135.474 21.2243 135.923 21.5295 136.37L21.2613 136.553ZM159.067 135.529C158.764 135.986 158.457 136.44 158.146 136.89L157.879 136.705C158.189 136.257 158.495 135.805 158.796 135.35L159.067 135.529ZM23.1532 139.207C22.8295 138.771 22.5099 138.332 22.1946 137.89L22.4591 137.701C22.7733 138.142 23.0916 138.579 23.4141 139.013L23.1532 139.207ZM157.199 138.233C156.878 138.677 156.554 139.118 156.225 139.556L155.965 139.361C156.293 138.925 156.616 138.485 156.935 138.043L157.199 138.233ZM25.1478 141.785C24.8071 141.362 24.4705 140.936 24.138 140.506L24.395 140.307C24.7262 140.735 25.0615 141.16 25.4009 141.581L25.1478 141.785ZM155.225 140.86C154.888 141.292 154.546 141.72 154.2 142.144L153.948 141.939C154.293 141.516 154.633 141.09 154.969 140.66L155.225 140.86ZM27.2414 144.283C26.8844 143.874 26.5313 143.461 26.1823 143.044L26.4313 142.836C26.779 143.25 27.1307 143.662 27.4863 144.07L27.2414 144.283ZM153.15 143.408C152.796 143.826 152.437 144.24 152.075 144.651L151.831 144.436C152.192 144.027 152.549 143.614 152.902 143.198L153.15 143.408ZM29.4308 146.697C29.0581 146.302 28.6892 145.903 28.3242 145.501L28.5649 145.283C28.9285 145.684 29.2959 146.081 29.6672 146.475L29.4308 146.697ZM150.976 145.872C150.605 146.276 150.231 146.676 149.853 147.072L149.618 146.847C149.995 146.453 150.368 146.055 150.737 145.653L150.976 145.872ZM31.7128 149.024C31.325 148.644 30.9408 148.26 30.5605 147.872L30.7925 147.645C31.1714 148.031 31.554 148.414 31.9403 148.792L31.7128 149.024ZM148.219 148.736C148.382 148.574 148.545 148.412 148.707 148.249L148.476 148.02C148.284 148.214 148.091 148.406 147.896 148.598L147.803 148.691L147.874 148.801C148.018 149.025 148.165 149.25 148.317 149.477L148.587 149.296C148.462 149.108 148.339 148.921 148.219 148.736ZM34.084 151.261C33.6815 150.896 33.2827 150.527 32.8875 150.154L33.1104 149.918C33.5041 150.289 33.9014 150.656 34.3023 151.02L34.084 151.261ZM149.501 150.618C149.804 151.044 150.121 151.476 150.452 151.915L150.193 152.111C149.86 151.669 149.541 151.235 149.236 150.807L149.501 150.618ZM36.5406 153.403C36.1241 153.054 35.7111 152.701 35.3017 152.344L35.5152 152.099C35.9231 152.454 36.3345 152.806 36.7493 153.154L36.5406 153.403ZM151.437 153.186C151.763 153.597 152.101 154.013 152.452 154.435L152.202 154.643C151.85 154.219 151.51 153.801 151.183 153.389L151.437 153.186ZM39.0788 155.447C38.649 155.114 38.2226 154.778 37.7997 154.437L38.0035 154.184C38.4248 154.523 38.8496 154.859 39.2776 155.19L39.0788 155.447ZM153.494 155.662C153.838 156.059 154.194 156.462 154.56 156.869L154.319 157.087C153.951 156.678 153.594 156.274 153.248 155.875L153.494 155.662ZM41.695 157.39C41.2527 157.075 40.8136 156.755 40.3778 156.432L40.5715 156.171C41.0057 156.493 41.4431 156.812 41.8837 157.126L41.695 157.39ZM136.594 157.939L136.685 158.001C136.912 158.153 137.143 158.305 137.377 158.457L137.2 158.73C136.996 158.597 136.795 158.465 136.596 158.332C136.397 158.467 136.199 158.602 136 158.735L135.818 158.465C136.047 158.312 136.275 158.157 136.503 158.001L136.594 157.939ZM44.3855 159.23C43.9311 158.932 43.4798 158.63 43.0316 158.324L43.2151 158.055C43.6615 158.361 44.111 158.662 44.5636 158.958L44.3855 159.23ZM155.647 158.056C156.006 158.442 156.375 158.831 156.753 159.225L156.519 159.45C156.139 159.055 155.769 158.664 155.409 158.278L155.647 158.056ZM140.045 160.466C139.556 160.185 139.078 159.902 138.611 159.618L138.78 159.34C139.244 159.623 139.72 159.905 140.207 160.185L140.045 160.466ZM134.612 159.646C134.146 159.945 133.678 160.24 133.206 160.53L133.036 160.253C133.506 159.964 133.973 159.671 134.436 159.373L134.612 159.646ZM47.1464 160.963C46.6804 160.683 46.2173 160.399 45.7573 160.11L45.93 159.835C46.3883 160.122 46.8495 160.406 47.3138 160.685L47.1464 160.963ZM157.879 160.379C158.25 160.754 158.63 161.132 159.019 161.514L158.791 161.746C158.401 161.363 158.02 160.983 157.649 160.608L157.879 160.379ZM142.975 162.059C142.473 161.801 141.981 161.541 141.5 161.279L141.656 160.994C142.134 161.254 142.624 161.513 143.123 161.77L142.975 162.059ZM131.783 161.385C131.306 161.665 130.826 161.94 130.343 162.211L130.184 161.927C130.665 161.658 131.143 161.383 131.618 161.104L131.783 161.385ZM49.9731 162.586C49.4962 162.325 49.0222 162.059 48.551 161.788L48.7129 161.506C49.1821 161.776 49.6543 162.041 50.1293 162.301L49.9731 162.586ZM145.967 163.525C145.456 163.287 144.956 163.047 144.464 162.807L144.607 162.515C145.097 162.755 145.595 162.993 146.104 163.23L145.967 163.525ZM160.177 162.637C160.558 163.002 160.947 163.371 161.345 163.742L161.123 163.98C160.724 163.607 160.334 163.238 159.952 162.872L160.177 162.637ZM128.887 163.008C128.399 163.269 127.908 163.525 127.415 163.776L127.267 163.486C127.759 163.236 128.248 162.981 128.733 162.721L128.887 163.008ZM52.8606 164.096C52.3739 163.854 51.89 163.607 51.4089 163.355L51.5595 163.067C52.0388 163.318 52.5208 163.564 53.0055 163.806L52.8606 164.096ZM149.011 164.88C148.493 164.66 147.985 164.438 147.485 164.216L147.617 163.919C148.115 164.141 148.622 164.361 149.138 164.581L149.011 164.88ZM125.928 164.514C125.43 164.755 124.929 164.991 124.426 165.222L124.291 164.927C124.792 164.697 125.29 164.461 125.786 164.222L125.928 164.514ZM55.8055 165.492C55.31 165.269 54.8171 165.041 54.3268 164.809L54.4659 164.515C54.9543 164.747 55.4453 164.973 55.9388 165.195L55.8055 165.492ZM162.529 164.837C162.919 165.194 163.317 165.554 163.723 165.917L163.506 166.16C163.1 165.796 162.701 165.435 162.309 165.077L162.529 164.837ZM152.095 166.137C151.572 165.933 151.057 165.727 150.55 165.521L150.673 165.22C151.178 165.426 151.692 165.631 152.214 165.835L152.095 166.137ZM122.911 165.9C122.404 166.121 121.894 166.336 121.382 166.547L121.258 166.247C121.769 166.037 122.276 165.822 122.781 165.602L122.911 165.9ZM58.8038 166.77C58.3 166.567 57.7986 166.359 57.2998 166.146L57.4272 165.847C57.9241 166.059 58.4234 166.266 58.9253 166.469L58.8038 166.77ZM155.214 167.309C154.686 167.118 154.165 166.926 153.652 166.734L153.766 166.429C154.278 166.622 154.797 166.813 155.324 167.003L155.214 167.309ZM119.84 167.163C119.325 167.363 118.807 167.559 118.287 167.749L118.175 167.443C118.694 167.254 119.21 167.06 119.723 166.861L119.84 167.163ZM164.928 166.985C165.327 167.335 165.732 167.687 166.145 168.043L165.933 168.289C165.52 167.933 165.113 167.58 164.714 167.229L164.928 166.985ZM61.851 167.929C61.3388 167.746 60.829 167.557 60.3216 167.364L60.4371 167.061C60.9425 167.253 61.4503 167.44 61.9605 167.623L61.851 167.929ZM158.361 168.403C157.828 168.225 157.302 168.045 156.783 167.865L156.89 167.558C157.408 167.738 157.932 167.917 158.464 168.095L158.361 168.403ZM116.722 168.302C116.199 168.481 115.673 168.655 115.146 168.824L115.047 168.515C115.572 168.347 116.095 168.173 116.616 167.995L116.722 168.302ZM64.9418 168.966C64.4221 168.803 63.9047 168.635 63.3896 168.462L63.493 168.154C64.0061 168.327 64.5215 168.494 65.039 168.656L64.9418 168.966ZM161.527 169.427C160.992 169.26 160.463 169.092 159.941 168.923L160.041 168.614C160.562 168.783 161.09 168.95 161.624 169.117L161.527 169.427ZM113.559 169.314C113.03 169.472 112.498 169.625 111.964 169.772L111.877 169.459C112.409 169.312 112.939 169.16 113.467 169.003L113.559 169.314ZM167.372 169.089C167.777 169.431 168.188 169.776 168.606 170.123L168.398 170.373C167.98 170.025 167.568 169.68 167.163 169.338L167.372 169.089ZM68.0686 169.88C67.5434 169.738 67.0203 169.591 66.4994 169.438L66.5905 169.126C67.1094 169.278 67.6305 169.425 68.1536 169.566L68.0686 169.88ZM164.716 170.39C164.178 170.233 163.645 170.075 163.119 169.916L163.213 169.605C163.738 169.764 164.27 169.922 164.807 170.079L164.716 170.39ZM110.359 170.198C109.823 170.335 109.286 170.466 108.746 170.592L108.672 170.275C109.21 170.15 109.745 170.019 110.279 169.883L110.359 170.198ZM71.2298 170.67C70.7001 170.548 70.1723 170.422 69.6465 170.291L69.7252 169.975C70.249 170.106 70.7747 170.232 71.3023 170.353L71.2298 170.67ZM167.918 171.296C167.378 171.148 166.844 170.999 166.316 170.85L166.404 170.537C166.932 170.686 167.465 170.835 168.004 170.982L167.918 171.296ZM107.126 170.952C106.585 171.067 106.043 171.177 105.498 171.281L105.437 170.961C105.979 170.858 106.52 170.749 107.058 170.635L107.126 170.952ZM74.4208 171.334C73.887 171.234 73.3549 171.128 72.8247 171.018L72.8908 170.7C73.419 170.81 73.949 170.915 74.4808 171.014L74.4208 171.334ZM169.849 171.147C170.056 171.317 170.265 171.487 170.476 171.658L170.333 171.942C170.148 171.893 169.965 171.845 169.782 171.797C169.696 171.774 169.61 171.752 169.525 171.729L169.608 171.415C169.635 171.422 169.662 171.429 169.688 171.436C169.673 171.424 169.658 171.411 169.643 171.399L169.849 171.147ZM103.865 171.576C103.32 171.669 102.774 171.756 102.226 171.838L102.177 171.517C102.723 171.435 103.268 171.348 103.81 171.256L103.865 171.576ZM77.6374 171.872C77.0985 171.792 76.5613 171.708 76.0258 171.618L76.0794 171.298C76.6128 171.387 77.1479 171.471 77.6846 171.55L77.6374 171.872ZM100.581 172.068C100.034 172.139 99.4841 172.205 98.933 172.265L98.8977 171.942C99.4467 171.882 99.994 171.817 100.54 171.746L100.581 172.068ZM80.8707 172.283C80.3286 172.225 79.7881 172.161 79.2492 172.093L79.2902 171.77C79.827 171.839 80.3654 171.902 80.9054 171.96L80.8707 172.283ZM97.281 172.429C96.7309 172.478 96.1793 172.521 95.6261 172.56L95.6037 172.235C96.1547 172.197 96.7042 172.154 97.2522 172.105L97.281 172.429ZM84.1148 172.567C83.5719 172.53 83.0305 172.488 82.4905 172.44L82.5188 172.117C83.0567 172.164 83.596 172.206 84.1368 172.242L84.1148 172.567ZM93.9689 172.658C93.4174 172.685 92.8645 172.707 92.3101 172.723L92.3006 172.398C92.8527 172.382 93.4036 172.36 93.953 172.333L93.9689 172.658ZM87.3693 172.724C86.8267 172.708 86.2855 172.687 85.7456 172.661L85.7612 172.337C86.2991 172.363 86.8382 172.384 87.3787 172.399L87.3693 172.724ZM90.6504 172.755C90.3737 172.758 90.0968 172.76 89.8195 172.76C89.5463 172.76 89.2734 172.758 89.0008 172.756L89.004 172.431C89.2755 172.433 89.5473 172.435 89.8195 172.435C90.0957 172.435 90.3716 172.433 90.6472 172.431L90.6504 172.755Z" fill="black"/>
</svg>
