<svg width="221" height="58" viewBox="0 0 221 58" fill="none" xmlns="http://www.w3.org/2000/svg">
<path d="M215.591 32.8418H218.712V48.2644H215.591V32.8418ZM219.176 52.2618C219.176 52.8292 218.978 53.2849 218.583 53.6287C218.187 53.9898 217.706 54.1703 217.138 54.1703C216.571 54.1703 216.09 53.9898 215.694 53.6287C215.299 53.2849 215.101 52.8292 215.101 52.2618C215.101 51.6945 215.299 51.2388 215.694 50.895C216.09 50.5339 216.571 50.3534 217.138 50.3534C217.706 50.3534 218.187 50.5339 218.583 50.895C218.978 51.2388 219.176 51.6945 219.176 52.2618Z" fill="white"/>
<path d="M207.708 32.8418H210.829V48.2644H207.708V32.8418ZM211.293 52.2618C211.293 52.8292 211.095 53.2849 210.7 53.6287C210.304 53.9898 209.823 54.1703 209.255 54.1703C208.688 54.1703 208.207 53.9898 207.811 53.6287C207.416 53.2849 207.218 52.8292 207.218 52.2618C207.218 51.6945 207.416 51.2388 207.811 50.895C208.207 50.5339 208.688 50.3534 209.255 50.3534C209.823 50.3534 210.304 50.5339 210.7 50.895C211.095 51.2388 211.293 51.6945 211.293 52.2618Z" fill="white"/>
<path d="M183.638 40.8105V37.3289H198.107V35.343H183.638V32.9961H200.015C200.789 32.9961 201.176 33.3829 201.176 34.1567V39.65H186.708V40.63C186.708 41.4381 187.172 41.8421 188.1 41.8421H201.408V44.1891H187.61C184.962 44.1891 183.638 43.0629 183.638 40.8105ZM203.858 48.7281H194.109V54.892H190.963V48.7281H181.24V46.2781H203.858V48.7281Z" fill="white"/>
<path d="M159.414 32.8176H166.532V35.1645H159.414V32.8176ZM169.911 38.7494H156.036V36.4282H169.911V38.7494ZM156.809 45.429C156.809 43.8988 157.385 42.5835 158.537 41.4831C159.706 40.3827 161.185 39.8325 162.973 39.8325C164.761 39.8325 166.231 40.3827 167.383 41.4831C168.553 42.5835 169.137 43.8988 169.137 45.429C169.137 46.9592 168.553 48.2745 167.383 49.3749C166.231 50.4753 164.761 51.0255 162.973 51.0255C161.185 51.0255 159.706 50.4753 158.537 49.3749C157.385 48.2745 156.809 46.9592 156.809 45.429ZM159.853 45.429C159.853 46.3919 160.162 47.1828 160.781 47.8017C161.4 48.4207 162.131 48.7302 162.973 48.7302C163.816 48.7302 164.546 48.4207 165.165 47.8017C165.784 47.1828 166.094 46.3919 166.094 45.429C166.094 44.4662 165.784 43.6753 165.165 43.0563C164.546 42.4374 163.816 42.1279 162.973 42.1279C162.131 42.1279 161.4 42.4374 160.781 43.0563C160.162 43.6753 159.853 44.4662 159.853 45.429ZM179.144 43.2626H175.843V54.894H172.774V32.7402H175.843V40.7868H179.144V43.2626Z" fill="white"/>
<path d="M128.226 32.9961V38.1283C128.226 39.1428 128.793 39.65 129.928 39.65H142.72V41.9969H129.438C126.566 41.9969 125.131 40.8535 125.131 38.5668V32.9961H128.226ZM145.402 46.5618H122.784V44.1117H145.402V46.5618ZM130.392 52.4419H142.952V54.8404H129.412C126.798 54.8404 125.492 53.4735 125.492 50.7398V48.1092H128.587V50.4819C128.587 51.7886 129.188 52.4419 130.392 52.4419Z" fill="white"/>
<path d="M102.712 37.098C102.712 37.9233 103.228 38.4735 104.259 38.7486C105.308 39.0237 106.744 39.1612 108.566 39.1612C110.372 39.1612 111.807 39.0237 112.873 38.7486C113.956 38.4735 114.498 37.9233 114.498 37.098C114.498 36.3071 113.956 35.7569 112.873 35.4475C111.807 35.1208 110.372 34.9574 108.566 34.9574C106.761 34.9574 105.334 35.1208 104.285 35.4475C103.236 35.7569 102.712 36.3071 102.712 37.098ZM99.5396 37.0722C99.5396 35.5764 100.313 34.4674 101.861 33.7453C103.425 33.0232 105.669 32.6621 108.592 32.6621C111.532 32.6621 113.776 33.0146 115.323 33.7195C116.888 34.4244 117.67 35.5334 117.67 37.0464C117.67 38.5939 116.888 39.7114 115.323 40.3992C113.776 41.0869 111.532 41.4308 108.592 41.4308C105.669 41.4308 103.425 41.0869 101.861 40.3992C100.313 39.7114 99.5396 38.6025 99.5396 37.0722ZM119.914 45.0672H110.165V47.2336H107.019V45.0672H97.2959V42.6429H119.914V45.0672ZM110.139 48.0073C110.139 49.2624 111.154 50.4402 113.183 51.5406C114.489 52.2455 116.08 52.6237 117.954 52.6753V54.9707C115.564 54.9019 113.561 54.4978 111.945 53.7585C110.518 53.1052 109.4 52.3658 108.592 51.5406C107.784 52.3658 106.666 53.1052 105.239 53.7585C103.623 54.4978 101.62 54.9019 99.2302 54.9707V52.6753C101.104 52.6237 102.695 52.2455 104.001 51.5406C106.03 50.4402 107.045 49.2624 107.045 48.0073V47.9041H110.139V48.0073Z" fill="white"/>
<path d="M66.3287 41.5605C66.3287 38.8439 66.8961 36.7033 68.0309 35.1387C69.1829 33.5741 70.8248 32.7918 72.9568 32.7918C75.0888 32.7918 76.7222 33.5741 77.857 35.1387C79.0089 36.7033 79.5849 38.8439 79.5849 41.5605C79.5849 44.2771 79.0089 46.4177 77.857 47.9823C76.7222 49.5469 75.0888 50.3292 72.9568 50.3292C70.8248 50.3292 69.1829 49.5469 68.0309 47.9823C66.8961 46.4177 66.3287 44.2771 66.3287 41.5605ZM69.3978 41.5863C69.3978 43.6667 69.6901 45.2485 70.2746 46.3317C70.8592 47.3977 71.7447 47.9307 72.931 47.9307C74.1346 47.9307 75.0286 47.3977 75.6132 46.3317C76.215 45.2485 76.5159 43.6667 76.5159 41.5863C76.5159 39.4887 76.215 37.8983 75.6132 36.8151C75.0286 35.7319 74.1346 35.1903 72.931 35.1903C71.7447 35.1903 70.8592 35.7319 70.2746 36.8151C69.6901 37.8983 69.3978 39.4887 69.3978 41.5863ZM82.8861 54.894V32.7402H85.9809V54.894H82.8861Z" fill="white"/>
<path d="M53.839 34.4682V43.7011H45.5604C42.8266 43.7011 41.4597 42.5061 41.4597 40.1162V32.9723H52.1627C53.2802 32.9723 53.839 33.471 53.839 34.4682ZM50.8216 35.3193H44.503V39.7036C44.503 40.804 45.0618 41.3542 46.1793 41.3542H50.8216V35.3193ZM60.4929 37.1246H63.7425V39.5231H60.4929V43.959H57.4239V32.7402H60.4929V37.1246ZM47.7525 52.4698H50.7184V54.8425H46.9015C44.1505 54.8425 42.775 53.4756 42.775 50.7418V45.6353H45.8441V50.5097C45.8441 51.8164 46.4802 52.4698 47.7525 52.4698ZM52.6785 44.8874H59.0744V47.0796H52.6785V44.8874ZM62.0661 50.1486H60.3124C60.6391 50.6301 60.8024 51.1716 60.8024 51.7734C60.8024 52.8738 60.364 53.7421 59.4871 54.3782C58.6102 55.0316 57.4497 55.3583 56.0054 55.3583C54.5612 55.3583 53.4092 55.0316 52.5495 54.3782C51.6898 53.7421 51.26 52.8738 51.26 51.7734C51.26 51.1716 51.4147 50.6301 51.7242 50.1486H49.6868V47.9823H62.0661V50.1486ZM56.0054 53.2435C56.5556 53.2435 57.0112 53.1059 57.3723 52.8308C57.7334 52.5729 57.9139 52.1947 57.9139 51.6961C57.9139 51.1802 57.742 50.7934 57.3981 50.5355C57.037 50.2776 56.5728 50.1486 56.0054 50.1486C55.438 50.1486 54.9824 50.2776 54.6385 50.5355C54.2775 50.7934 54.0969 51.1802 54.0969 51.6961C54.0969 52.1947 54.2775 52.5729 54.6385 52.8308C54.9996 53.1059 55.4552 53.2435 56.0054 53.2435Z" fill="white"/>
<path d="M138.12 2.75391H141.24V18.1765H138.12V2.75391ZM141.704 22.174C141.704 22.7413 141.507 23.197 141.111 23.5408C140.716 23.9019 140.234 24.0824 139.667 24.0824C139.1 24.0824 138.618 23.9019 138.223 23.5408C137.827 23.197 137.63 22.7413 137.63 22.174C137.63 21.6066 137.827 21.1509 138.223 20.8071C138.618 20.446 139.1 20.2655 139.667 20.2655C140.234 20.2655 140.716 20.446 141.111 20.8071C141.507 21.1509 141.704 21.6066 141.704 22.174Z" fill="white"/>
<path d="M114.05 10.7226V7.24096H128.518V5.25511H114.05V2.9082H130.427C131.201 2.9082 131.587 3.29506 131.587 4.06876V9.56208H117.119V10.5421C117.119 11.3502 117.583 11.7543 118.512 11.7543H131.82V14.1012H118.022C115.374 14.1012 114.05 12.975 114.05 10.7226ZM134.27 18.6402H124.521V24.8041H121.375V18.6402H111.652V16.1902H134.27V18.6402Z" fill="white"/>
<path d="M89.8259 2.72971H96.944V5.07663H89.8259V2.72971ZM100.323 8.66147H86.4474V6.34035H100.323V8.66147ZM87.2211 15.3411C87.2211 13.8109 87.7971 12.4956 88.949 11.3952C90.1182 10.2948 91.5968 9.74466 93.385 9.74466C95.1731 9.74466 96.6431 10.2948 97.7951 11.3952C98.9642 12.4956 99.5488 13.8109 99.5488 15.3411C99.5488 16.8714 98.9642 18.1867 97.7951 19.287C96.6431 20.3874 95.1731 20.9376 93.385 20.9376C91.5968 20.9376 90.1182 20.3874 88.949 19.287C87.7971 18.1867 87.2211 16.8714 87.2211 15.3411ZM90.2643 15.3411C90.2643 16.304 90.5738 17.0949 91.1928 17.7138C91.8118 18.3328 92.5425 18.6423 93.385 18.6423C94.2274 18.6423 94.9582 18.3328 95.5771 17.7138C96.1961 17.0949 96.5056 16.304 96.5056 15.3411C96.5056 14.3783 96.1961 13.5874 95.5771 12.9684C94.9582 12.3495 94.2274 12.04 93.385 12.04C92.5425 12.04 91.8118 12.3495 91.1928 12.9684C90.5738 13.5874 90.2643 14.3783 90.2643 15.3411ZM109.555 13.1748H106.254V24.8062H103.185V2.65234H106.254V10.6989H109.555V13.1748Z" fill="white"/>
<path d="M56.8835 2.26367H64.0016V4.50742H56.8835V2.26367ZM67.3801 7.52488H53.505V5.30692H67.3801V7.52488ZM60.4426 17.2736C58.6888 17.2736 57.2618 16.8352 56.1614 15.9583C55.061 15.0642 54.5108 13.9982 54.5108 12.7603C54.5108 11.5396 55.061 10.4908 56.1614 9.61389C57.2618 8.71983 58.6888 8.27279 60.4426 8.27279C62.1963 8.27279 63.6234 8.71983 64.7238 9.61389C65.8241 10.4908 66.3743 11.5396 66.3743 12.7603C66.3743 13.9982 65.8241 15.0642 64.7238 15.9583C63.6234 16.8352 62.1963 17.2736 60.4426 17.2736ZM60.4426 15.1072C61.2507 15.1072 61.9384 14.8837 62.5058 14.4367C63.0904 13.9896 63.3827 13.4308 63.3827 12.7603C63.3827 12.1069 63.0904 11.5568 62.5058 11.1097C61.9384 10.6627 61.2507 10.4392 60.4426 10.4392C59.6345 10.4392 58.9381 10.6627 58.3536 11.1097C57.7862 11.5568 57.5025 12.1069 57.5025 12.7603C57.5025 13.4308 57.7862 13.9896 58.3536 14.4367C58.9381 14.8837 59.6345 15.1072 60.4426 15.1072ZM73.3893 8.32438H76.5873V10.7487H73.3893V18.5631H70.3202V2.65052H73.3893V8.32438ZM61.5 22.3801H73.4924V24.7528H60.7521C58.0011 24.7528 56.6256 23.4718 56.6256 20.91V18.4341H59.7204V20.5489C59.7204 21.7697 60.3136 22.3801 61.5 22.3801Z" fill="white"/>
<path d="M30.0027 8.58365V2.80664H33.0718V5.25671H44.471V2.80664H47.5401V12.1427H40.5767V13.9222H50.3254V16.2949H27.7074V13.9222H37.4303V12.1427H33.8455C31.2836 12.1427 30.0027 10.9564 30.0027 8.58365ZM33.0718 8.53207C33.0718 9.40894 33.5188 9.84737 34.4129 9.84737H44.471V7.52625H33.0718V8.53207ZM30.2348 18.0745H45.9669C47.1188 18.0745 47.6948 18.6504 47.6948 19.8024V24.9604H44.6V20.4214H30.2348V18.0745Z" fill="white"/>
<path d="M5.39997 2.26367H11.9507V4.48163H5.39997V2.26367ZM14.6329 7.39593H2.61462V5.20376H14.6329V7.39593ZM8.67533 8.01489C10.2743 8.01489 11.5896 8.41894 12.6212 9.22703C13.67 10.0179 14.1944 11.0495 14.1944 12.3219C14.1944 13.5942 13.67 14.6344 12.6212 15.4425C11.5896 16.2334 10.2743 16.6288 8.67533 16.6288C7.07633 16.6288 5.75243 16.2334 4.70363 15.4425C3.67202 14.6344 3.15622 13.5942 3.15622 12.3219C3.15622 11.0495 3.67202 10.0179 4.70363 9.22703C5.75243 8.41894 7.07633 8.01489 8.67533 8.01489ZM8.67533 10.1297C7.9532 10.1297 7.35143 10.3274 6.87001 10.7229C6.38859 11.1011 6.14789 11.6341 6.14789 12.3219C6.14789 13.0096 6.38859 13.5512 6.87001 13.9466C7.35143 14.3249 7.9532 14.514 8.67533 14.514C9.39745 14.514 9.99923 14.3249 10.4806 13.9466C10.9621 13.5512 11.2028 13.0096 11.2028 12.3219C11.2028 11.6341 10.9621 11.1011 10.4806 10.7229C9.99923 10.3274 9.39745 10.1297 8.67533 10.1297ZM21.1578 2.65052H24.1753V15.8809H21.1578V10.3618H18.9914V15.3393H16.0255V2.65052H18.9914V7.93752H21.1578V2.65052ZM23.4015 20.8068C23.4015 22.1995 22.7396 23.3343 21.4157 24.2112C20.0918 25.088 18.3982 25.5265 16.335 25.5265C14.289 25.5265 12.5954 25.088 11.2543 24.2112C9.93045 23.3343 9.2685 22.1995 9.2685 20.8068C9.2685 19.4142 9.93045 18.2966 11.2543 17.4541C12.5954 16.5944 14.289 16.1646 16.335 16.1646C18.3982 16.1646 20.0918 16.5944 21.4157 17.4541C22.7396 18.2966 23.4015 19.4142 23.4015 20.8068ZM16.335 18.4599C15.1487 18.4599 14.1858 18.6663 13.4465 19.0789C12.7072 19.4744 12.3375 20.0503 12.3375 20.8068C12.3375 21.5806 12.6986 22.1737 13.4207 22.5864C14.16 22.999 15.1315 23.2053 16.335 23.2053C17.5214 23.2053 18.4842 23.0076 19.2235 22.6122C19.9629 22.2167 20.3325 21.6149 20.3325 20.8068C20.3325 20.0503 19.9543 19.4744 19.1977 19.0789C18.4584 18.6663 17.5042 18.4599 16.335 18.4599Z" fill="white"/>
<path fill-rule="evenodd" clip-rule="evenodd" d="M218.712 32.8404H215.591V48.263H218.712V32.8404ZM218.583 53.6274C218.978 53.2835 219.176 52.8279 219.176 52.2605C219.176 51.6931 218.978 51.2375 218.583 50.8936C218.187 50.5325 217.706 50.352 217.138 50.352C216.571 50.352 216.09 50.5325 215.694 50.8936C215.299 51.2375 215.101 51.6931 215.101 52.2605C215.101 52.8279 215.299 53.2835 215.694 53.6274C216.09 53.9884 216.571 54.169 217.138 54.169C217.706 54.169 218.187 53.9884 218.583 53.6274ZM219.727 54.9106C218.998 55.5701 218.1 55.8883 217.138 55.8883C216.177 55.8883 215.28 55.5702 214.55 54.911C213.756 54.2127 213.382 53.2724 213.382 52.2605C213.382 51.2542 213.752 50.3187 214.537 49.6216C214.132 49.307 213.872 48.8154 213.872 48.263V32.8404C213.872 31.8909 214.642 31.1211 215.591 31.1211H218.712C219.661 31.1211 220.431 31.8909 220.431 32.8404V48.263C220.431 48.8217 220.165 49.3182 219.752 49.6322C220.528 50.3282 220.895 51.2593 220.895 52.2605C220.895 53.2722 220.521 54.2123 219.727 54.9106Z" fill="#F6BAFF"/>
<path fill-rule="evenodd" clip-rule="evenodd" d="M210.829 32.8404H207.708V48.263H210.829V32.8404ZM210.7 53.6274C211.095 53.2835 211.293 52.8279 211.293 52.2605C211.293 51.6931 211.095 51.2375 210.7 50.8936C210.304 50.5325 209.823 50.352 209.255 50.352C208.688 50.352 208.207 50.5325 207.811 50.8936C207.416 51.2375 207.218 51.6931 207.218 52.2605C207.218 52.8279 207.416 53.2835 207.811 53.6274C208.207 53.9884 208.688 54.169 209.255 54.169C209.823 54.169 210.304 53.9884 210.7 53.6274ZM211.844 54.9106C211.114 55.5701 210.217 55.8883 209.255 55.8883C208.294 55.8883 207.397 55.5702 206.667 54.911C205.873 54.2127 205.499 53.2724 205.499 52.2605C205.499 51.2542 205.869 50.3187 206.654 49.6216C206.249 49.307 205.989 48.8154 205.989 48.263V32.8404C205.989 31.8909 206.758 31.1211 207.708 31.1211H210.829C211.778 31.1211 212.548 31.8909 212.548 32.8404V48.263C212.548 48.8217 212.281 49.3182 211.869 49.6322C212.645 50.3282 213.012 51.2593 213.012 52.2605C213.012 53.2722 212.638 54.2123 211.844 54.9106Z" fill="#F6BAFF"/>
<path fill-rule="evenodd" clip-rule="evenodd" d="M183.638 40.8092C183.638 43.0615 184.962 44.1877 187.61 44.1877H201.408V41.8408H188.1C187.52 41.8408 187.122 41.6832 186.904 41.368C186.773 41.1785 186.708 40.932 186.708 40.6286V39.6486H201.176V34.1553C201.176 33.3816 200.789 32.9947 200.015 32.9947H183.638V35.3416H198.107V37.3275H183.638V40.8092ZM182.235 36.3346C182.036 36.615 181.919 36.9576 181.919 37.3275V40.8092C181.919 42.2327 182.336 43.5828 183.409 44.5574H181.24C180.29 44.5574 179.521 45.3271 179.521 46.2767V48.7268C179.521 49.6763 180.29 50.4461 181.24 50.4461H189.244V54.8906C189.244 55.8402 190.013 56.61 190.963 56.61H194.109C195.059 56.61 195.829 55.8402 195.829 54.8906V50.4461H203.858C204.808 50.4461 205.577 49.6763 205.577 48.7268V46.2767C205.577 45.3271 204.808 44.5574 203.858 44.5574H203.087C203.114 44.4383 203.127 44.3146 203.127 44.1877V41.8408C203.127 41.3562 202.927 40.9184 202.604 40.6059C202.788 40.3323 202.895 40.003 202.895 39.6486V34.1553C202.895 33.5034 202.731 32.6987 202.101 32.0691C201.472 31.4395 200.667 31.2754 200.015 31.2754H183.638C182.689 31.2754 181.919 32.0452 181.919 32.9947V35.3416C181.919 35.7115 182.036 36.0541 182.235 36.3346ZM194.109 48.7268H203.858V46.2767H181.24V48.7268H190.963V54.8906H194.109V48.7268Z" fill="#F6BAFF"/>
<path fill-rule="evenodd" clip-rule="evenodd" d="M159.414 32.8163V35.1632H166.532V32.8163H159.414ZM168.252 34.7075V32.8163C168.252 31.8667 167.482 31.0969 166.532 31.0969H159.414C158.465 31.0969 157.695 31.8667 157.695 32.8163V34.7075H156.036C155.086 34.7075 154.316 35.4773 154.316 36.4269V38.748C154.316 39.6976 155.086 40.4674 156.036 40.4674H157.119C155.792 41.8369 155.09 43.5145 155.09 45.4277C155.09 47.4488 155.874 49.207 157.35 50.6169L157.359 50.6256C158.884 52.0612 160.801 52.7435 162.973 52.7435C165.143 52.7435 167.055 52.0626 168.566 50.6218C170.058 49.2151 170.856 47.4557 170.856 45.4277C170.856 43.5104 170.143 41.8334 168.804 40.4674H169.911C170.35 40.4674 170.75 40.3028 171.054 40.0321V54.8927C171.054 55.8423 171.824 56.612 172.773 56.612H175.843C176.792 56.612 177.562 55.8423 177.562 54.8927V44.9806H179.144C180.093 44.9806 180.863 44.2109 180.863 43.2613V40.7854C180.863 39.8359 180.093 39.0661 179.144 39.0661H177.562V32.7389C177.562 31.7893 176.792 31.0195 175.843 31.0195H172.773C171.824 31.0195 171.054 31.7893 171.054 32.7389V35.1428C170.75 34.872 170.35 34.7075 169.911 34.7075H168.252ZM156.036 36.4269V38.748H169.911V36.4269H156.036ZM165.936 40.4674C165.071 40.0432 164.083 39.8312 162.973 39.8312C161.863 39.8312 160.872 40.0432 160.001 40.4674C159.468 40.7264 158.981 41.0645 158.537 41.4818C157.385 42.5822 156.809 43.8975 156.809 45.4277C156.809 46.9579 157.385 48.2732 158.537 49.3736C159.706 50.474 161.185 51.0242 162.973 51.0242C164.761 51.0242 166.231 50.474 167.383 49.3736C168.552 48.2732 169.137 46.9579 169.137 45.4277C169.137 43.8975 168.552 42.5822 167.383 41.4818C166.947 41.0645 166.464 40.7264 165.936 40.4674ZM175.843 40.7854V32.7389H172.773V54.8927H175.843V43.2613H179.144V40.7854H175.843ZM160.781 47.8004C160.162 47.1814 159.853 46.3905 159.853 45.4277C159.853 44.4648 160.162 43.6739 160.781 43.055C161.4 42.436 162.131 42.1265 162.973 42.1265C163.816 42.1265 164.546 42.436 165.165 43.055C165.784 43.6739 166.094 44.4648 166.094 45.4277C166.094 46.3905 165.784 47.1814 165.165 47.8004C164.546 48.4193 163.816 48.7288 162.973 48.7288C162.131 48.7288 161.4 48.4193 160.781 47.8004ZM161.572 45.4277C161.572 45.9846 161.734 46.3218 161.997 46.5846C162.307 46.8952 162.606 47.0095 162.973 47.0095C163.34 47.0095 163.639 46.8952 163.95 46.5846C164.212 46.3218 164.374 45.9846 164.374 45.4277C164.374 44.8708 164.212 44.5335 163.95 44.2707C163.639 43.9602 163.34 43.8459 162.973 43.8459C162.606 43.8459 162.307 43.9602 161.997 44.2707C161.734 44.5335 161.572 44.8708 161.572 45.4277Z" fill="#F6BAFF"/>
<path fill-rule="evenodd" clip-rule="evenodd" d="M128.226 38.127V32.9947H125.131V38.5654C125.131 40.8522 126.566 41.9955 129.438 41.9955H142.72V39.6486H129.928C128.793 39.6486 128.226 39.1414 128.226 38.127ZM145.402 46.5604V44.1103H122.784V46.5604H145.402ZM128.587 48.1078H125.492V50.7384C125.492 53.4722 126.798 54.8391 129.412 54.8391H142.952V52.4406H130.392C129.188 52.4406 128.587 51.7872 128.587 50.4805V48.1078ZM123.772 48.2798H122.784C121.834 48.2798 121.064 47.51 121.064 46.5604V44.1103C121.064 43.1608 121.834 42.391 122.784 42.391H125.025C123.879 41.4183 123.411 40.0437 123.411 38.5654V32.9947C123.411 32.0452 124.181 31.2754 125.131 31.2754H128.226C129.175 31.2754 129.945 32.0452 129.945 32.9947V37.9293H142.72C143.669 37.9293 144.439 38.6991 144.439 39.6486V41.9955C144.439 42.1316 144.423 42.264 144.393 42.391H145.402C146.351 42.391 147.121 43.1608 147.121 44.1103V46.5604C147.121 47.51 146.351 48.2798 145.402 48.2798H130.306V50.4805C130.306 50.5828 130.312 50.6613 130.32 50.7195C130.341 50.7206 130.365 50.7212 130.392 50.7212H142.952C143.901 50.7212 144.671 51.491 144.671 52.4406V54.8391C144.671 55.7886 143.901 56.5584 142.952 56.5584H129.412C127.82 56.5584 126.315 56.1381 125.229 55.002C124.157 53.8803 123.772 52.3515 123.772 50.7384V48.2798Z" fill="#F6BAFF"/>
<path fill-rule="evenodd" clip-rule="evenodd" d="M104.259 38.7473C103.228 38.4722 102.712 37.922 102.712 37.0967C102.712 36.3058 103.236 35.7556 104.285 35.4461C105.334 35.1194 106.761 34.9561 108.566 34.9561C110.371 34.9561 111.807 35.1194 112.873 35.4461C113.956 35.7556 114.498 36.3058 114.498 37.0967C114.498 37.922 113.956 38.4722 112.873 38.7473C111.807 39.0223 110.371 39.1599 108.566 39.1599C106.744 39.1599 105.308 39.0223 104.259 38.7473ZM101.861 33.7439C100.313 34.4661 99.5395 35.575 99.5395 37.0709C99.5395 38.6011 100.313 39.7101 101.861 40.3978C102.328 40.6033 102.856 40.7781 103.445 40.9222C104.827 41.2604 106.542 41.4294 108.592 41.4294C110.653 41.4294 112.373 41.2604 113.749 40.9222C114.336 40.7781 114.861 40.6033 115.323 40.3978C116.888 39.7101 117.67 38.5925 117.67 37.0451C117.67 35.5321 116.888 34.4231 115.323 33.7182C113.776 33.0132 111.532 32.6608 108.592 32.6608C105.669 32.6608 103.425 33.0218 101.861 33.7439ZM116.033 32.1524C114.155 31.2975 111.623 30.9414 108.592 30.9414C105.57 30.9414 103.036 31.308 101.14 32.1828L101.134 32.1859C100.157 32.6418 99.3096 33.2736 98.7097 34.1335C98.1003 35.007 97.8202 36.0102 97.8202 37.0709C97.8202 38.1398 98.0957 39.1539 98.7097 40.0341C98.9399 40.3641 99.2065 40.6591 99.5027 40.9222H97.2958C96.3462 40.9222 95.5764 41.692 95.5764 42.6416V45.0659C95.5764 46.0154 96.3462 46.7852 97.2958 46.7852H105.299V47.2322C105.299 47.3701 105.316 47.5042 105.346 47.6327C105.332 47.7207 105.325 47.8109 105.325 47.9028V48.0059C105.325 48.2359 105.122 48.9749 103.184 50.0265C102.168 50.5743 100.856 50.9092 99.1827 50.9553C98.2519 50.9809 97.5107 51.7428 97.5107 52.674V54.9693C97.5107 55.4339 97.6987 55.8787 98.0319 56.2024C98.3651 56.5262 98.8151 56.7013 99.2795 56.6879C101.825 56.6147 104.07 56.1827 105.954 55.3207C106.936 54.8714 107.821 54.3677 108.592 53.8011C109.362 54.3677 110.248 54.8712 111.229 55.3205C113.113 56.1824 115.359 56.6147 117.904 56.6879C118.369 56.7013 118.819 56.5262 119.152 56.2024C119.485 55.8787 119.673 55.4339 119.673 54.9693V52.674C119.673 51.7428 118.932 50.9809 118.001 50.9553C116.328 50.9092 115.017 50.5746 114.001 50.0271C112.062 48.9751 111.859 48.236 111.859 48.0059V47.9028C111.859 47.8109 111.851 47.7207 111.838 47.6327C111.868 47.5042 111.884 47.3701 111.884 47.2322V46.7852H119.914C120.863 46.7852 121.633 46.0154 121.633 45.0659V42.6416C121.633 41.692 120.863 40.9222 119.914 40.9222H117.692C117.991 40.6581 118.26 40.3617 118.492 40.0298C119.112 39.1442 119.389 38.1224 119.389 37.0451C119.389 35.9762 119.107 34.9649 118.488 34.0875C117.88 33.2247 117.021 32.598 116.033 32.1524ZM97.2958 42.6416V45.0659H107.019V47.2322H110.165V45.0659H119.914V42.6416H97.2958ZM110.334 48.9434C110.251 48.7478 110.195 48.5502 110.165 48.3506C110.148 48.2364 110.139 48.1215 110.139 48.0059V47.9028H107.044V48.0059C107.044 48.1215 107.036 48.2364 107.019 48.3506C106.989 48.5502 106.932 48.7478 106.85 48.9434C106.466 49.8518 105.517 50.7171 104.001 51.5392C102.695 52.2441 101.104 52.6224 99.23 52.674V54.9693C99.8273 54.9521 100.4 54.914 100.949 54.8549C102.597 54.6776 104.027 54.3117 105.239 53.7572C106.541 53.161 107.586 52.4932 108.373 51.7538C108.448 51.6829 108.521 51.6114 108.592 51.5392C108.663 51.6114 108.736 51.6829 108.811 51.7538C109.598 52.4932 110.642 53.161 111.945 53.7572C113.157 54.3117 114.587 54.6776 116.234 54.8549C116.783 54.914 117.356 54.9521 117.954 54.9693V52.674C116.08 52.6224 114.489 52.2441 113.183 51.5392C111.667 50.7171 110.717 49.8518 110.334 48.9434ZM112.39 37.0961C112.383 37.0941 112.376 37.0921 112.369 37.09C111.536 36.8345 110.292 36.6754 108.566 36.6754C106.838 36.6754 105.608 36.835 104.796 37.0877L104.772 37.0952C104.766 37.0967 104.761 37.0982 104.756 37.0998C105.598 37.3115 106.847 37.4405 108.566 37.4405C110.27 37.4405 111.526 37.3112 112.39 37.0961Z" fill="#F6BAFF"/>
<path fill-rule="evenodd" clip-rule="evenodd" d="M68.0309 35.1374C66.8961 36.702 66.3287 38.8426 66.3287 41.5591C66.3287 44.2757 66.8961 46.4163 68.0309 47.9809C69.1828 49.5455 70.8248 50.3278 72.9568 50.3278C75.0888 50.3278 76.7222 49.5455 77.857 47.9809C79.0089 46.4163 79.5849 44.2757 79.5849 41.5591C79.5849 38.8426 79.0089 36.702 77.857 35.1374C76.7222 33.5728 75.0888 32.7905 72.9568 32.7905C70.8248 32.7905 69.1828 33.5728 68.0309 35.1374ZM79.2452 34.123C77.7503 32.065 75.5717 31.0711 72.9568 31.0711C70.3399 31.0711 68.1572 32.0659 66.6463 34.118L66.6391 34.1279C65.2206 36.0836 64.6094 38.6227 64.6094 41.5591C64.6094 44.4956 65.2206 47.0346 66.6391 48.9904L66.6463 49.0003C68.1572 51.0524 70.3399 52.0472 72.9568 52.0472C75.5717 52.0472 77.7503 51.0532 79.2452 48.9952C80.298 47.5632 80.9128 45.8178 81.1667 43.8325V54.8927C81.1667 55.8423 81.9365 56.612 82.8861 56.612H85.9809C86.9304 56.612 87.7002 55.8423 87.7002 54.8927V32.7389C87.7002 31.7893 86.9304 31.0195 85.9809 31.0195H82.8861C81.9365 31.0195 81.1667 31.7893 81.1667 32.7389V39.2858C80.9128 37.3005 80.298 35.5551 79.2452 34.123ZM70.2746 46.3303C69.69 45.2471 69.3978 43.6653 69.3978 41.5849C69.3978 39.4873 69.69 37.8969 70.2746 36.8137C70.8592 35.7305 71.7447 35.189 72.931 35.189C74.1346 35.189 75.0286 35.7305 75.6132 36.8137C76.215 37.8969 76.5159 39.4873 76.5159 41.5849C76.5159 43.6653 76.215 45.2471 75.6132 46.3303C75.0286 47.3963 74.1346 47.9293 72.931 47.9293C71.7447 47.9293 70.8592 47.3963 70.2746 46.3303ZM71.7851 45.5089C71.9562 45.8192 72.1251 45.973 72.2639 46.0565C72.4013 46.1392 72.6032 46.21 72.931 46.21C73.272 46.21 73.4823 46.1371 73.6238 46.0527C73.7662 45.9679 73.9357 45.8135 74.1057 45.5036L74.1102 45.4953C74.5043 44.7861 74.7965 43.548 74.7965 41.5849C74.7965 39.6017 74.5034 38.3565 74.1102 37.6487L74.1001 37.6303C73.9273 37.31 73.7552 37.1516 73.6134 37.0657C73.4736 36.981 73.2671 36.9083 72.931 36.9083C72.6082 36.9083 72.4101 36.9788 72.2743 37.0619C72.1352 37.147 71.9627 37.3061 71.7877 37.6303C71.4026 38.3438 71.1171 39.597 71.1171 41.5849C71.1171 43.5483 71.4006 44.7932 71.7851 45.5089ZM82.8861 54.8927H85.9809V32.7389H82.8861V54.8927Z" fill="#F6BAFF"/>
<path fill-rule="evenodd" clip-rule="evenodd" d="M53.839 34.4668C53.839 33.4696 53.2802 32.971 52.1626 32.971H41.4597V40.1149C41.4597 42.5048 42.8266 43.6997 45.5604 43.6997H53.839V34.4668ZM55.5584 43.1667V34.4668C55.5584 33.6493 55.3203 32.7364 54.5646 32.0621C53.8463 31.4211 52.9412 31.2516 52.1626 31.2516H41.4597C40.5101 31.2516 39.7404 32.0214 39.7404 32.971V40.1149C39.7404 41.6394 40.187 43.0784 41.3532 44.098C41.4489 44.1816 41.5474 44.2606 41.6485 44.3351C41.2853 44.6503 41.0557 45.1154 41.0557 45.634V50.7405C41.0557 52.3751 41.4684 53.9163 42.5947 55.0355C43.7189 56.1528 45.2636 56.5605 46.9014 56.5605H50.7184C51.1985 56.5605 51.6327 56.3637 51.9446 56.0463C53.1096 56.7746 54.5035 57.0763 56.0054 57.0763C57.6978 57.0763 59.251 56.6934 60.5058 55.762C61.8218 54.8033 62.5122 53.4282 62.5216 51.8056C63.2501 51.606 63.7854 50.9391 63.7854 50.1473V47.9809C63.7854 47.0313 63.0157 46.2616 62.0661 46.2616H60.7938V45.6507C61.5999 45.5085 62.2122 44.8046 62.2122 43.9576V41.2411H63.7425C64.692 41.2411 65.4618 40.4713 65.4618 39.5217V37.1232C65.4618 36.1736 64.692 35.4039 63.7425 35.4039H62.2122V32.7389C62.2122 31.7893 61.4425 31.0195 60.4929 31.0195H57.4239C56.4743 31.0195 55.7045 31.7893 55.7045 32.7389V43.1667H55.5584ZM52.6785 44.8861V47.0782H59.0744V44.8861H52.6785ZM50.9591 46.2616V45.4191H47.5501C47.5589 45.4895 47.5634 45.5612 47.5634 45.634V50.5083C47.5634 50.61 47.5701 50.6858 47.5781 50.7398C47.6213 50.745 47.6787 50.7491 47.7525 50.7491H48.0757C48.0057 50.5618 47.9674 50.359 47.9674 50.1473V47.9809C47.9674 47.0313 48.7372 46.2616 49.6868 46.2616H50.9591ZM47.7525 52.4684C46.4802 52.4684 45.844 51.8151 45.844 50.5083V45.634H42.775V50.7405C42.775 53.4742 44.1505 54.8411 46.9014 54.8411H50.7184V52.4684H47.7525ZM52.5495 54.3769C53.4092 55.0302 54.5611 55.3569 56.0054 55.3569C57.4496 55.3569 58.6102 55.0302 59.4871 54.3769C60.3387 53.7591 60.7767 52.9223 60.8013 51.8666C60.802 51.8353 60.8024 51.8038 60.8024 51.7721C60.8024 51.1703 60.639 50.6287 60.3124 50.1473H62.0661V47.9809H49.6868V50.1473H51.7242C51.5755 50.3787 51.4625 50.624 51.3852 50.8831C51.3017 51.1632 51.26 51.4595 51.26 51.7721C51.26 51.8038 51.2603 51.8353 51.2611 51.8666C51.2658 52.0758 51.2865 52.2764 51.3231 52.4684C51.4628 53.2011 51.8344 53.8086 52.4377 54.2909C52.4742 54.32 52.5114 54.3487 52.5495 54.3769ZM57.3723 52.8295C57.7333 52.5716 57.9139 52.1933 57.9139 51.6947C57.9139 51.1789 57.7419 50.792 57.3981 50.5341C57.037 50.2762 56.5728 50.1473 56.0054 50.1473C55.438 50.1473 54.9824 50.2762 54.6385 50.5341C54.2774 50.792 54.0969 51.1789 54.0969 51.6947C54.0969 52.1933 54.2774 52.5716 54.6385 52.8295C54.9996 53.1046 55.4552 53.2421 56.0054 53.2421C56.5556 53.2421 57.0112 53.1046 57.3723 52.8295ZM57.4239 43.9576H60.4929V39.5217H63.7425V37.1232H60.4929V32.7389H57.4239V43.9576ZM50.8216 35.3179V41.3528H46.1793C45.0617 41.3528 44.503 40.8026 44.503 39.7022V35.3179H50.8216ZM46.2223 37.0373V39.6335H49.1022V37.0373H46.2223Z" fill="#F6BAFF"/>
<path fill-rule="evenodd" clip-rule="evenodd" d="M136.4 2.75255C136.4 1.80298 137.17 1.0332 138.12 1.0332H141.24C142.19 1.0332 142.96 1.80298 142.96 2.75255V18.1751C142.96 18.7338 142.693 19.2303 142.28 19.5443C143.057 20.2403 143.424 21.1714 143.424 22.1726C143.424 23.1842 143.049 24.1243 142.256 24.8226C141.526 25.4822 140.629 25.8004 139.667 25.8004C138.705 25.8004 137.808 25.4823 137.079 24.823C136.285 24.1247 135.91 23.1844 135.91 22.1726C135.91 21.1663 136.281 20.2308 137.066 19.5337C136.661 19.2191 136.4 18.7275 136.4 18.1751V2.75255ZM141.111 20.8057C140.716 20.4446 140.234 20.2641 139.667 20.2641C139.1 20.2641 138.618 20.4446 138.223 20.8057C137.827 21.1496 137.63 21.6052 137.63 22.1726C137.63 22.74 137.827 23.1956 138.223 23.5395C138.618 23.9005 139.1 24.0811 139.667 24.0811C140.234 24.0811 140.716 23.9005 141.111 23.5395C141.507 23.1956 141.704 22.74 141.704 22.1726C141.704 21.6052 141.507 21.1496 141.111 20.8057ZM138.12 2.75255V18.1751H141.24V2.75255H138.12Z" fill="#F6BAFF"/>
<path fill-rule="evenodd" clip-rule="evenodd" d="M112.646 6.24668C112.448 5.96623 112.331 5.62364 112.331 5.25376V2.90685C112.331 1.95728 113.101 1.1875 114.05 1.1875H130.427C131.079 1.1875 131.883 1.35164 132.513 1.98123C133.143 2.61082 133.307 3.41553 133.307 4.06741V9.56073C133.307 9.91507 133.2 10.2444 133.016 10.518C133.338 10.8305 133.539 11.2683 133.539 11.7529V14.0998C133.539 14.2267 133.525 14.3504 133.499 14.4695H134.27C135.219 14.4695 135.989 15.2392 135.989 16.1888V18.6389C135.989 19.5885 135.219 20.3582 134.27 20.3582H126.24V24.8028C126.24 25.7523 125.47 26.5221 124.521 26.5221H121.375C120.425 26.5221 119.655 25.7523 119.655 24.8028V20.3582H111.652C110.702 20.3582 109.932 19.5885 109.932 18.6389V16.1888C109.932 15.2392 110.702 14.4695 111.652 14.4695H113.821C112.748 13.4949 112.331 12.1448 112.331 10.7213V7.23961C112.331 6.86973 112.448 6.52713 112.646 6.24668ZM121.375 18.6389V24.8028H124.521V18.6389H134.27V16.1888H111.652V18.6389H121.375ZM117.315 11.2801C117.185 11.0906 117.119 10.8442 117.119 10.5408V9.56073H131.587V4.06741C131.587 3.2937 131.201 2.90685 130.427 2.90685H114.05V5.25376H128.518V7.23961H114.05V10.7213C114.05 12.9736 115.374 14.0998 118.022 14.0998H131.82V11.7529H118.512C117.932 11.7529 117.533 11.5953 117.315 11.2801Z" fill="#F6BAFF"/>
<path fill-rule="evenodd" clip-rule="evenodd" d="M88.1065 2.72836C88.1065 1.77879 88.8763 1.00901 89.8259 1.00901H96.944C97.8936 1.00901 98.6633 1.77879 98.6633 2.72836V4.61964H100.323C100.761 4.61964 101.162 4.78415 101.466 5.05489V2.65099C101.466 1.70142 102.236 0.931641 103.185 0.931641H106.254C107.204 0.931641 107.974 1.70142 107.974 2.65099V8.97819H109.555C110.505 8.97819 111.275 9.74797 111.275 10.6975V13.1734C111.275 14.123 110.505 14.8927 109.555 14.8927H107.974V24.8048C107.974 25.7544 107.204 26.5241 106.254 26.5241H103.185C102.236 26.5241 101.466 25.7544 101.466 24.8048V9.94422C101.162 10.215 100.761 10.3795 100.323 10.3795H99.216C100.555 11.7455 101.268 13.4226 101.268 15.3398C101.268 17.3676 100.47 19.1269 98.978 20.5335C97.4668 21.9746 95.5544 22.6556 93.3849 22.6556C91.2129 22.6556 89.296 21.9734 87.7706 20.5377L87.7614 20.529C86.2855 19.1191 85.5017 17.3609 85.5017 15.3398C85.5017 13.4266 86.204 11.749 87.5309 10.3795H86.4474C85.4978 10.3795 84.728 9.60968 84.728 8.66011V6.33899C84.728 5.38942 85.4978 4.61964 86.4474 4.61964H88.1065V2.72836ZM89.8259 5.07527H96.944V2.72836H89.8259V5.07527ZM86.4474 6.33899V8.66011H100.323V6.33899H86.4474ZM96.3475 10.3795C95.4826 9.95536 94.495 9.7433 93.3849 9.7433C92.2748 9.7433 91.284 9.95536 90.4125 10.3795C89.8802 10.6385 89.3923 10.9766 88.949 11.3939C87.7971 12.4943 87.2211 13.8096 87.2211 15.3398C87.2211 16.87 87.7971 18.1853 88.949 19.2857C90.1182 20.3861 91.5968 20.9363 93.3849 20.9363C95.1731 20.9363 96.6431 20.3861 97.7951 19.2857C98.9642 18.1853 99.5488 16.87 99.5488 15.3398C99.5488 13.8096 98.9642 12.4943 97.7951 11.3939C97.3583 10.9766 96.8757 10.6385 96.3475 10.3795ZM106.254 13.1734H109.555V10.6975H106.254V2.65099H103.185V24.8048H106.254V13.1734ZM91.9837 15.3398C91.9837 15.8967 92.1458 16.234 92.4085 16.4967C92.7191 16.8073 93.0179 16.9216 93.3849 16.9216C93.7519 16.9216 94.0508 16.8073 94.3614 16.4967C94.6241 16.234 94.7862 15.8967 94.7862 15.3398C94.7862 14.7829 94.6241 14.4456 94.3613 14.1828C94.0508 13.8723 93.7519 13.758 93.3849 13.758C93.0179 13.758 92.7191 13.8723 92.4085 14.1828C92.1458 14.4456 91.9837 14.7829 91.9837 15.3398ZM91.1928 17.7125C90.5738 17.0935 90.2643 16.3026 90.2643 15.3398C90.2643 14.3769 90.5738 13.586 91.1928 12.9671C91.8117 12.3481 92.5425 12.0386 93.3849 12.0386C94.2274 12.0386 94.9581 12.3481 95.5771 12.9671C96.1961 13.586 96.5056 14.3769 96.5056 15.3398C96.5056 16.3026 96.1961 17.0935 95.5771 17.7125C94.9581 18.3314 94.2274 18.6409 93.3849 18.6409C92.5425 18.6409 91.8117 18.3314 91.1928 17.7125Z" fill="#F6BAFF"/>
<path fill-rule="evenodd" clip-rule="evenodd" d="M55.1642 2.26232C55.1642 1.31275 55.9339 0.542969 56.8835 0.542969H64.0016C64.9512 0.542969 65.721 1.31275 65.721 2.26232V3.58622H67.3801C67.8575 3.58622 68.2894 3.78072 68.6009 4.0948V2.64917C68.6009 1.6996 69.3707 0.929822 70.3202 0.929822H73.3893C74.3388 0.929822 75.1086 1.6996 75.1086 2.64917V6.60367H76.5872C77.5368 6.60367 78.3066 7.37345 78.3066 8.32302V10.7473C78.3066 11.6969 77.5368 12.4667 76.5872 12.4667H75.1086V18.5617C75.1086 19.5113 74.3388 20.2811 73.3893 20.2811H70.3202C69.3707 20.2811 68.6009 19.5113 68.6009 18.5617V8.73429C68.2894 9.04837 67.8575 9.24287 67.3801 9.24287H66.8008C67.6253 10.2295 68.0937 11.4092 68.0937 12.7589C68.0937 14.5937 67.2445 16.1241 65.8079 17.2913L65.7953 17.3016C64.5655 18.2815 63.0846 18.8029 61.4398 18.9486V20.5476C61.4398 20.5899 61.4411 20.6266 61.4432 20.6584C61.4605 20.659 61.4794 20.6593 61.5 20.6593H73.4924C74.442 20.6593 75.2118 21.4291 75.2118 22.3787V24.7514C75.2118 25.701 74.442 26.4707 73.4924 26.4707H60.7521C59.1408 26.4707 57.6121 26.0981 56.4855 25.049C55.3358 23.9783 54.9063 22.4872 54.9063 20.9087V18.4328C54.9063 18.0527 55.0296 17.7014 55.2384 17.4168C55.1885 17.3791 55.139 17.3407 55.0899 17.3016L55.0772 17.2913C53.6406 16.1241 52.7915 14.5937 52.7915 12.7589C52.7915 11.4092 53.2598 10.2295 54.0843 9.24287H53.505C52.5554 9.24287 51.7856 8.47309 51.7856 7.52352V5.30556C51.7856 4.35599 52.5554 3.58622 53.505 3.58622H55.1642V2.26232ZM56.8835 4.50607H64.0016V2.26232H56.8835V4.50607ZM53.505 5.30556V7.52352H67.3801V5.30556H53.505ZM64.2104 9.24287C63.1911 8.59525 61.9352 8.27144 60.4426 8.27144C58.95 8.27144 57.694 8.59525 56.6747 9.24287C56.4963 9.35618 56.3252 9.4794 56.1614 9.61253C55.061 10.4894 54.5108 11.5382 54.5108 12.7589C54.5108 13.9969 55.061 15.0629 56.1614 15.9569C56.5445 16.2623 56.9673 16.5144 57.4297 16.7134C58.108 17.0054 58.8716 17.183 59.7204 17.2461C59.9547 17.2635 60.1954 17.2722 60.4426 17.2722C60.6239 17.2722 60.8017 17.2675 60.976 17.2582C62.4879 17.1769 63.7371 16.7431 64.7237 15.9569C65.8241 15.0629 66.3743 13.9969 66.3743 12.7589C66.3743 11.5382 65.8241 10.4894 64.7237 9.61253C64.5599 9.4794 64.3888 9.35618 64.2104 9.24287ZM62.5058 11.1084C61.9384 10.6613 61.2507 10.4378 60.4426 10.4378C59.6345 10.4378 58.9381 10.6613 58.3536 11.1084C57.7862 11.5554 57.5025 12.1056 57.5025 12.7589C57.5025 13.4295 57.7862 13.9883 58.3536 14.4353C58.9381 14.8823 59.6345 15.1059 60.4426 15.1059C61.2507 15.1059 61.9384 14.8823 62.5058 14.4353C63.0904 13.9883 63.3827 13.4295 63.3827 12.7589C63.3827 12.1056 63.0904 11.5554 62.5058 11.1084ZM59.4083 13.0773C59.6616 13.2678 59.9791 13.3865 60.4426 13.3865C60.9131 13.3865 61.2135 13.2646 61.4417 13.0848L61.4614 13.0695C61.5874 12.9731 61.6279 12.907 61.6399 12.884C61.6493 12.8661 61.6633 12.8347 61.6633 12.7589C61.6633 12.6994 61.6528 12.6774 61.6451 12.6629C61.634 12.6421 61.5925 12.5744 61.4614 12.4741L61.4417 12.4589C61.2135 12.2791 60.9131 12.1572 60.4426 12.1572C59.979 12.1572 59.6614 12.276 59.4081 12.4665C59.293 12.5589 59.255 12.6218 59.2434 12.6442C59.2342 12.6621 59.2218 12.6908 59.2218 12.7589C59.2218 12.8431 59.2374 12.8811 59.2483 12.9026C59.2609 12.9273 59.298 12.9888 59.4083 13.0773ZM56.6256 18.4328V20.9087C56.6256 23.4705 58.0011 24.7514 60.7521 24.7514H73.4924V22.3787H61.5C60.3136 22.3787 59.7204 21.7683 59.7204 20.5476V18.4328H56.6256ZM73.3893 10.7473H76.5872V8.32302H73.3893V2.64917H70.3202V18.5617H73.3893V10.7473Z" fill="#F6BAFF"/>
<path fill-rule="evenodd" clip-rule="evenodd" d="M28.2834 2.80529C28.2834 1.85572 29.0531 1.08594 30.0027 1.08594H33.0718C34.0213 1.08594 34.7911 1.85572 34.7911 2.80529V3.53601H42.7517V2.80529C42.7517 1.85572 43.5215 1.08594 44.471 1.08594H47.5401C48.4896 1.08594 49.2594 1.85572 49.2594 2.80529V12.1413C49.2594 12.1615 49.2591 12.1816 49.2584 12.2015H50.3254C51.275 12.2015 52.0448 12.9713 52.0448 13.9209V16.2936C52.0448 17.2431 51.275 18.0129 50.3254 18.0129H49.011C49.313 18.5871 49.4142 19.2193 49.4142 19.801V24.9591C49.4142 25.9087 48.6444 26.6784 47.6948 26.6784H44.6C43.6504 26.6784 42.8806 25.9087 42.8806 24.9591V22.1394H30.2348C29.2853 22.1394 28.5155 21.3696 28.5155 20.42V18.0731C28.5155 18.053 28.5158 18.0329 28.5165 18.0129H27.7074C26.7578 18.0129 25.988 17.2431 25.988 16.2936V13.9209C25.988 12.9713 26.7578 12.2015 27.7074 12.2015H29.4906C28.6149 11.2114 28.2834 9.92343 28.2834 8.5823V2.80529ZM37.4303 12.1413V13.9209H27.7074V16.2936H50.3254V13.9209H40.5767V12.1413H47.5401V2.80529H44.471V5.25536H33.0718V2.80529H30.0027V8.5823C30.0027 10.955 31.2836 12.1413 33.8455 12.1413H37.4303ZM44.6 20.42V24.9591H47.6948V19.801C47.6948 18.6491 47.1188 18.0731 45.9669 18.0731H30.2348V20.42H44.6ZM33.2122 9.24424C33.1186 9.05231 33.0718 8.81447 33.0718 8.53072V7.5249H44.471V9.84602H34.4128C33.8081 9.84602 33.4079 9.64543 33.2122 9.24424Z" fill="#F6BAFF"/>
<path fill-rule="evenodd" clip-rule="evenodd" d="M3.68061 2.26232C3.68061 1.31275 4.45039 0.542969 5.39996 0.542969H11.9507C12.9002 0.542969 13.67 1.31275 13.67 2.26232V3.48306H14.3062V2.64917C14.3062 1.6996 15.076 0.929822 16.0255 0.929822H18.9914C19.402 0.929822 19.7789 1.07373 20.0746 1.31386C20.3703 1.07373 20.7472 0.929822 21.1578 0.929822H24.1752C25.1248 0.929822 25.8946 1.6996 25.8946 2.64917V15.8796C25.8946 16.8291 25.1248 17.5989 24.1752 17.5989H24.0872C24.7533 18.5019 25.1209 19.5766 25.1209 20.8055C25.1209 22.8634 24.091 24.5001 22.3651 25.6432C20.6866 26.755 18.636 27.2445 16.335 27.2445C14.0466 27.2445 12.0023 26.7531 10.3134 25.6488L10.3049 25.6433C8.579 24.5001 7.54914 22.8634 7.54914 20.8055C7.54914 19.8943 7.75128 19.0678 8.12734 18.3332C6.45496 18.2491 4.93832 17.7715 3.66841 16.8139C3.66001 16.8076 3.65165 16.8011 3.64336 16.7946C2.21024 15.672 1.43686 14.1395 1.43686 12.3205C1.43686 11.1068 1.78152 10.0218 2.43952 9.10512C1.57219 9.01739 0.895264 8.28504 0.895264 7.39457V5.2024C0.895264 4.25283 1.66504 3.48306 2.61461 3.48306H3.68061V2.26232ZM5.39996 4.48028H11.9507V2.26232H5.39996V4.48028ZM2.61461 5.2024V7.39457H14.6329V5.2024H2.61461ZM12.4732 9.11392C11.4648 8.38033 10.1988 8.01354 8.67532 8.01354C7.15182 8.01354 5.87805 8.38033 4.85401 9.11392C4.80327 9.15027 4.75314 9.18753 4.70362 9.22568C3.67201 10.0166 3.15621 11.0482 3.15621 12.3205C3.15621 13.5928 3.67201 14.633 4.70362 15.4411C5.75242 16.232 7.07632 16.6275 8.67532 16.6275C8.97167 16.6275 9.2583 16.6139 9.53517 16.5867C9.90193 16.5507 10.2516 16.4909 10.5841 16.4072C10.5855 16.4069 10.5869 16.4065 10.5883 16.4062C11.3575 16.2121 12.0352 15.8904 12.6212 15.4411C12.8936 15.2313 13.1306 15.0058 13.3322 14.7646C13.907 14.0771 14.1944 13.2624 14.1944 12.3205C14.1944 11.0482 13.67 10.0166 12.6212 9.22568C12.5725 9.18753 12.5232 9.15027 12.4732 9.11392ZM14.2097 16.3396C13.9466 16.3864 13.6912 16.4426 13.4434 16.5082C13.4422 16.5085 13.4411 16.5088 13.44 16.5091C12.6295 16.7237 11.9009 17.0383 11.2543 17.4528C10.8863 17.687 10.5693 17.9425 10.3036 18.2193C9.61352 18.9379 9.26849 19.8 9.26849 20.8055C9.26849 22.1982 9.93044 23.3329 11.2543 24.2098C12.5954 25.0867 14.289 25.5251 16.335 25.5251C18.3982 25.5251 20.0918 25.0867 21.4157 24.2098C22.7396 23.3329 23.4015 22.1982 23.4015 20.8055C23.4015 19.4919 22.8126 18.423 21.6348 17.5989C21.5639 17.5493 21.4908 17.5006 21.4157 17.4528C21.3312 17.3979 21.2453 17.3448 21.1578 17.2935C20.7927 17.0792 20.4015 16.8954 19.984 16.742C19.859 16.6961 19.7317 16.6529 19.602 16.6125C19.404 16.5507 19.2004 16.4953 18.9914 16.4463C18.1871 16.2576 17.3016 16.1632 16.335 16.1632C16.2309 16.1632 16.1278 16.1644 16.0255 16.1666C15.524 16.1775 15.0444 16.2152 14.5867 16.2796C14.4594 16.2975 14.3337 16.3175 14.2097 16.3396ZM19.1977 19.0775C19.9542 19.473 20.3325 20.049 20.3325 20.8055C20.3325 21.6136 19.9628 22.2154 19.2235 22.6108C18.4842 23.0063 17.5214 23.204 16.335 23.204C15.1315 23.204 14.16 22.9977 13.4207 22.585C12.6986 22.1724 12.3375 21.5792 12.3375 20.8055C12.3375 20.049 12.7072 19.473 13.4465 19.0775C14.1858 18.6649 15.1487 18.4586 16.335 18.4586C17.5042 18.4586 18.4584 18.6649 19.1977 19.0775ZM14.2666 21.0881C14.665 21.308 15.3151 21.4846 16.335 21.4846C17.3489 21.4846 18.0047 21.3129 18.4126 21.0947C18.4902 21.0532 18.5352 21.0185 18.5591 20.9971C18.5818 20.9766 18.5889 20.9651 18.5902 20.963C18.5914 20.9611 18.5953 20.9548 18.6001 20.9368C18.6051 20.9174 18.6131 20.8761 18.6131 20.8055C18.6131 20.7729 18.6103 20.7541 18.6087 20.7461C18.5956 20.7304 18.5431 20.6754 18.4012 20.6013C18.3873 20.594 18.3735 20.5865 18.3598 20.5789C17.9557 20.3534 17.3172 20.1779 16.335 20.1779C15.3305 20.1779 14.6853 20.3551 14.2845 20.5789C14.2755 20.5839 14.2665 20.5888 14.2574 20.5936C14.1726 20.639 14.122 20.677 14.0942 20.7013C14.0805 20.7134 14.0721 20.7222 14.0676 20.7274C14.0656 20.7297 14.0642 20.7314 14.0633 20.7326C14.0619 20.7383 14.0569 20.7606 14.0569 20.8055C14.0569 20.8646 14.0637 20.8981 14.0676 20.9128C14.0712 20.9264 14.0744 20.9324 14.077 20.9367C14.0796 20.941 14.1158 21.0007 14.2666 21.0881ZM18.6117 20.7499C18.6116 20.7499 18.6117 20.75 18.6117 20.7499V20.7499ZM21.1578 15.8796H24.1752V2.64917H21.1578V7.93617H18.9914V2.64917H16.0255V15.338H18.9914V10.3604H21.1578V15.8796ZM6.87 10.7215C6.38858 11.0998 6.14787 11.6328 6.14787 12.3205C6.14787 13.0082 6.38858 13.5498 6.87 13.9453C7.35142 14.3235 7.95319 14.5127 8.67532 14.5127C9.39744 14.5127 9.99921 14.3235 10.4806 13.9453C10.962 13.5498 11.2028 13.0082 11.2028 12.3205C11.2028 11.6328 10.962 11.0998 10.4806 10.7215C9.99921 10.3261 9.39744 10.1283 8.67532 10.1283C7.95319 10.1283 7.35142 10.3261 6.87 10.7215ZM9.40211 12.6058C9.43628 12.5755 9.44562 12.5565 9.45107 12.5442C9.45928 12.5257 9.48341 12.4621 9.48341 12.3205C9.48341 12.1782 9.45905 12.121 9.45526 12.1126C9.45406 12.1099 9.45303 12.108 9.45205 12.1064C9.45104 12.1047 9.45009 12.1034 9.44903 12.1021C9.44672 12.0992 9.43845 12.0892 9.41838 12.0735C9.4086 12.0658 9.3989 12.058 9.38929 12.0501C9.26325 11.9466 9.06598 11.8477 8.67532 11.8477C8.28465 11.8477 8.08738 11.9466 7.96134 12.0501C7.95173 12.058 7.94203 12.0658 7.93225 12.0735C7.91218 12.0892 7.90391 12.0992 7.9016 12.1021C7.89951 12.1047 7.89781 12.1072 7.89537 12.1126C7.89158 12.121 7.86722 12.1782 7.86722 12.3205C7.86722 12.4621 7.89135 12.5257 7.89957 12.5442C7.90501 12.5565 7.91436 12.5755 7.94852 12.6058C8.07638 12.7009 8.2836 12.7933 8.67532 12.7933C9.06704 12.7933 9.27425 12.7009 9.40211 12.6058Z" fill="#F6BAFF"/>
</svg>
