<svg width="181" height="188" viewBox="0 0 181 188" fill="none" xmlns="http://www.w3.org/2000/svg">
<path d="M73.3733 12.7467C82.1186 -0.767146 101.891 -0.767143 110.636 12.7467L116.007 21.0464L125.231 17.4889C140.25 11.6963 156.246 23.3182 155.378 39.3916L154.844 49.2632L164.398 51.8066C179.953 55.9478 186.063 74.7526 175.913 87.2459L169.679 94.9188L175.913 102.592C186.063 115.085 179.953 133.89 164.398 138.031L154.844 140.574L155.378 150.446C156.246 166.519 140.249 178.141 125.231 172.349L116.007 168.791L110.636 177.091C101.891 190.605 82.1186 190.605 73.3733 177.091L68.0023 168.791L58.7786 172.349C43.7602 178.141 27.764 166.519 28.6321 150.446L29.1653 140.574L19.6121 138.031C4.05718 133.89 -2.05286 115.085 8.09716 102.592L14.3309 94.9188L8.09716 87.2459C-2.05286 74.7526 4.05718 55.9478 19.6121 51.8066L29.1653 49.2632L28.6321 39.3916C27.764 23.3182 43.7602 11.6963 58.7786 17.4889L68.0023 21.0464L73.3733 12.7467Z" fill="black" fill-opacity="0.15"/>
<path d="M71.1541 10.528C79.8994 -2.9859 99.6719 -2.98589 108.417 10.528L113.788 18.8277L123.012 15.2701C138.03 9.47751 154.027 21.0995 153.158 37.1728L152.625 47.0444L162.178 49.5878C177.733 53.7291 183.843 72.5338 173.693 85.0271L167.46 92.7L173.693 100.373C183.843 112.866 177.733 131.671 162.178 135.812L152.625 138.356L153.158 148.227C154.027 164.301 138.03 175.923 123.012 170.13L113.788 166.572L108.417 174.872C99.6719 188.386 79.8994 188.386 71.1541 174.872L65.7831 166.572L56.5594 170.13C41.541 175.923 25.5447 164.301 26.4129 148.227L26.9461 138.356L17.3929 135.812C1.83794 131.671 -4.2721 112.866 5.87792 100.373L12.1116 92.7L5.87792 85.0271C-4.2721 72.5338 1.83794 53.7291 17.3929 49.5878L26.9461 47.0444L26.4129 37.1728C25.5447 21.0995 41.541 9.4775 56.5594 15.2701L65.7831 18.8277L71.1541 10.528Z" fill="#FFA9A9"/>
<ellipse cx="139.164" cy="25.0124" rx="2.77407" ry="2.77407" fill="white"/>
<ellipse cx="169.679" cy="66.6237" rx="2.77407" ry="2.77407" fill="white"/>
<ellipse cx="169.679" cy="118.221" rx="2.77407" ry="2.77407" fill="white"/>
<ellipse cx="139.164" cy="160.387" rx="2.77407" ry="2.77407" fill="white"/>
<ellipse cx="89.2309" cy="177.032" rx="2.77407" ry="2.77407" fill="white"/>
<ellipse cx="42.0716" cy="160.387" rx="2.77407" ry="2.77407" fill="white"/>
<ellipse cx="11.5568" cy="118.221" rx="2.77407" ry="2.77407" fill="white"/>
<ellipse cx="11.5568" cy="66.6237" rx="2.77407" ry="2.77407" fill="white"/>
<ellipse cx="40.4072" cy="26.6764" rx="2.77407" ry="2.77407" fill="white"/>
<ellipse cx="89.2309" cy="8.92251" rx="2.77407" ry="2.77407" fill="white"/>
<ellipse cx="113.643" cy="18.3541" rx="2.77407" ry="2.77407" fill="white"/>
<ellipse cx="65.3738" cy="18.3541" rx="2.77407" ry="2.77407" fill="white"/>
<ellipse cx="26.5368" cy="46.6491" rx="2.77407" ry="2.77407" fill="white"/>
<ellipse cx="11.745" cy="91.7741" rx="2.77407" ry="2.77407" fill="white"/>
<ellipse cx="26.5368" cy="138.749" rx="2.77407" ry="2.77407" fill="white"/>
<ellipse cx="65.3738" cy="167.044" rx="2.77407" ry="2.77407" fill="white"/>
<ellipse cx="115.307" cy="167.044" rx="2.77407" ry="2.77407" fill="white"/>
<ellipse cx="154.144" cy="138.749" rx="2.77407" ry="2.77407" fill="white"/>
<ellipse cx="167.46" cy="92.6999" rx="2.77407" ry="2.77407" fill="white"/>
<ellipse cx="153.034" cy="47.2038" rx="2.77407" ry="2.77407" fill="white"/>
</svg>
