<svg width="250" height="160" viewBox="0 0 250 160" fill="none" xmlns="http://www.w3.org/2000/svg">
<path fill-rule="evenodd" clip-rule="evenodd" d="M33.7261 4.44336C17.1575 4.44336 3.72607 17.8748 3.72607 34.4433V105.151C3.72607 120.54 15.3143 133.223 30.2411 134.95L46.4507 157.838L53.8433 159.682L52.2663 135.151H220C236.569 135.151 250 121.719 250 105.151V34.4434C250 17.8748 236.569 4.44336 220 4.44336H33.7261Z" fill="#0F333C"/>
<path fill-rule="evenodd" clip-rule="evenodd" d="M30.0005 0.253906C13.4319 0.253906 0.000488281 13.6853 0.000488281 30.2539V100.961C0.000488281 117.53 13.4319 130.961 30.0005 130.961H33.5176L53.79 159.979V130.961H216.275C232.843 130.961 246.275 117.53 246.275 100.961V30.2539C246.275 13.6854 232.843 0.253906 216.275 0.253906H30.0005Z" fill="#9BD6E3"/>
<mask id="mask0_706_11845" style="mask-type:alpha" maskUnits="userSpaceOnUse" x="0" y="0" width="247" height="131">
<rect x="0.000488281" y="0.253906" width="246.274" height="130.707" rx="30" fill="#FFB338"/>
</mask>
<g mask="url(#mask0_706_11845)">
<path d="M20.0621 7.81697L20.4826 15.0894L26.7118 18.8658L19.9252 21.513L18.2586 28.6043L13.6438 22.968L6.3845 23.5742L10.3189 17.4436L7.49915 10.7269L14.5455 12.5743L20.0621 7.81697Z" fill="white"/>
<path d="M244.462 108.087L244.956 116.635L252.278 121.074L244.301 124.186L242.342 132.521L236.917 125.896L228.384 126.609L233.009 119.403L229.695 111.508L237.977 113.679L244.462 108.087Z" fill="white"/>
<path d="M182.32 122.384L182.677 128.56L187.967 131.767L182.203 134.015L180.788 140.037L176.869 135.251L170.704 135.765L174.045 130.559L171.651 124.855L177.635 126.424L182.32 122.384Z" fill="white"/>
<path d="M209.168 -0.120124L209.525 6.05586L214.815 9.26296L209.051 11.511L207.636 17.5332L203.717 12.7467L197.552 13.2615L200.893 8.05512L198.499 2.3511L204.483 3.91997L209.168 -0.120124Z" fill="white"/>
<path d="M33.8823 -7.5458L34.207 -1.92897L39.0182 0.987767L33.7766 3.03232L32.4893 8.50928L28.9251 4.15606L23.3184 4.62427L26.3572 -0.110722L24.1793 -5.29832L29.6216 -3.87148L33.8823 -7.5458Z" fill="white"/>
<path d="M80.7673 117.672L81.1863 124.919L87.3939 128.683L80.6309 131.321L78.97 138.387L74.3712 132.771L67.1371 133.375L71.0579 127.265L68.2479 120.572L75.2699 122.413L80.7673 117.672Z" fill="white"/>
<path d="M24.1664 94.5013L24.4972 100.221L29.3968 103.192L24.0588 105.274L22.7478 110.852L19.1181 106.418L13.4082 106.895L16.5029 102.073L14.285 96.7902L19.8274 98.2432L24.1664 94.5013Z" fill="white"/>
<path d="M33.3918 112.035L33.7489 118.211L39.039 121.418L33.2756 123.666L31.8602 129.689L27.9411 124.902L21.7763 125.417L25.1176 120.21L22.7229 114.506L28.707 116.075L33.3918 112.035Z" fill="white"/>
<path d="M237.389 -5.01956L237.83 2.61199L244.367 6.57496L237.245 9.35288L235.496 16.7944L230.653 10.8797L223.035 11.5159L227.164 5.08244L224.205 -1.96592L231.6 -0.0272805L237.389 -5.01956Z" fill="white"/>
<path d="M238.562 89.5071L242.491 93.6747L248.151 92.8008L245.402 97.8254L247.982 102.939L242.354 101.877L238.288 105.911L237.559 100.23L232.466 97.6095L237.644 95.1607L238.562 89.5071Z" fill="white"/>
<path d="M10.097 114.986L9.80876 121.166L14.736 124.906L8.76976 126.542L6.7347 132.384L3.33561 127.215L-2.84931 127.085L1.01613 122.255L-0.771308 116.332L5.01676 118.516L10.097 114.986Z" fill="white"/>
</g>
</svg>
