<svg width="181" height="147" viewBox="0 0 181 147" fill="none" xmlns="http://www.w3.org/2000/svg">
<path d="M6.24384 34.4359C22.8388 -14.9726 74.6865 6.44598 90.6061 30.0341C102.03 4.50591 165.742 -14.7404 178.923 39.7175C188.526 79.3935 163.695 113.892 90.606 146.672C37.1019 126.464 -9.57395 81.5304 6.24384 34.4359Z" fill="black" fill-opacity="0.15"/>
<path d="M4.02161 30.8812C20.6166 -18.5273 72.4643 2.89129 88.3838 26.4794C99.8078 0.951225 163.52 -18.2951 176.7 36.1628C186.304 75.8388 161.473 110.338 88.3838 143.117C34.8797 122.909 -11.7962 77.9758 4.02161 30.8812Z" fill="#FF965E"/>
<path fill-rule="evenodd" clip-rule="evenodd" d="M88.373 28.4683C80.4094 17.5299 64.1643 7.26045 47.8298 5.28741C39.4979 4.28101 31.1161 5.43013 23.7938 9.77835C16.4679 14.1287 10.2474 21.6547 6.19528 33.3193C-1.5454 55.6018 6.02547 77.3412 21.9784 95.841C37.9279 114.337 62.2921 129.647 88.294 139.142C88.4009 139.182 88.5188 139.178 88.6233 139.133C124.096 123.751 147.917 107.943 161.702 91.2806C175.508 74.5931 179.238 57.0576 174.545 38.3105C171.325 25.4487 165.007 16.9 157.137 11.715C149.274 6.53455 139.903 4.73862 130.614 5.30355C121.326 5.86843 112.097 8.79435 104.491 13.0863C97.1749 17.214 91.3186 22.6288 88.373 28.4683ZM24.2476 10.5426C17.1338 14.7671 11.0314 22.1067 7.03495 33.6109C-0.56762 55.4959 6.8277 76.9103 22.6515 95.2605C38.4449 113.575 62.598 128.785 88.4324 138.247C123.766 122.909 147.385 107.192 161.017 90.7139C174.649 74.2361 178.304 56.9892 173.682 38.5263C170.509 25.8515 164.308 17.5041 156.648 12.4573C148.981 7.40606 139.812 5.63465 130.668 6.1908C121.523 6.74699 112.424 9.63056 104.927 13.8605C97.4232 18.0945 91.5675 23.6519 88.8498 29.5236C88.783 29.668 88.6441 29.7657 88.4855 29.7796C88.327 29.7936 88.1731 29.7218 88.0821 29.5913C80.4341 18.6349 64.1141 8.14975 47.7232 6.16989C39.5396 5.18139 31.365 6.31611 24.2476 10.5426Z" fill="#FFF5A8"/>
</svg>
