<svg width="538" height="343" viewBox="0 0 538 343" fill="none" xmlns="http://www.w3.org/2000/svg">
<path fill-rule="evenodd" clip-rule="evenodd" d="M38.9067 9.06543C22.3382 9.06543 8.90674 22.4969 8.90674 39.0654V259.693C8.90674 276.262 22.3382 289.693 38.9067 289.693H420.699L417.087 342.363L434.022 338.404L470.833 289.693H507.657C524.225 289.693 537.657 276.262 537.657 259.693V39.0654C537.657 22.4969 524.225 9.06543 507.657 9.06543H38.9067Z" fill="#0F333C"/>
<path fill-rule="evenodd" clip-rule="evenodd" d="M30.9067 0.0654297C14.3382 0.0654297 0.906738 13.4969 0.906738 30.0654V250.693C0.906738 267.262 14.3382 280.693 30.9067 280.693H416.973V342.995L463.416 280.693H499.657C516.225 280.693 529.657 267.262 529.657 250.693V30.0654C529.657 13.4969 516.225 0.0654297 499.657 0.0654297H30.9067Z" fill="#9BD6E3"/>
<mask id="mask0_706_11805" style="mask-type:alpha" maskUnits="userSpaceOnUse" x="0" y="0" width="530" height="281">
<rect x="0.906738" y="0.0654297" width="528.75" height="280.628" rx="30" fill="#FFB338"/>
</mask>
<g mask="url(#mask0_706_11805)">
<path d="M43.9791 16.303L44.8818 31.9168L58.2559 40.0248L43.6853 45.7083L40.1069 60.9334L30.199 48.8321L14.6133 50.1337L23.0605 36.9712L17.0065 22.5506L32.1351 26.5169L43.9791 16.303Z" fill="white"/>
<path d="M525.763 231.584L526.824 249.937L542.545 259.467L525.418 266.148L521.212 284.044L509.565 269.819L491.246 271.349L501.175 255.878L494.059 238.927L511.841 243.589L525.763 231.584Z" fill="white"/>
<path d="M392.346 262.276L393.113 275.536L404.471 282.422L392.097 287.248L389.058 300.178L380.644 289.901L367.408 291.007L374.582 279.829L369.44 267.582L382.288 270.95L392.346 262.276Z" fill="white"/>
<path d="M449.988 -0.736366L450.755 12.5234L462.112 19.4091L449.738 24.2357L446.699 37.1654L438.285 26.8886L425.049 27.9939L432.223 16.8159L427.082 4.56934L439.93 7.93771L449.988 -0.736366Z" fill="white"/>
<path d="M73.6506 -16.6839L74.3478 -4.62462L84.6773 1.63761L73.4237 6.02726L70.6599 17.7863L63.0075 8.43993L50.97 9.44517L57.4942 -0.72084L52.8184 -11.8586L64.5029 -8.79518L73.6506 -16.6839Z" fill="white"/>
<path d="M174.314 252.162L175.214 267.721L188.542 275.801L174.022 281.465L170.456 296.637L160.582 284.578L145.051 285.875L153.469 272.758L147.435 258.388L162.512 262.34L174.314 252.162Z" fill="white"/>
<path d="M52.7922 202.415L53.5023 214.697L64.0218 221.074L52.5611 225.544L49.7465 237.52L41.9534 228.001L29.6944 229.025L36.3386 218.672L31.5767 207.329L43.4762 210.449L52.7922 202.415Z" fill="white"/>
<path d="M72.5978 240.059L73.3644 253.318L84.7222 260.204L72.3483 265.031L69.3094 277.96L60.8952 267.683L47.6593 268.789L54.833 257.611L49.6917 245.364L62.5394 248.733L72.5978 240.059Z" fill="white"/>
<path d="M510.577 -11.256L511.524 5.1289L525.559 13.6374L510.269 19.6016L506.514 35.5785L496.116 22.8797L479.761 24.2455L488.625 10.433L482.272 -4.69986L498.148 -0.537614L510.577 -11.256Z" fill="white"/>
<path d="M513.096 191.692L521.532 200.64L533.685 198.764L527.782 209.552L533.322 220.531L521.238 218.25L512.508 226.911L510.943 214.714L500.008 209.088L511.125 203.831L513.096 191.692Z" fill="white"/>
<path d="M22.5843 246.397L21.9655 259.665L32.5441 267.696L19.7347 271.208L15.3655 283.75L8.06763 272.653L-5.21138 272.374L3.08771 262.004L-0.749911 249.288L11.677 253.977L22.5843 246.397Z" fill="white"/>
</g>
</svg>
