<svg width="181" height="173" viewBox="0 0 181 173" fill="none" xmlns="http://www.w3.org/2000/svg">
<path d="M82.5904 5.92424C85.9875 -0.959113 95.803 -0.959127 99.2001 5.92423L119.837 47.7392C121.186 50.4726 123.794 52.3671 126.81 52.8054L172.956 59.5108C180.552 60.6146 183.585 69.9496 178.088 75.3076L144.697 107.856C142.514 109.984 141.518 113.049 142.034 116.053L149.916 162.012C151.214 169.578 143.273 175.347 136.479 171.775L95.2049 150.076C92.5069 148.658 89.2837 148.658 86.5856 150.076L45.3118 171.775C38.5176 175.347 30.5767 169.578 31.8743 162.012L39.7569 116.053C40.2721 113.049 39.2761 109.984 37.0934 107.856L3.70217 75.3076C-1.79452 69.9496 1.23861 60.6146 8.83484 59.5108L54.9804 52.8054C57.9968 52.3671 60.6045 50.4726 61.9535 47.7392L82.5904 5.92424Z" fill="#FFD89A"/>
<circle cx="134.191" cy="121.531" r="4.16754" fill="white"/>
<circle cx="61.954" cy="105.324" r="4.16754" fill="white"/>
<circle cx="138.359" cy="61.7965" r="4.16754" fill="white"/>
<circle cx="53.6189" cy="158.576" r="4.16754" fill="white"/>
<circle cx="142.526" cy="156.722" r="4.16754" fill="white"/>
<circle cx="116.132" cy="150.24" r="4.16754" fill="white"/>
<circle cx="95.2943" cy="138.201" r="4.16754" fill="white"/>
<circle cx="111.964" cy="121.531" r="4.16754" fill="white"/>
<circle cx="103.629" cy="98.8414" r="4.16754" fill="white"/>
<circle cx="88.8114" cy="74.2984" r="4.16754" fill="white"/>
<circle cx="25.8352" cy="70.1304" r="4.16754" fill="white"/>
<circle cx="66.1215" cy="57.6285" r="4.16754" fill="white"/>
<circle cx="86.9592" cy="42.3472" r="4.16754" fill="white"/>
<circle cx="40.6532" cy="96.9879" r="4.16754" fill="white"/>
<circle cx="43.4315" cy="134.033" r="4.16754" fill="white"/>
<circle cx="166.143" cy="74.2984" r="4.16754" fill="white"/>
<circle cx="95.2943" cy="15.9527" r="4.16754" fill="white"/>
<circle cx="107.797" cy="34.0113" r="4.16754" fill="white"/>
<circle cx="55.9342" cy="78.4664" r="4.16754" fill="white"/>
<circle cx="134.191" cy="86.8004" r="4.16754" fill="white"/>
<circle cx="116.132" cy="74.2984" r="4.16754" fill="white"/>
<circle cx="64.2692" cy="140.052" r="4.16754" fill="white"/>
<circle cx="82.7917" cy="121.531" r="4.16754" fill="white"/>
</svg>
