<svg width="71" height="55" viewBox="0 0 71 55" fill="none" xmlns="http://www.w3.org/2000/svg">
<path d="M62.4506 20.1592C59.6587 16.9681 56.3679 18.8296 55.0715 20.1592L55.8699 10.7863C60.4898 10.0551 69.8693 11.1055 70.4277 21.1564C71.1257 33.72 62.4552 40.1822 60.5563 40.7996C58.0742 41.6066 51.5823 44.0901 49.2889 40.7996C47.4543 38.1672 51.5157 35.6477 53.7757 34.717C56.8069 35.9135 60.822 31.6924 62.4506 29.4323C63.6139 27.6708 65.2425 23.3502 62.4506 20.1592Z" fill="#FF93D4" stroke="#FFC9EA"/>
<path d="M29.4855 0.906223C1.212 0.906246 0.826194 8.79136 0.826194 8.79136L29.4855 17.2746L57.711 8.79136C57.711 8.79136 57.7589 0.9062 29.4855 0.906223Z" fill="#FFB6E2"/>
<path d="M29.3909 3.95017C3.63468 3.95019 3.28322 10.7636 3.28322 10.7636L29.3909 18.0938L55.1035 10.7636C55.1035 10.7636 55.1472 3.95015 29.3909 3.95017Z" fill="#8C2727"/>
<path d="M40.9114 52.465C56.7057 47.2003 58.5271 21.2888 57.4635 8.99121C57.4635 8.99121 44.3055 11.2917 29.1275 11.2917C13.9494 11.2917 0.926457 8.99121 0.926457 8.99121C-1.38747 36.751 11.7288 49.5404 18.5761 52.465C18.5761 52.465 22.9248 54.2649 30.274 54.2649C37.3722 54.2649 40.9114 52.465 40.9114 52.465Z" fill="#FFA7DC" stroke="#FFC9EA"/>
<mask id="mask0_120_406" style="mask-type:alpha" maskUnits="userSpaceOnUse" x="0" y="9" width="59" height="46">
<path d="M41.0441 52.4169C56.5601 47.2449 58.3494 21.79 57.3045 9.70898C57.3045 9.70898 45.3105 12.1024 29.5509 12.1024C13.7913 12.1024 1.76349 9.70898 1.76349 9.70898C-0.509668 36.9797 12.3755 49.5438 19.1022 52.4169C19.1022 52.4169 23.3743 54.1851 30.594 54.1851C37.5672 54.1851 41.0441 52.4169 41.0441 52.4169Z" fill="#F0A36F" stroke="#FFC8A4"/>
</mask>
<g mask="url(#mask0_120_406)">
<circle cx="42.0496" cy="50.4031" r="3.09644" fill="#FFE8F6"/>
<circle cx="42.0496" cy="35.0437" r="3.09644" fill="#FFE8F6"/>
<circle cx="27.575" cy="53.4646" r="3.09644" fill="#FFE8F6"/>
<circle cx="22.8543" cy="42.4744" r="3.09644" fill="#FFE8F6"/>
<circle cx="8.84449" cy="16.157" r="3.09644" fill="#FFE8F6"/>
<circle cx="26.4265" cy="9.07789" r="3.09644" fill="#FFE8F6"/>
<circle cx="39.8933" cy="24.0945" r="3.09644" fill="#FFE8F6"/>
<circle cx="30.6843" cy="32.8308" r="3.09644" fill="#FFE8F6"/>
<circle cx="19.3816" cy="32.8308" r="3.09644" fill="#FFE8F6"/>
<circle cx="9.3191" cy="42.5056" r="3.09644" fill="#FFE8F6"/>
<circle cx="37.4168" cy="42.7224" r="3.09644" fill="#FFE8F6"/>
<circle cx="43.532" cy="9.07789" r="3.09644" fill="#FFE8F6"/>
<circle cx="0.7273" cy="20.2234" r="3.09644" fill="#FFE8F6"/>
<circle cx="9.07691" cy="29.7351" r="3.09644" fill="#FFE8F6"/>
<circle cx="26.8796" cy="22.8464" r="3.09644" fill="#FFE8F6"/>
<circle cx="50.7195" cy="22.6912" r="3.09644" fill="#FFE8F6"/>
<circle cx="56.4539" cy="12.8611" r="3.09644" fill="#FFE8F6"/>
<circle cx="16.825" cy="9.70875" r="3.09644" fill="#FFE8F6"/>
<circle cx="35.7957" cy="14.2019" r="3.09644" fill="#FFE8F6"/>
<circle cx="54.0476" cy="36.9334" r="3.09644" fill="#FFE8F6"/>
</g>
<path d="M15.8519 25C20.876 17.1181 27.6012 24.464 29.0464 27.983C30.9316 21.3856 39.3428 17.8648 43.3743 27.2623C45.1348 31.3659 40.4208 39.3782 29.4246 45.5475C19.5706 40.2268 11.471 31.8728 15.8519 25Z" fill="#F87FC8" stroke="#FFC9EA" stroke-linejoin="round"/>
</svg>
