<svg width="97" height="89" viewBox="0 0 97 89" fill="none" xmlns="http://www.w3.org/2000/svg">
<path fill-rule="evenodd" clip-rule="evenodd" d="M48.7761 30.8683C54.08 18.3517 67.2346 -4.89541 77.4219 2.24903C90.156 11.1796 96.24 22.1325 96.116 28.0437C95.9919 33.9548 89.228 41.4079 52.7471 37.5589L48.7761 30.8683ZM54.2507 28.616C58.2816 19.7663 68.2881 3.33369 76.0666 8.40037C85.7896 14.7337 90.4228 23.4452 90.3551 26.6724C90.2874 29.8996 85.1169 36.1199 57.2873 33.3544L54.2507 28.616Z" fill="#E42A2D"/>
<path fill-rule="evenodd" clip-rule="evenodd" d="M48.6485 29.8005C41.4952 19.592 25.2745 1.26983 17.6189 9.64872C8.04946 20.1223 4.78183 31.1267 6.04525 36.4075C7.30867 41.6884 14.7711 47.0708 46.4264 36.5717L48.6485 29.8005ZM43.0758 29.1303C37.7895 21.9032 25.7561 8.96459 19.9124 15.0273C12.6077 22.6056 10.2473 31.3614 10.9419 34.2645C11.6364 37.1677 17.4075 41.8015 41.3377 33.9913L43.0758 29.1303Z" fill="#E42A2D"/>
<path d="M20.4552 80.1922C22.8554 56.7012 36.3385 41.7144 42.78 37.1574L47.9948 38.7206C39.2536 46.1617 33.7676 73.6005 32.1172 86.3898L26.5814 74.0452L20.4552 80.1922Z" fill="#E42A2D" stroke="#E42A2D"/>
<path d="M83.0115 74.142C76.2962 51.6371 62.1357 39.6389 55.8948 36.4529L51.9004 39.0115C60.6226 44.5647 70.683 70.3222 74.6229 82.5068L75.9357 65.1822L83.0115 74.142Z" fill="#E42A2D" stroke="#E42A2D"/>
<path d="M56.9729 34.916C56.9732 34.9222 56.9732 34.9285 56.9732 34.9349C56.9775 35.2519 57.0488 39.4873 57.8075 42.8666C58.5962 46.3794 61.2557 52.0149 61.2557 52.0149C61.2557 52.0149 58.8786 47.5248 57.3203 45.3854C55.762 43.246 53.0237 40.48 53.0237 40.48C55.0148 38.5929 56.9671 35.7305 56.9732 34.9349C56.973 34.9224 56.9729 34.916 56.9729 34.916Z" fill="#C70205"/>
<path d="M40.5791 37.6914C40.5791 37.6914 46.1847 38.4577 44.9643 43.0353C44.9643 43.0353 43.4393 45.505 41.9885 48.7798C40.5376 52.0546 38.5478 58.2726 38.5478 58.2726C38.5478 58.2726 40.5505 50.6533 41.0765 46.2512C41.6025 41.8491 40.5791 37.6914 40.5791 37.6914Z" fill="#C70205"/>
<path d="M61.3992 40.7238L65.1577 42.8546C65.1577 42.8546 65.418 42.9934 63.409 41.2248C61.4 39.4562 59.6159 38.1919 59.6159 38.1919L56.8503 38.001L61.3992 40.7238Z" fill="#C70205"/>
<path d="M37.5087 41.0902C36.9479 41.6175 33.91 45.2446 33.91 45.2446C33.91 45.2446 37.0757 42.5943 37.8664 41.9738C38.657 41.3533 42.8838 39.0897 42.8838 39.0897L41.0434 38.2925L40.265 38.5023C40.265 38.5023 38.0695 40.5628 37.5087 41.0902Z" fill="#C70205"/>
<path d="M49.7844 28.4858L50.6548 26.6455C50.6548 26.6455 50.6242 27.102 52.0203 27.7127C53.4163 28.3235 53.6089 27.9502 53.6089 27.9502L53.3201 29.0465L49.7844 28.4858Z" fill="#C70205"/>
<path d="M45.0331 30.0465L43.8182 28.1629C43.8182 28.1629 44.3792 28.4938 45.4869 27.9222C46.5946 27.3506 46.4698 26.8402 46.4698 26.8402L47.2478 27.6559L45.0331 30.0465Z" fill="#C70205"/>
<circle cx="48.7109" cy="35.697" r="8.28101" fill="#FFE206"/>
</svg>
