<svg width="96" height="88" viewBox="0 0 96 88" fill="none" xmlns="http://www.w3.org/2000/svg">
<path fill-rule="evenodd" clip-rule="evenodd" d="M48.6362 29.9796C53.9401 17.463 67.0947 -5.78408 77.282 1.36036C90.0161 10.2909 96.1001 21.2438 95.9761 27.155C95.8521 33.0662 89.0881 40.5192 52.6072 36.6702L48.6362 29.9796ZM52.6957 28.8199C56.8994 19.1776 67.3292 1.27074 75.4185 6.78092C85.5301 13.6686 90.3426 23.1516 90.2689 26.6664C90.1951 30.1811 84.8083 36.9609 55.8508 33.9773L52.6957 28.8199Z" fill="#FDF219"/>
<path fill-rule="evenodd" clip-rule="evenodd" d="M48.5087 28.9118C41.3553 18.7034 25.1346 0.381155 17.479 8.76005C7.90957 19.2337 4.64194 30.238 5.90536 35.5189C7.16878 40.7998 14.6312 46.1821 46.2865 35.683L48.5087 28.9118ZM44.6761 28.6554C39.0608 20.814 26.3025 6.75805 20.1917 13.2652C12.5533 21.3991 10.1283 30.8386 10.8796 33.9787C11.6308 37.1187 17.7387 42.1628 42.8796 33.8932L44.6761 28.6554Z" fill="#FDF219"/>
<path d="M20.3153 79.3035C22.7155 55.8126 36.1986 40.8258 42.6401 36.2687L47.8549 37.8319C39.1137 45.273 33.6277 72.7118 31.9773 85.5011L26.4415 73.1566L20.3153 79.3035Z" fill="#FDF219" stroke="#FDF219"/>
<path d="M82.8716 73.2533C76.1563 50.7484 61.9958 38.7502 55.7549 35.5643L51.7605 38.1229C60.4827 43.676 70.5431 69.4335 74.483 81.6181L75.7958 64.2935L82.8716 73.2533Z" fill="#FDF219" stroke="#FDF219"/>
<path d="M56.8331 34.0273C56.8333 34.0335 56.8333 34.0398 56.8333 34.0463C56.8376 34.3633 56.9089 38.5986 57.6676 41.9779C58.4563 45.4908 61.1158 51.1262 61.1158 51.1262C61.1158 51.1262 58.7387 46.6361 57.1804 44.4967C55.6221 42.3573 52.8838 39.5914 52.8838 39.5914C54.8749 37.7043 56.8272 34.8418 56.8333 34.0463C56.8331 34.0338 56.8331 34.0273 56.8331 34.0273Z" fill="#E8DE05"/>
<path d="M40.4392 36.8027C40.4392 36.8027 46.0448 37.569 44.8244 42.1466C44.8244 42.1466 43.2994 44.6164 41.8486 47.8912C40.3977 51.166 38.4079 57.384 38.4079 57.384C38.4079 57.384 40.4106 49.7646 40.9366 45.3625C41.4626 40.9604 40.4392 36.8027 40.4392 36.8027Z" fill="#E8DE05"/>
<path d="M61.2593 39.8351L65.0178 41.9659C65.0178 41.9659 65.2782 42.1047 63.2691 40.3361C61.2601 38.5676 59.476 37.3032 59.476 37.3032L56.7104 37.1123L61.2593 39.8351Z" fill="#E8DE05"/>
<path d="M37.3688 40.2015C36.808 40.7288 33.7702 44.356 33.7702 44.356C33.7702 44.356 36.9358 41.7056 37.7265 41.0851C38.5171 40.4646 42.7439 38.201 42.7439 38.201L40.9035 37.4038L40.1251 37.6136C40.1251 37.6136 37.9296 39.6741 37.3688 40.2015Z" fill="#E8DE05"/>
<path d="M49.6445 27.5971L50.5149 25.7568C50.5149 25.7568 50.4843 26.2134 51.8804 26.8241C53.2764 27.4348 53.469 27.0616 53.469 27.0616L53.1802 28.1578L49.6445 27.5971Z" fill="#E8DE05"/>
<path d="M44.8932 29.1579L43.6783 27.2742C43.6783 27.2742 44.2393 27.6051 45.347 27.0335C46.4547 26.4619 46.33 25.9515 46.33 25.9515L47.1079 26.7672L44.8932 29.1579Z" fill="#E8DE05"/>
<circle cx="48.571" cy="34.8083" r="8.28101" fill="#FFB428"/>
</svg>
