<svg width="59" height="50" viewBox="0 0 59 50" fill="none" xmlns="http://www.w3.org/2000/svg">
<path d="M1.0083 22.2528C-1.18915 -4.61366 22.5357 -2.44277 27.5582 13.609C55.0991 -24.9279 82.2352 35.3928 25.8441 49.6195C25.8441 49.6195 2.77343 43.8337 1.0083 22.2528Z" fill="#F841E5"/>
<circle cx="43.0021" cy="34.6073" r="2.24698" transform="rotate(-4.85609 43.0021 34.6073)" fill="white"/>
<path d="M49.8775 15.5618C49.8601 14.129 51.3129 12.9909 52.6528 13.4988C53.2687 13.7322 53.7152 14.2712 53.7776 14.9269C53.9468 16.7025 54.0826 20.4674 52.8042 24.2031C51.5201 27.9558 48.9702 30.188 47.6897 31.1183C47.2139 31.4639 46.6008 31.5071 46.0509 31.2987C44.6362 30.7625 44.279 28.8778 45.3042 27.7652C46.7249 26.2233 48.3697 24.1451 48.9921 22.2333C49.7381 19.9421 49.9006 17.4628 49.8775 15.5618Z" fill="white"/>
</svg>
