<svg width="169" height="133" viewBox="0 0 169 133" fill="none" xmlns="http://www.w3.org/2000/svg">
<path fill-rule="evenodd" clip-rule="evenodd" d="M120.344 125.083C116.577 122.228 112.562 119.453 108.559 116.686C90.809 104.42 73.2787 92.3057 78.6193 74.0477C84.5515 53.7675 103.83 57.7736 114.074 66.1767C115.688 67.501 117.078 68.9344 118.156 70.3991C118.822 68.7399 119.945 67.1171 121.407 65.6154C130.68 56.0908 153.585 51.4393 159.815 73.2799C164.112 88.3476 147.798 101.963 131.224 115.796C127.535 118.875 123.834 121.964 120.344 125.083ZM117.427 61.7784C119.013 60.1466 120.834 58.7076 122.741 57.4921C126.986 54.7864 132.18 52.8431 137.547 52.29C142.93 51.7352 148.749 52.5631 153.875 55.7581C159.072 58.9976 163.012 64.3328 165.131 71.7635C168.644 84.0791 161.522 94.8121 153.236 103.484C148.952 107.968 143.928 112.344 138.9 116.58C137.494 117.765 136.091 118.935 134.699 120.097C131.036 123.155 127.443 126.153 124.027 129.205C122.055 130.967 119.112 131.086 117.004 129.488C113.343 126.713 109.476 124.041 105.504 121.296C104.05 120.291 102.581 119.276 101.103 118.243C95.698 114.463 90.2442 110.486 85.6039 106.203C76.3528 97.6632 69.1513 86.7238 73.3132 72.4956C75.3156 65.6498 78.807 60.612 83.5045 57.4667C88.1735 54.3405 93.4778 53.4562 98.4577 53.876C105.376 54.4592 112.274 57.5993 117.427 61.7784Z" fill="#F839BE"/>
<path fill-rule="evenodd" clip-rule="evenodd" d="M41.8204 86.8547C40.4243 82.3398 38.7794 77.7448 37.1391 73.1626C29.8674 52.8495 22.6855 32.7872 37.668 21.0653C54.3099 8.04523 67.639 22.5383 71.064 35.3376C71.6038 37.3546 71.8976 39.3295 71.9196 41.148C73.4275 40.1878 75.2861 39.5239 77.3494 39.156C90.436 36.8225 111.759 46.3952 104.089 67.7724C98.7972 82.5205 77.605 84.0737 56.0741 85.6518C51.2825 86.0029 46.4741 86.3554 41.8204 86.8547ZM76.3522 33.7183C78.5923 33.317 80.9107 33.2094 83.1687 33.3333C88.1947 33.6092 93.5484 35.0583 98.2311 37.7372C102.928 40.4244 107.174 44.4891 109.476 50.0731C111.811 55.7348 111.902 62.3664 109.292 69.6395C104.967 81.6938 92.9245 86.2634 81.1369 88.4795C75.0414 89.6255 68.4095 90.2523 61.8547 90.7631C60.0209 90.906 58.1989 91.0396 56.3902 91.1721C51.6316 91.5209 46.9642 91.863 42.4103 92.3516C39.7809 92.6338 37.3199 91.0144 36.5387 88.4879C35.1814 84.0984 33.5972 79.6729 31.9703 75.1281C31.3744 73.4633 30.7727 71.7825 30.1743 70.0816C27.9855 63.8595 25.8726 57.4488 24.5991 51.2635C22.0603 38.9323 22.5858 25.8458 34.2614 16.7111C39.8791 12.3161 45.6526 10.258 51.3029 10.4407C56.9189 10.6222 61.7443 12.9958 65.5459 16.2398C70.8271 20.7464 74.6015 27.3189 76.3522 33.7183Z" fill="#FF8DD5"/>
<path d="M104.936 55.1689C104.936 55.1689 106.629 55.3881 108.628 56.2044C110.627 57.0207 112.192 58.2786 112.192 58.2786L111.663 64.2767C108.899 62.2035 103.716 60.4759 103.716 60.4759L104.936 55.1689Z" fill="#F839BE"/>
</svg>
