<svg width="228" height="143" viewBox="0 0 228 143" fill="none" xmlns="http://www.w3.org/2000/svg">
<path d="M209.354 85.1852C214.114 88.3252 218.934 91.3952 223.024 95.4252C223.924 96.3052 224.724 97.3252 225.434 98.3652C228.364 102.655 227.914 105.025 223.444 107.775C217.264 111.585 210.924 115.135 204.334 118.215C192.564 123.725 181.674 130.885 170.054 136.685C166.144 138.635 162.364 140.935 157.944 141.385C150.404 142.155 144.744 138.695 140.604 132.715C133.984 123.165 129.294 112.655 125.824 101.595C121.594 86.2852 117.434 70.9452 111.464 56.1852C111.074 54.7652 110.664 53.3552 109.334 52.4752C110.524 50.3452 113.304 50.1952 114.614 48.1852C115.084 47.4652 115.674 46.6852 116.784 46.9252C127.774 52.0652 137.544 59.2352 147.864 65.4852C156.404 70.6552 165.854 73.2152 175.624 74.6352C180.814 75.3852 186.064 75.8852 191.324 75.3052C193.024 75.1152 193.964 76.2652 195.164 76.9852C197.764 78.3152 199.974 80.3152 202.724 81.3952C204.974 82.6252 207.244 83.7652 209.354 85.1852Z" fill="#FF8000"/>
<path d="M195.184 76.9955C191.474 75.0755 187.444 76.3355 183.614 76.1355C169.904 75.4255 157.054 72.0855 145.374 64.9255C137.694 60.2155 130.344 54.9655 122.464 50.5455C120.464 49.4155 117.794 49.3855 116.514 47.0355C115.884 46.1155 116.414 45.2955 116.774 44.4955C118.944 39.6455 118.224 35.0155 115.754 30.5155C115.334 29.7455 114.664 29.0455 114.914 28.0355C116.784 27.8155 118.274 26.7755 119.794 25.7655C137.624 13.8555 157.004 5.43548 177.864 0.565479C186.214 -1.38452 192.824 2.19548 198.484 8.18548C209.954 20.3355 210.124 35.1055 208.224 50.2555C207.464 56.3555 206.014 62.3655 202.994 67.8755C201.364 70.8455 199.204 73.1655 196.164 74.6455C195.104 75.1655 194.124 75.6255 195.184 76.9955Z" fill="#FFA914"/>
<path d="M3.57422 84.0958C5.20422 81.8358 7.66422 80.7858 10.1342 79.9258C13.2242 78.8558 16.0442 77.1758 19.2442 76.3458C20.9942 75.8958 19.9642 74.3158 19.7042 73.3558C17.6642 65.8358 16.7442 58.1958 17.3842 50.4258C18.0942 41.7858 19.7142 33.3658 23.9942 25.6558C27.6942 18.9958 33.7542 16.4858 40.9242 16.0158C49.7742 15.4358 58.4542 16.2458 67.0142 18.8658C72.5642 20.5558 78.2242 21.8658 83.5842 24.1558C86.3942 25.3558 88.8242 27.4058 91.9342 27.9158C92.1542 28.2458 92.1542 28.5958 91.9542 28.9358C87.6542 36.3158 88.6342 43.0958 94.2642 49.3558C94.5042 49.6258 94.1742 49.3058 94.4042 49.5858C94.8642 51.1558 93.8842 52.2658 92.9542 53.1858C90.6042 55.5358 89.0642 58.4358 87.1742 61.0958C81.2542 69.4358 74.5142 77.0058 66.4942 83.3858C61.3042 87.5158 56.0542 91.5558 50.2842 94.8658C38.1042 101.866 29.1742 96.2258 23.1542 85.7558C22.1742 84.0458 21.3242 82.1858 20.9842 80.1858C20.6342 78.1358 19.3742 77.5858 17.6242 78.3558C13.8042 80.0358 9.76422 81.2258 6.19422 83.4858C5.43422 83.9858 4.69422 84.9658 3.57422 84.0958Z" fill="#FFA914"/>
<path d="M3.57443 84.0954C7.64443 81.7554 11.9644 79.9754 16.2644 78.1254C20.0744 76.4854 20.5144 76.8854 21.7844 80.7654C24.1344 87.9154 28.3844 93.7454 35.5944 96.6354C39.5544 98.2254 43.5944 97.2454 47.4644 95.5554C51.7444 93.6754 55.4644 90.9254 59.1944 88.2054C64.8944 84.0454 70.5144 79.7654 75.2544 74.4654C80.1944 68.9454 85.4344 63.6454 88.9644 57.0254C90.3744 54.3854 93.3944 52.9354 94.1544 49.8454C94.3944 49.7154 94.6844 49.5954 94.9244 49.7454C98.2944 51.8954 101.924 53.0054 105.954 52.6054C106.314 52.5654 106.624 52.8354 106.844 53.1354C105.934 53.5454 105.204 53.9154 105.044 55.1754C103.294 68.4854 98.4244 80.7954 92.4244 92.6354C84.6544 107.955 74.3244 121.505 62.3844 133.815C59.7744 136.505 56.6944 138.575 53.6044 140.665C49.0044 143.775 44.4744 143.415 39.6944 141.145C31.4444 137.215 25.0144 131.155 19.5744 124.005C12.9644 115.325 7.20443 106.085 2.58443 96.1754C1.74443 94.3754 1.10443 92.4554 0.88443 90.4554C0.58443 87.8254 1.17443 85.5754 3.57443 84.0954Z" fill="#FF8000"/>
<path d="M106.845 53.1254C102.135 53.8854 97.8748 52.9154 94.1548 49.8354C88.4048 46.1254 86.3048 34.2154 91.9448 27.9154C98.5248 21.4054 107.675 21.4554 114.925 28.0354C119.615 34.0154 119.965 40.3654 116.525 47.0354C114.665 49.4754 112.405 51.3954 109.445 52.3854C109.295 52.9954 108.665 52.6754 108.345 52.9554C107.845 53.0054 107.345 53.0654 106.845 53.1254Z" fill="#E84502"/>
</svg>
