<svg width="72" height="55" viewBox="0 0 72 55" fill="none" xmlns="http://www.w3.org/2000/svg">
<path d="M62.7514 20.1592C59.9594 16.9681 56.6686 18.8296 55.3722 20.1592L56.1707 10.7863C60.7906 10.0551 70.1701 11.1055 70.7285 21.1564C71.4265 33.72 62.756 40.1822 60.8571 40.7996C58.3749 41.6066 51.8831 44.0901 49.5897 40.7996C47.755 38.1672 51.8164 35.6477 54.0765 34.717C57.1077 35.9135 61.1227 31.6924 62.7514 29.4323C63.9147 27.6708 65.5433 23.3502 62.7514 20.1592Z" fill="#F49F67" stroke="#FFC8A4"/>
<mask id="mask0_120_368" style="mask-type:alpha" maskUnits="userSpaceOnUse" x="48" y="10" width="24" height="33">
<path d="M62.7494 20.1582C59.9575 16.9672 56.6667 18.8286 55.3703 20.1582L56.1687 10.7853C60.7887 10.0541 70.1682 11.1045 70.7265 21.1554C71.4245 33.719 62.754 40.1813 60.8551 40.7986C58.373 41.6056 51.8811 44.0891 49.5878 40.7986C47.7531 38.1662 51.8145 35.6467 54.0745 34.716C57.1058 35.9125 61.1208 31.6914 62.7494 29.4313C63.9127 27.6698 65.5413 23.3492 62.7494 20.1582Z" fill="#F58B45" stroke="#F49F67"/>
</mask>
<g mask="url(#mask0_120_368)">
<circle cx="56.4454" cy="40.3195" r="2.43958" fill="#FCBF96"/>
<circle cx="63.0198" cy="29.6047" r="3.07444" fill="#FCBF96"/>
<circle cx="63.6208" cy="37.696" r="2.80244" fill="#FCBF96"/>
<circle cx="70.1111" cy="25.9743" r="2.65597" fill="#FCBF96"/>
<circle cx="63.473" cy="20.3177" r="2.39685" fill="#FCBF96"/>
<circle cx="62.6301" cy="11.677" r="2.68477" fill="#FCBF96"/>
<circle cx="59.2272" cy="21.3336" r="2.00845" fill="#FCBF96"/>
</g>
<path d="M29.7862 0.906223C1.51278 0.906246 1.12698 8.79136 1.12698 8.79136L29.7862 17.2746L58.0117 8.79136C58.0117 8.79136 58.0597 0.9062 29.7862 0.906223Z" fill="#DD8144"/>
<path d="M29.6917 3.95017C3.93546 3.95019 3.584 10.7636 3.584 10.7636L29.6917 18.0938L55.4043 10.7636C55.4043 10.7636 55.448 3.95015 29.6917 3.95017Z" fill="#8C2727"/>
<path d="M41.2122 52.465C57.0065 47.2003 58.8279 21.2888 57.7643 8.99121C57.7643 8.99121 44.6063 11.2917 29.4282 11.2917C14.2502 11.2917 1.22724 8.99121 1.22724 8.99121C-1.08669 36.751 12.0295 49.5404 18.8769 52.465C18.8769 52.465 23.2256 54.2649 30.5748 54.2649C37.673 54.2649 41.2122 52.465 41.2122 52.465Z" fill="#F0A36F" stroke="#FFC8A4"/>
<mask id="mask1_120_368" style="mask-type:alpha" maskUnits="userSpaceOnUse" x="1" y="9" width="58" height="46">
<path d="M41.3448 52.4169C56.8608 47.2449 58.6502 21.79 57.6053 9.70898C57.6053 9.70898 45.6113 12.1024 29.8517 12.1024C14.0921 12.1024 2.06428 9.70898 2.06428 9.70898C-0.208887 36.9797 12.6763 49.5438 19.403 52.4169C19.403 52.4169 23.6751 54.1851 30.8948 54.1851C37.868 54.1851 41.3448 52.4169 41.3448 52.4169Z" fill="#F0A36F" stroke="#FFC8A4"/>
</mask>
<g mask="url(#mask1_120_368)">
<circle cx="42.3503" cy="50.4031" r="3.09644" fill="#FFC8A4"/>
<circle cx="42.3503" cy="35.0437" r="3.09644" fill="#FFC8A4"/>
<circle cx="27.8757" cy="53.4646" r="3.09644" fill="#FFC8A4"/>
<circle cx="23.155" cy="42.4744" r="3.09644" fill="#FFC8A4"/>
<circle cx="9.14527" cy="16.157" r="3.09644" fill="#FFC8A4"/>
<circle cx="26.7273" cy="9.07789" r="3.09644" fill="#FFC8A4"/>
<circle cx="40.1941" cy="24.0945" r="3.09644" fill="#FFC8A4"/>
<circle cx="30.9851" cy="32.8308" r="3.09644" fill="#FFC8A4"/>
<circle cx="19.6824" cy="32.8308" r="3.09644" fill="#FFC8A4"/>
<circle cx="9.61988" cy="42.5056" r="3.09644" fill="#FFC8A4"/>
<circle cx="37.7175" cy="42.7224" r="3.09644" fill="#FFC8A4"/>
<circle cx="43.8328" cy="9.07789" r="3.09644" fill="#FFC8A4"/>
<circle cx="1.02808" cy="20.2234" r="3.09644" fill="#FFC8A4"/>
<circle cx="9.37769" cy="29.7351" r="3.09644" fill="#FFC8A4"/>
<circle cx="27.1804" cy="22.8464" r="3.09644" fill="#FFC8A4"/>
<circle cx="51.0203" cy="22.6912" r="3.09644" fill="#FFC8A4"/>
<circle cx="56.7546" cy="12.8611" r="3.09644" fill="#FFC8A4"/>
<circle cx="17.1257" cy="9.70875" r="3.09644" fill="#FFC8A4"/>
<circle cx="36.0964" cy="14.2019" r="3.09644" fill="#FFC8A4"/>
<circle cx="54.3484" cy="36.9334" r="3.09644" fill="#FFC8A4"/>
</g>
<path d="M16.1527 25C21.1768 17.1181 27.902 24.464 29.3472 27.983C31.2324 21.3856 39.6436 17.8648 43.6751 27.2623C45.4356 31.3659 40.7216 39.3782 29.7253 45.5475C19.8713 40.2268 11.7718 31.8728 16.1527 25Z" fill="#DD8144" stroke="#FFC8A4" stroke-linejoin="round"/>
</svg>
