<svg width="96" height="88" viewBox="0 0 96 88" fill="none" xmlns="http://www.w3.org/2000/svg">
<path fill-rule="evenodd" clip-rule="evenodd" d="M48.0891 30.1827C53.393 17.6661 66.5476 -5.58096 76.7349 1.56348C89.469 10.494 95.553 21.4469 95.429 27.3581C95.3049 33.2693 88.541 40.7223 52.0601 36.8733L48.0891 30.1827ZM53.5637 27.9304C57.5946 19.0808 67.6011 2.64814 75.3796 7.71482C85.1026 14.0482 89.7358 22.7596 89.6681 25.9868C89.6003 29.214 84.4299 35.4344 56.6003 32.6688L53.5637 27.9304Z" fill="#E42A2D"/>
<path fill-rule="evenodd" clip-rule="evenodd" d="M47.9615 29.115C40.8081 18.9065 24.5875 0.58428 16.9319 8.96317C7.36244 19.4368 4.09482 30.4411 5.35824 35.722C6.62166 41.0029 14.0841 46.3852 45.7394 35.8861L47.9615 29.115ZM42.3887 28.4447C37.1025 21.2176 25.069 8.27904 19.2254 14.3417C11.9207 21.9201 9.56031 30.6759 10.2549 33.579C10.9494 36.4821 16.7204 41.1159 40.6506 33.3058L42.3887 28.4447Z" fill="#E42A2D"/>
<path d="M19.7682 79.5066C22.1684 56.0157 35.6515 41.0289 42.093 36.4718L47.3078 38.035C38.5666 45.4761 33.0806 72.915 31.4302 85.7042L25.8944 73.3597L19.7682 79.5066Z" fill="#E42A2D" stroke="#E42A2D"/>
<path d="M82.3245 73.4564C75.6092 50.9515 61.4487 38.9534 55.2078 35.7674L51.2134 38.326C59.9356 43.8792 69.996 69.6367 73.9359 81.8213L75.2487 64.4966L82.3245 73.4564Z" fill="#E42A2D" stroke="#E42A2D"/>
<path d="M56.2859 34.2305C56.2861 34.2366 56.2862 34.243 56.2862 34.2494C56.2905 34.5664 56.3618 38.8017 57.1205 42.1811C57.9092 45.6939 60.5687 51.3293 60.5687 51.3293C60.5687 51.3293 58.1916 46.8392 56.6333 44.6998C55.075 42.5604 52.3367 39.7945 52.3367 39.7945C54.3278 37.9074 56.2801 35.0449 56.2862 34.2494C56.286 34.2369 56.2859 34.2305 56.2859 34.2305Z" fill="#C70205"/>
<path d="M39.8921 37.0058C39.8921 37.0058 45.4977 37.7722 44.2773 42.3497C44.2773 42.3497 42.7523 44.8195 41.3014 48.0943C39.8506 51.3691 37.8608 57.5871 37.8608 57.5871C37.8608 57.5871 39.8635 49.9678 40.3895 45.5656C40.9154 41.1635 39.8921 37.0058 39.8921 37.0058Z" fill="#C70205"/>
<path d="M60.7122 40.0382L64.4707 42.169C64.4707 42.169 64.731 42.3078 62.722 40.5393C60.713 38.7707 58.9289 37.5063 58.9289 37.5063L56.1633 37.3154L60.7122 40.0382Z" fill="#C70205"/>
<path d="M36.8217 40.4046C36.2609 40.932 33.223 44.5591 33.223 44.5591C33.223 44.5591 36.3887 41.9087 37.1794 41.2882C37.97 40.6677 42.1968 38.4042 42.1968 38.4042L40.3563 37.607L39.578 37.8167C39.578 37.8167 37.3825 39.8772 36.8217 40.4046Z" fill="#C70205"/>
<path d="M49.0974 27.8003L49.9678 25.96C49.9678 25.96 49.9372 26.4165 51.3333 27.0272C52.7293 27.6379 52.9219 27.2647 52.9219 27.2647L52.6331 28.3609L49.0974 27.8003Z" fill="#C70205"/>
<path d="M44.3461 29.361L43.1312 27.4773C43.1312 27.4773 43.6922 27.8082 44.7999 27.2366C45.9076 26.6651 45.7828 26.1547 45.7828 26.1547L46.5608 26.9703L44.3461 29.361Z" fill="#C70205"/>
<circle cx="48.0239" cy="35.0115" r="8.28101" fill="#E8CD06"/>
</svg>
