<svg width="103" height="119" viewBox="0 0 103 119" fill="none" xmlns="http://www.w3.org/2000/svg">
<path d="M1.86621 47.577L19.7541 12.0371L32.5597 52.4233L1.86621 47.577Z" fill="#95D9EC" stroke="white"/>
<path d="M66.0803 52.4248L84.254 11.6348L101.62 47.5785L66.0803 52.4248Z" fill="#95D9EC" stroke="white"/>
<path d="M32.5597 52.4248L50.3296 11.6348L66.0802 52.4248H32.5597Z" fill="#DFC3F2" stroke="white"/>
<path d="M32.5598 52.4241L19.6361 12.0378L50.3297 11.5605L32.5598 52.4241Z" fill="#8FC0FF" stroke="white"/>
<path d="M66.0803 52.4238L50.3295 11.5609L84.254 11.5612L66.0803 52.4238Z" fill="#AB94FF" stroke="white"/>
<path d="M1.86621 47.5781L32.5597 52.4245L57.1953 117.85L1.86621 47.5781Z" fill="#DFC3F2" stroke="white"/>
<path d="M101.62 47.5781L66.0803 52.4245L57.1953 117.85L101.62 47.5781Z" fill="#8FC0FF" stroke="white"/>
<path d="M66.0802 52.4238H32.5597L57.1953 117.849L66.0802 52.4238Z" fill="#AB94FF" stroke="white"/>
</svg>
