<svg width="274" height="121" viewBox="0 0 274 121" fill="none" xmlns="http://www.w3.org/2000/svg">
<path d="M205.511 0.0429688C205.511 56.6642 159.611 94.4096 102.989 94.4096C46.3681 94.4096 0.467529 56.6642 0.467529 0.0429688H102.989H205.511Z" fill="#6D9853"/>
<path d="M197.356 0.0429688C197.356 51.771 155.367 86.2545 103.572 86.2545C51.7762 86.2545 9.7876 51.771 9.7876 0.0429688H103.572H197.356Z" fill="white"/>
<path d="M189.201 0.0390625C189.201 46.8739 150.481 78.0954 104.154 78.0954C57.8278 78.0954 19.1078 46.8739 19.1078 0.0390625H104.154H189.201Z" fill="#CC4C47"/>
<circle cx="62.2137" cy="25.6728" r="3.49506" fill="#5B2114"/>
<ellipse cx="33.7263" cy="14.6294" rx="2.33004" ry="3.49506" transform="rotate(-46.0449 33.7263 14.6294)" fill="#5B2114"/>
<ellipse cx="142.073" cy="32.1029" rx="2.33004" ry="3.49506" transform="rotate(16.7821 142.073 32.1029)" fill="#5B2114"/>
<ellipse cx="105.064" cy="33.185" rx="2.33004" ry="3.49506" transform="rotate(16.7821 105.064 33.185)" fill="#5B2114"/>
<ellipse cx="174.965" cy="11.0511" rx="2.33004" ry="3.49506" transform="rotate(-34.008 174.965 11.0511)" fill="#5B2114"/>
<ellipse cx="98.7206" cy="8.9007" rx="2.33004" ry="3.49506" transform="rotate(-34.008 98.7206 8.9007)" fill="#5B2114"/>
<ellipse cx="109.206" cy="65.9886" rx="2.33004" ry="3.49506" transform="rotate(-34.008 109.206 65.9886)" fill="#5B2114"/>
<ellipse cx="57.9448" cy="47.3479" rx="2.33004" ry="3.49506" transform="rotate(27.4998 57.9448 47.3479)" fill="#5B2114"/>
<circle cx="127.455" cy="53.6318" r="3.49506" fill="#5B2114"/>
<circle cx="163.57" cy="28.0029" r="3.49506" fill="#5B2114"/>
<circle cx="78.5239" cy="60.622" r="3.49506" fill="#5B2114"/>
<path d="M273.082 25.6738C273.082 82.295 227.182 120.04 170.56 120.04C113.939 120.04 68.0387 82.295 68.0387 25.6738H170.56H273.082Z" fill="#6D9853"/>
<path d="M264.927 25.6738C264.927 77.4019 222.938 111.885 171.143 111.885C119.347 111.885 77.3586 77.4019 77.3586 25.6738H171.143H264.927Z" fill="white"/>
<path d="M256.772 25.6699C256.772 72.5048 218.052 103.726 171.725 103.726C125.399 103.726 86.679 72.5048 86.679 25.6699H171.725H256.772Z" fill="#CC4C47"/>
<circle cx="129.785" cy="51.3037" r="3.49506" fill="#5B2114"/>
<ellipse cx="101.297" cy="40.2603" rx="2.33004" ry="3.49506" transform="rotate(-46.0449 101.297 40.2603)" fill="#5B2114"/>
<ellipse cx="209.644" cy="57.7338" rx="2.33004" ry="3.49506" transform="rotate(16.7821 209.644 57.7338)" fill="#5B2114"/>
<ellipse cx="172.635" cy="58.8158" rx="2.33004" ry="3.49506" transform="rotate(16.7821 172.635 58.8158)" fill="#5B2114"/>
<ellipse cx="242.536" cy="36.6819" rx="2.33004" ry="3.49506" transform="rotate(-34.008 242.536 36.6819)" fill="#5B2114"/>
<ellipse cx="166.292" cy="34.5316" rx="2.33004" ry="3.49506" transform="rotate(-34.008 166.292 34.5316)" fill="#5B2114"/>
<ellipse cx="176.777" cy="91.6194" rx="2.33004" ry="3.49506" transform="rotate(-34.008 176.777 91.6194)" fill="#5B2114"/>
<ellipse cx="125.516" cy="72.9788" rx="2.33004" ry="3.49506" transform="rotate(27.4998 125.516 72.9788)" fill="#5B2114"/>
<circle cx="195.026" cy="79.2626" r="3.49506" fill="#5B2114"/>
<circle cx="231.141" cy="53.6337" r="3.49506" fill="#5B2114"/>
<circle cx="146.095" cy="86.2529" r="3.49506" fill="#5B2114"/>
</svg>
