<svg width="181" height="234" viewBox="0 0 181 234" fill="none" xmlns="http://www.w3.org/2000/svg">
<path d="M171.082 140L95.0823 75L19.0823 140V200.5H171.082V140Z" fill="#FFD79F"/>
<path d="M22.5823 144.002L94.5823 82.502L168.082 144.002" stroke="white" stroke-dasharray="2 2"/>
<path d="M26.876 115.231C45.9593 95.7036 65.5889 117.624 67.7458 132.381C78.9524 122.941 113.44 128.38 107.28 157.076C102.791 177.983 69.0891 180.588 41.2099 187.407C29.1863 161.39 8.68647 133.845 26.876 115.231Z" fill="#FF9196"/>
<path d="M99.3405 142.029C100.724 120.494 123.781 123.526 132.674 131.261C134.531 119.83 158.008 105.329 169.094 125.705C177.171 140.551 158.307 159.47 145.106 177.917C124.498 168.512 98.0219 162.556 99.3405 142.029Z" fill="#F839BE"/>
<path d="M61.3405 174.029C62.7238 152.494 85.7815 155.526 94.6744 163.261C96.5309 151.83 120.008 137.329 131.094 157.705C139.171 172.551 120.307 191.47 107.106 209.917C86.4983 200.512 60.0219 194.556 61.3405 174.029Z" fill="#FC77DF"/>
<path d="M171.082 233.5V140.5L20.5823 233.5H171.082Z" fill="#FFCD86"/>
<path d="M89.0927 71.7761C100.491 55.4213 117.26 68.8506 120.585 79.2186C127.522 71.0745 153.012 70.8505 152.022 92.256C151.3 107.851 127.341 113.774 108.083 122.034C96.2994 104.741 78.2283 87.365 89.0927 71.7761Z" fill="#FF9196"/>
<path d="M63.9703 26.8735C62.9337 12.4513 78.5161 12.371 85.122 16.6992C85.3169 8.94194 99.5862 -2.81588 108.795 9.70475C115.505 18.8268 104.7 33.099 97.6102 46.5436C83.0758 42.1707 64.9583 40.6202 63.9703 26.8735Z" fill="#F839BE"/>
<path d="M19.0823 233.5V141L169.582 233.5H19.0823Z" fill="#FDC373"/>
<path d="M101.582 189.5L167.582 147.5V227.5" stroke="white" stroke-dasharray="2 2"/>
<path d="M157.082 231.5L23.0823 148.5V229L157.082 231.5Z" stroke="white" stroke-dasharray="2 2"/>
</svg>
