<svg width="91" height="84" viewBox="0 0 91 84" fill="none" xmlns="http://www.w3.org/2000/svg">
<path fill-rule="evenodd" clip-rule="evenodd" d="M44.7301 5.73926C45.3386 5.73926 45.8318 6.23251 45.8318 6.84097V72.8852C45.8318 73.4937 45.3386 73.9869 44.7301 73.9869C44.1217 73.9869 43.6284 73.4937 43.6284 72.8852V6.84097C43.6284 6.23251 44.1217 5.73926 44.7301 5.73926Z" fill="#373939"/>
<path fill-rule="evenodd" clip-rule="evenodd" d="M46.9336 67.0693V72.8866C46.9336 76.1575 46.1244 78.7749 44.6742 80.6579C43.2112 82.5576 41.1971 83.5675 39.1373 83.7292C35.0765 84.048 30.9961 81.014 30.9961 76.0375C30.9961 74.8205 31.9826 73.834 33.1995 73.834C34.4164 73.834 35.4029 74.8205 35.4029 76.0375C35.4029 78.2425 37.0879 79.4697 38.7924 79.3359C39.6153 79.2713 40.4839 78.8765 41.1828 77.969C41.8946 77.0447 42.5268 75.4523 42.5268 72.8866V67.0693H46.9336Z" fill="#49B8D7"/>
<path d="M1.49463 41.8208C3.09193 26.5075 20.9267 4.04675 43.8952 4.04688C71.9679 4.04702 89.2666 32.2046 88.8412 40.4169C78.5053 30.9743 70.5514 36.2485 66.7659 40.4169C58.5993 31.4847 48.1783 36.1209 45.2009 40.4169C36.3198 31.2295 24.1464 37.3544 22.7428 41.0549C14.321 33.1435 4.2242 37.8902 1.49463 41.8208Z" fill="#49B8D7"/>
<path d="M43.7676 2.00622C43.7676 1.23099 44.396 0.602539 45.1713 0.602539V0.602539C45.9465 0.602539 46.5749 1.23099 46.5749 2.00622V3.91987C46.5749 4.6951 45.9465 5.32355 45.1713 5.32355V5.32355C44.396 5.32355 43.7676 4.6951 43.7676 3.91987V2.00622Z" fill="#41A4BF"/>
<path d="M23.0051 30.0064C23.0051 31.6242 21.6936 32.9357 20.0758 32.9357C18.458 32.9357 17.1465 31.6242 17.1465 30.0064C17.1465 28.3886 18.458 27.0771 20.0758 27.0771C21.6936 27.0771 23.0051 28.3886 23.0051 30.0064Z" fill="white"/>
<path d="M38.2223 7.23787C38.2223 8.29475 37.3656 9.15152 36.3087 9.15152C35.2518 9.15152 34.395 8.29475 34.395 7.23787C34.395 6.18099 35.2518 5.32422 36.3087 5.32422C37.3656 5.32422 38.2223 6.18099 38.2223 7.23787Z" fill="white"/>
<path d="M52.7887 28.9908C52.7887 30.0477 51.932 30.9045 50.8751 30.9045C49.8182 30.9045 48.9614 30.0477 48.9614 28.9908C48.9614 27.9339 49.8182 27.0771 50.8751 27.0771C51.932 27.0771 52.7887 27.9339 52.7887 28.9908Z" fill="white"/>
<path d="M9.15152 33.1168C9.15152 34.1737 8.29475 35.0304 7.23787 35.0304C6.18099 35.0304 5.32422 34.1737 5.32422 33.1168C5.32422 32.0599 6.18099 31.2031 7.23787 31.2031C8.29475 31.2031 9.15152 32.0599 9.15152 33.1168Z" fill="white"/>
<path d="M43.1403 21.1646C43.1403 22.7824 41.8288 24.0939 40.211 24.0939C38.5932 24.0939 37.2817 22.7824 37.2817 21.1646C37.2817 19.5468 38.5932 18.2354 40.211 18.2354C41.8288 18.2354 43.1403 19.5468 43.1403 21.1646Z" fill="white"/>
<path d="M69.4553 21.1646C69.4553 22.7824 68.1438 24.0939 66.526 24.0939C64.9082 24.0939 63.5967 22.7824 63.5967 21.1646C63.5967 19.5468 64.9082 18.2354 66.526 18.2354C68.1438 18.2354 69.4553 19.5468 69.4553 21.1646Z" fill="white"/>
<path d="M84.6057 30.9869C84.6057 32.6047 83.2942 33.9162 81.6764 33.9162C80.0586 33.9162 78.7471 32.6047 78.7471 30.9869C78.7471 29.3691 80.0586 28.0576 81.6764 28.0576C83.2942 28.0576 84.6057 29.3691 84.6057 30.9869Z" fill="white"/>
<path d="M25.9343 16.9771C25.9343 18.5949 24.6228 19.9064 23.005 19.9064C21.3872 19.9064 20.0757 18.5949 20.0757 16.9771C20.0757 15.3593 21.3872 14.0479 23.005 14.0479C24.6228 14.0479 25.9343 15.3593 25.9343 16.9771Z" fill="white"/>
<path d="M69.4553 30.9865C69.4553 32.1634 68.5012 33.1174 67.3243 33.1174C66.1474 33.1174 65.1934 32.1634 65.1934 30.9865C65.1934 29.8095 66.1474 28.8555 67.3243 28.8555C68.5012 28.8555 69.4553 29.8095 69.4553 30.9865Z" fill="white"/>
<path d="M60.8264 11.9171C60.8264 13.094 59.8723 14.0481 58.6954 14.0481C57.5185 14.0481 56.5645 13.094 56.5645 11.9171C56.5645 10.7402 57.5185 9.78613 58.6954 9.78613C59.8723 9.78613 60.8264 10.7402 60.8264 11.9171Z" fill="white"/>
<path d="M2.88319 41.8212C2.88319 42.5881 2.26149 43.2099 1.49457 43.2099C0.727662 43.2099 0.105957 42.5881 0.105957 41.8212C0.105957 41.0543 0.727662 40.4326 1.49457 40.4326C2.26149 40.4326 2.88319 41.0543 2.88319 41.8212Z" fill="#FAA836"/>
<path d="M23.9364 41.8212C23.9364 42.5881 23.3147 43.2099 22.5478 43.2099C21.7809 43.2099 21.1592 42.5881 21.1592 41.8212C21.1592 41.0543 21.7809 40.4326 22.5478 40.4326C23.3147 40.4326 23.9364 41.0543 23.9364 41.8212Z" fill="#FAA836"/>
<path d="M46.5448 41.2529C46.5448 42.0198 45.9231 42.6415 45.1562 42.6415C44.3893 42.6415 43.7676 42.0198 43.7676 41.2529C43.7676 40.486 44.3893 39.8643 45.1562 39.8643C45.9231 39.8643 46.5448 40.486 46.5448 41.2529Z" fill="#FAA836"/>
<path d="M68.7113 41.2529C68.7113 42.0198 68.0896 42.6415 67.3227 42.6415C66.5558 42.6415 65.9341 42.0198 65.9341 41.2529C65.9341 40.486 66.5558 39.8643 67.3227 39.8643C68.0896 39.8643 68.7113 40.486 68.7113 41.2529Z" fill="#FAA836"/>
<path d="M90.2367 40.4326C90.2367 41.1995 89.615 41.8212 88.8481 41.8212C88.0812 41.8212 87.4595 41.1995 87.4595 40.4326C87.4595 39.6657 88.0812 39.0439 88.8481 39.0439C89.615 39.0439 90.2367 39.6657 90.2367 40.4326Z" fill="#FAA836"/>
</svg>
