<svg width="72" height="88" viewBox="0 0 72 88" fill="none" xmlns="http://www.w3.org/2000/svg">
<path d="M31.9125 86.1903C42.2882 75.791 38.6427 54.5611 37.4202 44.9408C44.8096 51.5862 43.6229 80.9267 38.0673 85.7659C34.2818 89.0632 31.9125 86.1903 31.9125 86.1903Z" fill="#017729"/>
<path fill-rule="evenodd" clip-rule="evenodd" d="M47.7097 31.6778C54.7377 27.703 61.4796 22.2586 62.1133 17.9112C63.1388 10.8767 43.5166 -1.75589 35.7326 1.99211C32.0196 3.77991 30.1372 10.0718 29.9101 16.8972C26.7471 11.6715 23.0199 7.38208 19.7258 6.70368C12.763 5.26979 -0.992248 24.122 2.29547 32.1112C4.0544 36.3855 11.604 38.6913 19.3372 38.9488C12.7206 42.3567 6.67557 46.8647 5.82233 50.8038C4.3174 57.7515 23.0281 71.6986 31.0505 68.4927C36.6976 66.236 39.0396 53.9207 37.7643 44.3155C41.2419 52.3689 47.6207 61.4422 52.7934 62.5546C59.7434 64.0492 73.6626 45.3177 70.4447 37.3C68.3128 31.9885 57.1201 30.3397 47.7097 31.6778Z" fill="#118639"/>
<path fill-rule="evenodd" clip-rule="evenodd" d="M43.018 2.91606C40.1839 2.171 37.7962 2.15426 36.1847 2.93022C34.6893 3.65025 33.4195 5.3628 32.4933 7.91101C31.5782 10.4286 31.0624 13.5927 30.9513 16.9315L30.8348 20.4357L29.0192 17.4362C27.4619 14.8634 25.7844 12.5533 24.1161 10.8164C22.423 9.05375 20.8498 7.99822 19.5158 7.72351C18.2458 7.46196 16.406 8.11728 14.2343 9.77313C12.1219 11.3837 9.92306 13.7701 8.01835 16.4733C6.11461 19.1752 4.54008 22.1434 3.6432 24.8919C2.73414 27.6778 2.57821 30.0604 3.25887 31.7145C3.96984 33.4421 5.95071 34.9485 8.93917 36.0596C11.8816 37.1537 15.5858 37.7813 19.372 37.9074L23.3746 38.0407L19.8143 39.8744C16.5496 41.556 13.455 43.4947 11.087 45.4756C8.67513 47.4933 7.18931 49.4136 6.8405 51.0239C6.56599 52.2912 7.20249 54.1376 8.83608 56.3261C10.4249 58.4548 12.7888 60.6779 15.4725 62.6102C18.1547 64.5414 21.1067 66.1462 23.8459 67.0711C26.6224 68.0085 29.0033 68.1888 30.6642 67.5251C31.7948 67.0732 32.8479 66.0795 33.7732 64.5691C34.6948 63.0649 35.4433 61.1217 35.9925 58.9085C37.0913 54.4807 37.3533 49.1325 36.7319 44.4522L38.7207 43.9022C40.4285 47.8571 42.8488 52.0596 45.4631 55.395C46.77 57.0623 48.1089 58.4918 49.4131 59.5626C50.7272 60.6416 51.9457 61.3065 53.0126 61.5359C54.2803 61.8085 56.1257 61.1693 58.3118 59.5324C60.4381 57.9404 62.6577 55.5732 64.586 52.8867C66.5132 50.2015 68.1135 47.2472 69.0343 44.5066C69.9677 41.7287 70.1444 39.3475 69.4782 37.6876C69.0583 36.6416 68.1602 35.6974 66.7881 34.8899C65.4178 34.0833 63.6395 33.453 61.5886 33.0134C57.4866 32.1343 52.4612 32.0539 47.8566 32.7087L47.1971 30.7708C50.666 28.8089 54.0395 26.4975 56.6091 24.1629C57.8938 22.9958 58.9578 21.8406 59.7313 20.7385C60.51 19.6292 60.9564 18.6275 61.0828 17.7605C61.2698 16.4774 60.5083 14.679 58.7287 12.6075C56.9977 10.5927 54.4871 8.53668 51.6774 6.79284C48.8691 5.0499 45.8141 3.65113 43.018 2.91606ZM60.3088 11.2499C62.1631 13.4083 63.4699 15.8269 63.1442 18.061C62.9537 19.3678 62.3198 20.6769 61.4364 21.9354C60.5481 23.201 59.3685 24.4706 58.01 25.7048C56.2875 27.2697 54.2456 28.8064 52.0747 30.2346C55.5186 30.0899 58.9874 30.3254 62.0251 30.9764C64.2151 31.4458 66.2228 32.1399 67.8448 33.0945C69.4651 34.0482 70.7654 35.3019 71.4115 36.9117C72.3542 39.2606 71.9978 42.2275 71.0091 45.1701C70.0079 48.1499 68.2974 51.2883 66.2784 54.1014C64.2603 56.9131 61.8981 59.4497 59.5604 61.2C57.2826 62.9055 54.7819 64.0472 52.5746 63.5726C51.0551 63.2458 49.5364 62.3594 48.0911 61.1726C46.6357 59.9777 45.1926 58.4268 43.8236 56.6801C42.1372 54.5286 40.538 52.0478 39.1448 49.5017C39.1538 52.898 38.7741 56.349 38.0144 59.4103C37.4316 61.7587 36.6155 63.9177 35.5496 65.6575C34.4874 67.3911 33.1302 68.783 31.4372 69.4595C29.0869 70.3988 26.1206 70.0379 23.1795 69.0448C20.2012 68.0392 17.0653 66.324 14.2552 64.3008C11.4465 62.2785 8.91347 59.9125 7.16663 57.5722C5.46452 55.2919 4.32653 52.7895 4.80449 50.5829C5.30892 48.2541 7.27224 45.9508 9.75033 43.8778C11.4809 42.4301 13.5478 41.025 15.7576 39.7279C13.0497 39.4151 10.4528 38.845 8.21316 38.0122C5.05377 36.8375 2.38035 35.0538 1.33239 32.5072C0.369194 30.1666 0.699777 27.1968 1.66275 24.2457C2.63791 21.2573 4.32093 18.1041 6.31539 15.2734C8.30888 12.4442 10.6488 9.88714 12.9712 8.1165C15.234 6.39119 17.7247 5.2277 19.936 5.6831C21.8962 6.08678 23.8337 7.51514 25.6185 9.37324C26.8067 10.6102 27.9768 12.0903 29.0949 13.7119C29.3581 11.3616 29.8327 9.13248 30.5354 7.19934C31.5354 4.4483 33.0633 2.121 35.2809 1.05324C37.5613 -0.0447988 40.5454 0.11204 43.5476 0.90129C46.5878 1.70052 49.8338 3.19681 52.7759 5.02282C55.7166 6.84793 58.4058 9.0348 60.3088 11.2499Z" fill="#017729"/>
</svg>
