<svg width="144" height="75" viewBox="0 0 144 75" fill="none" xmlns="http://www.w3.org/2000/svg">
<path d="M32.0685 14.1002C33.7448 14.0775 36.2308 14.6867 38.6752 15.5191C39.9315 15.9467 39.8937 15.924 40.3175 14.7207C42.0884 9.6843 44.9906 5.41981 49.5881 2.6424C53.0769 0.53096 56.9781 -0.399889 61.1367 0.269868C65.0682 0.901785 68.8332 1.93858 72.042 4.4549C73.5896 5.66954 75.0237 6.99392 76.0908 8.65507C76.9006 9.91891 78.2249 10.653 79.1482 11.826C80.151 13.0974 81.1234 14.3688 81.884 15.7916C82.0997 16.1927 82.3192 16.4765 82.8262 16.3781C85.2896 15.9089 87.7075 16.4046 90.0006 17.1235C93.1564 18.1149 96.2289 19.4052 99.2826 20.6918C100.63 21.2594 101.56 22.4286 102.401 23.6205C102.783 24.1654 102.756 24.3962 101.973 24.4681C97.6517 24.8579 93.4553 25.7131 89.5314 27.7148C85.8269 29.6067 83.3143 32.5885 81.3202 36.1113C80.8813 36.887 80.4764 37.6816 80.1245 38.499C79.8331 39.1801 79.292 39.1687 78.7509 39.0855C77.6347 38.9114 76.526 38.7222 75.4021 38.6087C71.8566 38.2455 68.3564 38.3363 65.2271 40.232C59.6874 43.5846 55.737 48.1972 54.5148 54.7472C54.284 55.9808 54.2878 57.29 54.5678 58.5387C54.7532 59.3636 54.477 59.6209 53.6937 59.5301C51.6239 59.2917 49.5503 59.0685 47.4805 58.8263C45.9745 58.6522 44.4798 58.6976 42.97 58.8225C40.7905 59.0079 38.6109 59.1593 36.4427 59.5036C34.0702 59.8782 31.709 60.3285 29.45 61.1156C27.138 61.9215 24.7239 61.8156 22.3703 62.2053C20.9437 62.4399 19.502 62.4589 18.0604 62.4172C13.0164 62.281 8.57404 60.4912 4.91497 57.1008C0.994811 53.4682 -0.0344197 47.4328 1.96728 42.4645C4.07115 37.2503 8.02915 34.015 13.0466 31.8998C13.9018 31.5365 14.2878 31.1468 14.2045 30.1781C13.9813 27.5861 14.9613 25.3763 16.4295 23.2876C17.5533 21.6869 18.6166 20.0599 20.0318 18.6863C23.1346 15.6932 26.7937 14.085 32.0685 14.1002Z" fill="#B5EEFE"/>
<path d="M77.3509 43.6375C78.1001 43.7094 78.8456 43.7926 79.5948 43.8456C81.7062 43.997 83.1214 42.9753 84.0485 41.1628C84.7371 39.8195 85.3501 38.4346 86.1599 37.1556C86.2886 36.9513 86.3869 36.7318 86.6178 36.6183C89.6676 32.8268 93.7126 30.7683 98.4047 29.8072C99.6194 29.5575 100.849 29.4061 102.071 29.3342C105.367 29.1374 108.584 29.7164 111.278 31.6311C113.851 33.4625 115.508 36.1075 116.136 39.2746C116.329 40.2395 116.443 40.3606 117.427 40.0201C119.477 39.3049 121.596 38.847 123.75 38.8168C128.15 38.76 131.628 40.459 133.849 44.4435C134.731 46.0252 135.616 47.5425 135.241 49.4572C134.988 50.7475 134.992 50.7967 136.237 51.247C137.939 51.8676 139.513 52.7492 140.785 53.9903C143.388 56.5256 144.293 59.9917 143.165 63.5486C142.662 65.1303 141.844 66.5606 140.713 67.7941C138.783 70.0721 136.187 71.2905 133.493 72.3576C129.978 73.7501 126.349 73.6365 122.652 73.4322C119.012 73.2317 115.538 72.0095 111.898 71.9413C108.504 71.8808 105.117 71.824 101.742 72.3954C97.8674 73.0538 93.9927 73.7538 90.0876 74.1587C81.5624 75.0442 73.3853 73.5382 65.492 70.2537C64.1904 69.7126 63.3011 68.8537 62.446 67.779C60.9248 65.8606 59.5853 63.8967 58.7377 61.5507C57.8371 59.057 57.9128 56.6013 58.6885 54.1985C59.9561 50.2745 62.4952 47.2739 65.984 45.0792C69.2306 43.1796 72.6853 42.6537 76.3444 43.5013C76.6811 43.5807 77.0368 43.4369 77.3509 43.6375Z" fill="#9FE9FE"/>
<path d="M140.717 67.7983C141.114 66.8107 141.927 66.0918 142.382 65.1193C144.171 61.2824 143.835 57.6914 141.076 54.4902C139.672 52.8631 137.727 51.8831 135.699 51.1755C134.95 50.9144 134.787 50.6155 135.007 49.8284C135.54 47.8948 134.742 46.2564 133.792 44.5952C132.082 41.6097 129.641 39.7215 126.258 39.1237C123.428 38.6242 120.688 39.2334 117.971 39.9713C117.707 40.0432 117.445 40.134 117.192 40.2399C116.435 40.5578 116.064 40.1907 115.985 39.4945C115.671 36.7511 114.081 34.7078 112.356 32.7288C110.873 31.0298 108.814 30.4433 106.76 29.8909C103.592 29.0395 100.497 29.5352 97.3603 30.292C93.1715 31.2985 89.7924 33.5499 86.8069 36.5279C86.7615 36.5733 86.6858 36.5884 86.6252 36.6187C87.5485 34.5489 89.2021 33.1829 91.113 32.1234C94.0607 30.4925 97.2543 29.7244 100.603 29.346C103.354 29.0357 105.965 29.3233 108.595 30.1217C111.531 31.0147 113.431 33.024 114.88 35.5592C115.591 36.8041 116.269 38.0793 116.386 39.5702C116.446 40.3459 117.01 40.0053 117.396 39.8842C119.757 39.1312 122.16 38.5636 124.65 38.6999C128.419 38.908 131.541 40.3194 133.542 43.7136C134.099 44.6558 134.78 45.5185 135.135 46.5742C135.502 47.6716 135.726 48.7689 135.29 49.8852C135.052 50.4944 135.264 50.7214 135.835 50.9333C137.421 51.5123 138.889 52.2993 140.232 53.3475C143.596 55.9735 144.781 60.677 142.953 64.529C142.382 65.7285 141.893 67.0075 140.717 67.7983Z" fill="#B8EEFE"/>
<path d="M77.3508 43.6373C75.9924 43.5011 74.6378 43.3308 73.2755 43.2362C71.0203 43.0773 68.9921 43.9741 66.9374 44.712C66.6158 44.8255 66.3017 44.9541 65.9839 45.0752C67.365 43.9476 68.9618 43.3384 70.7176 43.1341C72.9577 42.8767 75.1789 42.9486 77.3508 43.6373Z" fill="#BBEFFE"/>
<path d="M10.6703 54.2855C10.6439 53.0671 11.1131 52.1325 11.465 51.1789C11.9266 49.9302 12.4828 48.7156 12.9331 47.4631C13.1564 46.8463 13.5575 46.4112 14.0116 45.9911C14.4845 45.556 15.0105 45.643 15.544 45.8738C16.1154 46.1198 16.2895 46.6836 16.1873 47.1528C15.6651 49.5443 15.4646 52.0152 14.5186 54.3082C14.39 54.6223 14.2462 54.9477 14.038 55.2126C13.4856 55.9202 12.8158 56.4726 11.8434 56.1661C10.8595 55.8559 10.5947 55.0764 10.6703 54.2855Z" fill="#8FE5FE"/>
<path d="M18.2836 55.6891C18.749 53.4869 19.2826 51.3035 20.5464 49.3775C21.008 48.6775 21.7232 48.6926 22.393 48.8516C22.987 48.9916 23.1422 49.5856 23.0438 50.1003C22.6881 52.0074 22.7827 53.9939 22.0524 55.8291C21.8632 56.3059 21.6627 56.7827 21.4167 57.2292C21.0875 57.827 20.6032 58.3227 19.8842 58.2622C19.1161 58.1979 18.7112 57.6379 18.5069 56.9151C18.3933 56.5178 18.2571 56.1318 18.2836 55.6891Z" fill="#8FE5FE"/>
<path d="M25.9536 56.2113C26.0898 54.5652 26.4568 52.9911 27.4407 51.61C27.8607 51.0197 28.4321 50.7624 29.1283 50.8873C29.7678 50.997 29.9646 51.5343 30.0819 52.0868C30.5738 54.3874 29.7981 56.3967 28.5494 58.2432C27.9856 59.0757 26.7179 58.8373 26.2866 57.9102C26.0444 57.3805 25.8741 56.8205 25.9536 56.2113Z" fill="#8FE5FE"/>
<path d="M123.765 69.0505C123.594 69.0656 123.231 68.9294 122.951 68.6758C121.933 67.7639 120.915 66.8482 119.947 65.8871C119.546 65.486 119.171 65.0092 119.235 64.3546C119.266 64.0481 119.213 63.7075 119.553 63.5486C119.879 63.3935 120.234 63.3859 120.522 63.6319C121.763 64.6989 123.25 65.4633 124.321 66.7498C124.616 67.1055 124.892 67.4574 124.949 67.8964C125.032 68.5661 124.748 69.0164 123.765 69.0505Z" fill="#65DCFE"/>
<path d="M126.803 62.2397C126.875 62.2662 127.121 62.3154 127.318 62.4402C128.604 63.2689 129.675 64.3095 130.379 65.6944C130.644 66.2128 130.803 66.7804 130.243 67.1777C129.66 67.5902 129.096 67.4388 128.589 66.9318C127.617 65.9631 126.788 64.8733 125.944 63.7987C125.691 63.477 125.513 63.0722 125.774 62.6521C125.967 62.3343 126.258 62.1754 126.803 62.2397Z" fill="#65DCFE"/>
<path d="M136.172 64.0828C136.168 64.8737 135.605 65.271 134.753 65.0818C133.667 64.8358 132.373 63.0725 132.445 61.96C132.483 61.3508 132.751 60.9686 133.395 61.0065C134.201 61.0557 136.176 63.2731 136.172 64.0828Z" fill="#66DCFE"/>
</svg>
