<svg width="96" height="87" viewBox="0 0 96 87" fill="none" xmlns="http://www.w3.org/2000/svg">
<path d="M22.6881 7.36328C-3.29878 21.4269 -20.7712 95.4522 64.2295 81.2151C27.2767 66.026 18.3109 52.9221 22.6881 7.36328Z" fill="#FFDD80" stroke="#FFD54D"/>
<path d="M70.571 21.3749L71.7826 35.1067L71.8163 35.4892L72.1947 35.5553L84.9389 37.7805L75.2926 42.2806L74.9659 42.433L75.0073 42.7911L76.8075 58.3717L67.2196 46.3359L66.9932 46.0517L66.653 46.1792L53.679 51.0445L60.6456 41.4904L60.8528 41.2062L60.6553 40.9151L53.4707 30.3249L63.9679 33.2726L64.3601 33.3827L64.5472 33.0209L70.571 21.3749Z" fill="#FFDD80" stroke="#FACF58"/>
<path d="M81.4726 68.1025C81.4726 68.1025 81.9601 72.5648 84.0375 74.6063C86.1148 76.6479 90.5408 77.1714 90.5408 77.1714C90.5408 77.1714 86.1148 77.8005 84.0375 79.7364C81.9601 81.6724 81.4726 86.2402 81.4726 86.2402C81.4726 86.2402 80.9999 81.7627 78.9077 79.7364C76.8154 77.7102 72.4043 77.1714 72.4043 77.1714C72.4043 77.1714 76.3428 77.3915 78.9077 74.6063C81.4726 71.8211 81.4726 68.1025 81.4726 68.1025Z" fill="#FFDD80"/>
<path d="M37.8896 0.226562C37.8896 0.226562 38.3771 4.68883 40.4544 6.73035C42.5318 8.77187 46.9578 9.29541 46.9578 9.29541C46.9578 9.29541 42.5318 9.92452 40.4544 11.8605C38.3771 13.7964 37.8896 18.3643 37.8896 18.3643C37.8896 18.3643 37.4169 13.8867 35.3247 11.8605C33.2324 9.83419 28.8213 9.29541 28.8213 9.29541C28.8213 9.29541 32.7598 9.51554 35.3247 6.73035C37.8896 3.94517 37.8896 0.226562 37.8896 0.226562Z" fill="#FFDD80"/>
<path d="M88.3418 13.8037C88.3418 13.8037 88.7111 17.1838 90.2847 18.7303C91.8582 20.2767 95.2109 20.6733 95.2109 20.6733C95.2109 20.6733 91.8582 21.1498 90.2847 22.6163C88.7111 24.0828 88.3418 27.5429 88.3418 27.5429C88.3418 27.5429 87.9838 24.1512 86.3989 22.6163C84.8141 21.0814 81.4727 20.6733 81.4727 20.6733C81.4727 20.6733 84.456 20.84 86.3989 18.7303C88.3418 16.6205 88.3418 13.8037 88.3418 13.8037Z" fill="#FFDD80"/>
</svg>
