<svg width="123" height="74" viewBox="0 0 123 74" fill="none" xmlns="http://www.w3.org/2000/svg">
<path d="M60.4427 -0.000781195C70.5763 0.327159 80.0357 2.83628 88.775 8.18627C94.9047 11.9385 100.234 16.5564 104.787 22.0208C109.484 27.6567 113.279 33.8952 116.151 40.7057C117.846 44.7249 119.344 48.8356 120.406 53.0111C121.264 56.3782 122.06 59.8444 122.254 63.4136C122.414 66.3651 123.005 69.2937 122.963 72.2871C122.944 73.6408 122.517 74.0564 121.203 73.9954C119.309 73.9077 117.416 73.9611 115.526 73.637C114.601 73.4768 114.235 73.1222 114.151 72.1917C113.709 67.4824 113.439 62.773 112.361 58.1132C111.046 52.4238 109.355 46.8946 106.726 41.701C103.393 35.1193 99.3163 29.0257 93.8952 23.935C88.5502 18.913 82.5767 14.8023 75.6165 12.4228C67.9096 9.78784 59.9398 8.8841 51.9358 10.7602C43.8403 12.6554 36.5219 16.2589 30.3275 21.9483C25.8169 26.0895 21.832 30.6768 18.9366 36.0764C16.2051 41.1824 13.7708 46.3913 12.285 52.0883C10.9173 57.3277 10.0678 62.5709 9.73635 67.9438C9.67159 69.0077 9.43539 69.7856 7.88867 69.5034C6.22767 69.2021 4.47142 69.3547 2.76089 69.4271C1.48466 69.4843 0.974172 69.1221 0.970362 67.7302C0.958933 63.4708 1.61419 59.3106 2.37612 55.1351C3.7095 47.8098 6.20481 40.8926 9.5192 34.2842C11.9002 29.5443 14.8413 25.1324 18.2661 21.0293C24.4149 13.6621 31.798 7.93841 40.5945 4.17854C45.3337 2.14989 50.3243 0.807629 55.5244 0.353851C57.1588 0.208948 58.7855 -0.0084077 60.4427 -0.000781195Z" fill="#FDB5F9"/>
<path d="M58.7631 15.203C69.2624 15.0352 77.7275 18.3261 85.3696 23.8629C94.4061 30.4065 100.806 39.1274 105.119 49.3202C107.477 54.8952 109.34 60.6723 110.09 66.7697C110.315 68.581 110.647 70.377 110.73 72.215C110.772 73.1378 110.456 73.4734 109.542 73.4276C107.389 73.3208 105.233 73.2446 103.077 73.2102C102.128 73.195 101.77 72.8251 101.69 71.8565C100.871 61.9268 97.69 52.7293 92.2422 44.4659C86.9735 36.4734 80.0513 30.1434 70.8739 26.864C65.2928 24.8696 59.5364 24.5798 53.5819 25.6475C44.2102 27.3292 37.349 32.7707 31.7451 39.8672C27.4325 45.3277 24.461 51.631 22.9638 58.5521C22.2971 61.637 21.5276 64.68 21.379 67.8526C21.3066 69.3855 20.7009 70.4151 18.7808 70.152C17.1579 69.927 15.4855 69.9957 13.8359 70.0376C12.6664 70.0681 12.2892 69.6334 12.3464 68.4627C12.5673 63.9097 13.4245 59.4825 14.5636 55.0706C16.1065 49.1029 18.4723 43.5088 21.6609 38.2732C25.1734 32.5038 29.6269 27.5923 35.0442 23.4816C39.5015 20.1031 44.4045 17.7274 49.7113 16.2784C52.9114 15.4051 56.2715 14.856 58.7631 15.203Z" fill="#FDDE25"/>
<path d="M92.2802 72.8412C90.7601 72.8298 89.0953 73.1386 87.7886 72.376C86.3714 71.5523 87.0686 69.7334 86.7714 68.3911C85.3428 61.9925 82.897 56.0781 78.8245 50.9379C74.9463 46.0417 70.0242 42.5525 63.8031 41.3933C59.2848 40.5506 54.8847 41.3132 50.7855 43.5058C42.6634 47.853 38.1261 54.9799 35.2422 63.4377C34.5831 65.3672 34.2936 67.3654 33.8364 69.3254C33.6117 70.2978 33.2612 70.6028 32.3469 70.5418C30.1373 70.3969 27.9315 70.2711 25.7181 70.1757C24.7009 70.1338 24.6323 69.6076 24.7961 68.7763C26.339 60.7684 28.7848 53.1458 33.6117 46.4192C38.5642 39.5172 44.8691 34.4227 53.1056 32.2224C61.6506 29.9383 69.609 31.7572 76.9425 36.642C84.0742 41.3895 88.7943 48.0703 92.1697 55.7578C94.284 60.574 95.2783 65.7524 96.2041 70.9193C96.4289 72.1853 96.1546 73.0509 94.5621 72.8565C93.8116 72.7649 93.0421 72.8412 92.2802 72.8412Z" fill="#9FE9FE"/>
<path d="M43.0025 70.877C41.8596 70.877 40.7167 70.8389 39.5776 70.8885C38.4918 70.9342 38.2099 70.3661 38.4385 69.4661C40.5986 61.016 45.7568 51.4218 56.1914 48.6572C63.1897 46.804 69.2357 49.1644 74.3139 53.95C79.1941 58.5526 81.9637 64.4021 83.3809 70.938C83.6666 72.246 83.2742 72.5549 82.1161 72.4443C81.8646 72.4214 81.6018 72.3909 81.3541 72.429C76.7864 73.1078 73.8987 71.9028 72.31 66.8807C71.0719 62.9531 67.8794 59.9292 63.5288 58.5373C59.4449 57.2294 56.1991 58.5793 53.2085 61.1304C50.9494 63.056 49.2998 65.5156 48.435 68.3145C47.7683 70.4614 46.7321 71.388 44.5225 70.9647C44.0311 70.8694 43.5091 70.9495 43.0025 70.9495C43.0025 70.9228 43.0025 70.8999 43.0025 70.877Z" fill="#FC927B"/>
</svg>
