<svg width="148" height="230" viewBox="0 0 148 230" fill="none" xmlns="http://www.w3.org/2000/svg">
<path d="M42.3972 61.1139L82.4576 205.406M92.6692 87.4917L62.898 224.59M80.8168 42.382L71.1728 215.938" stroke="#004535" stroke-width="2"/>
<mask id="path-2-inside-1_139_311" fill="white">
<path fill-rule="evenodd" clip-rule="evenodd" d="M51.4798 39.3306C51.6379 38.3042 51.6525 37.2457 51.5063 36.1755C50.6106 29.6164 44.018 25.1003 36.7815 26.0886C29.5449 27.0768 24.4046 33.1951 25.3003 39.7542C25.458 40.909 25.7923 42.0005 26.2756 43.0097C23.6379 41.2719 20.2592 40.4429 16.7271 40.9253C9.49052 41.9136 4.35024 48.0319 5.24597 54.591C5.91715 59.5058 9.78695 63.2735 14.7296 64.4379C10.2569 66.879 7.52116 71.5593 8.19431 76.4885C9.09004 83.0476 15.6826 87.5637 22.9192 86.5754C26.48 86.0891 29.5334 84.3607 31.6097 81.9488C31.4063 83.0668 31.3735 84.2257 31.5337 85.3987C32.4294 91.9577 39.0219 96.4738 46.2585 95.4856C53.4951 94.4973 58.6354 88.379 57.7396 81.8199C57.5935 80.7499 57.2958 79.7344 56.8684 78.7882C59.4589 80.392 62.7139 81.1409 66.1109 80.677C73.3475 79.6888 78.4877 73.5705 77.592 67.0114C76.9198 62.0894 73.0397 58.3178 68.0868 57.1593C72.5477 54.7153 75.2745 50.0415 74.6024 45.1195C73.7067 38.5604 67.1141 34.0443 59.8775 35.0326C56.4805 35.4965 53.5454 37.0909 51.4798 39.3306ZM52.2572 73.6219C51.8299 72.6757 51.5322 71.6601 51.386 70.5901C50.7139 65.6681 53.4407 60.9943 57.9017 58.5503C52.9487 57.3918 49.0686 53.6202 48.3964 48.6982C48.2503 47.628 48.2648 46.5695 48.423 45.5431C46.3573 47.7828 43.4222 49.3772 40.0252 49.8411C36.4931 50.3235 33.1144 49.4945 30.4767 47.7568C30.96 48.766 31.2942 49.8574 31.4519 51.0122C32.1251 55.9414 29.3893 60.6217 24.9167 63.0628C29.8593 64.2272 33.7291 67.9949 34.4003 72.9098C34.5605 74.0827 34.5276 75.2416 34.3242 76.3596C36.4006 73.9477 39.4539 72.2193 43.0148 71.733C46.4117 71.2691 49.6667 72.0181 52.2572 73.6219Z"/>
</mask>
<path fill-rule="evenodd" clip-rule="evenodd" d="M51.4798 39.3306C51.6379 38.3042 51.6525 37.2457 51.5063 36.1755C50.6106 29.6164 44.018 25.1003 36.7815 26.0886C29.5449 27.0768 24.4046 33.1951 25.3003 39.7542C25.458 40.909 25.7923 42.0005 26.2756 43.0097C23.6379 41.2719 20.2592 40.4429 16.7271 40.9253C9.49052 41.9136 4.35024 48.0319 5.24597 54.591C5.91715 59.5058 9.78695 63.2735 14.7296 64.4379C10.2569 66.879 7.52116 71.5593 8.19431 76.4885C9.09004 83.0476 15.6826 87.5637 22.9192 86.5754C26.48 86.0891 29.5334 84.3607 31.6097 81.9488C31.4063 83.0668 31.3735 84.2257 31.5337 85.3987C32.4294 91.9577 39.0219 96.4738 46.2585 95.4856C53.4951 94.4973 58.6354 88.379 57.7396 81.8199C57.5935 80.7499 57.2958 79.7344 56.8684 78.7882C59.4589 80.392 62.7139 81.1409 66.1109 80.677C73.3475 79.6888 78.4877 73.5705 77.592 67.0114C76.9198 62.0894 73.0397 58.3178 68.0868 57.1593C72.5477 54.7153 75.2745 50.0415 74.6024 45.1195C73.7067 38.5604 67.1141 34.0443 59.8775 35.0326C56.4805 35.4965 53.5454 37.0909 51.4798 39.3306ZM52.2572 73.6219C51.8299 72.6757 51.5322 71.6601 51.386 70.5901C50.7139 65.6681 53.4407 60.9943 57.9017 58.5503C52.9487 57.3918 49.0686 53.6202 48.3964 48.6982C48.2503 47.628 48.2648 46.5695 48.423 45.5431C46.3573 47.7828 43.4222 49.3772 40.0252 49.8411C36.4931 50.3235 33.1144 49.4945 30.4767 47.7568C30.96 48.766 31.2942 49.8574 31.4519 51.0122C32.1251 55.9414 29.3893 60.6217 24.9167 63.0628C29.8593 64.2272 33.7291 67.9949 34.4003 72.9098C34.5605 74.0827 34.5276 75.2416 34.3242 76.3596C36.4006 73.9477 39.4539 72.2193 43.0148 71.733C46.4117 71.2691 49.6667 72.0181 52.2572 73.6219Z" fill="#FFD468"/>
<path d="M51.4798 39.3306L50.4914 39.1784L49.9922 42.4187L52.2149 40.0086L51.4798 39.3306ZM26.2756 43.0097L25.7254 43.8448L28.7331 45.8263L27.1775 42.5778L26.2756 43.0097ZM14.7296 64.4379L15.2086 65.3157L17.5024 64.0638L14.9589 63.4646L14.7296 64.4379ZM31.6097 81.9488L32.5936 82.1278L33.2519 78.5084L30.8518 81.2964L31.6097 81.9488ZM56.8684 78.7882L57.3948 77.9379L54.6078 76.2124L55.9571 79.1998L56.8684 78.7882ZM68.0868 57.1593L67.6063 56.2823L65.3145 57.5379L67.859 58.1331L68.0868 57.1593ZM52.2572 73.6219L51.7308 74.4721L54.5179 76.1976L53.1686 73.2102L52.2572 73.6219ZM57.9017 58.5503L58.3822 59.4273L60.6739 58.1717L58.1294 57.5765L57.9017 58.5503ZM48.423 45.5431L49.4113 45.6953L49.9105 42.455L47.6878 44.8651L48.423 45.5431ZM30.4767 47.7568L31.0268 46.9217L28.0192 44.9402L29.5747 48.1886L30.4767 47.7568ZM24.9167 63.0628L24.4376 62.185L22.1438 63.437L24.6874 64.0362L24.9167 63.0628ZM34.3242 76.3596L33.3404 76.1806L32.682 79.8L35.0821 77.012L34.3242 76.3596ZM50.5155 36.3108C50.6484 37.284 50.6351 38.2456 50.4914 39.1784L52.4681 39.4829C52.6407 38.3628 52.6565 37.2075 52.4971 36.0402L50.5155 36.3108ZM36.9168 27.0794C43.7 26.153 49.7067 30.3883 50.5155 36.3108L52.4971 36.0402C51.5144 28.8445 44.3361 24.0476 36.6462 25.0978L36.9168 27.0794ZM26.2911 39.6189C25.4823 33.6964 30.1335 28.0057 36.9168 27.0794L36.6462 25.0978C28.9563 26.1479 23.3269 32.6939 24.3095 39.8895L26.2911 39.6189ZM27.1775 42.5778C26.7382 41.6604 26.4345 40.6689 26.2911 39.6189L24.3095 39.8895C24.4815 41.1491 24.8464 42.3405 25.3737 43.4416L27.1775 42.5778ZM16.8624 41.9161C20.1572 41.4662 23.2919 42.2415 25.7254 43.8448L26.8258 42.1746C23.9839 40.3023 20.3612 39.4197 16.5918 39.9345L16.8624 41.9161ZM6.23677 54.4557C5.42798 48.5332 10.0791 42.8424 16.8624 41.9161L16.5918 39.9345C8.90189 40.9847 3.2725 47.5306 4.25517 54.7263L6.23677 54.4557ZM14.9589 63.4646C10.3573 62.3805 6.84386 58.9011 6.23677 54.4557L4.25517 54.7263C4.99045 60.1105 9.21656 64.1665 14.5003 65.4113L14.9589 63.4646ZM9.18511 76.3532C8.57626 71.8948 11.0444 67.5885 15.2086 65.3157L14.2505 63.5601C9.46951 66.1695 6.46606 71.2237 7.20351 76.6238L9.18511 76.3532ZM22.7838 85.5846C16.0006 86.511 9.99391 82.2757 9.18511 76.3532L7.20351 76.6238C8.18617 83.8195 15.3646 88.6164 23.0545 87.5662L22.7838 85.5846ZM30.8518 81.2964C28.9365 83.5213 26.1055 85.131 22.7838 85.5846L23.0545 87.5662C26.8546 87.0473 30.1302 85.2001 32.3676 82.6012L30.8518 81.2964ZM32.5245 85.2633C32.3788 84.1968 32.4087 83.144 32.5936 82.1278L30.6258 81.7698C30.404 82.9895 30.3681 84.2545 30.5429 85.534L32.5245 85.2633ZM46.1232 94.4948C39.3399 95.4211 33.3333 91.1858 32.5245 85.2633L30.5429 85.534C31.5255 92.7296 38.7039 97.5265 46.3938 96.4764L46.1232 94.4948ZM56.7488 81.9552C57.5576 87.8777 52.9065 93.5684 46.1232 94.4948L46.3938 96.4764C54.0837 95.4262 59.7131 88.8803 58.7304 81.6846L56.7488 81.9552ZM55.9571 79.1998C56.3455 80.0596 56.616 80.9823 56.7488 81.9552L58.7304 81.6846C58.5711 80.5176 58.2462 79.4091 57.7798 78.3765L55.9571 79.1998ZM65.9756 79.6862C62.807 80.1189 59.7862 79.4185 57.3948 77.9379L56.342 79.6384C59.1316 81.3655 62.6209 82.1629 66.2462 81.6678L65.9756 79.6862ZM76.6012 67.1467C77.41 73.0692 72.7588 78.7599 65.9756 79.6862L66.2462 81.6678C73.9361 80.6177 79.5655 74.0718 78.5828 66.8761L76.6012 67.1467ZM67.859 58.1331C72.4703 59.2116 75.9932 62.6948 76.6012 67.1467L78.5828 66.8761C77.8464 61.4839 73.6091 57.424 68.3145 56.1856L67.859 58.1331ZM73.6116 45.2548C74.2195 49.7067 71.7595 54.0069 67.6063 56.2823L68.5672 58.0364C73.3359 55.4237 76.3296 50.3763 75.5932 44.9842L73.6116 45.2548ZM60.0129 36.0234C66.7961 35.097 72.8028 39.3323 73.6116 45.2548L75.5932 44.9842C74.6105 37.7885 67.4321 32.9916 59.7422 34.0418L60.0129 36.0234ZM52.2149 40.0086C54.1217 37.941 56.8442 36.4561 60.0129 36.0234L59.7422 34.0418C56.1168 34.5369 52.969 36.2408 50.7447 38.6527L52.2149 40.0086ZM53.1686 73.2102C52.7802 72.3504 52.5097 71.4278 52.3768 70.4548L50.3952 70.7254C50.5546 71.8924 50.8795 73.0009 51.3459 74.0335L53.1686 73.2102ZM52.3768 70.4548C51.7689 66.0029 54.2289 61.7027 58.3822 59.4273L57.4212 57.6732C52.6525 60.2859 49.6589 65.3333 50.3952 70.7254L52.3768 70.4548ZM58.1294 57.5765C53.5181 56.498 49.9952 53.0148 49.3872 48.5629L47.4056 48.8335C48.142 54.2257 52.3793 58.2856 57.6739 59.524L58.1294 57.5765ZM49.3872 48.5629C49.2543 47.5897 49.2676 46.6281 49.4113 45.6953L47.4346 45.3908C47.262 46.5109 47.2462 47.6662 47.4056 48.8335L49.3872 48.5629ZM47.6878 44.8651C45.781 46.9327 43.0585 48.4176 39.8899 48.8503L40.1605 50.8319C43.7859 50.3368 46.9337 48.6329 49.1581 46.221L47.6878 44.8651ZM39.8899 48.8503C36.5951 49.3003 33.4604 48.525 31.0268 46.9217L29.9265 48.5918C32.7684 50.4641 36.391 51.3467 40.1605 50.8319L39.8899 48.8503ZM29.5747 48.1886C30.014 49.106 30.3177 50.0976 30.4611 51.1475L32.4427 50.8769C32.2707 49.6173 31.9059 48.426 31.3786 47.3249L29.5747 48.1886ZM30.4611 51.1475C31.07 55.6059 28.6019 59.9122 24.4376 62.185L25.3958 63.9406C30.1767 61.3312 33.1802 56.277 32.4427 50.8769L30.4611 51.1475ZM24.6874 64.0362C29.2889 65.1202 32.8024 68.5996 33.4095 73.0451L35.3911 72.7744C34.6558 67.3902 30.4297 63.3342 25.146 62.0895L24.6874 64.0362ZM33.4095 73.0451C33.5551 74.1116 33.5253 75.1644 33.3404 76.1806L35.3081 76.5386C35.53 75.3189 35.5658 74.0539 35.3911 72.7744L33.4095 73.0451ZM35.0821 77.012C36.9975 74.7871 39.8284 73.1774 43.1501 72.7238L42.8795 70.7422C39.0794 71.2611 35.8037 73.1083 33.5664 75.7072L35.0821 77.012ZM43.1501 72.7238C46.3187 72.2911 49.3395 72.9916 51.7308 74.4721L52.7836 72.7716C49.994 71.0446 46.5048 70.2471 42.8795 70.7422L43.1501 72.7238Z" fill="#FFD468" mask="url(#path-2-inside-1_139_311)"/>
<circle cx="41.3981" cy="61.1436" r="17.3385" transform="rotate(-7.77636 41.3981 61.1436)" fill="white"/>
<mask id="path-5-inside-2_139_311" fill="white">
<path fill-rule="evenodd" clip-rule="evenodd" d="M104.733 55.4947C110.31 59.3744 111.763 67.1297 108.423 73.5851C110.296 72.7199 112.398 72.1997 114.63 72.1211C122.851 71.8313 129.728 77.6367 129.99 85.0877C130.253 92.5387 123.802 98.8139 115.581 99.1036C113.895 99.1631 112.265 98.9661 110.738 98.5511C111.407 99.2517 112.025 100.025 112.58 100.868C117.104 107.738 115.723 116.632 109.495 120.732C103.268 124.832 94.5532 122.586 90.0298 115.716C88.435 113.294 87.5742 110.62 87.4008 107.994C85.8652 110.509 83.5311 112.664 80.5661 114.056C73.1202 117.551 64.5154 114.914 61.3469 108.165C58.1784 101.416 61.646 93.1115 69.092 89.6157C69.1471 89.5899 69.2023 89.5643 69.2575 89.5391C69.0214 89.5007 68.7848 89.457 68.548 89.4079C60.4934 87.7384 55.1907 80.4667 56.704 73.1662C58.2172 65.8657 65.9735 61.301 74.028 62.9706C77.3649 63.6623 80.2295 65.3155 82.3328 67.5339C82.5917 64.9554 83.517 62.3531 85.1457 60.0119C89.8432 53.2594 98.6128 51.237 104.733 55.4947ZM89.4308 99.6203C90.3586 98.1441 91.5916 96.8547 93.1144 95.8521C96.2681 93.7757 100.06 93.3268 103.622 94.282C101.592 92.0692 100.33 89.2464 100.221 86.137C100.153 84.2037 100.537 82.3495 101.286 80.6585C96.8892 82.8312 91.7358 82.74 87.722 79.9477C87.095 79.5115 86.5201 79.0263 85.9983 78.4995C85.9633 78.737 85.9213 78.9746 85.872 79.2123C85.0245 83.301 82.2188 86.5316 78.4992 88.2894C82.7492 89.0208 86.459 91.5609 88.3112 95.506C88.9344 96.8334 89.3009 98.221 89.4308 99.6203Z"/>
</mask>
<path fill-rule="evenodd" clip-rule="evenodd" d="M104.733 55.4947C110.31 59.3744 111.763 67.1297 108.423 73.5851C110.296 72.7199 112.398 72.1997 114.63 72.1211C122.851 71.8313 129.728 77.6367 129.99 85.0877C130.253 92.5387 123.802 98.8139 115.581 99.1036C113.895 99.1631 112.265 98.9661 110.738 98.5511C111.407 99.2517 112.025 100.025 112.58 100.868C117.104 107.738 115.723 116.632 109.495 120.732C103.268 124.832 94.5532 122.586 90.0298 115.716C88.435 113.294 87.5742 110.62 87.4008 107.994C85.8652 110.509 83.5311 112.664 80.5661 114.056C73.1202 117.551 64.5154 114.914 61.3469 108.165C58.1784 101.416 61.646 93.1115 69.092 89.6157C69.1471 89.5899 69.2023 89.5643 69.2575 89.5391C69.0214 89.5007 68.7848 89.457 68.548 89.4079C60.4934 87.7384 55.1907 80.4667 56.704 73.1662C58.2172 65.8657 65.9735 61.301 74.028 62.9706C77.3649 63.6623 80.2295 65.3155 82.3328 67.5339C82.5917 64.9554 83.517 62.3531 85.1457 60.0119C89.8432 53.2594 98.6128 51.237 104.733 55.4947ZM89.4308 99.6203C90.3586 98.1441 91.5916 96.8547 93.1144 95.8521C96.2681 93.7757 100.06 93.3268 103.622 94.282C101.592 92.0692 100.33 89.2464 100.221 86.137C100.153 84.2037 100.537 82.3495 101.286 80.6585C96.8892 82.8312 91.7358 82.74 87.722 79.9477C87.095 79.5115 86.5201 79.0263 85.9983 78.4995C85.9633 78.737 85.9213 78.9746 85.872 79.2123C85.0245 83.301 82.2188 86.5316 78.4992 88.2894C82.7492 89.0208 86.459 91.5609 88.3112 95.506C88.9344 96.8334 89.3009 98.221 89.4308 99.6203Z" fill="#F0A7FF"/>
<path d="M108.423 73.5851L107.535 73.1256L106.194 75.7166L108.842 74.4929L108.423 73.5851ZM104.733 55.4947L104.162 56.3156L104.162 56.3156L104.733 55.4947ZM114.63 72.1211L114.665 73.1204L114.665 73.1204L114.63 72.1211ZM115.581 99.1036L115.546 98.1043L115.546 98.1043L115.581 99.1036ZM110.738 98.5511L111 97.5861L107.535 96.6447L110.015 99.2417L110.738 98.5511ZM112.58 100.868L113.415 100.318L113.415 100.318L112.58 100.868ZM109.495 120.732L108.946 119.896L108.946 119.896L109.495 120.732ZM90.0298 115.716L90.865 115.166L90.865 115.166L90.0298 115.716ZM87.4008 107.994L88.3986 107.928L88.1908 104.781L86.5473 107.473L87.4008 107.994ZM80.5661 114.056L80.9911 114.961L80.9911 114.961L80.5661 114.056ZM61.3469 108.165L60.4417 108.59L60.4417 108.59L61.3469 108.165ZM69.092 89.6157L68.667 88.7105L68.667 88.7105L69.092 89.6157ZM69.2575 89.5391L69.6726 90.4489L72.6708 89.081L69.418 88.5521L69.2575 89.5391ZM68.548 89.4079L68.7509 88.4288L68.7509 88.4287L68.548 89.4079ZM56.704 73.1662L57.6832 73.3692L57.6832 73.3692L56.704 73.1662ZM74.028 62.9706L74.231 61.9914L74.231 61.9914L74.028 62.9706ZM82.3328 67.5339L81.6071 68.2219L83.1097 69.8067L83.3278 67.6338L82.3328 67.5339ZM85.1457 60.0119L84.3248 59.4408L84.3248 59.4408L85.1457 60.0119ZM89.4308 99.6203L88.4351 99.7128L88.708 102.65L90.2775 100.152L89.4308 99.6203ZM93.1144 95.8521L93.6643 96.6873L93.6643 96.6873L93.1144 95.8521ZM103.622 94.282L103.363 95.2479L106.682 96.1378L104.359 93.606L103.622 94.282ZM100.221 86.137L101.22 86.1018L101.22 86.1018L100.221 86.137ZM101.286 80.6585L102.2 81.0638L103.32 78.5382L100.843 79.762L101.286 80.6585ZM87.722 79.9477L88.293 79.1268L88.293 79.1268L87.722 79.9477ZM85.9983 78.4995L86.7088 77.7958L85.3005 76.374L85.0089 78.3539L85.9983 78.4995ZM85.872 79.2123L84.8928 79.0093L84.8928 79.0093L85.872 79.2123ZM78.4992 88.2894L78.0719 87.3853L75.2096 88.738L78.3296 89.275L78.4992 88.2894ZM88.3112 95.506L89.2164 95.081L89.2164 95.081L88.3112 95.506ZM109.311 74.0447C112.843 67.2183 111.359 58.8859 105.304 54.6738L104.162 56.3156C109.261 59.8629 110.683 67.0412 107.535 73.1256L109.311 74.0447ZM114.595 71.1217C112.229 71.2051 109.996 71.7565 108.004 72.6774L108.842 74.4929C110.595 73.6832 112.566 73.1944 114.665 73.1204L114.595 71.1217ZM130.99 85.0525C130.705 76.9593 123.273 70.8158 114.595 71.1217L114.665 73.1204C122.429 72.8468 128.751 78.314 128.991 85.1229L130.99 85.0525ZM115.616 100.103C124.294 99.7972 131.275 93.1456 130.99 85.0525L128.991 85.1229C129.231 91.9319 123.309 97.8306 115.546 98.1043L115.616 100.103ZM110.476 99.5161C112.1 99.9573 113.83 100.166 115.616 100.103L115.546 98.1043C113.96 98.1601 112.431 97.9749 111 97.5861L110.476 99.5161ZM110.015 99.2417C110.642 99.8989 111.223 100.625 111.745 101.418L113.415 100.318C112.827 99.4249 112.171 98.6044 111.461 97.8605L110.015 99.2417ZM111.745 101.418C116.017 107.906 114.636 116.15 108.946 119.896L110.045 121.567C116.809 117.114 118.19 107.571 113.415 100.318L111.745 101.418ZM108.946 119.896C103.255 123.643 95.1369 121.654 90.865 115.166L89.1945 116.266C93.9696 123.518 103.282 126.02 110.045 121.567L108.946 119.896ZM90.865 115.166C89.3656 112.888 88.5606 110.382 88.3986 107.928L86.4029 108.06C86.5877 110.858 87.5045 113.699 89.1945 116.266L90.865 115.166ZM80.9911 114.961C84.1333 113.486 86.6165 111.198 88.2543 108.515L86.5473 107.473C85.114 109.821 82.9289 111.842 80.1412 113.15L80.9911 114.961ZM60.4417 108.59C63.8833 115.921 73.131 118.651 80.9911 114.961L80.1412 113.15C73.1093 116.452 65.1476 113.908 62.2521 107.74L60.4417 108.59ZM68.667 88.7105C60.8069 92.4008 57.0002 101.26 60.4417 108.59L62.2521 107.74C59.3567 101.573 62.4851 93.8223 69.5169 90.521L68.667 88.7105ZM68.8424 88.6293C68.7838 88.6561 68.7254 88.6831 68.667 88.7105L69.5169 90.521C69.5688 90.4966 69.6207 90.4726 69.6726 90.4489L68.8424 88.6293ZM68.345 90.3871C68.5959 90.4391 68.8467 90.4855 69.097 90.5262L69.418 88.5521C69.196 88.516 68.9736 88.4749 68.7509 88.4288L68.345 90.3871ZM55.7248 72.9632C54.0811 80.8928 59.8425 88.6247 68.345 90.3871L68.7509 88.4287C61.1444 86.852 56.3003 80.0405 57.6832 73.3692L55.7248 72.9632ZM74.231 61.9914C65.7285 60.229 57.3685 65.0336 55.7248 72.9632L57.6832 73.3692C59.066 66.6978 66.2185 62.3731 73.8251 63.9498L74.231 61.9914ZM83.0585 66.8459C80.8145 64.479 77.7673 62.7244 74.231 61.9914L73.8251 63.9498C76.9626 64.6001 79.6446 66.152 81.6071 68.2219L83.0585 66.8459ZM84.3248 59.4408C82.5988 61.9219 81.6137 64.6866 81.3378 67.434L83.3278 67.6338C83.5697 65.2243 84.4353 62.7842 85.9666 60.583L84.3248 59.4408ZM105.304 54.6738C98.6565 50.0492 89.2836 52.3127 84.3248 59.4408L85.9666 60.583C90.4028 54.2061 98.5692 52.4248 104.162 56.3156L105.304 54.6738ZM90.2775 100.152C91.1317 98.7931 92.265 97.6087 93.6643 96.6873L92.5645 95.0169C90.9182 96.1008 89.5854 97.495 88.5841 99.0883L90.2775 100.152ZM93.6643 96.6873C96.5557 94.7836 100.048 94.359 103.363 95.2479L103.881 93.3162C100.072 92.2947 95.9805 92.7677 92.5645 95.0169L93.6643 96.6873ZM99.2214 86.1722C99.3401 89.5381 100.707 92.5838 102.885 94.9581L104.359 93.606C102.477 91.5546 101.321 88.9547 101.22 86.1018L99.2214 86.1722ZM100.372 80.2533C99.5632 82.0776 99.1478 84.0819 99.2214 86.1722L101.22 86.1018C101.158 84.3254 101.51 82.6215 102.2 81.0638L100.372 80.2533ZM87.1509 80.7686C91.5029 83.7962 97.0507 83.8669 101.729 81.5551L100.843 79.762C96.7277 81.7956 91.9688 81.6839 88.293 79.1268L87.1509 80.7686ZM85.2878 79.2032C85.8521 79.773 86.4736 80.2974 87.1509 80.7686L88.293 79.1268C87.7163 78.7256 87.1881 78.2797 86.7088 77.7958L85.2878 79.2032ZM86.8512 79.4153C86.9044 79.1586 86.9498 78.9018 86.9876 78.6452L85.0089 78.3539C84.9768 78.5721 84.9382 78.7907 84.8928 79.0093L86.8512 79.4153ZM78.9265 89.1936C82.8966 87.3173 85.9328 83.8457 86.8512 79.4153L84.8928 79.0093C84.1161 82.7563 81.541 85.7458 78.0719 87.3853L78.9265 89.1936ZM89.2164 95.081C87.2091 90.8055 83.2013 88.0839 78.6688 87.3039L78.3296 89.275C82.2972 89.9577 85.7089 92.3163 87.406 95.931L89.2164 95.081ZM90.4266 99.5278C90.2861 98.0159 89.8899 96.5156 89.2164 95.081L87.406 95.931C87.9789 97.1512 88.3156 98.4261 88.4351 99.7128L90.4266 99.5278Z" fill="#F0A7FF" mask="url(#path-5-inside-2_139_311)"/>
<circle cx="91.7124" cy="88.7998" r="15.1513" transform="rotate(-7.77636 91.7124 88.7998)" fill="white"/>
<mask id="path-8-inside-3_139_311" fill="white">
<path fill-rule="evenodd" clip-rule="evenodd" d="M98.0242 6.36483C103.601 10.2445 105.054 17.9998 101.714 24.4553C103.587 23.59 105.689 23.0699 107.921 22.9912C116.142 22.7014 123.019 28.5068 123.281 35.9578C123.544 43.4089 117.093 49.684 108.872 49.9738C107.186 50.0332 105.556 49.8362 104.029 49.4212C104.698 50.1218 105.316 50.8952 105.871 51.7383C110.395 58.6086 109.014 67.5018 102.786 71.6018C96.5593 75.7018 87.8443 73.456 83.3208 66.5857C81.7261 64.1637 80.8652 61.4902 80.6918 58.864C79.1563 61.3792 76.8221 63.5337 73.8572 64.9257C66.4112 68.4215 57.8064 65.7844 54.6379 59.0355C51.4694 52.2866 54.937 43.9816 62.383 40.4859C62.4381 40.46 62.4933 40.4344 62.5485 40.4092C62.3124 40.3708 62.0758 40.3271 61.839 40.2781C53.7844 38.6085 48.4817 31.3368 49.995 24.0363C51.5083 16.7359 59.2645 12.1711 67.319 13.8407C70.6559 14.5324 73.5205 16.1856 75.6238 18.404C75.8827 15.8256 76.8081 13.2232 78.4367 10.882C83.1342 4.12952 91.9038 2.1071 98.0242 6.36483ZM82.7219 50.4905C83.6496 49.0142 84.8826 47.7249 86.4054 46.7222C89.5591 44.6458 93.3509 44.197 96.9132 45.1522C94.8829 42.9393 93.6214 40.1165 93.5118 37.0071C93.4437 35.0738 93.8276 33.2196 94.5771 31.5287C90.1802 33.7014 85.0269 33.6102 81.013 30.8178C80.386 30.3816 79.8111 29.8965 79.2893 29.3696C79.2543 29.6071 79.2123 29.8447 79.163 30.0824C78.3155 34.1711 75.5098 37.4017 71.7902 39.1596C76.0403 39.8909 79.75 42.431 81.6022 46.3761C82.2254 47.7035 82.5919 49.0911 82.7219 50.4905Z"/>
</mask>
<path fill-rule="evenodd" clip-rule="evenodd" d="M98.0242 6.36483C103.601 10.2445 105.054 17.9998 101.714 24.4553C103.587 23.59 105.689 23.0699 107.921 22.9912C116.142 22.7014 123.019 28.5068 123.281 35.9578C123.544 43.4089 117.093 49.684 108.872 49.9738C107.186 50.0332 105.556 49.8362 104.029 49.4212C104.698 50.1218 105.316 50.8952 105.871 51.7383C110.395 58.6086 109.014 67.5018 102.786 71.6018C96.5593 75.7018 87.8443 73.456 83.3208 66.5857C81.7261 64.1637 80.8652 61.4902 80.6918 58.864C79.1563 61.3792 76.8221 63.5337 73.8572 64.9257C66.4112 68.4215 57.8064 65.7844 54.6379 59.0355C51.4694 52.2866 54.937 43.9816 62.383 40.4859C62.4381 40.46 62.4933 40.4344 62.5485 40.4092C62.3124 40.3708 62.0758 40.3271 61.839 40.2781C53.7844 38.6085 48.4817 31.3368 49.995 24.0363C51.5083 16.7359 59.2645 12.1711 67.319 13.8407C70.6559 14.5324 73.5205 16.1856 75.6238 18.404C75.8827 15.8256 76.8081 13.2232 78.4367 10.882C83.1342 4.12952 91.9038 2.1071 98.0242 6.36483ZM82.7219 50.4905C83.6496 49.0142 84.8826 47.7249 86.4054 46.7222C89.5591 44.6458 93.3509 44.197 96.9132 45.1522C94.8829 42.9393 93.6214 40.1165 93.5118 37.0071C93.4437 35.0738 93.8276 33.2196 94.5771 31.5287C90.1802 33.7014 85.0269 33.6102 81.013 30.8178C80.386 30.3816 79.8111 29.8965 79.2893 29.3696C79.2543 29.6071 79.2123 29.8447 79.163 30.0824C78.3155 34.1711 75.5098 37.4017 71.7902 39.1596C76.0403 39.8909 79.75 42.431 81.6022 46.3761C82.2254 47.7035 82.5919 49.0911 82.7219 50.4905Z" fill="#FFB994"/>
<path d="M101.714 24.4553L100.826 23.9957L99.4853 26.5867L102.133 25.363L101.714 24.4553ZM98.0242 6.36483L97.4531 7.18573L97.4531 7.18573L98.0242 6.36483ZM107.921 22.9912L107.956 23.9906L107.956 23.9906L107.921 22.9912ZM108.872 49.9738L108.837 48.9744L108.837 48.9744L108.872 49.9738ZM104.029 49.4212L104.291 48.4562L100.826 47.5148L103.306 50.1118L104.029 49.4212ZM105.871 51.7383L106.706 51.1884L106.706 51.1884L105.871 51.7383ZM102.786 71.6018L102.237 70.7665L102.237 70.7665L102.786 71.6018ZM83.3208 66.5857L84.156 66.0358L84.156 66.0358L83.3208 66.5857ZM80.6918 58.864L81.6896 58.7981L81.4818 55.6508L79.8383 58.3429L80.6918 58.864ZM73.8572 64.9257L74.2821 65.8309L74.2821 65.8309L73.8572 64.9257ZM54.6379 59.0355L53.7327 59.4605L53.7327 59.4605L54.6379 59.0355ZM62.383 40.4859L61.958 39.5807L61.958 39.5807L62.383 40.4859ZM62.5485 40.4092L62.9636 41.319L65.9618 39.9511L62.709 39.4222L62.5485 40.4092ZM61.839 40.2781L62.042 39.2989L62.0419 39.2989L61.839 40.2781ZM49.995 24.0363L50.9742 24.2393L50.9742 24.2393L49.995 24.0363ZM67.319 13.8407L67.522 12.8615L67.522 12.8615L67.319 13.8407ZM75.6238 18.404L74.8982 19.0921L76.4007 20.6768L76.6188 18.5039L75.6238 18.404ZM78.4367 10.882L77.6158 10.311L77.6158 10.311L78.4367 10.882ZM82.7219 50.4905L81.7261 50.5829L81.999 53.5202L83.5686 51.0225L82.7219 50.4905ZM86.4054 46.7222L86.9554 47.5574L86.9554 47.5574L86.4054 46.7222ZM96.9132 45.1522L96.6542 46.118L99.9731 47.008L97.6501 44.4761L96.9132 45.1522ZM93.5118 37.0071L94.5112 36.9719L94.5112 36.9719L93.5118 37.0071ZM94.5771 31.5287L95.4913 31.9339L96.6107 29.4083L94.1341 30.6321L94.5771 31.5287ZM81.013 30.8178L81.5841 29.9969L81.5841 29.9969L81.013 30.8178ZM79.2893 29.3696L79.9998 28.6659L78.5915 27.2441L78.3 29.224L79.2893 29.3696ZM79.163 30.0824L78.1838 29.8795L78.1838 29.8795L79.163 30.0824ZM71.7902 39.1596L71.3629 38.2554L68.5006 39.6082L71.6206 40.1451L71.7902 39.1596ZM81.6022 46.3761L82.5074 45.9512L82.5074 45.9512L81.6022 46.3761ZM102.602 24.9148C106.134 18.0884 104.65 9.756 98.5953 5.54393L97.4531 7.18573C102.552 10.733 103.974 17.9113 100.826 23.9957L102.602 24.9148ZM107.886 21.9918C105.52 22.0752 103.287 22.6267 101.295 23.5475L102.133 25.363C103.886 24.5533 105.857 24.0645 107.956 23.9906L107.886 21.9918ZM124.281 35.9226C123.996 27.8295 116.564 21.6859 107.886 21.9918L107.956 23.9906C115.72 23.7169 122.042 29.1841 122.282 35.993L124.281 35.9226ZM108.907 50.9731C117.585 50.6673 124.566 44.0157 124.281 35.9226L122.282 35.993C122.522 42.802 116.6 48.7007 108.837 48.9744L108.907 50.9731ZM103.767 50.3862C105.391 50.8274 107.121 51.0361 108.907 50.9731L108.837 48.9744C107.251 49.0303 105.722 48.845 104.291 48.4562L103.767 50.3862ZM103.306 50.1118C103.933 50.769 104.514 51.4954 105.036 52.2882L106.706 51.1884C106.118 50.295 105.462 49.4746 104.752 48.7306L103.306 50.1118ZM105.036 52.2882C109.308 58.7764 107.927 67.0199 102.237 70.7665L103.336 72.437C110.1 67.9837 111.481 58.4408 106.706 51.1884L105.036 52.2882ZM102.237 70.7665C96.5461 74.5132 88.4279 72.524 84.156 66.0358L82.4856 67.1356C87.2606 74.3881 96.5726 76.8903 103.336 72.437L102.237 70.7665ZM84.156 66.0358C82.6566 63.7585 81.8516 61.2519 81.6896 58.7981L79.694 58.9299C79.8788 61.7285 80.7955 64.5688 82.4856 67.1356L84.156 66.0358ZM74.2821 65.8309C77.4243 64.3557 79.9076 62.0677 81.5453 59.385L79.8383 58.3429C78.405 60.6907 76.2199 62.7117 73.4322 64.0205L74.2821 65.8309ZM53.7327 59.4605C57.1743 66.7909 66.422 69.5212 74.2821 65.8309L73.4322 64.0205C66.4004 67.3219 58.4386 64.7778 55.5431 58.6105L53.7327 59.4605ZM61.958 39.5807C54.0979 43.2709 50.2912 52.13 53.7327 59.4605L55.5431 58.6105C52.6477 52.4432 55.7761 44.6924 62.808 41.3911L61.958 39.5807ZM62.1334 39.4995C62.0749 39.5262 62.0164 39.5533 61.958 39.5807L62.808 41.3911C62.8598 41.3667 62.9117 41.3427 62.9636 41.319L62.1334 39.4995ZM61.636 41.2572C61.8869 41.3093 62.1377 41.3556 62.388 41.3963L62.709 39.4222C62.4871 39.3861 62.2647 39.345 62.042 39.2989L61.636 41.2572ZM49.0158 23.8334C47.3721 31.763 53.1335 39.4948 61.636 41.2572L62.0419 39.2989C54.4354 37.7221 49.5913 30.9106 50.9742 24.2393L49.0158 23.8334ZM67.522 12.8615C59.0195 11.0991 50.6595 15.9038 49.0158 23.8334L50.9742 24.2393C52.357 17.568 59.5095 13.2432 67.1161 14.8199L67.522 12.8615ZM76.3495 17.716C74.1055 15.3491 71.0583 13.5945 67.522 12.8615L67.1161 14.8199C70.2536 15.4702 72.9356 17.0221 74.8982 19.0921L76.3495 17.716ZM77.6158 10.311C75.8898 12.7921 74.9047 15.5567 74.6288 18.3041L76.6188 18.5039C76.8607 16.0944 77.7263 13.6543 79.2576 11.4531L77.6158 10.311ZM98.5953 5.54393C91.9475 0.919284 82.5746 3.18286 77.6158 10.311L79.2576 11.4531C83.6939 5.07617 91.8602 3.29492 97.4531 7.18573L98.5953 5.54393ZM83.5686 51.0225C84.4228 49.6633 85.556 48.4788 86.9554 47.5574L85.8555 45.887C84.2092 46.9709 82.8764 48.3651 81.8752 49.9584L83.5686 51.0225ZM86.9554 47.5574C89.8467 45.6537 93.3392 45.2291 96.6542 46.118L97.1722 44.1863C93.3627 43.1648 89.2715 43.6378 85.8555 45.887L86.9554 47.5574ZM92.5125 37.0423C92.6311 40.4082 93.9979 43.4539 96.1764 45.8282L97.6501 44.4761C95.7679 42.4247 94.6118 39.8248 94.5112 36.9719L92.5125 37.0423ZM93.6628 31.1234C92.8543 32.9477 92.4388 34.9521 92.5125 37.0423L94.5112 36.9719C94.4486 35.1955 94.8008 33.4916 95.4913 31.9339L93.6628 31.1234ZM80.4419 31.6387C84.7939 34.6663 90.3417 34.737 95.0201 32.4252L94.1341 30.6321C90.0187 32.6657 85.2598 32.554 81.5841 29.9969L80.4419 31.6387ZM78.5788 30.0734C79.1431 30.6431 79.7646 31.1676 80.4419 31.6387L81.5841 29.9969C81.0073 29.5957 80.4791 29.1498 79.9998 28.6659L78.5788 30.0734ZM80.1422 30.2854C80.1954 30.0287 80.2408 29.7719 80.2786 29.5153L78.3 29.224C78.2678 29.4422 78.2292 29.6608 78.1838 29.8795L80.1422 30.2854ZM72.2175 40.0637C76.1876 38.1874 79.2239 34.7158 80.1422 30.2854L78.1838 29.8795C77.4072 33.6264 74.832 36.6159 71.3629 38.2554L72.2175 40.0637ZM82.5074 45.9512C80.5001 41.6756 76.4923 38.954 71.9598 38.174L71.6206 40.1451C75.5882 40.8278 79 43.1864 80.697 46.8011L82.5074 45.9512ZM83.7176 50.398C83.5771 48.886 83.1809 47.3857 82.5074 45.9512L80.697 46.8011C81.2699 48.0214 81.6066 49.2962 81.7261 50.5829L83.7176 50.398Z" fill="#FFB994" mask="url(#path-8-inside-3_139_311)"/>
<circle cx="84.8004" cy="39.6706" r="14.6727" transform="rotate(-7.77636 84.8004 39.6706)" fill="white"/>
<path d="M80.1869 149.614C87.4062 137.704 106.713 117.37 126.188 131.311C121.173 139.755 104.952 155.237 80.1869 149.614Z" fill="#144C3F"/>
<path d="M12.8574 99.8033C26.2393 95.9452 54.2182 94.0919 59.0781 117.544C49.6665 120.349 27.2462 120.729 12.8574 99.8033Z" fill="#144C3F"/>
<path d="M50.415 131.783C59.9828 133.168 78.0013 140.698 73.5327 159.738C66.7741 158.832 52.6886 151.974 50.415 131.783Z" fill="#144C3F"/>
<path fill-rule="evenodd" clip-rule="evenodd" d="M73.5527 171.06C76.3293 164.508 83.2156 152.338 88.5486 156.078C95.2148 160.753 98.3998 166.487 98.3349 169.582C98.2699 172.676 94.7291 176.578 75.6315 174.563L73.5527 171.06ZM76.4196 169.881C78.5297 165.248 83.7681 156.646 87.8401 159.298C92.93 162.614 95.3554 167.174 95.32 168.864C95.2845 170.553 92.5778 173.809 78.0092 172.362L76.4196 169.881Z" fill="#E42A2D"/>
<path fill-rule="evenodd" clip-rule="evenodd" d="M73.489 170.501C69.7443 165.157 61.2529 155.565 57.2452 159.951C52.2357 165.434 50.5251 171.195 51.1865 173.959C51.8479 176.724 55.7544 179.541 72.3258 174.045L73.489 170.501ZM70.5713 170.149C67.804 166.366 61.5046 159.593 58.4454 162.766C54.6215 166.734 53.3858 171.317 53.7494 172.837C54.113 174.357 57.1341 176.783 69.6615 172.694L70.5713 170.149Z" fill="#E42A2D"/>
<path d="M58.7289 196.881C59.9854 184.584 67.0437 176.738 70.4158 174.353L73.1457 175.171C68.5697 179.066 65.6978 193.43 64.8339 200.126L61.9359 193.663L58.7289 196.881Z" fill="#E42A2D" stroke="#E42A2D"/>
<path d="M91.4773 193.714C87.9619 181.932 80.549 175.651 77.2819 173.984L75.1909 175.323C79.7569 178.23 85.0234 191.714 87.086 198.093L87.7732 189.023L91.4773 193.714Z" fill="#E42A2D" stroke="#E42A2D"/>
<path d="M77.8467 173.179C77.8468 173.182 77.8469 173.185 77.8468 173.189C77.8491 173.355 77.8864 175.572 78.2836 177.341C78.6965 179.18 80.0887 182.13 80.0887 182.13C80.0887 182.13 78.8443 179.779 78.0286 178.659C77.2128 177.539 75.7793 176.091 75.7793 176.091C76.8216 175.104 77.8437 173.605 77.8468 173.189C77.8468 173.182 77.8467 173.179 77.8467 173.179Z" fill="#C70205"/>
<path d="M69.2634 174.632C69.2634 174.632 72.1979 175.033 71.559 177.43C71.559 177.43 70.7607 178.723 70.0012 180.437C69.2416 182.151 68.2 185.406 68.2 185.406C68.2 185.406 69.2484 181.418 69.5237 179.113C69.7991 176.809 69.2634 174.632 69.2634 174.632Z" fill="#C70205"/>
<path d="M80.1645 176.219L82.1321 177.335C82.1321 177.335 82.2683 177.407 81.2166 176.482C80.1649 175.556 79.231 174.894 79.231 174.894L77.7832 174.794L80.1645 176.219Z" fill="#C70205"/>
<path d="M67.6551 176.412C67.3615 176.688 65.7712 178.586 65.7712 178.586C65.7712 178.586 67.4284 177.199 67.8423 176.874C68.2562 176.549 70.4689 175.364 70.4689 175.364L69.5054 174.947L69.098 175.057C69.098 175.057 67.9487 176.135 67.6551 176.412Z" fill="#C70205"/>
<path d="M74.082 169.813L74.5377 168.85C74.5377 168.85 74.5217 169.089 75.2525 169.408C75.9833 169.728 76.0841 169.533 76.0841 169.533L75.9329 170.107L74.082 169.813Z" fill="#C70205"/>
<path d="M71.5953 170.631L70.9593 169.645C70.9593 169.645 71.253 169.818 71.8329 169.519C72.4127 169.22 72.3474 168.952 72.3474 168.952L72.7547 169.379L71.5953 170.631Z" fill="#C70205"/>
<circle cx="73.5206" cy="173.588" r="4.33506" fill="#E8CD06"/>
</svg>
