<svg width="110" height="87" viewBox="0 0 110 87" fill="none" xmlns="http://www.w3.org/2000/svg">
<path d="M71.3212 23.8487C72.952 24.1174 74.5791 24.3898 76.21 24.6585C77.0009 25.1807 76.7662 26.0699 76.9819 26.7964C76.316 27.1937 76.3954 27.5797 76.9781 27.9921C78.3214 28.9495 80.0431 28.8776 81.0421 27.8559C81.5113 27.3754 81.1935 27.2732 80.7961 27.1445C80.6826 26.5618 80.8945 26.1494 81.428 25.8958C82.9265 26.3083 84.4211 26.7169 85.9196 27.1294C86.0785 27.2202 86.1882 27.3754 86.1731 27.5456C86.0293 28.9722 86.8996 29.7176 88.0045 30.3079C87.8872 30.8263 87.9818 31.0836 88.6213 31.0004C89.2532 30.9171 89.8095 30.7847 90.1576 30.1868C89.957 29.9787 89.6884 30.2133 89.4992 30.0544C89.3516 29.3695 89.8965 29.1311 90.3089 28.8057C91.8112 29.3279 93.1734 30.1528 94.5999 30.8377C94.7627 30.955 94.7929 31.1328 94.7248 31.2917C94.3388 32.1847 94.5356 33.0172 94.9708 33.827C94.9254 34.6935 95.5119 34.7238 96.1286 34.6897C96.8816 34.6481 97.4909 34.4362 97.3849 33.4864C97.4265 33.3123 97.3849 33.055 97.7066 33.1572C98.9023 34.3113 99.9731 35.5411 100.238 37.2703C100.393 38.0498 100.015 38.5569 99.3866 38.9391C99.0688 38.9353 98.9477 38.6931 98.819 38.4623C98.486 37.4974 97.9903 36.68 97.0065 36.2222C95.3189 35.4389 93.6464 35.9914 92.7572 37.6639C91.9739 39.1396 92.5377 41.0883 93.9945 41.9549C94.354 42.1705 94.8837 42.2159 94.9102 42.8025C94.8005 43.1165 94.5545 43.3095 94.2783 43.4533C92.2388 44.5279 90.1879 45.5761 88.0045 46.3367C87.7434 46.4275 87.4786 46.5069 87.2061 46.3631C87.0926 46.2421 87.0548 46.0945 87.0585 45.9318C87.4899 44.4939 87.4105 43.1392 86.1845 42.11C84.5384 40.7213 82.7259 40.9786 81.1821 42.7608C80.274 44.3122 80.4556 45.8145 81.7118 47.1275C81.9654 47.3924 82.3248 47.6156 82.0335 48.0697C81.4432 48.5427 80.7053 48.6032 80.0166 48.7584C77.3868 49.3449 74.757 49.9617 72.0515 50.1319C71.6277 49.7952 71.9682 49.4508 72.059 49.1216C72.1953 48.6259 72.3731 48.1416 72.1536 47.627C71.9796 47.1767 71.7866 46.7415 71.4801 46.3631C70.5984 45.2847 69.2627 45.0274 68.067 45.7047C66.9204 46.3518 66.4247 47.7178 66.8788 48.9741C66.9848 49.2654 67.1286 49.5379 67.2194 49.8368C67.2875 50.1168 67.3783 50.3968 67.1853 50.6693C66.4172 51.1612 65.5242 51.006 64.6993 51.0666C63.0722 51.1839 61.4489 51.3844 59.8142 51.3693C59.4396 51.3655 59.065 51.3769 58.7055 51.2444C58.2931 51.0477 58.3385 50.6957 58.4482 50.3665C58.8493 49.1368 58.5277 48.0848 57.7028 47.1464C56.7719 46.2534 55.3265 46.068 54.2102 46.6999C52.9729 47.4037 52.409 48.6638 52.742 49.9995C52.7912 50.2001 52.8404 50.4006 52.9312 50.586C52.9918 50.7979 53.0902 51.0174 52.8404 51.1801C52.3901 51.392 51.9247 51.3315 51.4593 51.2558C50.6533 51.025 49.8284 51.1801 49.0111 51.1271C47.7472 50.8017 46.4266 51.059 45.1666 50.7336C44.5498 50.7147 43.9368 50.6882 43.32 50.7639C43.2065 50.7676 43.0968 50.7412 42.9984 50.6844C42.8849 50.5595 42.8243 50.4082 42.7978 50.2417C42.7638 50.0033 42.8016 49.7649 42.8357 49.5303C43.0514 47.9524 42.1848 46.6659 40.7356 46.4123C39.1161 46.1248 37.7728 46.9951 37.3944 48.554C37.2922 48.9816 37.3792 49.4546 37.0879 49.8368C36.9933 49.8973 36.8873 49.9163 36.7776 49.9011C34.704 49.2881 32.532 49.1519 30.4471 48.6146C29.9362 48.4973 29.4368 48.1984 28.8881 48.4859C28.7367 48.5086 28.6043 48.4746 28.4983 48.3573C28.4189 48.2211 28.3962 48.0773 28.4038 47.9221C28.4227 47.714 28.4946 47.521 28.5475 47.3243C28.994 45.6631 28.3583 44.2441 26.9129 43.6765C25.4636 43.1052 23.9917 43.669 23.1592 45.1182C23.1062 45.209 23.0608 45.2999 23.0192 45.3945C22.796 45.7501 22.9246 46.2231 22.6408 46.5561C22.4895 46.6545 22.3192 46.6923 22.1527 46.6432C20.4915 46.1437 18.8607 45.5534 17.366 44.6528C17.2487 44.5809 17.1806 44.4598 17.1276 44.3312C17.0784 44.123 17.1238 43.9225 17.2071 43.7371C17.979 42.0305 17.559 40.638 16.0984 39.518C14.547 38.7688 13.4458 38.9201 12.1782 40.0629C11.902 40.3126 11.6636 40.6153 11.2549 40.657C9.83597 39.8283 8.79539 38.7158 8.50781 37.032C8.99594 36.7822 9.44244 37.0963 9.89652 37.172C10.5133 37.2741 10.4187 36.8882 10.4376 36.54C10.8274 36.2714 11.3382 36.2298 11.6825 35.8665C12.3485 35.1665 12.5755 34.3529 12.3258 33.4259C12.0761 32.5177 11.4063 32.0372 10.5436 31.7798C10.1614 31.6663 9.7111 31.7874 9.40082 31.4469C10.3657 30.2928 11.569 29.4489 12.8858 28.7489C13.8205 28.5938 13.7523 29.4527 14.074 29.9182C13.987 30.8149 14.5848 31.0836 15.2962 31.2652C16.1097 31.4771 16.8552 31.3788 17.4871 30.7998C17.7974 30.516 17.5552 30.2436 17.3925 29.9825C17.3584 29.6873 17.5439 29.4792 17.6839 29.2522C18.0774 28.6316 18.2893 27.9883 18.0244 27.2467C17.8958 26.8872 17.839 26.5126 18.2742 26.2856C19.7158 25.8807 21.1575 25.4758 22.5954 25.0709C23.1289 25.5515 23.2689 26.2477 23.5679 26.8569C23.4733 27.644 23.8782 28.0716 24.6009 28.1965C25.3009 28.3175 25.8647 28.1132 26.0653 27.3337C26.9961 26.645 27.6167 25.7974 27.5334 24.5639C27.5032 24.1022 27.8248 23.9055 28.2373 23.8298C29.8643 23.633 31.4877 23.4401 33.1148 23.2433C33.5726 23.9244 33.8564 24.7115 34.3521 25.3736C34.4921 25.805 34.4202 26.2591 34.4997 26.698C34.81 27.7689 34.5337 28.8889 34.7797 29.9598C34.9083 31.0344 34.8856 32.1242 35.0559 33.1988C35.1278 33.6529 35.1846 34.0729 35.6462 34.3C35.9224 34.4437 36.21 34.5573 36.5203 34.6027C37.7728 34.7919 38.7415 33.861 38.5371 32.6123C38.3858 31.6966 38.5182 30.7544 38.2382 29.85C37.9998 28.344 37.9468 26.8267 37.9922 25.3055C38.0187 24.4769 37.4663 23.6179 38.1171 22.8195C40.0091 22.3995 41.9427 22.4941 43.8573 22.3843C44.2547 23.1449 44.652 23.9055 45.1855 24.5828C45.1855 24.6509 45.1628 24.7228 45.1779 24.7834C45.3482 25.3926 46.0861 25.5969 47.1305 25.332C48.0272 25.1012 48.3148 24.719 48.1408 23.9849C48.2316 23.3871 48.4283 22.8346 48.8257 22.3654C49.5105 22.3541 50.1954 22.3427 50.8803 22.3314C51.1641 22.5697 51.1452 22.9103 51.1944 23.2282C51.2285 24.3179 51.1868 25.4115 51.202 26.505C51.2133 28.2457 51.2322 29.99 51.1868 31.7307C51.1679 32.7523 51.2285 33.7664 51.3722 34.7767C51.395 35.2535 51.3912 35.7341 51.4101 36.2146C51.4555 37.2855 51.9247 37.9628 53.022 38.1331C53.601 38.205 54.1572 38.4131 54.7513 38.3677C55.7351 38.2882 56.3179 37.6298 56.2384 36.6498C56.1741 35.8968 56.0189 35.1551 55.8335 34.421C55.5989 33.0664 55.4021 31.7117 55.1789 30.3571C55.1562 29.2749 54.9102 28.2116 54.914 27.1256C54.8194 25.5855 54.3767 24.0682 54.6416 22.5092C55.5081 22.0854 55.6859 22.127 55.8335 22.933C55.9357 23.4817 56.1854 23.966 56.3519 24.4844C56.4503 25.4947 57.0708 25.9337 58.2022 25.7937C59.3601 25.6499 59.9694 24.9498 59.8293 23.913C59.8369 23.4476 59.8293 22.9746 60.1964 22.6152C61.3618 22.7098 62.5273 22.8081 63.6927 22.9027C64.1203 23.3909 63.9576 23.9887 63.9992 24.545C64.0257 24.912 63.969 25.2866 64.109 25.6423C64.3209 27.3375 64.1884 29.0251 63.9841 30.709C64.1165 32.0372 65.229 31.9312 66.1107 32.162C66.3491 32.1809 66.5912 32.1923 66.8296 32.1809C68.6081 32.0788 69.3497 31.2009 69.1605 29.43C69.134 29.1916 69.0659 28.9608 69.0281 28.7224C68.9713 28.2494 68.9486 27.7727 69.0584 27.3035C69.1984 26.8153 69.66 26.698 70.0308 26.4786C70.4433 26.2326 70.7687 25.9602 70.4319 25.4304C70.5417 24.8098 70.9541 24.3406 71.3212 23.8487Z" fill="#F87109"/>
<path d="M43.1041 50.6389C43.1571 50.6313 43.21 50.62 43.263 50.6011C43.6149 50.4989 43.9706 50.5254 44.3263 50.5859C45.9004 50.7146 47.4783 50.8168 49.0562 50.953C49.8698 51.0097 50.6909 50.8319 51.4931 51.0514C51.9699 51.0627 52.4466 51.0741 52.9272 51.0892C54.0472 52.652 55.6743 53.0266 57.3014 52.213C57.8615 51.933 57.8804 51.2065 58.4971 51.0589C61.267 51.1081 64.0141 50.7524 66.7726 50.6162C66.9353 50.6086 67.0942 50.514 67.2532 50.4611C67.3213 50.4497 67.397 50.4459 67.4499 50.4838C69.2397 51.7627 70.0646 51.7098 71.6615 50.2C71.7598 50.1054 71.8582 50.0183 71.9982 49.9881C75.3735 49.4167 78.7526 48.8832 82.0522 47.9372C82.1997 47.8123 82.3359 47.6647 82.5592 47.6874C84.0312 48.9134 85.8323 48.4404 86.8502 46.556C86.9334 46.4274 87.0469 46.3404 87.2021 46.3139C89.8962 45.4473 92.4391 44.2516 94.8494 42.7721C94.9705 42.4732 95.2316 42.3445 95.5078 42.231C95.6932 42.1705 95.8862 42.144 96.083 42.1364C98.2209 42.2197 99.1934 41.2699 98.8869 39.3931C98.9172 39.1055 99.1253 38.9806 99.3599 38.8822C99.6891 38.3638 100.181 37.9325 100.242 37.2627C100.469 38.6703 101.097 39.9871 101.165 41.4288C99.4356 43.2716 97.4301 44.7625 95.2657 46.049C94.8267 46.3101 94.5316 46.6279 94.4975 47.1766C94.1797 52.4514 92.651 57.4311 90.8195 62.3388C88.7611 67.8483 86.3507 73.2063 83.6036 78.4017C82.5819 80.339 81.6851 82.3559 80.3645 84.1267C78.9682 84.8949 77.4585 85.0084 75.907 84.8873C75.9524 84.2781 76.3233 83.8051 76.6033 83.3018C81.6738 74.1901 86.2902 64.8741 89.5254 54.9261C90.2557 52.6747 90.8271 50.3854 91.3909 47.975C87.8264 49.4999 84.2582 50.6049 80.6143 51.4714C79.5434 51.7249 78.4688 51.9633 77.3941 52.1828C76.9136 52.2811 76.6071 52.4893 76.486 53.0152C75.2184 58.5322 72.6302 63.5119 70.0722 68.4915C67.9494 72.616 65.6299 76.6346 63.053 80.498C61.9292 82.1856 60.7562 83.8392 59.5567 85.4738C59.3712 85.7274 59.1556 85.943 58.8718 86.083C57.4339 86.3858 56.0073 86.6431 54.5392 86.1625C54.0094 85.9884 53.4078 86.0414 52.8402 85.9922C53.0142 85.6479 53.3623 85.6479 53.6499 85.6819C54.6148 85.7955 55.1484 85.2619 55.6743 84.5543C59.9577 78.7725 63.7568 72.6917 67.1132 66.3233C69.2133 62.3388 71.2793 58.343 73.0502 54.2034C73.2091 53.8363 73.4551 53.4882 73.4059 52.9774C72.1307 53.0077 70.8933 53.2877 69.6484 53.4315C66.4094 53.8061 63.1741 54.1807 59.9048 54.2109C59.0155 54.2185 58.1377 54.4683 57.2371 54.4191C56.8057 54.3964 56.5371 54.6234 56.4008 55.0358C54.2818 61.3512 50.1876 66.4633 46.2334 71.6549C43.562 75.1626 40.5159 78.3373 37.3109 81.3531C36.2741 82.3294 35.3243 83.457 33.9697 84.0624C32.5015 84.437 31.1696 84.0624 29.9019 83.3246C31.2793 82.0948 32.5507 80.7439 33.947 79.5482C35.9146 77.8605 37.5795 75.8929 39.3429 74.0199C43.5241 69.5813 47.134 64.6811 50.4563 59.5728C51.5006 57.9646 52.4542 56.2997 53.3396 54.4039C51.8109 54.4228 50.4184 54.2526 49.0373 54.2261C46.2864 54.1693 43.5544 53.9044 40.8224 53.6509C40.3305 53.6055 39.9596 53.6547 39.6948 54.1353C38.3439 56.5986 36.4633 58.6646 34.6054 60.7345C30.2539 65.5779 25.4974 69.99 20.2567 73.8647C18.1831 75.3972 16.0187 76.8048 13.6689 77.8946C13.2942 78.0687 12.9159 78.2238 12.5072 78.2843C11.1488 78.3033 10.0741 77.607 9.01462 76.8843C9.54437 76.2562 10.3352 76.0443 11.0163 75.6772C15.4662 73.2858 19.428 70.2246 23.2195 66.9136C25.4747 64.946 27.6619 62.914 29.7582 60.7799C32.1193 58.3808 34.2989 55.8191 36.6298 53.2309C35.9487 52.9055 35.2638 52.9055 34.6205 52.792C31.7409 52.2849 28.8689 51.7552 26.065 50.9189C25.1153 50.6389 24.5212 50.8508 23.8439 51.6227C21.4524 54.3358 18.7431 56.7159 15.9392 58.9976C11.1563 62.8875 6.15774 66.4558 0.765635 69.464C0.644549 69.5321 0.534815 69.6116 0.402378 69.4943C0.387242 68.0185 0.701309 66.6185 1.33323 65.2865C1.55648 64.98 1.83271 64.7303 2.15812 64.5297C7.42915 61.2718 12.2915 57.4613 17.0403 53.4996C18.5161 52.2698 19.9351 50.9833 21.3465 49.7005C21.2973 49.3486 21.0021 49.3789 20.7978 49.2994C18.9815 48.5729 17.1198 47.9485 15.4095 46.9798C14.7435 46.6052 14.297 46.7301 13.8089 47.2863C11.1488 50.3135 7.74321 52.2963 4.18631 54.0596C4.00847 54.1466 3.82684 54.2753 3.61116 54.1391C3.55061 52.7655 3.78143 51.4525 4.48524 50.2492C4.7085 49.8708 5.10959 49.7232 5.45772 49.5189C7.59186 48.2777 9.62761 46.8966 11.4666 45.2392C11.6445 45.0765 11.8374 44.9365 12.0872 44.8949C12.2991 44.8684 12.5072 44.91 12.6737 45.0311C14.017 45.9998 15.1635 45.6517 16.2041 44.5279C16.3782 44.3462 16.5787 44.1987 16.8247 44.1192C16.9798 44.0927 17.1236 44.1078 17.2182 44.2592C18.8793 45.2657 20.707 45.8787 22.5271 46.5031C23 46.7415 22.7881 47.1539 22.7503 47.4945C22.6898 48.0129 22.8222 48.4253 23.2271 48.7734C24.5969 49.954 26.2656 49.9578 27.6505 48.7848C27.9229 48.554 28.1689 48.2096 28.6192 48.3194C28.7516 48.3269 28.8803 48.3345 29.0127 48.3421C29.4062 48.1794 29.7695 48.4102 30.1517 48.4177C32.1647 48.9475 34.2308 49.2199 36.2703 49.5983C36.4746 49.6362 36.6714 49.6816 36.8493 49.7875C36.9098 49.8102 36.9703 49.8329 37.0347 49.8519C37.3601 49.9048 37.4395 50.1583 37.5001 50.4232C37.8028 52.3114 40.2737 53.0985 41.9273 51.8573C42.3814 51.5168 42.6046 50.9454 43.1041 50.6389Z" fill="#FCE616"/>
<path d="M33.9619 84.0657C35.4187 82.7111 36.902 81.3829 38.3286 79.9942C44.6705 73.8264 50.0323 66.8942 54.3914 59.1901C55.1709 57.809 55.7687 56.3446 56.1774 54.8159C56.3023 54.3505 56.4461 54.131 56.9758 54.1159C62.629 53.938 68.2633 53.5067 74.0489 52.5342C73.3149 54.2256 72.6905 55.7997 71.9602 57.3209C67.306 67.0304 62.1333 76.4373 55.6325 85.0647C55.1141 85.7534 54.5957 86.0901 53.7557 85.9728C53.4568 85.9312 53.1427 85.988 52.8362 85.9993C46.7365 85.8442 40.686 85.2009 34.6657 84.236C34.4236 84.1944 34.1927 84.1225 33.9619 84.0657Z" fill="#E84502"/>
<path d="M58.8643 86.086C60.6162 83.5016 62.4552 80.9739 64.1088 78.3252C68.6079 71.1168 72.6529 63.67 75.5136 55.6329C75.8352 54.7323 76.085 53.7939 76.2325 52.8479C76.3158 52.3106 76.4747 52.0987 77.0007 51.9928C81.8857 51.0014 86.6875 49.73 91.2737 47.7396C91.3834 47.6904 91.5121 47.6791 91.7202 47.6299C90.8007 52.0268 89.5104 56.2081 87.9287 60.3023C84.7275 68.5853 80.7695 76.5051 76.3839 84.2206C76.2514 84.4552 76.066 84.6633 75.9071 84.8865C70.6626 85.5752 65.3953 85.9574 60.1054 86.0898C59.6892 86.105 59.2767 86.0898 58.8643 86.086Z" fill="#E84502"/>
<path d="M12.4956 78.2876C15.6022 76.6643 18.6104 74.8821 21.3689 72.7063C27.813 67.6245 33.6894 61.9788 38.6199 55.3872C38.9264 54.9786 39.2821 54.5472 39.4145 54.0742C39.6302 53.3023 40.0881 53.272 40.7313 53.359C43.0774 53.6731 45.4386 53.8661 47.8035 53.9342C49.722 53.9872 51.6404 53.9455 53.7519 53.9455C52.9194 56.0645 51.928 57.7446 50.8761 59.3755C46.9029 65.5395 42.4455 71.3176 37.3031 76.5659C35.2106 78.7001 33.0727 80.785 30.859 82.7867C30.5753 83.044 30.2952 83.2938 29.8941 83.3278C23.9571 82.1245 18.1299 80.539 12.4956 78.2876Z" fill="#E84502"/>
<path d="M80.3569 84.1297C80.9889 82.3777 82.0446 80.8415 82.8922 79.1992C87.134 70.9805 91.0125 62.6142 93.2488 53.5858C93.7861 51.4214 94.1834 49.2267 94.191 46.9866C94.191 46.5098 94.3537 46.2525 94.7624 46.0141C96.9344 44.7503 99.0382 43.3919 100.669 41.4356C100.866 41.1972 100.995 41.2955 101.157 41.4318C102.304 45.8438 103.454 50.2597 104.601 54.6718C104.718 55.1864 104.646 55.6632 104.472 56.1702C102.009 63.3937 98.7279 70.2578 95.2354 77.0235C94.6867 78.0868 94.0888 79.1311 93.544 80.1982C93.3283 80.622 93.0974 81.0609 92.579 81.2047C88.5567 82.4042 84.5041 83.4675 80.3569 84.1297Z" fill="#E84502"/>
<path d="M0.383467 69.4972C1.42027 68.5172 2.77113 68.048 3.9555 67.2988C10.6682 63.0683 16.9268 58.2703 22.5573 52.6701C22.8752 52.356 23.2649 52.0722 23.4655 51.69C24.2033 50.2824 25.2288 50.3846 26.5607 50.7819C29.9814 51.7998 33.5118 52.3636 37.1747 52.9501C36.0433 54.2442 34.9838 55.4815 33.8978 56.6886C28.0857 63.1516 21.8119 69.1037 14.5165 73.8904C12.7683 75.0369 10.9898 76.1607 9.00328 76.8797C6.41128 75.7029 3.8382 74.4807 1.4354 72.9406C-0.0781726 71.9719 -0.0933092 71.8925 0.262381 70.0989C0.304004 69.9021 0.341843 69.7016 0.383467 69.4972Z" fill="#E84502"/>
<path d="M3.59592 54.1427C6.13116 52.7691 8.70424 51.4561 10.9746 49.6398C12.0795 48.7543 13.086 47.7743 14.0093 46.7034C14.2174 46.4613 14.3726 46.1926 14.7585 46.4007C17.0289 47.6267 19.4393 48.5349 22.0237 49.4771C20.2377 51.0398 18.5879 52.5345 16.8813 53.961C12.1552 57.9039 7.29661 61.6727 2.04451 64.9042C1.80991 65.048 1.56017 65.1653 1.32178 65.2939C2.07478 61.5781 2.83535 57.8585 3.59592 54.1427Z" fill="#E84502"/>
<path d="M106.076 60.4883C107.007 64.0755 107.874 67.6778 108.907 71.2384C109.323 72.6763 108.664 73.6829 107.715 74.3034C104.396 76.4754 100.854 78.2085 97.131 79.5707C96.8926 79.1507 97.2067 78.8555 97.3807 78.5414C100.461 73.0623 103.174 67.4167 105.293 61.491C105.441 61.0786 105.554 60.6169 106.076 60.4883Z" fill="#E84502"/>
<path d="M106.076 60.4879C105.365 61.6382 105.077 62.9588 104.578 64.1962C102.516 69.2969 100.155 74.2501 97.3998 79.0141C97.2977 79.1919 97.2182 79.3849 97.1312 79.5703C96.7566 80.2552 96.0036 80.2703 95.3981 80.5276C94.6489 80.8455 93.8732 81.099 93.0975 81.345C92.9499 81.3904 92.6359 81.6855 92.5791 81.2125C93.4305 80.0811 93.9792 78.7795 94.6376 77.5421C98.4064 70.4472 101.793 63.1821 104.408 55.5726C104.506 55.285 104.536 54.9747 104.601 54.6758C105.191 56.5867 105.887 58.4711 106.076 60.4879Z" fill="#FCE616"/>
<path d="M12.0682 45.0386C9.75247 47.0971 7.29669 48.9437 4.46631 50.2529C5.13607 46.7074 5.9042 43.1845 6.74045 39.6768C7.11885 39.6352 7.27777 39.9303 7.45183 40.1687C8.54161 41.6709 9.89626 42.9007 11.3644 44.017C11.6747 44.3083 12.1439 44.4862 12.0682 45.0386Z" fill="#E84502"/>
<path d="M67.2005 8.33805C66.0578 8.69374 64.9529 8.71266 64.0598 7.77803C63.1744 6.84718 63.3106 5.77632 63.795 4.70925C64.2793 3.64597 64.7637 2.58646 65.2896 1.54588C65.6794 0.770175 66.3264 0.702064 66.7767 1.46263C67.753 3.11622 68.6535 4.83034 69.1946 6.68068C69.4898 7.69478 68.7254 8.2775 67.1816 8.34183C67.3216 7.04016 66.4816 6.08282 66.0805 4.77736C65.6907 5.4055 65.7664 5.90119 65.6869 6.35526C65.441 7.74019 65.494 7.79316 66.86 8.12236C66.9962 8.15642 67.1097 8.2321 67.2005 8.33805Z" fill="#FEC765"/>
<path d="M32.7094 11.6525C31.2526 11.1795 30.8326 10.3811 31.245 8.92423C31.6348 7.55445 32.3499 6.29062 32.3764 4.79218C32.3916 3.93701 33.0424 3.76295 33.6251 4.41C34.8398 5.76465 35.9257 7.23281 36.6712 8.90153C37.2539 10.1956 36.8377 10.873 35.1841 11.6108C35.0706 10.714 34.73 9.91184 34.1814 9.20046C33.7084 8.58368 33.4624 8.62909 33.084 9.29128C32.6564 10.0367 32.664 10.8351 32.7094 11.6525Z" fill="#FEC765"/>
<path d="M50.9144 31.9012C50.9144 30.1076 50.9144 28.3141 50.9106 26.5205C51.0658 25.9983 51.448 25.6502 51.8226 25.2945C52.5794 24.5793 53.1507 23.7204 53.7448 22.8803C53.9718 22.5625 54.0967 22.1046 54.6038 22.0781C54.6416 22.1311 54.6946 22.1614 54.7589 22.1727C54.9027 22.2181 54.9103 22.2749 54.7703 22.343C54.8951 23.9285 55.02 25.5139 55.1487 27.0994C54.1837 28.9271 52.7534 30.3763 51.2966 31.8028C51.1982 31.8974 51.0544 31.9164 50.9144 31.9012Z" fill="#5B01D0"/>
<path d="M9.38909 31.4434C9.89993 31.4736 10.4108 31.4093 10.914 31.5909C12.0833 32.0147 12.7871 33.0553 12.7076 34.2927C12.6244 35.5754 11.8108 36.4306 10.4486 36.6765C9.57451 36.9679 8.95394 36.4079 8.27662 36.0333C8.19715 35.9841 8.12148 35.9235 8.04958 35.8592C7.7166 35.5641 7.6447 35.1478 7.53118 34.7505C7.11495 33.5056 7.79227 32.3061 9.38909 31.4434Z" fill="#F0F6F4"/>
<path d="M23.4197 26.9021C22.9468 26.3799 22.7349 25.7405 22.5835 25.0707C22.9203 24.5674 22.7424 23.9052 23.2608 23.4095C24.4717 22.263 25.9398 22.1684 27.1545 23.3225C27.4648 23.6177 27.7751 23.8523 28.2216 23.8296C27.9302 23.9961 27.688 24.1285 27.7561 24.5826C27.9605 25.9751 27.2983 26.9097 26.0647 27.4924C25.1225 27.9692 24.3998 27.8065 23.4197 26.9021Z" fill="#F0F6F4"/>
<path d="M76.8986 26.9025C76.4256 26.229 76.5202 25.3814 76.21 24.6586C76.4408 24.564 76.5732 24.3786 76.7019 24.1667C77.4549 22.9067 78.4349 22.4715 79.6571 22.8386C80.8453 23.1943 81.4053 24.0381 81.4204 25.4873C81.4204 25.6236 81.4242 25.7598 81.428 25.896C81.2161 26.3009 81.0042 26.7058 80.7923 27.1106C79.9069 28.4312 77.8106 28.3177 76.8986 26.9025Z" fill="#F0F6F4"/>
<path d="M18.2626 26.285C18.1453 26.4553 18.0356 26.6142 18.1415 26.845C18.7129 28.0672 18.3345 29.0889 17.4528 30.0008C16.6847 30.856 15.7614 30.9241 14.3652 30.2316C13.8241 29.7473 13.5932 29.0321 13.0938 28.5137C13.4532 27.7607 13.3359 26.845 14.0738 26.2055C15.0803 25.3314 16.3404 25.1687 17.4188 25.9785C17.6912 26.1752 17.941 26.3039 18.2626 26.285Z" fill="#F0F6F4"/>
<path d="M45.1398 24.5981C44.3149 24.091 43.8911 23.3532 43.8457 22.392C44.3982 20.3601 45.6431 19.6298 47.4064 20.2768C48.3978 20.6401 48.5832 21.5142 48.8102 22.3731C48.727 22.9634 48.5529 23.5197 48.2237 24.0229C47.4896 25.1922 46.5285 25.37 45.1398 24.5981Z" fill="#F0F6F4"/>
<path d="M50.9256 23.236C50.9066 22.9371 50.8839 22.6381 50.865 22.3392C51.0202 20.451 50.9066 18.5628 50.8575 16.6784C50.8385 15.9179 50.9899 15.4789 51.8564 15.5849C52.1251 15.6151 52.4051 15.5697 52.6775 15.5319C54.0435 15.3351 54.0473 15.3314 54.1381 16.6822C54.1835 17.3331 54.2025 17.9839 54.2327 18.6385C53.65 20.3526 52.5224 21.7149 51.3872 23.0733C51.2812 23.1982 51.1072 23.2511 50.9256 23.236Z" fill="#5C01D0"/>
<path d="M63.8966 25.5626C63.2874 25.1274 63.7604 24.5258 63.6696 24.0112C63.6053 23.6555 63.6696 23.2771 63.6771 22.91C64.0366 22.0927 63.7755 21.2224 63.9042 20.3824C63.9609 20.0191 63.8209 19.6256 64.0745 19.2926C64.5664 20.1894 64.3393 21.0938 64.2523 21.8997C65.3951 20.3937 66.8594 18.9331 68.2481 17.4082C68.3768 18.5093 68.5055 19.6142 68.6341 20.7154C68.7552 20.8932 68.7401 21.0938 68.7401 21.2905C67.707 22.9592 66.2729 24.2193 64.6572 25.2901C64.4264 25.4415 64.1918 25.5966 63.8966 25.5626Z" fill="#30ABFE"/>
<path d="M11.2432 44.1828C9.42311 42.9985 8.03062 41.3903 6.7403 39.6762C6.53975 38.2534 7.27005 36.9706 7.34194 35.5857C7.76574 34.9008 7.85277 35.7636 8.13279 35.756L8.14414 35.8128L8.09495 35.8468C8.23117 36.2441 8.4355 36.615 8.5301 37.0274C9.12796 38.435 10.0664 39.5816 11.2621 40.5238C11.3945 40.5881 11.5081 40.6713 11.5383 40.8303C11.5421 41.2314 11.3756 41.5681 11.1599 41.8935C10.8497 42.2984 10.967 42.7109 11.107 43.1422C11.2129 43.4752 11.5118 43.7969 11.2432 44.1828Z" fill="#FCE616"/>
<path d="M68.2446 17.4085C68.1613 17.6621 68.1764 17.9497 67.957 18.1578C66.6288 19.4216 65.4709 20.8444 64.0747 22.4525C64.0747 21.2228 64.0747 20.2616 64.0747 19.2967L64.0822 19.2362C63.8703 17.435 64.7823 16.2696 66.2315 15.3879C66.8256 15.0285 67.0715 14.0938 68.0137 14.2906C68.0894 15.3274 68.1689 16.368 68.2446 17.4085Z" fill="#015FD0"/>
<path d="M50.2328 13.5404C49.143 12.8895 49.2149 11.8376 49.5366 10.8992C49.9755 9.60886 50.6074 8.37908 51.2091 7.14931C51.4929 6.5628 51.9696 6.52874 52.488 6.92984C52.8702 7.2212 53.0291 7.61851 53.1389 8.06123C53.4529 9.35912 53.7784 10.6532 54.0962 11.9511C54.467 13.4685 53.9184 14.1307 52.3215 14.108C52.9497 13.1355 52.9837 12.11 52.6129 11.0392C52.5372 10.8159 52.4918 10.5435 52.2194 10.4905C51.875 10.4262 51.7426 10.7176 51.6442 10.9635C51.2696 11.8792 50.7663 12.7155 50.2328 13.5404Z" fill="#FEC765"/>
<path d="M54.7736 22.3426C54.732 22.2896 54.7282 22.2329 54.7622 22.1723C55.186 22.1761 55.519 22.1156 55.7839 21.6728C56.3818 20.6701 57.5283 20.1706 58.5954 20.5452C59.4997 20.8631 60.1165 21.5745 60.1846 22.6226C60.249 23.107 60.0787 23.5459 59.9084 23.9848C59.1213 25.4454 57.6948 25.6876 56.2947 24.6016C55.8861 24.1248 55.4963 23.5951 55.5455 22.9518C55.5909 22.2669 55.1898 22.3388 54.7736 22.3426Z" fill="#F0F6F4"/>
<path d="M88.0271 30.4167C86.207 29.834 85.9346 29.4102 85.9194 27.1285C86.5324 26.5647 87.0622 25.9479 88.0157 25.8457C89.4688 25.6868 90.9029 27.1663 90.3088 28.8085C90.1953 29.3194 89.7639 29.607 89.4877 30.0081C89.1131 30.5378 88.6439 30.7421 88.0271 30.4167Z" fill="#F0F5F4"/>
<path d="M34.2835 26.6793C34.2078 26.1684 34.1359 25.6576 34.0603 25.1505C33.7197 24.3067 33.557 23.4402 33.75 22.5321C34.923 21.0147 36.0317 19.4444 37.2917 17.9951C37.5566 19.3611 37.8064 20.7309 37.901 22.1196C37.0647 23.6521 35.8614 24.9197 34.8889 26.3576C34.7565 26.5544 34.5484 26.6944 34.2835 26.6793Z" fill="#08A0F7"/>
<path d="M34.2836 26.6789C35.2599 25.4037 36.2399 24.1361 37.2011 22.8496C37.4092 22.5733 37.5908 22.2858 37.9049 22.123C37.973 22.3577 38.0411 22.5923 38.1054 22.8269C38.1395 23.6404 38.1735 24.454 38.2076 25.2675C37.3978 27.1708 36.047 28.6579 34.5334 30.0201C34.3063 28.9152 34.2723 27.799 34.2836 26.6789Z" fill="#1261FB"/>
<path d="M68.0135 14.2868C66.8254 15.2517 65.6259 16.2014 64.4566 17.1853C64.169 17.4274 64.3242 17.8361 64.2826 18.1691C64.2372 18.5286 64.4264 18.9334 64.0858 19.2324C63.9912 16.962 64.0669 14.703 64.4755 12.4667C64.8388 12.8564 64.8199 13.2689 64.5247 13.7986C65.4896 12.9019 66.3145 11.9899 67.2227 11.1612C67.6049 10.8131 67.5065 10.3439 67.5746 9.91254C68.1952 9.68929 67.9719 10.2153 67.9757 10.4234C68.0097 11.7099 68.006 13.0002 68.0135 14.2868Z" fill="#30ABFE"/>
<path d="M50.9254 23.2349C52.3028 21.8992 53.1163 20.151 54.2364 18.6299C54.4445 19.7688 54.611 20.9116 54.6072 22.0733C53.4796 23.6398 52.5147 25.3426 50.9141 26.5156C50.9178 25.4258 50.9216 24.3323 50.9254 23.2349Z" fill="#FDD365"/>
<path d="M37.292 17.9947C36.4292 19.6521 35.3168 21.1165 33.9243 22.369C33.334 21.6765 33.7729 20.8554 33.6405 20.11C33.6026 19.5007 33.807 18.9899 34.2081 18.5245C34.8097 17.8282 35.3281 17.0639 35.96 16.3941C36.2325 16.1066 36.4784 15.7395 36.959 15.766C37.1217 16.5001 37.292 17.238 37.292 17.9947Z" fill="#1262FC"/>
<path d="M97.7023 33.1528C97.619 33.2587 97.5396 33.3609 97.4563 33.4668C96.5822 34.4053 95.7763 34.5339 94.8568 33.8869C93.8162 32.9522 94.2286 31.8927 94.5995 30.837C94.7016 30.8294 94.8076 30.8332 94.906 30.8105C97.1044 30.3186 97.7817 30.8862 97.7023 33.1528Z" fill="#F0F5F3"/>
<path d="M68.589 21.3476C68.6041 21.1357 68.6193 20.9238 68.6306 20.7119C68.8388 20.8633 68.9901 21.0563 69.2777 21.1433C70.7837 21.6087 71.2605 22.2709 71.3172 23.8488C71.2378 24.4845 70.9275 25.0029 70.481 25.4494C70.1329 25.8921 69.7015 26.1116 69.1301 25.9678C68.8425 25.7937 68.7896 25.5024 68.7479 25.2072C68.7442 24.2461 68.5171 23.3077 68.4755 22.3466C68.4679 22.006 68.4112 21.6655 68.589 21.3476Z" fill="#EFF5F4"/>
<path d="M36.963 15.7667C35.6954 17.0003 34.5262 18.3057 33.7051 19.8912C33.6218 19.948 33.5764 19.9291 33.5651 19.8269C33.5499 18.7523 33.5386 17.6738 33.5234 16.5992C34.4694 15.6002 35.2792 14.4386 36.6263 13.8975C36.8798 14.4953 36.8684 15.1424 36.963 15.7667Z" fill="#08A0F7"/>
<path d="M50.2329 13.5411C50.3994 12.2886 51.2811 11.3615 51.773 10.2528C51.9546 9.84038 52.386 10.0296 52.6281 10.3096C53.4228 11.2253 53.2374 13.3519 52.3179 14.1049C51.5535 14.1806 50.8232 14.12 50.2329 13.5411Z" fill="#FEB165"/>
<path d="M32.7097 11.6529C31.8734 10.5102 32.8005 9.58689 33.1221 8.60307C33.2584 8.18683 33.6216 8.36846 33.9016 8.51604C34.6887 8.92849 35.4265 10.7069 35.1882 11.6075C34.3784 12.58 33.5459 12.2962 32.7097 11.6529Z" fill="#FEB165"/>
<path d="M67.5711 9.91211C67.976 10.4873 67.8473 10.9186 67.3403 11.4181C66.4662 12.2809 65.6829 13.2382 64.858 14.1539C64.7521 14.082 64.6461 14.0101 64.5364 13.9382C64.5137 13.4463 64.491 12.9582 64.4683 12.4663C64.5288 11.7852 64.3964 11.0057 64.6915 10.4494C65.0548 9.76832 65.9402 10.3586 66.5646 10.1278C66.89 10.0143 67.2381 9.98022 67.5711 9.91211Z" fill="#0461D1"/>
<path d="M36.6259 13.8966C35.5513 14.7518 34.715 15.8756 33.5231 16.5983C33.5155 16.4583 33.5041 16.3221 33.4966 16.1821C33.3112 14.2334 33.5155 13.8361 34.9723 13.3063C35.1993 13.2458 35.4415 13.2079 35.6572 13.1133C36.4972 12.7463 36.7545 13.0793 36.6259 13.8966Z" fill="#1463FC"/>
<path d="M33.5647 19.8262C33.6101 19.8527 33.6555 19.8754 33.7047 19.8905C33.7085 20.723 33.6934 21.5554 33.928 22.369C33.9734 23.296 34.015 24.2231 34.0604 25.1502C33.402 24.6847 33.0993 24.0415 33.1031 23.2431C33.5912 22.1495 33.5306 20.9803 33.5647 19.8262Z" fill="#E9EEEE"/>
<path d="M34.9725 13.3024C33.9395 13.9835 33.2887 14.8614 33.4968 16.182C33.4514 15.7847 33.3833 15.3874 33.3643 14.9863C33.2697 13.2759 33.2735 13.2759 34.9725 13.3024Z" fill="#18A4F8"/>
<path d="M13.1015 28.5098C13.7827 28.7784 13.7902 29.6185 14.3427 29.9931C14.2065 30.1028 14.0665 30.1255 13.9302 29.9931C13.5178 29.6298 13.5291 28.9033 12.8745 28.7406C12.9502 28.6649 13.0259 28.5892 13.1015 28.5098Z" fill="#F6964B"/>
<path d="M8.13304 35.7602C7.82654 35.9078 7.6941 35.2456 7.3422 35.5899C7.26652 35.2796 7.39139 35.011 7.5314 34.7461C7.85681 35.0072 7.94384 35.4159 8.13304 35.7602Z" fill="#F3F1B3"/>
<path d="M22.8034 45.2954C23.6775 43.411 25.456 42.658 27.1625 43.4488C28.8767 44.2397 29.448 46.1127 28.5475 47.9631C27.0225 49.9837 23.8629 49.6318 22.8375 47.2971C22.5575 46.669 22.6445 45.9652 22.8034 45.2954Z" fill="#F0F6F5"/>
<path d="M37.2654 50.4418C37.1821 50.2488 37.0989 50.052 37.0156 49.859C37.0345 47.4903 38.1054 46.1167 39.986 46.041C42.052 45.9578 43.4975 47.6417 43.0737 49.632C43.0321 49.8326 43.0397 50.0407 43.0245 50.2488C41.8212 52.1862 40.6898 52.4964 38.6843 51.4332C38.1735 51.1569 37.6967 50.8315 37.2654 50.4418Z" fill="#F0F6F4"/>
<path d="M66.9806 49.8252C66.2012 48.6333 66.1898 47.43 67.0147 46.2759C67.7109 45.3034 68.7213 44.891 69.8981 45.1067C71.2489 45.3526 72.0625 46.2078 72.3463 47.5549C72.5392 48.9739 72.0208 49.9728 70.7986 50.5442C69.1186 51.3275 68.1196 51.1383 66.9806 49.8252Z" fill="#F0F6F4"/>
<path d="M68.589 21.3467C68.8236 22.637 69.0166 23.9273 69.0166 25.2441C67.9306 26.962 66.4284 28.328 65.0813 29.8227C64.6954 30.2503 64.4646 30.92 63.7456 30.9844C63.7948 29.1794 63.844 27.3745 63.897 25.5658C65.683 24.4041 67.2117 22.9586 68.589 21.3467Z" fill="#015ED0"/>
<path d="M52.9236 38.3939C51.1981 37.8453 51.2397 38.3939 51.1035 35.0338C52.3976 33.5051 53.8015 32.071 55.0539 30.5082C55.141 30.3985 55.2696 30.3493 55.4134 30.4288C55.6442 31.8061 55.8751 33.1797 56.1021 34.557C55.3718 36.1085 54.282 37.3609 52.9236 38.3939Z" fill="#5B01D0"/>
<path d="M34.5298 30.0163C35.1768 28.8017 36.3688 28.0146 37.0537 26.8227C37.3715 26.2664 37.818 25.7821 38.204 25.2637C38.2986 26.8378 38.397 28.4081 38.4916 29.9822C37.6932 31.6207 36.9099 33.2667 35.5817 34.5684C35.139 34.5078 34.806 34.3565 34.7795 33.8192C34.7114 32.5515 34.6168 31.2839 34.5298 30.0163Z" fill="#07A0F7"/>
<path d="M63.7456 30.9816C65.5051 29.0707 67.2609 27.156 69.0204 25.2451C69.0885 25.4759 69.1566 25.703 69.2247 25.9338C69.6107 26.3084 69.4631 26.7095 69.2777 27.1106C69.2702 27.6479 69.2626 28.189 69.2512 28.7263C68.3696 30.1226 67.4955 31.5302 65.9743 32.3476C65.0019 32.2681 63.9537 32.3097 63.7456 30.9816Z" fill="#30ABFD"/>
<path d="M55.4172 30.4284C54.0322 32.0101 52.8516 33.7847 51.1072 35.0334C50.9445 33.9928 50.8121 32.9523 50.9143 31.8965C52.496 30.4435 53.7219 28.6802 55.1523 27.0947C55.2166 28.2072 55.4928 29.3045 55.4172 30.4284Z" fill="#FDD365"/>
<path d="M35.5815 34.5686C36.5654 33.0474 37.3486 31.4014 38.4914 29.9824C38.7941 31.1441 38.7714 32.3436 38.8811 33.5242C38.9379 34.1372 37.5757 35.0037 36.7129 34.9432C36.3118 34.9129 35.907 34.8523 35.5815 34.5686Z" fill="#1361FA"/>
<path d="M52.9233 38.3936C53.9828 37.1146 55.0423 35.8356 56.1018 34.5566C56.2229 35.2264 56.3516 35.8924 56.4689 36.5621C56.6581 37.6746 55.9694 38.5563 54.8456 38.6622C54.1834 38.7265 53.5628 38.4957 52.9233 38.3936Z" fill="#FDD264"/>
<path d="M58.4934 51.0547C57.8691 53.3705 54.4522 53.2456 53.1997 52.0385C52.9121 51.7623 52.9576 51.4218 52.9273 51.085C52.8667 50.9374 52.8062 50.7861 52.7456 50.6385C52.6132 50.5136 52.6283 50.366 52.6889 50.2147C53.5441 50.6006 54.2592 51.2553 55.1976 51.4974C56.7301 51.891 58.1794 51.0093 58.3383 49.5374C58.4064 48.8941 58.2134 48.3189 57.8464 47.793C57.6572 47.5243 57.3431 47.2973 57.468 46.8924C57.6231 46.8016 57.7594 46.8129 57.8767 46.9529C59.0762 48.1676 59.0989 49.5638 58.4934 51.0547Z" fill="#D8CE79"/>
<path d="M76.8986 26.9017C78.1473 27.8779 79.4339 28.1428 80.7923 27.1098C81.1177 27.159 81.4848 26.6784 81.7307 27.0606C82.0032 27.4844 81.5188 27.7152 81.2804 27.9725C79.7669 29.6223 77.5268 28.9564 76.3802 27.7796C76.1646 27.5563 75.9489 27.2801 76.0964 26.9547C76.3046 26.5044 76.6338 26.9963 76.8986 26.9017Z" fill="#CD5F0B"/>
<path d="M22.803 45.2959C22.7879 47.3695 23.7376 48.5879 25.7469 49.042C26.9162 49.3069 27.7638 48.709 28.547 47.9636C28.566 48.0884 28.5849 48.2095 28.6 48.3306C28.3616 48.5274 28.1194 48.7128 27.8886 48.9171C26.3032 50.3323 24.4907 50.3248 22.8825 48.8906C22.4625 48.516 22.2695 48.0468 22.4284 47.5057C22.5268 47.1689 22.6365 46.8549 22.5117 46.5105C22.6592 46.1208 22.4095 45.6289 22.803 45.2959Z" fill="#D8CE7A"/>
<path d="M37.2655 50.442C37.5455 50.4269 37.7877 50.495 38.0298 50.6653C40.3115 52.2621 40.6862 52.2356 42.7635 50.4079C42.8392 50.3436 42.9376 50.302 43.0246 50.249C43.0511 50.3777 43.0776 50.5101 43.1041 50.6388C42.8052 51.8004 41.95 52.4702 40.8754 52.6556C39.638 52.8713 38.4082 52.6707 37.4963 51.615C37.1936 51.2593 37.2276 50.8545 37.2655 50.442Z" fill="#D8CD7A"/>
<path d="M65.9741 32.3468C67.2039 31.2646 68.0893 29.8721 69.251 28.7256C69.8073 31.5484 68.6267 32.8539 65.9741 32.3468Z" fill="#055FCD"/>
<path d="M13.93 29.9971C14.0662 29.9971 14.2062 29.9971 14.3425 29.9971C15.3793 30.5457 16.4161 30.6139 17.4566 30.0009C17.9599 29.9857 18.1794 30.1673 17.9221 30.6782C17.5247 31.469 16.7566 31.6128 16.0225 31.6279C15.1711 31.6431 14.3311 31.4123 13.7824 30.6668C13.6235 30.4511 13.8354 30.2128 13.93 29.9971Z" fill="#CD5F0A"/>
<path d="M66.981 49.825C68.7556 51.0321 69.7319 51.0208 71.3779 49.9159C72.2671 49.318 72.2255 48.4212 72.3466 47.5547C72.8574 48.4553 72.2066 49.1893 71.9871 49.9802C71.0298 52.0084 68.5097 52.2619 67.2458 50.4532C67.1588 50.2489 67.0718 50.0369 66.981 49.825Z" fill="#D8CD7A"/>
<path d="M56.2909 24.5973C57.6342 25.1951 58.864 25.1497 59.9046 23.9805C60.6122 24.4156 60.1505 24.8659 59.8592 25.2216C59.0645 26.1865 57.4715 26.3606 56.4423 25.6568C56.0033 25.3578 55.8406 25.0248 56.2909 24.5973Z" fill="#CD5E0A"/>
<path d="M95.451 42.4352C95.2466 42.5487 95.0461 42.6584 94.8417 42.7719C94.2287 42.1968 93.3282 42.0416 92.8211 41.2735C92 40.0362 91.8789 38.5491 92.6281 37.3117C93.3509 36.1236 94.7812 35.3971 95.9996 35.5976C97.5927 35.8625 98.6332 36.8501 98.9927 38.4393C98.9511 38.4658 98.9057 38.4961 98.8641 38.5226C98.7619 38.5112 98.6711 38.4696 98.5992 38.3939C97.937 37.1642 97.1272 36.1728 95.5266 36.2371C94.1304 36.2938 93.1011 37.0885 92.7341 38.5112C92.4352 39.6767 93.1314 41.107 94.2628 41.7087C94.6677 41.9206 95.2126 41.9319 95.451 42.4352Z" fill="#F69347"/>
<path d="M45.1397 24.5971C46.2181 24.6728 47.3495 25.0285 48.2236 24.022C48.6815 23.9955 48.8631 24.1166 48.6209 24.6047C48.1404 25.562 45.9495 26.1372 45.0678 25.5053C44.6175 25.1799 44.6099 24.8582 45.1397 24.5971Z" fill="#CD5F0A"/>
<path d="M80.9965 42.5711C81.9916 41.3073 83.2139 40.6791 84.8599 41.1219C86.4302 41.5457 87.2702 42.59 87.5578 44.149C87.6751 44.7885 87.4897 45.3599 87.2248 45.9237C87.081 45.8253 87.0129 45.6815 86.9751 45.5226C86.9183 45.2199 86.9372 44.9096 86.9335 44.5993C86.9221 43.3544 86.4113 42.3857 85.2534 41.89C84.1069 41.4019 82.9793 41.4738 81.9803 42.3214C81.7003 42.5597 81.4543 42.8776 81.0192 42.836C80.9132 42.7565 80.9057 42.6657 80.9965 42.5711Z" fill="#F69143"/>
<path d="M88.0273 30.4176C88.5116 30.2814 88.9997 30.1452 89.4841 30.0052C89.6657 29.9219 89.8625 29.8576 90.029 29.7479C90.2333 29.6154 90.4074 29.5965 90.5663 29.7895C90.7366 29.9976 90.6003 30.1565 90.4793 30.3306C89.9495 31.0911 88.4776 31.5377 87.611 31.1933C87.4483 31.129 87.2591 31.0382 87.3008 30.8452C87.3802 30.4592 87.8835 30.7355 88.0273 30.4176Z" fill="#CF600B"/>
<path d="M94.8533 33.8868C95.8069 34.2803 96.628 33.8717 97.4529 33.4668C97.9524 33.8868 97.7216 34.2728 97.3432 34.5717C96.6242 35.1393 95.7993 35.0523 95.0009 34.8025C94.4485 34.6285 94.6793 34.2312 94.8533 33.8868Z" fill="#CD5F0A"/>
<path d="M23.4202 26.9023C24.2753 27.2278 25.104 27.6553 26.0689 27.4926C26.1635 28.1132 26.0424 28.2532 25.2478 28.4613C24.5894 28.6354 24.0596 28.3894 23.5677 27.977C23.1818 27.6591 23.1591 27.3034 23.4202 26.9023Z" fill="#CD5F0A"/>
<path d="M8.53038 37.0312C8.14063 36.7285 7.75089 36.4257 8.09522 35.8506C8.95796 35.9036 9.59745 36.5922 10.4488 36.6755C10.5964 36.876 11.0732 36.7549 10.9824 37.1636C10.8991 37.5307 10.551 37.402 10.2975 37.4285C9.66556 37.4966 9.10554 37.2317 8.53038 37.0312Z" fill="#CE600C"/>
<path d="M36.8341 49.7988C34.5297 49.5794 32.2631 49.1745 30.0306 48.5728C29.9852 48.3874 30.0231 48.2815 30.2425 48.3647C32.2896 48.7166 34.3367 49.0647 36.3801 49.4204C36.5957 49.4545 36.7395 49.6021 36.8341 49.7988Z" fill="#EC5805"/>
<path d="M52.7644 50.2187C52.7568 50.3587 52.7492 50.4987 52.7417 50.6349C52.0114 49.0456 52.4427 47.4904 53.8731 46.5558C55.1369 45.7271 56.8964 45.8974 57.8765 46.9456C57.7591 46.9342 57.6381 46.9266 57.5208 46.9153C57.2824 47.0893 57.0667 46.9304 56.851 46.8585C54.732 46.1623 53.1882 47.1612 52.999 49.3597C52.9725 49.6624 53.0065 49.9765 52.7644 50.2187Z" fill="#F69448"/>
<path d="M17.1992 44.2707C17.0894 44.2593 16.9835 44.248 16.8737 44.2366C16.6467 43.9717 16.8246 43.7182 16.9154 43.476C17.4224 42.1252 17.2446 40.9332 16.1434 39.9343C15.9505 39.7564 15.6969 39.5937 15.7537 39.2645C15.9051 39.1813 16.0564 39.1661 16.1964 39.2872C18.0392 40.7138 18.3192 42.1176 17.1992 44.2707Z" fill="#F59244"/>
<path d="M69.2776 27.1066C69.2587 26.7131 69.2435 26.3233 69.2246 25.9298C69.6446 25.7709 70.0684 25.6081 70.4884 25.4492C71.2906 25.593 71.022 26.0471 70.6701 26.3347C70.2652 26.6639 69.7468 26.8568 69.2776 27.1066Z" fill="#CD5F0B"/>
<path d="M80.9965 42.5713C81.0078 42.6621 81.0192 42.7567 81.0305 42.8475C81.1932 43.067 81.1327 43.3054 81.0608 43.5286C80.5575 45.0498 81.0457 46.2417 82.2679 47.199C82.3738 47.2823 82.4571 47.392 82.5252 47.5093C82.563 47.6153 82.5441 47.7137 82.4722 47.7969C82.3322 47.8423 82.1884 47.8877 82.0484 47.9369C82.0446 47.6493 81.7987 47.5623 81.6246 47.4109C80.1678 46.1358 79.9218 44.1908 80.9965 42.5713Z" fill="#F69539"/>
<path d="M16.2002 39.2864C16.0489 39.2939 15.8975 39.2977 15.7462 39.3053C15.697 39.3545 15.6327 39.4226 15.5759 39.4112C14.0056 39.101 12.7796 39.7215 11.7352 40.834C11.6255 40.8491 11.5309 40.8226 11.4438 40.7583C11.3833 40.6826 11.3228 40.607 11.2622 40.5313C12.0833 39.8994 12.7001 38.9874 13.8769 38.8436C14.7245 38.7377 15.4851 38.8285 16.2002 39.2864Z" fill="#F68C3A"/>
<path d="M49.0182 51.0249C47.4139 51.0211 45.8208 50.9227 44.2354 50.6616C44.47 50.3967 44.8483 50.6767 45.0905 50.4346C46.3771 50.7789 47.7279 50.4989 49.0145 50.847C49.0826 50.8849 49.1053 50.9265 49.0826 50.9643C49.0599 51.0022 49.041 51.0249 49.0182 51.0249Z" fill="#F06B07"/>
<path d="M49.0186 51.0245C49.0186 50.964 49.0186 50.9072 49.0186 50.8467C49.8397 50.9488 50.6986 50.6234 51.4932 51.051C50.6683 51.0397 49.8435 51.0321 49.0186 51.0245Z" fill="#EF6607"/>
<path d="M30.2386 48.3612C30.1667 48.4293 30.0986 48.5012 30.0267 48.5694C29.6824 48.4975 29.3381 48.4256 28.9937 48.3499C28.971 48.2364 28.8953 47.9904 29.0013 48.032C29.4062 48.2061 29.8981 48.0131 30.2386 48.3612Z" fill="#EC5A05"/>
<path d="M45.0908 50.4346C44.8676 50.7411 44.5195 50.5859 44.2357 50.6578C43.9102 50.6389 43.5886 50.62 43.2632 50.5973C43.8459 50.2492 44.4854 50.514 45.0908 50.4346Z" fill="#EB5305"/>
<path d="M87.1906 45.4629C87.202 45.6142 87.2134 45.7694 87.2209 45.9207C87.2134 46.0494 87.202 46.1781 87.1944 46.3105C87.1188 46.3786 87.0393 46.4429 86.9636 46.511C86.7668 46.5375 86.7025 46.4127 86.6685 46.2537C86.7328 45.917 86.6949 45.5121 87.1906 45.4629Z" fill="#F6A84F"/>
<path d="M99.3525 38.886C99.2352 39.0297 99.1179 39.1698 98.9969 39.3135C98.7206 39.06 98.7206 38.7876 98.9287 38.4962L98.9931 38.4395C99.1142 38.587 99.2315 38.7346 99.3525 38.886Z" fill="#F69347"/>
<path d="M95.4511 42.4349C95.1901 42.3479 94.9328 42.2608 94.6717 42.1738C93.2186 41.6819 92.2764 40.3008 92.4089 38.8553C92.5375 37.4401 93.6538 36.1838 94.9592 35.9757C96.5901 35.7146 97.9107 36.4109 98.5729 37.8904C98.6561 38.0758 98.7091 38.2801 98.7734 38.4731C99.4129 40.384 97.9031 42.2381 96.0982 42.3744C95.8787 42.3933 95.6668 42.4122 95.4511 42.4349Z" fill="#F0F6F4"/>
<path d="M11.6748 40.7702C12.6473 39.215 14.0322 38.8063 15.7463 39.3058C17.6648 40.7361 17.9183 41.8486 16.8739 44.2363C16.7112 44.3801 16.5485 44.5239 16.3858 44.6639C14.6073 45.7007 12.5678 45.0233 11.671 43.086C11.4856 42.6849 11.3304 42.2649 11.2812 41.8146C11.3569 41.4475 11.4213 41.0729 11.6748 40.7702Z" fill="#F0F6F5"/>
<path d="M11.429 41.7613C11.8376 42.6089 12.0533 43.5246 12.8858 44.1792C14.0096 45.0684 15.1032 45.3295 16.3859 44.6635C14.7891 46.2301 14.6188 46.2452 12.0647 45.0382C11.7922 44.7544 11.516 44.4668 11.2436 44.183C11.0695 43.7138 10.8879 43.2446 10.7176 42.7754C10.5662 42.3591 10.5662 41.9807 11.0279 41.7461C11.1679 41.644 11.3003 41.6402 11.429 41.7613Z" fill="#D7CD7A"/>
<path d="M86.7744 46.3096C86.8387 46.3739 86.903 46.442 86.9674 46.5063C86.7857 47.5318 85.9154 48.3302 84.7348 48.5648C83.8267 48.7464 82.9753 48.7805 82.472 47.7891C82.4683 47.7172 82.4607 47.6415 82.4531 47.5696C82.4758 47.5469 82.5023 47.4977 82.525 47.5015C84.0764 47.5961 85.5295 47.3274 86.7744 46.3096Z" fill="#D9CE7A"/>
<path d="M96.0942 42.3748C97.8462 41.6634 98.9095 40.4828 98.7695 38.4735C98.8225 38.466 98.8754 38.4735 98.9284 38.4962C98.9511 38.7687 98.9738 39.0411 98.9965 39.3136C99.5452 40.006 99.2652 40.7212 98.8565 41.2737C98.4062 41.8867 97.9559 42.704 96.9078 42.4088C96.6543 42.3369 96.3667 42.3823 96.0942 42.3748Z" fill="#D9CF78"/>
<path d="M67.2 8.33773C65.1453 8.29232 65.0545 8.17123 65.4556 6.14683C65.5351 5.74951 65.5048 5.3295 65.5464 4.92083C65.5729 4.65596 65.7205 4.47054 66.0005 4.44027C66.254 4.41757 66.4016 4.61433 66.4319 4.80353C66.5681 5.74194 67.1508 6.49873 67.4611 7.36525C67.6276 7.83068 67.446 8.0615 67.1849 8.33773C67.1849 8.34151 67.2 8.33773 67.2 8.33773Z" fill="#FEB165"/>
<path d="M11.4289 41.7614C11.2965 41.7576 11.1641 41.7501 11.0278 41.7463C11.1678 41.4171 11.3041 41.0841 11.4441 40.7549C11.5197 40.7587 11.5992 40.7662 11.6749 40.77C11.5954 41.0992 11.5122 41.4322 11.4289 41.7614Z" fill="#F7E563"/>
<path d="M52.7643 50.2188C52.5108 48.8187 52.8173 47.6079 54.0547 46.7943C55.2163 46.03 56.3893 46.1662 57.5207 46.9154C57.9256 47.5322 58.4667 48.0392 58.5878 48.849C58.8186 50.3512 57.8764 51.7551 56.2683 51.827C54.9022 51.8837 53.5892 51.5053 52.7643 50.2188Z" fill="#F0F6F4"/>
<path d="M86.7748 46.31C85.6699 47.8841 84.1184 47.9295 82.4497 47.5738C80.5994 46.4083 80.221 45.1445 81.0308 42.8439C81.7232 42.1174 82.427 41.4287 83.513 41.3265C85.912 41.1033 87.3272 42.685 87.191 45.4624C87.051 45.7462 86.9148 46.03 86.7748 46.31Z" fill="#F0F6F5"/>
</svg>
