<svg width="252" height="240" viewBox="0 0 252 240" fill="none" xmlns="http://www.w3.org/2000/svg">
<path d="M7.36548 101.922H246.387V219.08C246.387 230.126 237.433 239.08 226.387 239.08H27.3655C16.3198 239.08 7.36548 230.126 7.36548 219.08V101.922Z" fill="#C58EFF"/>
<mask id="mask0_700_11515" style="mask-type:alpha" maskUnits="userSpaceOnUse" x="7" y="101" width="240" height="139">
<path d="M7.36548 101.922H246.387V219.08C246.387 230.126 237.433 239.08 226.387 239.08H27.3655C16.3198 239.08 7.36548 230.126 7.36548 219.08V101.922Z" fill="#C58EFF"/>
</mask>
<g mask="url(#mask0_700_11515)">
<circle cx="43.0388" cy="234.11" r="24.8892" fill="#FFF38B"/>
<circle cx="236.688" cy="158.316" r="24.8892" fill="#FFF38B"/>
<circle cx="182.863" cy="224.165" r="24.8892" fill="#FFF38B"/>
<circle cx="16.7109" cy="136.631" r="24.8892" fill="#FFF38B"/>
<circle cx="69.6624" cy="173.634" r="18.5825" fill="#FFF38B"/>
<circle cx="240.655" cy="214.5" r="18.5825" fill="#FFF38B"/>
<circle cx="119.311" cy="191.298" r="17.7705" fill="#FFF38B"/>
<circle cx="111.995" cy="132.96" r="14.8813" fill="#FFF38B"/>
<circle cx="10.783" cy="189.676" r="14.8813" fill="#FFF38B"/>
<circle cx="174.44" cy="159.474" r="23.0361" fill="#FFF38B"/>
<circle cx="120.617" cy="241.136" r="23.0361" fill="#FFF38B"/>
</g>
<rect x="7.36548" y="104.23" width="239.021" height="18.5664" fill="#8E2AF9"/>
<path d="M0.793213 63.4795C0.793213 55.1952 7.50894 48.4795 15.7932 48.4795H237C245.285 48.4795 252 55.1952 252 63.4795V112.842H0.793213V63.4795Z" fill="#A047FF"/>
<path fill-rule="evenodd" clip-rule="evenodd" d="M119.936 69.0275C132.148 40.21 162.434 -13.3126 185.888 3.13634C215.207 23.6975 229.214 48.9148 228.929 62.5243C228.643 76.1338 213.07 93.2932 129.079 84.4315L119.936 69.0275ZM129.283 66.3553C138.961 44.1557 162.974 2.92795 181.598 15.6142C204.879 31.4721 215.959 53.305 215.789 61.3972C215.619 69.4894 203.217 85.0988 136.547 78.2295L129.283 66.3553Z" fill="#FDF219"/>
<path fill-rule="evenodd" clip-rule="evenodd" d="M119.643 66.5665C103.173 43.0632 65.8279 0.879248 48.2022 20.1703C26.17 44.2841 18.6469 69.6198 21.5557 81.7781C24.4645 93.9365 41.6456 106.329 114.527 82.1561L119.643 66.5665ZM110.819 65.9761C97.8908 47.9226 68.5168 15.5609 54.4477 30.5425C36.8614 49.2695 31.2784 71.0026 33.008 78.2319C34.7376 85.4613 48.8 97.0746 106.683 78.0351L110.819 65.9761Z" fill="#FDF219"/>
<path d="M59.2476 187.103C64.7738 133.018 95.8164 98.5138 110.647 88.0219L122.653 91.6209C102.528 108.753 89.8973 171.926 86.0976 201.372L73.3523 172.95L59.2476 187.103Z" fill="#8E2AF9"/>
<path d="M194.242 173.173C178.781 121.359 146.179 93.7352 131.81 86.4L122.614 92.2908C142.695 105.076 165.857 164.379 174.928 192.432L177.951 152.544L194.242 173.173Z" fill="#8E2AF9"/>
<path d="M54.7318 182.587C60.2579 128.503 91.3005 93.9982 106.131 83.5063L118.137 87.1052C98.012 104.237 85.3814 167.411 81.5817 196.856L68.8364 168.435L54.7318 182.587Z" fill="#FDF219" stroke="#FDF219"/>
<path d="M198.758 168.657C183.297 116.843 150.694 89.2196 136.326 81.8844L127.129 87.7752C147.211 100.56 170.373 159.863 179.444 187.916L182.467 148.029L198.758 168.657Z" fill="#FDF219" stroke="#FDF219"/>
<path d="M138.808 78.3467C138.809 78.3609 138.809 78.3754 138.809 78.3903C138.819 79.1201 138.983 88.8712 140.73 96.6516C142.545 104.739 148.669 117.714 148.669 117.714C148.669 117.714 143.196 107.376 139.608 102.451C136.02 97.5251 129.716 91.1569 129.716 91.1569C134.3 86.8122 138.795 80.2219 138.809 78.3903C138.808 78.3614 138.808 78.3467 138.808 78.3467Z" fill="#E8DE05"/>
<path d="M101.064 84.7348C101.064 84.7348 113.97 86.4992 111.16 97.0383C111.16 97.0383 107.649 102.724 104.309 110.264C100.969 117.804 96.3875 132.12 96.3875 132.12C96.3875 132.12 100.998 114.578 102.209 104.442C103.42 94.3072 101.064 84.7348 101.064 84.7348Z" fill="#E8DE05"/>
<path d="M148.999 91.718L157.652 96.6239C157.652 96.6239 158.252 96.9434 153.626 92.8715C149.001 88.7997 144.893 85.8887 144.893 85.8887L138.526 85.4492L148.999 91.718Z" fill="#E8DE05"/>
<path d="M93.9951 92.5598C92.7039 93.774 85.7097 102.125 85.7097 102.125C85.7097 102.125 92.9981 96.0228 94.8185 94.5942C96.6389 93.1656 106.37 87.9541 106.37 87.9541L102.133 86.1187L100.341 86.6016C100.341 86.6016 95.2862 91.3457 93.9951 92.5598Z" fill="#E8DE05"/>
<path d="M122.258 63.5407L124.262 59.3037C124.262 59.3037 124.191 60.3548 127.405 61.7609C130.619 63.1669 131.063 62.3077 131.063 62.3077L130.398 64.8316L122.258 63.5407Z" fill="#E8DE05"/>
<path d="M111.319 67.1347L108.521 62.7979C108.521 62.7979 109.813 63.5597 112.363 62.2437C114.914 60.9278 114.626 59.7527 114.626 59.7527L116.417 61.6306L111.319 67.1347Z" fill="#E8DE05"/>
<circle cx="119.786" cy="80.1448" r="19.0657" fill="#FFB428"/>
</svg>
