<svg width="105" height="100" viewBox="0 0 105 100" fill="none" xmlns="http://www.w3.org/2000/svg">
<path d="M2.87842 42.7363H101.802V85.4822C101.802 93.2251 95.5254 99.502 87.7825 99.502H16.8982C9.15528 99.502 2.87842 93.2251 2.87842 85.4822V42.7363Z" fill="#6AA6FF"/>
<mask id="mask0_701_11704" style="mask-type:alpha" maskUnits="userSpaceOnUse" x="2" y="42" width="100" height="58">
<path d="M2.87842 42.7363H101.802V85.4822C101.802 93.2251 95.5254 99.502 87.7825 99.502H16.8982C9.15528 99.502 2.87842 93.2251 2.87842 85.4822V42.7363Z" fill="#C58EFF"/>
</mask>
<g mask="url(#mask0_701_11704)">
<path d="M27.9435 97.4444C27.9435 103.133 23.3317 107.745 17.6427 107.745C11.9537 107.745 7.3418 103.133 7.3418 97.4444C7.3418 91.7554 11.9537 87.1436 17.6427 87.1436C23.3317 87.1436 27.9435 91.7554 27.9435 97.4444Z" fill="#FFF9C9"/>
<path d="M108.089 66.0753C108.089 71.7643 103.477 76.3762 97.7882 76.3762C92.0992 76.3762 87.4873 71.7643 87.4873 66.0753C87.4873 60.3863 92.0992 55.7744 97.7882 55.7744C103.477 55.7744 108.089 60.3863 108.089 66.0753Z" fill="#FFF9C9"/>
<path d="M85.8124 93.3282C85.8124 99.0172 81.2006 103.629 75.5116 103.629C69.8226 103.629 65.2107 99.0172 65.2107 93.3282C65.2107 87.6392 69.8226 83.0273 75.5116 83.0273C81.2006 83.0273 85.8124 87.6392 85.8124 93.3282Z" fill="#FFF9C9"/>
<path d="M17.0473 57.1017C17.0473 62.7907 12.4354 67.4025 6.74643 67.4025C1.05742 67.4025 -3.55444 62.7907 -3.55444 57.1017C-3.55444 51.4126 1.05742 46.8008 6.74643 46.8008C12.4354 46.8008 17.0473 51.4126 17.0473 57.1017Z" fill="#FFF9C9"/>
<path d="M36.3522 72.4154C36.3522 76.6628 32.9089 80.1061 28.6614 80.1061C24.414 80.1061 20.9707 76.6628 20.9707 72.4154C20.9707 68.1679 24.414 64.7246 28.6614 64.7246C32.9089 64.7246 36.3522 68.1679 36.3522 72.4154Z" fill="#FFF9C9"/>
<path d="M107.121 89.3284C107.121 93.5759 103.677 97.0192 99.43 97.0192C95.1825 97.0192 91.7393 93.5759 91.7393 89.3284C91.7393 85.081 95.1825 81.6377 99.43 81.6377C103.677 81.6377 107.121 85.081 107.121 89.3284Z" fill="#FFF9C9"/>
<path d="M56.5638 79.7258C56.5638 83.7876 53.271 87.0805 49.2092 87.0805C45.1473 87.0805 41.8545 83.7876 41.8545 79.7258C41.8545 75.6639 45.1473 72.3711 49.2092 72.3711C53.271 72.3711 56.5638 75.6639 56.5638 79.7258Z" fill="#FFF9C9"/>
<path d="M52.3403 55.5818C52.3403 58.9833 49.5829 61.7407 46.1814 61.7407C42.7799 61.7407 40.0225 58.9833 40.0225 55.5818C40.0225 52.1803 42.7799 49.4229 46.1814 49.4229C49.5829 49.4229 52.3403 52.1803 52.3403 55.5818Z" fill="#FFF9C9"/>
<path d="M10.4519 79.0554C10.4519 82.4569 7.69447 85.2144 4.29298 85.2144C0.891486 85.2144 -1.86597 82.4569 -1.86597 79.0554C-1.86597 75.6539 0.891486 72.8965 4.29298 72.8965C7.69447 72.8965 10.4519 75.6539 10.4519 79.0554Z" fill="#FFF9C9"/>
<path d="M81.5594 66.5554C81.5594 71.8209 77.2909 76.0894 72.0254 76.0894C66.76 76.0894 62.4915 71.8209 62.4915 66.5554C62.4915 61.29 66.76 57.0215 72.0254 57.0215C77.2909 57.0215 81.5594 61.29 81.5594 66.5554Z" fill="#FFF9C9"/>
<path d="M59.2837 100.353C59.2837 105.619 55.0152 109.887 49.7498 109.887C44.4843 109.887 40.2158 105.619 40.2158 100.353C40.2158 95.0878 44.4843 90.8193 49.7498 90.8193C55.0152 90.8193 59.2837 95.0878 59.2837 100.353Z" fill="#FFF9C9"/>
</g>
<path d="M2.87842 43.6914H101.802V51.3755H2.87842V43.6914Z" fill="#2775EB"/>
<path d="M0.158447 31.133C0.158447 25.3258 4.86609 20.6182 10.6733 20.6182H93.6107C99.4179 20.6182 104.125 25.3258 104.125 31.133V47.2558H0.158447V31.133Z" fill="#4791FF"/>
<path fill-rule="evenodd" clip-rule="evenodd" d="M49.4683 29.1215C54.5222 17.1948 67.0567 -4.95661 76.7639 1.8511C88.8978 10.3608 94.6951 20.7974 94.5769 26.43C94.4587 32.0626 88.0136 39.1643 53.2521 35.4968L49.4683 29.1215ZM53.3365 28.0153C57.342 18.8276 67.2802 1.76464 74.9883 7.01512C84.6233 13.5782 89.209 22.6142 89.1387 25.9633C89.0685 29.3125 83.9355 35.7727 56.3429 32.9297L53.3365 28.0153Z" fill="#FDF219"/>
<path fill-rule="evenodd" clip-rule="evenodd" d="M49.3467 28.1028C42.5305 18.3755 27.0743 0.916838 19.7796 8.90082C10.6612 18.8808 7.54755 29.3665 8.75142 34.3985C9.9553 39.4305 17.066 44.5591 47.2293 34.5549L49.3467 28.1028ZM45.6949 27.8583C40.3442 20.3865 28.1872 6.99299 22.3645 13.1934C15.086 20.944 12.7754 29.9386 13.4912 32.9307C14.207 35.9227 20.027 40.7291 43.9831 32.8492L45.6949 27.8583Z" fill="#FDF219"/>
<path d="M22.0567 77.0881C24.3438 54.7043 39.4856 41.3253 45.6235 36.9831L50.5925 38.4726C42.2633 45.563 37.4599 67.8502 35.8873 80.0367L33.8973 83.2871L30.1884 72.1323L26.0697 76.1233L22.0567 77.0881Z" fill="#235CB1"/>
<path d="M81.8236 70.5452C75.4249 49.101 60.329 39.3477 54.3823 36.3118L50.5762 38.7498C58.8872 44.0413 66.8657 64.2484 70.9121 75.7906L73.8672 78.3703L73.8672 62.4263L78.26 68.61L81.8236 70.5452Z" fill="#235CB1"/>
<path d="M22.482 76.1211C24.7691 53.7374 37.6167 39.4569 43.7547 35.1147L48.7237 36.6042C40.3944 43.6946 35.167 69.8402 33.5944 82.0267L28.3195 70.2639L22.482 76.1211Z" fill="#FDF219"/>
<path fill-rule="evenodd" clip-rule="evenodd" d="M43.692 34.729L49.4418 36.4525L48.9512 36.8701C46.927 38.5933 45.0643 41.5017 43.3853 45.1254C41.7098 48.7415 40.2322 53.0364 38.9627 57.4993C36.4239 66.425 34.727 75.9904 33.9424 82.0706L33.7833 83.3028L28.2085 70.8712L22.0333 77.0673L22.1337 76.0846C24.4323 53.588 37.3425 39.2209 43.5526 34.8276L43.692 34.729ZM43.8188 35.4988C37.7911 39.8397 25.467 53.6301 22.9398 75.1647L28.4312 69.6547L33.4107 80.7588C34.258 74.6406 35.9024 65.6965 38.2885 57.3076C39.5637 52.8245 41.0529 48.4918 42.7493 44.8307C44.317 41.4472 46.0746 38.6082 48.0258 36.7598L43.8188 35.4988Z" fill="#FDF219"/>
<path d="M82.0901 70.3558C75.6913 48.9116 62.1982 37.4789 56.2514 34.4431L52.4453 36.8811C60.7564 42.1725 70.3426 66.716 74.0969 78.3264L75.3478 61.8182L82.0901 70.3558Z" fill="#FDF219"/>
<path fill-rule="evenodd" clip-rule="evenodd" d="M56.2312 34.0391L51.7936 36.8816L52.2566 37.1764C54.2698 38.4581 56.394 40.9326 58.5135 44.149C60.6273 47.3568 62.7141 51.2676 64.6626 55.3838C68.5594 63.6156 71.8892 72.6394 73.7629 78.4338L74.4459 78.3525L75.6289 62.74L81.8145 70.5726L82.4254 70.2552C75.9995 48.7198 62.4429 37.2102 56.4103 34.1305L56.2312 34.0391ZM56.2695 34.8471C62.0487 37.8847 74.6898 48.6693 81.1916 68.6528L75.0656 60.8958L73.8795 76.549C71.9352 70.7574 68.852 62.5953 65.2962 55.0838C63.34 50.9514 61.2373 47.0085 59.0988 43.7633C57.1151 40.7528 55.0811 38.3123 53.0826 36.8884L56.2695 34.8471Z" fill="#FDF219"/>
<path d="M57.2788 32.9785C57.279 32.9844 57.279 32.9904 57.279 32.9966C57.2831 33.2986 57.351 37.3343 58.074 40.5544C58.8255 43.9016 61.3597 49.2715 61.3597 49.2715C61.3597 49.2715 59.0946 44.993 57.6097 42.9544C56.1249 40.9159 53.5156 38.2803 53.5156 38.2803C55.4129 36.4821 57.2732 33.7546 57.279 32.9966C57.2788 32.9846 57.2788 32.9785 57.2788 32.9785Z" fill="#E8DE05"/>
<path d="M41.6574 35.6223C41.6574 35.6223 46.9988 36.3525 45.836 40.7143C45.836 40.7143 44.3829 43.0677 43.0004 46.1881C41.6179 49.3086 39.7219 55.2335 39.7219 55.2335C39.7219 55.2335 41.6302 47.9733 42.1314 43.7787C42.6326 39.584 41.6574 35.6223 41.6574 35.6223Z" fill="#E8DE05"/>
<path d="M61.4963 38.5124L65.0777 40.5428C65.0777 40.5428 65.3258 40.675 63.4114 38.9898C61.4971 37.3046 59.7971 36.0999 59.7971 36.0999L57.1619 35.918L61.4963 38.5124Z" fill="#E8DE05"/>
<path d="M38.732 38.8609C38.1976 39.3634 35.3029 42.8195 35.3029 42.8195C35.3029 42.8195 38.3194 40.2941 39.0728 39.7028C39.8262 39.1116 43.8537 36.9547 43.8537 36.9547L42.1 36.1951L41.3583 36.3949C41.3583 36.3949 39.2663 38.3583 38.732 38.8609Z" fill="#E8DE05"/>
<path d="M50.429 26.8502L51.2583 25.0967C51.2583 25.0967 51.2292 25.5317 52.5594 26.1136C53.8897 26.6955 54.0731 26.3399 54.0731 26.3399L53.798 27.3845L50.429 26.8502Z" fill="#E8DE05"/>
<path d="M45.9017 28.338L44.7441 26.5431C44.7441 26.5431 45.2786 26.8584 46.3341 26.3137C47.3896 25.7691 47.2707 25.2828 47.2707 25.2828L48.012 26.06L45.9017 28.338Z" fill="#E8DE05"/>
<path d="M57.2968 33.7237C57.2968 38.0816 53.764 41.6144 49.4061 41.6144C45.0482 41.6144 41.5154 38.0816 41.5154 33.7237C41.5154 29.3658 45.0482 25.833 49.4061 25.833C53.764 25.833 57.2968 29.3658 57.2968 33.7237Z" fill="#FFB428"/>
</svg>
