<svg width="69" height="66" viewBox="0 0 69 66" fill="none" xmlns="http://www.w3.org/2000/svg">
<path d="M13.7028 35.826L11.3788 19.8337L36.246 13.8936C36.4009 15.8736 37.5009 22.6666 40.6616 33.9985C43.8223 45.3303 40.894 50.2956 39.0348 51.3618C33.6121 52.9611 20.4891 56.4794 11.3788 57.7588C-0.00894642 59.3581 -0.780552 47.9795 2.08268 41.9947C3.35118 39.3433 9.75196 36.6637 13.7028 35.826Z" fill="#3D7477"/>
<path d="M38.8026 15.7213C36.9434 18.8284 17.1116 21.5852 7.42811 22.5751L4.50479 9.0903C6.44229 5.43045 26.0082 2.08589 35.5489 0.871094C37.4082 4.52653 40.6618 12.6142 38.8026 15.7213Z" fill="white"/>
<path d="M4.40698 8.63912L4.50479 9.0903M4.50479 9.0903L7.42811 22.5751C17.1116 21.5852 36.9434 18.8284 38.8026 15.7213C40.6618 12.6142 37.4082 4.52653 35.5489 0.871094C26.0082 2.08589 6.44229 5.43045 4.50479 9.0903Z" stroke="#3D7477"/>
<ellipse cx="34.9684" cy="46.8558" rx="3.21301" ry="3.15857" fill="white"/>
<ellipse cx="40.3727" cy="34.9916" rx="3.21301" ry="3.15857" fill="white"/>
<ellipse cx="17.2247" cy="48.9808" rx="3.21301" ry="3.15857" fill="white"/>
<ellipse cx="17.2247" cy="48.9808" rx="3.21301" ry="3.15857" fill="white"/>
<ellipse cx="6.23645" cy="39.0599" rx="3.21301" ry="3.15857" fill="white"/>
<ellipse cx="21.3676" cy="34.9916" rx="3.21301" ry="3.15857" fill="white"/>
<ellipse cx="33.67" cy="25.7338" rx="3.21301" ry="3.15857" fill="white"/>
<ellipse cx="6.23645" cy="55.7123" rx="3.21301" ry="3.15857" fill="white"/>
<path d="M56.5633 42.826L58.6707 26.8337L36.1205 20.8936C35.98 22.8736 34.9825 29.6666 32.1163 40.9985C29.2501 52.3303 31.9056 57.2956 33.5916 58.3618C38.509 59.9611 50.4093 63.4794 58.6707 64.7588C68.9974 66.3581 69.6972 54.9795 67.1007 48.9947C65.9504 46.3433 60.146 43.6637 56.5633 42.826Z" fill="#E42A2D"/>
<path d="M33.8023 22.7213C35.4883 25.8284 53.4723 28.5852 62.2535 29.5751L64.9045 16.0903C63.1475 12.4304 45.4046 9.08589 36.7528 7.87109C35.0668 11.5265 32.1164 19.6142 33.8023 22.7213Z" fill="white"/>
<path d="M64.9932 15.6391L64.9045 16.0903M64.9045 16.0903L62.2535 29.5751C53.4723 28.5852 35.4883 25.8284 33.8023 22.7213C32.1164 19.6142 35.0668 11.5265 36.7528 7.87109C45.4046 9.08589 63.1475 12.4305 64.9045 16.0903Z" stroke="#E42A2D"/>
<ellipse cx="2.91364" cy="3.15857" rx="2.91364" ry="3.15857" transform="matrix(-1 0 0 1 40.1929 50.6973)" fill="white"/>
<ellipse cx="2.91364" cy="3.15857" rx="2.91364" ry="3.15857" transform="matrix(-1 0 0 1 35.292 38.833)" fill="white"/>
<ellipse cx="2.91364" cy="3.15857" rx="2.91364" ry="3.15857" transform="matrix(-1 0 0 1 56.2832 52.8223)" fill="white"/>
<ellipse cx="2.91364" cy="3.15857" rx="2.91364" ry="3.15857" transform="matrix(-1 0 0 1 56.2832 52.8223)" fill="white"/>
<ellipse cx="2.91364" cy="3.15857" rx="2.91364" ry="3.15857" transform="matrix(-1 0 0 1 66.2476 42.9014)" fill="white"/>
<ellipse cx="2.91364" cy="3.15857" rx="2.91364" ry="3.15857" transform="matrix(-1 0 0 1 52.5264 38.833)" fill="white"/>
<ellipse cx="2.91364" cy="3.15857" rx="2.91364" ry="3.15857" transform="matrix(-1 0 0 1 41.3701 29.5752)" fill="white"/>
<ellipse cx="2.91364" cy="3.15857" rx="2.91364" ry="3.15857" transform="matrix(-1 0 0 1 66.2476 59.5537)" fill="white"/>
<path d="M38.1812 8.51367L35.4872 17.5021H26.769L33.8221 23.0572L31.1281 32.0456L38.1812 26.4905L45.2343 32.0456L42.5403 23.0572L49.5934 17.5021H40.8753L38.1812 8.51367Z" fill="#FFAD29"/>
</svg>
