<svg width="289" height="227" viewBox="0 0 289 227" fill="none" xmlns="http://www.w3.org/2000/svg">
<path d="M188.59 60.7089C192.9 61.4189 197.2 62.1389 201.51 62.8489C203.6 64.2289 202.98 66.5789 203.55 68.4989C201.79 69.5489 202 70.5689 203.54 71.6589C207.09 74.1889 211.64 73.9989 214.28 71.2989C215.52 70.0289 214.68 69.7589 213.63 69.4189C213.33 67.8789 213.89 66.7889 215.3 66.1189C219.26 67.2089 223.21 68.2889 227.17 69.3789C227.59 69.6189 227.88 70.0289 227.84 70.4789C227.46 74.2489 229.76 76.2189 232.68 77.7789C232.37 79.1489 232.62 79.8289 234.31 79.6089C235.98 79.3889 237.45 79.0389 238.37 77.4589C237.84 76.9089 237.13 77.5289 236.63 77.1089C236.24 75.2989 237.68 74.6689 238.77 73.8089C242.74 75.1889 246.34 77.3689 250.11 79.1789C250.54 79.4889 250.62 79.9589 250.44 80.3789C249.42 82.7389 249.94 84.9389 251.09 87.0789C250.97 89.3689 252.52 89.4489 254.15 89.3589C256.14 89.2489 257.75 88.6889 257.47 86.1789C257.58 85.7189 257.47 85.0389 258.32 85.3089C261.48 88.3589 264.31 91.6089 265.01 96.1789C265.42 98.2389 264.42 99.5789 262.76 100.589C261.92 100.579 261.6 99.9389 261.26 99.3289C260.38 96.7789 259.07 94.6189 256.47 93.4089C252.01 91.3389 247.59 92.7989 245.24 97.2189C243.17 101.119 244.66 106.269 248.51 108.559C249.46 109.129 250.86 109.249 250.93 110.799C250.64 111.629 249.99 112.139 249.26 112.519C243.87 115.359 238.45 118.129 232.68 120.139C231.99 120.379 231.29 120.589 230.57 120.209C230.27 119.889 230.17 119.499 230.18 119.069C231.32 115.269 231.11 111.689 227.87 108.969C223.52 105.299 218.73 105.979 214.65 110.689C212.25 114.789 212.73 118.759 216.05 122.229C216.72 122.929 217.67 123.519 216.9 124.719C215.34 125.969 213.39 126.129 211.57 126.539C204.62 128.089 197.67 129.719 190.52 130.169C189.4 129.279 190.3 128.369 190.54 127.499C190.9 126.189 191.37 124.909 190.79 123.549C190.33 122.359 189.82 121.209 189.01 120.209C186.68 117.359 183.15 116.679 179.99 118.469C176.96 120.179 175.65 123.789 176.85 127.109C177.13 127.879 177.51 128.599 177.75 129.389C177.93 130.129 178.17 130.869 177.66 131.589C175.63 132.889 173.27 132.479 171.09 132.639C166.79 132.949 162.5 133.479 158.18 133.439C157.19 133.429 156.2 133.459 155.25 133.109C154.16 132.589 154.28 131.659 154.57 130.789C155.63 127.539 154.78 124.759 152.6 122.279C150.14 119.919 146.32 119.429 143.37 121.099C140.1 122.959 138.61 126.289 139.49 129.819C139.62 130.349 139.75 130.879 139.99 131.369C140.15 131.929 140.41 132.509 139.75 132.939C138.56 133.499 137.33 133.339 136.1 133.139C133.97 132.529 131.79 132.939 129.63 132.799C126.29 131.939 122.8 132.619 119.47 131.759C117.84 131.709 116.22 131.639 114.59 131.839C114.29 131.849 114 131.779 113.74 131.629C113.44 131.299 113.28 130.899 113.21 130.459C113.12 129.829 113.22 129.199 113.31 128.579C113.88 124.409 111.59 121.009 107.76 120.339C103.48 119.579 99.9298 121.879 98.9298 125.999C98.6598 127.129 98.8898 128.379 98.1198 129.389C97.8698 129.549 97.5898 129.599 97.2998 129.559C91.8198 127.939 86.0798 127.579 80.5698 126.159C79.2198 125.849 77.8998 125.059 76.4498 125.819C76.0498 125.879 75.6998 125.789 75.4198 125.479C75.2098 125.119 75.1498 124.739 75.1698 124.329C75.2198 123.779 75.4098 123.269 75.5498 122.749C76.7298 118.359 75.0498 114.609 71.2298 113.109C67.3998 111.599 63.5098 113.089 61.3098 116.919C61.1698 117.159 61.0498 117.399 60.9398 117.649C60.3498 118.589 60.6898 119.839 59.9398 120.719C59.5398 120.979 59.0898 121.079 58.6498 120.949C54.2598 119.629 49.9498 118.069 45.9998 115.689C45.6898 115.499 45.5098 115.179 45.3698 114.839C45.2398 114.289 45.3598 113.759 45.5798 113.269C47.6198 108.759 46.5098 105.079 42.6498 102.119C38.5498 100.139 35.6398 100.539 32.2898 103.559C31.5598 104.219 30.9298 105.019 29.8498 105.129C26.0998 102.939 23.3498 99.9989 22.5898 95.5489C23.8798 94.8889 25.0598 95.7189 26.2598 95.9189C27.8898 96.1889 27.6398 95.1689 27.6898 94.2489C28.7198 93.5389 30.0698 93.4289 30.9798 92.4689C32.7398 90.6189 33.3398 88.4689 32.6798 86.0189C32.0198 83.6189 30.2498 82.3489 27.9698 81.6689C26.9598 81.3689 25.7698 81.6889 24.9498 80.7889C27.4998 77.7389 30.6798 75.5089 34.1598 73.6589C36.6298 73.2489 36.4498 75.5189 37.2998 76.7489C37.0698 79.1189 38.6498 79.8289 40.5298 80.3089C42.6798 80.8689 44.6498 80.6089 46.3198 79.0789C47.1398 78.3289 46.4998 77.6089 46.0698 76.9189C45.9798 76.1389 46.4698 75.5889 46.8398 74.9889C47.8798 73.3489 48.4398 71.6489 47.7398 69.6889C47.3998 68.7389 47.2498 67.7489 48.3998 67.1489C52.2098 66.0789 56.0198 65.0089 59.8198 63.9389C61.2298 65.2089 61.5998 67.0489 62.3898 68.6589C62.1398 70.7389 63.2098 71.8689 65.1198 72.1989C66.9698 72.5189 68.4598 71.9789 68.9898 69.9189C71.4498 68.0989 73.0898 65.8589 72.8698 62.5989C72.7898 61.3789 73.6398 60.8589 74.7298 60.6589C79.0298 60.1389 83.3198 59.6289 87.6198 59.1089C88.8298 60.9089 89.5798 62.9889 90.8898 64.7389C91.2598 65.8789 91.0698 67.0789 91.2798 68.2389C92.0998 71.0689 91.3698 74.0289 92.0198 76.8589C92.3598 79.6989 92.2998 82.5789 92.7498 85.4189C92.9398 86.6189 93.0898 87.7289 94.3098 88.3289C95.0398 88.7089 95.7998 89.0089 96.6198 89.1289C99.9298 89.6289 102.49 87.1689 101.95 83.8689C101.55 81.4489 101.9 78.9589 101.16 76.5689C100.53 72.5889 100.39 68.5789 100.51 64.5589C100.58 62.3689 99.1198 60.0989 100.84 57.9889C105.84 56.8789 110.95 57.1289 116.01 56.8389C117.06 58.8489 118.11 60.8589 119.52 62.6489C119.52 62.8289 119.46 63.0189 119.5 63.1789C119.95 64.7889 121.9 65.3289 124.66 64.6289C127.03 64.0189 127.79 63.0089 127.33 61.0689C127.57 59.4889 128.09 58.0289 129.14 56.7889C130.95 56.7589 132.76 56.7289 134.57 56.6989C135.32 57.3289 135.27 58.2289 135.4 59.0689C135.49 61.9489 135.38 64.8389 135.42 67.7289C135.45 72.3289 135.5 76.9389 135.38 81.5389C135.33 84.2389 135.49 86.9189 135.87 89.5889C135.93 90.8489 135.92 92.1189 135.97 93.3889C136.09 96.2189 137.33 98.0089 140.23 98.4589C141.76 98.6489 143.23 99.1989 144.8 99.0789C147.4 98.8689 148.94 97.1289 148.73 94.5389C148.56 92.5489 148.15 90.5889 147.66 88.6489C147.04 85.0689 146.52 81.4889 145.93 77.9089C145.87 75.0489 145.22 72.2389 145.23 69.3689C144.98 65.2989 143.81 61.2889 144.51 57.1689C146.8 56.0489 147.27 56.1589 147.66 58.2889C147.93 59.7389 148.59 61.0189 149.03 62.3889C149.29 65.0589 150.93 66.2189 153.92 65.8489C156.98 65.4689 158.59 63.6189 158.22 60.8789C158.24 59.6489 158.22 58.3989 159.19 57.4489C162.27 57.6989 165.35 57.9589 168.43 58.2089C169.56 59.4989 169.13 61.0789 169.24 62.5489C169.31 63.5189 169.16 64.5089 169.53 65.4489C170.09 69.9289 169.74 74.3889 169.2 78.8389C169.55 82.3489 172.49 82.0689 174.82 82.6789C175.45 82.7289 176.09 82.7589 176.72 82.7289C181.42 82.4589 183.38 80.1389 182.88 75.4589C182.81 74.8289 182.63 74.2189 182.53 73.5889C182.38 72.3389 182.32 71.0789 182.61 69.8389C182.98 68.5489 184.2 68.2389 185.18 67.6589C186.27 67.0089 187.13 66.2889 186.24 64.8889C186.53 63.2489 187.62 62.0089 188.59 60.7089Z" fill="#FF9C50"/>
<path d="M114.021 131.509C114.161 131.489 114.301 131.459 114.441 131.409C115.371 131.139 116.311 131.209 117.251 131.369C121.411 131.709 125.581 131.979 129.751 132.339C131.901 132.489 134.071 132.019 136.191 132.599C137.451 132.629 138.711 132.659 139.981 132.699C142.941 136.829 147.241 137.819 151.541 135.669C153.021 134.929 153.071 133.009 154.701 132.619C162.021 132.749 169.281 131.809 176.571 131.449C177.001 131.429 177.421 131.179 177.841 131.039C178.021 131.009 178.221 130.999 178.361 131.099C183.091 134.479 185.271 134.339 189.491 130.349C189.751 130.099 190.011 129.869 190.381 129.789C199.301 128.279 208.231 126.869 216.951 124.369C217.341 124.039 217.701 123.649 218.291 123.709C222.181 126.949 226.941 125.699 229.631 120.719C229.851 120.379 230.151 120.149 230.561 120.079C237.681 117.789 244.401 114.629 250.771 110.719C251.091 109.929 251.781 109.589 252.511 109.289C253.001 109.129 253.511 109.059 254.031 109.039C259.681 109.259 262.251 106.749 261.441 101.789C261.521 101.029 262.071 100.699 262.691 100.439C263.561 99.0692 264.861 97.9292 265.021 96.1592C265.621 99.8792 267.281 103.359 267.461 107.169C262.891 112.039 257.591 115.979 251.871 119.379C250.711 120.069 249.931 120.909 249.841 122.359C249.001 136.299 244.961 149.459 240.121 162.429C234.681 176.989 228.311 191.149 221.051 204.879C218.351 209.999 215.981 215.329 212.491 220.009C208.801 222.039 204.811 222.339 200.711 222.019C200.831 220.409 201.811 219.159 202.551 217.829C215.951 193.749 228.151 169.129 236.701 142.839C238.631 136.889 240.141 130.839 241.631 124.469C232.211 128.499 222.781 131.419 213.151 133.709C210.321 134.379 207.481 135.009 204.641 135.589C203.371 135.849 202.561 136.399 202.241 137.789C198.891 152.369 192.051 165.529 185.291 178.689C179.681 189.589 173.551 200.209 166.741 210.419C163.771 214.879 160.671 219.249 157.501 223.569C157.011 224.239 156.441 224.809 155.691 225.179C151.891 225.979 148.121 226.659 144.241 225.389C142.841 224.929 141.251 225.069 139.751 224.939C140.211 224.029 141.131 224.029 141.891 224.119C144.441 224.419 145.851 223.009 147.241 221.139C158.561 205.859 168.601 189.789 177.471 172.959C183.021 162.429 188.481 151.869 193.161 140.929C193.581 139.959 194.231 139.039 194.101 137.689C190.731 137.769 187.461 138.509 184.171 138.889C175.611 139.879 167.061 140.869 158.421 140.949C156.071 140.969 153.751 141.629 151.371 141.499C150.231 141.439 149.521 142.039 149.161 143.129C143.561 159.819 132.741 173.329 122.291 187.049C115.231 196.319 107.181 204.709 98.7113 212.679C95.9713 215.259 93.4613 218.239 89.8813 219.839C86.0013 220.829 82.4813 219.839 79.1313 217.889C82.7713 214.639 86.1313 211.069 89.8213 207.909C95.0213 203.449 99.4213 198.249 104.081 193.299C115.131 181.569 124.671 168.619 133.451 155.119C136.211 150.869 138.731 146.469 141.071 141.459C137.031 141.509 133.351 141.059 129.701 140.989C122.431 140.839 115.211 140.139 107.991 139.469C106.691 139.349 105.711 139.479 105.011 140.749C101.441 147.259 96.4713 152.719 91.5613 158.189C80.0613 170.989 67.4913 182.649 53.6413 192.889C48.1613 196.939 42.4413 200.659 36.2313 203.539C35.2413 203.999 34.2413 204.409 33.1613 204.569C29.5713 204.619 26.7313 202.779 23.9313 200.869C25.3313 199.209 27.4213 198.649 29.2213 197.679C40.9813 191.359 51.4513 183.269 61.4713 174.519C67.4313 169.319 73.2113 163.949 78.7513 158.309C84.9913 151.969 90.7513 145.199 96.9113 138.359C95.1113 137.499 93.3013 137.499 91.6013 137.199C83.9913 135.859 76.4013 134.459 68.9913 132.249C66.4813 131.509 64.9113 132.069 63.1213 134.109C56.8013 141.279 49.6413 147.569 42.2313 153.599C29.5913 163.879 16.3813 173.309 2.1313 181.259C1.8113 181.439 1.5213 181.649 1.1713 181.339C1.1313 177.439 1.9613 173.739 3.6313 170.219C4.2213 169.409 4.9513 168.749 5.8113 168.219C19.7413 159.609 32.5913 149.539 45.1413 139.069C49.0413 135.819 52.7913 132.419 56.5213 129.029C56.3913 128.099 55.6113 128.179 55.0713 127.969C50.2713 126.049 45.3513 124.399 40.8313 121.839C39.0713 120.849 37.8913 121.179 36.6013 122.649C29.5713 130.649 20.5713 135.889 11.1713 140.549C10.7013 140.779 10.2213 141.119 9.6513 140.759C9.4913 137.129 10.1013 133.659 11.9613 130.479C12.5513 129.479 13.6113 129.089 14.5313 128.549C20.1713 125.269 25.5513 121.619 30.4113 117.239C30.8813 116.809 31.3913 116.439 32.0513 116.329C32.6113 116.259 33.1613 116.369 33.6013 116.689C37.1513 119.249 40.1813 118.329 42.9313 115.359C43.3913 114.879 43.9213 114.489 44.5713 114.279C44.9813 114.209 45.3613 114.249 45.6113 114.649C50.0013 117.309 54.8313 118.929 59.6413 120.579C60.8913 121.209 60.3313 122.299 60.2313 123.199C60.0713 124.569 60.4213 125.659 61.4913 126.579C65.1113 129.699 69.5213 129.709 73.1813 126.609C73.9013 125.999 74.5513 125.089 75.7413 125.379C76.0913 125.399 76.4313 125.419 76.7813 125.439C77.8213 125.009 78.7813 125.619 79.7913 125.639C85.1113 127.039 90.5713 127.759 95.9613 128.759C96.5013 128.859 97.0213 128.979 97.4913 129.259C97.6513 129.319 97.8113 129.379 97.9813 129.429C98.8413 129.569 99.0513 130.239 99.2113 130.939C100.011 135.929 106.541 138.009 110.911 134.729C112.111 133.829 112.701 132.319 114.021 131.509Z" fill="#FCE616"/>
<path d="M89.8613 219.849C93.7113 216.269 97.6313 212.759 101.401 209.089C118.161 192.789 132.331 174.469 143.851 154.109C145.911 150.459 147.491 146.589 148.571 142.549C148.901 141.319 149.281 140.739 150.681 140.699C165.621 140.229 180.511 139.089 195.801 136.519C193.861 140.989 192.211 145.149 190.281 149.169C177.981 174.829 164.311 199.689 147.131 222.489C145.761 224.309 144.391 225.199 142.171 224.889C141.381 224.779 140.551 224.929 139.741 224.959C123.621 224.549 107.631 222.849 91.7213 220.299C91.0813 220.189 90.4713 219.999 89.8613 219.849Z" fill="#FD6E33"/>
<path d="M155.67 225.189C160.3 218.359 165.16 211.679 169.53 204.679C181.42 185.629 192.11 165.949 199.67 144.709C200.52 142.329 201.18 139.849 201.57 137.349C201.79 135.929 202.21 135.369 203.6 135.089C216.51 132.469 229.2 129.109 241.32 123.849C241.61 123.719 241.95 123.689 242.5 123.559C240.07 135.179 236.66 146.229 232.48 157.049C224.02 178.939 213.56 199.869 201.97 220.259C201.62 220.879 201.13 221.429 200.71 222.019C186.85 223.839 172.93 224.849 158.95 225.199C157.85 225.239 156.76 225.199 155.67 225.189Z" fill="#FD6E33"/>
<path d="M33.1309 204.579C41.3409 200.289 49.2909 195.579 56.5809 189.829C73.6109 176.399 89.1409 161.479 102.171 144.059C102.981 142.979 103.921 141.839 104.271 140.589C104.841 138.549 106.051 138.469 107.751 138.699C113.951 139.529 120.191 140.039 126.441 140.219C131.511 140.359 136.581 140.249 142.161 140.249C139.961 145.849 137.341 150.289 134.561 154.599C124.061 170.889 112.281 186.159 98.6909 200.029C93.1609 205.669 87.5109 211.179 81.6609 216.469C80.9109 217.149 80.1709 217.809 79.1109 217.899C63.4209 214.719 48.0209 210.529 33.1309 204.579Z" fill="#FD6E33"/>
<path d="M212.471 220.019C214.141 215.389 216.931 211.329 219.171 206.989C230.381 185.269 240.631 163.159 246.541 139.299C247.961 133.579 249.011 127.779 249.031 121.859C249.031 120.599 249.461 119.919 250.541 119.289C256.281 115.949 261.841 112.359 266.151 107.189C266.671 106.559 267.011 106.819 267.441 107.179C270.471 118.839 273.511 130.509 276.541 142.169C276.851 143.529 276.661 144.789 276.201 146.129C269.691 165.219 261.021 183.359 251.791 201.239C250.341 204.049 248.761 206.809 247.321 209.629C246.751 210.749 246.141 211.909 244.771 212.289C234.141 215.459 223.431 218.269 212.471 220.019Z" fill="#FD6E33"/>
<path d="M1.12059 181.349C3.86059 178.759 7.43059 177.519 10.5606 175.539C28.3006 164.359 44.8406 151.679 59.7206 136.879C60.5606 136.049 61.5906 135.299 62.1206 134.289C64.0706 130.569 66.7806 130.839 70.3006 131.889C79.3406 134.579 88.6706 136.069 98.3506 137.619C95.3606 141.039 92.5606 144.309 89.6906 147.499C74.3306 164.579 57.7506 180.309 38.4706 192.959C33.8506 195.989 29.1506 198.959 23.9006 200.859C17.0506 197.749 10.2506 194.519 3.90059 190.449C-0.0994053 187.889 -0.139408 187.679 0.800592 182.939C0.910592 182.419 1.01059 181.889 1.12059 181.349Z" fill="#FD6E33"/>
<path d="M9.61156 140.769C16.3116 137.139 23.1116 133.669 29.1116 128.869C32.0316 126.529 34.6916 123.939 37.1316 121.109C37.6816 120.469 38.0916 119.759 39.1116 120.309C45.1116 123.549 51.4816 125.949 58.3116 128.439C53.5916 132.569 49.2316 136.519 44.7216 140.289C32.2316 150.709 19.3916 160.669 5.51156 169.209C4.89156 169.589 4.23156 169.899 3.60156 170.239C5.59156 160.419 7.60156 150.589 9.61156 140.769Z" fill="#FD6E33"/>
<path d="M280.44 157.539C282.9 167.019 285.19 176.539 287.92 185.949C289.02 189.749 287.28 192.409 284.77 194.049C276 199.789 266.64 204.369 256.8 207.969C256.17 206.859 257 206.079 257.46 205.249C265.6 190.769 272.77 175.849 278.37 160.189C278.76 159.099 279.06 157.879 280.44 157.539Z" fill="#FD6E33"/>
<path d="M280.441 157.539C278.561 160.579 277.802 164.069 276.482 167.339C271.032 180.819 264.792 193.909 257.512 206.499C257.242 206.969 257.032 207.479 256.802 207.969C255.812 209.779 253.821 209.819 252.221 210.499C250.241 211.339 248.192 212.009 246.142 212.659C245.752 212.779 244.921 213.559 244.771 212.309C247.021 209.319 248.471 205.879 250.211 202.609C260.171 183.859 269.121 164.659 276.031 144.549C276.291 143.789 276.372 142.969 276.542 142.179C278.102 147.229 279.941 152.209 280.441 157.539Z" fill="#FCE616"/>
<path d="M32.0002 116.709C25.8802 122.149 19.3902 127.029 11.9102 130.489C13.6802 121.119 15.7102 111.809 17.9202 102.539C18.9202 102.429 19.3402 103.209 19.8002 103.839C22.6802 107.809 26.2602 111.059 30.1402 114.009C30.9602 114.779 32.2002 115.249 32.0002 116.709Z" fill="#FD6E33"/>
<path d="M177.7 19.719C174.68 20.659 171.76 20.709 169.4 18.239C167.06 15.779 167.42 12.949 168.7 10.129C169.98 7.319 171.26 4.519 172.65 1.769C173.68 -0.280998 175.39 -0.460998 176.58 1.549C179.16 5.919 181.54 10.449 182.97 15.339C183.75 18.019 181.73 19.559 177.65 19.729C178.02 16.289 175.8 13.759 174.74 10.309C173.71 11.969 173.91 13.279 173.7 14.479C173.05 18.139 173.19 18.279 176.8 19.149C177.16 19.239 177.46 19.439 177.7 19.719Z" fill="#FEC765"/>
<path d="M86.5504 28.4792C82.7004 27.2292 81.5904 25.1192 82.6804 21.2692C83.7104 17.6492 85.6004 14.3092 85.6704 10.3492C85.7104 8.08918 87.4304 7.62918 88.9704 9.33918C92.1804 12.9192 95.0504 16.7992 97.0204 21.2092C98.5604 24.6292 97.4604 26.4192 93.0904 28.3692C92.7904 25.9992 91.8904 23.8792 90.4404 21.9992C89.1904 20.3692 88.5404 20.4892 87.5404 22.2392C86.4104 24.2092 86.4304 26.3192 86.5504 28.4792Z" fill="#FEC765"/>
<path d="M134.66 81.9893C134.66 77.2493 134.66 72.5093 134.65 67.7693C135.06 66.3893 136.07 65.4693 137.06 64.5293C139.06 62.6393 140.57 60.3693 142.14 58.1493C142.74 57.3093 143.07 56.0993 144.41 56.0293C144.51 56.1693 144.65 56.2493 144.82 56.2793C145.2 56.3993 145.22 56.5493 144.85 56.7293C145.18 60.9193 145.51 65.1093 145.85 69.2993C143.3 74.1293 139.52 77.9593 135.67 81.7293C135.41 81.9793 135.03 82.0293 134.66 81.9893Z" fill="#A870F0"/>
<path d="M24.9206 80.7793C26.2706 80.8593 27.6206 80.6893 28.9506 81.1693C32.0406 82.2893 33.9006 85.0393 33.6906 88.3093C33.4706 91.6993 31.3206 93.9593 27.7206 94.6093C25.4106 95.3793 23.7706 93.8993 21.9806 92.9093C21.7706 92.7793 21.5706 92.6193 21.3806 92.4493C20.5006 91.6693 20.3106 90.5693 20.0106 89.5193C18.9106 86.2293 20.7006 83.0593 24.9206 80.7793Z" fill="#F0F6F4"/>
<path d="M62.001 68.7789C60.751 67.3989 60.191 65.7089 59.791 63.9389C60.681 62.6089 60.211 60.8589 61.581 59.5489C64.781 56.5189 68.661 56.2689 71.871 59.3189C72.691 60.0989 73.511 60.7189 74.691 60.6589C73.921 61.0989 73.281 61.4489 73.461 62.6489C74.001 66.3289 72.251 68.7989 68.991 70.3389C66.501 71.5989 64.591 71.1689 62.001 68.7789Z" fill="#F0F6F4"/>
<path d="M203.33 68.7792C202.08 66.9992 202.33 64.7592 201.51 62.8492C202.12 62.5992 202.47 62.1092 202.81 61.5492C204.8 58.2192 207.39 57.0692 210.62 58.0392C213.76 58.9792 215.24 61.2092 215.28 65.0392C215.28 65.3992 215.29 65.7592 215.3 66.1192C214.74 67.1892 214.18 68.2592 213.62 69.3292C211.28 72.8192 205.74 72.5192 203.33 68.7792Z" fill="#F0F6F4"/>
<path d="M48.3709 67.1492C48.0609 67.5992 47.7709 68.0192 48.0509 68.6292C49.5609 71.8592 48.5609 74.5592 46.2309 76.9692C44.2009 79.2292 41.7609 79.4092 38.0709 77.5792C36.6409 76.2992 36.0309 74.4092 34.7109 73.0392C35.6609 71.0492 35.3509 68.6292 37.3009 66.9392C39.9609 64.6292 43.2909 64.1992 46.1409 66.3392C46.8609 66.8592 47.5209 67.1992 48.3709 67.1492Z" fill="#F0F6F4"/>
<path d="M119.4 62.6892C117.22 61.3492 116.1 59.3992 115.98 56.8592C117.44 51.4892 120.73 49.5592 125.39 51.2692C128.01 52.2292 128.5 54.5392 129.1 56.8092C128.88 58.3692 128.42 59.8392 127.55 61.1692C125.61 64.2592 123.07 64.7292 119.4 62.6892Z" fill="#F0F6F4"/>
<path d="M134.69 59.089C134.64 58.299 134.58 57.509 134.53 56.719C134.94 51.729 134.64 46.739 134.51 41.759C134.46 39.749 134.86 38.589 137.15 38.869C137.86 38.949 138.6 38.829 139.32 38.729C142.93 38.209 142.94 38.199 143.18 41.769C143.3 43.489 143.35 45.209 143.43 46.939C141.89 51.469 138.91 55.069 135.91 58.659C135.63 58.989 135.17 59.129 134.69 59.089Z" fill="#A870F0"/>
<path d="M168.971 65.2395C167.361 64.0895 168.611 62.4995 168.371 61.1395C168.201 60.1995 168.371 59.1995 168.391 58.2295C169.341 56.0695 168.651 53.7695 168.991 51.5495C169.141 50.5895 168.771 49.5495 169.441 48.6695C170.741 51.0395 170.141 53.4295 169.911 55.5595C172.931 51.5795 176.801 47.7195 180.471 43.6895C180.811 46.5995 181.151 49.5195 181.491 52.4295C181.811 52.8995 181.771 53.4295 181.771 53.9495C179.041 58.3595 175.251 61.6895 170.981 64.5195C170.371 64.9195 169.751 65.3295 168.971 65.2395Z" fill="#AEDEFF"/>
<path d="M29.8199 114.449C25.0099 111.319 21.3299 107.069 17.9199 102.539C17.3899 98.7791 19.3199 95.3891 19.5099 91.7291C20.6299 89.9191 20.8599 92.1991 21.5999 92.1791L21.6299 92.3291L21.4999 92.4191C21.8599 93.4691 22.3999 94.4491 22.6499 95.5391C24.2299 99.2591 26.7099 102.289 29.8699 104.779C30.2199 104.949 30.5199 105.169 30.5999 105.589C30.6099 106.649 30.1699 107.539 29.5999 108.399C28.7799 109.469 29.0899 110.559 29.4599 111.699C29.7399 112.579 30.5299 113.429 29.8199 114.449Z" fill="#FCE616"/>
<path d="M180.461 43.6891C180.241 44.3591 180.281 45.1191 179.701 45.6691C176.191 49.0091 173.131 52.7691 169.441 57.0191C169.441 53.7691 169.441 51.2291 169.441 48.6791L169.461 48.5191C168.901 43.7591 171.311 40.6791 175.141 38.3491C176.711 37.3991 177.361 34.9291 179.851 35.4491C180.051 38.1891 180.261 40.9391 180.461 43.6891Z" fill="#348FFF"/>
<path d="M132.862 33.4689C129.982 31.7489 130.172 28.9689 131.022 26.4889C132.182 23.0789 133.852 19.8289 135.442 16.5789C136.192 15.0289 137.452 14.9389 138.822 15.9989C139.832 16.7689 140.252 17.8189 140.542 18.9889C141.372 22.4189 142.232 25.8389 143.072 29.2689C144.052 33.2789 142.602 35.0289 138.382 34.9689C140.042 32.3989 140.132 29.6889 139.152 26.8589C138.952 26.2689 138.832 25.5489 138.112 25.4089C137.202 25.2389 136.852 26.0089 136.592 26.6589C135.602 29.0789 134.272 31.2889 132.862 33.4689Z" fill="#FEC765"/>
<path d="M144.86 56.729C144.75 56.589 144.74 56.439 144.83 56.279C145.95 56.289 146.83 56.129 147.53 54.959C149.11 52.309 152.14 50.989 154.96 51.979C157.35 52.819 158.98 54.699 159.16 57.469C159.33 58.749 158.88 59.909 158.43 61.069C156.35 64.929 152.58 65.569 148.88 62.699C147.8 61.439 146.77 60.039 146.9 58.339C147.02 56.529 145.96 56.719 144.86 56.729Z" fill="#F0F6F4"/>
<path d="M232.74 78.069C227.93 76.529 227.21 75.409 227.17 69.379C228.79 67.889 230.19 66.259 232.71 65.989C236.55 65.569 240.34 69.479 238.77 73.819C238.47 75.169 237.33 75.929 236.6 76.989C235.61 78.389 234.37 78.929 232.74 78.069Z" fill="#F0F5F4"/>
<path d="M90.7101 68.1893C90.5101 66.8393 90.32 65.4893 90.12 64.1493C89.22 61.9193 88.79 59.6293 89.3 57.2293C92.4 53.2193 95.3301 49.0693 98.6601 45.2393C99.3601 48.8493 100.02 52.4693 100.27 56.1393C98.0601 60.1893 94.8801 63.5393 92.3101 67.3393C91.9601 67.8593 91.4101 68.2293 90.7101 68.1893Z" fill="#08A0F7"/>
<path d="M90.7101 68.1894C93.2901 64.8194 95.8801 61.4694 98.4201 58.0694C98.9701 57.3394 99.4501 56.5794 100.28 56.1494C100.46 56.7694 100.64 57.3894 100.81 58.0094C100.9 60.1594 100.99 62.3094 101.08 64.4594C98.9401 69.4894 95.3701 73.4194 91.3701 77.0194C90.7701 74.0994 90.6801 71.1494 90.7101 68.1894Z" fill="#1261FB"/>
<path d="M179.851 35.4394C176.711 37.9894 173.541 40.4994 170.451 43.0994C169.691 43.7394 170.101 44.8194 169.991 45.6994C169.871 46.6494 170.371 47.7194 169.471 48.5094C169.221 42.5094 169.421 36.5394 170.501 30.6294C171.461 31.6594 171.411 32.7494 170.631 34.1494C173.181 31.7794 175.361 29.3694 177.761 27.1794C178.771 26.2594 178.511 25.0194 178.691 23.8794C180.331 23.2894 179.741 24.6794 179.751 25.2294C179.841 28.6294 179.831 32.0394 179.851 35.4394Z" fill="#AEDEFF"/>
<path d="M134.69 59.0889C138.33 55.5589 140.48 50.9389 143.44 46.9189C143.99 49.9289 144.43 52.9489 144.42 56.0189C141.44 60.1589 138.89 64.6589 134.66 67.7589C134.67 64.8789 134.68 61.9889 134.69 59.0889Z" fill="#924BEF"/>
<path d="M98.6599 45.2393C96.3799 49.6193 93.4399 53.4893 89.7599 56.7993C88.1999 54.9693 89.3599 52.7993 89.0099 50.8293C88.9099 49.2193 89.4499 47.8693 90.5099 46.6393C92.0999 44.7993 93.4699 42.7793 95.1399 41.0093C95.8599 40.2493 96.5099 39.2793 97.7799 39.3493C98.2099 41.2893 98.6599 43.2393 98.6599 45.2393Z" fill="#1262FC"/>
<path d="M258.31 85.2993C258.09 85.5793 257.88 85.8493 257.66 86.1293C255.35 88.6093 253.22 88.9493 250.79 87.2393C248.04 84.7693 249.13 81.9693 250.11 79.1793C250.38 79.1593 250.66 79.1693 250.92 79.1093C256.73 77.8093 258.52 79.3093 258.31 85.2993Z" fill="#F0F5F3"/>
<path d="M181.37 54.0989C181.41 53.5389 181.45 52.9789 181.48 52.4189C182.03 52.8189 182.43 53.3289 183.19 53.5589C187.17 54.7889 188.43 56.5389 188.58 60.7089C188.37 62.3889 187.55 63.7589 186.37 64.9389C185.45 66.1089 184.31 66.6889 182.8 66.3089C182.04 65.8489 181.9 65.079 181.79 64.299C181.78 61.759 181.18 59.2789 181.07 56.7389C181.05 55.8389 180.9 54.9389 181.37 54.0989Z" fill="#EFF5F4"/>
<path d="M97.7912 39.3492C94.4412 42.6092 91.3512 46.0592 89.1812 50.2492C88.9612 50.3992 88.8412 50.3492 88.8112 50.0792C88.7712 47.2392 88.7412 44.3892 88.7012 41.5492C91.2012 38.9092 93.3412 35.8392 96.9012 34.4092C97.5712 35.9892 97.5412 37.6992 97.7912 39.3492Z" fill="#08A0F7"/>
<path d="M132.861 33.4685C133.301 30.1585 135.631 27.7085 136.931 24.7785C137.411 23.6885 138.551 24.1885 139.191 24.9285C141.291 27.3485 140.801 32.9685 138.371 34.9585C136.351 35.1585 134.421 34.9985 132.861 33.4685Z" fill="#FEB165"/>
<path d="M86.5503 28.4788C84.3403 25.4588 86.7904 23.0188 87.6404 20.4188C88.0004 19.3188 88.9603 19.7988 89.7003 20.1888C91.7803 21.2788 93.7303 25.9788 93.1003 28.3588C90.9603 30.9288 88.7603 30.1788 86.5503 28.4788Z" fill="#FEB165"/>
<path d="M178.68 23.8789C179.75 25.3989 179.41 26.5389 178.07 27.8589C175.76 30.1389 173.69 32.6689 171.51 35.0889C171.23 34.8989 170.95 34.7089 170.66 34.5189C170.6 33.2189 170.54 31.9289 170.48 30.6289C170.64 28.8289 170.29 26.7689 171.07 25.2989C172.03 23.4989 174.37 25.0589 176.02 24.4489C176.88 24.1489 177.8 24.0589 178.68 23.8789Z" fill="#348FFF"/>
<path d="M96.9008 34.4087C94.0608 36.6687 91.8508 39.6387 88.7008 41.5487C88.6808 41.1787 88.6508 40.8187 88.6308 40.4487C88.1408 35.2987 88.6808 34.2487 92.5308 32.8487C93.1308 32.6887 93.7708 32.5887 94.3408 32.3387C96.5608 31.3687 97.2408 32.2487 96.9008 34.4087Z" fill="#1463FC"/>
<path d="M88.8099 50.0791C88.9299 50.1491 89.0499 50.2091 89.1799 50.2491C89.1899 52.4491 89.1499 54.6491 89.7699 56.7991C89.8899 59.2491 89.9999 61.6991 90.1199 64.1491C88.3799 62.9191 87.5799 61.2191 87.5899 59.1091C88.8799 56.2191 88.7199 53.1291 88.8099 50.0791Z" fill="#E9EEEE"/>
<path d="M92.5307 32.8389C89.8007 34.6389 88.0807 36.9589 88.6307 40.4489C88.5107 39.3989 88.3307 38.3489 88.2807 37.2889C88.0307 32.7689 88.0407 32.7689 92.5307 32.8389Z" fill="#18A4F8"/>
<path d="M34.7309 73.0293C36.5309 73.7393 36.5509 75.9593 38.0109 76.9493C37.6509 77.2393 37.2809 77.2993 36.9209 76.9493C35.8309 75.9893 35.8609 74.0693 34.1309 73.6393C34.3309 73.4393 34.5309 73.2393 34.7309 73.0293Z" fill="#F6964B"/>
<path d="M21.5996 92.1888C20.7896 92.5788 20.4396 90.8288 19.5096 91.7388C19.3096 90.9188 19.6396 90.2088 20.0096 89.5088C20.8696 90.1988 21.0996 91.2788 21.5996 92.1888Z" fill="#F3F1B3"/>
<path d="M60.3701 117.389C62.6801 112.409 67.3801 110.419 71.8901 112.509C76.4201 114.599 77.9301 119.549 75.5501 124.439C71.5201 129.779 63.1701 128.849 60.4601 122.679C59.7201 121.019 59.9501 119.159 60.3701 117.389Z" fill="#F0F6F5"/>
<path d="M98.5897 130.989C98.3697 130.479 98.1497 129.959 97.9297 129.449C97.9797 123.189 100.81 119.559 105.78 119.359C111.24 119.139 115.06 123.589 113.94 128.849C113.83 129.379 113.85 129.929 113.81 130.479C110.63 135.599 107.64 136.419 102.34 133.609C100.99 132.879 99.7297 132.019 98.5897 130.989Z" fill="#F0F6F4"/>
<path d="M177.121 129.359C175.061 126.209 175.031 123.029 177.211 119.979C179.051 117.409 181.721 116.319 184.831 116.889C188.401 117.539 190.551 119.799 191.301 123.359C191.811 127.109 190.441 129.749 187.211 131.259C182.771 133.329 180.131 132.829 177.121 129.359Z" fill="#F0F6F4"/>
<path d="M181.37 54.0986C181.99 57.5086 182.5 60.9186 182.5 64.3986C179.63 68.9386 175.66 72.5486 172.1 76.4986C171.08 77.6286 170.47 79.3986 168.57 79.5686C168.7 74.7986 168.83 70.0286 168.97 65.2486C173.69 62.1786 177.73 58.3586 181.37 54.0986Z" fill="#348FFF"/>
<path d="M139.97 99.1495C135.41 97.6995 135.52 99.1495 135.16 90.2695C138.58 86.2295 142.29 82.4395 145.6 78.3095C145.83 78.0195 146.17 77.8895 146.55 78.0995C147.16 81.7395 147.77 85.3695 148.37 89.0095C146.44 93.1095 143.56 96.4195 139.97 99.1495Z" fill="#A870F0"/>
<path d="M91.3613 77.0092C93.0713 73.7992 96.2213 71.7192 98.0313 68.5692C98.8713 67.0992 100.051 65.8192 101.071 64.4492C101.321 68.6092 101.581 72.7592 101.831 76.9192C99.7213 81.2492 97.6513 85.5992 94.1413 89.0392C92.9713 88.8792 92.0913 88.4792 92.0213 87.0592C91.8413 83.7092 91.5913 80.3592 91.3613 77.0092Z" fill="#07A0F7"/>
<path d="M168.57 79.5594C173.22 74.5094 177.86 69.4494 182.51 64.3994C182.69 65.0094 182.87 65.6094 183.05 66.2194C184.07 67.2094 183.68 68.2694 183.19 69.3294C183.17 70.7494 183.15 72.1794 183.12 73.5994C180.79 77.2894 178.48 81.0094 174.46 83.1694C171.89 82.9594 169.12 83.0694 168.57 79.5594Z" fill="#AEDEFF"/>
<path d="M146.561 78.0991C142.901 82.2791 139.781 86.9691 135.171 90.2691C134.741 87.5191 134.391 84.7691 134.661 81.9791C138.841 78.1391 142.081 73.4791 145.861 69.2891C146.031 72.2291 146.761 75.1291 146.561 78.0991Z" fill="#924BEF"/>
<path d="M94.1406 89.0389C96.7406 85.0189 98.8106 80.6689 101.831 76.9189C102.631 79.9889 102.571 83.1589 102.861 86.2789C103.011 87.8989 99.4106 90.1889 97.1306 90.0289C96.0706 89.9489 95.0006 89.7889 94.1406 89.0389Z" fill="#1361FA"/>
<path d="M139.971 99.1488C142.771 95.7688 145.571 92.3888 148.371 89.0088C148.691 90.7788 149.031 92.5388 149.341 94.3088C149.841 97.2488 148.021 99.5788 145.051 99.8588C143.301 100.029 141.661 99.4188 139.971 99.1488Z" fill="#924BEF"/>
<path d="M154.691 132.609C153.041 138.729 144.011 138.399 140.701 135.209C139.941 134.479 140.061 133.579 139.981 132.689C139.821 132.299 139.661 131.899 139.501 131.509C139.151 131.179 139.191 130.789 139.351 130.389C141.611 131.409 143.501 133.139 145.981 133.779C150.031 134.819 153.861 132.489 154.281 128.599C154.461 126.899 153.951 125.379 152.981 123.989C152.481 123.279 151.651 122.679 151.981 121.609C152.391 121.369 152.751 121.399 153.061 121.769C156.231 124.979 156.291 128.669 154.691 132.609Z" fill="#D8CE79"/>
<path d="M203.33 68.7791C206.63 71.3591 210.03 72.0591 213.62 69.3291C214.48 69.4591 215.45 68.1891 216.1 69.1991C216.82 70.3191 215.54 70.9291 214.91 71.6091C210.91 75.9691 204.99 74.2091 201.96 71.0991C201.39 70.5091 200.82 69.7791 201.21 68.9191C201.76 67.7291 202.63 69.0291 203.33 68.7791Z" fill="#EE8636"/>
<path d="M60.3707 117.389C60.3307 122.869 62.8407 126.089 68.1507 127.289C71.2407 127.989 73.4807 126.409 75.5507 124.439C75.6007 124.769 75.6507 125.089 75.6907 125.409C75.0607 125.929 74.4207 126.419 73.8107 126.959C69.6207 130.699 64.8307 130.679 60.5807 126.889C59.4707 125.899 58.9607 124.659 59.3807 123.229C59.6407 122.339 59.9307 121.509 59.6007 120.599C59.9907 119.569 59.3307 118.269 60.3707 117.389Z" fill="#D8CE7A"/>
<path d="M98.5915 130.989C99.3315 130.949 99.9715 131.129 100.611 131.579C106.641 135.799 107.631 135.729 113.121 130.899C113.321 130.729 113.581 130.619 113.811 130.479C113.881 130.819 113.951 131.169 114.021 131.509C113.231 134.579 110.971 136.349 108.131 136.839C104.861 137.409 101.611 136.879 99.2015 134.089C98.4015 133.149 98.4915 132.079 98.5915 130.989Z" fill="#D8CD7A"/>
<path d="M174.461 83.1686C177.711 80.3086 180.051 76.6286 183.121 73.5986C184.591 81.0586 181.471 84.5086 174.461 83.1686Z" fill="#348FFF"/>
<path d="M36.9204 76.959C37.2804 76.959 37.6504 76.959 38.0104 76.959C40.7504 78.409 43.4904 78.589 46.2404 76.969C47.5704 76.929 48.1504 77.409 47.4704 78.759C46.4204 80.849 44.3904 81.229 42.4504 81.269C40.2004 81.309 37.9804 80.699 36.5304 78.729C36.1104 78.159 36.6704 77.529 36.9204 76.959Z" fill="#EE8636"/>
<path d="M177.121 129.359C181.811 132.549 184.391 132.519 188.741 129.599C191.091 128.019 190.981 125.649 191.301 123.359C192.651 125.739 190.931 127.679 190.351 129.769C187.821 135.129 181.161 135.799 177.821 131.019C177.591 130.479 177.361 129.919 177.121 129.359Z" fill="#D8CD7A"/>
<path d="M148.87 62.6886C152.42 64.2686 155.67 64.1486 158.42 61.0586C160.29 62.2086 159.07 63.3986 158.3 64.3386C156.2 66.8886 151.99 67.3486 149.27 65.4886C148.11 64.6986 147.68 63.8186 148.87 62.6886Z" fill="#EE8636"/>
<path d="M252.361 109.829C251.821 110.129 251.291 110.419 250.751 110.719C249.131 109.199 246.751 108.789 245.411 106.759C243.241 103.489 242.921 99.5595 244.901 96.2895C246.811 93.1495 250.591 91.2295 253.811 91.7595C258.021 92.4595 260.771 95.0695 261.721 99.2695C261.611 99.3395 261.491 99.4195 261.381 99.4895C261.111 99.4595 260.871 99.3495 260.681 99.1495C258.931 95.8995 256.791 93.2795 252.561 93.4495C248.871 93.5995 246.151 95.6995 245.181 99.4595C244.391 102.539 246.231 106.319 249.221 107.909C250.291 108.469 251.731 108.499 252.361 109.829Z" fill="#F69347"/>
<path d="M119.401 62.6892C122.251 62.8892 125.241 63.8292 127.551 61.1692C128.761 61.0992 129.241 61.4192 128.601 62.7092C127.331 65.2392 121.541 66.7592 119.211 65.0892C118.021 64.2292 118.001 63.3792 119.401 62.6892Z" fill="#EE8636"/>
<path d="M214.16 110.189C216.79 106.849 220.02 105.189 224.37 106.359C228.52 107.479 230.74 110.239 231.5 114.359C231.81 116.049 231.32 117.559 230.62 119.049C230.24 118.789 230.06 118.409 229.96 117.989C229.81 117.189 229.86 116.369 229.85 115.549C229.82 112.259 228.47 109.699 225.41 108.389C222.38 107.099 219.4 107.289 216.76 109.529C216.02 110.159 215.37 110.999 214.22 110.889C213.94 110.679 213.92 110.439 214.16 110.189Z" fill="#F69143"/>
<path d="M232.74 78.0691C234.02 77.7091 235.31 77.3491 236.59 76.9791C237.07 76.7591 237.59 76.5891 238.03 76.2991C238.57 75.9491 239.03 75.8991 239.45 76.4091C239.9 76.9591 239.54 77.3791 239.22 77.8391C237.82 79.8491 233.93 81.0291 231.64 80.1191C231.21 79.9491 230.71 79.7091 230.82 79.1991C231.03 78.1791 232.36 78.9091 232.74 78.0691Z" fill="#EE8636"/>
<path d="M250.781 87.2389C253.301 88.2789 255.471 87.1989 257.651 86.1289C258.971 87.2389 258.361 88.2589 257.361 89.0489C255.461 90.5489 253.281 90.3189 251.171 89.6589C249.711 89.1989 250.321 88.1489 250.781 87.2389Z" fill="#EE8636"/>
<path d="M62.0004 68.7793C64.2604 69.6393 66.4504 70.7693 69.0004 70.3393C69.2504 71.9793 68.9304 72.3493 66.8304 72.8993C65.0904 73.3593 63.6904 72.7093 62.3904 71.6193C61.3704 70.7793 61.3104 69.8393 62.0004 68.7793Z" fill="#EE8636"/>
<path d="M22.6514 95.5487C21.6214 94.7487 20.5914 93.9487 21.5014 92.4287C23.7814 92.5687 25.4714 94.3887 27.7214 94.6087C28.1114 95.1387 29.3714 94.8187 29.1314 95.8987C28.9114 96.8687 27.9914 96.5287 27.3214 96.5987C25.6514 96.7787 24.1714 96.0787 22.6514 95.5487Z" fill="#EE8636"/>
<path d="M97.4506 129.289C91.3606 128.709 85.3706 127.639 79.4706 126.049C79.3506 125.559 79.4506 125.279 80.0306 125.499C85.4406 126.429 90.8506 127.349 96.2506 128.289C96.8206 128.379 97.2006 128.769 97.4506 129.289Z" fill="#FF9C50"/>
<path d="M139.55 130.399C139.53 130.769 139.51 131.139 139.49 131.499C137.56 127.299 138.7 123.189 142.48 120.719C145.82 118.529 150.47 118.979 153.06 121.749C152.75 121.719 152.43 121.699 152.12 121.669C151.49 122.129 150.92 121.709 150.35 121.519C144.75 119.679 140.67 122.319 140.17 128.129C140.1 128.929 140.19 129.759 139.55 130.399Z" fill="#F69448"/>
<path d="M45.5601 114.679C45.2701 114.649 44.9901 114.619 44.7001 114.589C44.1001 113.889 44.5701 113.219 44.8101 112.579C46.1501 109.009 45.6801 105.859 42.7701 103.219C42.2601 102.749 41.5901 102.319 41.7401 101.449C42.1401 101.229 42.5401 101.189 42.9101 101.509C47.7801 105.279 48.5201 108.989 45.5601 114.679Z" fill="#F59244"/>
<path d="M183.191 69.3195C183.141 68.2795 183.101 67.2494 183.051 66.2094C184.161 65.7894 185.281 65.3595 186.391 64.9395C188.511 65.3195 187.801 66.5194 186.871 67.2794C185.801 68.1494 184.431 68.6595 183.191 69.3195Z" fill="#EE8636"/>
<path d="M214.162 110.189C214.192 110.429 214.222 110.679 214.252 110.919C214.682 111.499 214.522 112.129 214.332 112.719C213.002 116.739 214.292 119.889 217.522 122.419C217.802 122.639 218.022 122.929 218.202 123.239C218.302 123.519 218.252 123.779 218.062 123.999C217.692 124.119 217.312 124.239 216.942 124.369C216.932 123.609 216.282 123.379 215.822 122.979C211.972 119.609 211.322 114.469 214.162 110.189Z" fill="#F69539"/>
<path d="M42.9211 101.509C42.5211 101.529 42.1211 101.539 41.7211 101.559C41.5911 101.689 41.4211 101.869 41.2711 101.839C37.1211 101.019 33.8811 102.659 31.1211 105.599C30.8311 105.639 30.5811 105.569 30.3511 105.399C30.1911 105.199 30.0311 104.999 29.8711 104.799C32.0411 103.129 33.6711 100.719 36.7811 100.339C39.0211 100.059 41.0311 100.299 42.9211 101.509Z" fill="#F68C3A"/>
<path d="M129.65 132.529C125.41 132.519 121.2 132.259 117.01 131.569C117.63 130.869 118.63 131.609 119.27 130.969C122.67 131.879 126.24 131.139 129.64 132.059C129.82 132.159 129.88 132.269 129.82 132.369C129.76 132.469 129.71 132.529 129.65 132.529Z" fill="#FF9C50"/>
<path d="M129.65 132.529C129.65 132.369 129.65 132.219 129.65 132.059C131.82 132.329 134.09 131.469 136.19 132.599C134.01 132.569 131.83 132.549 129.65 132.529Z" fill="#FF9C50"/>
<path d="M80.0208 125.489C79.8308 125.669 79.6508 125.859 79.4608 126.039C78.5508 125.849 77.6408 125.659 76.7308 125.459C76.6708 125.159 76.4708 124.509 76.7508 124.619C77.8208 125.079 79.1208 124.569 80.0208 125.489Z" fill="#FF9C50"/>
<path d="M119.271 130.969C118.681 131.779 117.761 131.369 117.011 131.559C116.151 131.509 115.301 131.459 114.441 131.399C115.981 130.479 117.671 131.179 119.271 130.969Z" fill="#FF9C50"/>
<path d="M230.53 117.829C230.56 118.229 230.59 118.639 230.61 119.039C230.59 119.379 230.56 119.719 230.54 120.069C230.34 120.249 230.13 120.419 229.93 120.599C229.41 120.669 229.24 120.339 229.15 119.919C229.32 119.029 229.22 117.959 230.53 117.829Z" fill="#F6A84F"/>
<path d="M262.671 100.449C262.361 100.829 262.051 101.199 261.731 101.579C261.001 100.909 261.001 100.189 261.551 99.4186L261.721 99.2686C262.041 99.6586 262.351 100.049 262.671 100.449Z" fill="#F69347"/>
<path d="M252.36 109.829C251.67 109.599 250.99 109.369 250.3 109.139C246.46 107.839 243.97 104.189 244.32 100.369C244.66 96.6285 247.61 93.3085 251.06 92.7585C255.37 92.0685 258.86 93.9085 260.61 97.8185C260.83 98.3085 260.97 98.8485 261.14 99.3585C262.83 104.409 258.84 109.309 254.07 109.669C253.49 109.719 252.93 109.769 252.36 109.829Z" fill="#F0F6F4"/>
<path d="M30.9599 105.429C33.5299 101.319 37.1899 100.239 41.7199 101.559C46.7899 105.339 47.4599 108.279 44.6999 114.589C44.2699 114.969 43.8399 115.349 43.4099 115.719C38.7099 118.459 33.3199 116.669 30.9499 111.549C30.4599 110.489 30.0499 109.379 29.9199 108.189C30.1199 107.219 30.2899 106.229 30.9599 105.429Z" fill="#F0F6F5"/>
<path d="M30.3097 108.049C31.3897 110.289 31.9597 112.709 34.1597 114.439C37.1297 116.789 40.0197 117.479 43.4097 115.719C39.1897 119.859 38.7397 119.899 31.9897 116.709C31.2697 115.959 30.5397 115.199 29.8197 114.449C29.3597 113.209 28.8797 111.969 28.4297 110.729C28.0297 109.629 28.0297 108.629 29.2497 108.009C29.6197 107.739 29.9697 107.729 30.3097 108.049Z" fill="#D7CD7A"/>
<path d="M229.43 120.069C229.6 120.239 229.77 120.419 229.94 120.589C229.46 123.299 227.16 125.409 224.04 126.029C221.64 126.509 219.39 126.599 218.06 123.979C218.05 123.789 218.03 123.589 218.01 123.399C218.07 123.339 218.14 123.209 218.2 123.219C222.3 123.469 226.14 122.759 229.43 120.069Z" fill="#D9CE7A"/>
<path d="M254.061 109.669C258.691 107.789 261.501 104.669 261.131 99.3591C261.271 99.3391 261.411 99.3591 261.551 99.4191C261.611 100.139 261.671 100.859 261.731 101.579C263.181 103.409 262.441 105.299 261.361 106.759C260.171 108.379 258.981 110.539 256.211 109.759C255.541 109.569 254.781 109.689 254.061 109.669Z" fill="#D9CF78"/>
<path d="M177.701 19.7188C172.271 19.5988 172.031 19.2788 173.091 13.9288C173.301 12.8788 173.221 11.7688 173.331 10.6888C173.401 9.9888 173.791 9.4988 174.531 9.4188C175.201 9.3588 175.591 9.8788 175.671 10.3788C176.031 12.8588 177.571 14.8588 178.391 17.1488C178.831 18.3788 178.351 18.9888 177.661 19.7188C177.661 19.7288 177.701 19.7188 177.701 19.7188Z" fill="#FEB165"/>
<path d="M30.31 108.049C29.96 108.039 29.61 108.019 29.25 108.009C29.62 107.139 29.98 106.259 30.35 105.389C30.55 105.399 30.76 105.419 30.96 105.429C30.75 106.299 30.53 107.179 30.31 108.049Z" fill="#F7E563"/>
<path d="M139.551 130.399C138.881 126.699 139.691 123.499 142.961 121.349C146.031 119.329 149.131 119.689 152.121 121.669C153.191 123.299 154.621 124.639 154.941 126.779C155.551 130.749 153.061 134.459 148.811 134.649C145.201 134.799 141.731 133.799 139.551 130.399Z" fill="#F0F6F4"/>
<path d="M229.431 120.069C226.511 124.229 222.411 124.349 218.001 123.409C213.111 120.329 212.111 116.989 214.251 110.909C216.081 108.989 217.941 107.169 220.811 106.899C227.151 106.309 230.891 110.489 230.531 117.829C230.161 118.579 229.801 119.329 229.431 120.069Z" fill="#F0F6F5"/>
</svg>
