<svg width="197" height="257" viewBox="0 0 197 257" fill="none" xmlns="http://www.w3.org/2000/svg">
<path d="M49.4961 126.52L49.4961 0.771699" stroke="#824C49"/>
<circle cx="51.1572" cy="143.578" r="51.1279" fill="#DA0D0D"/>
<path d="M24.134 110.229C24.3278 110.835 25.0366 111.361 24.4323 112.097C24.8097 112.612 24.6108 113.201 24.6312 113.757C24.6414 114.007 24.5241 114.26 24.4323 114.647C24.9729 114.323 25.4344 114.048 25.8831 113.78C26.1585 113.913 26.4083 114.033 26.6684 114.16C26.6684 114.489 26.6684 114.826 26.6684 115.177C25.9876 116.042 24.9729 116.641 24.4629 117.699C24.5522 118.002 24.6491 118.326 24.7689 118.727C25.5007 117.995 26.1865 117.306 26.9387 116.554C27.214 116.654 27.5455 116.774 27.9177 116.906C27.9177 117.268 27.9177 117.638 27.9177 118.041C26.8673 119.091 25.7862 120.172 24.6746 121.284C24.6746 122.559 24.6746 123.862 24.6746 125.254C25.6613 124.736 26.6225 124.254 27.5633 123.732C28.1982 123.38 28.2977 122.691 28.4608 122.074C28.7464 120.998 28.9708 119.907 29.2436 118.826C29.2793 118.681 29.4374 118.566 29.5597 118.413C29.9218 118.413 30.2915 118.413 30.6663 118.413C30.934 118.9 31.1533 119.328 30.7963 119.956C30.4802 120.511 30.4368 121.223 30.2456 121.975C31.0845 121.814 31.5867 121.419 31.7831 120.649C31.9488 119.996 32.112 119.341 32.2981 118.696C32.3516 118.51 32.4842 118.347 32.5862 118.158C32.9814 118.158 33.3511 118.158 33.7157 118.158C33.8228 118.367 33.9324 118.576 34.0931 118.89C34.0956 119.157 33.5474 119.466 33.9656 119.935C34.7075 119.517 35.5107 119.16 36.1966 118.648C36.8569 118.155 37.4408 117.99 38.119 118.479C38.119 118.859 38.119 119.231 38.119 119.629C37.0099 120.267 35.9135 120.899 34.7891 121.549C35.2736 121.799 35.6943 122.018 36.0997 122.227C36.0997 122.64 36.0997 122.974 36.0997 123.334C35.8906 123.459 35.6586 123.596 35.4342 123.729C34.6438 123.477 33.8687 123.171 33.0656 122.992C32.395 122.844 31.7627 123.051 31.2221 123.676C32.2752 123.969 33.2874 124.252 34.3098 124.537C34.3098 124.958 34.3098 125.328 34.3098 125.674C34.1976 125.787 34.1058 125.878 33.9809 126.003C33.2236 126.192 32.5174 125.797 31.7831 125.644C30.7275 125.425 29.6821 125.152 28.8407 124.953C27.6449 125.664 26.6506 126.256 25.5465 126.914C26.6123 127.579 27.5812 128.183 28.5628 128.793C29.3022 129.002 29.9906 128.701 30.6944 128.522C31.2298 128.387 31.755 128.206 32.293 128.079C32.8386 127.949 33.3945 127.857 33.963 127.745C34.1925 128.115 34.3812 128.42 34.552 128.693C34.3072 129.313 33.8611 129.56 33.1879 129.629C32.5352 129.698 31.9029 129.986 31.1558 130.208C31.5561 130.468 31.857 130.662 32.1706 130.866C33.2415 130.998 34.1594 130.381 35.4266 130.279C35.4801 130.31 35.7759 130.481 36.0844 130.659C36.0844 130.97 36.0844 131.256 36.0844 131.628C35.7019 131.827 35.2812 132.046 34.7687 132.311C35.9084 132.964 37.0023 133.594 38.1726 134.264C38.0451 134.708 38.3995 135.231 37.7901 135.682C37.2623 135.896 36.7932 135.572 36.3087 135.279C35.5311 134.81 34.7458 134.356 33.9732 133.9C33.6494 134.32 33.7999 134.639 34.116 134.861C33.963 135.187 33.8458 135.435 33.7234 135.692C33.3588 135.692 32.9865 135.692 32.5429 135.692C32.3746 135.254 32.1375 134.828 32.0584 134.371C32.0023 134.045 31.8366 133.747 31.8086 133.459C31.7219 132.548 31.2247 132.097 30.2915 131.868C30.3654 132.429 30.4649 132.941 30.6485 133.436C30.7555 133.731 30.9799 134.014 30.9825 134.308C30.9876 134.688 30.8244 135.068 30.7351 135.435C30.2915 135.435 29.9218 135.435 29.4527 135.435C28.9019 133.907 28.5807 132.316 28.0554 130.514C27.0305 129.922 25.7964 129.208 24.5598 128.497C24.5114 128.54 24.4655 128.584 24.417 128.627C24.491 128.772 24.6261 128.915 24.6287 129.063C24.6465 130.21 24.6389 131.358 24.6389 132.477C25.7633 133.599 26.8724 134.708 27.9534 135.789C27.9534 136.187 27.9534 136.526 27.9534 136.906C27.6398 137.033 27.3135 137.166 26.9565 137.309C26.0463 136.694 25.493 135.69 24.4859 135.129C24.5624 135.674 24.6261 136.131 24.7 136.666C25.2992 137.255 25.9621 137.91 26.6429 138.578C26.6429 138.951 26.6429 139.32 26.6429 139.721C26.3369 139.843 26.008 139.973 25.6077 140.131C25.3222 139.846 25.0392 139.565 24.6746 139.201C24.6746 140.468 24.6746 141.602 24.6746 142.607C24.4425 143 24.2794 143.275 24.1009 143.578C23.8077 143.578 23.5221 143.578 23.1906 143.578C23.1167 143.504 22.9969 143.382 22.8311 143.219C22.8311 141.959 22.8311 140.654 22.8311 139.297C22.1937 139.252 22.0637 139.935 21.5996 140.055C21.0183 140.141 20.8449 139.652 20.516 139.346C20.7786 137.949 22.0509 137.388 22.798 136.363C22.798 136.019 22.798 135.618 22.798 135.042C21.8062 135.72 21.1993 136.595 20.3987 137.255C19.6797 137.278 19.384 136.852 19.282 136.319C20.5339 135.068 21.7271 133.874 22.8311 132.77C22.8311 131.268 22.8311 129.966 22.8311 128.619C22.0509 128.581 21.6532 129.249 21.0566 129.509C20.4803 129.759 19.9449 130.108 19.3712 130.425C18.6293 132.01 18.6012 133.869 17.7726 135.409C17.2575 135.506 16.8496 135.552 16.5232 135.116C16.281 134.04 16.8547 133.035 17.0536 131.878C16.5513 132.12 16.179 132.299 15.7838 132.49C15.4218 133.53 15.3988 134.736 14.6288 135.692C14.3407 135.692 14.0551 135.692 13.7772 135.692C13.6803 135.595 13.5911 135.506 13.456 135.371C13.456 134.963 13.456 134.507 13.456 133.902C12.2143 134.578 11.0669 135.2 9.85836 135.855C9.4912 135.424 8.95832 135.238 9.08835 134.598C9.91445 133.466 11.3729 133.252 12.4029 132.293C11.9899 132.072 11.5998 131.863 11.1791 131.636C11.1791 131.332 11.1791 131.049 11.1791 130.674C11.4035 130.527 11.7069 130.33 11.8803 130.215C13.048 130.333 13.9837 131.001 14.8812 130.891C15.2356 130.743 15.3886 130.695 15.5212 130.616C15.6614 130.534 15.7838 130.419 15.9215 130.312C15.8986 130.244 15.8935 130.142 15.8578 130.131C15.2535 129.948 14.639 129.795 14.0398 129.593C13.6676 129.468 13.3208 129.275 13.1118 129.18C12.969 129.02 12.918 128.989 12.918 128.956C12.9103 128.704 12.9154 128.449 12.9154 128.204C13.0429 128.076 13.1627 127.956 13.2979 127.821C13.6217 127.821 13.9633 127.788 14.2974 127.832C14.6084 127.872 14.9348 127.941 15.2076 128.086C15.9929 128.502 16.9057 128.443 17.7139 128.808C18.0173 128.946 18.4967 128.953 18.8944 128.632C19.3177 128.29 19.848 128.084 20.3375 127.821C20.8271 127.561 21.3166 127.306 21.9413 126.98C21.5308 126.702 21.2478 126.447 20.9163 126.302C20.3299 126.047 19.7741 125.774 19.2463 125.391C18.7338 125.022 18.0989 124.746 17.4462 125.203C16.0388 125.3 14.7869 126.174 13.331 126.037C12.8517 125.751 12.8517 125.315 12.9894 124.713C13.4279 124.535 13.9302 124.308 14.4478 124.129C14.9297 123.964 15.432 123.851 15.9495 123.706C15.126 122.872 14.9144 122.837 13.8563 123.173C13.2545 123.364 12.635 123.492 11.9644 123.665C11.7757 123.558 11.5029 123.403 11.1893 123.224C11.1893 122.906 11.1893 122.592 11.1893 122.227C11.5921 122.036 12.0103 121.84 12.459 121.626C11.4443 120.588 9.94505 120.427 9.1062 119.262C8.92772 118.66 9.481 118.461 9.76657 118.076C11.123 118.428 12.0715 119.425 13.3769 119.854C13.4024 119.433 13.4279 118.954 13.4534 118.548C13.7288 117.972 14.1928 118.171 14.6059 118.125C15.4065 119.066 15.3835 120.287 15.7889 121.32C16.1204 121.547 16.4493 121.768 16.8827 122.067C16.9312 121.758 17.0714 121.439 16.9771 121.343C16.5717 120.917 16.8037 120.33 16.5156 119.861C16.3473 119.586 16.485 119.122 16.485 118.852C16.7705 118.252 17.2371 118.431 17.6196 118.385C18.3258 118.966 18.2545 119.846 18.5094 120.585C18.8307 121.516 19.0449 122.485 19.2871 123.375C20.4752 124.058 21.5945 124.701 22.8158 125.402C22.8158 123.936 22.8158 122.63 22.8158 121.284C21.6863 120.154 20.5135 118.982 19.2794 117.748C19.3177 117.569 19.3126 117.312 19.4273 117.128C19.6262 116.812 19.8149 116.745 20.3987 116.598C21.156 117.261 21.8164 118.079 22.7852 118.867C22.8235 118.268 22.849 117.875 22.8719 117.516C22.0815 116.725 21.3319 115.975 20.5721 115.216C20.5721 114.971 20.5721 114.719 20.5721 114.448C20.8704 114.214 21.0285 113.737 21.4365 113.79C22.0815 113.844 22.1427 114.642 22.8056 114.555C22.8056 113.247 22.8056 111.944 22.8056 110.682C23.0275 110.506 23.1983 110.371 23.3666 110.239C23.6241 110.229 23.8791 110.229 24.134 110.229Z" fill="white"/>
<rect x="38.5938" y="83.3936" width="25.1189" height="12.1516" fill="#FFDD80"/>
<path d="M68.6999 151.164L67.069 151.94L66.4653 150.239L65.8615 151.94L64.2306 151.164L65.0069 152.795L63.3054 153.399L65.0069 154.003L64.2306 155.633L65.8615 154.857L66.4653 156.559L67.069 154.857L68.6999 155.633L67.9237 154.003L69.6251 153.399L67.9237 152.795L68.6999 151.164ZM68.3392 153.399L67.7825 153.595L67.3278 153.752L67.5316 154.183L67.7825 154.716L67.2493 154.465L66.8181 154.261L66.6613 154.716L66.4653 155.273L66.2692 154.716L66.1124 154.261L65.6812 154.465L65.148 154.716L65.3989 154.183L65.6028 153.752L65.148 153.595L64.5913 153.399L65.148 153.203L65.6028 153.046L65.3989 152.615L65.148 152.082L65.6812 152.333L66.1124 152.536L66.2692 152.082L66.4653 151.525L66.6613 152.082L66.8181 152.536L67.2493 152.333L67.7825 152.082L67.5316 152.615L67.3278 153.046L67.7825 153.203L68.3392 153.399ZM94.6922 151.345L92.1675 151.619L91.1404 149.29L90.1132 151.619L87.5885 151.345L88.4823 152.568H85.048L88.2471 149.369C88.5686 149.047 88.5686 148.522 88.2471 148.193C87.9256 147.871 87.4003 147.871 87.071 148.193L82.6958 152.568H80.0691L83.2682 149.369C83.5896 149.047 83.5896 148.522 83.2682 148.193C82.9467 147.871 82.4213 147.871 82.092 148.193L77.7169 152.568H72.0009L71.0914 152.246L75.3568 150.482L75.8507 152.176L76.7916 150.623L78.5558 151.054L77.6855 149.463L78.94 148.153L77.1288 148.114L76.6191 146.373L75.6782 147.926L73.9141 147.495L74.7844 149.086L74.5962 149.282L70.5503 150.96L70.9737 150.074L74.706 146.342H81.5118C81.9666 146.342 82.3429 145.974 82.3429 145.511C82.3429 145.048 81.9744 144.68 81.5118 144.68H76.3682L78.2265 142.814H85.0323C85.4871 142.814 85.8635 142.445 85.8635 141.983C85.8635 141.528 85.495 141.151 85.0323 141.151H79.8888L82.6252 138.415L82.8604 139.913L84.4521 137.929L86.8201 138.846L85.9027 136.478L87.8864 134.887L85.3773 134.495L84.9853 131.986L83.3936 133.969L81.0257 133.052L81.9431 135.42L79.9515 137.012L81.4491 137.247L79.0184 139.677V135.153C79.0184 134.698 78.6499 134.322 78.1873 134.322C77.7325 134.322 77.3562 134.691 77.3562 135.153V141.34L75.4979 143.198V138.674C75.4979 138.219 75.1294 137.843 74.6668 137.843C74.212 137.843 73.8356 138.211 73.8356 138.674V144.86L69.7976 148.898L68.9194 149.314L70.6836 145.048L72.2283 145.895L71.797 144.131L73.3495 143.19L71.6088 142.68L71.5696 140.869L70.2602 142.124L68.6685 141.253L69.0998 143.018L67.5473 143.958L69.288 144.468L69.2958 144.735L67.6179 148.773L67.2886 147.848V142.571L72.095 137.764C72.4165 137.443 72.4165 136.917 72.095 136.588C71.7735 136.267 71.2482 136.267 70.9189 136.588L67.2964 140.226V137.6L72.1028 132.793C72.4243 132.472 72.4243 131.946 72.1028 131.617C71.7813 131.296 71.256 131.296 70.9267 131.617L67.2886 135.255V131.382L68.5117 132.276L68.2373 129.751L70.566 128.724L68.2373 127.697L68.5196 125.172L66.4653 126.677L64.411 125.172L64.6854 127.697L62.3567 128.724L64.6854 129.751L64.411 132.276L65.6341 131.382V134.816L62.4351 131.617C62.1136 131.296 61.5883 131.296 61.259 131.617C60.9375 131.939 60.9375 132.464 61.259 132.793L65.6341 137.168V139.795L62.4351 136.596C62.1136 136.274 61.5883 136.274 61.259 136.596C60.9375 136.917 60.9375 137.443 61.259 137.772L65.6341 142.147V147.863L65.3127 148.773L63.5485 144.507L65.2421 144.013L63.6896 143.072L64.1209 141.308L62.5292 142.179L61.2198 140.924L61.1805 142.735L59.4399 143.245L60.9924 144.186L60.5611 145.95L62.1528 145.08L62.3488 145.268L64.0268 149.314L63.1408 148.89L59.4085 145.158V138.352C59.4085 137.898 59.04 137.521 58.5774 137.521C58.1226 137.521 57.7463 137.89 57.7463 138.352V143.496L55.8801 141.638V134.832C55.8801 134.377 55.5116 134.001 55.049 134.001C54.5942 134.001 54.2179 134.369 54.2179 134.832V139.975L51.4814 137.247L52.979 137.012L50.9953 135.42L51.9127 133.052L49.5448 133.969L47.9531 131.986L47.561 134.495L45.052 134.887L47.0357 136.478L46.1183 138.846L48.4862 137.929L50.0779 139.913L50.3132 138.415L52.7438 140.846H48.2197C47.7649 140.846 47.3885 141.214 47.3885 141.677C47.3885 142.132 47.757 142.508 48.2197 142.508H54.4061L56.2643 144.366H51.7402C51.2854 144.366 50.9091 144.735 50.9091 145.197C50.9091 145.652 51.2776 146.028 51.7402 146.028H57.9266L61.9646 150.067L62.3802 150.945L58.1148 149.18L58.9616 147.636L57.1974 148.067L56.2565 146.515L55.7469 148.255L53.9356 148.294L55.1902 149.604L54.3198 151.196L56.084 150.764L57.0249 152.317L57.5346 150.576L57.8011 150.568L61.847 152.246L60.9218 152.576H55.6449L50.8385 147.769C50.517 147.448 49.9917 147.448 49.6624 147.769C49.3409 148.091 49.3409 148.616 49.6624 148.945L53.3005 152.583H50.6738L45.8674 147.777C45.5459 147.456 45.0206 147.456 44.6913 147.777C44.3698 148.098 44.3698 148.624 44.6913 148.953L48.3294 152.591H44.4482L45.3421 151.368L42.8173 151.643L41.7902 149.314L40.763 151.643L38.2383 151.345L39.7437 153.399L38.2383 155.453L40.763 155.179L41.7902 157.507L42.8173 155.179L45.3421 155.453L44.4482 154.23H47.8825L44.6834 157.429C44.362 157.751 44.362 158.276 44.6834 158.605C44.8481 158.77 45.0598 158.848 45.2715 158.848C45.4832 158.848 45.6949 158.77 45.8596 158.605L50.2347 154.23H52.8614L49.6624 157.429C49.3409 157.751 49.3409 158.276 49.6624 158.605C49.827 158.77 50.0387 158.848 50.2504 158.848C50.4621 158.848 50.6738 158.77 50.8385 158.605L55.2137 154.23H60.9296L61.8392 154.551L57.5738 156.316L57.0798 154.622L56.1389 156.175L54.3747 155.743L55.245 157.335L53.9905 158.644L55.8017 158.684L56.3114 160.424L57.2523 158.872L59.0165 159.303L58.1461 157.711L58.3343 157.515L62.3802 155.837L61.9568 156.723L58.2246 160.456H51.4187C50.9639 160.456 50.5876 160.824 50.5876 161.287C50.5876 161.741 50.9561 162.118 51.4187 162.118H56.5623L54.704 163.984H47.8982C47.4434 163.984 47.0671 164.352 47.0671 164.815C47.0671 165.27 47.4356 165.646 47.8982 165.646H53.0418L50.3132 168.383L50.0779 166.885L48.4862 168.869L46.1183 167.951L47.0357 170.319L45.052 171.911L47.561 172.303L47.9531 174.812L49.5448 172.828L51.9127 173.746L50.9953 171.378L52.979 169.786L51.4814 169.551L53.9121 167.12V171.644C53.9121 172.099 54.2806 172.476 54.7432 172.476C55.2058 172.476 55.5744 172.107 55.5744 171.644V165.458L57.4326 163.6V168.124C57.4326 168.579 57.8011 168.955 58.2638 168.955C58.7185 168.955 59.0949 168.587 59.0949 168.124V161.938L63.1408 157.892L64.0111 157.476L62.2469 161.741L60.7023 160.895L61.1335 162.659L59.581 163.6L61.3217 164.109L61.3609 165.921L62.6703 164.666L64.262 165.536L63.8307 163.772L65.3832 162.831L63.6426 162.322L63.6347 162.055L65.3127 158.009L65.642 158.934V164.211L60.8356 169.018C60.5141 169.339 60.5141 169.865 60.8356 170.194C61.0002 170.359 61.2119 170.437 61.4236 170.437C61.6353 170.437 61.847 170.359 62.0117 170.194L65.6498 166.556V169.182L60.8434 173.989C60.5219 174.31 60.5219 174.836 60.8434 175.165C61.008 175.33 61.2197 175.408 61.4315 175.408C61.6432 175.408 61.8549 175.33 62.0195 175.165L65.6577 171.527V175.4L64.4345 174.506L64.7089 177.031L62.3802 178.058L64.7089 179.085L64.4345 181.61L66.4888 180.105L68.5431 181.61L68.2687 179.085L70.5974 178.058L68.2687 177.031L68.5431 174.506L67.3199 175.4V171.982L70.519 175.181C70.6836 175.345 70.8953 175.424 71.107 175.424C71.3187 175.424 71.5304 175.345 71.6951 175.181C72.0166 174.859 72.0166 174.334 71.6951 174.005L67.3199 169.629V167.003L70.519 170.202C70.6836 170.366 70.8953 170.445 71.107 170.445C71.3187 170.445 71.5304 170.366 71.6951 170.202C72.0166 169.88 72.0166 169.355 71.6951 169.026L67.3199 164.65V158.934L67.6414 158.025L69.4056 162.29L67.712 162.784L69.2644 163.725L68.8332 165.489L70.4249 164.619L71.7343 165.874L71.7735 164.062L73.5142 163.553L71.9617 162.612L72.3929 160.848L70.8012 161.718L70.6052 161.53L68.9273 157.484L69.8133 157.907L73.5455 161.64V168.445C73.5455 168.9 73.9141 169.277 74.3767 169.277C74.8314 169.277 75.2078 168.908 75.2078 168.445V163.302L77.0504 165.16V171.966C77.0504 172.421 77.4189 172.797 77.8815 172.797C78.3363 172.797 78.7126 172.429 78.7126 171.966V166.822L81.4491 169.559L79.9515 169.794L81.9352 171.386L81.0178 173.754L83.3858 172.836L84.9775 174.82L85.3695 172.311L87.8786 171.919L85.8948 170.327L86.8122 167.959L84.4443 168.877L82.8526 166.885L82.6174 168.383L80.1867 165.952H84.7109C85.1656 165.952 85.542 165.584 85.542 165.121C85.542 164.666 85.1735 164.29 84.7109 164.29H78.5245L76.6662 162.431H81.1903C81.6451 162.431 82.0215 162.063 82.0215 161.6C82.0215 161.138 81.6529 160.769 81.1903 160.769H75.0039L70.9659 156.731L70.5503 155.853L74.8157 157.617L73.9689 159.162L75.7331 158.731L76.674 160.283L77.1837 158.542L78.9949 158.503L77.7404 157.194L78.6107 155.602L76.8465 156.033L75.9056 154.481L75.396 156.222L75.1294 156.229L71.0914 154.551L72.0166 154.222H77.2934L82.0999 159.029C82.2645 159.193 82.4762 159.272 82.6879 159.272C82.8996 159.272 83.1113 159.193 83.276 159.029C83.5975 158.707 83.5975 158.182 83.276 157.852L79.6379 154.23H82.2645L87.071 159.036C87.2356 159.201 87.4473 159.279 87.659 159.279C87.8707 159.279 88.0824 159.201 88.2471 159.036C88.5686 158.715 88.5686 158.19 88.2471 157.86L84.6089 154.222H88.4823L87.5885 155.445L90.1132 155.171L91.1404 157.5L92.1675 155.171L94.6922 155.445L93.1947 153.399L94.6922 151.345ZM69.7427 153.893L68.6215 154.293L69.1311 155.367L69.7584 156.692L68.4333 156.065L67.3513 155.555L66.9514 156.676L66.4574 158.056L65.9635 156.676L65.5636 155.555L64.4894 156.065L63.1643 156.692L63.7915 155.367L64.3012 154.293L63.18 153.893L61.8 153.399L63.18 152.905L64.3012 152.505L63.7915 151.431L63.1643 150.106L64.4894 150.733L65.5636 151.243L65.9635 150.121L66.4574 148.741L66.9514 150.121L67.3513 151.243L68.4333 150.733L69.7584 150.106L69.1311 151.431L68.6215 152.505L69.7427 152.905L71.1227 153.399L69.7427 153.893Z" fill="white"/>
<path d="M144.158 167.157L144.158 41.4094" stroke="#824C49"/>
<circle cx="145.819" cy="204.959" r="51.1279" fill="#006C5A"/>
<path d="M118.796 171.609C118.99 172.216 119.699 172.741 119.094 173.478C119.472 173.993 119.273 174.582 119.293 175.138C119.304 175.388 119.186 175.64 119.094 176.028C119.635 175.704 120.096 175.429 120.545 175.161C120.821 175.294 121.07 175.413 121.331 175.541C121.331 175.87 121.331 176.206 121.331 176.558C120.65 177.423 119.635 178.022 119.125 179.08C119.214 179.383 119.311 179.707 119.431 180.107C120.163 179.376 120.849 178.687 121.601 177.935C121.876 178.035 122.208 178.154 122.58 178.287C122.58 178.649 122.58 179.019 122.58 179.422C121.529 180.472 120.448 181.553 119.337 182.665C119.337 183.94 119.337 185.243 119.337 186.635C120.323 186.117 121.285 185.635 122.225 185.112C122.86 184.761 122.96 184.072 123.123 183.455C123.409 182.379 123.633 181.288 123.906 180.207C123.941 180.062 124.099 179.947 124.222 179.794C124.584 179.794 124.954 179.794 125.328 179.794C125.596 180.281 125.815 180.709 125.458 181.336C125.142 181.892 125.099 182.604 124.908 183.356C125.747 183.195 126.249 182.8 126.445 182.03C126.611 181.377 126.774 180.722 126.96 180.077C127.014 179.891 127.146 179.728 127.248 179.539C127.644 179.539 128.013 179.539 128.378 179.539C128.485 179.748 128.595 179.957 128.755 180.271C128.758 180.538 128.21 180.847 128.628 181.316C129.37 180.898 130.173 180.541 130.859 180.028C131.519 179.536 132.103 179.371 132.781 179.86C132.781 180.24 132.781 180.612 132.781 181.01C131.672 181.647 130.576 182.28 129.451 182.93C129.936 183.18 130.356 183.399 130.762 183.608C130.762 184.021 130.762 184.355 130.762 184.715C130.553 184.84 130.321 184.977 130.096 185.11C129.306 184.858 128.531 184.552 127.728 184.373C127.057 184.225 126.425 184.432 125.884 185.056C126.937 185.35 127.949 185.633 128.972 185.918C128.972 186.339 128.972 186.709 128.972 187.055C128.86 187.168 128.768 187.259 128.643 187.384C127.886 187.573 127.179 187.178 126.445 187.025C125.39 186.805 124.344 186.533 123.503 186.334C122.307 187.045 121.313 187.637 120.209 188.294C121.274 188.96 122.243 189.564 123.225 190.174C123.964 190.383 124.653 190.082 125.356 189.903C125.892 189.768 126.417 189.587 126.955 189.46C127.501 189.33 128.057 189.238 128.625 189.126C128.855 189.495 129.043 189.801 129.214 190.074C128.969 190.694 128.523 190.941 127.85 191.01C127.197 191.079 126.565 191.367 125.818 191.589C126.218 191.849 126.519 192.043 126.833 192.246C127.904 192.379 128.821 191.762 130.089 191.66C130.142 191.691 130.438 191.861 130.746 192.04C130.746 192.351 130.746 192.637 130.746 193.009C130.364 193.208 129.943 193.427 129.431 193.692C130.571 194.345 131.664 194.975 132.835 195.645C132.707 196.089 133.062 196.612 132.452 197.063C131.924 197.277 131.455 196.953 130.971 196.66C130.193 196.191 129.408 195.737 128.635 195.281C128.312 195.701 128.462 196.02 128.778 196.242C128.625 196.568 128.508 196.816 128.385 197.073C128.021 197.073 127.649 197.073 127.205 197.073C127.037 196.634 126.8 196.209 126.721 195.752C126.664 195.426 126.499 195.128 126.471 194.84C126.384 193.929 125.887 193.478 124.954 193.249C125.028 193.809 125.127 194.322 125.311 194.817C125.418 195.112 125.642 195.395 125.645 195.689C125.65 196.068 125.486 196.448 125.397 196.816C124.954 196.816 124.584 196.816 124.115 196.816C123.564 195.288 123.243 193.697 122.718 191.895C121.693 191.303 120.459 190.589 119.222 189.878C119.173 189.921 119.128 189.965 119.079 190.008C119.153 190.153 119.288 190.296 119.291 190.444C119.309 191.591 119.301 192.739 119.301 193.858C120.425 194.98 121.534 196.089 122.616 197.17C122.616 197.568 122.616 197.907 122.616 198.287C122.302 198.414 121.976 198.547 121.619 198.69C120.708 198.075 120.155 197.07 119.148 196.51C119.224 197.055 119.288 197.512 119.362 198.047C119.961 198.636 120.624 199.291 121.305 199.959C121.305 200.332 121.305 200.701 121.305 201.102C120.999 201.224 120.67 201.354 120.27 201.512C119.984 201.226 119.701 200.946 119.337 200.581C119.337 201.849 119.337 202.983 119.337 203.988C119.105 204.38 118.941 204.656 118.763 204.959C118.47 204.959 118.184 204.959 117.853 204.959C117.779 204.885 117.659 204.763 117.493 204.6C117.493 203.34 117.493 202.035 117.493 200.678C116.856 200.632 116.726 201.316 116.262 201.436C115.68 201.522 115.507 201.033 115.178 200.727C115.441 199.33 116.713 198.769 117.46 197.744C117.46 197.399 117.46 196.999 117.46 196.423C116.468 197.101 115.861 197.976 115.061 198.636C114.342 198.659 114.046 198.233 113.944 197.7C115.196 196.448 116.389 195.255 117.493 194.151C117.493 192.649 117.493 191.346 117.493 190C116.713 189.962 116.315 190.63 115.719 190.89C115.142 191.14 114.607 191.489 114.033 191.805C113.291 193.391 113.263 195.25 112.435 196.79C111.92 196.887 111.512 196.933 111.185 196.497C110.943 195.421 111.517 194.416 111.716 193.259C111.213 193.501 110.841 193.679 110.446 193.871C110.084 194.911 110.061 196.117 109.291 197.073C109.003 197.073 108.717 197.073 108.439 197.073C108.342 196.976 108.253 196.887 108.118 196.752C108.118 196.344 108.118 195.887 108.118 195.283C106.876 195.959 105.729 196.581 104.52 197.236C104.153 196.805 103.62 196.619 103.75 195.979C104.577 194.847 106.035 194.633 107.065 193.674C106.652 193.452 106.262 193.243 105.841 193.016C105.841 192.713 105.841 192.43 105.841 192.055C106.066 191.907 106.369 191.711 106.542 191.596C107.71 191.714 108.646 192.382 109.543 192.272C109.898 192.124 110.051 192.076 110.183 191.997C110.324 191.915 110.446 191.8 110.584 191.693C110.561 191.624 110.556 191.522 110.52 191.512C109.916 191.329 109.301 191.176 108.702 190.974C108.33 190.849 107.983 190.655 107.774 190.561C107.631 190.401 107.58 190.37 107.58 190.337C107.572 190.084 107.578 189.829 107.578 189.585C107.705 189.457 107.825 189.337 107.96 189.202C108.284 189.202 108.625 189.169 108.959 189.212C109.271 189.253 109.597 189.322 109.87 189.467C110.655 189.883 111.568 189.824 112.376 190.189C112.679 190.327 113.159 190.334 113.557 190.013C113.98 189.671 114.51 189.465 115 189.202C115.489 188.942 115.979 188.687 116.603 188.361C116.193 188.083 115.91 187.828 115.578 187.683C114.992 187.428 114.436 187.155 113.908 186.772C113.396 186.403 112.761 186.127 112.108 186.584C110.701 186.681 109.449 187.555 107.993 187.417C107.514 187.132 107.514 186.696 107.651 186.094C108.09 185.916 108.592 185.689 109.11 185.51C109.592 185.345 110.094 185.232 110.612 185.087C109.788 184.253 109.576 184.218 108.518 184.554C107.917 184.745 107.297 184.873 106.627 185.046C106.438 184.939 106.165 184.784 105.851 184.605C105.851 184.286 105.851 183.973 105.851 183.608C106.254 183.417 106.672 183.221 107.121 183.006C106.106 181.969 104.607 181.808 103.768 180.643C103.59 180.041 104.143 179.842 104.429 179.457C105.785 179.809 106.734 180.806 108.039 181.234C108.065 180.814 108.09 180.334 108.116 179.929C108.391 179.353 108.855 179.552 109.268 179.506C110.069 180.447 110.046 181.668 110.451 182.7C110.782 182.927 111.111 183.149 111.545 183.448C111.593 183.139 111.734 182.82 111.639 182.723C111.234 182.298 111.466 181.711 111.178 181.242C111.009 180.967 111.147 180.503 111.147 180.232C111.433 179.633 111.899 179.812 112.282 179.766C112.988 180.347 112.917 181.227 113.172 181.966C113.493 182.897 113.707 183.866 113.949 184.756C115.137 185.439 116.257 186.081 117.478 186.783C117.478 185.316 117.478 184.011 117.478 182.665C116.348 181.535 115.176 180.362 113.942 179.128C113.98 178.95 113.975 178.692 114.089 178.509C114.288 178.193 114.477 178.126 115.061 177.978C115.818 178.641 116.478 179.46 117.447 180.248C117.486 179.649 117.511 179.256 117.534 178.896C116.744 178.106 115.994 177.356 115.234 176.597C115.234 176.352 115.234 176.099 115.234 175.829C115.533 175.595 115.691 175.118 116.099 175.171C116.744 175.225 116.805 176.023 117.468 175.936C117.468 174.628 117.468 173.325 117.468 172.063C117.69 171.887 117.86 171.752 118.029 171.62C118.286 171.609 118.541 171.609 118.796 171.609Z" fill="white"/>
<rect x="133.256" y="144.774" width="25.1189" height="12.1516" fill="#FFDD80"/>
<path d="M163.362 212.545L161.731 213.321L161.127 211.62L160.524 213.321L158.893 212.545L159.669 214.176L157.968 214.78L159.669 215.383L158.893 217.014L160.524 216.238L161.127 217.94L161.731 216.238L163.362 217.014L162.586 215.383L164.287 214.78L162.586 214.176L163.362 212.545ZM163.001 214.78L162.445 214.976L161.99 215.133L162.194 215.564L162.445 216.097L161.911 215.846L161.48 215.642L161.323 216.097L161.127 216.654L160.931 216.097L160.775 215.642L160.343 215.846L159.81 216.097L160.061 215.564L160.265 215.133L159.81 214.976L159.253 214.78L159.81 214.584L160.265 214.427L160.061 213.996L159.81 213.462L160.343 213.713L160.775 213.917L160.931 213.462L161.127 212.906L161.323 213.462L161.48 213.917L161.911 213.713L162.445 213.462L162.194 213.996L161.99 214.427L162.445 214.584L163.001 214.78ZM189.354 212.725L186.83 213L185.802 210.671L184.775 213L182.251 212.725L183.144 213.949H179.71L182.909 210.75C183.231 210.428 183.231 209.903 182.909 209.573C182.588 209.252 182.062 209.252 181.733 209.573L177.358 213.949H174.731L177.93 210.75C178.252 210.428 178.252 209.903 177.93 209.573C177.609 209.252 177.083 209.252 176.754 209.573L172.379 213.949H166.663L165.753 213.627L170.019 211.863L170.513 213.557L171.454 212.004L173.218 212.435L172.348 210.844L173.602 209.534L171.791 209.495L171.281 207.754L170.34 209.307L168.576 208.876L169.446 210.467L169.258 210.663L165.212 212.341L165.636 211.455L169.368 207.723H176.174C176.629 207.723 177.005 207.354 177.005 206.892C177.005 206.429 176.637 206.061 176.174 206.061H171.03L172.889 204.195H179.694C180.149 204.195 180.526 203.826 180.526 203.363C180.526 202.909 180.157 202.532 179.694 202.532H174.551L177.287 199.796L177.523 201.293L179.114 199.31L181.482 200.227L180.565 197.859L182.549 196.268L180.039 195.875L179.647 193.366L178.056 195.35L175.688 194.433L176.605 196.801L174.614 198.392L176.111 198.628L173.681 201.058V196.534C173.681 196.079 173.312 195.703 172.849 195.703C172.395 195.703 172.018 196.071 172.018 196.534V202.721L170.16 204.579V200.055C170.16 199.6 169.791 199.224 169.329 199.224C168.874 199.224 168.498 199.592 168.498 200.055V206.241L164.46 210.279L163.582 210.695L165.346 206.429L166.89 207.276L166.459 205.512L168.012 204.571L166.271 204.061L166.232 202.25L164.922 203.505L163.331 202.634L163.762 204.398L162.209 205.339L163.95 205.849L163.958 206.116L162.28 210.154L161.951 209.228V203.952L166.757 199.145C167.079 198.824 167.079 198.298 166.757 197.969C166.436 197.648 165.91 197.648 165.581 197.969L161.959 201.607V198.98L166.765 194.174C167.086 193.853 167.086 193.327 166.765 192.998C166.443 192.676 165.918 192.676 165.589 192.998L161.951 196.636V192.763L163.174 193.657L162.899 191.132L165.228 190.105L162.899 189.077L163.182 186.553L161.127 188.058L159.073 186.553L159.348 189.077L157.019 190.105L159.348 191.132L159.073 193.657L160.296 192.763V196.197L157.097 192.998C156.776 192.676 156.25 192.676 155.921 192.998C155.6 193.319 155.6 193.845 155.921 194.174L160.296 198.549V201.176L157.097 197.977C156.776 197.655 156.25 197.655 155.921 197.977C155.6 198.298 155.6 198.824 155.921 199.153L160.296 203.528V209.244L159.975 210.154L158.211 205.888L159.904 205.394L158.352 204.453L158.783 202.689L157.191 203.559L155.882 202.305L155.843 204.116L154.102 204.626L155.654 205.567L155.223 207.331L156.815 206.461L157.011 206.649L158.689 210.695L157.803 210.271L154.071 206.539V199.733C154.071 199.278 153.702 198.902 153.239 198.902C152.785 198.902 152.408 199.271 152.408 199.733V204.877L150.542 203.018V196.213C150.542 195.758 150.174 195.382 149.711 195.382C149.256 195.382 148.88 195.75 148.88 196.213V201.356L146.144 198.628L147.641 198.392L145.657 196.801L146.575 194.433L144.207 195.35L142.615 193.366L142.223 195.875L139.714 196.268L141.698 197.859L140.78 200.227L143.148 199.31L144.74 201.293L144.975 199.796L147.406 202.227H142.882C142.427 202.227 142.051 202.595 142.051 203.058C142.051 203.512 142.419 203.889 142.882 203.889H149.068L150.926 205.747H146.402C145.948 205.747 145.571 206.116 145.571 206.578C145.571 207.033 145.94 207.409 146.402 207.409H152.589L156.627 211.447L157.042 212.326L152.777 210.561L153.624 209.017L151.86 209.448L150.919 207.895L150.409 209.636L148.598 209.675L149.852 210.985L148.982 212.576L150.746 212.145L151.687 213.698L152.197 211.957L152.463 211.949L156.509 213.627L155.584 213.956H150.307L145.501 209.15C145.179 208.829 144.654 208.829 144.324 209.15C144.003 209.471 144.003 209.997 144.324 210.326L147.963 213.964H145.336L140.53 209.158C140.208 208.836 139.683 208.836 139.353 209.158C139.032 209.479 139.032 210.005 139.353 210.334L142.992 213.972H139.11L140.004 212.749L137.479 213.023L136.452 210.695L135.425 213.023L132.9 212.725L134.406 214.78L132.9 216.834L135.425 216.56L136.452 218.888L137.479 216.56L140.004 216.834L139.11 215.611H142.545L139.346 218.81C139.024 219.131 139.024 219.657 139.346 219.986C139.51 220.151 139.722 220.229 139.934 220.229C140.145 220.229 140.357 220.151 140.522 219.986L144.897 215.611H147.524L144.324 218.81C144.003 219.131 144.003 219.657 144.324 219.986C144.489 220.151 144.701 220.229 144.913 220.229C145.124 220.229 145.336 220.151 145.501 219.986L149.876 215.611H155.592L156.501 215.932L152.236 217.697L151.742 216.003L150.801 217.555L149.037 217.124L149.907 218.716L148.653 220.025L150.464 220.064L150.974 221.805L151.914 220.253L153.679 220.684L152.808 219.092L152.996 218.896L157.042 217.218L156.619 218.104L152.887 221.836H146.081C145.626 221.836 145.25 222.205 145.25 222.668C145.25 223.122 145.618 223.499 146.081 223.499H151.224L149.366 225.365H142.56C142.106 225.365 141.729 225.733 141.729 226.196C141.729 226.651 142.098 227.027 142.56 227.027H147.704L144.975 229.764L144.74 228.266L143.148 230.25L140.78 229.332L141.698 231.7L139.714 233.292L142.223 233.684L142.615 236.193L144.207 234.209L146.575 235.127L145.657 232.759L147.641 231.167L146.144 230.932L148.574 228.501V233.025C148.574 233.48 148.943 233.856 149.405 233.856C149.868 233.856 150.236 233.488 150.236 233.025V226.839L152.095 224.981V229.505C152.095 229.96 152.463 230.336 152.926 230.336C153.381 230.336 153.757 229.967 153.757 229.505V223.318L157.803 219.273L158.673 218.857L156.909 223.122L155.364 222.276L155.796 224.04L154.243 224.981L155.984 225.49L156.023 227.302L157.332 226.047L158.924 226.917L158.493 225.153L160.045 224.212L158.305 223.703L158.297 223.436L159.975 219.39L160.304 220.315V225.592L155.498 230.399C155.176 230.72 155.176 231.245 155.498 231.575C155.662 231.739 155.874 231.818 156.086 231.818C156.297 231.818 156.509 231.739 156.674 231.575L160.312 227.937V230.563L155.505 235.37C155.184 235.691 155.184 236.217 155.505 236.546C155.67 236.711 155.882 236.789 156.094 236.789C156.305 236.789 156.517 236.711 156.682 236.546L160.32 232.908V236.781L159.097 235.887L159.371 238.412L157.042 239.439L159.371 240.466L159.097 242.991L161.151 241.486L163.205 242.991L162.931 240.466L165.259 239.439L162.931 238.412L163.205 235.887L161.982 236.781V233.362L165.181 236.562C165.346 236.726 165.557 236.805 165.769 236.805C165.981 236.805 166.193 236.726 166.357 236.562C166.679 236.24 166.679 235.715 166.357 235.385L161.982 231.01V228.384L165.181 231.583C165.346 231.747 165.557 231.826 165.769 231.826C165.981 231.826 166.193 231.747 166.357 231.583C166.679 231.261 166.679 230.736 166.357 230.406L161.982 226.031V220.315L162.303 219.406L164.068 223.671L162.374 224.165L163.927 225.106L163.495 226.87L165.087 226L166.396 227.254L166.436 225.443L168.176 224.934L166.624 223.993L167.055 222.229L165.463 223.099L165.267 222.911L163.589 218.865L164.475 219.288L168.208 223.02V229.826C168.208 230.281 168.576 230.657 169.039 230.657C169.494 230.657 169.87 230.289 169.87 229.826V224.683L171.712 226.541V233.347C171.712 233.802 172.081 234.178 172.544 234.178C172.998 234.178 173.375 233.809 173.375 233.347V228.203L176.111 230.94L174.614 231.175L176.597 232.767L175.68 235.135L178.048 234.217L179.64 236.201L180.032 233.692L182.541 233.3L180.557 231.708L181.474 229.34L179.106 230.258L177.515 228.266L177.279 229.764L174.849 227.333H179.373C179.828 227.333 180.204 226.964 180.204 226.502C180.204 226.047 179.836 225.671 179.373 225.671H173.187L171.328 223.812H175.852C176.307 223.812 176.684 223.444 176.684 222.981C176.684 222.519 176.315 222.15 175.852 222.15H169.666L165.628 218.112L165.212 217.234L169.478 218.998L168.631 220.543L170.395 220.111L171.336 221.664L171.846 219.923L173.657 219.884L172.402 218.575L173.273 216.983L171.509 217.414L170.568 215.862L170.058 217.602L169.791 217.61L165.753 215.932L166.679 215.603H171.956L176.762 220.409C176.927 220.574 177.138 220.652 177.35 220.652C177.562 220.652 177.773 220.574 177.938 220.409C178.26 220.088 178.26 219.563 177.938 219.233L174.3 215.611H176.927L181.733 220.417C181.898 220.582 182.109 220.66 182.321 220.66C182.533 220.66 182.745 220.582 182.909 220.417C183.231 220.096 183.231 219.57 182.909 219.241L179.271 215.603H183.144L182.251 216.826L184.775 216.552L185.802 218.88L186.83 216.552L189.354 216.826L187.857 214.78L189.354 212.725ZM164.405 215.274L163.284 215.674L163.793 216.748L164.421 218.073L163.095 217.446L162.013 216.936L161.614 218.057L161.12 219.437L160.626 218.057L160.226 216.936L159.151 217.446L157.826 218.073L158.454 216.748L158.963 215.674L157.842 215.274L156.462 214.78L157.842 214.286L158.963 213.886L158.454 212.812L157.826 211.487L159.151 212.114L160.226 212.623L160.626 211.502L161.12 210.122L161.614 211.502L162.013 212.623L163.095 212.114L164.421 211.487L163.793 212.812L163.284 213.886L164.405 214.286L165.785 214.78L164.405 215.274Z" fill="white"/>
</svg>
