<svg width="89" height="85" viewBox="0 0 89 85" fill="none" xmlns="http://www.w3.org/2000/svg">
<path d="M20.6005 17.9931L16.7288 4.67058C15.7758 1.39113 19.7465 2.77312 22.1932 3.87405C21.7482 1.36916 23.8468 -0.34942 27.774 1.36916C36.6802 5.26654 35.588 3.10991 41.4433 1.36885C46.6806 -0.188467 51.3109 6.40614 55.6379 3.3317C59.2946 0.73353 61.3651 5.24021 65.2367 2.73493C68.3339 0.730701 70.095 1.89983 70.5885 2.73493L65.806 18.6765L20.6005 17.9931Z" fill="#FFCD4E"/>
<path d="M61.944 3.77401C62.8586 3.77414 64.5879 3.64762 64.9548 3.16833L65.0244 2.97559C65.0244 3.04542 64.9999 3.10953 64.9548 3.16833L60.8652 14.5068C61.4065 11.5446 62.3801 5.2509 61.944 3.77401Z" fill="#ECAA22"/>
<path d="M19.8694 3.00293C20.771 3.41446 21.2986 3.50623 22.3196 3.80596C21.988 5.28285 22.9127 11.3545 23.3242 14.3168L19.8694 3.00293Z" fill="#ECAA22"/>
<path d="M31.7105 2.97559C32.6121 3.38711 34.1443 3.31571 35.1653 3.61544C34.8338 5.09233 35.1648 9.59011 38.0981 12.9885C41.0313 16.3869 34.0412 8.829 33.5465 7.83957C33.0518 6.85013 31.7105 2.97559 31.7105 2.97559Z" fill="#ECAA22"/>
<path d="M55.4032 3.4873C54.788 3.89883 53.8167 4.23817 52.6909 4.23817C52.9171 5.71506 52.8028 10.2364 50.8013 13.6348C48.7999 17.0332 53.5694 9.47532 53.907 8.48589C54.2446 7.49646 55.4032 3.4873 55.4032 3.4873Z" fill="#ECAA22"/>
<path d="M5.18142 48.6224C6.32278 41.7217 16.5873 25.1814 20.5636 17.9717L65.6362 18.7277C70.3587 23.6388 78.9688 40.0334 81.1997 47.6636C66.3682 58.5717 4.19992 54.5565 5.18142 48.6224Z" fill="#FFBD53"/>
<path d="M81.0079 47.1465C78.8985 48.4994 75.3803 49.9401 71.4609 50.5689C73.6263 52.4163 78.3522 69.8781 80.6206 78.1957C95.2956 66.6758 84.55 56.4996 81.0079 47.1465Z" fill="#E77B00" stroke="#E77B00" stroke-linecap="round" stroke-linejoin="round"/>
<path d="M24.8396 52.5463C24.1254 52.4955 16.7839 51.0906 13.3406 50.3252C8.8135 57.5943 8.63102 77.0006 9.33245 79.1049C9.8936 80.7883 18.7564 82.6879 22.7524 83.1342C21.3844 73.9934 25.7323 52.6099 24.8396 52.5463Z" fill="#7204B4"/>
<path d="M42.7413 53.7827C38.5125 53.6831 28.6887 53.0818 25.0824 52.8125C22.3462 61.1201 22.1457 76.2943 22.5602 82.9685C28.1484 83.9387 40.4172 84.3996 44.6042 84.1716C45.3507 80.5401 43.3634 62.2188 42.7413 53.7827Z" fill="#4469B9" stroke="#4469B9" stroke-linecap="round" stroke-linejoin="round"/>
<path d="M59.5267 52.9141C54.8867 54.3568 46.3841 54.1369 42.7129 53.8466C43.2341 54.5925 43.5533 74.5068 43.749 84.2489C48.4063 84.5205 58.7881 83.7357 63.9582 83.1968C64.6359 73.0984 61.2863 58.8006 59.5267 52.9141Z" fill="#78C3A3" stroke="#78C3A2" stroke-linecap="round" stroke-linejoin="round"/>
<path d="M13.3478 50.3107L5.29927 48.0533C5.29927 48.0533 5.33868 47.6411 1.17709 60.1259C-2.9845 72.6106 5.19365 77.9995 9.41413 79.4063C8.6927 71.0885 10.7632 58.49 13.3478 50.3107Z" fill="#F840EC"/>
<path d="M80.2105 78.4712C80.825 75.5659 74.9869 58.324 71.2559 50.6133C68.3563 52.2301 63.2353 52.6715 59.4417 52.8101C62.3195 59.322 63.5425 75.8751 63.7767 83.2788C71.7453 83.2788 77.433 80.3159 80.2105 78.4712Z" fill="#19636D"/>
<path d="M59.4414 53.0385C59.499 53.0368 59.3811 52.8123 59.4417 52.8101M59.4417 52.8101C63.2353 52.6715 68.3563 52.2301 71.2559 50.6133C74.9869 58.324 80.825 75.5659 80.2105 78.4712C77.433 80.3159 71.7453 83.2788 63.7767 83.2788C63.5425 75.8751 62.3195 59.322 59.4417 52.8101Z" stroke="#19636D" stroke-linecap="round" stroke-linejoin="round"/>
<circle cx="43.749" cy="43.1952" r="21.2255" fill="#D80CA5"/>
<path fill-rule="evenodd" clip-rule="evenodd" d="M54.667 34.2944H43.5633V32.6201H54.667V34.2944ZM38.6763 34.9335H33.2112V33.2592H38.6763V34.9335ZM34.9797 40.0161H31.5599V38.3419H40.0738V40.0161H36.6539V55.4267H34.9797V40.0161ZM31.6786 48.5556C31.7809 46.3247 31.8387 43.7252 31.8605 42.0123L33.5346 42.0336C33.5126 43.7575 33.4545 46.3768 33.3511 48.6323C33.2994 49.7584 33.2361 50.8048 33.1591 51.6069C33.1209 52.0061 33.0778 52.3601 33.0283 52.6391C33.0038 52.7776 32.9748 52.9138 32.9392 53.0352C32.9124 53.1264 32.8522 53.3202 32.7189 53.4882L31.4071 52.4478C31.3621 52.5047 31.3381 52.5542 31.3288 52.5764C31.33 52.5729 31.3313 52.5685 31.3329 52.5632C31.3442 52.5246 31.3606 52.455 31.3798 52.3467C31.4179 52.1323 31.4559 51.8293 31.4926 51.4471C31.5655 50.6865 31.6274 49.6727 31.6786 48.5556ZM31.3242 52.5889C31.3242 52.5889 31.3256 52.5842 31.3288 52.5764C31.3259 52.5853 31.3242 52.5889 31.3242 52.5889ZM38.5226 52.1749V42.0229H40.1969V52.1749H38.5226Z" fill="white"/>
<path fill-rule="evenodd" clip-rule="evenodd" d="M42.4082 35.793H56.2184V41.3533H42.4082V35.793ZM44.0824 37.4672V39.6791H54.5442V37.4672H44.0824Z" fill="white"/>
<path fill-rule="evenodd" clip-rule="evenodd" d="M54.2613 44.1733H44.2055V53.039H54.2613V44.1733ZM42.5312 42.499V54.7132H55.9355V42.499H42.5312Z" fill="white"/>
<path fill-rule="evenodd" clip-rule="evenodd" d="M48.3569 48.2445V42.8154H50.0311V48.2445H55.4597V49.9187H50.0311V54.554H48.3569V49.9187H43.4043V48.2445H48.3569Z" fill="white"/>
<path fill-rule="evenodd" clip-rule="evenodd" d="M48.9022 24.4892C46.5201 21.8576 44.0689 19.6618 42.7362 18.6803L44.0601 16.8829C45.5433 17.9754 48.1041 20.2811 50.5572 22.9911C52.996 25.6853 55.4404 28.9002 56.5716 31.8149C56.7947 32.3895 56.5096 33.0362 55.935 33.2593C55.3603 33.4823 54.7136 33.1972 54.4906 32.6226C53.5127 30.1031 51.2986 27.1365 48.9022 24.4892Z" fill="#EA2F00"/>
<path fill-rule="evenodd" clip-rule="evenodd" d="M45.411 17.2581C45.7215 17.7906 45.5414 18.474 45.0089 18.7844C43.3881 19.7292 40.7409 21.5437 38.1448 23.8775C35.5382 26.2207 33.061 29.0184 31.6863 31.9179C31.4222 32.4749 30.7566 32.7124 30.1996 32.4483C29.6426 32.1842 29.4051 31.5186 29.6692 30.9616C31.2263 27.6775 33.9496 24.6471 36.6525 22.2173C39.3659 19.778 42.1373 17.8745 43.8846 16.8559C44.4172 16.5454 45.1006 16.7255 45.411 17.2581Z" fill="#EA2F00"/>
<path fill-rule="evenodd" clip-rule="evenodd" d="M45.9731 17.2522C49.6648 17.9045 52.2701 17.9736 54.0519 17.6989C56.0372 17.3928 56.8086 16.6989 57.099 16.1158C57.4079 15.4956 57.3719 14.612 56.9171 13.5364C56.4715 12.4825 55.695 11.43 54.8666 10.6444C53.6885 9.52736 52.7679 9.19005 52.0719 9.19089C51.383 9.19171 50.6598 9.5245 49.8731 10.3078C48.4432 11.7313 47.1639 14.2785 45.9731 17.2522ZM52.0692 6.95857C53.545 6.9568 54.989 7.68417 56.4026 9.02459C57.4178 9.98732 58.3897 11.2871 58.9732 12.667C59.5475 14.0252 59.8214 15.657 59.0972 17.111C58.3545 18.6022 56.7498 19.5416 54.3921 19.9051C52.0346 20.2686 48.7327 20.0956 44.2263 19.1943L42.9342 18.9359L43.4017 17.7039C44.7123 14.2499 46.2844 10.7305 48.2981 8.7258C49.331 7.69745 50.5865 6.96035 52.0692 6.95857Z" fill="#EA2F00"/>
<path fill-rule="evenodd" clip-rule="evenodd" d="M41.372 12.698C42.5674 14.27 43.4912 15.7893 43.9287 16.6595L44.2811 17.3603L43.7412 17.9293C43.3348 18.3575 42.7116 18.6934 42.0881 18.9576C41.4298 19.2366 40.6354 19.491 39.7721 19.7043C38.0484 20.1302 35.963 20.4137 33.992 20.3724C32.0623 20.332 30.0484 19.9772 28.6367 18.9483C27.9045 18.4146 27.3264 17.6922 27.0389 16.7578C26.7545 15.8335 26.7833 14.7964 27.0946 13.6707C28.0715 10.1375 29.499 7.96951 31.4318 7.16649C33.4083 6.34534 35.4126 7.14599 37.0217 8.28007C38.6631 9.43685 40.1812 11.1321 41.372 12.698ZM32.2883 9.22797C31.3469 9.61909 30.1765 10.9006 29.2461 14.2656C29.018 15.0908 29.043 15.6805 29.1725 16.1014C29.2989 16.5121 29.5524 16.8534 29.9515 17.1443C30.8026 17.7646 32.2505 18.1031 34.0387 18.1406C35.7855 18.1772 37.6739 17.9233 39.2367 17.5372C40.0167 17.3444 40.6937 17.1241 41.217 16.9023C41.3029 16.8659 41.3819 16.8306 41.4544 16.7966C41.0099 16.0465 40.3686 15.0664 39.5951 14.0493C38.4636 12.5613 37.107 11.0712 35.7357 10.1047C34.3322 9.11556 33.1861 8.85498 32.2883 9.22797Z" fill="#EA2F00"/>
<circle cx="43.7471" cy="17.4432" r="3.06702" transform="rotate(-8.21136 43.7471 17.4432)" fill="#19636D"/>
<path fill-rule="evenodd" clip-rule="evenodd" d="M45.175 16.0178C45.4681 15.9224 45.783 16.0827 45.8783 16.3758C45.9521 16.6026 45.9569 16.9038 45.9158 17.19C45.8724 17.4921 45.7689 17.8435 45.5689 18.1755C45.3665 18.5114 45.0641 18.8283 44.6328 19.0419C44.2018 19.2553 43.6756 19.3492 43.0506 19.2924C42.7436 19.2645 42.5174 18.993 42.5453 18.6861C42.5732 18.3791 42.8446 18.1529 43.1516 18.1808C43.6076 18.2222 43.9213 18.1487 44.1374 18.0417C44.3532 17.9348 44.5053 17.778 44.6128 17.5995C44.7228 17.417 44.7848 17.2131 44.8109 17.0314C44.8238 16.9414 44.827 16.8631 44.8248 16.8028C44.8226 16.7455 44.8161 16.7195 44.8163 16.7194C44.8164 16.7194 44.8166 16.72 44.8169 16.7211C44.7216 16.428 44.8819 16.1131 45.175 16.0178Z" fill="#15C0D7"/>
</svg>
