<svg width="122" height="110" viewBox="0 0 122 110" fill="none" xmlns="http://www.w3.org/2000/svg">
<path d="M100.229 43.6011C98.7659 28.3869 119.783 26.0861 121.001 43.6011C122.48 59.3621 118.933 74.8981 113.167 83.0779C105.431 94.0527 91.682 96.3738 82.4677 94.9352V87.3812C114.805 83.4963 101.773 59.6588 100.229 43.6011Z" fill="white" stroke="#D2C2DC"/>
<path d="M61.2658 15.9286C49.6588 8.80247 34.8802 12.9594 28.9418 15.9286C25.2767 1.67455 18.7249 0.253019 16.4701 0.657431C6.49267 2.69362 -1.36252 67.6835 2.21733 89.9953C5.79719 112.307 49.3773 111.724 75.6932 106.141C107.503 95.8978 76.5383 6.76601 72.4659 2.43911C69.208 -1.02242 63.6417 9.98982 61.2658 15.9286Z" fill="white" stroke="#D2C2DC"/>
<circle cx="27.6409" cy="39.0842" r="4.3684" fill="#653683"/>
<circle cx="61.477" cy="39.0842" r="4.3684" fill="#653683"/>
<path fill-rule="evenodd" clip-rule="evenodd" d="M41.3845 41.8873C41.1709 41.3902 40.5984 41.1518 40.0935 41.3544C39.581 41.56 39.3321 42.1422 39.5377 42.6548L40.4658 42.2825C39.5377 42.6548 39.538 42.6555 39.5383 42.6563L39.5389 42.6578L39.5402 42.6609L39.5431 42.6679L39.5499 42.6839C39.5549 42.6956 39.561 42.7092 39.5681 42.7247C39.5824 42.7555 39.601 42.7937 39.6247 42.838C39.6719 42.9267 39.7393 43.0405 39.8314 43.1705C40.0161 43.4311 40.2998 43.7557 40.7182 44.0716C41.5674 44.713 42.8988 45.2648 44.9201 45.2648C46.9418 45.2648 48.2858 44.713 49.1479 44.0794C49.5729 43.7671 49.8646 43.4466 50.056 43.1899C50.1515 43.0617 50.2218 42.9497 50.2715 42.8626C50.2963 42.8191 50.3159 42.7816 50.331 42.7515C50.3385 42.7364 50.3449 42.7231 50.3503 42.7117L50.3574 42.6961L50.3604 42.6894L50.3618 42.6864L50.3624 42.6849C50.3627 42.6842 50.363 42.6835 49.447 42.2825L50.363 42.6835C50.5845 42.1776 50.3539 41.5879 49.848 41.3664C49.3491 41.148 48.7688 41.3692 48.5404 41.8605C48.5391 41.863 48.5368 41.8671 48.5336 41.8727C48.5215 41.894 48.4955 41.9369 48.4525 41.9946C48.3668 42.1095 48.2128 42.2846 47.9635 42.4678C47.477 42.8254 46.5575 43.2648 44.9201 43.2648C43.2823 43.2648 42.3866 42.8254 41.9235 42.4756C41.6856 42.296 41.5418 42.125 41.4631 42.014C41.4235 41.9581 41.4002 41.9171 41.3896 41.8973C41.3872 41.8928 41.3855 41.8895 41.3845 41.8873Z" fill="#653683"/>
<path d="M22.6451 61.5684C17.0655 67.5606 9.72921 81.9232 8.62524 99.1761C19.3835 111.796 68.3917 110.309 80.388 102.59C80.388 90.2929 75.7269 70.0891 65.2524 60.5641C52.1594 48.658 32.6308 50.8445 22.6451 61.5684Z" fill="#F7EAFF"/>
<path d="M76.5426 23.6314C76.5426 23.6314 71.5073 21.4558 65.094 17.7103C65.094 17.7103 63.4214 16.8276 66.678 11.8932C69.9346 6.95878 70.2905 7.60829 70.2905 7.60829C73.5413 8.49175 76.5426 23.6314 76.5426 23.6314Z" fill="#F7EAFF"/>
<path d="M25.8531 16.1207C25.8531 16.1207 17.1346 16.1007 10.7192 19.4959C10.7192 19.4959 12.7865 10.4757 15.1615 7.16359C17.5364 3.8515 20.6198 6.76 20.6198 6.76C23.5864 8.79417 25.8531 16.1207 25.8531 16.1207Z" fill="#F7EAFF"/>
<path d="M50.9641 20.8192L50.9641 13.196C50.9641 13.196 49.3336 12.9781 48.0076 12.923C46.6817 12.8678 45.3268 12.9229 45.3268 12.9229V21.1849C45.3268 21.1849 45.3742 22.8991 48.2746 22.8991C51.1751 22.8991 50.9641 20.8192 50.9641 20.8192Z" fill="#F7EAFF"/>
<path d="M37.531 21.5567V13.9362C37.531 13.9362 38.6185 13.6457 40.1463 13.4013C41.6742 13.157 43.1626 13.0186 43.1626 13.0186V21.8916C43.1626 21.8916 41.8281 23.3188 40.1463 23.3188C38.4645 23.3188 37.531 21.5567 37.531 21.5567Z" fill="#F7EAFF"/>
<circle cx="62.9297" cy="40.8296" r="1.45263" fill="white"/>
<circle cx="28.7537" cy="40.8296" r="1.45263" fill="white"/>
<path d="M108.92 32.3153C101.839 33.5226 99.5536 39.8229 101.978 48.89C101.978 48.89 106.05 51.5353 108.65 55.0624C111.25 58.5894 112.001 65.9162 112.001 65.9162C117.926 61.6366 119.884 50.622 119.975 48.89C120.35 41.7475 119.47 39.6021 118.825 38.0483C117.589 35.0708 113.701 31.5 108.92 32.3153Z" fill="#F7EAFF"/>
</svg>
