<svg width="65" height="62" viewBox="0 0 65 62" fill="none" xmlns="http://www.w3.org/2000/svg">
<path d="M56.5247 35.9385C53.488 28.3378 61.7833 27.5136 63.0919 32.6086C64.257 39.57 64.8728 43.2736 63.5008 46.293C59.9662 54.0715 50.6141 54.7565 45.4788 53.811V48.8463C61.4079 48.1654 57.3607 40.1167 56.5247 35.9385Z" fill="#EBC282" stroke="black"/>
<path d="M33.6625 9.82949C27.1937 5.85798 18.9574 8.17469 15.6478 9.82949C13.6052 1.88549 10.1629 0.845591 8.69714 1.31864C3.1366 2.45344 1.08476 34.9843 0.753906 51.1079C2.4561 63.4771 28.9366 62.1867 41.703 60.1062C58.9059 58.4842 42.174 4.72303 39.9044 2.31159C38.0887 0.382436 34.9866 6.51971 33.6625 9.82949Z" fill="#EBC282" stroke="black"/>
<circle cx="14.9229" cy="22.7344" r="2.43457" fill="black"/>
<circle cx="33.7803" cy="22.7344" r="2.43457" fill="black"/>
<path d="M21.0703 23.5586C21.0703 23.5586 21.9659 25.0644 23.5527 25.0645C25.1396 25.0645 26.0756 23.5586 26.0756 23.5586" stroke="black" stroke-linecap="round"/>
<path d="M11.8264 35.6895C8.80791 39.3768 6.95008 57.2422 6.75 57.7031C13.2463 62.4519 32.7645 61.5399 44.1071 59.0102C44.207 51.8219 41.7886 40.0138 36.1147 34.7054C29.0224 28.07 15.1836 31.5882 11.8264 35.6895Z" fill="#FFE6BF"/>
<path d="M42.1764 14.1224C42.1764 14.1224 39.3702 12.9099 35.796 10.8225C35.796 10.8225 34.8638 10.3305 36.6788 7.5805C38.4937 4.8305 38.6921 5.19248 38.6921 5.19248C40.5038 5.68485 42.1764 14.1224 42.1764 14.1224Z" fill="#FFE6BF"/>
<path d="M14.1062 10.7131C14.1062 10.7131 9.24723 10.7003 5.67188 12.8599C5.67188 12.8599 6.47576 7.25842 7.79935 5.15178C9.12295 3.04513 11.2647 4.53958 11.2647 4.53958C12.8875 5.73409 14.1062 10.7131 14.1062 10.7131Z" fill="#FFE6BF"/>
<path d="M18.5254 12.9535V9.23467C18.5254 9.23467 19.2208 8.97097 20.1523 8.764C21.0838 8.55703 21.664 8.46484 21.664 8.46484V13.1573C21.664 13.1573 21.2376 14.0701 19.8913 13.9109C18.5451 13.7518 18.5254 12.9535 18.5254 12.9535Z" fill="#FFE6BF"/>
<path d="M31.0294 12.721V9.1086C31.0294 9.1086 30.241 8.81414 29.3589 8.59689C28.4767 8.37965 27.8876 8.32031 27.8876 8.32031V12.9248C27.8876 12.9248 27.914 13.8802 29.5305 13.8802C31.1469 13.8802 31.0294 12.721 31.0294 12.721Z" fill="#FFE6BF"/>
<path d="M23.5206 12.2352V8.2207C23.5206 8.2207 24.4783 8.13574 25.1851 8.13574C25.892 8.13574 26.6592 8.18178 26.6592 8.18178V12.4218C26.6592 12.4218 26.6592 13.6794 24.8913 13.5397C23.1234 13.4 23.5206 12.2352 23.5206 12.2352Z" fill="#FFE6BF"/>
<circle cx="34.5898" cy="23.707" r="0.80957" fill="white"/>
<circle cx="15.543" cy="23.707" r="0.80957" fill="white"/>
<path d="M59.0523 29.8815C55.6154 29.7027 55.88 33.8836 57.6792 38.2895C57.6792 38.2895 59.3086 37.6818 61.2784 40.3539C63.2482 43.0259 63.7661 41.4508 63.7661 41.4508C63.7864 39.0994 63.2616 33.1997 62.2308 31.8254C61.7006 31.1184 61.1797 29.9922 59.0523 29.8815Z" fill="#FFE6BF"/>
</svg>
