<svg width="104" height="106" viewBox="0 0 104 106" fill="none" xmlns="http://www.w3.org/2000/svg">
<path d="M52.7247 90.8248C36.5812 90.8048 22.0509 81.4374 16.4727 66.931C11.206 53.2352 13.7575 40.8051 23.4085 29.7287C29.7213 22.4815 37.831 18.804 47.1186 17.65C65.1867 15.41 83.2867 25.7597 89.1364 43.9116C93.9798 58.9291 87.9784 75.5398 74.4144 84.452C67.9418 88.7085 60.6946 90.8368 52.7247 90.8248Z" fill="#4C4C4C"/>
<path d="M34.5324 2.32123C34.4845 1.17924 34.7201 0.400619 35.7064 0.157049C36.6687 -0.0825275 37.3275 0.412598 37.7028 1.2591C38.5813 3.24759 39.292 5.29996 39.7991 7.41223C39.891 7.79156 39.879 8.20683 39.847 8.59814C39.7792 9.44464 39.316 10.0116 38.5094 10.2632C37.6869 10.5187 37.0001 10.2392 36.481 9.59238C36.2374 9.28892 36.0258 8.92556 35.906 8.55821C35.2192 6.45393 34.8439 4.27777 34.5324 2.32123Z" fill="#4C4C4C"/>
<path d="M101.586 33.0107C102.804 33.0187 103.498 33.454 103.786 34.4043C104.046 35.2668 103.59 36.3169 102.644 36.5964C100.66 37.1874 98.8507 38.1936 96.9101 38.8804C95.7801 39.2797 94.8657 38.9842 94.4465 38.1736C94.0232 37.3551 94.2908 36.3608 95.265 35.7419C97.2855 34.4562 99.4496 33.4739 101.586 33.0107Z" fill="#4C4C4C"/>
<path d="M98.4116 76.4778C96.5149 75.5315 94.0433 74.8886 92.4301 72.8083C91.943 72.1814 91.7473 71.4028 92.3263 70.704C92.8973 70.0172 93.628 70.1969 94.3068 70.5363C95.7123 71.2391 97.2975 71.3788 98.727 72.0017C99.3619 72.2773 100.005 72.5288 100.46 73.0798C101.007 73.7467 101.187 74.4894 100.819 75.3039C100.46 76.0865 99.6933 76.5297 98.4116 76.4778Z" fill="#4C4C4C"/>
<path d="M70.96 103.306C70.8801 104.5 70.5208 105.271 69.5545 105.53C68.5922 105.79 67.7616 105.402 67.3903 104.524C66.5358 102.499 65.7133 100.443 65.3898 98.2469C65.282 97.5282 65.4857 96.8414 66.2004 96.502C66.8433 96.1945 67.57 96.2704 67.9693 96.8694C69.3229 98.9257 70.1814 101.218 70.96 103.306Z" fill="#4C4C4C"/>
<path d="M77.9359 6.30597C77.8121 6.72124 77.6324 7.23633 77.5046 7.7594C77.1293 9.26874 76.8298 10.802 76.3946 12.2954C76.0153 13.5971 74.8973 14.22 73.8271 13.8846C72.761 13.5492 72.2699 12.3992 72.7051 11.0975C73.1963 9.62012 73.7233 8.15471 74.2823 6.70527C74.5419 6.02647 74.9252 5.39957 75.5681 4.99229C76.0991 4.65289 76.6541 4.61296 77.2132 4.9324C77.6963 5.2119 77.9079 5.64714 77.9359 6.30597Z" fill="#4C4C4C"/>
<path d="M3.63908 80.7585C3.17989 80.6947 2.8924 80.6587 2.6089 80.6108C1.71448 80.4551 0.987767 80.0758 0.959817 79.0496C0.927873 78.0354 1.61067 77.5682 2.48911 77.3526C4.07032 76.9692 5.64354 76.558 7.19281 76.0429C8.39069 75.6436 9.50872 76.1826 9.86409 77.2448C10.2155 78.2909 9.62052 79.381 8.35875 79.7204C6.75358 80.1476 5.11248 80.4391 3.63908 80.7585Z" fill="#4C4C4C"/>
<path d="M4.8289 31.7094C6.42209 32.1606 8.29079 32.6238 9.86002 33.7977C10.7025 34.4286 10.9181 35.5067 10.4749 36.3172C10.0197 37.1478 9.02549 37.591 8.03923 37.1797C6.40612 36.4969 4.84088 35.6544 3.50724 34.4605C2.92427 33.9374 2.70466 33.2347 3.04406 32.488C3.32756 31.8691 3.88257 31.6255 4.8289 31.7094Z" fill="#4C4C4C"/>
<path d="M38.909 96.0075C38.6455 97.8722 38.2103 99.7449 37.5834 101.558C37.236 102.564 36.11 102.999 35.1676 102.668C34.2093 102.328 33.6343 101.33 33.9937 100.288C34.6446 98.4033 35.523 96.6145 36.4733 94.8616C36.7688 94.3145 37.2719 94.0071 37.9347 94.2027C38.8252 94.4663 38.8012 95.2489 38.909 96.0075Z" fill="#4C4C4C"/>
<path d="M5.14856 11.5449C5.2364 11.9083 4.95689 11.9522 4.80117 12.1439C4.56558 11.6727 5.0088 11.7206 5.14856 11.5449Z" fill="#DCDCDC"/>
<path d="M51.7102 19.0954C66.6318 19.7782 78.3352 26.0272 85.2549 39.5992C93.5882 55.9503 86.892 75.8033 70.5369 84.46C65.0107 87.3868 59.1211 88.952 52.9001 88.9321C35.0037 88.8802 19.9543 76.9852 16.4485 60.5662C14.0487 49.33 16.7559 39.1919 24.4783 30.8028C30.1443 24.6496 37.3995 20.8324 45.8206 19.5826C47.7572 19.2951 49.7017 19.0595 51.7102 19.0954Z" fill="#FDD21A"/>
<path d="M52.7206 65.984C51.1873 65.9081 49.6101 65.5648 48.1966 64.6663C47.9251 64.4946 47.6575 64.295 47.4539 64.0514C47.1864 63.728 47.0786 63.3207 47.3461 62.9454C47.6336 62.5421 47.9929 62.6539 48.4002 62.8376C49.3865 63.2808 50.3887 63.6721 51.4908 63.7959C53.595 64.0355 54.8209 63.4445 55.8231 61.5678C56.0268 61.1845 56.1585 60.7612 56.3741 60.3899C56.6976 59.8309 57.1847 59.5514 57.8356 59.8149C58.4784 60.0784 58.6341 60.6175 58.5184 61.2484C58.139 63.2968 54.8688 66.016 52.7206 65.984Z" fill="#4C4C4C"/>
<path d="M32.3567 56.0983C32.3647 54.9803 32.9237 54.3334 33.8501 54.3654C34.8204 54.4013 35.8785 55.6391 35.8586 56.7252C35.8426 57.7314 34.8244 58.9613 33.9978 58.9812C32.9677 59.0052 32.3408 57.9031 32.3567 56.0983Z" fill="#4D4D4B"/>
<path d="M65.7576 51.2114C65.8893 50.3489 65.9652 49.5463 66.9275 49.3667C67.8579 49.191 68.4328 49.6621 68.8082 50.4767C69.3991 51.7584 69.1915 52.8166 68.1733 53.5712C67.3707 54.1702 66.4923 53.9546 66.1649 53.0202C65.9572 52.4133 65.8774 51.7584 65.7576 51.2114Z" fill="#4D4D4B"/>
</svg>
