<svg width="65" height="62" viewBox="0 0 65 62" fill="none" xmlns="http://www.w3.org/2000/svg">
<path d="M56.388 35.9385C53.3513 28.3378 61.6466 27.5136 62.9551 32.6086C64.1202 39.57 64.736 43.2736 63.364 46.293C59.8295 54.0715 50.4774 54.7565 45.3421 53.811V48.8463C61.2712 48.1654 57.224 40.1167 56.388 35.9385Z" fill="white" stroke="black"/>
<path d="M33.5257 9.82949C27.0569 5.85798 18.8206 8.17469 15.5111 9.82949C13.4685 1.88549 10.0262 0.845591 8.56042 1.31864C2.99989 2.45344 0.948042 34.9843 0.617188 51.1079C2.31938 63.4771 28.7998 62.1867 41.5663 60.1062C58.7692 58.4842 42.0373 4.72303 39.7677 2.31159C37.952 0.382436 34.8499 6.51971 33.5257 9.82949Z" fill="white" stroke="black"/>
<circle cx="14.7861" cy="22.7344" r="2.43457" fill="black"/>
<circle cx="33.6436" cy="22.7344" r="2.43457" fill="black"/>
<path d="M20.9336 23.5586C20.9336 23.5586 21.8292 25.0644 23.416 25.0645C25.0029 25.0645 25.9389 23.5586 25.9389 23.5586" stroke="black" stroke-linecap="round"/>
<path d="M11.6896 35.6895C8.67119 39.3768 6.81336 57.2422 6.61328 57.7031C13.1096 62.4519 32.6278 61.5399 43.9704 59.0102C44.0703 51.8219 41.6518 40.0138 35.978 34.7054C28.8857 28.07 15.0469 31.5882 11.6896 35.6895Z" fill="#F7EAFF"/>
<path d="M42.0397 14.1224C42.0397 14.1224 39.2335 12.9099 35.6593 10.8225C35.6593 10.8225 34.7271 10.3305 36.542 7.5805C38.357 4.8305 38.5554 5.19248 38.5554 5.19248C40.367 5.68485 42.0397 14.1224 42.0397 14.1224Z" fill="#F7EAFF"/>
<path d="M13.9694 10.7131C13.9694 10.7131 9.11051 10.7003 5.53516 12.8599C5.53516 12.8599 6.33904 7.25842 7.66264 5.15178C8.98623 3.04513 11.128 4.53958 11.128 4.53958C12.7508 5.73409 13.9694 10.7131 13.9694 10.7131Z" fill="#F7EAFF"/>
<path d="M18.4033 13.1763V9.22947C18.4033 9.22947 19.2322 8.8922 20.1342 8.72891C21.0362 8.56563 21.5419 8.45215 21.5419 8.45215V13.3939C21.5419 13.3939 21.1155 14.3687 19.7693 14.1987C18.423 14.0288 18.4033 13.1763 18.4033 13.1763Z" fill="#EFD6FF"/>
<path d="M30.8926 13.0344L30.8926 9.11321C30.8926 9.11321 30.0799 8.80036 29.2487 8.59477C28.4174 8.38918 27.7509 8.3176 27.7509 8.3176V13.2521C27.7509 13.2521 27.7773 14.2723 29.3938 14.2723C31.0102 14.2723 30.8926 13.0344 30.8926 13.0344Z" fill="#EFD6FF"/>
<path d="M23.3839 12.5152V8.2282C23.3839 8.2282 24.3139 8.12012 25.0207 8.12012C25.7275 8.12012 26.4871 8.18358 26.4871 8.18358L26.5225 12.7145C26.5225 12.7145 26.5225 14.0574 24.7546 13.9083C22.9867 13.7591 23.3839 12.5152 23.3839 12.5152Z" fill="#EFD6FF"/>
<circle cx="34.4531" cy="23.707" r="0.80957" fill="white"/>
<circle cx="15.4062" cy="23.707" r="0.80957" fill="white"/>
<path d="M58.9156 29.8815C55.4787 29.7027 55.7433 33.8836 57.5425 38.2895C57.5425 38.2895 59.1719 37.6818 61.1417 40.3539C63.1115 43.0259 63.6294 41.4508 63.6294 41.4508C63.6496 39.0994 63.1248 33.1997 62.094 31.8254C61.5638 31.1184 61.043 29.9922 58.9156 29.8815Z" fill="#F7EAFF"/>
</svg>
