<svg width="109" height="121" viewBox="0 0 109 121" fill="none" xmlns="http://www.w3.org/2000/svg">
<mask id="path-1-inside-1_119_216" fill="white">
<path fill-rule="evenodd" clip-rule="evenodd" d="M74.7631 26.5745C75.2182 24.8751 75.4609 23.0884 75.4609 21.2446C75.4609 9.9441 66.3422 0.783203 55.0938 0.783203C43.8453 0.783203 34.7266 9.9441 34.7266 21.2446C34.7266 23.2341 35.0092 25.1573 35.5363 26.9759C31.8735 23.4275 26.8906 21.2451 21.4004 21.2451C10.1519 21.2451 1.0332 30.406 1.0332 41.7065C1.0332 50.174 6.15287 57.4402 13.452 60.5513C6.11857 63.647 0.96875 70.931 0.96875 79.4233C0.96875 90.7239 10.0875 99.8848 21.3359 99.8848C26.8711 99.8848 31.8906 97.6665 35.5616 94.0666C35.0182 95.9106 34.7266 97.8632 34.7266 99.8843C34.7266 111.185 43.8453 120.346 55.0938 120.346C66.3422 120.346 75.4609 111.185 75.4609 99.8843C75.4609 98.041 75.2183 96.2547 74.7634 94.5557C78.3821 97.8664 83.1927 99.8848 88.4727 99.8848C99.7211 99.8848 108.84 90.7239 108.84 79.4233C108.84 70.9434 103.705 63.6684 96.3889 60.5649C103.705 57.4615 108.84 50.1864 108.84 41.7065C108.84 30.406 99.7211 21.2451 88.4727 21.2451C83.1926 21.2451 78.3818 23.2636 74.7631 26.5745ZM68.803 84.7519C68.3481 83.0529 68.1055 81.2666 68.1055 79.4233C68.1055 70.9434 73.2402 63.6684 80.5564 60.5649C73.2402 57.4615 68.1055 50.1864 68.1055 41.7065C68.1055 39.8628 68.3482 38.076 68.8033 36.3767C65.1846 39.6875 60.3738 41.7061 55.0938 41.7061C49.6035 41.7061 44.6207 39.5237 40.9578 35.9753C41.4849 37.7938 41.7676 39.717 41.7676 41.7065C41.7676 50.1989 36.6178 57.4829 29.2843 60.5786C36.5835 63.6897 41.7031 70.9559 41.7031 79.4233C41.7031 81.4444 41.4114 83.397 40.8681 85.2411C44.5391 81.6411 49.5585 79.4229 55.0938 79.4229C60.3737 79.4229 65.1843 81.4412 68.803 84.7519Z"/>
</mask>
<path fill-rule="evenodd" clip-rule="evenodd" d="M74.7631 26.5745C75.2182 24.8751 75.4609 23.0884 75.4609 21.2446C75.4609 9.9441 66.3422 0.783203 55.0938 0.783203C43.8453 0.783203 34.7266 9.9441 34.7266 21.2446C34.7266 23.2341 35.0092 25.1573 35.5363 26.9759C31.8735 23.4275 26.8906 21.2451 21.4004 21.2451C10.1519 21.2451 1.0332 30.406 1.0332 41.7065C1.0332 50.174 6.15287 57.4402 13.452 60.5513C6.11857 63.647 0.96875 70.931 0.96875 79.4233C0.96875 90.7239 10.0875 99.8848 21.3359 99.8848C26.8711 99.8848 31.8906 97.6665 35.5616 94.0666C35.0182 95.9106 34.7266 97.8632 34.7266 99.8843C34.7266 111.185 43.8453 120.346 55.0938 120.346C66.3422 120.346 75.4609 111.185 75.4609 99.8843C75.4609 98.041 75.2183 96.2547 74.7634 94.5557C78.3821 97.8664 83.1927 99.8848 88.4727 99.8848C99.7211 99.8848 108.84 90.7239 108.84 79.4233C108.84 70.9434 103.705 63.6684 96.3889 60.5649C103.705 57.4615 108.84 50.1864 108.84 41.7065C108.84 30.406 99.7211 21.2451 88.4727 21.2451C83.1926 21.2451 78.3818 23.2636 74.7631 26.5745ZM68.803 84.7519C68.3481 83.0529 68.1055 81.2666 68.1055 79.4233C68.1055 70.9434 73.2402 63.6684 80.5564 60.5649C73.2402 57.4615 68.1055 50.1864 68.1055 41.7065C68.1055 39.8628 68.3482 38.076 68.8033 36.3767C65.1846 39.6875 60.3738 41.7061 55.0938 41.7061C49.6035 41.7061 44.6207 39.5237 40.9578 35.9753C41.4849 37.7938 41.7676 39.717 41.7676 41.7065C41.7676 50.1989 36.6178 57.4829 29.2843 60.5786C36.5835 63.6897 41.7031 70.9559 41.7031 79.4233C41.7031 81.4444 41.4114 83.397 40.8681 85.2411C44.5391 81.6411 49.5585 79.4229 55.0938 79.4229C60.3737 79.4229 65.1843 81.4412 68.803 84.7519Z" fill="white"/>
<path d="M74.7631 26.5745L73.7971 26.3157L72.911 29.6244L75.4381 27.3122L74.7631 26.5745ZM35.5363 26.9759L34.8405 27.6941L37.5451 30.3142L36.4968 26.6975L35.5363 26.9759ZM13.452 60.5513L13.8409 61.4725L16.0128 60.5557L13.8441 59.6313L13.452 60.5513ZM35.5616 94.0666L36.5208 94.3492L37.6082 90.659L34.8614 93.3526L35.5616 94.0666ZM74.7634 94.5557L75.4385 93.8179L72.9117 91.5063L73.7975 94.8144L74.7634 94.5557ZM96.3889 60.5649L95.9984 59.6443L93.8281 60.5649L95.9984 61.4855L96.3889 60.5649ZM68.803 84.7519L68.128 85.4897L70.6547 87.8013L69.7689 84.4932L68.803 84.7519ZM80.5564 60.5649L80.947 61.4855L83.1172 60.5649L80.947 59.6443L80.5564 60.5649ZM68.8033 36.3767L69.7693 36.6354L70.6554 33.3268L68.1283 35.6389L68.8033 36.3767ZM40.9578 35.9753L41.6536 35.2571L38.949 32.637L39.9973 36.2537L40.9578 35.9753ZM29.2843 60.5786L28.8954 59.6573L26.7235 60.5742L28.8922 61.4985L29.2843 60.5786ZM40.8681 85.2411L39.9089 84.9584L38.8215 88.6486L41.5682 85.955L40.8681 85.2411ZM74.4609 21.2446C74.4609 23.0002 74.2299 24.7001 73.7971 26.3157L75.729 26.8332C76.2066 25.0502 76.4609 23.1765 76.4609 21.2446H74.4609ZM55.0938 1.7832C65.7856 1.7832 74.4609 10.492 74.4609 21.2446H76.4609C76.4609 9.39617 66.8989 -0.216797 55.0938 -0.216797V1.7832ZM35.7266 21.2446C35.7266 10.492 44.4019 1.7832 55.0938 1.7832V-0.216797C43.2886 -0.216797 33.7266 9.39617 33.7266 21.2446H35.7266ZM36.4968 26.6975C35.9956 24.9685 35.7266 23.139 35.7266 21.2446H33.7266C33.7266 23.3293 34.0228 25.3461 34.5759 27.2543L36.4968 26.6975ZM21.4004 22.2451C26.62 22.2451 31.3562 24.3187 34.8405 27.6941L36.2321 26.2576C32.3907 22.5363 27.1613 20.2451 21.4004 20.2451V22.2451ZM2.0332 41.7065C2.0332 30.9539 10.7085 22.2451 21.4004 22.2451V20.2451C9.59527 20.2451 0.0332031 29.8581 0.0332031 41.7065H2.0332ZM13.8441 59.6313C6.90249 56.6726 2.0332 49.7613 2.0332 41.7065H0.0332031C0.0332031 50.5867 5.40325 58.2077 13.0599 61.4712L13.8441 59.6313ZM1.96875 79.4233C1.96875 71.3449 6.86674 64.4166 13.8409 61.4725L13.0631 59.63C5.37041 62.8774 -0.03125 70.517 -0.03125 79.4233H1.96875ZM21.3359 98.8848C10.6441 98.8848 1.96875 90.1759 1.96875 79.4233H-0.03125C-0.03125 91.2718 9.53082 100.885 21.3359 100.885V98.8848ZM34.8614 93.3526C31.3693 96.7771 26.5982 98.8848 21.3359 98.8848V100.885C27.144 100.885 32.4119 98.5559 36.2618 94.7805L34.8614 93.3526ZM35.7266 99.8843C35.7266 97.9599 36.0042 96.1024 36.5208 94.3492L34.6024 93.7839C34.0322 95.7188 33.7266 97.7666 33.7266 99.8843H35.7266ZM55.0938 119.346C44.4019 119.346 35.7266 110.637 35.7266 99.8843H33.7266C33.7266 111.733 43.2886 121.346 55.0938 121.346V119.346ZM74.4609 99.8843C74.4609 110.637 65.7856 119.346 55.0938 119.346V121.346C66.8989 121.346 76.4609 111.733 76.4609 99.8843H74.4609ZM73.7975 94.8144C74.23 96.4297 74.4609 98.1291 74.4609 99.8843H76.4609C76.4609 97.9529 76.2067 96.0797 75.7294 94.2971L73.7975 94.8144ZM88.4727 98.8848C83.4528 98.8848 78.8804 96.9669 75.4385 93.8179L74.0884 95.2936C77.8838 98.7658 82.9327 100.885 88.4727 100.885V98.8848ZM107.84 79.4233C107.84 90.1759 99.1645 98.8848 88.4727 98.8848V100.885C100.278 100.885 109.84 91.2718 109.84 79.4233H107.84ZM95.9984 61.4855C102.956 64.437 107.84 71.3568 107.84 79.4233H109.84C109.84 70.5301 104.454 62.8998 96.7794 59.6443L95.9984 61.4855ZM107.84 41.7065C107.84 49.7731 102.956 56.6929 95.9984 59.6443L96.7794 61.4855C104.454 58.2301 109.84 50.5997 109.84 41.7065H107.84ZM88.4727 22.2451C99.1645 22.2451 107.84 30.9539 107.84 41.7065H109.84C109.84 29.8581 100.278 20.2451 88.4727 20.2451V22.2451ZM75.4381 27.3122C78.8801 24.1631 83.4526 22.2451 88.4727 22.2451V20.2451C82.9325 20.2451 77.8834 22.3642 74.0881 25.8367L75.4381 27.3122ZM69.7689 84.4932C69.3364 82.8779 69.1055 81.1785 69.1055 79.4233H67.1055C67.1055 81.3547 67.3597 83.2279 67.837 85.0105L69.7689 84.4932ZM69.1055 79.4233C69.1055 71.3568 73.9891 64.437 80.947 61.4855L80.1659 59.6443C72.4913 62.8998 67.1055 70.5301 67.1055 79.4233H69.1055ZM80.947 59.6443C73.9891 56.6929 69.1055 49.7731 69.1055 41.7065H67.1055C67.1055 50.5997 72.4913 58.2301 80.1659 61.4855L80.947 59.6443ZM69.1055 41.7065C69.1055 39.9509 69.3366 38.2511 69.7693 36.6354L67.8374 36.118C67.3598 37.901 67.1055 39.7747 67.1055 41.7065H69.1055ZM68.1283 35.6389C64.6863 38.7881 60.1138 40.7061 55.0938 40.7061V42.7061C60.6339 42.7061 65.683 40.587 69.4783 37.1145L68.1283 35.6389ZM55.0938 40.7061C49.8742 40.7061 45.1379 38.6325 41.6536 35.2571L40.262 36.6935C44.1034 40.4149 49.3329 42.7061 55.0938 42.7061V40.7061ZM39.9973 36.2537C40.4985 37.9827 40.7676 39.8122 40.7676 41.7065H42.7676C42.7676 39.6219 42.4714 37.605 41.9183 35.6969L39.9973 36.2537ZM40.7676 41.7065C40.7676 49.785 35.8696 56.7133 28.8954 59.6573L29.6732 61.4999C37.3659 58.2525 42.7676 50.6128 42.7676 41.7065H40.7676ZM28.8922 61.4985C35.8338 64.4572 40.7031 71.3686 40.7031 79.4233H42.7031C42.7031 70.5432 37.3331 62.9222 29.6764 59.6587L28.8922 61.4985ZM40.7031 79.4233C40.7031 81.3478 40.4255 83.2052 39.9089 84.9584L41.8273 85.5237C42.3974 83.5888 42.7031 81.5411 42.7031 79.4233H40.7031ZM41.5682 85.955C45.0603 82.5305 49.8315 80.4229 55.0938 80.4229V78.4229C49.2856 78.4229 44.0178 80.7517 40.1679 84.5271L41.5682 85.955ZM55.0938 80.4229C60.1136 80.4229 64.686 82.3407 68.128 85.4897L69.478 84.0141C65.6827 80.5418 60.6337 78.4229 55.0938 78.4229V80.4229Z" fill="#F5BF36" mask="url(#path-1-inside-1_119_216)"/>
<circle cx="54.1553" cy="60.5488" r="31.7549" fill="#F5BF36"/>
<ellipse cx="47.4082" cy="53.5156" rx="2.87305" ry="4.53809" fill="black"/>
<ellipse cx="61.0215" cy="53.5156" rx="2.87305" ry="4.53809" fill="black"/>
<path d="M38.332 64.4062C38.332 64.4062 40.1472 75.5994 54.6682 75.5994C69.1891 75.5994 70.5508 64.4062 70.5508 64.4062" stroke="black" stroke-linecap="round"/>
<ellipse cx="76.0215" cy="61.9321" rx="5.4707" ry="2.47412" fill="#F5A536"/>
<ellipse cx="32.5723" cy="61.9321" rx="5.4707" ry="2.47412" fill="#F5A536"/>
</svg>
