<svg width="214" height="190" viewBox="0 0 214 190" fill="none" xmlns="http://www.w3.org/2000/svg">
<path d="M206.348 41.7543C201.728 52.8443 193.948 61.6943 186.078 70.4943C184.268 72.5243 182.468 74.5543 180.678 76.6043C179.908 77.4743 179.478 78.2743 180.488 79.4243C186.688 86.4743 191.048 94.7843 196.138 102.594C198.308 105.934 200.428 109.324 202.568 112.684C203.238 113.524 203.518 114.584 204.198 115.424C207.748 122.184 211.028 129.034 213.058 136.454C216.048 147.364 209.548 155.194 200.358 157.964C192.368 160.374 184.518 158.664 176.708 157.034C164.528 154.494 153.308 149.284 142.038 144.264C136.568 141.834 131.208 139.134 125.828 136.474C124.538 135.834 123.908 135.674 123.278 137.364C119.048 148.704 111.458 157.844 103.848 167.004C94.1279 178.704 81.6479 185.674 67.0879 189.334C62.5179 190.484 55.5279 187.634 52.4879 182.834C48.6879 176.824 47.6479 170.154 48.1879 163.054C48.8579 154.104 50.1879 145.274 51.9979 136.494C53.0279 131.504 54.8979 126.784 56.6179 122.024C57.6579 119.164 57.4879 119.254 54.3579 119.404C40.5679 120.074 26.7779 120.454 13.3179 116.464C11.8079 115.854 10.2679 115.284 8.95793 114.264C-4.83207 104.514 -0.702065 88.4843 9.08794 79.6543C21.2579 68.6543 36.2079 63.8543 51.7379 60.3343C53.5079 59.9343 54.0179 59.3043 53.9379 57.4043C53.4279 46.2443 52.8779 35.0543 55.8979 24.1143C58.2579 15.5743 62.6479 8.40428 70.6779 4.08428C80.0979 -0.985725 89.6879 -0.485724 99.2379 3.75428C101.728 4.85428 104.108 6.20427 106.538 7.43427C107.718 8.32427 109.188 8.71427 110.368 9.61427C117.838 13.8143 124.778 18.7143 130.498 25.1643C133.208 28.2143 135.838 31.3243 138.388 34.5043C139.518 35.9143 140.358 36.4943 142.098 35.2343C147.838 31.0743 153.938 27.5043 160.558 24.9143C170.468 21.2743 180.588 18.4343 191.128 17.3143C199.418 16.4343 206.158 20.6343 208.038 28.0843C209.238 32.7643 208.228 37.3443 206.348 41.7543Z" fill="#FEEE59"/>
<path d="M206.348 41.7545C207.148 38.1445 208.288 34.6445 208.108 30.8245C207.768 23.7845 202.058 17.9845 194.968 17.7145C185.268 17.3545 176.208 20.3645 167.058 22.9445C164.888 23.5545 162.868 24.6745 160.568 24.8845C163.628 22.8645 167.198 22.0845 170.628 21.1345C177.398 19.2645 184.248 17.7245 191.218 16.7145C201.658 15.2045 210.278 23.8745 208.628 34.4145C208.238 36.9745 208.108 39.6145 206.348 41.7545Z" fill="#FEF9C9"/>
<path d="M8.95703 114.254C10.547 114.724 12.027 115.394 13.317 116.454C11.527 116.394 10.017 115.774 8.95703 114.254Z" fill="#FEF7BD"/>
<path d="M110.379 9.5843C108.899 9.2143 107.499 8.7143 106.549 7.4043C108.049 7.7443 109.459 8.2243 110.379 9.5843Z" fill="#FEF7B9"/>
<path d="M204.189 115.404C203.139 114.794 202.739 113.794 202.559 112.664C203.659 113.254 204.049 114.254 204.189 115.404Z" fill="#FDF7B8"/>
<path d="M125.768 52.3047C129.038 52.3047 132.048 55.3147 132.088 58.6247C132.128 62.1547 129.198 65.0847 125.668 65.0447C122.188 65.0047 119.558 62.2547 119.598 58.6947C119.628 54.7647 121.998 52.3047 125.768 52.3047Z" fill="#595761"/>
<path d="M79.5077 73.9141C82.7777 74.0441 85.2877 76.7841 85.1177 80.0441C84.9177 83.8741 82.0077 86.6941 78.4477 86.5041C75.3677 86.3341 72.8277 83.6141 72.8777 80.5241C72.9377 77.3341 76.4777 73.7941 79.5077 73.9141Z" fill="#5A5861"/>
<path d="M108.959 92.844C106.509 92.464 103.889 92.124 101.669 90.554C100.909 90.014 99.6686 89.334 100.279 88.244C100.989 86.974 102.029 88.064 102.849 88.444C108.829 91.194 114.319 89.754 117.839 84.444C119.339 82.184 119.819 79.614 120.069 76.984C120.159 76.044 120.289 75.034 121.519 75.104C122.509 75.164 122.819 76.054 122.829 76.904C122.939 85.054 116.669 92.344 108.959 92.844Z" fill="#5C5A60"/>
<path d="M71.6471 103.394C70.6071 102.464 71.4171 101.144 70.8071 99.7239C70.0971 101.094 69.5071 102.264 68.8971 103.414C68.4771 104.214 67.8671 104.744 66.9471 104.224C65.8971 103.644 66.4571 102.834 66.8171 102.144C67.4071 101.034 68.0871 99.9839 68.6771 98.8739C69.6771 97.0039 70.8271 96.9339 72.1871 98.4839C72.5771 100.194 72.7471 101.864 71.6471 103.394Z" fill="#FED359"/>
<path d="M143.068 69.0944C143.078 70.0944 142.848 70.6444 142.188 70.5944C140.418 70.4744 138.988 69.4744 137.568 68.5344C137.138 68.2444 137.178 67.7044 137.548 67.3544C138.548 66.3944 139.578 67.0644 140.578 67.3844C141.678 67.7444 142.878 68.0344 143.068 69.0944Z" fill="#FED059"/>
<path d="M151.038 63.7146C151.188 64.5946 150.578 64.7646 150.058 64.6146C148.478 64.1546 147.108 63.2346 146.118 61.9546C145.788 61.5246 146.488 61.0346 147.068 60.9446C148.268 60.7546 150.978 62.6946 151.038 63.7146Z" fill="#FED159"/>
<path d="M79.2684 98.0141C79.0884 98.8541 78.9184 99.6341 78.7584 100.424C78.6284 101.084 78.7984 102.074 77.7184 101.864C76.9984 101.724 76.5384 100.984 76.6184 100.204C76.7084 99.3241 76.9584 98.4641 77.1684 97.5941C77.3584 96.8241 77.7884 96.2341 78.6684 96.4741C79.4784 96.7041 79.2184 97.4741 79.2684 98.0141Z" fill="#FECF5A"/>
<path d="M143.647 64.1045C144.917 64.4145 146.307 64.7445 146.697 66.2545C146.877 66.9745 146.157 67.4245 145.457 67.1345C144.207 66.6245 142.387 66.7745 142.157 64.9045C142.047 64.0745 142.967 64.1745 143.647 64.1045Z" fill="#FED059"/>
<path d="M71.6488 103.394C71.7788 101.754 71.2888 100.044 72.1988 98.4941C72.9988 98.5341 74.0488 98.4341 73.4688 99.7541C72.9288 100.994 74.1788 103.154 71.6488 103.394Z" fill="#FECF59"/>
</svg>
