<svg width="111" height="111" viewBox="0 0 111 111" fill="none" xmlns="http://www.w3.org/2000/svg">
<mask id="path-1-inside-1_119_216" fill="white">
<path fill-rule="evenodd" clip-rule="evenodd" d="M76.0544 24.0877C76.5185 22.5243 76.7661 20.8804 76.7661 19.1841C76.7661 8.7875 67.4674 0.359375 55.9969 0.359375C44.5264 0.359375 35.2278 8.7875 35.2278 19.1841C35.2278 21.0145 35.516 22.7839 36.0535 24.457C32.3184 21.1925 27.2372 19.1847 21.6386 19.1847C10.1681 19.1847 0.869436 27.6128 0.869436 38.0094C0.869436 45.7996 6.09014 52.4845 13.5334 55.3468C6.05517 58.1949 0.803711 64.8962 0.803711 72.7093C0.803711 83.1059 10.1024 91.534 21.5729 91.534C27.2173 91.534 32.3358 89.4932 36.0793 86.1812C35.5252 87.8777 35.2278 89.6742 35.2278 91.5336C35.2278 101.93 44.5264 110.358 55.9969 110.358C67.4674 110.358 76.7661 101.93 76.7661 91.5336C76.7661 89.8378 76.5187 88.1943 76.0548 86.6313C79.7449 89.6771 84.6505 91.534 90.0346 91.534C101.505 91.534 110.804 83.1059 110.804 72.7093C110.804 64.9077 105.568 58.2145 98.107 55.3593C105.568 52.5041 110.804 45.811 110.804 38.0094C110.804 27.6128 101.505 19.1847 90.0346 19.1847C84.6503 19.1847 79.7445 21.0417 76.0544 24.0877ZM69.9767 77.6116C69.5128 76.0485 69.2654 74.4051 69.2654 72.7093C69.2654 64.9077 74.5015 58.2145 81.9621 55.3593C74.5015 52.5041 69.2654 45.811 69.2654 38.0094C69.2654 36.3131 69.5129 34.6692 69.9771 33.1058C66.287 36.1518 61.3812 38.0089 55.9969 38.0089C50.3983 38.0089 45.3171 36.001 41.5819 32.7365C42.1195 34.4096 42.4077 36.179 42.4077 38.0094C42.4077 45.8225 37.1563 52.5238 29.6781 55.3719C37.1213 58.2342 42.342 64.9191 42.342 72.7093C42.342 74.5687 42.0446 76.3651 41.4905 78.0616C45.2339 74.7497 50.3525 72.7088 55.9969 72.7088C61.381 72.7088 66.2866 74.5658 69.9767 77.6116Z"/>
</mask>
<path fill-rule="evenodd" clip-rule="evenodd" d="M76.0544 24.0877C76.5185 22.5243 76.7661 20.8804 76.7661 19.1841C76.7661 8.7875 67.4674 0.359375 55.9969 0.359375C44.5264 0.359375 35.2278 8.7875 35.2278 19.1841C35.2278 21.0145 35.516 22.7839 36.0535 24.457C32.3184 21.1925 27.2372 19.1847 21.6386 19.1847C10.1681 19.1847 0.869436 27.6128 0.869436 38.0094C0.869436 45.7996 6.09014 52.4845 13.5334 55.3468C6.05517 58.1949 0.803711 64.8962 0.803711 72.7093C0.803711 83.1059 10.1024 91.534 21.5729 91.534C27.2173 91.534 32.3358 89.4932 36.0793 86.1812C35.5252 87.8777 35.2278 89.6742 35.2278 91.5336C35.2278 101.93 44.5264 110.358 55.9969 110.358C67.4674 110.358 76.7661 101.93 76.7661 91.5336C76.7661 89.8378 76.5187 88.1943 76.0548 86.6313C79.7449 89.6771 84.6505 91.534 90.0346 91.534C101.505 91.534 110.804 83.1059 110.804 72.7093C110.804 64.9077 105.568 58.2145 98.107 55.3593C105.568 52.5041 110.804 45.811 110.804 38.0094C110.804 27.6128 101.505 19.1847 90.0346 19.1847C84.6503 19.1847 79.7445 21.0417 76.0544 24.0877ZM69.9767 77.6116C69.5128 76.0485 69.2654 74.4051 69.2654 72.7093C69.2654 64.9077 74.5015 58.2145 81.9621 55.3593C74.5015 52.5041 69.2654 45.811 69.2654 38.0094C69.2654 36.3131 69.5129 34.6692 69.9771 33.1058C66.287 36.1518 61.3812 38.0089 55.9969 38.0089C50.3983 38.0089 45.3171 36.001 41.5819 32.7365C42.1195 34.4096 42.4077 36.179 42.4077 38.0094C42.4077 45.8225 37.1563 52.5238 29.6781 55.3719C37.1213 58.2342 42.342 64.9191 42.342 72.7093C42.342 74.5687 42.0446 76.3651 41.4905 78.0616C45.2339 74.7497 50.3525 72.7088 55.9969 72.7088C61.381 72.7088 66.2866 74.5658 69.9767 77.6116Z" fill="white"/>
<path d="M76.0544 24.0877L75.0958 23.8031L74.1628 26.9458L76.691 24.8589L76.0544 24.0877ZM36.0535 24.457L35.3955 25.21L38.1073 27.5802L37.0056 24.1512L36.0535 24.457ZM13.5334 55.3468L13.8893 56.2813L16.3312 55.3513L13.8923 54.4134L13.5334 55.3468ZM36.0793 86.1812L37.0299 86.4917L38.1721 82.9944L35.4166 85.4323L36.0793 86.1812ZM76.0548 86.6313L76.6914 85.8601L74.1636 83.7736L75.0961 86.9158L76.0548 86.6313ZM98.107 55.3593L97.7496 54.4254L95.3092 55.3593L97.7496 56.2933L98.107 55.3593ZM69.9767 77.6116L69.3401 78.3828L71.8679 80.4692L70.9354 77.3271L69.9767 77.6116ZM81.9621 55.3593L82.3195 56.2933L84.7599 55.3593L82.3195 54.4254L81.9621 55.3593ZM69.9771 33.1058L70.9357 33.3904L71.8687 30.2477L69.3405 32.3346L69.9771 33.1058ZM41.5819 32.7365L42.24 31.9835L39.5282 29.6133L40.6299 33.0424L41.5819 32.7365ZM29.6781 55.3719L29.3222 54.4374L26.8802 55.3674L29.3192 56.3053L29.6781 55.3719ZM41.4905 78.0616L40.5399 77.7512L39.3977 81.2484L42.1531 78.8106L41.4905 78.0616ZM75.7661 19.1841C75.7661 20.7825 75.5329 22.3306 75.0958 23.8031L77.0131 24.3723C77.5041 22.718 77.7661 20.9783 77.7661 19.1841H75.7661ZM55.9969 1.35938C67.0099 1.35938 75.7661 9.43001 75.7661 19.1841H77.7661C77.7661 8.145 67.9249 -0.640625 55.9969 -0.640625V1.35938ZM36.2278 19.1841C36.2278 9.43001 44.9839 1.35938 55.9969 1.35938V-0.640625C44.0689 -0.640625 34.2278 8.145 34.2278 19.1841H36.2278ZM37.0056 24.1512C36.4992 22.575 36.2278 20.9087 36.2278 19.1841H34.2278C34.2278 21.1203 34.5328 22.9928 35.1015 24.7629L37.0056 24.1512ZM21.6386 20.1847C26.9977 20.1847 31.8444 22.1063 35.3955 25.21L36.7116 23.7041C32.7924 20.2786 27.4767 18.1847 21.6386 18.1847V20.1847ZM1.86944 38.0094C1.86944 28.2553 10.6256 20.1847 21.6386 20.1847V18.1847C9.71057 18.1847 -0.130564 26.9703 -0.130564 38.0094H1.86944ZM13.8923 54.4134C6.77614 51.6769 1.86944 45.3258 1.86944 38.0094H-0.130564C-0.130564 46.2733 5.40415 53.2921 13.1744 56.2801L13.8923 54.4134ZM1.80371 72.7093C1.80371 65.3714 6.73938 59.0043 13.8893 56.2813L13.1774 54.4122C5.37096 57.3854 -0.196289 64.421 -0.196289 72.7093H1.80371ZM21.5729 90.534C10.5599 90.534 1.80371 82.4634 1.80371 72.7093H-0.196289C-0.196289 83.7484 9.64485 92.534 21.5729 92.534V90.534ZM35.4166 85.4323C31.858 88.5807 26.9758 90.534 21.5729 90.534V92.534C27.4588 92.534 32.8137 90.4057 36.7419 86.9302L35.4166 85.4323ZM36.2278 91.5336C36.2278 89.7817 36.5079 88.0899 37.0299 86.4917L35.1287 85.8708C34.5425 87.6656 34.2278 89.5667 34.2278 91.5336H36.2278ZM55.9969 109.358C44.9839 109.358 36.2278 101.288 36.2278 91.5336H34.2278C34.2278 102.573 44.0689 111.358 55.9969 111.358V109.358ZM75.7661 91.5336C75.7661 101.288 67.0099 109.358 55.9969 109.358V111.358C67.9249 111.358 77.7661 102.573 77.7661 91.5336H75.7661ZM75.0961 86.9158C75.533 88.388 75.7661 89.9357 75.7661 91.5336H77.7661C77.7661 89.7399 77.5043 88.0006 77.0135 86.3468L75.0961 86.9158ZM90.0346 90.534C84.8809 90.534 80.2008 88.7568 76.6914 85.8601L75.4182 87.4025C79.2889 90.5974 84.42 92.534 90.0346 92.534V90.534ZM109.804 72.7093C109.804 82.4634 101.048 90.534 90.0346 90.534V92.534C101.963 92.534 111.804 83.7484 111.804 72.7093H109.804ZM97.7496 56.2933C104.883 59.0231 109.804 65.3822 109.804 72.7093H111.804C111.804 64.4332 106.253 57.406 98.4644 54.4254L97.7496 56.2933ZM109.804 38.0094C109.804 45.3365 104.883 51.6956 97.7496 54.4254L98.4644 56.2933C106.253 53.3127 111.804 46.2855 111.804 38.0094H109.804ZM90.0346 20.1847C101.048 20.1847 109.804 28.2553 109.804 38.0094H111.804C111.804 26.9703 101.963 18.1847 90.0346 18.1847V20.1847ZM76.691 24.8589C80.2005 21.962 84.8808 20.1847 90.0346 20.1847V18.1847C84.4198 18.1847 79.2885 20.1214 75.4178 23.3165L76.691 24.8589ZM70.9354 77.3271C70.4984 75.8549 70.2654 74.3072 70.2654 72.7093H68.2654C68.2654 74.503 68.5272 76.2422 69.018 77.8961L70.9354 77.3271ZM70.2654 72.7093C70.2654 65.3822 75.1866 59.0231 82.3195 56.2933L81.6047 54.4254C73.8164 57.406 68.2654 64.4332 68.2654 72.7093H70.2654ZM82.3195 54.4254C75.1866 51.6956 70.2654 45.3365 70.2654 38.0094H68.2654C68.2654 46.2855 73.8164 53.3127 81.6047 56.2933L82.3195 54.4254ZM70.2654 38.0094C70.2654 36.411 70.4986 34.863 70.9357 33.3904L69.0184 32.8212C68.5273 34.4755 68.2654 36.2152 68.2654 38.0094H70.2654ZM69.3405 32.3346C65.831 35.2315 61.1507 37.0089 55.9969 37.0089V39.0089C61.6117 39.0089 66.743 37.0721 70.6137 33.877L69.3405 32.3346ZM55.9969 37.0089C50.6378 37.0089 45.7911 35.0872 42.24 31.9835L40.9239 33.4894C44.8431 36.9149 50.1588 39.0089 55.9969 39.0089V37.0089ZM40.6299 33.0424C41.1363 34.6185 41.4077 36.2848 41.4077 38.0094H43.4077C43.4077 36.0732 43.1027 34.2007 42.534 32.4306L40.6299 33.0424ZM41.4077 38.0094C41.4077 45.3473 36.4721 51.7143 29.3222 54.4374L30.034 56.3064C37.8405 53.3333 43.4077 46.2977 43.4077 38.0094H41.4077ZM29.3192 56.3053C36.4353 59.0418 41.342 65.3929 41.342 72.7093H43.342C43.342 64.4454 37.8073 57.4266 30.037 54.4386L29.3192 56.3053ZM41.342 72.7093C41.342 74.4612 41.0619 76.1529 40.5399 77.7512L42.4411 78.3721C43.0273 76.5773 43.342 74.6762 43.342 72.7093H41.342ZM42.1531 78.8106C45.7117 75.6621 50.5939 73.7088 55.9969 73.7088V71.7088C50.111 71.7088 44.7561 73.8372 40.8279 77.3127L42.1531 78.8106ZM55.9969 73.7088C61.1505 73.7088 65.8306 75.486 69.3401 78.3828L70.6132 76.8404C66.7426 73.6455 61.6115 71.7088 55.9969 71.7088V73.7088Z" fill="#F5BF36" mask="url(#path-1-inside-1_119_216)"/>
<circle cx="55.8037" cy="55.3584" r="31.7549" fill="#F5BF36"/>
<ellipse cx="47.2432" cy="48.0918" rx="2.87305" ry="4.53809" fill="black"/>
<ellipse cx="60.8564" cy="48.0918" rx="2.87305" ry="4.53809" fill="black"/>
<path d="M38.167 58.9824C38.167 58.9824 39.9822 70.1756 54.5031 70.1756C69.024 70.1756 70.3857 58.9824 70.3857 58.9824" stroke="black" stroke-linecap="round"/>
<ellipse cx="75.8564" cy="56.5083" rx="5.4707" ry="2.47412" fill="#F5A536"/>
<ellipse cx="32.4072" cy="56.5083" rx="5.4707" ry="2.47412" fill="#F5A536"/>
</svg>
