<svg width="120" height="120" viewBox="0 0 120 120" fill="none" xmlns="http://www.w3.org/2000/svg">
<mask id="path-1-inside-1_697_10925" fill="white">
<path fill-rule="evenodd" clip-rule="evenodd" d="M82.0916 25.8849C82.5978 24.1795 82.8678 22.3864 82.8678 20.5361C82.8678 9.19431 72.7238 0 60.2105 0C47.6973 0 37.5533 9.19431 37.5533 20.5361C37.5533 22.5325 37.8676 24.4624 38.4538 26.2874C34.3792 22.7262 28.8362 20.5359 22.7287 20.5359C10.2155 20.5359 0.0714843 29.7302 0.0714843 41.072C0.0714843 49.571 5.76761 56.8641 13.8884 59.9861C5.72957 63.0928 0 70.4038 0 78.9276C0 90.2694 10.144 99.4637 22.6572 99.4637C28.8148 99.4637 34.3986 97.2374 38.4823 93.6244C37.8778 95.4752 37.5533 97.435 37.5533 99.4636C37.5533 110.805 47.6973 120 60.2105 120C72.7238 120 82.8678 110.805 82.8678 99.4636C82.8678 97.6133 82.5978 95.8202 82.0916 94.1148C86.1172 97.4378 91.469 99.4637 97.3428 99.4637C109.856 99.4637 120 90.2694 120 78.9276C120 70.4163 114.287 63.1142 106.148 59.9998C114.287 56.8854 120 49.5834 120 41.072C120 29.7302 109.856 20.5359 97.3428 20.5359C91.469 20.5359 86.1172 22.5619 82.0916 25.8849ZM75.4618 84.2764C74.9556 82.571 74.6856 80.7779 74.6856 78.9276C74.6856 70.4163 80.3984 63.1142 88.5382 59.9998C80.3984 56.8854 74.6856 49.5834 74.6856 41.072C74.6856 39.2217 74.9556 37.4286 75.4618 35.7232C71.4362 39.0462 66.0844 41.0722 60.2105 41.0722C54.1031 41.0722 48.5601 38.8819 44.4854 35.3207C45.0716 37.1456 45.386 39.0756 45.386 41.072C45.386 49.5959 39.6564 56.9068 31.4976 60.0135C39.6184 63.1356 45.3145 70.4287 45.3145 78.9276C45.3145 80.9562 44.99 82.916 44.3855 84.7668C48.4692 81.1538 54.053 78.9275 60.2105 78.9275C66.0844 78.9275 71.4362 80.9534 75.4618 84.2764Z"/>
</mask>
<path fill-rule="evenodd" clip-rule="evenodd" d="M82.0916 25.8849C82.5978 24.1795 82.8678 22.3864 82.8678 20.5361C82.8678 9.19431 72.7238 0 60.2105 0C47.6973 0 37.5533 9.19431 37.5533 20.5361C37.5533 22.5325 37.8676 24.4624 38.4538 26.2874C34.3792 22.7262 28.8362 20.5359 22.7287 20.5359C10.2155 20.5359 0.0714843 29.7302 0.0714843 41.072C0.0714843 49.571 5.76761 56.8641 13.8884 59.9861C5.72957 63.0928 0 70.4038 0 78.9276C0 90.2694 10.144 99.4637 22.6572 99.4637C28.8148 99.4637 34.3986 97.2374 38.4823 93.6244C37.8778 95.4752 37.5533 97.435 37.5533 99.4636C37.5533 110.805 47.6973 120 60.2105 120C72.7238 120 82.8678 110.805 82.8678 99.4636C82.8678 97.6133 82.5978 95.8202 82.0916 94.1148C86.1172 97.4378 91.469 99.4637 97.3428 99.4637C109.856 99.4637 120 90.2694 120 78.9276C120 70.4163 114.287 63.1142 106.148 59.9998C114.287 56.8854 120 49.5834 120 41.072C120 29.7302 109.856 20.5359 97.3428 20.5359C91.469 20.5359 86.1172 22.5619 82.0916 25.8849ZM75.4618 84.2764C74.9556 82.571 74.6856 80.7779 74.6856 78.9276C74.6856 70.4163 80.3984 63.1142 88.5382 59.9998C80.3984 56.8854 74.6856 49.5834 74.6856 41.072C74.6856 39.2217 74.9556 37.4286 75.4618 35.7232C71.4362 39.0462 66.0844 41.0722 60.2105 41.0722C54.1031 41.0722 48.5601 38.8819 44.4854 35.3207C45.0716 37.1456 45.386 39.0756 45.386 41.072C45.386 49.5959 39.6564 56.9068 31.4976 60.0135C39.6184 63.1356 45.3145 70.4287 45.3145 78.9276C45.3145 80.9562 44.99 82.916 44.3855 84.7668C48.4692 81.1538 54.053 78.9275 60.2105 78.9275C66.0844 78.9275 71.4362 80.9534 75.4618 84.2764Z" fill="white"/>
<path d="M82.0916 25.8849L81.1329 25.6003L80.2002 28.7429L82.7282 26.656L82.0916 25.8849ZM38.4538 26.2874L37.7958 27.0403L40.5073 29.4102L39.4059 25.9815L38.4538 26.2874ZM13.8884 59.9861L14.2442 60.9207L16.6868 59.9906L14.2472 59.0527L13.8884 59.9861ZM38.4823 93.6244L39.4329 93.9349L40.5752 90.4376L37.8197 92.8754L38.4823 93.6244ZM82.0916 94.1148L82.7282 93.3436L80.2002 91.2568L81.1329 94.3993L82.0916 94.1148ZM106.148 59.9998L105.79 59.0659L103.349 59.9998L105.79 60.9338L106.148 59.9998ZM75.4618 84.2764L74.8252 85.0476L77.3532 87.1344L76.4204 83.9919L75.4618 84.2764ZM88.5382 59.9998L88.8955 60.9338L91.3365 59.9998L88.8955 59.0659L88.5382 59.9998ZM75.4618 35.7232L76.4204 36.0078L77.3532 32.8652L74.8252 34.952L75.4618 35.7232ZM44.4854 35.3207L45.1435 34.5677L42.432 32.1979L43.5333 35.6265L44.4854 35.3207ZM31.4976 60.0135L31.1417 59.079L28.6992 60.009L31.1387 60.9469L31.4976 60.0135ZM44.3855 84.7668L43.4349 84.4564L42.2926 87.9537L45.0481 85.5158L44.3855 84.7668ZM81.8678 20.5361C81.8678 22.2884 81.6122 23.9858 81.1329 25.6003L83.0503 26.1694C83.5834 24.3732 83.8678 22.4843 83.8678 20.5361H81.8678ZM60.2105 1C72.2663 1 81.8678 9.83682 81.8678 20.5361H83.8678C83.8678 8.55181 73.1813 -1 60.2105 -1V1ZM38.5533 20.5361C38.5533 9.83682 48.1548 1 60.2105 1V-1C47.2398 -1 36.5533 8.55181 36.5533 20.5361H38.5533ZM39.4059 25.9815C38.8508 24.2536 38.5533 22.4268 38.5533 20.5361H36.5533C36.5533 22.6383 36.8844 24.6713 37.5018 26.5932L39.4059 25.9815ZM22.7287 21.5359C28.5966 21.5359 33.9052 23.6401 37.7958 27.0403L39.1119 25.5344C34.8531 21.8123 29.0757 19.5359 22.7287 19.5359V21.5359ZM1.07148 41.072C1.07148 30.3727 10.673 21.5359 22.7287 21.5359V19.5359C9.75795 19.5359 -0.928516 29.0877 -0.928516 41.072H1.07148ZM14.2472 59.0527C6.45356 56.0564 1.07148 49.0972 1.07148 41.072H-0.928516C-0.928516 50.0447 5.08166 57.6717 13.5295 60.9195L14.2472 59.0527ZM1 78.9276C1 70.879 6.41374 63.9023 14.2442 60.9207L13.5325 59.0516C5.0454 62.2833 -1 69.9285 -1 78.9276H1ZM22.6572 98.4637C10.6015 98.4637 1 89.6269 1 78.9276H-1C-1 90.9119 9.68646 100.464 22.6572 100.464V98.4637ZM37.8197 92.8754C33.9208 96.3249 28.5733 98.4637 22.6572 98.4637V100.464C29.0562 100.464 34.8764 98.1498 39.1449 94.3733L37.8197 92.8754ZM38.5533 99.4636C38.5533 97.5425 38.8605 95.6874 39.4329 93.9349L37.5317 93.3139C36.8951 95.263 36.5533 97.3275 36.5533 99.4636H38.5533ZM60.2105 119C48.1548 119 38.5533 110.163 38.5533 99.4636H36.5533C36.5533 111.448 47.2398 121 60.2105 121V119ZM81.8678 99.4636C81.8678 110.163 72.2663 119 60.2105 119V121C73.1813 121 83.8678 111.448 83.8678 99.4636H81.8678ZM81.1329 94.3993C81.6122 96.0139 81.8678 97.7112 81.8678 99.4636H83.8678C83.8678 97.5154 83.5834 95.6265 83.0503 93.8302L81.1329 94.3993ZM97.3428 98.4637C91.6995 98.4637 86.5732 96.5175 82.7282 93.3436L81.455 94.886C85.6612 98.3581 91.2385 100.464 97.3428 100.464V98.4637ZM119 78.9276C119 89.6269 109.399 98.4637 97.3428 98.4637V100.464C110.314 100.464 121 90.9119 121 78.9276H119ZM105.79 60.9338C113.602 63.9228 119 70.8908 119 78.9276H121C121 69.9417 114.972 62.3057 106.505 59.0659L105.79 60.9338ZM119 41.072C119 49.1089 113.602 56.0768 105.79 59.0659L106.505 60.9338C114.972 57.694 121 50.0579 121 41.072H119ZM97.3428 21.5359C109.399 21.5359 119 30.3727 119 41.072H121C121 29.0877 110.314 19.5359 97.3428 19.5359V21.5359ZM82.7282 26.656C86.5732 23.4821 91.6995 21.5359 97.3428 21.5359V19.5359C91.2385 19.5359 85.6612 21.6416 81.455 25.1137L82.7282 26.656ZM76.4204 83.9919C75.9412 82.3773 75.6856 80.68 75.6856 78.9276H73.6856C73.6856 80.8758 73.9699 82.7648 74.5031 84.561L76.4204 83.9919ZM75.6856 78.9276C75.6856 70.8908 81.0835 63.9228 88.8955 60.9338L88.1808 59.0659C79.7133 62.3057 73.6856 69.9417 73.6856 78.9276H75.6856ZM88.8955 59.0659C81.0835 56.0768 75.6856 49.1089 75.6856 41.072H73.6856C73.6856 50.0579 79.7133 57.694 88.1808 60.9338L88.8955 59.0659ZM75.6856 41.072C75.6856 39.3196 75.9412 37.6223 76.4204 36.0078L74.5031 35.4387C73.9699 37.2349 73.6856 39.1238 73.6856 41.072H75.6856ZM74.8252 34.952C70.9802 38.1259 65.8539 40.0722 60.2105 40.0722V42.0722C66.3149 42.0722 71.8922 39.9665 76.0984 36.4944L74.8252 34.952ZM60.2105 40.0722C54.3426 40.0722 49.034 37.968 45.1435 34.5677L43.8273 36.0737C48.0861 39.7958 53.8636 42.0722 60.2105 42.0722V40.0722ZM43.5333 35.6265C44.0884 37.3545 44.386 39.1813 44.386 41.072H46.386C46.386 38.9698 46.0549 36.9368 45.4375 35.0149L43.5333 35.6265ZM44.386 41.072C44.386 49.1206 38.9722 56.0973 31.1417 59.079L31.8534 60.948C40.3406 57.7164 46.386 50.0711 46.386 41.072H44.386ZM31.1387 60.9469C38.9324 63.9432 44.3145 70.9025 44.3145 78.9276H46.3145C46.3145 69.9549 40.3043 62.3279 31.8564 59.0801L31.1387 60.9469ZM44.3145 78.9276C44.3145 80.8487 44.0073 82.7038 43.4349 84.4564L45.336 85.0773C45.9727 83.1282 46.3145 81.0637 46.3145 78.9276H44.3145ZM45.0481 85.5158C48.947 82.0663 54.2945 79.9275 60.2105 79.9275V77.9275C53.8116 77.9275 47.9914 80.2414 43.7228 84.0179L45.0481 85.5158ZM60.2105 79.9275C65.8539 79.9275 70.9802 81.8737 74.8252 85.0476L76.0984 83.5052C71.8922 80.0332 66.3149 77.9275 60.2105 77.9275V79.9275Z" fill="#F5BF36" mask="url(#path-1-inside-1_697_10925)"/>
<ellipse cx="60.0001" cy="59.9991" rx="34.6417" ry="34.6417" fill="#FFCA43"/>
<ellipse cx="52.5747" cy="52.0717" rx="3.13423" ry="4.95064" fill="#7C5900"/>
<ellipse cx="67.4255" cy="52.0717" rx="3.13423" ry="4.95064" fill="#7C5900"/>
<path fill-rule="evenodd" clip-rule="evenodd" d="M43.4086 66.3438C43.4086 66.3438 43.4086 66.3438 43.4086 66.3438C43.4086 66.3438 43.4086 66.3439 43.4086 66.3439L43.411 66.3552C43.4136 66.3676 43.4183 66.3895 43.4256 66.4203C43.4401 66.4819 43.4647 66.579 43.502 66.7065C43.5767 66.9617 43.7021 67.3373 43.9003 67.7934C44.2969 68.7061 44.9816 69.9342 46.1283 71.1658C48.3961 73.6014 52.5766 76.164 60.2474 76.164C67.9185 76.164 71.9636 73.6022 74.102 71.1847C75.1851 69.9602 75.8095 68.7388 76.162 67.8302C76.3381 67.3762 76.4456 67.0023 76.5081 66.7484C76.5393 66.6215 76.5592 66.525 76.5708 66.4638C76.5766 66.4333 76.5803 66.4116 76.5823 66.3994L76.5837 66.3908C76.5836 66.3914 76.5835 66.3921 77.5739 66.5305L76.5835 66.3921C76.5836 66.3913 76.5837 66.3906 76.5838 66.3898C76.6613 65.8441 77.166 65.4638 77.7123 65.5401C78.2592 65.6165 78.6407 66.1218 78.5643 66.6688L77.5739 66.5305C78.5643 66.6688 78.5642 66.6696 78.5641 66.6703L78.5638 66.6721L78.5632 66.6764L78.5615 66.688L78.556 66.7225C78.5514 66.7506 78.5449 66.7886 78.5359 66.8359C78.518 66.9305 78.4905 67.0624 78.4502 67.2263C78.3695 67.5539 78.2372 68.0107 78.0266 68.5537C77.6055 69.6389 76.8685 71.0758 75.6001 72.5098C73.0355 75.409 68.4174 78.164 60.2474 78.164C52.0772 78.164 47.3471 75.4098 44.6646 72.5287C43.336 71.1018 42.5357 69.6716 42.066 68.5905C41.831 68.0497 41.678 67.5946 41.5825 67.2682C41.5347 67.1049 41.5012 66.9736 41.479 66.8795C41.4679 66.8324 41.4596 66.7946 41.4538 66.7667L41.4468 66.7324L41.4445 66.721L41.4437 66.7168L41.4434 66.715C41.4432 66.7143 41.4431 66.7135 42.4262 66.5305L41.4431 66.7135C41.342 66.1706 41.7002 65.6485 42.2431 65.5474C42.7849 65.4465 43.3059 65.8029 43.4086 66.3438Z" fill="#916800"/>
<ellipse cx="83.6997" cy="61.2528" rx="5.96804" ry="2.69904" fill="#F5A536"/>
<ellipse cx="36.3006" cy="61.2528" rx="5.96804" ry="2.69904" fill="#F5A536"/>
</svg>
