<svg width="57" height="42" viewBox="0 0 57 42" fill="none" xmlns="http://www.w3.org/2000/svg">
<path d="M10.8751 4.44231C12.3472 3.12542 17.7503 6.60489 20.2678 8.50924C23.909 5.79781 32.6949 6.41111 36.6328 7.05669C39.809 3.72557 45.122 3.4738 47.3815 3.7643C50.1703 10.8139 48.5435 13.2864 47.3815 13.6415C57.5298 37.734 38.4405 41.7559 27.6273 40.7553C2.76007 40.1355 4.67747 23.1313 8.74457 14.7066C8.13311 10.0026 9.03507 6.08842 10.8751 4.44231Z" fill="white" stroke="#B4C1D1"/>
<path d="M27.1025 31.1436C27.1025 31.1436 27.6761 32.2747 29.124 32.3291C30.572 32.3835 31.2859 31.1436 31.2859 31.1436" stroke="black" stroke-linecap="round"/>
<path d="M46.6636 25.0869C48.4959 24.1521 51.6226 23.3705 56.2119 24.7074M47.1064 28.8809C49.13 28.7966 50.8409 28.1586 54.6945 30.2721M45.0829 32.7382C47.5701 33.0333 50.6943 32.7382 53.3666 35.9631M10.6836 25.9721C8.11211 25.129 2.47584 23.9486 0.50293 25.9721M13.5292 33.4338C10.4729 34.4244 8.09294 34.1189 4.48673 37.9234M10.6836 29.703C8.51261 29.724 3.91762 30.133 2.90587 31.6" stroke="#B4C1D1" stroke-linecap="round"/>
<path d="M43.8908 6.27672C43.8908 6.27672 43.8828 6.27876 43.8675 6.28285C43.9162 6.34609 44.1832 6.59796 45.248 7.48341C46.9706 8.91597 48.0271 10.824 48.0271 10.824C45.0992 10.9068 39.0314 10.644 39.517 9.26351C40.2056 7.30573 43.556 6.36635 43.8675 6.28285C43.8375 6.24378 43.8908 6.27672 43.8908 6.27672Z" fill="#D6E0ED"/>
<circle cx="17.8919" cy="27.6145" r="2.21316" fill="black"/>
<circle cx="39.7708" cy="27.6145" r="2.21316" fill="black"/>
<circle cx="18.6104" cy="28.6953" r="0.71875" fill="white"/>
<circle cx="40.4893" cy="28.6953" r="0.71875" fill="white"/>
<path d="M53.976 11.9705C53.593 6.70626 46.1594 9.65749 42.4904 11.7911L41.2344 15.2905C41.4637 17.5637 42.7538 22.2895 46.0798 23.0073C50.2373 23.9046 54.4546 18.5508 53.976 11.9705Z" fill="#D9224B"/>
<path d="M25.5206 13.1723C25.5646 18.9721 33.9267 16.2668 38.1022 14.1891L39.7293 10.4416C39.6402 7.93261 38.563 2.65849 34.9672 1.63385C30.4724 0.353055 25.4656 5.92257 25.5206 13.1723Z" fill="#D9224B"/>
<circle cx="40.2874" cy="13.2551" r="5.29421" fill="#CB0A35"/>
<path d="M12.6238 8.17285C12.6238 8.17285 12.6181 8.17875 12.6072 8.1902C12.6817 8.21879 13.0409 8.29446 14.4111 8.49477C16.628 8.81884 18.5245 9.89602 18.5245 9.89602C16.0694 11.4934 10.7549 14.4333 10.4493 13.0022C10.0159 10.9726 12.3849 8.42392 12.6072 8.1902C12.5612 8.17254 12.6238 8.17285 12.6238 8.17285Z" fill="#D6E0ED"/>
</svg>
