<svg width="122" height="110" viewBox="0 0 122 110" fill="none" xmlns="http://www.w3.org/2000/svg">
<path d="M100.229 43.6011C98.7659 28.3869 119.783 26.0861 121.001 43.6011C122.48 59.3621 118.933 74.8981 113.167 83.0779C105.431 94.0527 91.682 96.3738 82.4677 94.9352V87.3812C114.805 83.4963 101.773 59.6588 100.229 43.6011Z" fill="#EBC282" stroke="#CCA66C"/>
<path d="M61.2656 15.9286C49.6585 8.80247 34.8799 12.9594 28.9415 15.9286C25.2765 1.67455 18.7246 0.253019 16.4698 0.657431C6.49242 2.69362 -1.36276 67.6835 2.21709 89.9953C5.79694 112.307 49.3771 111.724 75.693 106.141C107.503 95.8978 76.538 6.76601 72.4657 2.43911C69.2077 -1.02242 63.6415 9.98982 61.2656 15.9286Z" fill="#EBC282" stroke="#CCA66C"/>
<circle cx="27.6409" cy="39.0832" r="4.3684" fill="#8B5E17"/>
<circle cx="61.4768" cy="39.0832" r="4.3684" fill="#8B5E17"/>
<path fill-rule="evenodd" clip-rule="evenodd" d="M41.3664 41.0396C41.133 40.5548 40.5549 40.3401 40.0598 40.5599C39.555 40.7841 39.3275 41.3749 39.5516 41.8797L40.4656 41.4739C39.5516 41.8797 39.552 41.8805 39.5523 41.8812L39.553 41.8828L39.5545 41.8861L39.5578 41.8933L39.5654 41.9095C39.571 41.9213 39.5776 41.9347 39.5853 41.9498C39.6008 41.98 39.6207 42.0167 39.6456 42.059C39.6955 42.1434 39.7655 42.2501 39.8602 42.371C40.0505 42.6135 40.3381 42.9096 40.7569 43.1954C41.6034 43.7729 42.9206 44.2647 44.9198 44.2647C46.9197 44.2647 48.2496 43.7727 49.1086 43.2024C49.5337 42.9201 49.8288 42.6282 50.0253 42.3901C50.1232 42.2714 50.1961 42.1668 50.2482 42.0842C50.2742 42.0429 50.2951 42.0071 50.3113 41.9777C50.3194 41.963 50.3264 41.95 50.3322 41.9386L50.3402 41.923L50.3436 41.9161L50.3452 41.9129L50.3459 41.9114C50.3463 41.9107 50.3466 41.9099 49.4467 41.4739L50.3466 41.9099C50.5875 41.4129 50.3798 40.8148 49.8828 40.574C49.3944 40.3373 48.8084 40.5337 48.5597 41.0122C48.5588 41.0136 48.5578 41.0153 48.5564 41.0175C48.5467 41.0328 48.5232 41.0681 48.4826 41.1173C48.402 41.215 48.2515 41.3708 48.0023 41.5362C47.5126 41.8613 46.5791 42.2647 44.9198 42.2647C43.26 42.2647 42.3501 41.8612 41.8842 41.5433C41.6468 41.3813 41.5069 41.2297 41.4338 41.1364C41.3968 41.0894 41.3761 41.0562 41.3682 41.0427C41.3675 41.0415 41.3669 41.0405 41.3664 41.0396Z" fill="#8B5E17"/>
<path d="M22.6449 61.5684C17.0652 67.5606 9.72896 81.9232 8.625 99.1761C19.3832 111.796 68.3915 110.309 80.3878 102.59C80.3878 90.2929 75.7267 70.0891 65.2522 60.5641C52.1591 48.658 32.6305 50.8445 22.6449 61.5684Z" fill="#FFE6BF"/>
<path d="M76.5421 23.6314C76.5421 23.6314 71.5068 21.4558 65.0935 17.7103C65.0935 17.7103 63.4209 16.8276 66.6775 11.8932C69.9341 6.95878 70.2901 7.60829 70.2901 7.60829C73.5408 8.49175 76.5421 23.6314 76.5421 23.6314Z" fill="#FFE6BF"/>
<path d="M25.8528 16.1207C25.8528 16.1207 17.1343 16.1007 10.719 19.4959C10.719 19.4959 12.7863 10.4757 15.1612 7.16359C17.5362 3.8515 20.6195 6.76 20.6195 6.76C23.5861 8.79417 25.8528 16.1207 25.8528 16.1207Z" fill="#FFE6BF"/>
<path d="M50.9639 20.8192L50.9639 13.196C50.9639 13.196 49.3333 12.9781 48.0074 12.923C46.6814 12.8678 45.3265 12.9229 45.3265 12.9229V21.1849C45.3265 21.1849 45.374 22.8991 48.2744 22.8991C51.1749 22.8991 50.9639 20.8192 50.9639 20.8192Z" fill="#FFE6BF"/>
<path d="M37.5308 21.5567V13.9362C37.5308 13.9362 38.6182 13.6457 40.1461 13.4013C41.6739 13.157 43.1624 13.0186 43.1624 13.0186V21.8916C43.1624 21.8916 41.8279 23.3188 40.1461 23.3188C38.4643 23.3188 37.5308 21.5567 37.5308 21.5567Z" fill="#FFE6BF"/>
<circle cx="62.9297" cy="40.8296" r="1.45263" fill="white"/>
<circle cx="28.7534" cy="40.8296" r="1.45263" fill="white"/>
<path d="M108.919 32.3162C101.839 33.5235 99.5531 39.8239 101.977 48.8909C101.977 48.8909 106.049 51.5363 108.649 55.0634C111.249 58.5904 112 65.9172 112 65.9172C117.926 61.6376 119.883 50.623 119.974 48.8909C120.349 41.7485 119.47 39.6031 118.824 38.0493C117.588 35.0718 113.7 31.501 108.919 32.3162Z" fill="#FFE6BF"/>
</svg>
