<svg width="131" height="83" viewBox="0 0 131 83" fill="none" xmlns="http://www.w3.org/2000/svg">
<path d="M8.17656 16.375C9.23125 16.4141 10.1297 16.8047 10.8719 17.5469C11.6141 18.25 12.0047 19.1289 12.0437 20.1836V25.2812H30.2078C32.9422 25.3203 35.1883 26.1016 36.9461 27.625C38.743 29.1094 40.0125 30.7891 40.7547 32.6641C41.5359 34.5781 41.9266 36.5508 41.9266 38.582H41.9852V48.7773C41.9852 49.8711 41.575 50.7891 40.7547 51.5312C39.9734 52.2344 39.0359 52.5859 37.9422 52.5859C35.5984 52.3906 34.3094 51.1211 34.075 48.7773V38.5234C34.075 37.7812 33.9187 37 33.6062 36.1797C33.3328 35.3594 32.9227 34.6562 32.3758 34.0703C31.8289 33.4453 31.1844 33.1328 30.4422 33.1328H12.0437V48.8945C11.8094 51.2383 10.5203 52.5078 8.17656 52.7031C7.08281 52.7031 6.12578 52.3516 5.30547 51.6484C4.52422 50.9062 4.13359 49.9883 4.13359 48.8945V20.1836C4.17265 19.0898 4.58281 18.1914 5.36406 17.4883C6.14531 16.7461 7.08281 16.375 8.17656 16.375ZM92.9219 48.7773V34.6562C92.9219 33.6797 92.4141 33.1719 91.3984 33.1328H70.8906C70.1484 33.1719 69.5039 33.5039 68.957 34.1289C68.4102 34.7148 68 35.418 67.7266 36.2383C67.4922 37.0195 67.375 37.8203 67.375 38.6406C67.375 39.4219 67.4922 40.2227 67.7266 41.043C68 41.8242 68.4102 42.5273 68.957 43.1523C69.5039 43.7383 70.1484 44.0312 70.8906 44.0312H85.8906C86.9844 44.0312 87.9023 44.4219 88.6445 45.2031C89.4258 45.9453 89.8164 46.8633 89.8164 47.957C89.8164 49.0508 89.4258 49.9688 88.6445 50.7109C87.9023 51.4922 86.9844 51.8828 85.8906 51.8828H71.125C68.3906 51.8438 66.125 51.082 64.3281 49.5977C62.5703 48.0742 61.3008 46.375 60.5195 44.5C59.7773 42.5859 59.4062 40.6133 59.4062 38.582C59.4062 36.6289 59.7969 34.7148 60.5781 32.8398C61.3594 30.9258 62.6289 29.2266 64.3867 27.7422C66.1445 26.2188 68.7422 25.3984 72.1797 25.2812H96.7891C97.8828 25.2812 98.8203 25.6523 99.6016 26.3945C100.383 27.0977 100.793 27.9961 100.832 29.0898V48.7773C100.832 49.8711 100.422 50.7891 99.6016 51.5312C98.8203 52.2344 97.8828 52.5859 96.7891 52.5859C94.4453 52.3906 93.1562 51.1211 92.9219 48.7773ZM123.234 24.6953C124.288 24.7344 125.187 25.125 125.929 25.8672C126.671 26.5703 127.062 27.4492 127.101 28.5039V48.7773C126.866 51.1211 125.577 52.3906 123.234 52.5859C122.14 52.5859 121.183 52.2344 120.362 51.5312C119.581 50.7891 119.191 49.8711 119.191 48.7773V28.5039C119.23 27.4102 119.64 26.5117 120.421 25.8086C121.202 25.0664 122.14 24.6953 123.234 24.6953ZM118.312 17.0781C118.312 15.9844 118.78 15.0469 119.718 14.2656C120.655 13.4844 121.788 13.0938 123.116 13.0938C124.445 13.0938 125.577 13.4844 126.515 14.2656C127.452 15.0469 127.921 15.9844 127.921 17.0781C127.921 18.2109 127.452 19.168 126.515 19.9492C125.577 20.7305 124.445 21.1211 123.116 21.1211C121.788 21.1211 120.655 20.7305 119.718 19.9492C118.78 19.168 118.312 18.2109 118.312 17.0781Z" fill="#292752" fill-opacity="0.2"/>
<path d="M5.95801 63.7207C6.39095 62.627 7.12012 61.6471 8.14551 60.7812C9.19368 59.8926 10.5153 59.4368 12.1104 59.4141H24.9619C25.5999 59.4141 26.1354 59.6419 26.5684 60.0977C27.0241 60.5306 27.252 61.0661 27.252 61.7041C27.252 62.3421 27.0241 62.889 26.5684 63.3447C26.1354 63.7777 25.5999 63.9941 24.9619 63.9941H11.9736C11.5407 63.9941 11.1647 64.1764 10.8457 64.541C10.5267 64.8828 10.276 65.293 10.0938 65.7715C9.93424 66.25 9.85449 66.7057 9.85449 67.1387V73.1201C9.71777 74.4873 8.96582 75.2279 7.59863 75.3418C6.96061 75.3418 6.40234 75.1367 5.92383 74.7266C5.4681 74.2936 5.24023 73.7581 5.24023 73.1201V67.1729H5.27441C5.27441 65.988 5.50228 64.8372 5.95801 63.7207ZM54.9922 73.1201V64.8828C54.9922 64.3132 54.696 64.0169 54.1035 63.9941H42.1406C41.7077 64.0169 41.3317 64.2106 41.0127 64.5752C40.6937 64.917 40.4544 65.3271 40.2949 65.8057C40.1582 66.2614 40.0898 66.7285 40.0898 67.207C40.0898 67.6628 40.1582 68.1299 40.2949 68.6084C40.4544 69.0641 40.6937 69.4743 41.0127 69.8389C41.3317 70.1807 41.7077 70.3516 42.1406 70.3516H50.8906C51.5286 70.3516 52.0641 70.5794 52.4971 71.0352C52.9528 71.4681 53.1807 72.0036 53.1807 72.6416C53.1807 73.2796 52.9528 73.8151 52.4971 74.248C52.0641 74.7038 51.5286 74.9316 50.8906 74.9316H42.2773C40.6823 74.9089 39.3607 74.4645 38.3125 73.5986C37.2871 72.71 36.5465 71.7188 36.0908 70.625C35.6579 69.5085 35.4414 68.3577 35.4414 67.1729C35.4414 66.0335 35.6693 64.917 36.125 63.8232C36.5807 62.7067 37.3213 61.7155 38.3467 60.8496C39.3721 59.9609 40.8874 59.4824 42.8926 59.4141H57.248C57.8861 59.4141 58.4329 59.6305 58.8887 60.0635C59.3444 60.4736 59.5837 60.9977 59.6064 61.6357V73.1201C59.6064 73.7581 59.3672 74.2936 58.8887 74.7266C58.4329 75.1367 57.8861 75.3418 57.248 75.3418C55.8809 75.2279 55.1289 74.4873 54.9922 73.1201ZM80.1689 58.9014C81.3538 58.9014 82.516 59.0381 83.6553 59.3115C84.8174 59.585 85.9225 59.9951 86.9707 60.542C88.0189 61.0661 88.9417 61.7725 89.7393 62.6611C90.5596 63.5498 91.0039 64.6094 91.0723 65.8398V67.2754V73.1201C90.9355 74.4873 90.1836 75.2279 88.8164 75.3418C88.1784 75.3418 87.6201 75.1367 87.1416 74.7266C86.6859 74.2936 86.458 73.7581 86.458 73.1201V71.6162V66.8994C86.4124 66.193 86.139 65.612 85.6377 65.1562C85.1592 64.6777 84.6123 64.3018 83.9971 64.0283C83.4046 63.7549 82.778 63.5498 82.1172 63.4131C81.4792 63.2764 80.8298 63.208 80.1689 63.208C79.5081 63.208 78.8473 63.2764 78.1865 63.4131C77.5485 63.5498 76.9219 63.7549 76.3066 64.0283C75.7142 64.3018 75.1673 64.6777 74.666 65.1562C74.1875 65.612 73.9255 66.193 73.8799 66.8994V71.6162V73.1201C73.766 74.4873 73.0254 75.2279 71.6582 75.3418C71.0202 75.3418 70.4619 75.1367 69.9834 74.7266C69.5277 74.2936 69.2998 73.7581 69.2998 73.1201V67.2754V65.8398C69.3682 64.6094 69.8011 63.5498 70.5986 62.6611C71.3962 61.7725 72.319 61.0661 73.3672 60.542C74.4154 59.9951 75.5091 59.585 76.6484 59.3115C77.8105 59.0381 78.984 58.9014 80.1689 58.9014ZM119.838 64.8828C119.838 64.3132 119.542 64.0169 118.949 63.9941H106.986C106.553 64.0169 106.177 64.2106 105.858 64.5752C105.539 64.917 105.3 65.3271 105.141 65.8057C105.004 66.2614 104.936 66.7285 104.936 67.207C104.936 67.6628 105.004 68.1299 105.141 68.6084C105.3 69.0641 105.539 69.4743 105.858 69.8389C106.177 70.1807 106.553 70.3516 106.986 70.3516H115.736C116.374 70.3516 116.91 70.5794 117.343 71.0352C117.799 71.4681 118.026 72.0036 118.026 72.6416C118.026 73.2796 117.799 73.8151 117.343 74.248C116.91 74.7038 116.374 74.9316 115.736 74.9316H107.123C105.528 74.9089 104.206 74.4645 103.158 73.5986C102.133 72.71 101.392 71.7188 100.937 70.625C100.504 69.5085 100.287 68.3577 100.287 67.1729C100.287 66.0335 100.515 64.917 100.971 63.8232C101.426 62.7067 102.167 61.7155 103.192 60.8496C104.218 59.9609 105.733 59.4824 107.738 59.4141H122.094C122.732 59.4141 123.279 59.6305 123.734 60.0635C124.19 60.4736 124.429 60.9977 124.452 61.6357V72.4365C124.452 74.2594 124.201 75.9798 123.7 77.5977C123.244 79.0332 122.493 80.2409 121.444 81.2207C120.419 82.2233 119.109 82.7702 117.514 82.8613H105.688C105.072 82.8385 104.548 82.6107 104.115 82.1777C103.705 81.7676 103.489 81.2549 103.466 80.6396C103.466 80.0016 103.671 79.4548 104.081 78.999C104.514 78.5433 105.049 78.304 105.688 78.2812H116.352C117.217 78.2357 117.935 77.9053 118.505 77.29C119.075 76.6748 119.439 75.957 119.599 75.1367C119.758 74.3164 119.838 73.2568 119.838 71.958V64.8828Z" fill="#292752" fill-opacity="0.2"/>
</svg>
