<svg width="72" height="73" viewBox="0 0 72 73" fill="none" xmlns="http://www.w3.org/2000/svg">
<path fill-rule="evenodd" clip-rule="evenodd" d="M41.918 25.0902C39.7683 24.1415 37.4369 23.6172 35.0638 23.6172H34.8138C24.9135 23.6172 16.6207 31.712 16.6938 41.9227V50.3143L19.6938 47.3143V41.9172H19.6939L19.6938 41.906C19.6301 33.3794 26.556 26.6172 34.8138 26.6172H35.0638C36.6055 26.6172 38.1405 26.8896 39.6071 27.401L41.918 25.0902Z" fill="black"/>
<path d="M47.3839 65.1759H14.0239L14.0039 64.2859L18.1939 58.5459V56.0027M55.9239 65.1059L51.3039 58.5459V41.6959C51.3202 36.5584 48.9809 32.1065 45.5039 29.1133" stroke="black" stroke-width="3" stroke-miterlimit="10" stroke-linecap="round"/>
<path d="M34.8137 70.9973C31.9337 70.9973 29.6737 68.8373 29.5137 66.0273" stroke="black" stroke-width="3" stroke-miterlimit="10" stroke-linecap="round"/>
<path d="M34.6934 70.9973C37.5734 70.9973 39.8333 68.8373 39.9933 66.0273" stroke="black" stroke-width="3" stroke-miterlimit="10" stroke-linecap="round"/>
<path d="M49.1924 7.87702C41.1924 -0.112981 28.3324 0.207019 20.7324 7.87702" stroke="black" stroke-width="3" stroke-miterlimit="10" stroke-linecap="round"/>
<path d="M42.4938 15.8763C38.6738 11.9463 31.8438 11.4963 27.4238 15.8763" stroke="black" stroke-width="3" stroke-miterlimit="10" stroke-linecap="round"/>
<path d="M68.5273 5.47656L3.47352 70.5304" stroke="black" stroke-width="3"/>
</svg>
