<svg width="24" height="24" viewBox="0 0 24 24" fill="none" xmlns="http://www.w3.org/2000/svg">
<path d="M9.08619 12.2525C8.79769 9.65256 11.5473 7.56767 15.2336 7.59589C18.9164 7.62411 22.1362 9.75486 22.4247 12.3513C22.7132 14.9512 19.9636 17.0361 16.2772 17.0079C12.5944 16.9797 9.37468 14.8524 9.08619 12.249M23.1085 13.0604C22.7737 9.83953 19.0696 7.19726 14.8312 7.16198C10.5928 7.1267 7.42644 9.71253 7.75768 12.9369C8.09248 16.1612 11.7966 18.8035 16.0386 18.8353C20.277 18.8705 23.4433 16.2847 23.1121 13.0604" fill="#BFBFBF"/>
<path d="M16.7079 18.9021C14.6208 21.0611 11.2693 21.241 9.22485 19.3007C7.17688 17.364 7.2125 14.0373 9.29965 11.8784C11.3868 9.71938 14.7383 9.543 16.7827 11.4797C18.8271 13.42 18.7951 16.7431 16.7044 18.9021M8.97553 11.8078C6.55003 14.3196 6.50729 18.1824 8.88649 20.4366C11.2657 22.6909 15.1586 22.4827 17.5877 19.971C20.0167 17.4592 20.0559 13.5964 17.6767 11.3421C15.3011 9.08792 11.4046 9.29605 8.97909 11.8078" fill="#B4B4B4"/>
<path d="M9.19578 3.72193C13.5375 2.10975 17.8329 3.73957 18.7874 7.36255C19.7419 10.9855 16.9959 15.2294 12.6542 16.8416C8.31249 18.4573 4.02066 16.8239 3.06256 13.201C2.10803 9.57797 4.85409 5.33411 9.19578 3.72193ZM5.16396 5.10833C0.654866 8.63959 -0.488435 13.7583 2.59954 16.5382C5.69109 19.3181 11.8457 18.7113 16.3548 15.1765C20.8603 11.6417 22.0072 6.52295 18.9156 3.7431C15.8241 0.963241 9.66949 1.57354 5.16396 5.10833Z" fill="#898989"/>
</svg>
