<svg width="24" height="24" viewBox="0 0 24 24" fill="none" xmlns="http://www.w3.org/2000/svg">
<path d="M9.08667 12.253C8.79818 9.65305 11.5478 7.56816 15.2341 7.59638C18.9169 7.6246 22.1367 9.75535 22.4252 12.3518C22.7137 14.9517 19.9641 17.0366 16.2777 17.0084C12.5949 16.9802 9.37517 14.8529 9.08667 12.2495M23.109 13.0608C22.7742 9.84002 19.0701 7.19774 14.8317 7.16247C10.5933 7.12719 7.42693 9.71302 7.75817 12.9374C8.09296 16.1617 11.7971 18.804 16.0391 18.8357C20.2775 18.871 23.4438 16.2852 23.1126 13.0608" fill="#FBB584"/>
<path d="M16.7079 18.9026C14.6208 21.0615 11.2693 21.2415 9.22485 19.3012C7.17688 17.3645 7.2125 14.0378 9.29965 11.8788C11.3868 9.71987 14.7383 9.54348 16.7827 11.4802C18.8271 13.4205 18.7951 16.7436 16.7044 18.9026M8.97553 11.8083C6.55003 14.32 6.50729 18.1829 8.88649 20.4371C11.2657 22.6914 15.1586 22.4832 17.5877 19.9715C20.0167 17.4597 20.0559 13.5969 17.6767 11.3426C15.3011 9.08841 11.4046 9.29654 8.97909 11.8083" fill="#F89B6C"/>
<path d="M9.19627 3.72193C13.538 2.10975 17.8334 3.73957 18.7879 7.36255C19.7424 10.9855 16.9964 15.2294 12.6547 16.8416C8.31297 18.4573 4.02114 16.8239 3.06305 13.201C2.10852 9.57797 4.85458 5.33411 9.19627 3.72193ZM5.16445 5.10833C0.655354 8.63959 -0.487946 13.7583 2.60003 16.5382C5.69157 19.3181 11.8462 18.7113 16.3553 15.1765C20.8608 11.6417 22.0076 6.52295 18.9161 3.7431C15.8246 0.963241 9.66997 1.57354 5.16445 5.10833Z" fill="#F37321"/>
</svg>
