<svg width="24" height="24" viewBox="0 0 24 24" fill="none" xmlns="http://www.w3.org/2000/svg">
<g clip-path="url(#clip0_1035_3079)">
<path d="M15.3594 19.6406L14.8906 19.5938C14.5938 19.5781 14.1797 19.5547 13.6484 19.5234C13.1328 19.5078 12.6172 19.5 12.1016 19.5C11.7734 19.5 11.4375 19.5 11.0938 19.5C10.7656 19.5156 10.4688 19.5312 10.2031 19.5469C9.95312 19.5625 9.72656 19.5781 9.52344 19.5938C9.32031 19.6094 9.15625 19.6172 9.03125 19.6172C8.90625 19.6328 8.83594 19.6406 8.82031 19.6406C8.50781 19.6406 8.35156 19.4375 8.35156 19.0312C8.35156 18.7812 8.41406 18.625 8.53906 18.5625C8.67969 18.5 8.99219 18.4531 9.47656 18.4219C9.74219 18.4062 9.95312 18.3906 10.1094 18.375C10.4375 18.3438 10.6484 18.2578 10.7422 18.1172C10.8516 17.9766 10.9062 17.7656 10.9062 17.4844V5.32031C10.9062 5.16406 10.8984 5.04688 10.8828 4.96875C10.8672 4.89062 10.8047 4.80469 10.6953 4.71094C10.6016 4.61719 10.4609 4.57031 10.2734 4.57031H6.6875C6.39062 4.57031 6.1875 4.60938 6.07812 4.6875C5.96875 4.75 5.86719 4.875 5.77344 5.0625C5.11719 6.35938 4.76562 7.03906 4.71875 7.10156C4.60938 7.22656 4.47656 7.28906 4.32031 7.28906C4.16406 7.28906 4.03125 7.23438 3.92188 7.125C3.82812 7 3.78125 6.85156 3.78125 6.67969V6.65625C3.78125 6.59375 4.01562 5.49219 4.48438 3.35156C4.53125 3.10156 4.69531 2.97656 4.97656 2.97656H18.9688C19.2344 2.97656 19.3984 3.16406 19.4609 3.53906C19.8516 5.57031 20.0469 6.59375 20.0469 6.60938C20.0469 6.75 20 6.875 19.9062 6.98438C19.8125 7.09375 19.7031 7.14844 19.5781 7.14844C19.3906 7.14844 19.2109 6.99219 19.0391 6.67969C18.9453 6.52344 18.8438 6.35156 18.7344 6.16406C18.625 5.96094 18.5391 5.8125 18.4766 5.71875C18.4297 5.60938 18.3672 5.49219 18.2891 5.36719C18.2266 5.22656 18.1719 5.13281 18.125 5.08594C18.0781 5.02344 18.0312 4.96094 17.9844 4.89844C17.9375 4.82031 17.8906 4.77344 17.8438 4.75781C17.8125 4.72656 17.7734 4.69531 17.7266 4.66406C17.6797 4.63281 17.625 4.61719 17.5625 4.61719C17.5156 4.60156 17.4609 4.59375 17.3984 4.59375C17.3516 4.57812 17.2891 4.57031 17.2109 4.57031H13.6719C13.5156 4.57031 13.3906 4.60938 13.2969 4.6875C13.2188 4.76562 13.1719 4.84375 13.1562 4.92188C13.1562 4.98438 13.1562 5.08594 13.1562 5.22656V17.7891C13.1562 18.0391 13.2266 18.1953 13.3672 18.2578C13.5234 18.3203 13.9219 18.375 14.5625 18.4219C14.8906 18.4531 15.1484 18.4766 15.3359 18.4922C15.5078 18.5078 15.6172 18.5625 15.6641 18.6562C15.7266 18.75 15.7578 18.9219 15.7578 19.1719C15.7578 19.4844 15.625 19.6406 15.3594 19.6406Z" fill="#FF6600"/>
</g>
<defs>
<clipPath id="clip0_1035_3079">
<rect width="24" height="24" fill="white"/>
</clipPath>
</defs>
</svg>
