<svg width="24" height="24" viewBox="0 0 24 24" fill="none" xmlns="http://www.w3.org/2000/svg">
<path d="M9.45301 10.04C8.75301 10.04 8.17301 9.81 7.71301 9.35C7.27301 8.89 7.05301 8.23 7.05301 7.37C7.05301 6.45 7.31301 5.54 7.83301 4.64C8.37301 3.74 9.12301 3.04 10.083 2.54L10.773 3.59C9.73301 4.31 9.11301 5.22 8.91301 6.32C9.09301 6.24 9.30301 6.2 9.54301 6.2C10.103 6.2 10.563 6.38 10.923 6.74C11.283 7.1 11.463 7.56 11.463 8.12C11.463 8.68 11.273 9.14 10.893 9.5C10.513 9.86 10.033 10.04 9.45301 10.04ZM3.93301 10.04C3.23301 10.04 2.65301 9.81 2.19301 9.35C1.75301 8.89 1.53301 8.23 1.53301 7.37C1.53301 6.45 1.79301 5.54 2.31301 4.64C2.85301 3.74 3.60301 3.04 4.56301 2.54L5.25301 3.59C4.21301 4.31 3.59301 5.22 3.39301 6.32C3.57301 6.24 3.78301 6.2 4.02301 6.2C4.58301 6.2 5.04301 6.38 5.40301 6.74C5.76301 7.1 5.94301 7.56 5.94301 8.12C5.94301 8.68 5.75301 9.14 5.37301 9.5C4.99301 9.86 4.51301 10.04 3.93301 10.04Z" fill="#FF6600"/>
<path d="M6 12.4865V22H21V6H14.2258" stroke="#FF6600"/>
<path d="M9 14H18" stroke="#FF6600"/>
<path d="M9 17H18" stroke="#FF6600"/>
</svg>
