<svg width="24" height="25" viewBox="0 0 24 25" fill="none" xmlns="http://www.w3.org/2000/svg">
<path d="M20 16.8638H4C2.067 16.8638 0.5 18.4308 0.5 20.3638C0.5 22.2968 2.067 23.8638 4 23.8638H20C21.933 23.8638 23.5 22.2968 23.5 20.3638C23.5 18.4308 21.933 16.8638 20 16.8638Z" stroke="#ffffff"/>
<path d="M9.11204 5.60354C4.47749 8.52225 4.48389 12.949 4 15.7036H20.3314C20.3314 15.7036 20.5156 12.3308 19.3361 10.9436C18.1566 9.55638 16.7801 9.16831 16.7801 7.61157C16.7801 6.72993 17.1539 6.66198 18 6L17.1539 5.00014L16.7801 3.5C14.8528 3.5 12.4401 3.50758 9.11204 5.60354Z" stroke="#ffffff"/>
<circle cx="19.3633" cy="4" r="3.5" fill="#FFF2EA" stroke="#ffffff"/>
</svg>
