<svg width="24" height="24" viewBox="0 0 24 24" fill="none" xmlns="http://www.w3.org/2000/svg">
<path d="M7.14286 6.20001L3.12962 13.2232C0.843938 17.2231 3.73214 22.2 8.33908 22.2H15.6609C20.2679 22.2 23.1561 17.2231 20.8704 13.2232L16.8571 6.20001" stroke="black"/>
<path d="M10.8253 10.5538V11.6017H7.44764V10.5538H10.8253ZM7.36625 15.3253V14.135H8.18015V15.3558C8.18015 16.4139 8.11911 17.6347 7.70199 18.6012C7.54938 18.4283 7.21365 18.1739 7 18.0518C7.31539 17.2379 7.36625 16.2002 7.36625 15.3253ZM10.0725 17.6856V14.1248H10.866V17.6856H10.0725ZM7.1933 13.6263V12.558H10.9678V13.6263H9.63499V19.4151H8.61762V13.6263H7.1933ZM13.1958 15.8238H12.2293V16.5054H13.1958V15.8238ZM15.2305 16.5054V15.8238H14.2335V16.5054H15.2305ZM14.2335 18.1332H15.2305V17.4414H14.2335V18.1332ZM12.2293 17.4414V18.1332H13.1958V17.4414H12.2293ZM11.1814 19.4151V14.8675H16.3293V19.4151H15.2305V19.0794H12.2293V19.4151H11.1814ZM14.8338 13.5347V12.792H12.6464V13.5347H14.8338ZM11.5578 11.9171H15.9834V14.4097H11.5578V11.9171ZM11.1204 10.3809H16.37V11.3881H11.1204V10.3809Z" fill="black"/>
<path d="M6.36038 6.5L4.69371 1.5H19.3063L17.6396 6.5H6.36038Z" stroke="black" stroke-linejoin="bevel"/>
</svg>
