<svg width="24" height="24" viewBox="0 0 24 24" fill="none" xmlns="http://www.w3.org/2000/svg">
<path fill-rule="evenodd" clip-rule="evenodd" d="M5.16839 5.82025C4.85823 5.41858 4.28457 5.32423 3.8605 5.61456C3.42091 5.91551 3.30852 6.51583 3.60947 6.95543L8.02211 13.4009C8.17811 13.6288 8.11985 13.9399 7.89199 14.0959C7.66413 14.2519 7.35295 14.1937 7.19696 13.9658L5.29247 11.184C5.28243 11.1719 5.27287 11.1593 5.26383 11.1461L4.98804 10.7432C4.68709 10.3036 4.08677 10.1912 3.64718 10.4922C3.20758 10.7931 3.09519 11.3935 3.39614 11.833L5.87825 15.4586C5.88338 15.4661 5.88828 15.4737 5.89295 15.4814L7.43882 17.7394C9.46676 20.7016 13.512 21.4589 16.4742 19.431L17.0073 19.066C19.9695 17.0381 20.7269 12.9928 18.6989 10.0306L17.1375 7.74983L17.1393 7.74862L15.7611 5.7356C15.4602 5.29601 14.8599 5.18361 14.4203 5.48456C13.9807 5.78551 13.8683 6.38584 14.1692 6.82543L15.5482 8.83964L15.789 9.19145L15.4797 9.48487C15.2361 9.71589 14.8245 10.2545 14.6331 10.9495C14.4475 11.6231 14.4661 12.4443 15.0617 13.3143C15.2177 13.5421 15.1594 13.8533 14.9315 14.0093C14.7037 14.1653 14.3925 14.107 14.2365 13.8792C13.4531 12.7349 13.416 11.6024 13.669 10.684C13.8539 10.0126 14.1924 9.45631 14.4995 9.07803L13.3612 7.41533C13.3549 7.40724 13.3488 7.39891 13.3429 7.39034L10.0335 2.55623C9.73251 2.11664 9.13219 2.00425 8.6926 2.3052C8.25749 2.60308 8.14294 3.19426 8.43248 3.63256L12.3028 9.28584C12.4588 9.5137 12.4005 9.82488 12.1727 9.98087C11.9448 10.1369 11.6336 10.0786 11.4776 9.85075L7.97772 4.7385L7.97099 4.72891L7.61641 4.21097L7.6034 4.19173L7.06498 3.40527C6.76403 2.96568 6.1637 2.85329 5.72411 3.15423C5.28452 3.45518 5.17213 4.05551 5.47307 4.4951L5.97999 5.23554C5.99586 5.25685 6.01138 5.27856 6.02652 5.30068L9.92698 10.998C10.083 11.2259 10.0247 11.5371 9.79686 11.6931C9.569 11.8491 9.25783 11.7908 9.10183 11.5629L5.22359 5.89805C5.2152 5.88768 5.20717 5.87689 5.1995 5.8657L5.16839 5.82025ZM13.2017 5.41382L10.8586 1.99132C10.2457 1.09601 9.023 0.867105 8.12769 1.48004C7.79853 1.70539 7.55944 2.01315 7.41915 2.35676C6.76621 1.88552 5.86188 1.84802 5.1592 2.32908C4.4565 2.81016 4.16432 3.66684 4.36747 4.44604C3.99697 4.45286 3.62423 4.56442 3.2956 4.7894C2.40028 5.40234 2.17138 6.62502 2.78432 7.52033L4.02352 9.33043C3.69666 9.35827 3.37229 9.46848 3.08227 9.66703C2.18696 10.28 1.95805 11.5026 2.57099 12.398L5.05282 16.0231L5.05222 16.0235L6.61367 18.3043C8.95359 21.7222 13.6212 22.5961 17.0391 20.2561L17.5723 19.8912C20.9902 17.5512 21.864 12.8836 19.5241 9.4657L18.4311 7.86915C18.4236 7.85567 18.4154 7.84243 18.4065 7.82945L16.5863 5.17069C15.9733 4.27538 14.7507 4.04647 13.8554 4.65941C13.5658 4.85766 13.3459 5.1197 13.2017 5.41382ZM16.5994 2.94328C15.6434 2.64178 14.6564 2.78858 14.1553 2.92327L13.8958 1.95755C14.4948 1.79654 15.6927 1.60878 16.9002 1.98959C18.1476 2.38303 19.3418 3.36555 19.8922 5.41326L18.9265 5.67284C18.4631 3.94881 17.5153 3.23216 16.5994 2.94328ZM8.79297 22.695C8.7869 22.1951 8.78714 22.1951 8.78737 22.1951L8.78778 22.1951L8.78835 22.1951L8.78538 22.1951L8.76493 22.1948C8.74519 22.1943 8.71353 22.1932 8.67123 22.1906C8.58655 22.1854 8.45973 22.1742 8.30094 22.15C7.98265 22.1016 7.5405 22.0017 7.0534 21.7968C6.08747 21.3906 4.93333 20.5685 4.20598 18.8725L3.28693 19.2666C4.13252 21.2383 5.50163 22.229 6.66572 22.7186C7.24364 22.9616 7.76819 23.0804 8.15035 23.1386C8.34178 23.1678 8.49863 23.1819 8.61006 23.1888C8.66581 23.1922 8.71032 23.1938 8.74223 23.1945C8.75819 23.1949 8.77102 23.195 8.78054 23.1951L8.79233 23.1951L8.79633 23.195L8.79785 23.195L8.79849 23.195C8.79877 23.195 8.79905 23.195 8.79297 22.695Z" fill="black"/>
</svg>
