<svg width="50" height="46" viewBox="0 0 50 46" fill="none" xmlns="http://www.w3.org/2000/svg">
<path d="M16.5567 6.49707C16.5567 6.49707 17.4469 14.6442 21.2396 18.3716C25.0323 22.0989 33.1133 23.0548 33.1133 23.0548C33.1133 23.0548 25.0323 24.2034 21.2396 27.738C17.4469 31.2727 16.5567 39.6125 16.5567 39.6125C16.5567 39.6125 15.6937 31.4376 11.8737 27.738C8.05377 24.0385 0 23.0548 0 23.0548C0 23.0548 7.1908 23.4567 11.8737 18.3716C16.5567 13.2864 16.5567 6.49707 16.5567 6.49707Z" fill="#292752"/>
<path d="M37.3369 0.328125C37.3369 0.328125 38.0178 6.55931 40.9186 9.41013C43.8194 12.261 50 12.992 50 12.992C50 12.992 43.8194 13.8705 40.9186 16.5739C38.0178 19.2773 37.3369 25.6559 37.3369 25.6559C37.3369 25.6559 36.6769 19.4034 33.7553 16.5739C30.8336 13.7444 24.6738 12.992 24.6738 12.992C24.6738 12.992 30.1736 13.2994 33.7553 9.41013C37.3369 5.52085 37.3369 0.328125 37.3369 0.328125Z" fill="#292752"/>
<path d="M29.5788 27.8481C29.5788 27.8481 30.0579 32.2332 32.0993 34.2393C34.1406 36.2455 38.49 36.76 38.49 36.76C38.49 36.76 34.1406 37.3782 32.0993 39.2807C30.0579 41.1831 29.5788 45.6719 29.5788 45.6719C29.5788 45.6719 29.1143 41.2719 27.0583 39.2807C25.0023 37.2895 20.6675 36.76 20.6675 36.76C20.6675 36.76 24.5378 36.9763 27.0583 34.2393C29.5788 31.5024 29.5788 27.8481 29.5788 27.8481Z" fill="#292752"/>
</svg>
