<svg width="16" height="17" viewBox="0 0 16 17" fill="none" xmlns="http://www.w3.org/2000/svg">
<path fill-rule="evenodd" clip-rule="evenodd" d="M6 9.5C7.65685 9.5 9 8.15686 9 6.5C9 4.84315 7.65685 3.5 6 3.5C4.34315 3.5 3 4.84315 3 6.5C3 8.15686 4.34315 9.5 6 9.5ZM0 14.6037C0 12.4639 1.49354 10.6729 3.49503 10.2163C4.18106 10.7692 5.05343 11.1001 6.00311 11.1001C6.95214 11.1001 7.82399 10.7696 8.50981 10.2174C10.5089 10.6758 12 12.4656 12 14.6037C12 15.156 11.5523 15.6037 11 15.6037H1C0.447715 15.6037 0 15.156 0 14.6037Z" fill="#ccc"/>
<path fill-rule="evenodd" clip-rule="evenodd" d="M12.5 5V7.5H13.5V5H16V4H13.5V1.5H12.5V4H10V5H12.5Z" fill="#ccc"/>
</svg>
