<svg width="24" height="24" viewBox="0 0 24 24" fill="none" xmlns="http://www.w3.org/2000/svg">
<path d="M8.5 18C8.5 19.3807 7.38071 20.5 6 20.5C4.61929 20.5 3.5 19.3807 3.5 18C3.5 16.6193 4.61929 15.5 6 15.5C7.38071 15.5 8.5 16.6193 8.5 18Z" stroke="#FF6600"/>
<path d="M18.5 16.1367C18.5 17.5174 17.3807 18.6367 16 18.6367C14.6193 18.6367 13.5 17.5174 13.5 16.1367C13.5 14.756 14.6193 13.6367 16 13.6367C17.3807 13.6367 18.5 14.756 18.5 16.1367Z" stroke="#FF6600"/>
<path d="M8.5 17.7724V5.86355L18.5 3V16.4542" stroke="#FF6600" stroke-linejoin="round"/>
<path d="M8.40039 8.9534L18.2204 6.08984" stroke="#FF6600" stroke-linejoin="round"/>
</svg>
