<svg width="24" height="25" viewBox="0 0 24 25" fill="none" xmlns="http://www.w3.org/2000/svg">
<path fill-rule="evenodd" clip-rule="evenodd" d="M19.7283 2.5C19.7283 2.3374 19.6492 2.18496 19.5163 2.0913C19.3834 1.99763 19.2132 1.97444 19.0601 2.02913L8.24213 5.89269C8.04313 5.96376 7.9103 6.15225 7.9103 6.36356V17.7734C7.39985 17.4011 6.77101 17.1814 6.09084 17.1814C4.38382 17.1814 3 18.5652 3 20.2723C3 21.9793 4.38382 23.3631 6.09084 23.3631C7.79787 23.3631 9.18169 21.9793 9.18169 20.2723C9.18169 19.8202 9.08466 19.3909 8.9103 19.0039V9.80567L18.7283 6.29926V16.2279C18.218 15.856 17.5894 15.6365 16.9096 15.6365C15.2026 15.6365 13.8188 17.0203 13.8188 18.7274C13.8188 20.4344 15.2026 21.8182 16.9096 21.8182C18.6166 21.8182 20.0004 20.4344 20.0004 18.7274C20.0004 18.2747 19.9031 17.8447 19.7283 17.4573V2.5ZM18.7283 5.2374V3.20951L8.9103 6.71592V8.74381L18.7283 5.2374Z" fill="#231F84"/>
</svg>
