<svg width="17" height="20" viewBox="0 0 17 20" fill="none" xmlns="http://www.w3.org/2000/svg">
<path d="M6.02084 16.0195C6.02084 17.3951 4.89195 18.5195 3.48784 18.5195C2.08373 18.5195 0.954834 17.3951 0.954834 16.0195C0.954834 14.644 2.08373 13.5195 3.48784 13.5195C4.89195 13.5195 6.02084 14.644 6.02084 16.0195Z" fill="white" stroke="white"/>
<path d="M16.1307 14.1562C16.1307 15.5318 15.0018 16.6562 13.5977 16.6562C12.1936 16.6562 11.0647 15.5318 11.0647 14.1562C11.0647 12.7807 12.1936 11.6562 13.5977 11.6562C15.0018 11.6562 16.1307 12.7807 16.1307 14.1562Z" fill="white" stroke="white"/>
<path d="M6.01526 15.7919V3.88309L16.1253 1.01953V14.4738" stroke="white" stroke-linejoin="round"/>
<path d="M5.91443 6.97293L15.8425 4.10938" stroke="white" stroke-linejoin="round"/>
</svg>
