<svg width="17" height="19" viewBox="0 0 17 19" fill="none" xmlns="http://www.w3.org/2000/svg">
<path d="M6.42871 15.9946C6.42871 17.3735 5.30984 18.492 3.92871 18.492C2.54758 18.492 1.42871 17.3735 1.42871 15.9946C1.42871 14.6158 2.54758 13.4973 3.92871 13.4973C5.30984 13.4973 6.42871 14.6158 6.42871 15.9946Z" fill="#231F84" stroke="#231F84"/>
<path d="M16.4287 14.1331C16.4287 15.5119 15.3098 16.6304 13.9287 16.6304C12.5476 16.6304 11.4287 15.5119 11.4287 14.1331C11.4287 12.7543 12.5476 11.6357 13.9287 11.6357C15.3098 11.6357 16.4287 12.7543 16.4287 14.1331Z" fill="#231F84" stroke="#231F84"/>
<path d="M6.42871 15.7673V3.86906L16.4287 1.00806V14.4503" stroke="#231F84" stroke-linejoin="round"/>
<path d="M6.3291 6.95598L16.1491 4.09497" stroke="#231F84" stroke-linejoin="round"/>
</svg>
