<svg width="34" height="34" viewBox="0 0 34 34" fill="none" xmlns="http://www.w3.org/2000/svg">
<mask id="path-1-inside-1_1099_21334" fill="white">
<path fill-rule="evenodd" clip-rule="evenodd" d="M22 4H12L10.3333 7H6.5H3C1.89543 7 1 7.89543 1 9V28C1 29.1046 1.89543 30 3 30H31C32.1046 30 33 29.1046 33 28V9C33 7.89543 32.1046 7 31 7H27.5H23.6667L22 4Z"/>
</mask>
<path d="M12 4V3H11.4116L11.1258 3.51436L12 4ZM22 4L22.8742 3.51436L22.5884 3H22V4ZM10.3333 7V8H10.9217L11.2075 7.48564L10.3333 7ZM23.6667 7L22.7925 7.48564L23.0783 8H23.6667V7ZM12 5H22V3H12V5ZM11.2075 7.48564L12.8742 4.48564L11.1258 3.51436L9.45918 6.51436L11.2075 7.48564ZM6.5 8H10.3333V6H6.5V8ZM3 8H6.5V6H3V8ZM2 9C2 8.44772 2.44772 8 3 8V6C1.34315 6 0 7.34315 0 9H2ZM2 28V9H0V28H2ZM3 29C2.44772 29 2 28.5523 2 28H0C0 29.6569 1.34315 31 3 31V29ZM31 29H3V31H31V29ZM32 28C32 28.5523 31.5523 29 31 29V31C32.6569 31 34 29.6569 34 28H32ZM32 9V28H34V9H32ZM31 8C31.5523 8 32 8.44772 32 9H34C34 7.34315 32.6569 6 31 6V8ZM27.5 8H31V6H27.5V8ZM23.6667 8H27.5V6H23.6667V8ZM21.1258 4.48564L22.7925 7.48564L24.5408 6.51436L22.8742 3.51436L21.1258 4.48564Z" fill="black" mask="url(#path-1-inside-1_1099_21334)"/>
<path d="M1 18.5H11" stroke="black"/>
<path d="M23 18.5H33" stroke="black"/>
<circle cx="17" cy="19" r="6.5" stroke="black"/>
<rect x="25.5" y="11.5" width="4" height="2" rx="1" stroke="black"/>
</svg>
