<svg width="22" height="22" viewBox="0 0 22 22" fill="none" xmlns="http://www.w3.org/2000/svg">
<path fill-rule="evenodd" clip-rule="evenodd" d="M10.9462 11.0303C12.0508 11.0303 12.9462 10.1348 12.9462 9.03027C12.9462 7.9257 12.0508 7.03027 10.9462 7.03027C9.84165 7.03027 8.94621 7.9257 8.94621 9.03027C8.94621 10.1348 9.84165 11.0303 10.9462 11.0303ZM6.94727 14.0298C6.94727 12.6041 7.94174 11.4107 9.27483 11.1054C9.73243 11.4747 10.3146 11.6959 10.9484 11.6959C11.582 11.6959 12.164 11.4749 12.6215 11.1058C13.9537 11.4118 14.9473 12.6047 14.9473 14.0298C14.9473 14.3979 14.6488 14.6964 14.2806 14.6964H7.61393C7.24574 14.6964 6.94727 14.3979 6.94727 14.0298Z" fill="#ffffff"/>
</svg>
