<svg width="24" height="22" viewBox="0 0 24 22" fill="none" xmlns="http://www.w3.org/2000/svg">
<path d="M7.9472 3.07861C7.9472 3.07861 8.3745 6.98923 10.195 8.77837C12.0155 10.5675 15.8944 11.0263 15.8944 11.0263C15.8944 11.0263 12.0155 11.5777 10.195 13.2743C8.3745 14.9709 7.9472 18.974 7.9472 18.974C7.9472 18.974 7.53298 15.0501 5.69939 13.2743C3.86581 11.4985 0 11.0263 0 11.0263C0 11.0263 3.45158 11.2192 5.69939 8.77837C7.9472 6.33751 7.9472 3.07861 7.9472 3.07861Z" fill="#292752"/>
<path d="M17.922 0.117676C17.922 0.117676 18.2488 3.10865 19.6412 4.47704C21.0336 5.84543 24.0003 6.19635 24.0003 6.19635C24.0003 6.19635 21.0336 6.61803 19.6412 7.91566C18.2488 9.21328 17.922 12.275 17.922 12.275C17.922 12.275 17.6052 9.27383 16.2028 7.91566C14.8004 6.55748 11.8438 6.19635 11.8438 6.19635C11.8438 6.19635 14.4836 6.3439 16.2028 4.47704C17.922 2.61018 17.922 0.117676 17.922 0.117676Z" fill="#292752"/>
<path d="M14.1978 13.3271C14.1978 13.3271 14.4278 15.432 15.4077 16.3949C16.3875 17.3579 18.4752 17.6048 18.4752 17.6048C18.4752 17.6048 16.3875 17.9016 15.4077 18.8148C14.4278 19.7279 14.1978 21.8825 14.1978 21.8825C14.1978 21.8825 13.9749 19.7705 12.988 18.8148C12.0011 17.859 9.92041 17.6048 9.92041 17.6048C9.92041 17.6048 11.7782 17.7087 12.988 16.3949C14.1978 15.0812 14.1978 13.3271 14.1978 13.3271Z" fill="#292752"/>
</svg>
