<svg width="17" height="16" viewBox="0 0 17 16" fill="none" xmlns="http://www.w3.org/2000/svg">
<path d="M8.4592 0.810059C12.8782 0.810059 16.46 3.60168 16.46 7.04625C16.46 10.4901 12.8782 13.2817 8.45996 13.2817C8.02005 13.2809 7.58061 13.2529 7.14415 13.1979L3.78568 15.3944C3.40396 15.5963 3.2691 15.5743 3.42606 15.0798L4.10568 12.2775C1.91139 11.1651 0.459961 9.23749 0.459961 7.04625C0.459961 3.60244 4.04091 0.810059 8.45996 0.810059M12.9613 6.95101L14.0813 5.86606C14.1459 5.79894 14.182 5.70936 14.1819 5.61619C14.1818 5.52302 14.1455 5.43352 14.0807 5.36656C14.0159 5.2996 13.9277 5.2604 13.8345 5.25721C13.7414 5.25403 13.6507 5.28711 13.5815 5.34949L12.1125 6.7712V5.59634C12.1125 5.50097 12.0746 5.4095 12.0072 5.34206C11.9398 5.27461 11.8483 5.23673 11.7529 5.23673C11.6575 5.23673 11.5661 5.27461 11.4986 5.34206C11.4312 5.4095 11.3933 5.50097 11.3933 5.59634V7.54453C11.3806 7.6002 11.3806 7.65801 11.3933 7.71368V8.81006C11.3933 8.90544 11.4312 8.99691 11.4986 9.06435C11.5661 9.13179 11.6575 9.16968 11.7529 9.16968C11.8483 9.16968 11.9398 9.13179 12.0072 9.06435C12.0746 8.99691 12.1125 8.90544 12.1125 8.81006V7.77158L12.4379 7.45692L13.5259 9.00587C13.553 9.04454 13.5875 9.07748 13.6274 9.10281C13.6673 9.12815 13.7118 9.14537 13.7584 9.15351C13.8049 9.16164 13.8526 9.16053 13.8988 9.15023C13.9449 9.13993 13.9885 9.12065 14.0272 9.09349C14.0659 9.06632 14.0988 9.03181 14.1241 8.99191C14.1495 8.95201 14.1667 8.90752 14.1748 8.86097C14.183 8.81441 14.1819 8.76671 14.1716 8.72059C14.1613 8.67447 14.142 8.63083 14.1148 8.59215L12.9613 6.95101ZM10.7076 8.41692H9.5952V5.60777C9.59094 5.51536 9.55123 5.42814 9.48433 5.36425C9.41743 5.30035 9.32847 5.2647 9.23596 5.2647C9.14345 5.2647 9.05449 5.30035 8.98759 5.36425C8.92069 5.42814 8.88098 5.51536 8.87672 5.60777V8.77654C8.87672 8.97463 9.03672 9.13615 9.23558 9.13615H10.7076C10.803 9.13615 10.8944 9.09827 10.9619 9.03082C11.0293 8.96338 11.0672 8.87191 11.0672 8.77654C11.0672 8.68116 11.0293 8.58969 10.9619 8.52225C10.8944 8.4548 10.803 8.41692 10.7076 8.41692ZM6.2451 7.58568L6.77539 6.28434L7.26148 7.58492L6.2451 7.58568ZM8.16739 7.95673L8.16891 7.94454C8.16866 7.85395 8.13408 7.76683 8.07215 7.70073L7.2752 5.56739C7.24179 5.46573 7.17815 5.37668 7.09279 5.31215C7.00743 5.24762 6.9044 5.21067 6.79748 5.20625C6.68988 5.2062 6.58477 5.2387 6.49598 5.29948C6.40719 5.36027 6.33885 5.44649 6.29996 5.54682L5.03368 8.65158C4.99761 8.73989 4.99809 8.8389 5.03503 8.92685C5.07196 9.01479 5.14232 9.08447 5.23063 9.12054C5.31893 9.1566 5.41795 9.15612 5.50589 9.11918C5.59384 9.08225 5.66351 9.01189 5.69958 8.92358L5.95253 8.30415H7.52967L7.75672 8.91368C7.77221 8.95924 7.79669 9.00123 7.8287 9.03716C7.86071 9.07309 7.89961 9.10223 7.94308 9.12285C7.98656 9.14347 8.03374 9.15516 8.08181 9.15722C8.12989 9.15928 8.17789 9.15167 8.22297 9.13484C8.26806 9.11801 8.3093 9.09231 8.34427 9.05924C8.37924 9.02618 8.40721 8.98644 8.42654 8.94237C8.44587 8.8983 8.45616 8.8508 8.45679 8.80269C8.45743 8.75457 8.4484 8.70681 8.43025 8.66225L8.16739 7.95673ZM5.63558 5.61158C5.63578 5.56436 5.62664 5.51757 5.60869 5.4739C5.59073 5.43023 5.56432 5.39054 5.53097 5.35711C5.49761 5.32369 5.45798 5.29719 5.41435 5.27915C5.37071 5.2611 5.32394 5.25186 5.27672 5.25196H2.80434C2.70897 5.25196 2.61749 5.28985 2.55005 5.35729C2.48261 5.42474 2.44472 5.51621 2.44472 5.61158C2.44472 5.70696 2.48261 5.79843 2.55005 5.86587C2.61749 5.93331 2.70897 5.9712 2.80434 5.9712H3.68815V8.81768C3.68815 8.91305 3.72604 9.00453 3.79348 9.07197C3.86092 9.13941 3.95239 9.1773 4.04777 9.1773C4.14315 9.1773 4.23462 9.13941 4.30206 9.07197C4.3695 9.00453 4.40739 8.91305 4.40739 8.81768V5.9712H5.27596C5.32324 5.9714 5.3701 5.96224 5.41382 5.94424C5.45754 5.92624 5.49727 5.89976 5.5307 5.86632C5.56413 5.83289 5.59062 5.79316 5.60862 5.74944C5.62662 5.70572 5.63578 5.65886 5.63558 5.61158Z" fill="white"/>
</svg>
