<svg width="34" height="34" viewBox="0 0 34 34" fill="none" xmlns="http://www.w3.org/2000/svg">
<path d="M16.9985 2.29688C25.8366 2.29688 33 7.88011 33 14.7693C33 21.6569 25.8366 27.2401 17 27.2401C16.1202 27.2386 15.2413 27.1826 14.3684 27.0725L7.65143 31.4656C6.888 31.8694 6.61829 31.8253 6.93219 30.8363L8.29143 25.2317C3.90286 23.007 1 19.1517 1 14.7693C1 7.88164 8.1619 2.29688 17 2.29688M26.0027 14.5788L28.2427 12.4089C28.3719 12.2746 28.444 12.0955 28.4438 11.9091C28.4436 11.7228 28.371 11.5438 28.2415 11.4099C28.1119 11.276 27.9354 11.1976 27.7492 11.1912C27.5629 11.1848 27.3815 11.251 27.243 11.3757L24.3051 14.2192V11.8694C24.3051 11.6787 24.2294 11.4958 24.0945 11.3609C23.9596 11.226 23.7767 11.1502 23.5859 11.1502C23.3951 11.1502 23.2122 11.226 23.0773 11.3609C22.9424 11.4958 22.8667 11.6787 22.8667 11.8694V15.7658C22.8413 15.8772 22.8413 15.9928 22.8667 16.1041V18.2969C22.8667 18.4876 22.9424 18.6706 23.0773 18.8055C23.2122 18.9403 23.3951 19.0161 23.5859 19.0161C23.7767 19.0161 23.9596 18.9403 24.0945 18.8055C24.2294 18.6706 24.3051 18.4876 24.3051 18.2969V16.2199L24.9558 15.5906L27.1318 18.6885C27.1861 18.7658 27.2552 18.8317 27.335 18.8824C27.4148 18.933 27.5037 18.9675 27.5969 18.9838C27.69 19 27.7854 18.9978 27.8776 18.9772C27.9698 18.9566 28.0571 18.9181 28.1345 18.8637C28.2118 18.8094 28.2777 18.7404 28.3284 18.6606C28.379 18.5808 28.4135 18.4918 28.4298 18.3987C28.446 18.3056 28.4438 18.2102 28.4232 18.1179C28.4026 18.0257 28.364 17.9384 28.3097 17.8611L26.0027 14.5788ZM21.4952 17.5106H19.2705V11.8923C19.262 11.7075 19.1825 11.533 19.0487 11.4053C18.9149 11.2775 18.737 11.2062 18.552 11.2062C18.367 11.2062 18.1891 11.2775 18.0553 11.4053C17.9215 11.533 17.842 11.7075 17.8335 11.8923V18.2298C17.8335 18.626 18.1535 18.9491 18.5512 18.9491H21.4952C21.686 18.9491 21.8689 18.8733 22.0038 18.7384C22.1387 18.6035 22.2145 18.4206 22.2145 18.2298C22.2145 18.0391 22.1387 17.8561 22.0038 17.7212C21.8689 17.5864 21.686 17.5106 21.4952 17.5106ZM12.5703 15.8481L13.6309 13.2454L14.603 15.8466L12.5703 15.8481ZM16.4149 16.5902L16.4179 16.5658C16.4174 16.3847 16.3482 16.2104 16.2244 16.0782L14.6305 11.8115C14.5637 11.6082 14.4364 11.4301 14.2657 11.3011C14.0949 11.172 13.8889 11.0981 13.675 11.0893C13.4598 11.0892 13.2496 11.1542 13.072 11.2757C12.8944 11.3973 12.7578 11.5697 12.68 11.7704L10.1474 17.9799C10.0753 18.1565 10.0763 18.3546 10.1501 18.5305C10.224 18.7063 10.3647 18.8457 10.5413 18.9178C10.7179 18.99 10.916 18.989 11.0919 18.9151C11.2678 18.8412 11.4071 18.7005 11.4792 18.5239L11.9851 17.2851H15.1394L15.5935 18.5041C15.6245 18.5952 15.6735 18.6792 15.7375 18.7511C15.8015 18.8229 15.8793 18.8812 15.9662 18.9225C16.0532 18.9637 16.1476 18.9871 16.2437 18.9912C16.3399 18.9953 16.4359 18.9801 16.526 18.9464C16.6162 18.9128 16.6987 18.8614 16.7686 18.7952C16.8386 18.7291 16.8945 18.6496 16.9332 18.5615C16.9718 18.4734 16.9924 18.3784 16.9937 18.2821C16.9949 18.1859 16.9769 18.0904 16.9406 18.0013L16.4149 16.5902ZM11.3512 11.8999C11.3516 11.8055 11.3334 11.7119 11.2975 11.6246C11.2615 11.5372 11.2087 11.4578 11.142 11.391C11.0753 11.3241 10.996 11.2711 10.9088 11.2351C10.8215 11.199 10.728 11.1805 10.6335 11.1807H5.68876C5.49801 11.1807 5.31507 11.2565 5.18018 11.3913C5.0453 11.5262 4.96952 11.7092 4.96952 11.8999C4.96952 12.0907 5.0453 12.2736 5.18018 12.4085C5.31507 12.5434 5.49801 12.6192 5.68876 12.6192H7.45638V18.3121C7.45638 18.5029 7.53216 18.6858 7.66704 18.8207C7.80192 18.9556 7.98487 19.0313 8.17562 19.0313C8.36637 19.0313 8.54931 18.9556 8.6842 18.8207C8.81908 18.6858 8.89486 18.5029 8.89486 18.3121V12.6192H10.632C10.7266 12.6196 10.8203 12.6012 10.9077 12.5652C10.9952 12.5292 11.0746 12.4763 11.1415 12.4094C11.2083 12.3425 11.2613 12.2631 11.2973 12.1756C11.3333 12.0882 11.3516 11.9945 11.3512 11.8999Z" fill="#391C1E"/>
</svg>
