<svg width="16" height="16" viewBox="0 0 16 16" fill="none" xmlns="http://www.w3.org/2000/svg">
<path fill-rule="evenodd" clip-rule="evenodd" d="M2 2C0.895431 2 0 2.89543 0 4V14.2715C0 15.0405 0.831806 15.5217 1.49847 15.1384L3.98151 13.7106C4.28482 13.5362 4.62858 13.4444 4.97845 13.4444H14C15.1046 13.4444 16 12.549 16 11.4444V4C16 2.89543 15.1046 2 14 2H2ZM4 9C4.55228 9 5 8.55228 5 8C5 7.44772 4.55228 7 4 7C3.44772 7 3 7.44772 3 8C3 8.55228 3.44772 9 4 9ZM8 9C8.55228 9 9 8.55228 9 8C9 7.44772 8.55228 7 8 7C7.44772 7 7 7.44772 7 8C7 8.55228 7.44772 9 8 9ZM13 8C13 8.55228 12.5523 9 12 9C11.4477 9 11 8.55228 11 8C11 7.44772 11.4477 7 12 7C12.5523 7 13 7.44772 13 8Z" fill="#333333"/>
</svg>
