<svg width="36" height="36" viewBox="0 0 36 36" fill="none" xmlns="http://www.w3.org/2000/svg">
<path fill-rule="evenodd" clip-rule="evenodd" d="M24 7.17157V7C24 3.68629 21.3137 1 18 1C14.6863 1 12 3.68629 12 7V18C12 18.3671 12.033 18.7265 12.0961 19.0755L24 7.17157ZM14.1917 22.6367L24 12.8284V18C24 21.3137 21.3137 24 18 24C16.5541 24 15.2277 23.4886 14.1917 22.6367ZM9.3029 21.8687C8.47367 20.4117 8 18.726 8 16.9297C8 16.3774 7.55228 15.9297 7 15.9297C6.44772 15.9297 6 16.3774 6 16.9297C6 19.2811 6.67641 21.4747 7.84527 23.3263L9.3029 21.8687ZM10.5171 26.3113L11.942 24.8864C13.6232 26.1684 15.7227 26.9297 18 26.9297C23.5226 26.9297 28 22.4523 28 16.9297C28 16.3774 28.4477 15.9297 29 15.9297C29.5523 15.9297 30 16.3774 30 16.9297C30 23.2202 25.1594 28.3804 19 28.8886V34.6764C19 35.2286 18.5523 35.6764 18 35.6764C17.4477 35.6764 17 35.2286 17 34.6764V28.8886C14.5588 28.6872 12.3247 27.755 10.5171 26.3113Z" fill="white"/>
<path d="M30 2L2 30" stroke="white" stroke-width="2" stroke-linecap="square"/>
</svg>
