<svg width="24" height="24" viewBox="0 0 24 24" fill="none" xmlns="http://www.w3.org/2000/svg">
<path d="M18.88 12.1C18.88 11.64 18.83 11.2 18.75 10.77L20.73 9.27L18.73 5.81L16.42 6.78C15.77 6.22 15.01 5.79 14.18 5.5L13.87 3H9.87L9.56 5.5C8.74 5.79 7.97999 6.23 7.32999 6.78L5.00999 5.8L3.00999 9.25999L5 10.77C4.92 11.2 4.87 11.64 4.87 12.09C4.87 12.54 4.91999 12.95 4.98999 13.36L3 14.86L5 18.32L7.28 17.36C7.94 17.93 8.70999 18.38 9.54999 18.68L9.86 21.13H13.86L14.17 18.69C15.02 18.4 15.79 17.94 16.45 17.37L18.72 18.33L20.72 14.87L18.75 13.38C18.83 12.96 18.87 12.54 18.87 12.1H18.88Z" stroke="black" stroke-width="2" stroke-miterlimit="10"/>
<path d="M11.8789 15.082C13.5358 15.082 14.8789 13.7389 14.8789 12.082C14.8789 10.4252 13.5358 9.08203 11.8789 9.08203C10.2221 9.08203 8.87891 10.4252 8.87891 12.082C8.87891 13.7389 10.2221 15.082 11.8789 15.082Z" stroke="black" stroke-width="2" stroke-miterlimit="10"/>
</svg>
