<svg width="25" height="21" viewBox="0 0 25 21" fill="none" xmlns="http://www.w3.org/2000/svg">
<path d="M20.3992 0.651855C21.8635 1.82562 22.8011 3.62925 22.8011 5.65186C22.8011 7.67446 21.8635 9.47809 20.3992 10.6519" stroke="#383494" stroke-linecap="round"/>
<path d="M17.9285 2.65186C18.8023 3.35898 19.361 4.44017 19.361 5.65186C19.361 6.86354 18.8023 7.94473 17.9285 8.65186" stroke="#383494" stroke-linecap="round"/>
<circle cx="11.3987" cy="7.36865" r="4" fill="#383494"/>
<path d="M2.39868 16.6971C2.39868 16.1666 2.60906 15.6571 3.02728 15.3309C4.24841 14.3782 7.19535 12.4937 11.3987 12.4937C15.602 12.4937 18.549 14.3782 19.7701 15.3309C20.1883 15.6571 20.3987 16.1666 20.3987 16.6971V18.4937C20.3987 19.5982 19.5033 20.4937 18.3987 20.4937H4.39868C3.29411 20.4937 2.39868 19.5982 2.39868 18.4937V16.6971Z" fill="#383494"/>
</svg>
