<svg width="25" height="21" viewBox="0 0 25 21" fill="none" xmlns="http://www.w3.org/2000/svg">
<path d="M20.6523 0.651855C22.1167 1.82562 23.0543 3.62925 23.0543 5.65186C23.0543 7.67446 22.1167 9.47809 20.6523 10.6519" stroke="white" stroke-linecap="round"/>
<path d="M18.1816 2.65186C19.0555 3.35898 19.6142 4.44017 19.6142 5.65186C19.6142 6.86354 19.0555 7.94473 18.1816 8.65186" stroke="white" stroke-linecap="round"/>
<circle cx="11.6519" cy="7.36865" r="4" fill="white"/>
<path d="M2.65186 16.6971C2.65186 16.1666 2.86223 15.6571 3.28046 15.3309C4.50158 14.3782 7.44852 12.4937 11.6519 12.4937C15.8552 12.4937 18.8021 14.3782 20.0233 15.3309C20.4415 15.6571 20.6519 16.1666 20.6519 16.6971V18.4937C20.6519 19.5982 19.7564 20.4937 18.6519 20.4937H4.65186C3.54729 20.4937 2.65186 19.5982 2.65186 18.4937V16.6971Z" fill="white"/>
</svg>
