<svg width="36" height="36" viewBox="0 0 36 36" fill="none" xmlns="http://www.w3.org/2000/svg">
<path fill-rule="evenodd" clip-rule="evenodd" d="M18 1C14.6863 1 12 3.68629 12 7V18C12 21.3137 14.6863 24 18 24C21.3137 24 24 21.3137 24 18V7C24 3.68629 21.3137 1 18 1ZM8 16.9297C8 16.3774 7.55228 15.9297 7 15.9297C6.44772 15.9297 6 16.3774 6 16.9297C6 23.2202 10.8406 28.3804 17 28.8886V34.6764C17 35.2286 17.4477 35.6764 18 35.6764C18.5523 35.6764 19 35.2286 19 34.6764V28.8886C25.1594 28.3804 30 23.2202 30 16.9297C30 16.3774 29.5523 15.9297 29 15.9297C28.4477 15.9297 28 16.3774 28 16.9297C28 22.4523 23.5226 26.9297 18 26.9297C12.4774 26.9297 8 22.4523 8 16.9297Z" fill="white"/>
</svg>
