<svg width="26" height="26" viewBox="0 0 26 26" fill="none" xmlns="http://www.w3.org/2000/svg">
<path fill-rule="evenodd" clip-rule="evenodd" d="M2.99997 23.0019L8.40522 22.3141L18.765 11.9544L14.044 7.23346L3.6843 17.5932L2.99997 23.0019ZM15.5783 5.69916L20.2992 10.4201L23 7.71936L18.2791 2.99844L15.5783 5.69916Z" fill="#383494"/>
<path d="M8.40522 22.3141L8.46833 22.8101L8.6379 22.7885L8.75877 22.6677L8.40522 22.3141ZM2.99997 23.0019L2.50393 22.9391L2.42293 23.5794L3.06309 23.4979L2.99997 23.0019ZM18.765 11.9544L19.1185 12.3079L19.4721 11.9544L19.1185 11.6008L18.765 11.9544ZM14.044 7.23346L14.3976 6.8799L14.044 6.52635L13.6905 6.8799L14.044 7.23346ZM3.6843 17.5932L3.33075 17.2396L3.20974 17.3606L3.18825 17.5304L3.6843 17.5932ZM15.5783 5.69916L15.2248 5.3456L14.8712 5.69916L15.2248 6.05271L15.5783 5.69916ZM20.2992 10.4201L19.9457 10.7736L20.2992 11.1272L20.6528 10.7736L20.2992 10.4201ZM23 7.71936L23.3535 8.07291L23.7071 7.71936L23.3535 7.3658L23 7.71936ZM18.2791 2.99844L18.6326 2.64488L18.2791 2.29133L17.9255 2.64488L18.2791 2.99844ZM8.3421 21.8181L2.93686 22.5059L3.06309 23.4979L8.46833 22.8101L8.3421 21.8181ZM18.4114 11.6008L8.05167 21.9606L8.75877 22.6677L19.1185 12.3079L18.4114 11.6008ZM19.1185 11.6008L14.3976 6.8799L13.6905 7.58701L18.4114 12.3079L19.1185 11.6008ZM4.03785 17.9467L14.3976 7.58701L13.6905 6.8799L3.33075 17.2396L4.03785 17.9467ZM3.49602 23.0647L4.18035 17.656L3.18825 17.5304L2.50393 22.9391L3.49602 23.0647ZM15.2248 6.05271L19.9457 10.7736L20.6528 10.0665L15.9319 5.3456L15.2248 6.05271ZM22.6464 7.3658L19.9457 10.0665L20.6528 10.7736L23.3535 8.07291L22.6464 7.3658ZM17.9255 3.35199L22.6464 8.07291L23.3535 7.3658L18.6326 2.64488L17.9255 3.35199ZM15.9319 6.05271L18.6326 3.35199L17.9255 2.64488L15.2248 5.3456L15.9319 6.05271Z" fill="#231F84"/>
</svg>
