<svg width="36" height="37" viewBox="0 0 36 37" fill="none" xmlns="http://www.w3.org/2000/svg">
<g clip-path="url(#clip0_27_18815)">
<path fill-rule="evenodd" clip-rule="evenodd" d="M18 1.42578C14.6863 1.42578 12 4.11207 12 7.42578V18.4258C12 21.7395 14.6863 24.4258 18 24.4258C21.3137 24.4258 24 21.7395 24 18.4258V7.42578C24 4.11207 21.3137 1.42578 18 1.42578ZM8 17.3555C8 16.8032 7.55228 16.3555 7 16.3555C6.44772 16.3555 6 16.8032 6 17.3555C6 23.6459 10.8406 28.8062 17 29.3144V35.1021C17 35.6544 17.4477 36.1021 18 36.1021C18.5523 36.1021 19 35.6544 19 35.1021V29.3144C25.1594 28.8062 30 23.6459 30 17.3555C30 16.8032 29.5523 16.3555 29 16.3555C28.4477 16.3555 28 16.8032 28 17.3555C28 22.8781 23.5226 27.3555 18 27.3555C12.4774 27.3555 8 22.8781 8 17.3555Z" fill="#FF6600"/>
</g>
<defs>
<clipPath id="clip0_27_18815">
<rect width="36" height="36" fill="white" transform="translate(0 0.425781)"/>
</clipPath>
</defs>
</svg>
