<svg width="25" height="24" viewBox="0 0 25 24" fill="none" xmlns="http://www.w3.org/2000/svg">
<path d="M10.3445 8.6843C11.3383 9.66093 12.8453 10.2483 14.0541 10.5932C12.8481 10.9482 11.3454 11.534 10.3541 12.4578C9.37398 13.3712 8.78953 14.835 8.44531 16.0383C8.10065 14.847 7.51845 13.405 6.54724 12.4644C5.65948 11.6046 4.37232 11.0454 3.24967 10.6884C4.3271 10.3625 5.55618 9.76425 6.56719 8.6664C7.58217 7.56425 8.16213 6.31211 8.49434 5.24335C8.84459 6.40534 9.41805 7.77378 10.3445 8.6843Z" stroke="white"/>
<path d="M19.7905 5.38297C20.472 6.05275 21.4535 6.48502 22.3094 6.76045C21.4565 7.04001 20.4792 7.46633 19.8001 8.09919C19.1262 8.72719 18.6947 9.67699 18.4197 10.5229C18.1447 9.6867 17.7159 8.75025 17.0504 8.1058C16.4412 7.5158 15.5983 7.10949 14.8179 6.83262C15.5692 6.56099 16.3835 6.1109 17.0704 5.36506C17.7549 4.6218 18.1847 3.79208 18.4551 3.04466C18.7312 3.85888 19.1523 4.75575 19.7905 5.38297Z" stroke="white"/>
<path d="M16.7766 16.9827C17.3214 17.5182 18.0815 17.8781 18.773 18.1182C18.0847 18.3597 17.3285 18.7125 16.7862 19.218C16.2463 19.7212 15.886 20.4557 15.6461 21.1368C15.4067 20.4642 15.0493 19.7397 14.5174 19.2246C14.0298 18.7523 13.3738 18.4162 12.7482 18.1786C13.3523 17.937 13.9907 17.5584 14.5374 16.9648C15.0791 16.3766 15.4373 15.7267 15.6746 15.1256C15.9138 15.7812 16.2645 16.4794 16.7766 16.9827Z" stroke="white"/>
</svg>
