<svg width="20" height="20" viewBox="0 0 20 20" fill="none" xmlns="http://www.w3.org/2000/svg">
<path d="M14.9272 8.71549C15.267 8.09089 15.7384 7.52729 16.2534 7.05198C16.8198 6.52921 17.4685 6.08531 18.1129 5.76419C17.054 5.32871 16.2926 4.76233 15.7372 4.08668C15.4102 3.68883 15.1628 3.26252 14.9685 2.82069C14.6243 3.66905 14.104 4.2995 13.5024 4.78022C13.0008 5.18111 12.4458 5.47304 11.9169 5.70318C12.719 6.07998 13.4222 6.63071 13.98 7.26908C14.3653 7.70997 14.6881 8.20076 14.9272 8.71549Z" stroke="white" stroke-linejoin="round"/>
<path d="M6.00962 16.636C6.42851 15.6686 7.0566 14.7866 7.764 14.0423C8.5985 13.1643 9.57772 12.4416 10.5223 11.9785C8.95807 11.3328 7.88229 10.459 7.12713 9.41168C6.65713 8.75987 6.32036 8.05272 6.06478 7.31554C5.64899 8.66895 4.96385 9.64852 4.15623 10.3842C3.39087 11.0814 2.52473 11.547 1.73411 11.9064C2.91981 12.4357 3.94978 13.3103 4.73941 14.3404C5.2758 15.0402 5.70999 15.8228 6.00962 16.636Z" stroke="white"/>
<path d="M15.987 17.3837C16.2472 16.9561 16.5806 16.5705 16.9374 16.2413C17.3245 15.8839 17.7613 15.5721 18.2042 15.329C17.4748 14.9973 16.932 14.5784 16.5249 14.0831C16.3183 13.8318 16.1517 13.5667 16.0146 13.2933C15.7431 13.8603 15.3671 14.297 14.9387 14.6394C14.6063 14.905 14.2446 15.1105 13.8917 15.2769C14.4443 15.5707 14.9306 15.9676 15.3249 16.4189C15.5839 16.7153 15.8083 17.0411 15.987 17.3837Z" stroke="white"/>
</svg>
