<svg width="16" height="16" viewBox="0 0 16 16" fill="none" xmlns="http://www.w3.org/2000/svg">
<mask id="path-1-inside-1_127_9055" fill="white">
<path fill-rule="evenodd" clip-rule="evenodd" d="M3.95996 0.79834C2.30311 0.79834 0.959961 2.14149 0.959961 3.79834V9.46501C0.959961 11.1219 2.30311 12.465 3.95996 12.465H4.8894L4.35552 14.7073C4.26958 15.0682 4.67873 15.3415 4.97924 15.1239L8.65109 12.465H12.96C14.6168 12.465 15.96 11.1219 15.96 9.465V3.79834C15.96 2.14149 14.6168 0.79834 12.96 0.79834H3.95996Z"/>
</mask>
<path fill-rule="evenodd" clip-rule="evenodd" d="M3.95996 0.79834C2.30311 0.79834 0.959961 2.14149 0.959961 3.79834V9.46501C0.959961 11.1219 2.30311 12.465 3.95996 12.465H4.8894L4.35552 14.7073C4.26958 15.0682 4.67873 15.3415 4.97924 15.1239L8.65109 12.465H12.96C14.6168 12.465 15.96 11.1219 15.96 9.465V3.79834C15.96 2.14149 14.6168 0.79834 12.96 0.79834H3.95996Z" fill="white"/>
<path d="M4.8894 12.465L5.8622 12.6966L6.15545 11.465H4.8894V12.465ZM4.35552 14.7073L3.38271 14.4757V14.4757L4.35552 14.7073ZM4.97924 15.1239L4.39273 14.314H4.39273L4.97924 15.1239ZM8.65109 12.465V11.465H8.32704L8.06458 11.6551L8.65109 12.465ZM1.95996 3.79834C1.95996 2.69377 2.85539 1.79834 3.95996 1.79834V-0.20166C1.75082 -0.20166 -0.0400391 1.5892 -0.0400391 3.79834H1.95996ZM1.95996 9.46501V3.79834H-0.0400391V9.46501H1.95996ZM3.95996 11.465C2.85539 11.465 1.95996 10.5696 1.95996 9.46501H-0.0400391C-0.0400391 11.6741 1.75082 13.465 3.95996 13.465V11.465ZM4.8894 11.465H3.95996V13.465H4.8894V11.465ZM5.32832 14.9389L5.8622 12.6966L3.91659 12.2334L3.38271 14.4757L5.32832 14.9389ZM4.39273 14.314C4.8435 13.9876 5.45723 14.3975 5.32832 14.9389L3.38271 14.4757C3.08193 15.739 4.51396 16.6955 5.56575 15.9339L4.39273 14.314ZM8.06458 11.6551L4.39273 14.314L5.56575 15.9339L9.2376 13.2749L8.06458 11.6551ZM12.96 11.465H8.65109V13.465H12.96V11.465ZM14.96 9.465C14.96 10.5696 14.0645 11.465 12.96 11.465V13.465C15.1691 13.465 16.96 11.6741 16.96 9.465H14.96ZM14.96 3.79834V9.465H16.96V3.79834H14.96ZM12.96 1.79834C14.0645 1.79834 14.96 2.69377 14.96 3.79834H16.96C16.96 1.5892 15.1691 -0.20166 12.96 -0.20166V1.79834ZM3.95996 1.79834H12.96V-0.20166H3.95996V1.79834Z" fill="white" mask="url(#path-1-inside-1_127_9055)"/>
<circle cx="5.36483" cy="6.56331" r="0.5" fill="#0959A3" stroke="#0959A3" stroke-width="0.666667"/>
<circle cx="8.69808" cy="6.56331" r="0.5" fill="#0959A3" stroke="#0959A3" stroke-width="0.666667"/>
<circle cx="12.0313" cy="6.56331" r="0.5" fill="#0959A3" stroke="#0959A3" stroke-width="0.666667"/>
</svg>
