<svg width="16" height="16" viewBox="0 0 16 16" fill="none" xmlns="http://www.w3.org/2000/svg">
<path fill-rule="evenodd" clip-rule="evenodd" d="M13 1.5C13 1.3374 12.9209 1.18496 12.788 1.0913C12.6551 0.997631 12.485 0.974444 12.3318 1.02913L5.33183 3.52913C5.13284 3.6002 5 3.7887 5 4V11.2676C4.70583 11.0974 4.36429 11 4 11C2.89543 11 2 11.8954 2 13C2 14.1046 2.89543 15 4 15C5.10457 15 6 14.1046 6 13V6.35256L12 4.2097V10.2676C11.7058 10.0974 11.3643 10 11 10C9.89543 10 9 10.8954 9 12C9 13.1046 9.89543 14 11 14C12.1046 14 13 13.1046 13 12C13 11.8274 12.9781 11.6598 12.937 11.5H13V1.5ZM12 3.14784V2.20951L6 4.35236V5.2907L12 3.14784Z" fill="white"/>
<path d="M6 3.77778L12 2V3.77778L6 6V3.77778Z" fill="white"/>
</svg>
