<svg width="17" height="16" viewBox="0 0 17 16" fill="none" xmlns="http://www.w3.org/2000/svg">
<path d="M3.2959 2.4C2.96453 2.4 2.6959 2.66863 2.6959 3V8.4C2.6959 8.73137 2.96453 9 3.2959 9C3.62727 9 3.8959 8.73137 3.8959 8.4V3.6H8.6959C9.02727 3.6 9.2959 3.33137 9.2959 3C9.2959 2.66863 9.02727 2.4 8.6959 2.4H3.2959ZM13.2959 13.6C13.6273 13.6 13.8959 13.3314 13.8959 13V7.6C13.8959 7.26863 13.6273 7 13.2959 7C12.9645 7 12.6959 7.26863 12.6959 7.6V12.4H7.8959C7.56453 12.4 7.2959 12.6686 7.2959 13C7.2959 13.3314 7.56453 13.6 7.8959 13.6H13.2959ZM2.87163 3.42426L12.8716 13.4243L13.7202 12.5757L3.72016 2.57574L2.87163 3.42426Z" fill="black"/>
</svg>
