<svg width="35" height="34" viewBox="0 0 35 34" fill="none" xmlns="http://www.w3.org/2000/svg">
<mask id="path-1-inside-1_670_22981" fill="white">
<path fill-rule="evenodd" clip-rule="evenodd" d="M9.5 3.3125C6.18629 3.3125 3.5 5.99879 3.5 9.3125V19.3125C3.5 22.6262 6.18629 25.3125 9.5 25.3125H10.1975L9.03551 30.193C8.94958 30.5539 9.35873 30.8272 9.65924 30.6096L16.9743 25.3125H25.5C28.8137 25.3125 31.5 22.6262 31.5 19.3125V9.3125C31.5 5.99879 28.8137 3.3125 25.5 3.3125H9.5Z"/>
</mask>
<path d="M10.1975 25.3125L11.1703 25.5441L11.4636 24.3125H10.1975V25.3125ZM9.03551 30.193L10.0083 30.4246H10.0083L9.03551 30.193ZM9.65924 30.6096L10.2457 31.4196H10.2458L9.65924 30.6096ZM16.9743 25.3125V24.3125H16.6503L16.3878 24.5026L16.9743 25.3125ZM4.5 9.3125C4.5 6.55108 6.73858 4.3125 9.5 4.3125V2.3125C5.63401 2.3125 2.5 5.44651 2.5 9.3125H4.5ZM4.5 19.3125V9.3125H2.5V19.3125H4.5ZM9.5 24.3125C6.73858 24.3125 4.5 22.0739 4.5 19.3125H2.5C2.5 23.1785 5.63401 26.3125 9.5 26.3125V24.3125ZM10.1975 24.3125H9.5V26.3125H10.1975V24.3125ZM10.0083 30.4246L11.1703 25.5441L9.22473 25.0809L8.06271 29.9614L10.0083 30.4246ZM9.07273 29.7997C9.5235 29.4733 10.1372 29.8832 10.0083 30.4246L8.06271 29.9614C7.76193 31.2247 9.19396 32.1812 10.2457 31.4196L9.07273 29.7997ZM16.3878 24.5026L9.07273 29.7997L10.2458 31.4196L17.5608 26.1224L16.3878 24.5026ZM25.5 24.3125H16.9743V26.3125H25.5V24.3125ZM30.5 19.3125C30.5 22.0739 28.2614 24.3125 25.5 24.3125V26.3125C29.366 26.3125 32.5 23.1785 32.5 19.3125H30.5ZM30.5 9.3125V19.3125H32.5V9.3125H30.5ZM25.5 4.3125C28.2614 4.3125 30.5 6.55108 30.5 9.3125H32.5C32.5 5.44651 29.366 2.3125 25.5 2.3125V4.3125ZM9.5 4.3125H25.5V2.3125H9.5V4.3125Z" fill="#333333" mask="url(#path-1-inside-1_670_22981)"/>
<circle cx="11.5" cy="15" r="1.5" stroke="black"/>
<circle cx="17.5" cy="15" r="1.5" stroke="black"/>
<circle cx="23.5" cy="15" r="1.5" stroke="black"/>
</svg>
