<svg width="16" height="16" viewBox="0 0 16 16" fill="none" xmlns="http://www.w3.org/2000/svg">
<path d="M0.710938 5.56104C0.710938 5.34013 0.890024 5.16104 1.11094 5.16104H3.86361C3.97846 5.16104 4.08778 5.11167 4.16371 5.02549L7.01083 1.7945C7.25456 1.51791 7.71094 1.6903 7.71094 2.05896V13.941C7.71094 14.3097 7.25456 14.4821 7.01083 14.2055L4.16371 10.9745C4.08778 10.8883 3.97846 10.839 3.86361 10.839H1.11094C0.890023 10.839 0.710938 10.6599 0.710938 10.439V5.56104Z" fill="white"/>
<path d="M12.5977 3.44531C13.7722 4.60635 14.5 6.21834 14.5 8.0003C14.5 9.78226 13.7722 11.3942 12.5977 12.5553" stroke="white" stroke-linecap="round"/>
<path d="M11.0977 5C11.8747 5.76281 12.3567 6.82512 12.3567 8C12.3567 9.17488 11.8747 10.2372 11.0977 11" stroke="white" stroke-linecap="round"/>
<path d="M9.33398 6C9.80902 6.53076 10.0979 7.23165 10.0979 8C10.0979 8.76835 9.80902 9.46924 9.33398 10" stroke="white" stroke-linecap="round"/>
</svg>
