<svg width="12" height="12" viewBox="0 0 12 12" fill="none" xmlns="http://www.w3.org/2000/svg">
<path d="M2 1.5C1.72386 1.5 1.5 1.72386 1.5 2V6.5C1.5 6.77614 1.72386 7 2 7C2.27614 7 2.5 6.77614 2.5 6.5V2.5H6.5C6.77614 2.5 7 2.27614 7 2C7 1.72386 6.77614 1.5 6.5 1.5H2ZM10 10.5C10.2761 10.5 10.5 10.2761 10.5 10V5.5C10.5 5.22386 10.2761 5 10 5C9.72386 5 9.5 5.22386 9.5 5.5V9.5H5.5C5.22386 9.5 5 9.72386 5 10C5 10.2761 5.22386 10.5 5.5 10.5H10ZM1.64645 2.35355L9.64645 10.3536L10.3536 9.64645L2.35355 1.64645L1.64645 2.35355Z" fill="white"/>
</svg>
