<svg width="24" height="24" viewBox="0 0 24 24" fill="none" xmlns="http://www.w3.org/2000/svg">
<path d="M2.5 7.86667C2.5 7.59052 2.72386 7.36667 3 7.36667H6.63636C6.98871 7.36667 7.32982 7.24263 7.59987 7.0163L12.6788 2.75965C13.0042 2.48693 13.5 2.71828 13.5 3.14286V20.8571C13.5 21.2817 13.0042 21.5131 12.6788 21.2404L7.59987 16.9837C7.32982 16.7574 6.98872 16.6333 6.63636 16.6333H3C2.72386 16.6333 2.5 16.4095 2.5 16.1333V7.86667Z" stroke="black"/>
<path fill-rule="evenodd" clip-rule="evenodd" d="M18.311 4L17.832 4.87806C20.3151 6.23595 21.9991 8.87222 21.9991 11.9018C21.9991 14.9325 20.3139 17.5696 17.8293 18.927L18.3083 19.8051C21.1033 18.2779 22.9991 15.3113 22.9991 11.9018C22.9991 8.49345 21.1045 5.5276 18.311 4ZM16.6918 16.8416C18.439 15.8872 19.6241 14.0329 19.6241 11.9018C19.6241 9.77179 18.4402 7.91829 16.6945 6.96346L16.2156 7.84152C17.6508 8.62664 18.6241 10.1506 18.6241 11.9018C18.6241 13.6542 17.6496 15.1789 16.2129 15.9636L16.6918 16.8416Z" fill="black"/>
</svg>
