<svg width="16" height="16" viewBox="0 0 16 16" fill="none" xmlns="http://www.w3.org/2000/svg">
<path fill-rule="evenodd" clip-rule="evenodd" d="M9.9454 9.0293C11.6023 9.0293 12.9454 7.68615 12.9454 6.0293C12.9454 4.37244 11.6023 3.0293 9.9454 3.0293C8.28855 3.0293 6.9454 4.37244 6.9454 6.0293C6.9454 7.68615 8.28855 9.0293 9.9454 9.0293ZM3.94727 13.5199C3.94727 11.3834 5.4361 9.59474 7.43283 9.1347C8.12006 9.69137 8.99547 10.0249 9.94877 10.0249C10.9018 10.0249 11.7769 9.69159 12.4641 9.13524C14.4596 9.59614 15.9473 11.3843 15.9473 13.5199C15.9473 14.0722 15.4995 14.5199 14.9473 14.5199H4.94727C4.39498 14.5199 3.94727 14.0722 3.94727 13.5199Z" fill="#333333"/>
<path d="M1 1H10" stroke="#333333"/>
<path d="M1 4H6" stroke="#333333"/>
<path d="M1 7H5" stroke="#333333"/>
</svg>
