<svg width="16" height="16" viewBox="0 0 16 16" fill="none" xmlns="http://www.w3.org/2000/svg">
<path fill-rule="evenodd" clip-rule="evenodd" d="M7.99765 8.31033C10.0163 8.31033 11.6528 6.67386 11.6528 4.65516C11.6528 2.63647 10.0163 1 7.99765 1C5.97895 1 4.34248 2.63647 4.34248 4.65516C4.34248 6.67386 5.97895 8.31033 7.99765 8.31033ZM0.689697 13.7817C0.689697 11.1787 2.5037 8.99932 4.93653 8.43883C5.77382 9.11702 6.84037 9.5233 8.00181 9.5233C9.16289 9.5233 10.2291 9.11728 11.0663 8.43947C13.4977 9.00098 15.3104 11.1797 15.3104 13.7817C15.3104 14.4546 14.7649 15.0001 14.092 15.0001H1.90809C1.23519 15.0001 0.689697 14.4546 0.689697 13.7817Z" fill="#383494"/>
</svg>
