<svg width="72" height="73" viewBox="0 0 72 73" fill="none" xmlns="http://www.w3.org/2000/svg">
<path d="M28.32 7.73454L16.5 7.72461V42M58.3 67.7246H25" stroke="black" stroke-width="3" stroke-miterlimit="10" stroke-linecap="round"/>
<path d="M67.5004 67.7754V7.78532L55.6504 7.77539" stroke="black" stroke-width="3" stroke-miterlimit="10" stroke-linecap="round"/>
<path d="M25.5293 26.5742H59.3993" stroke="black" stroke-width="3" stroke-miterlimit="10" stroke-linecap="round"/>
<path d="M25.5293 37.9258H59.3993" stroke="black" stroke-width="3" stroke-miterlimit="10" stroke-linecap="round"/>
<path d="M30.5 49.125H59.4003" stroke="black" stroke-width="3" stroke-miterlimit="10" stroke-linecap="round"/>
<path d="M51.4305 3.21484H32.6505C30.3474 3.21484 28.4805 5.08182 28.4805 7.38484V7.40484C28.4805 9.70787 30.3474 11.5748 32.6505 11.5748H51.4305C53.7335 11.5748 55.6005 9.70787 55.6005 7.40484V7.38484C55.6005 5.08182 53.7335 3.21484 51.4305 3.21484Z" stroke="black" stroke-width="3" stroke-miterlimit="10" stroke-linecap="round"/>
<path d="M18 69.7852C25.4558 69.7852 31.5 63.741 31.5 56.2852C31.5 48.8293 25.4558 42.7852 18 42.7852C10.5442 42.7852 4.5 48.8293 4.5 56.2852C4.5 63.741 10.5442 69.7852 18 69.7852Z" stroke="black" stroke-width="3" stroke-miterlimit="10"/>
<path d="M27.2507 47.4648L8.2207 66.5049" stroke="black" stroke-width="3" stroke-miterlimit="10"/>
</svg>
