<svg width="121" height="30" viewBox="0 0 121 30" fill="none" xmlns="http://www.w3.org/2000/svg">
<g clip-path="url(#clip0_1634_10385)">
<path d="M12.3313 15.3784C11.8985 11.4782 16.0232 8.35068 21.5531 8.39302C27.0776 8.43536 31.9076 11.6317 32.3403 15.5266C32.7731 19.4267 28.6484 22.5542 23.1186 22.5119C17.594 22.4696 12.7641 19.2785 12.3313 15.3731M33.3662 16.5902C32.8639 11.7587 27.3074 7.79503 20.9494 7.74211C14.5913 7.68919 9.84154 11.5682 10.3384 16.405C10.8407 21.2418 16.3972 25.2055 22.7606 25.2531C29.1186 25.3061 33.8684 21.4271 33.3715 16.5902" fill="#FBB584"/>
<path d="M23.765 25.3536C20.6341 28.5923 15.6064 28.8622 12.5396 25.9516C9.46748 23.0463 9.52091 18.056 12.6518 14.8174C15.7827 11.5787 20.8104 11.3141 23.8772 14.2194C26.944 17.1299 26.8959 22.115 23.7596 25.3536M12.1656 14.7115C8.52713 18.4794 8.46302 24.2741 12.0321 27.6556C15.6011 31.0372 21.4408 30.7249 25.0847 26.9571C28.7285 23.1892 28.7873 17.3945 25.2182 14.013C21.6546 10.6314 15.8095 10.9437 12.171 14.7115" fill="#F89B6C"/>
<path d="M12.4964 2.58172C19.0093 0.1633 25.4528 2.60818 26.8847 8.043C28.3166 13.4778 24.1973 19.844 17.6843 22.2624C11.1713 24.6861 4.73319 22.236 3.29596 16.8012C1.86407 11.3663 5.98342 5.00013 12.4964 2.58172ZM6.44825 4.66145C-0.315817 9.95868 -2.03088 17.6373 2.60139 21.8073C7.239 25.9774 16.4715 25.0672 23.2355 19.7646C29.9943 14.4621 31.7147 6.78352 27.0771 2.61347C22.4395 -1.55658 13.207 -0.641075 6.44825 4.66145Z" fill="#F37321"/>
<path d="M45.7404 11.6476H37.9238V10.4093H45.7404V11.6476ZM41.8295 17.0877C40.841 17.0877 40.0343 16.839 39.4145 16.3468C38.7947 15.8547 38.4848 15.262 38.4848 14.5687C38.4848 13.8755 38.7947 13.2987 39.4145 12.8065C40.0343 12.3144 40.841 12.0657 41.8295 12.0657C42.8179 12.0657 43.6193 12.3144 44.2391 12.8065C44.8589 13.2987 45.1688 13.8861 45.1688 14.5687C45.1688 15.2514 44.8589 15.8547 44.2391 16.3468C43.6193 16.839 42.8179 17.0877 41.8295 17.0877ZM42.4279 19.9348H49.1866V21.2578H42.0058C40.4563 21.2578 39.6816 20.5433 39.6816 19.1145V17.7333H41.4287V18.9134C41.4287 19.5961 41.76 19.9348 42.4332 19.9348H42.4279ZM39.8259 8.71057H43.8384V9.96476H39.8259V8.71057ZM41.8295 15.8759C42.2836 15.8759 42.6736 15.7488 42.9996 15.5001C43.3255 15.2514 43.4858 14.9392 43.4858 14.5635C43.4858 14.1877 43.3255 13.8914 42.9996 13.6427C42.6736 13.3939 42.2836 13.2669 41.8295 13.2669C41.3753 13.2669 40.9853 13.3939 40.6594 13.6427C40.3335 13.8914 40.1732 14.1983 40.1732 14.5635C40.1732 14.9286 40.3335 15.2514 40.6594 15.5001C40.9853 15.7488 41.3753 15.8759 41.8295 15.8759ZM49.1225 12.0921H50.923V13.4469H49.1225V17.8074H47.3914V8.92754H49.1225V12.0921Z" fill="black"/>
<path d="M55.4593 17.0136C54.8396 16.9078 54.3106 16.6802 53.8778 16.3204C53.2794 15.8335 52.9749 15.2461 52.9749 14.5635C52.9749 13.8808 53.2848 13.2934 53.9046 12.8012C54.5243 12.3091 55.3311 12.0604 56.3195 12.0604C57.308 12.0604 58.1094 12.3091 58.7345 12.8012C59.3543 13.2934 59.6642 13.8808 59.6642 14.5635C59.6642 15.2461 59.365 15.8282 58.7612 16.3204C58.3338 16.6644 57.8155 16.8972 57.2064 17.0136V18.3207H59.1406C60.8823 18.3207 61.7532 17.6539 61.7532 16.3204V8.92225H63.4843V13.0658H65.2849V14.4312H63.4843V21.2842H61.7532V18.9664C61.2296 19.4267 60.4549 19.6596 59.4291 19.6596H52.104V18.3207H55.4593V17.0136ZM60.1984 11.6476H52.3818V10.4093H60.1984V11.6476ZM54.3106 8.71057H58.3231V9.96476H54.3106V8.71057ZM56.3195 15.8759C56.7737 15.8759 57.1637 15.7489 57.4896 15.5001C57.8155 15.2514 57.9758 14.9392 57.9758 14.5635C57.9758 14.1877 57.8155 13.8914 57.4896 13.6427C57.1637 13.3939 56.7737 13.2669 56.3195 13.2669C55.8654 13.2669 55.4754 13.3939 55.1494 13.6427C54.8235 13.8914 54.6632 14.1983 54.6632 14.5635C54.6632 14.9286 54.8235 15.2514 55.1494 15.5001C55.4754 15.7489 55.8654 15.8759 56.3195 15.8759Z" fill="black"/>
<path d="M79.208 15.3466V16.7014H66.46V15.3466H71.9417V13.5897H73.7156V15.3466H79.208ZM73.7156 9.05453C73.7156 10.0547 74.2018 10.9332 75.1849 11.7005C76.1252 12.4414 77.1724 12.8594 78.3211 12.9547V14.2512C76.9373 14.2142 75.5695 13.7591 74.2231 12.8859C73.6515 12.5207 73.192 12.108 72.8447 11.6476C72.4867 12.108 72.0219 12.5207 71.4502 12.8859C70.1038 13.7591 68.736 14.2142 67.3522 14.2512V12.9547C68.5063 12.8594 69.5535 12.4414 70.4885 11.7005C71.4662 10.9332 71.9578 10.0494 71.9578 9.05453V8.95398H73.7156V9.05453ZM70.7503 19.9242H77.8296V21.263H70.2C68.7253 21.263 67.9934 20.501 67.9934 18.9769V17.511H69.7351V18.834C69.7351 19.5643 70.0717 19.9295 70.7503 19.9295V19.9242Z" fill="black"/>
<path d="M87.4043 12.2773H80.6616V10.9808H87.4043V12.2773ZM87.1265 16.0081C87.1265 16.9024 86.838 17.6433 86.2716 18.2413C85.6999 18.834 84.9573 19.1356 84.049 19.1356C83.1407 19.1356 82.398 18.8393 81.8264 18.2413C81.2547 17.6486 80.9715 16.9024 80.9715 16.0081C80.9715 15.1138 81.2547 14.3729 81.8264 13.7749C82.398 13.1769 83.1407 12.8806 84.049 12.8806C84.9573 12.8806 85.6999 13.1769 86.2716 13.7749C86.8433 14.3676 87.1265 15.1138 87.1265 16.0081ZM82.2271 8.96983H85.8602V10.2822H82.2271V8.96983ZM85.4381 16.0081C85.4381 15.4419 85.3099 14.9921 85.0588 14.664C84.8077 14.3359 84.4604 14.1665 84.0276 14.1665C83.5949 14.1665 83.2636 14.3306 83.0178 14.664C82.7721 14.9973 82.6492 15.4419 82.6492 16.0081C82.6492 16.5743 82.7721 17.0242 83.0178 17.3523C83.2636 17.6804 83.6002 17.8497 84.0276 17.8497C84.4551 17.8497 84.8077 17.6856 85.0588 17.3523C85.3099 17.0189 85.4381 16.5743 85.4381 16.0081ZM91.0802 8.92749H92.7792V21.2895H91.0802V14.4364H89.8567V21.2895H88.1844V8.92749H89.8567V13.0711H91.0802V8.92749Z" fill="black"/>
<path d="M105.944 16.2252H102.022V18.6436H107.515V20.0089H94.7666V18.6436H100.248V16.2252H98.2876C96.8076 16.2252 96.0649 15.4896 96.0649 14.0237V9.21863H97.796V11.4042H104.218V9.21863H105.949V16.2304L105.944 16.2252ZM104.218 14.8863V12.7272H97.796V13.9655C97.796 14.5794 98.1112 14.8863 98.7417 14.8863H104.218Z" fill="black"/>
<path d="M116.988 11.6158H109.171V10.3775H116.988V11.6158ZM109.652 14.2512C109.652 13.6003 109.967 13.0553 110.603 12.6266C111.239 12.1927 112.061 11.981 113.082 11.981C114.102 11.981 114.914 12.198 115.55 12.6266C116.191 13.0605 116.507 13.6003 116.507 14.2512C116.507 14.9021 116.186 15.4472 115.55 15.8864C114.909 16.3257 114.086 16.5426 113.082 16.5426C112.077 16.5426 111.239 16.3257 110.603 15.8864C109.967 15.4525 109.652 14.9074 109.652 14.2512ZM111.073 8.71057H115.085V9.96476H111.073V8.71057ZM111.383 14.2671C111.383 14.6005 111.543 14.8651 111.864 15.0609C112.184 15.2514 112.59 15.3467 113.087 15.3467C113.584 15.3467 113.99 15.2514 114.311 15.0609C114.631 14.8704 114.792 14.6058 114.792 14.2671C114.792 13.9284 114.631 13.6638 114.311 13.468C113.99 13.2722 113.584 13.1717 113.087 13.1717C112.59 13.1717 112.184 13.2722 111.864 13.468C111.543 13.6638 111.383 13.9337 111.383 14.2671ZM120.882 18.0244V21.2631H113.483C112.099 21.2631 111.404 20.6704 111.404 19.4797V17.1459H119.921C120.562 17.1459 120.877 17.437 120.877 18.0244H120.882ZM119.157 18.4107H113.141V19.3474C113.141 19.7813 113.376 19.993 113.851 19.993H119.157V18.4107ZM119.157 13.8649H116.934V12.5102H119.157V8.92754H120.888V16.5268H119.157V13.8649Z" fill="black"/>
</g>
<defs>
<clipPath id="clip0_1634_10385">
<rect width="120.882" height="30" fill="white"/>
</clipPath>
</defs>
</svg>
