<svg width="151" height="84" viewBox="0 0 151 84" fill="none" xmlns="http://www.w3.org/2000/svg">
<path d="M145.06 13.9683C146.345 14.0153 147.439 14.4856 148.343 15.3792C149.247 16.2257 149.723 17.2839 149.77 18.5538V42.963C149.485 45.7848 147.915 47.3133 145.06 47.5485C143.728 47.5485 142.562 47.1252 141.563 46.2787C140.612 45.3851 140.136 44.2798 140.136 42.963V18.5538C140.183 17.2369 140.683 16.1552 141.634 15.3086C142.586 14.415 143.728 13.9683 145.06 13.9683ZM139.065 4.79718C139.065 3.48031 139.636 2.35156 140.778 1.41093C141.92 0.470312 143.3 0 144.917 0C146.535 0 147.915 0.470312 149.056 1.41093C150.198 2.35156 150.769 3.48031 150.769 4.79718C150.769 6.16108 150.198 7.31334 149.056 8.25397C147.915 9.19459 146.535 9.6649 144.917 9.6649C143.3 9.6649 141.92 9.19459 140.778 8.25397C139.636 7.31334 139.065 6.16108 139.065 4.79718Z" fill="#1E1D36"/>
<path d="M108.141 42.9629V25.9612C108.141 24.7854 107.523 24.174 106.286 24.127H81.3079C80.404 24.174 79.6189 24.5738 78.9529 25.3263C78.2868 26.0317 77.7872 26.8783 77.4542 27.8659C77.1687 28.8066 77.026 29.7707 77.026 30.7584C77.026 31.699 77.1687 32.6631 77.4542 33.6508C77.7872 34.5914 78.2868 35.438 78.9529 36.1905C79.6189 36.8959 80.404 37.2487 81.3079 37.2487H99.5774C100.91 37.2487 102.028 37.719 102.932 38.6596C103.883 39.5532 104.359 40.6584 104.359 41.9753C104.359 43.2922 103.883 44.3974 102.932 45.291C102.028 46.2316 100.91 46.7019 99.5774 46.7019H81.5934C78.263 46.6549 75.5035 45.7378 73.315 43.9506C71.174 42.1164 69.6278 40.0705 68.6763 37.813C67.7723 35.5085 67.3203 33.1334 67.3203 30.6878C67.3203 28.3363 67.7961 26.0317 68.7476 23.7742C69.6992 21.4697 71.2454 19.4239 73.3864 17.6367C75.5273 15.8025 78.6912 14.8148 82.878 14.6737H112.851C114.184 14.6737 115.325 15.1205 116.277 16.0141C117.228 16.8607 117.728 17.9424 117.776 19.2592V42.9629C117.776 44.2798 117.276 45.3851 116.277 46.2786C115.325 47.1252 114.184 47.5485 112.851 47.5485C109.997 47.3133 108.427 45.7848 108.141 42.9629Z" fill="#1E1D36"/>
<path d="M4.92421 3.95056C6.20878 3.99759 7.30305 4.4679 8.20701 5.3615C9.11097 6.20806 9.58674 7.26626 9.63432 8.5361V14.6737H31.7576C35.0879 14.7207 37.8236 15.6613 39.9646 17.4955C42.1531 19.2827 43.6994 21.3051 44.6033 23.5626C45.5549 25.8671 46.0306 28.2422 46.0306 30.6878H46.102V42.9629C46.102 44.2798 45.6024 45.385 44.6033 46.2786C43.6518 47.1252 42.5099 47.5484 41.1778 47.5484C38.3232 47.3133 36.7531 45.7848 36.4677 42.9629V30.6172C36.4677 29.7236 36.2774 28.783 35.8968 27.7954C35.5637 26.8077 35.0642 25.9611 34.3981 25.2557C33.732 24.5032 32.947 24.1269 32.043 24.1269H9.63432V43.104C9.34886 45.9259 7.77882 47.4544 4.92421 47.6895C3.59205 47.6895 2.42642 47.2663 1.42731 46.4197C0.475769 45.5261 0 44.4209 0 43.104V8.5361C0.0475769 7.21923 0.547134 6.13751 1.49867 5.29095C2.45021 4.39736 3.59205 3.95056 4.92421 3.95056Z" fill="#1E1D36"/>
<path d="M142.012 62.3539C142.012 61.668 141.651 61.3114 140.93 61.2839H126.359C125.832 61.3114 125.374 61.5446 124.986 61.9835C124.597 62.395 124.306 62.8889 124.111 63.465C123.945 64.0137 123.862 64.5761 123.862 65.1522C123.862 65.7009 123.945 66.2634 124.111 66.8395C124.306 67.3882 124.597 67.882 124.986 68.321C125.374 68.7325 125.832 68.9383 126.359 68.9383H137.017C137.794 68.9383 138.446 69.2126 138.973 69.7613C139.528 70.2826 139.806 70.9273 139.806 71.6955C139.806 72.4636 139.528 73.1084 138.973 73.6296C138.446 74.1783 137.794 74.4527 137.017 74.4527H126.526C124.583 74.4252 122.973 73.8902 121.697 72.8477C120.448 71.7778 119.546 70.5843 118.991 69.2675C118.464 67.9232 118.2 66.5377 118.2 65.1111C118.2 63.7394 118.477 62.395 119.033 61.0782C119.588 59.7339 120.49 58.5405 121.738 57.4979C122.987 56.428 124.833 55.8518 127.275 55.7695H144.76C145.537 55.7695 146.203 56.0302 146.758 56.5514C147.313 57.0453 147.604 57.6763 147.632 58.4444V71.4485C147.632 73.6433 147.327 75.7147 146.716 77.6625C146.161 79.3909 145.245 80.845 143.969 82.0247C142.72 83.2318 141.124 83.8902 139.181 84H124.777C124.028 83.9726 123.39 83.6982 122.862 83.1769C122.363 82.6831 122.099 82.0658 122.072 81.3251C122.072 80.5569 122.321 79.8985 122.821 79.3498C123.348 78.8011 124 78.513 124.777 78.4856H137.766C138.821 78.4307 139.695 78.0329 140.389 77.2922C141.082 76.5514 141.526 75.6872 141.721 74.6996C141.915 73.7119 142.012 72.4362 142.012 70.8724V62.3539Z" fill="#1E1D36"/>
<path d="M93.6968 55.1522C95.1399 55.1522 96.5553 55.3168 97.943 55.646C99.3584 55.9753 100.704 56.4691 101.981 57.1275C103.258 57.7585 104.382 58.609 105.353 59.679C106.352 60.7489 106.893 62.0247 106.977 63.5061V65.2345V72.2716C106.81 73.9177 105.894 74.8093 104.229 74.9465C103.452 74.9465 102.772 74.6996 102.189 74.2057C101.634 73.6845 101.357 73.0397 101.357 72.2716V70.4609V64.7819C101.301 63.9314 100.968 63.2318 100.358 62.6831C99.7747 62.107 99.1086 61.6543 98.3593 61.3251C97.6377 60.9958 96.8745 60.7489 96.0697 60.5843C95.2926 60.4197 94.5016 60.3374 93.6968 60.3374C92.8919 60.3374 92.0871 60.4197 91.2822 60.5843C90.5051 60.7489 89.7419 60.9958 88.9926 61.3251C88.271 61.6543 87.6049 62.107 86.9944 62.6831C86.4116 63.2318 86.0924 63.9314 86.0369 64.7819V70.4609V72.2716C85.8981 73.9177 84.9961 74.8093 83.3309 74.9465C82.5539 74.9465 81.8739 74.6996 81.2911 74.2057C80.736 73.6845 80.4585 73.0397 80.4585 72.2716V65.2345V63.5061C80.5418 62.0247 81.0691 60.7489 82.0404 59.679C83.0118 58.609 84.1358 57.7585 85.4124 57.1275C86.6891 56.4691 88.0212 55.9753 89.4089 55.646C90.8243 55.3168 92.2536 55.1522 93.6968 55.1522Z" fill="#1E1D36"/>
<path d="M63.0322 72.2716V62.3539C63.0322 61.668 62.6714 61.3114 61.9498 61.2839H47.3794C46.8521 61.3114 46.3942 61.5446 46.0056 61.9835C45.6171 62.395 45.3257 62.8889 45.1314 63.465C44.9649 64.0137 44.8816 64.5761 44.8816 65.1522C44.8816 65.7009 44.9649 66.2634 45.1314 66.8395C45.3257 67.3882 45.6171 67.882 46.0056 68.321C46.3942 68.7325 46.8521 68.9383 47.3794 68.9383H58.0366C58.8137 68.9383 59.4659 69.2126 59.9932 69.7613C60.5483 70.2826 60.8258 70.9273 60.8258 71.6955C60.8258 72.4636 60.5483 73.1083 59.9932 73.6296C59.4659 74.1783 58.8137 74.4527 58.0366 74.4527H47.5459C45.6032 74.4252 43.9935 73.8902 42.7169 72.8477C41.468 71.7778 40.566 70.5843 40.0109 69.2675C39.4836 67.9232 39.22 66.5377 39.22 65.1111C39.22 63.7394 39.4975 62.395 40.0526 61.0782C40.6076 59.7339 41.5096 58.5404 42.7585 57.4979C44.0074 56.428 45.853 55.8518 48.2953 55.7695H65.7798C66.5569 55.7695 67.2229 56.0302 67.778 56.5514C68.3331 57.0453 68.6245 57.6763 68.6522 58.4444V72.2716C68.6522 73.0398 68.3608 73.6845 67.778 74.2057C67.2229 74.6996 66.5569 74.9465 65.7798 74.9465C64.1146 74.8093 63.1987 73.9177 63.0322 72.2716Z" fill="#1E1D36"/>
<path d="M3.31014 60.9547C3.83745 59.6378 4.72555 58.4581 5.97444 57.4156C7.25109 56.3457 8.86077 55.797 10.8035 55.7695H26.4563C27.2334 55.7695 27.8856 56.0439 28.4129 56.5926C28.968 57.1138 29.2455 57.7586 29.2455 58.5267C29.2455 59.2949 28.968 59.9533 28.4129 60.502C27.8856 61.0233 27.2334 61.2839 26.4563 61.2839H10.637C10.1097 61.2839 9.65174 61.5034 9.2632 61.9424C8.87465 62.3539 8.56937 62.8477 8.34734 63.4238C8.15307 64 8.05593 64.5487 8.05593 65.0699V72.2716C7.88941 73.9177 6.97356 74.8093 5.30837 74.9465C4.53128 74.9465 3.85133 74.6996 3.26851 74.2057C2.71344 73.6845 2.43591 73.0398 2.43591 72.2716V65.1111H2.47754C2.47754 63.6845 2.75507 62.299 3.31014 60.9547Z" fill="#1E1D36"/>
</svg>
