<svg width="24" height="24" viewBox="0 0 24 24" fill="none" xmlns="http://www.w3.org/2000/svg">
<path d="M19.7988 2.0791C21.2632 3.25287 22.2008 5.0565 22.2008 7.0791C22.2008 9.10171 21.2632 10.9053 19.7988 12.0791" stroke="black" stroke-linecap="round"/>
<path d="M17.3281 4.0791C18.202 4.78623 18.7607 5.86742 18.7607 7.0791C18.7607 8.29079 18.202 9.37198 17.3281 10.0791" stroke="black" stroke-linecap="round"/>
<circle cx="10.7988" cy="8.7959" r="3.5" stroke="black"/>
<path d="M2.29883 18.1243C2.29883 17.7222 2.45716 17.3691 2.73498 17.1523C3.90708 16.238 6.74781 14.4209 10.7988 14.4209C14.8498 14.4209 17.6906 16.238 18.8627 17.1523C19.1405 17.3691 19.2988 17.7222 19.2988 18.1243V19.9209C19.2988 20.7493 18.6273 21.4209 17.7988 21.4209H3.79883C2.9704 21.4209 2.29883 20.7493 2.29883 19.9209V18.1243Z" stroke="black"/>
</svg>
