<svg width="16" height="16" viewBox="0 0 16 16" fill="none" xmlns="http://www.w3.org/2000/svg">
<path d="M2.30664 13.695V11.2402L8.63273 4.91406L11.0995 7.37488L4.77345 13.707L2.30664 13.695Z" fill="white"/>
<path d="M8.6322 5.33066L10.6729 7.37133L4.64686 13.3973L2.60621 13.3853V11.3566L8.63821 5.32465M8.6322 4.48438L2 11.1166V13.9915L4.88696 14.0095L11.5192 7.37734L8.6322 4.49038V4.48438Z" fill="white"/>
<path d="M11.1062 2.40123L9.89258 3.61523L12.3588 6.0806L13.5724 4.86659L11.1062 2.40123Z" fill="white"/>
<path d="M11.1229 2.84628L13.1636 4.88696L12.3773 5.67322L10.3367 3.63254L11.1229 2.84628ZM11.1229 2L9.48438 3.63855L12.3713 6.52551L14.0099 4.88696L11.1229 2Z" fill="white"/>
</svg>
