<svg width="43" height="42" viewBox="0 0 43 42" fill="none" xmlns="http://www.w3.org/2000/svg">
<path fill-rule="evenodd" clip-rule="evenodd" d="M21.8316 22.7075L17.2205 22.2539L14.2929 36.655C13.9405 38.3883 15.1564 40.0429 16.9156 40.2239L17.546 40.2887C19.0857 40.4471 20.4978 39.4089 20.8061 37.8918L21.8316 32.8445L22.8571 37.8918C23.1653 39.4089 24.5774 40.4471 26.1172 40.2887L26.7476 40.2239C28.5067 40.0429 29.7226 38.3883 29.3703 36.655L26.4426 22.2539L21.8316 22.7075Z" fill="#00C1EC"/>
<path d="M19.949 10.3809H23.6075C25.6552 10.3809 27.2655 12.131 27.0955 14.1715L26.2594 24.2044H17.2972L16.4611 14.1715C16.291 12.131 17.9014 10.3809 19.949 10.3809Z" fill="#3461D6"/>
<path d="M19.949 10.3809H23.6075C25.6552 10.3809 27.2655 12.131 27.0955 14.1715L26.2594 24.2044H17.2972L16.4611 14.1715C16.291 12.131 17.9014 10.3809 19.949 10.3809Z" fill="#241B8F"/>
<path d="M19.949 10.3809H23.6075C25.6552 10.3809 27.2655 12.131 27.0955 14.1715L26.2594 24.2044H17.2972L16.4611 14.1715C16.291 12.131 17.9014 10.3809 19.949 10.3809Z" stroke="#3461D6"/>
<path d="M19.949 10.3809H23.6075C25.6552 10.3809 27.2655 12.131 27.0955 14.1715L26.2594 24.2044H17.2972L16.4611 14.1715C16.291 12.131 17.9014 10.3809 19.949 10.3809Z" stroke="#241B8F"/>
<path d="M12.2783 16.8008L11.1587 26.1957C11.0928 26.7492 11.2507 27.3109 11.5954 27.7485L17.2198 34.8897L20.9257 34.8897" stroke="#346BF7" stroke-width="3" stroke-linecap="round"/>
<path d="M31.2783 16.8008L32.3979 26.1957C32.4639 26.7492 32.3059 27.3109 31.9612 27.7485L26.3368 34.8897L22.6557 33.5977" stroke="#346BF7" stroke-width="3" stroke-linecap="round"/>
<path fill-rule="evenodd" clip-rule="evenodd" d="M14.0797 11.0334C12.7846 11.4697 11.8019 12.5369 11.4738 13.8635L10.7783 16.675H21.7783H21.7785H32.7784L32.083 13.8635C31.7549 12.5369 30.7722 11.4697 29.4771 11.0334L27.8895 10.4985L25.445 9.88086C23.4286 9.88086 21.7924 11.5084 21.7784 13.5215C21.7643 11.5084 20.1281 9.88086 18.1118 9.88086L15.6673 10.4985L14.0797 11.0334Z" fill="#3461D6"/>
<path fill-rule="evenodd" clip-rule="evenodd" d="M14.0797 11.0334C12.7846 11.4697 11.8019 12.5369 11.4738 13.8635L10.7783 16.675H21.7783H21.7785H32.7784L32.083 13.8635C31.7549 12.5369 30.7722 11.4697 29.4771 11.0334L27.8895 10.4985L25.445 9.88086C23.4286 9.88086 21.7924 11.5084 21.7784 13.5215C21.7643 11.5084 20.1281 9.88086 18.1118 9.88086L15.6673 10.4985L14.0797 11.0334Z" fill="#241B8F"/>
<circle cx="21.7778" cy="7.41188" r="4.94118" fill="#346BF7"/>
</svg>
