<svg width="42" height="42" viewBox="0 0 42 42" fill="none" xmlns="http://www.w3.org/2000/svg">
<path d="M20.0482 7.375H22.3408L23.4871 24.5696H18.9019L20.0482 7.375Z" fill="#2283F4"/>
<path d="M21.1944 3.22656L23.3748 4.81072L22.3407 7.37393H20.0481L19.014 4.81072L21.1944 3.22656Z" fill="#3D6DE7"/>
<path fill-rule="evenodd" clip-rule="evenodd" d="M16.8959 2L13.2114 3.77308C11.9832 4.36411 10.5055 5.19524 9.52683 6.13719C8.54812 7.07913 7.27516 8.6983 7.07046 9.09232C6.32666 10.6672 5.96996 13.692 5.6278 16.5936C5.49914 17.6846 5.37254 18.7583 5.22818 19.7308C4.61409 23.868 4.2047 31.1573 4 35.6885H9.52683L11.3691 16.1846C11.4471 16.4098 11.5251 16.6274 11.6018 16.8415C12.1293 18.3128 12.5973 19.6183 12.5973 22.0949C12.5973 24.9318 12.5973 28.0052 11.9832 32.1424L10.755 36.8706C10.755 38.0526 11.9832 39.2347 14.4396 39.8257C16.2268 40.2557 18.1241 39.8257 18.7382 39.2347C18.8593 39.1181 18.9709 39.0245 19.0766 38.9358C19.5072 38.5747 19.8419 38.294 20.3348 36.8706C20.9489 35.0975 21.1946 32.1424 21.1946 32.1424C21.1946 32.1424 21.4402 35.0975 22.0543 36.8706C22.5473 38.2939 22.8819 38.5747 23.3125 38.9358C23.4183 39.0245 23.5298 39.1181 23.6509 39.2347C24.265 39.8257 26.1623 40.2557 27.9496 39.8257C30.4059 39.2347 31.6341 38.0526 31.6341 36.8706L30.4059 32.1424C29.7919 28.0052 29.7919 24.9318 29.7919 22.0949C29.7919 19.6183 30.2598 18.3128 30.7873 16.8415C30.864 16.6274 30.942 16.4098 31.02 16.1846L32.8623 35.6885H38.3891C38.1844 31.1573 37.775 23.868 37.1609 19.7308C37.0166 18.7582 36.89 17.6846 36.7613 16.5936C36.4192 13.692 36.0625 10.6672 35.3187 9.09232C35.114 8.6983 33.841 7.07913 32.8623 6.13719C31.8836 5.19524 30.4059 4.36411 29.1778 3.77308L25.4932 2C25.4932 2.98504 25.4932 3.77308 24.8791 6.72821C24.265 9.68334 23.0368 15.0026 21.1946 21.5039C19.3523 15.0026 18.1241 9.68334 17.51 6.72821C16.8959 3.77308 16.8959 2.98504 16.8959 2Z" fill="#1F243D"/>
<path fill-rule="evenodd" clip-rule="evenodd" d="M14.8899 31.7539C14.5734 31.7539 14.3168 32.0105 14.3168 32.3271C14.3168 32.6436 14.5734 32.9002 14.8899 32.9002H18.3288C18.6454 32.9002 18.902 32.6436 18.902 32.3271C18.902 32.0105 18.6454 31.7539 18.3288 31.7539H14.8899ZM24.0603 31.7539C23.7438 31.7539 23.4872 32.0105 23.4872 32.3271C23.4872 32.6436 23.7438 32.9002 24.0603 32.9002H27.4993C27.8158 32.9002 28.0724 32.6436 28.0724 32.3271C28.0724 32.0105 27.8158 31.7539 27.4993 31.7539H24.0603Z" fill="#5D707A"/>
</svg>
