<svg width="42" height="42" viewBox="0 0 42 42" fill="none" xmlns="http://www.w3.org/2000/svg">
<path d="M14.7278 37.0289L14.7277 37.029C14.4273 37.6301 13.9655 38.1356 13.3939 38.489C12.8224 38.8423 12.1637 39.0295 11.4917 39.0295H8.64644C7.14095 39.0295 5.69712 38.4315 4.63257 37.3669C3.56803 36.3024 2.96997 34.8586 2.96997 33.3531V21.0001C2.96997 16.2184 4.86949 11.6326 8.25066 8.25139C11.6318 4.87022 16.2177 2.9707 20.9994 2.9707C25.7811 2.9707 30.3669 4.87022 33.7481 8.25139C37.1293 11.6326 39.0288 16.2184 39.0288 21.0001V33.3531C39.0288 34.8586 38.4307 36.3024 37.3662 37.3669C36.3017 38.4315 34.8578 39.0295 33.3523 39.0295H30.507C29.8351 39.0295 29.1764 38.8423 28.6048 38.489C28.0333 38.1356 27.5714 37.6301 27.2711 37.029L27.271 37.0289L27.1009 36.6887C27.6474 36.2817 28.1779 35.8245 28.6795 35.3195C31.0253 32.9587 32.8229 29.494 32.8229 25.1178L32.8229 25.1159C32.8171 23.5552 32.5664 22.0051 32.0798 20.5222C31.9297 20.0577 31.6249 19.7734 31.2582 19.6238C30.9227 19.4869 30.5542 19.4707 30.2641 19.4707L30.2637 19.4707C28.6919 19.4719 27.143 19.0943 25.7481 18.3697C24.3532 17.6452 23.1536 16.5951 22.2507 15.3085L22.2504 15.3081C22.1093 15.1074 21.922 14.9436 21.7042 14.8305C21.4865 14.7175 21.2447 14.6584 20.9994 14.6584C20.754 14.6584 20.5123 14.7175 20.2945 14.8305C20.0769 14.9435 19.8897 15.1072 19.7486 15.3077C17.9729 17.8282 15.0445 19.4707 11.7347 19.4707C11.4445 19.4707 11.0764 19.4869 10.7411 19.6239C10.3744 19.7737 10.0701 20.0581 9.91897 20.522L9.91895 20.5221C9.44049 21.9915 9.17585 23.5487 9.17585 25.1178C9.17585 29.4919 10.9735 32.9587 13.3194 35.3196C13.8111 35.8145 14.3387 36.2721 14.8979 36.6886L14.7278 37.0289Z" fill="#D9D9D9" stroke="#DDDDDD"/>
</svg>
