<svg width="43" height="42" viewBox="0 0 43 42" fill="none" xmlns="http://www.w3.org/2000/svg">
<ellipse cx="22.0369" cy="29.0296" rx="4.94118" ry="3.08824" fill="#00A9CE"/>
<path d="M28.5722 33.5566C29.7581 34.2239 30.2861 35.6519 29.8197 36.9301V36.9301C29.1503 38.7648 26.8469 39.3544 25.3783 38.067L17.671 31.3105C16.9979 30.7205 16.8927 29.7115 17.4297 28.9953V28.9953C17.9453 28.3077 18.8907 28.1087 19.6398 28.5302L28.5722 33.5566Z" fill="#016A81"/>
<path d="M26.4082 23.8669L19.6122 24.4672L25.1313 37.1439C25.5869 38.1904 26.6803 38.809 27.8121 38.6604V38.6604C29.382 38.4544 30.3905 36.8871 29.9274 35.3729L26.4082 23.8669Z" fill="#00C1EC"/>
<path d="M16.2214 14.215C16.027 11.8829 17.8674 9.88281 20.2075 9.88281H23.8661C26.2063 9.88281 28.0466 11.8829 27.8523 14.215L26.978 24.7063H17.0956L16.2214 14.215Z" fill="#3461D6"/>
<path d="M16.2214 14.215C16.027 11.8829 17.8674 9.88281 20.2075 9.88281H23.8661C26.2063 9.88281 28.0466 11.8829 27.8523 14.215L26.978 24.7063H17.0956L16.2214 14.215Z" fill="#241B8F"/>
<path d="M12.5322 16.6758L11.5875 25.1052C11.5749 25.2176 11.5402 25.3283 11.4852 25.432L7.86253 32.2621L5.39194 33.3371" stroke="#346BF7" stroke-width="3" stroke-linecap="round"/>
<path d="M31.3323 16.6758L32.2771 25.1052C32.2896 25.2176 32.3243 25.3283 32.3793 25.432L36.002 32.2621L38.4726 33.3371" stroke="#346BF7" stroke-width="3" stroke-linecap="round"/>
<path d="M21.691 31.5838C21.6959 32.9724 20.5686 34.0991 19.18 34.0934V34.0934C17.7824 34.0877 16.6608 32.9377 16.69 31.5404L16.9051 21.2447C16.9322 19.9489 17.9932 18.9141 19.2893 18.9194V18.9194C20.5939 18.9247 21.65 19.9813 21.6546 21.286L21.691 31.5838Z" fill="#016A81"/>
<path d="M16.2793 21.0677C16.3593 19.6433 17.5376 18.5293 18.9642 18.5293V18.5293C20.591 18.5293 21.8452 19.9624 21.6296 21.5748L19.4685 37.7401C19.3316 38.7645 18.4577 39.5293 17.4242 39.5293V39.5293C16.2397 39.5293 15.2986 38.5339 15.365 37.3512L16.2793 21.0677Z" fill="#00C1EC"/>
<path fill-rule="evenodd" clip-rule="evenodd" d="M11.6146 13.8655C11.9428 12.5389 12.9255 11.4716 14.2205 11.0353L15.8081 10.5005L18.2526 9.88281C18.2788 9.88281 18.3049 9.88309 18.331 9.88363V9.88281H25.5859H25.7427V9.92244L28.0303 10.5005L29.618 11.0353C30.913 11.4716 31.8957 12.5389 32.2239 13.8655L32.9193 16.6769H21.9193H21.9192H10.9192L11.6146 13.8655Z" fill="#3461D6"/>
<path fill-rule="evenodd" clip-rule="evenodd" d="M11.6146 13.8655C11.9428 12.5389 12.9255 11.4716 14.2205 11.0353L15.8081 10.5005L18.2526 9.88281C18.2788 9.88281 18.3049 9.88309 18.331 9.88363V9.88281H25.5859H25.7427V9.92244L28.0303 10.5005L29.618 11.0353C30.913 11.4716 31.8957 12.5389 32.2239 13.8655L32.9193 16.6769H21.9193H21.9192H10.9192L11.6146 13.8655Z" fill="#241B8F"/>
<circle cx="22.0369" cy="7.41188" r="4.94118" fill="#346BF7"/>
</svg>
