<svg width="24" height="24" viewBox="0 0 24 24" fill="none" xmlns="http://www.w3.org/2000/svg">
<g clip-path="url(#clip0_879_7024)">
<path d="M7.89833 1.75208C2.89583 2.71041 0.5 5.58541 0.5 5.58541C0.5 5.58541 0.9025 8.90458 2.41667 10.4187C3.93083 11.9329 5.56 11.8562 5.56 11.8562V21.7687C5.56 21.7687 8.64583 22.2479 12 22.2479C15.3542 22.2479 17.98 21.7687 17.98 21.7687V11.8562C17.98 11.8562 19.1875 11.8562 21.1042 10.4187C23.0208 8.98124 23.5 5.58541 23.5 5.58541C23.5 5.58541 21.1042 2.71041 16.1017 1.75208M7.89833 1.75208L12 7.02291L16.1017 1.75208M7.89833 1.75208C11.5208 3.18958 12.4792 3.18958 16.1017 1.75208" stroke="black"/>
</g>
<defs>
<clipPath id="clip0_879_7024">
<rect width="24" height="24" fill="white"/>
</clipPath>
</defs>
</svg>
