<svg width="43" height="42" viewBox="0 0 43 42" fill="none" xmlns="http://www.w3.org/2000/svg">
<path fill-rule="evenodd" clip-rule="evenodd" d="M21.1377 3C18.8009 3.00005 16.7012 3.82929 15.8638 4.20819V39.2205L21.1377 39.2205H21.1379L26.4119 39.2205V4.20819C25.5745 3.82929 23.4747 3.00005 21.1379 3" fill="#00504B"/>
<path fill-rule="evenodd" clip-rule="evenodd" d="M18.2951 10.886L16.2331 5.2204C16.1395 4.96322 15.8211 4.87388 15.6074 5.04485L13.2676 6.91668C13.2313 6.94567 13.1911 6.96785 13.1473 6.98309C12.7595 7.11799 10.7299 7.83902 9.2531 8.65834C7.61381 9.56781 6.98932 10.3562 5.29148 14.3178C4.02777 17.2664 3.39112 18.961 3.14816 19.6348C3.07818 19.8289 3.17186 20.041 3.36056 20.1244L9.93008 23.0278C10.0749 23.0918 10.1684 23.2353 10.1684 23.3937V39.3854C10.1684 39.6063 10.3475 39.7854 10.5684 39.7854H17.7423C17.7423 39.7854 18.8742 39.7854 19.4401 39.2194C20.0041 38.6554 20.0041 37.5293 20.0041 37.5216V37.5212L20.0061 13.8627C20.0061 13.7902 19.9864 13.719 19.9491 13.6568L18.328 10.955C18.3148 10.9331 18.3038 10.91 18.2951 10.886ZM23.9808 10.886L26.0428 5.2204C26.1364 4.96322 26.4549 4.87388 26.6686 5.04485L29.0084 6.91668C29.0446 6.94567 29.0848 6.96785 29.1286 6.98309C29.5165 7.11799 31.546 7.83902 33.0228 8.65834C34.6621 9.56781 35.2866 10.3562 36.9845 14.3178C38.2482 17.2664 38.8848 18.961 39.1278 19.6348C39.1978 19.8289 39.1041 20.041 38.9154 20.1244L32.3458 23.0278C32.201 23.0918 32.1075 23.2353 32.1075 23.3937V39.3854C32.1075 39.6063 31.9285 39.7854 31.7075 39.7854H24.5336C24.5336 39.7854 23.4018 39.7854 22.8358 39.2194C22.2718 38.6554 22.2718 37.5293 22.2718 37.5216V37.5212L22.2699 13.8627C22.2699 13.7902 22.2896 13.719 22.3269 13.6568L23.9479 10.955C23.9611 10.9331 23.9721 10.91 23.9808 10.886Z" fill="#05C0B5"/>
<path fill-rule="evenodd" clip-rule="evenodd" d="M15.854 4.13281L13.7808 6.3966L15.8166 13.5222C15.9087 13.8442 16.3321 13.9173 16.5267 13.6448L18.8743 10.3582L15.854 4.13281ZM26.422 4.13287L28.4952 6.39665L26.4594 13.5222C26.3674 13.8443 25.9439 13.9174 25.7493 13.6448L23.4017 10.3583L26.422 4.13287Z" fill="white"/>
<mask id="mask0_1815_17299" style="mask-type:alpha" maskUnits="userSpaceOnUse" x="3" y="4" width="37" height="36">
<path fill-rule="evenodd" clip-rule="evenodd" d="M18.2951 10.886L16.2331 5.2204C16.1395 4.96322 15.8211 4.87388 15.6074 5.04485L13.2676 6.91668C13.2313 6.94567 13.1911 6.96785 13.1473 6.98309C12.7595 7.11799 10.7299 7.83902 9.2531 8.65834C7.61381 9.56781 6.98932 10.3562 5.29148 14.3178C4.02777 17.2664 3.39112 18.961 3.14816 19.6348C3.07818 19.8289 3.17186 20.041 3.36056 20.1244L9.93008 23.0278C10.0749 23.0918 10.1684 23.2353 10.1684 23.3937V39.3854C10.1684 39.6063 10.3475 39.7854 10.5684 39.7854H17.7423C17.7423 39.7854 18.8742 39.7854 19.4401 39.2194C20.0041 38.6554 20.0041 37.5293 20.0041 37.5216V37.5212L20.0061 13.8627C20.0061 13.7902 19.9864 13.719 19.9491 13.6568L18.328 10.955C18.3148 10.9331 18.3038 10.91 18.2951 10.886ZM23.9808 10.886L26.0428 5.2204C26.1364 4.96322 26.4549 4.87388 26.6686 5.04485L29.0084 6.91668C29.0446 6.94567 29.0848 6.96785 29.1286 6.98309C29.5165 7.11799 31.546 7.83902 33.0228 8.65834C34.6621 9.56781 35.2866 10.3562 36.9845 14.3178C38.2482 17.2664 38.8848 18.961 39.1278 19.6348C39.1978 19.8289 39.1041 20.041 38.9154 20.1244L32.3458 23.0278C32.201 23.0918 32.1075 23.2353 32.1075 23.3937V39.3854C32.1075 39.6063 31.9285 39.7854 31.7075 39.7854H24.5336C24.5336 39.7854 23.4018 39.7854 22.8358 39.2194C22.2718 38.6554 22.2718 37.5293 22.2718 37.5216V37.5212L22.2699 13.8627C22.2699 13.7902 22.2896 13.719 22.3269 13.6568L23.9479 10.955C23.9611 10.9331 23.9721 10.91 23.9808 10.886Z" fill="#53ACFF"/>
</mask>
<g mask="url(#mask0_1815_17299)">
<path fill-rule="evenodd" clip-rule="evenodd" d="M34.933 10.876C34.9999 10.5193 35.015 10.1331 34.9275 9.74861C34.6164 8.3814 33.1264 7.55469 33.1264 7.55469C33.1264 7.55469 32.1409 8.94466 32.4519 10.3119C32.5396 10.697 32.7208 11.0393 32.9358 11.3323C32.7479 11.4889 32.5875 11.6744 32.4599 11.8804C32.1996 11.7451 31.9119 11.6412 31.6024 11.598C30.2138 11.404 28.9124 12.5039 28.9124 12.5039C28.9124 12.5039 29.8625 13.9183 31.2511 14.1124C31.6264 14.1648 31.9953 14.1227 32.3338 14.0334C32.4516 14.2854 32.6129 14.5088 32.8063 14.6964C32.4849 14.9707 32.1825 15.3211 32 15.7543C31.4558 17.0465 32.1845 18.5868 32.1845 18.5868C32.1845 18.5868 33.7956 18.032 34.3398 16.7397C34.5355 16.275 34.5666 15.7781 34.5262 15.3324C34.6456 15.3247 34.766 15.3075 34.8864 15.2801C35.0174 15.2503 35.1431 15.2097 35.2629 15.1594C35.4192 15.5805 35.6626 16.0173 36.0418 16.353C37.0916 17.2826 38.7841 17.0858 38.7841 17.0858C38.7841 17.0858 38.7747 15.3818 37.7249 14.4523C37.3654 14.134 36.9306 13.9477 36.5141 13.8405C36.5981 13.6082 36.6446 13.3606 36.6482 13.1065C37.0001 13.0364 37.3596 12.9083 37.6806 12.6879C38.8365 11.8942 39.0549 10.2043 39.0549 10.2043C39.0549 10.2043 37.3994 9.80129 36.2435 10.595C36.002 10.7608 35.8015 10.9657 35.6353 11.1861C35.4216 11.0444 35.1842 10.939 34.933 10.876ZM10.2012 11.6298C10.0196 11.9798 9.75861 12.265 9.47717 12.4941C9.62807 12.7043 9.74113 12.9379 9.81274 13.1839C10.0822 13.1229 10.3678 13.0959 10.6594 13.1253C12.0545 13.266 13.0581 14.643 13.0581 14.643C13.0581 14.643 11.7998 15.792 10.4048 15.6513C10.0173 15.6123 9.66011 15.4779 9.34618 15.3041C9.17945 15.4957 8.98407 15.6547 8.77004 15.7778C9.01861 16.1287 9.23024 16.5516 9.29906 17.0267C9.50008 18.4144 8.40674 19.7213 8.40674 19.7213C8.40674 19.7213 6.98749 18.7784 6.78647 17.3907C6.7139 16.8898 6.81001 16.3993 6.96248 15.9771C6.83849 15.9381 6.71617 15.8879 6.59682 15.826C6.48732 15.7692 6.3844 15.7047 6.28839 15.6335C6.03138 15.9999 5.68674 16.3592 5.23711 16.5876C3.98699 17.2226 2.39868 16.6056 2.39868 16.6056C2.39868 16.6056 2.83722 14.959 4.08734 14.324C4.50637 14.1112 4.96339 14.039 5.38586 14.0371C5.35934 13.7689 5.38046 13.4941 5.45333 13.2255C5.13715 13.075 4.82832 12.8689 4.57567 12.5864C3.64084 11.5414 3.82913 9.84788 3.82913 9.84788C3.82913 9.84788 5.53307 9.84873 6.46789 10.8938C6.67626 11.1267 6.82882 11.3919 6.94011 11.6633C7.17066 11.5885 7.41311 11.5504 7.65787 11.5523C7.68291 11.1897 7.76565 10.8114 7.9475 10.4608C8.59308 9.21616 10.2433 8.79161 10.2433 8.79161C10.2433 8.79161 10.8468 10.3851 10.2012 11.6298ZM31.1208 29.3072C31.1208 29.7014 31.0204 30.0747 30.8761 30.4076C31.1069 30.5247 31.3149 30.6801 31.4918 30.8656C31.7028 30.6874 31.9439 30.532 32.2163 30.4238C33.5195 29.9063 35.0444 30.6666 35.0444 30.6666C35.0444 30.6666 34.4564 32.2659 33.1533 32.7834C32.7913 32.9271 32.4122 32.9723 32.0535 32.9625C31.9937 33.2094 31.8935 33.4404 31.7602 33.6482C32.1425 33.8452 32.5252 34.1233 32.8051 34.5134C33.6225 35.6527 33.2537 37.3163 33.2537 37.3163C33.2537 37.3163 31.5596 37.1327 30.7423 35.9934C30.4471 35.582 30.3067 35.1023 30.2476 34.6572C30.1196 34.6797 29.9878 34.6914 29.8533 34.6914C29.7299 34.6914 29.6088 34.6816 29.4908 34.6626C29.4313 35.1061 29.2908 35.5837 28.9969 35.9934C28.1795 37.1327 26.4855 37.3163 26.4855 37.3163C26.4855 37.3163 26.1167 35.6527 26.934 34.5134C27.208 34.1316 27.5804 33.8571 27.9546 33.6609C27.8077 33.4352 27.7 33.1817 27.641 32.91C27.2911 32.922 26.922 32.8812 26.5677 32.7468C25.2567 32.2495 24.6441 30.6595 24.6441 30.6595C24.6441 30.6595 26.1571 29.8757 27.4681 30.373C27.7602 30.4838 28.0175 30.6488 28.2412 30.8383C28.4114 30.6657 28.6091 30.5203 28.8273 30.4092C28.6826 30.0759 28.582 29.7021 28.582 29.3072C28.582 27.9051 29.8514 26.7684 29.8514 26.7684C29.8514 26.7684 31.1208 27.9051 31.1208 29.3072ZM16.6218 27.1808C16.3717 27.4854 16.0574 27.7102 15.7347 27.8759C15.8387 28.1127 15.9008 28.3647 15.9198 28.6201C16.196 28.6163 16.4809 28.6492 16.76 28.7385C18.0956 29.1655 18.7917 30.7207 18.7917 30.7207C18.7917 30.7207 17.3224 31.5837 15.9869 31.1567C15.616 31.0381 15.2944 30.8325 15.0234 30.5974C14.8203 30.7504 14.5961 30.8654 14.361 30.9414C14.5315 31.3364 14.651 31.7943 14.6197 32.2737C14.5285 33.6728 13.1878 34.7245 13.1878 34.7245C13.1878 34.7245 11.9951 33.5077 12.0863 32.1085C12.1192 31.603 12.3153 31.1429 12.5523 30.7613C12.439 30.6974 12.3297 30.6229 12.2257 30.5375C12.1304 30.4592 12.0431 30.3748 11.9639 30.2852C11.6365 30.5904 11.2248 30.8704 10.7375 31.0005C9.38284 31.3624 7.95708 30.4293 7.95708 30.4293C7.95708 30.4293 8.72765 28.9096 10.0823 28.5477C10.5364 28.4264 10.9985 28.4506 11.4122 28.5364C11.4418 28.269 11.5193 28.0048 11.646 27.7575C11.368 27.5448 11.1088 27.2791 10.9203 26.9505C10.2226 25.7343 10.7581 24.1167 10.7581 24.1167C10.7581 24.1167 12.4248 24.471 13.1225 25.6872C13.2778 25.9579 13.372 26.2484 13.4246 26.5366C13.6657 26.5112 13.9109 26.5242 14.1501 26.5768C14.2498 26.2275 14.4091 25.8748 14.6596 25.5698C15.5494 24.4861 17.2518 24.4131 17.2518 24.4131C17.2518 24.4131 17.5116 26.0971 16.6218 27.1808Z" fill="white"/>
</g>
<rect x="24.6438" y="19.9785" width="1.13189" height="1.13189" fill="black"/>
<rect x="28.0396" y="16.582" width="1.13189" height="1.13189" fill="black"/>
<rect x="29.1714" y="23.375" width="1.13189" height="1.13189" fill="black"/>
<rect x="16.7207" y="17.7148" width="1.13189" height="1.13189" fill="black"/>
<rect x="13.325" y="21.1094" width="1.13189" height="1.13189" fill="black"/>
<rect x="16.7207" y="33.5605" width="1.13189" height="1.13189" fill="black"/>
<rect x="25.7759" y="25.6387" width="1.13189" height="1.13189" fill="black"/>
</svg>
