<svg width="43" height="43" viewBox="0 0 43 43" fill="none" xmlns="http://www.w3.org/2000/svg">
<path d="M16.75 7.17969C16.75 7.17969 18.25 8.64831 21.25 8.64831C24.25 8.64831 25.75 7.17969 25.75 7.17969V30.6777H16.75V7.17969Z" fill="#E1C078"/>
<path d="M9.54548 6.80711L10.6364 6.27246C11.2651 7.81125 13.7785 12.4727 13.9091 14.2832C14.0958 16.871 13.25 17.4602 13.25 17.4602L8.25002 35.5733L3.00002 34.5769C3.00002 34.5769 6.14419 20.812 6.25002 20.3975C6.79548 18.2613 9.00003 7.34055 9.54548 6.80711Z" fill="#393A3A"/>
<path d="M11.5001 20.8871C11.5001 18.9846 10.6364 6.27277 10.6364 6.27277L17.1818 3.60254C18.2727 10.5451 20.7496 22.3557 20.7496 22.3557C20.7496 25.204 21 30.8389 21 30.8389L21.0005 39.0002C20.0247 39.0002 14.5001 39.0002 8.75013 38.5106L11.5001 20.8871Z" fill="#434444"/>
<path d="M11.0229 29.6987L13.752 25.5968L14.0304 25.7744C14.2633 25.9229 14.328 26.2296 14.1751 26.4595L11.9447 29.812C11.8224 29.9958 11.5723 30.0487 11.386 29.93L11.0229 29.6987Z" fill="#2F2F2F"/>
<path d="M12.7501 5.22159L17.2505 3.26338L20.25 20.3974L17.2505 11.0961L14.2501 9.62747L12.7501 5.22159Z" fill="#2F2F2F"/>
<path d="M15.75 13.5436L18.25 9.1377L20.75 21.8658L15.75 13.5436Z" fill="#2F2F2F"/>
<path d="M32.456 6.80711L31.3653 6.27246C30.7368 7.81125 28.2239 12.4727 28.0933 14.2832C27.9066 16.871 28.7523 17.4602 28.7523 17.4602L33.7511 35.5733L38.9999 34.5769C38.9999 34.5769 35.8565 20.812 35.7507 20.3975C35.2053 18.2613 33.0013 7.34055 32.456 6.80711Z" fill="#393A3A"/>
<path d="M30.5021 20.8871C30.5021 18.9846 31.3657 6.27277 31.3657 6.27277L24.8217 3.60254C23.731 10.5451 21.2547 22.3557 21.2547 22.3557C21.2547 25.204 21.0044 30.8389 21.0044 30.8389L21.0039 39.0002C21.9794 39.0002 27.5028 39.0002 33.2515 38.5106L30.5021 20.8871Z" fill="#434444"/>
<path d="M30.979 29.6987L28.2506 25.5968L27.9723 25.7744C27.7395 25.9229 27.6747 26.2296 27.8276 26.4596L30.0575 29.8119C30.1798 29.9958 30.4298 30.0487 30.6161 29.93L30.979 29.6987Z" fill="#2F2F2F"/>
<path d="M29.2523 5.22159L24.7529 3.26338L21.7541 20.3974L24.7529 11.0961L27.7526 9.62747L29.2523 5.22159Z" fill="#2F2F2F"/>
<path d="M26.2534 13.5436L23.754 9.1377L21.2546 21.8658L26.2534 13.5436Z" fill="#2F2F2F"/>
<circle cx="19" cy="26" r="1" fill="#2F2F2F"/>
</svg>
