<svg width="43" height="42" viewBox="0 0 43 42" fill="none" xmlns="http://www.w3.org/2000/svg">
<path fill-rule="evenodd" clip-rule="evenodd" d="M22.709 40.7641L21.4737 35.823L20.2385 40.7641H15.2246L16.5326 29.6465H26.4149L27.7229 40.7641H22.709Z" fill="#00C1EC"/>
<circle cx="21.4744" cy="6.17555" r="4.94118" fill="#346BF7"/>
<path d="M15.6029 16.6366C15.4376 14.3211 17.2714 12.3516 19.5928 12.3516H23.3539C25.6753 12.3516 27.5091 14.3211 27.3437 16.6366L26.4145 29.6457H16.5322L15.6029 16.6366Z" fill="#3461D6"/>
<path d="M15.6029 16.6366C15.4376 14.3211 17.2714 12.3516 19.5928 12.3516H23.3539C25.6753 12.3516 27.5091 14.3211 27.3437 16.6366L26.4145 29.6457H16.5322L15.6029 16.6366Z" fill="#241B8F"/>
<path d="M14.0741 15C14.0741 15 10.0742 23.049 10.0742 24.5C10.0742 25.951 18.4742 16.5 18.4742 16.5L19.4742 14.5L20.9742 15.5" stroke="#346BF7" stroke-width="3" stroke-linecap="round"/>
<path d="M29.174 15C29.174 15 33.1738 23.049 33.1738 24.5C33.1738 25.951 24.7738 16.5 24.7738 16.5L23.7738 14.5L22.2738 15.5" stroke="#346BF7" stroke-width="3" stroke-linecap="round"/>
<path fill-rule="evenodd" clip-rule="evenodd" d="M21.5257 11.8008C19.5527 11.8008 17.9744 12.0008 17.9744 12.0008V12.0009C17.9658 12.0008 17.9572 12.0008 17.9487 12.0008L15.5042 12.6184L13.9166 13.1533C12.6215 13.5896 11.6388 14.6569 11.3107 15.9835L10.6152 18.7949H21.6152H21.6154H32.6153L31.9199 15.9835C31.5918 14.6569 30.6091 13.5896 29.314 13.1533L27.7264 12.6184L25.2819 12.0008C25.2794 12.0008 25.2769 12.0008 25.2744 12.0008V12.0008C25.2744 12.0008 23.4987 11.8008 21.5257 11.8008Z" fill="#3461D6"/>
<path fill-rule="evenodd" clip-rule="evenodd" d="M21.5257 11.8008C19.5527 11.8008 17.9744 12.0008 17.9744 12.0008V12.0009C17.9658 12.0008 17.9572 12.0008 17.9487 12.0008L15.5042 12.6184L13.9166 13.1533C12.6215 13.5896 11.6388 14.6569 11.3107 15.9835L10.6152 18.7949H21.6152H21.6154H32.6153L31.9199 15.9835C31.5918 14.6569 30.6091 13.5896 29.314 13.1533L27.7264 12.6184L25.2819 12.0008C25.2794 12.0008 25.2769 12.0008 25.2744 12.0008V12.0008C25.2744 12.0008 23.4987 11.8008 21.5257 11.8008Z" fill="#241B8F"/>
<path fill-rule="evenodd" clip-rule="evenodd" d="M22.942 13.2511L24.3558 12.3086L25.1157 13.8284L26.0263 15.6496C26.0839 15.714 26.1594 15.7983 26.2506 15.8999C26.4783 16.1532 26.8039 16.5139 27.1947 16.9424C27.687 17.4821 28.281 18.1274 28.9121 18.8H24.8287C24.4983 18.4369 24.2212 18.1298 24.0193 17.9051C23.9034 17.7761 23.8122 17.6742 23.7497 17.6043L23.6782 17.5241L23.6595 17.5032L23.6547 17.4977L23.6534 17.4963L23.653 17.4959C23.6529 17.4958 23.6528 17.4957 24.774 16.4992L23.6528 17.4957L23.5211 17.3474L23.4324 17.17L23.1923 16.6898L23.1061 16.7473C22.4168 17.2068 21.4855 17.0205 21.0259 16.3313C20.5664 15.642 20.7527 14.7107 21.442 14.2511L22.942 13.2511Z" fill="#346BF7"/>
<path fill-rule="evenodd" clip-rule="evenodd" d="M20.3061 13.2511L18.8923 12.3086L18.1324 13.8284L17.2218 15.6496C17.1642 15.714 17.0887 15.7983 16.9974 15.8999C16.7698 16.1532 16.4442 16.5139 16.0533 16.9424C15.561 17.4821 14.967 18.1274 14.3359 18.8H18.4193C18.7497 18.4369 19.0268 18.1298 19.2288 17.9051C19.3447 17.7761 19.4359 17.6742 19.4983 17.6043L19.5699 17.5241L19.5885 17.5032L19.5934 17.4977L19.5947 17.4963L19.595 17.4959C19.5951 17.4958 19.5952 17.4957 18.474 16.4992L19.5952 17.4957L19.727 17.3474L19.8157 17.17L20.0558 16.6898L20.142 16.7473C20.8313 17.2068 21.7626 17.0205 22.2221 16.3313C22.6816 15.642 22.4954 14.7107 21.8061 14.2511L20.3061 13.2511Z" fill="#346BF7"/>
</svg>
