<svg width="42" height="42" viewBox="0 0 42 42" fill="none" xmlns="http://www.w3.org/2000/svg">
<path d="M14.7285 37.0289L14.7284 37.029C14.4281 37.6301 13.9662 38.1356 13.3947 38.489C12.8231 38.8423 12.1644 39.0295 11.4925 39.0295H8.64717C7.14168 39.0295 5.69785 38.4315 4.6333 37.3669C3.56876 36.3024 2.9707 34.8586 2.9707 33.3531V21.0001C2.9707 16.2184 4.87022 11.6326 8.25139 8.25139C11.6326 4.87022 16.2184 2.9707 21.0001 2.9707C25.7818 2.9707 30.3677 4.87022 33.7488 8.25139C37.13 11.6326 39.0295 16.2184 39.0295 21.0001V33.3531C39.0295 34.8586 38.4315 36.3024 37.3669 37.3669C36.3024 38.4315 34.8586 39.0295 33.3531 39.0295H30.5078C29.8358 39.0295 29.1771 38.8423 28.6056 38.489C28.034 38.1356 27.5722 37.6301 27.2718 37.029L27.2717 37.0289L27.1017 36.6887C27.6482 36.2817 28.1787 35.8245 28.6802 35.3195C31.026 32.9587 32.8236 29.494 32.8236 25.1178L32.8236 25.1159C32.8179 23.5552 32.5671 22.0051 32.0806 20.5222C31.9304 20.0577 31.6257 19.7734 31.2589 19.6238C30.9235 19.4869 30.555 19.4707 30.2648 19.4707H30.2644C28.6926 19.4719 27.1437 19.0943 25.7488 18.3697C24.354 17.6452 23.1543 16.5951 22.2515 15.3085L22.2512 15.3081C22.11 15.1074 21.9227 14.9436 21.705 14.8305C21.4872 14.7175 21.2455 14.6584 21.0001 14.6584C20.7548 14.6584 20.513 14.7175 20.2953 14.8305C20.0777 14.9435 19.8904 15.1072 19.7493 15.3077C17.9736 17.8282 15.0453 19.4707 11.7354 19.4707C11.4452 19.4707 11.0772 19.4869 10.7419 19.6239C10.3751 19.7737 10.0708 20.0581 9.9197 20.522L9.91968 20.5221C9.44122 21.9915 9.17659 23.5487 9.17659 25.1178C9.17659 29.4919 10.9742 32.9587 13.3201 35.3196C13.8118 35.8145 14.3395 36.2721 14.8986 36.6886L14.7285 37.0289Z" stroke="black"/>
</svg>
