<svg width="43" height="42" viewBox="0 0 43 42" fill="none" xmlns="http://www.w3.org/2000/svg">
<path fill-rule="evenodd" clip-rule="evenodd" d="M21.125 13.791H15.5C15.5 13.791 5.375 20.391 5.375 38.541H21.125H36.875C36.875 20.391 26.75 13.791 26.75 13.791H21.125Z" fill="#F55686"/>
<rect x="17.75" y="3.66602" width="6.75" height="4.5" fill="#32A37A"/>
<path fill-rule="evenodd" clip-rule="evenodd" d="M18.5288 3.66406H3.125V8.6C3.125 8.6 7.625 14.6328 14.6346 11.4266V13.7891H21.125H27.6154V11.4266C34.625 14.6328 39.125 8.6 39.125 8.6V3.66406H23.7212L21.125 7.46094L18.5288 3.66406Z" fill="#25E9A2"/>
<path fill-rule="evenodd" clip-rule="evenodd" d="M3.125 3.66406H5.375V10.6722C3.9247 9.6721 3.125 8.6 3.125 8.6V3.66406ZM39.125 3.66406H36.875V10.6722C38.3253 9.6721 39.125 8.6 39.125 8.6V3.66406Z" fill="#079461"/>
<rect x="18.4136" y="3.00195" width="5.56875" height="1.125" fill="#ECECEC"/>
<path d="M17.75 3.66602H18.875L21.5771 7.26883L20.9879 7.9832L17.75 3.66602Z" fill="#F0F0F0"/>
<rect x="17.5139" y="3.67578" width="1.125" height="5.25541" transform="rotate(-36.9454 17.5139 3.67578)" fill="#D9D9D9"/>
<path d="M24.8792 3.67578L23.98 2.9996L20.0318 8.24946L20.9309 8.92565L24.8792 3.67578Z" fill="white"/>
<rect x="17.75" y="8.16602" width="2.25" height="18" fill="white"/>
<rect x="20" y="8.16602" width="2.25" height="2.25" fill="#EBEBEB"/>
<path d="M22.25 8.16602L25.0985 7.21651C25.3575 7.13018 25.625 7.32296 25.625 7.59599V10.986C25.625 11.2591 25.3575 11.4519 25.0985 11.3655L22.25 10.416V8.16602Z" fill="white"/>
</svg>
