<svg width="42" height="42" viewBox="0 0 42 42" fill="none" xmlns="http://www.w3.org/2000/svg">
<path d="M9.5 14.5C9.5 8.14872 14.6487 3 21 3V3C27.3513 3 32.5 8.14873 32.5 14.5V28.9996H9.5V14.5Z" fill="#463837"/>
<path fill-rule="evenodd" clip-rule="evenodd" d="M18.3077 26.1543C18.3077 26.1543 18.3077 30.6343 17.2308 31.7543C16.3515 32.6688 15.8311 32.8366 14.7905 33.1722C14.5566 33.2476 14.2964 33.3315 14 33.4343C13.7376 33.5253 13.4325 33.6064 13.0964 33.6958C12.1239 33.9545 10.8928 34.2819 9.69231 35.1143C8.07692 36.2343 7 37.9143 7 40.1543H20.9999H21H34.9999C34.9999 37.9143 33.923 36.2343 32.3076 35.1143C31.107 34.2819 29.876 33.9545 28.9035 33.6958C28.5674 33.6064 28.2623 33.5253 27.9999 33.4343C27.7035 33.3315 27.4433 33.2476 27.2094 33.1722C26.1687 32.8366 25.6484 32.6688 24.7691 31.7543C23.6922 30.6343 23.6922 26.1543 23.6922 26.1543H21H20.9999H18.3077Z" fill="#F2C7B5"/>
<ellipse cx="21.1249" cy="17.6363" rx="8.20303" ry="10.2613" fill="#FCD4C3"/>
<path d="M31.4568 16.93C31.4568 16.93 27.7253 17.8799 23.1259 17.1525C18.5265 16.4251 17.7421 12.6343 13.053 13.5344C13.053 13.5344 15.2314 5.39151 20.7456 4.91816C26.2597 4.44481 31.4568 16.93 31.4568 16.93Z" fill="#463837"/>
</svg>
