<svg width="43" height="42" viewBox="0 0 43 42" fill="none" xmlns="http://www.w3.org/2000/svg">
<path fill-rule="evenodd" clip-rule="evenodd" d="M27.0301 40.5298L25.7948 35.5886L24.5595 40.5298H19.5457L20.8536 29.4121H30.736L32.0439 40.5298H27.0301Z" fill="#00C1EC"/>
<path d="M23.9141 12.6172H27.6752C29.7064 12.6172 31.311 14.3405 31.1663 16.3666L30.2703 28.9113H21.319L20.423 16.3666C20.2782 14.3405 21.8829 12.6172 23.9141 12.6172Z" fill="#3461D6"/>
<path d="M23.9141 12.6172H27.6752C29.7064 12.6172 31.311 14.3405 31.1663 16.3666L30.2703 28.9113H21.319L20.423 16.3666C20.2782 14.3405 21.8829 12.6172 23.9141 12.6172Z" fill="#241B8F"/>
<path d="M23.9141 12.6172H27.6752C29.7064 12.6172 31.311 14.3405 31.1663 16.3666L30.2703 28.9113H21.319L20.423 16.3666C20.2782 14.3405 21.8829 12.6172 23.9141 12.6172Z" stroke="#3461D6"/>
<path d="M23.9141 12.6172H27.6752C29.7064 12.6172 31.311 14.3405 31.1663 16.3666L30.2703 28.9113H21.319L20.423 16.3666C20.2782 14.3405 21.8829 12.6172 23.9141 12.6172Z" stroke="#241B8F"/>
<path d="M18.9305 15.2647L14.3726 20.3283C13.371 21.441 11.547 21.0993 11.0161 19.6996L6.67869 8.26478" stroke="#346BF7" stroke-width="3" stroke-linecap="round"/>
<path d="M34.1787 16.2637L36.079 35.5779" stroke="#346BF7" stroke-width="3" stroke-linecap="round"/>
<path d="M17.0989 14.0825C17.785 12.9457 18.9904 12.2234 20.3164 12.1547L21.0395 12.1172H26.8212H31.6499C33.6993 12.1172 35.4172 13.6662 35.6286 15.7047L35.8787 18.1172H26.8212H18.196L15.1785 17.2646L17.0989 14.0825Z" fill="#3461D6"/>
<path d="M17.0989 14.0825C17.785 12.9457 18.9904 12.2234 20.3164 12.1547L21.0395 12.1172H26.8212H31.6499C33.6993 12.1172 35.4172 13.6662 35.6286 15.7047L35.8787 18.1172H26.8212H18.196L15.1785 17.2646L17.0989 14.0825Z" fill="#241B8F"/>
<circle cx="25.7947" cy="5.94118" r="4.94118" fill="#346BF7"/>
</svg>
