<svg width="43" height="42" viewBox="0 0 43 42" fill="none" xmlns="http://www.w3.org/2000/svg">
<path fill-rule="evenodd" clip-rule="evenodd" d="M10.7322 3.24227L3.47245 9.49453C3.19395 9.73439 3.06947 10.1077 3.14829 10.4667L9.24237 38.2226C9.34308 38.6813 9.74945 39.0081 10.2191 39.0081H14.2108V39.0088H28.0656V39.0081H32.0572C32.5268 39.0081 32.9332 38.6813 33.0339 38.2226L39.128 10.4667C39.2068 10.1077 39.0823 9.73439 38.8038 9.49453L31.5441 3.24227C31.3626 3.08597 31.1311 3 30.8915 3H28.8252C28.3762 3 27.9822 3.29928 27.8618 3.73185L21.1748 27.7564C21.1505 27.8437 21.1382 27.9339 21.1382 28.0245V32.6544H21.1381V28.0245C21.1381 27.9339 21.1258 27.8437 21.1015 27.7564L14.4144 3.73185C14.294 3.29928 13.9001 3 13.451 3H11.3847C11.1452 3 10.9136 3.08597 10.7322 3.24227Z" fill="black"/>
<path d="M31.2696 13.6895L27.8938 16.0806L33.5201 17.0652L31.2696 13.6895Z" fill="white" stroke="white" stroke-linejoin="round"/>
<path fill-rule="evenodd" clip-rule="evenodd" d="M18.1535 4.33207C17.4869 3.93464 16.6414 4.41493 16.6414 5.19099V7.93066C16.6414 8.70672 17.4869 9.18701 18.1535 8.78958L21.1415 7.00801V6.11364L18.1535 4.33207ZM24.1296 4.33207C24.7962 3.93464 25.6417 4.41493 25.6417 5.19099V7.93066C25.6417 8.70672 24.7962 9.18701 24.1296 8.78958L21.1416 7.00801V6.11364L24.1296 4.33207Z" fill="black"/>
</svg>
