<svg width="43" height="42" viewBox="0 0 43 42" fill="none" xmlns="http://www.w3.org/2000/svg">
<path d="M17.8523 8.27344C17.8523 8.27344 18.9432 9.43253 21.125 9.43253C23.3068 9.43253 24.3977 8.27344 24.3977 8.27344V26.8189H17.8523V8.27344Z" fill="white"/>
<path fill-rule="evenodd" clip-rule="evenodd" d="M31.4886 7.72656L32.5795 8.27263C32.8909 8.58363 33.38 12.4492 33.8439 16.1158C34.1927 18.8729 34.5273 21.5174 34.7614 22.4538C34.8672 22.8772 39.125 36.6357 39.125 36.6357L35.3068 37.7266L27.6705 19.7266C27.6705 19.7266 28.0292 18.5515 28.2159 15.9084C28.3104 14.5713 29.6506 11.7119 30.6233 9.63657C30.9959 8.84169 31.3145 8.16182 31.4886 7.72656ZM10.7614 7.72656L9.67045 8.27263C9.35911 8.58363 8.87004 12.4492 8.40615 16.1158C8.05733 18.8729 7.72274 21.5174 7.48864 22.4538C7.3828 22.8772 3.125 36.6357 3.125 36.6357L6.94318 37.7266L14.5795 19.7266C14.5795 19.7266 14.2208 18.5515 14.0341 15.9084C13.9396 14.5713 12.5994 11.7119 11.6267 9.63657C11.2541 8.84169 10.9355 8.16182 10.7614 7.72656Z" fill="#102673"/>
<path fill-rule="evenodd" clip-rule="evenodd" d="M31.4885 7.72727C31.4885 7.72727 28.2158 20.5114 28.2158 22.4545C28.2158 24.3977 29.8522 28.4545 29.8522 28.4545L31.4885 33.3636C29.4885 34.2727 25.9148 35.4575 24.9431 35.5455C24.881 35.5511 24.8151 35.5576 24.746 35.5644C23.4827 35.689 21.138 35.9203 21.1249 32.8441C21.1119 35.9203 18.7672 35.689 17.5038 35.5644C17.4348 35.5576 17.3689 35.5511 17.3068 35.5455C16.3351 35.4575 12.7614 34.2727 10.7614 33.3636L12.3977 28.4545C12.3977 28.4545 14.0341 24.3977 14.0341 22.4545C14.0341 20.5114 10.7614 7.72727 10.7614 7.72727L17.3068 5C18.3949 12.0723 21.1107 24.028 21.1249 24.0907C21.1392 24.028 23.855 12.0723 24.9431 5L31.4885 7.72727Z" fill="#081D65"/>
<path fill-rule="evenodd" clip-rule="evenodd" d="M17.307 26.8184H12.7615L12.0832 28.4463C11.9734 28.7098 12.167 29.0002 12.4524 29.0002H16.807C17.0831 29.0002 17.307 28.7763 17.307 28.5002V26.8184ZM24.9433 26.8184H29.4888L30.1671 28.4463C30.2769 28.7098 30.0833 29.0002 29.7979 29.0002H25.4433C25.1672 29.0002 24.9433 28.7763 24.9433 28.5002V26.8184Z" fill="#2546B9"/>
<circle cx="21.1251" cy="26.8175" r="1.09091" fill="white"/>
</svg>
