<svg width="42" height="42" viewBox="0 0 42 42" fill="none" xmlns="http://www.w3.org/2000/svg">
<path fill-rule="evenodd" clip-rule="evenodd" d="M18.3077 26.1543C18.3077 26.1543 18.3077 30.6343 17.2308 31.7543C16.3515 32.6688 15.8311 32.8366 14.7905 33.1722C14.5566 33.2476 14.2964 33.3315 14 33.4343C13.7376 33.5253 13.4325 33.6064 13.0964 33.6958C12.1239 33.9545 10.8928 34.2819 9.69231 35.1143C8.07692 36.2343 7 37.9143 7 40.1543H20.9999H21H34.9999C34.9999 37.9143 33.923 36.2343 32.3076 35.1143C31.107 34.2819 29.876 33.9545 28.9035 33.6958C28.5674 33.6064 28.2623 33.5253 27.9999 33.4343C27.7035 33.3315 27.4433 33.2476 27.2094 33.1722C26.1687 32.8366 25.6484 32.6688 24.7691 31.7543C23.6922 30.6343 23.6922 26.1543 23.6922 26.1543H21H20.9999H18.3077Z" fill="#F2C7B5"/>
<path fill-rule="evenodd" clip-rule="evenodd" d="M10.9696 15.342C10.9798 15.3964 10.9905 15.4508 11.0016 15.5053C11.9537 20.1599 16.049 23.5023 20.7999 23.5023H21.4743C26.1438 23.5023 30.1918 20.271 31.2267 15.7176C31.2835 15.4679 31.3304 15.2187 31.3677 14.9703C31.9394 15.8991 32.4618 16.9845 32.639 18.0473C33.0597 20.5712 32.724 21.4425 32.3472 22.4204C32.0511 23.1887 31.7298 24.0227 31.7298 25.7755C31.7298 28.0485 33.5482 29.8667 35.3665 31.2307C35.3665 31.2307 34.9119 30.3215 34.9119 28.5031C34.9119 26.9793 35.4575 25.7748 35.9796 24.6219C36.0806 24.399 36.1806 24.1781 36.2757 23.9571C36.4501 23.5518 36.7216 23.1465 37.0171 22.7055C37.7159 21.6623 38.5487 20.419 38.5487 18.5019C38.5487 15.7744 38.0941 14.4108 35.3665 12.4451C33.5791 11.1569 31.987 10.8392 31.1017 10.7732C29.9275 6.6492 26.1398 3.5 21.4743 3.5H20.7999C16.1263 3.5 12.3205 6.66526 11.1601 10.8178C10.2407 10.9291 8.79045 11.3025 7.18218 12.4616C4.4546 14.4273 4 15.7909 4 18.5185C4 20.4355 4.83287 21.6788 5.53163 22.722C5.82709 23.163 6.09858 23.5683 6.27298 23.9736C6.36805 24.1945 6.4681 24.4154 6.56903 24.6383L6.5691 24.6384C7.09122 25.7913 7.63677 26.9958 7.63677 28.5196C7.63677 30.338 7.18218 31.2472 7.18218 31.2472C9.00056 29.8832 10.819 28.065 10.819 25.792C10.819 24.0393 10.4976 23.2052 10.2016 22.4369C9.82476 21.459 9.48906 20.5877 9.90976 18.0639C10.0648 17.1338 10.4842 16.1865 10.9696 15.342Z" fill="#463837"/>
<ellipse cx="20.7502" cy="18.006" rx="7.85224" ry="9.82239" fill="#FCD4C3"/>
<path d="M28.6035 11.8752C28.6035 11.8752 27.0331 14.4927 22.8452 16.0631C18.6574 17.6335 15.5165 15.5396 12.8991 20.7744C12.8991 20.7744 6.97674 8.99302 21.2748 6.11693C27.033 5.59313 28.6035 11.8752 28.6035 11.8752Z" fill="#463837"/>
</svg>
