<svg width="34" height="34" viewBox="0 0 34 34" fill="none" xmlns="http://www.w3.org/2000/svg">
<path d="M17 2C13.0218 2 9.20644 3.58035 6.3934 6.3934C3.58035 9.20644 2 13.0218 2 17V27C2 28.3261 2.52678 29.5979 3.46447 30.5355C4.40215 31.4732 5.67392 32 7 32H9.30333C9.92249 32 10.5294 31.8275 11.056 31.5019C11.5827 31.1763 12.0082 30.7105 12.285 30.1567L12.5767 29.5733C12.0376 29.197 11.5334 28.7731 11.07 28.3067C9.23833 26.4633 7.83333 23.7567 7.83333 20.3333C7.83333 19.1083 8.04 17.89 8.415 16.7383C8.58167 16.2267 9.04333 16.1667 9.5 16.1667C12.3167 16.1667 14.8083 14.7683 16.3183 12.625C16.3952 12.5156 16.4973 12.4264 16.616 12.3648C16.7346 12.3032 16.8663 12.271 17 12.271C17.1337 12.271 17.2654 12.3032 17.384 12.3648C17.5027 12.4264 17.6048 12.5156 17.6817 12.625C18.4499 13.7198 19.4707 14.6133 20.6576 15.2298C21.8445 15.8464 23.1625 16.1677 24.5 16.1667C24.9567 16.1667 25.42 16.2267 25.585 16.7383C25.9659 17.8988 26.1622 19.1119 26.1667 20.3333C26.1667 23.7583 24.7617 26.4633 22.93 28.3067C22.455 28.785 21.9467 29.2083 21.4233 29.5733L21.715 30.1567C21.9918 30.7105 22.4173 31.1763 22.944 31.5019C23.4706 31.8275 24.0775 32 24.6967 32H27C28.3261 32 29.5979 31.4732 30.5355 30.5355C31.4732 29.5979 32 28.3261 32 27V17C32 13.0218 30.4196 9.20644 27.6066 6.3934C24.7936 3.58035 20.9782 2 17 2Z" fill="#E0AD60"/>
</svg>
