<svg width="43" height="42" viewBox="0 0 43 42" fill="none" xmlns="http://www.w3.org/2000/svg">
<path fill-rule="evenodd" clip-rule="evenodd" d="M17.3396 5H11.4591C9.37427 5 5.09094 6.575 4.63607 12.875L3.16912 14.81C3.16912 14.81 3.06985 15.0775 3.16912 15.3096C3.2684 15.5416 3.49899 15.6875 3.49899 15.6875L8.61615 19.0625C8.61615 19.0625 9.34465 19.625 9.75332 19.625C10.162 19.625 11.4591 18.5 11.4591 18.5C12.5962 21.875 12.383 24.6875 12.0277 27.5C11.6397 30.5702 10.9486 32.4948 10.5184 33.6927C10.4442 33.8994 10.3777 34.0844 10.3219 34.25C10.3219 34.625 10.3219 35.9375 12.0277 36.5H21.125H30.2223C31.9281 35.9375 31.9281 34.625 31.9281 34.25C31.8723 34.0844 31.8058 33.8994 31.7316 33.6927C31.3014 32.4948 30.6103 30.5702 30.2223 27.5C29.867 24.6875 29.6538 21.875 30.7909 18.5C30.7909 18.5 32.088 19.625 32.4967 19.625C32.9053 19.625 33.6338 19.0625 33.6338 19.0625L38.751 15.6875C38.751 15.6875 38.9816 15.5416 39.0809 15.3096C39.1802 15.0775 39.0809 14.81 39.0809 14.81L37.6139 12.875C37.1591 6.575 32.8757 5 30.7909 5H24.9104C24.4555 6.35 23.375 7.8125 21.125 7.8125C18.875 7.8125 17.7945 6.35 17.3396 5Z" fill="#3744A7"/>
<path fill-rule="evenodd" clip-rule="evenodd" d="M13.25 5C13.425 6.71051 14.055 8.96822 14.9375 10.3733C16.0625 12.1644 17.4126 12.7906 18.875 12.3125C20.3374 11.8344 21.125 10.3881 21.125 10.3881C21.125 10.3881 21.9126 11.8344 23.375 12.3125C24.8374 12.7906 26.1875 12.1644 27.3125 10.3733C28.195 8.96822 28.825 6.71051 29 5H26.375C25.955 9.10522 23.225 10.3881 21.125 10.3881C19.025 10.3881 16.295 9.10522 15.875 5H13.25Z" fill="white"/>
<circle cx="21.125" cy="16.25" r="1.125" fill="white"/>
<circle cx="21.125" cy="20.75" r="1.125" fill="white"/>
<circle cx="21.125" cy="25.25" r="1.125" fill="white"/>
</svg>
