<svg width="42" height="42" viewBox="0 0 42 42" fill="none" xmlns="http://www.w3.org/2000/svg">
<path fill-rule="evenodd" clip-rule="evenodd" d="M17.9055 26.5765C17.9055 27.7193 17.5442 29.5962 17.3429 30.005C16.8711 30.9633 16.3993 31.1181 14.269 31.8169C13.8587 31.9515 13.3869 32.1062 12.8418 32.2908L8.93848 34.0051C8.18829 34.1955 7.09051 34.9016 6.68792 35.7193C6.48319 36.1352 6.29915 36.4039 6.1264 36.6562C5.72943 37.2359 5.39203 37.7286 5 39.7194H19.5933H22.4067H37C36.608 37.7286 36.2706 37.2359 35.8736 36.6562C35.7008 36.4039 35.5168 36.1352 35.3121 35.7193C34.9095 34.9016 33.8117 34.1955 33.0615 34.0051L29.1582 32.2908C28.6131 32.1062 28.1413 31.9515 27.731 31.8169C25.6007 31.1181 25.1289 30.9633 24.6571 30.005C24.4558 29.5962 24.0945 27.7193 24.0945 26.5765V25.4336H22.4067H19.5933H17.9055V26.5765Z" fill="#ECB590"/>
<path fill-rule="evenodd" clip-rule="evenodd" d="M13.2565 15.8192C13.0668 15.3054 12.6872 14.2779 11.5491 14.7916C10.8293 15.1166 10.4107 16.3331 10.9799 17.3606C11.268 17.8805 12.1181 18.902 12.1181 18.902C12.1181 18.902 12.2871 20.0821 12.6872 20.4433C13.0874 20.8046 13.8255 20.957 13.8255 20.957C13.856 21.1495 13.8861 21.3681 13.9183 21.6023C14.0868 22.8274 14.3143 24.481 14.9637 25.0674C15.0594 25.1538 15.2034 25.2983 15.3849 25.4804C16.2824 26.3813 18.0963 28.202 19.5164 28.4584C19.6375 28.4803 19.7171 28.5054 19.7963 28.5304C19.9728 28.5861 20.1474 28.6413 20.7766 28.6584V28.6639C20.8559 28.6639 20.9303 28.6635 21.0002 28.6627C21.07 28.6635 21.1444 28.6639 21.2238 28.6639V28.6584C21.8529 28.6413 22.0275 28.5861 22.2041 28.5304C22.2832 28.5054 22.3628 28.4803 22.4839 28.4584C23.9041 28.202 25.718 26.3813 26.6155 25.4804C26.7969 25.2983 26.9409 25.1538 27.0366 25.0674C27.686 24.481 27.9135 22.8274 28.082 21.6023C28.1143 21.3681 28.1443 21.1495 28.1748 20.957C28.1748 20.957 28.913 20.8046 29.3131 20.4433C29.7133 20.0821 29.8822 18.902 29.8822 18.902C29.8822 18.902 30.7324 17.8805 31.0204 17.3606C31.5897 16.3331 31.1711 15.1166 30.4512 14.7916C29.3131 14.2779 28.9335 15.3054 28.7438 15.8192C28.9336 14.1066 28.9715 10.373 27.6057 9.1399C26.2967 7.95815 22.7925 8.255 21.0002 8.58327C19.2078 8.255 15.7036 7.95815 14.3946 9.1399C13.0288 10.373 13.0668 14.1066 13.2565 15.8192Z" fill="#F4C3A3"/>
<path fill-rule="evenodd" clip-rule="evenodd" d="M13.3986 17.8572C12.8847 17.4762 11.8569 15.1524 11.8569 12.7143C11.8569 10.6396 12.261 10.1649 12.7418 9.59997C12.826 9.50102 12.9126 9.3993 12.9998 9.28574L13.784 8.52383C13.784 6.42858 14.1427 5.28572 15.6427 4.33334C15.8283 4.2155 16.0657 4.13207 16.3201 4.07338C15.4121 4.74335 14.7435 6.02712 15.9021 7.57189C15.9021 6.05225 15.9023 4.98164 17.0965 3.96202C17.6639 3.91946 18.1427 3.95238 18.1427 3.95238C18.2711 3.57143 19.7665 3 20.9998 3C21.819 3 22.4953 3.42012 23.1292 3.81391C23.4497 4.01302 23.7594 4.2054 24.0713 4.33334C24.2982 4.42645 24.5197 4.51263 24.7292 4.59418C25.377 4.84626 25.9111 5.0541 26.1427 5.28572C26.3157 5.45872 26.521 5.66487 26.7451 5.88991C27.2613 6.40817 27.8773 7.02667 28.4284 7.57144C29.3443 8.47673 29.7573 8.90478 30.1427 10.4286C30.5281 11.9524 29.7891 14.9494 29.5713 15.5715C29.3911 16.086 29.2574 16.2531 29.1181 16.427C28.9479 16.6395 28.7696 16.8623 28.4883 17.7408C28.4284 13.8572 26.7141 11 26.7141 11C26.1427 10.4286 24.9998 10.0476 22.7141 10.4286C19.84 10.9076 17.6024 10.4286 16.0355 10.0476C16.0355 10.0476 15.2922 10.4286 14.7141 11C14.4779 11.2335 14.3316 11.8248 14.162 12.5107C14.0548 12.9439 13.9384 13.4148 13.784 13.8572C13.3973 14.9653 13.3982 16.8494 13.3986 17.7732C13.3986 17.8022 13.3986 17.8302 13.3986 17.8572Z" fill="#463837"/>
</svg>
