<svg width="42" height="42" viewBox="0 0 42 42" fill="none" xmlns="http://www.w3.org/2000/svg">
<path d="M10.3289 18.6974C11.285 22.0438 12.9875 23.472 15.6152 24.5385L25.3075 25.6154C25.3075 25.6154 28.3997 24.677 29.6152 23.4615C30.8307 22.246 32.7221 20.0661 33.1304 16.8671C33.5388 13.6682 33.1304 12.1786 32.265 10.0153C31.5339 8.18731 28.7614 6.35976 27.6951 6.35976C25.4102 3.16044 21.2973 2.24582 17.6413 3.61679C13.9854 4.98775 11.6999 7.72898 10.786 9.55761C9.41561 12.2995 9.4149 15.4985 10.3289 18.6974Z" fill="#463837"/>
<path fill-rule="evenodd" clip-rule="evenodd" d="M18.3077 26C18.3077 26 18.3077 30.48 17.2308 31.6C16.3515 32.5145 15.8311 32.6823 14.7905 33.0179C14.5566 33.0933 14.2964 33.1772 14 33.28C13.7376 33.371 13.4325 33.4521 13.0964 33.5415C12.1239 33.8002 10.8928 34.1276 9.69231 34.96C8.07692 36.08 7 37.76 7 40H20.9999H21H34.9999C34.9999 37.76 33.923 36.08 32.3076 34.96C31.107 34.1276 29.876 33.8002 28.9035 33.5415C28.5674 33.4521 28.2623 33.371 27.9999 33.28C27.7035 33.1772 27.4433 33.0933 27.2094 33.0179C26.1687 32.6823 25.6484 32.5145 24.7691 31.6C23.6922 30.48 23.6922 26 23.6922 26H21H20.9999H18.3077Z" fill="#F2C7B5"/>
<ellipse cx="21.0974" cy="18.157" rx="8.07692" ry="9.75661" fill="#FCD4C3"/>
<path d="M25.4101 12.2977C25.4101 12.2977 24.0392 14.1205 19.4693 16.4106C14.8994 18.2334 12.1575 17.7815 12.1575 17.7815C12.1575 16.1754 12.9054 8.07013 19.9263 7.26524C27.9016 6.35094 30.437 15.4943 30.437 17.3245C30.437 17.3245 29.3108 16.6553 27.6951 15.0396C26.3241 13.6686 26.1712 13.0588 25.4101 12.2977Z" fill="#463837"/>
</svg>
