<svg width="43" height="43" viewBox="0 0 43 43" fill="none" xmlns="http://www.w3.org/2000/svg">
<path d="M16.75 8.91064C16.75 8.91064 18.25 10.3793 21.25 10.3793C24.25 10.3793 25.75 8.91064 25.75 8.91064V32.4087H16.75V8.91064Z" fill="#00874C"/>
<path d="M9.54548 8.53806L10.6364 8.00342C11.2651 9.54221 13.7785 14.2036 13.9091 16.0141C14.0958 18.602 13.25 19.1912 13.25 19.1912L8.25002 37.3042L3.00002 36.3079C3.00002 36.3079 6.14419 22.5429 6.25002 22.1284C6.79548 19.9923 9.00003 9.07151 9.54548 8.53806Z" fill="#393A3A"/>
<path d="M11.5001 22.6181C11.5001 20.7155 10.6364 8.00373 10.6364 8.00373L17.1818 5.3335C18.2727 12.2761 20.7496 24.0867 20.7496 24.0867C20.7496 26.9349 21 32.5698 21 32.5698L21.0005 40.7311C20.0247 40.7311 14.5001 40.7311 8.75013 40.2416L11.5001 22.6181Z" fill="#434444"/>
<path d="M11.0229 31.4297L13.752 27.3278L14.0304 27.5054C14.2633 27.6538 14.328 27.9606 14.1751 28.1905L11.9447 31.5429C11.8224 31.7268 11.5723 31.7796 11.386 31.661L11.0229 31.4297Z" fill="#2F2F2F"/>
<path d="M12.7501 6.95255L17.2505 4.99434L20.25 22.1284L17.2505 12.8271L14.2501 11.3584L12.7501 6.95255Z" fill="#2F2F2F"/>
<path d="M15.75 15.2745L18.25 10.8687L20.75 23.5968L15.75 15.2745Z" fill="#2F2F2F"/>
<path d="M32.456 8.53806L31.3653 8.00342C30.7368 9.54221 28.2239 14.2036 28.0933 16.0141C27.9066 18.602 28.7523 19.1912 28.7523 19.1912L33.7511 37.3042L38.9999 36.3079C38.9999 36.3079 35.8565 22.5429 35.7507 22.1284C35.2053 19.9923 33.0013 9.07151 32.456 8.53806Z" fill="#393A3A"/>
<path d="M30.5021 22.6181C30.5021 20.7155 31.3657 8.00373 31.3657 8.00373L24.8217 5.3335C23.731 12.2761 21.2547 24.0867 21.2547 24.0867C21.2547 26.9349 21.0044 32.5698 21.0044 32.5698L21.0039 40.7311C21.9794 40.7311 27.5028 40.7311 33.2515 40.2416L30.5021 22.6181Z" fill="#434444"/>
<path d="M30.979 31.4297L28.2506 27.3278L27.9723 27.5053C27.7395 27.6538 27.6747 27.9606 27.8276 28.1905L30.0575 31.5429C30.1798 31.7268 30.4298 31.7796 30.6161 31.6609L30.979 31.4297Z" fill="#2F2F2F"/>
<path d="M29.2523 6.95255L24.7529 4.99434L21.7541 22.1284L24.7529 12.8271L27.7526 11.3584L29.2523 6.95255Z" fill="#2F2F2F"/>
<path d="M26.2534 15.2745L23.754 10.8687L21.2546 23.5968L26.2534 15.2745Z" fill="#2F2F2F"/>
<circle cx="19" cy="26" r="1" fill="#2F2F2F"/>
</svg>
