<svg width="42" height="42" viewBox="0 0 42 42" fill="none" xmlns="http://www.w3.org/2000/svg">
<path fill-rule="evenodd" clip-rule="evenodd" d="M20.8686 6.3125C21.4152 5.07198 22.6333 3.70745 24.523 2.76108C27.1816 1.42955 30.1359 2.76786 31.6128 3.65409C33.0896 4.54032 35.6008 7.72875 34.7146 11.18C34.2594 12.9525 33.8283 15.3896 33.8283 17.3836C33.8283 19.3776 35.6008 22.2578 35.6008 22.2578C35.3654 22.0813 35.1222 21.915 34.8774 21.7476C33.2789 20.6547 31.6128 19.5154 31.6128 15.1682C31.6128 12.5095 31.1697 7.71972 27.6248 7.1922C26.6942 7.05372 25.7883 7.05459 24.9646 7.19771C28.764 8.99397 31.08 13.2742 30.0581 17.7078C29.815 18.7623 29.3982 19.7401 28.8421 20.6137C28.0047 22.7004 27.6304 23.7767 28.0983 26.1162C27.2849 24.896 27.1077 23.9939 27.0692 22.6634C25.4239 24.0825 23.2878 24.9232 20.9905 24.9232H20.0975C17.6981 24.9232 15.4779 24.0068 13.8079 22.4758C13.7702 23.3972 13.4672 24.1452 12.5001 25.5959C13.0732 23.8201 13.1126 22.5606 12.6106 21.145C11.8314 20.0905 11.2664 18.859 10.9861 17.5078C9.78796 11.7316 14.1983 6.3125 20.0975 6.3125H20.8686Z" fill="#463837"/>
<path fill-rule="evenodd" clip-rule="evenodd" d="M17.3077 25.9531C17.3077 25.9531 17.3077 30.4331 16.2308 31.5531C15.3515 32.4676 14.8311 32.6354 13.7905 32.971C13.5566 33.0465 13.2964 33.1304 13 33.2331C12.7376 33.3241 12.4325 33.4053 12.0964 33.4946C11.1239 33.7533 9.89285 34.0808 8.69231 34.9131C7.07692 36.0331 6 37.7131 6 39.9531H19.9999H20H33.9999C33.9999 37.7131 32.923 36.0331 31.3076 34.9131C30.107 34.0808 28.876 33.7533 27.9035 33.4946C27.5674 33.4053 27.2623 33.3241 26.9999 33.2331C26.7035 33.1304 26.4433 33.0465 26.2094 32.971C25.1687 32.6354 24.6484 32.4676 23.7691 31.5531C22.6922 30.4331 22.6922 25.9531 22.6922 25.9531H20H19.9999H17.3077Z" fill="#F2C7B5"/>
<ellipse cx="20.2998" cy="17.8386" rx="7.79905" ry="9.75467" fill="#FCD4C3"/>
<path d="M29.3966 15.0146C29.3966 16.5719 27.3866 17.3913 20.5344 17.3913C13.6821 17.3913 11.6721 16.5719 11.6721 15.0146C11.6721 13.4573 13.6821 8.08594 20.5344 8.08594C27.3866 8.08594 29.3966 13.4573 29.3966 15.0146Z" fill="#463837"/>
</svg>
