<svg width="42" height="42" viewBox="0 0 42 42" fill="none" xmlns="http://www.w3.org/2000/svg">
<path fill-rule="evenodd" clip-rule="evenodd" d="M20.7846 2H20.7848V2.00768C26.1731 2.15301 31.3102 4.3569 35.1319 8.17859C39.0041 12.0508 39.0018 15.5438 38.9999 18.3591L38.9998 18.541C38.9998 19.1103 38.9996 20.6056 38.4304 23.095C38.406 23.2016 38.3775 23.3468 38.3418 23.5281L38.3417 23.5286C38.1202 24.6558 37.6243 27.1786 36.1535 30.4949C36.1535 30.4949 34.446 33.9103 33.3073 35.618C32.1686 37.3257 29.8921 39.0334 29.8921 39.0334C29.8921 39.0334 28.2089 40.4386 26.8754 40.459C27.4695 40.0125 28.0309 39.5235 28.555 38.996C31.1309 36.4036 33.1068 32.5972 33.1068 27.7828C33.1068 26.06 32.8162 24.3467 32.2888 22.727C32.0544 22.0075 31.4052 21.9231 30.7629 21.9231C26.8018 21.9231 25.3383 21.3872 21.1741 16.9423C21.0659 16.7885 20.9224 16.663 20.7555 16.5764C20.6741 16.5341 20.5883 16.5017 20.5 16.4796C20.4117 16.5017 20.3259 16.5341 20.2445 16.5764C20.0776 16.663 19.8259 16.9423 19.8259 16.9423C14.5639 13.9872 11.9786 13.8082 9.40016 20.6056C9.1338 21.3078 9.02092 21.6944 8.90719 22.0839C8.84898 22.2833 8.79055 22.4834 8.71119 22.727C8.18382 24.3467 7.89318 26.06 7.89318 27.7828C7.89318 32.5972 9.86908 36.4036 12.445 38.996C12.9691 39.5235 13.5305 40.0125 14.1245 40.459C12.7911 40.4386 11.1079 39.0334 11.1079 39.0334C11.1079 39.0334 8.83138 37.3257 7.6927 35.618C6.55401 33.9103 4.84648 30.4949 4.84648 30.4949C3.37568 27.1786 2.87984 24.6558 2.65828 23.5286C2.62259 23.347 2.59402 23.2017 2.56963 23.095C2.0004 20.6056 2.00016 19.1103 2.00016 18.541L2.00008 18.3591C1.99823 15.5438 1.99593 12.0508 5.86814 8.17859C9.68983 4.3569 14.8269 2.15301 20.2152 2.00768V2H20.2154C20.3103 2 20.4052 2.00064 20.5 2.00192C20.5948 2.00064 20.6897 2 20.7846 2ZM14.1245 40.459L14.1537 40.4592L14.5639 40.7773C14.4155 40.6738 14.2691 40.5676 14.1245 40.459ZM26.8754 40.459L26.8463 40.4592L26.4361 40.7773C26.5845 40.6738 26.7309 40.5676 26.8754 40.459Z" fill="#9D5227"/>
</svg>
