<svg width="43" height="42" viewBox="0 0 43 42" fill="none" xmlns="http://www.w3.org/2000/svg">
<path fill-rule="evenodd" clip-rule="evenodd" d="M19.4375 33.377H13.25V38.402C13.25 38.7333 13.5186 39.002 13.85 39.002H18.8375C19.1689 39.002 19.4375 38.7333 19.4375 38.402V33.377ZM29 33.3771H22.8125V38.4021C22.8125 38.7334 23.0811 39.0021 23.4125 39.0021H28.4C28.7314 39.0021 29 38.7334 29 38.4021V33.3771Z" fill="#287BCE"/>
<path fill-rule="evenodd" clip-rule="evenodd" d="M20.5625 30.002H12.125V35.752C12.125 36.3042 12.5727 36.752 13.125 36.752H19.5625C20.1148 36.752 20.5625 36.3042 20.5625 35.752V30.002ZM30.125 30.0021H21.6875V35.7521C21.6875 36.3044 22.1352 36.7521 22.6875 36.7521H29.125C29.6773 36.7521 30.125 36.3044 30.125 35.7521V30.0021Z" fill="#034789"/>
<path fill-rule="evenodd" clip-rule="evenodd" d="M15.944 3.66797H3.125V9.72891C3.125 9.72891 7.398 15.7617 14.054 12.5555H15.944V3.66797ZM26.306 3.66809H39.125V9.72903C39.125 9.72903 34.852 15.7618 28.196 12.5556H26.306V3.66809Z" fill="#B7E5FF"/>
<path fill-rule="evenodd" clip-rule="evenodd" d="M3.125 3.66797H6.32971V12.4777C4.282 11.3624 3.125 9.72891 3.125 9.72891V3.66797ZM15.944 12.5555H15.944V3.66797H15.944V12.5555ZM39.125 3.66809H35.9203V12.4778C37.968 11.3625 39.125 9.72903 39.125 9.72903V3.66809ZM26.306 12.5556H26.306V3.66809H26.306V12.5556Z" fill="#0473E1"/>
<path fill-rule="evenodd" clip-rule="evenodd" d="M14.0928 3.66797C13.8719 3.66797 13.6928 3.84705 13.6928 4.06797V12.5269C13.6928 12.5459 13.6915 12.5649 13.6888 12.5838L10.9922 31.336C10.9575 31.5771 11.1445 31.793 11.3881 31.793H20.2712H21.9795H30.8626C31.1062 31.793 31.2932 31.5771 31.2585 31.336L28.562 12.5838C28.5593 12.5649 28.5579 12.5459 28.5579 12.5269V4.06797C28.5579 3.84705 28.3788 3.66797 28.1579 3.66797H24.8804C24.7585 3.66797 24.6434 3.72348 24.5675 3.81876L21.1254 8.14027L17.6832 3.81876C17.6073 3.72348 17.4922 3.66797 17.3704 3.66797H14.0928Z" fill="#0473E1"/>
<rect x="18.4243" y="3.00195" width="5.56875" height="1.125" fill="#ECECEC"/>
<path d="M17.7607 3.66602H18.8857L21.5879 7.26883L20.9986 7.9832L17.7607 3.66602Z" fill="#F0F0F0"/>
<rect x="17.5247" y="3.67578" width="1.125" height="5.25541" transform="rotate(-36.9454 17.5247 3.67578)" fill="#D9D9D9"/>
<path d="M24.8899 3.67578L23.9908 2.9996L20.0426 8.24946L20.9417 8.92565L24.8899 3.67578Z" fill="white"/>
<rect x="17.7607" y="8.16602" width="2.25" height="18" fill="white"/>
<rect x="20.0107" y="8.16602" width="2.25" height="2.25" fill="#EBEBEB"/>
<path d="M22.2607 8.16602L25.1093 7.21651C25.3683 7.13018 25.6357 7.32296 25.6357 7.59599V10.986C25.6357 11.2591 25.3683 11.4519 25.1093 11.3655L22.2607 10.416V8.16602Z" fill="white"/>
</svg>
