<svg width="42" height="42" viewBox="0 0 42 42" fill="none" xmlns="http://www.w3.org/2000/svg">
<path d="M13.8 22.5C13.3 21.5 12.8 20.5 12.8 18.5L13.8 16.5L15.8 18C17.3 18.8333 17.9 22.1 18.3 22.5C18.4231 22.6231 18.8045 25.0914 19.0591 26.8233C19.5235 25.9707 20.3 25 20.3 25C20.3 25.624 19.716 27.2213 19.2768 28.3344C19.2918 28.4409 19.3 28.5 19.3 28.5C19.3 29 19.5058 29.5 18.8 29.5C18.8 29.5 19.0121 29.0051 19.2768 28.3344C19.2392 28.0672 19.1589 27.5018 19.0591 26.8233C18.7783 27.339 18.6116 27.8116 18.8 28C18.8 28 17.3 27.5 16.8 26C16.3 26.5 16.8 27 16.8 27C16.3 27 15.8 27 15.8 26C15.6204 26.1797 15.8 26.5 15.8 26.5C15.8 26.5 15.3 26.5 15.3 25.5C14.8 26 14.3 26 14.3 26C14.3 26 14.8 25.5 14.8 24.5C14.8 23.5 14.3 23.5 13.8 22.5Z" fill="#463837"/>
<path d="M27.8999 22.5C28.3999 21.5 28.8999 20.5 28.8999 18.5L27.8999 16.5L25.8999 18C24.3999 18.8333 23.7999 22.1 23.3999 22.5C23.2768 22.6231 22.8954 25.0914 22.6408 26.8233C22.1764 25.9707 21.3999 25 21.3999 25C21.3999 25.624 21.9839 27.2213 22.4231 28.3344C22.4081 28.4409 22.3999 28.5 22.3999 28.5C22.3999 29 22.1941 29.5 22.8999 29.5C22.8999 29.5 22.6878 29.0051 22.4231 28.3344C22.4608 28.0672 22.5411 27.5018 22.6408 26.8233C22.9217 27.339 23.0883 27.8116 22.8999 28C22.8999 28 24.3999 27.5 24.8999 26C25.3999 26.5 24.8999 27 24.8999 27C25.3999 27 25.8999 27 25.8999 26C26.0796 26.1797 25.8999 26.5 25.8999 26.5C25.8999 26.5 26.3999 26.5 26.3999 25.5C26.8999 26 27.3999 26 27.3999 26C27.3999 26 26.8999 25.5 26.8999 24.5C26.8999 23.5 27.3999 23.5 27.8999 22.5Z" fill="#463837"/>
<path fill-rule="evenodd" clip-rule="evenodd" d="M17.9055 26.1429C17.9055 27.2857 17.5441 29.1625 17.3429 29.5714C16.8711 30.5297 16.3993 30.6845 14.2689 31.3833C13.8587 31.5178 13.3869 31.6726 12.8418 31.8571L8.93846 33.5714C8.18828 33.7619 7.0905 34.4679 6.68791 35.2857C6.48318 35.7016 6.29915 35.9703 6.12639 36.2226C5.72943 36.8022 5.39203 37.2949 5 39.2857H19.5934H22.4066H37C36.608 37.2949 36.2706 36.8022 35.8736 36.2226C35.7009 35.9703 35.5168 35.7016 35.3121 35.2857C34.9095 34.4679 33.8117 33.7619 33.0615 33.5714L29.1582 31.8571C28.6131 31.6726 28.1413 31.5178 27.7311 31.3833C25.6007 30.6845 25.1289 30.5297 24.6571 29.5714C24.4559 29.1625 24.0945 27.2857 24.0945 26.1429V25H22.4066H19.5934H17.9055V26.1429Z" fill="#ECB590"/>
<path fill-rule="evenodd" clip-rule="evenodd" d="M28.4579 15.1356C28.6476 14.6218 29.0272 13.5942 30.1653 14.108C30.8852 14.433 31.3037 15.6495 30.7345 16.677C30.4465 17.1968 29.5963 18.2183 29.5963 18.2183C29.5963 18.2183 29.4273 19.3984 29.0272 19.7597C28.6271 20.1209 27.8889 20.2734 27.8889 20.2734C27.6992 21.4722 27.3198 22.5 26.7141 24C26.427 24.7109 23.9053 27.4665 22.198 27.7748C22.0769 27.7966 21.9973 27.8217 21.9182 27.8467C21.7719 27.8929 21.6269 27.9387 21.2235 27.9628V27.9802C21.0874 27.9802 20.966 27.979 20.8571 27.9767C20.7482 27.979 20.6267 27.9802 20.4907 27.9802V27.9628C20.0873 27.9387 19.9423 27.8929 19.796 27.8467C19.7168 27.8217 19.6373 27.7966 19.5161 27.7748C17.8089 27.4665 15.2871 24.7109 15.0001 24C14.3944 22.5 14.015 21.4722 13.8253 20.2734C13.8253 20.2734 13.0871 20.1209 12.687 19.7597C12.2868 19.3984 12.1179 18.2183 12.1179 18.2183C12.1179 18.2183 11.2677 17.1968 10.9797 16.677C10.4104 15.6495 10.829 14.433 11.5489 14.108C12.687 13.5942 13.0665 14.6218 13.2562 15.1356C13.0665 13.423 13.0285 9.68939 14.3944 8.4563C15.6694 7.3052 19.0273 7.55701 20.8571 7.87423C22.6868 7.55701 26.0448 7.3052 27.3198 8.4563C28.6856 9.68939 28.6477 13.423 28.4579 15.1356Z" fill="#F4C3A3"/>
<path d="M13.0001 5.5C14.2687 4.28908 16.0192 3.50003 17.5001 4C18.5477 3 19.3428 2 22.1715 2C25.0001 2 26.151 3.82328 28.0001 5C29.8492 6.17672 30.0316 7.10557 30.5001 8C31.0239 9 31.0001 8.99997 31.0001 11C31.0001 11.5 32.0001 13 32.5001 13C31.5001 15 30.4001 14 30.0001 15C29.6 16 30.0239 15.5 29.5001 16.5C29.2658 16.9472 28.9668 17.8 28.3001 18.3C28.3001 18.3 28.7001 17 28.7001 16.5C28.7001 16 28.3001 15.5 28.3001 15.5C26.7287 15.5 25.8381 14.5 25.8381 14.5C24.7905 15 23.2191 14.5 23.2191 14.5C21.1238 15 19.5524 14 19.0286 13C18.5048 12 19.2032 10.1666 19.5524 8.49997C19.2032 8.49997 18.0498 8.4343 17.4572 9C16.9334 9.50003 16.9334 10 16.9334 11.5C16.9334 13.0811 15.3619 14.1666 14.8381 14C14.8381 14.5 14.7334 15.6 14.3143 16C13.7905 16.5 13.7905 17.5 13.7905 18.5C13.2667 17.6667 13.1 17 12.6 16C12.1 15 11.6 15 11.6 15C11.6 15 10.7695 14.6735 10.5001 14C10.2307 13.3265 10.3477 13.5 9.30005 13C10.3 12.5 11.0001 12 11.0001 10.5C11.0001 9.5 11.4287 7 13.0001 5.5Z" fill="#463837"/>
<path d="M9.3999 13.9004C9.7999 13.9004 10.8999 13.4004 11.3999 12.4004L12.3999 13.4004C11.8999 14.4004 9.8999 14.4004 9.3999 13.9004Z" fill="#463837"/>
<path d="M31.1001 15.5C30.3001 15.1 30.1001 14 30.1001 13.5L28.6001 13C28.7668 13.5 28.6001 14.2 28.6001 15C28.6001 15.8 30.4334 16.1667 31.1001 16C31.1001 16 29.6001 16 29.6001 15C30.1001 15.5 30.6001 15.5 31.1001 15.5Z" fill="#463837"/>
<path d="M25.3 14.3008C24.5 13.9008 23.9 13.3008 23.9 12.8008L22.8 12.3008C22.8 12.3008 22.3 12.8008 22.3 14.3008C22.3 15.1008 23.8 15.8008 24.9 15.3008C24.9 15.3008 22.8 15.3008 23.3 13.8008C23.8 14.3008 24.8 14.3008 25.3 14.3008Z" fill="#463837"/>
<path d="M11.0797 15.9085C11.6611 15.2287 11.4174 14.1376 11.2228 13.677L12.4102 12.6328C12.4511 13.1583 12.877 13.7383 13.1882 14.4753C13.4995 15.2122 11.9532 16.2633 11.2742 16.3691C11.2742 16.3691 12.656 15.7855 12.267 14.8643C12.0009 15.5194 11.5403 15.7139 11.0797 15.9085Z" fill="#463837"/>
</svg>
