<svg width="24" height="24" viewBox="0 0 24 24" fill="none" xmlns="http://www.w3.org/2000/svg">
<g clip-path="url(#clip0_1039_37785)">
<path d="M7.89833 1.75195C2.89583 2.71029 0.5 5.58529 0.5 5.58529C0.5 5.58529 0.9025 8.90445 2.41667 10.4186C3.93083 11.9328 5.56 11.8561 5.56 11.8561V21.7686C5.56 21.7686 8.64583 22.2478 12 22.2478C15.3542 22.2478 17.98 21.7686 17.98 21.7686V11.8561C17.98 11.8561 19.1875 11.8561 21.1042 10.4186C23.0208 8.98112 23.5 5.58529 23.5 5.58529C23.5 5.58529 21.1042 2.71029 16.1017 1.75195M7.89833 1.75195L12 7.02279L16.1017 1.75195M7.89833 1.75195C11.5208 3.18945 12.4792 3.18945 16.1017 1.75195" stroke="black"/>
</g>
<defs>
<clipPath id="clip0_1039_37785">
<rect width="24" height="24" fill="white"/>
</clipPath>
</defs>
</svg>
