<svg width="43" height="42" viewBox="0 0 43 42" fill="none" xmlns="http://www.w3.org/2000/svg">
<path fill-rule="evenodd" clip-rule="evenodd" d="M23.0135 40.7641L21.7782 35.823L20.5429 40.7641H15.5291L16.837 29.6465H26.7194L28.0273 40.7641H23.0135Z" fill="#00C1EC"/>
<circle cx="21.7781" cy="6.17555" r="4.94118" fill="#346BF7"/>
<path d="M15.9079 16.6366C15.7425 14.3211 17.5763 12.3516 19.8977 12.3516H23.6588C25.9802 12.3516 27.8141 14.3211 27.6487 16.6366L26.7195 29.6457H16.8371L15.9079 16.6366Z" fill="#3461D6"/>
<path d="M15.9079 16.6366C15.7425 14.3211 17.5763 12.3516 19.8977 12.3516H23.6588C25.9802 12.3516 27.8141 14.3211 27.6487 16.6366L26.7195 29.6457H16.8371L15.9079 16.6366Z" fill="#241B8F"/>
<path d="M13.2781 16.0586L10.0553 25.727C9.77005 26.5827 10.0928 27.5233 10.8432 28.0236L20.6898 34.588" stroke="#346BF7" stroke-width="3" stroke-linecap="round"/>
<path d="M30.2783 16.0586L33.5011 25.727C33.7863 26.5827 33.4636 27.5233 32.7132 28.0236L22.8666 34.588" stroke="#346BF7" stroke-width="3" stroke-linecap="round"/>
<path d="M12.0206 15.3814C12.4658 13.6008 14.0657 12.3516 15.9012 12.3516H22.2781H27.6552C29.4907 12.3516 31.0906 13.6008 31.5358 15.3814L32.2783 18.3516H22.2781H11.2781L12.0206 15.3814Z" fill="#3461D6"/>
<path d="M12.0206 15.3814C12.4658 13.6008 14.0657 12.3516 15.9012 12.3516H22.2781H27.6552C29.4907 12.3516 31.0906 13.6008 31.5358 15.3814L32.2783 18.3516H22.2781H11.2781L12.0206 15.3814Z" fill="#241B8F"/>
</svg>
