<svg width="43" height="42" viewBox="0 0 43 42" fill="none" xmlns="http://www.w3.org/2000/svg">
<path fill-rule="evenodd" clip-rule="evenodd" d="M20.3266 2.59961H15.8646C15.7738 2.59961 15.6857 2.63052 15.6147 2.68726L12.7602 4.97087C12.7362 4.99006 12.711 5.00602 12.6832 5.01927C12.3042 5.20036 9.38155 6.60103 7.75831 7.5016C6.02027 8.46585 4.18706 10.9594 3.72359 13.4002C3.28741 15.6973 3.14077 19.5165 3.12501 21.7471C3.12345 21.968 3.30264 22.1465 3.52355 22.1465H9.09634C9.31725 22.1465 9.49634 22.3256 9.49634 22.5465V39.4018C9.49634 39.6227 9.67543 39.8018 9.89634 39.8018H20.3266H21.9247H32.3549C32.5759 39.8018 32.7549 39.6227 32.7549 39.4018V22.5465C32.7549 22.3256 32.934 22.1465 33.1549 22.1465H38.7277C38.9487 22.1465 39.1278 21.968 39.1263 21.7471C39.1105 19.5165 38.9639 15.6973 38.5277 13.4002C38.0642 10.9594 36.231 8.46585 34.493 7.5016C32.8697 6.60103 29.947 5.20036 29.568 5.01927C29.5403 5.00602 29.515 4.99006 29.4911 4.97087L26.6366 2.68726C26.5656 2.63052 26.4775 2.59961 26.3867 2.59961H21.9247H20.3266Z" fill="#0E45AF"/>
<path d="M15.5325 2H26.7291V8.60039H15.5325V2Z" fill="#0C3584"/>
<path fill-rule="evenodd" clip-rule="evenodd" d="M15.5243 2L12.7241 5.00018L17.4812 11.7961C17.6271 12.0044 17.9278 12.0255 18.1014 11.8396L21.1246 8.60045L24.1478 11.8396C24.3213 12.0255 24.622 12.0044 24.7679 11.7961L29.525 5.00018L26.7248 2L21.1246 8.60032L15.5243 2Z" fill="white"/>
<circle cx="21.1246" cy="15.8016" r="1.20007" fill="white"/>
<circle cx="21.1246" cy="20.6005" r="1.20007" fill="white"/>
</svg>
