<svg width="34" height="34" viewBox="0 0 34 34" fill="none" xmlns="http://www.w3.org/2000/svg">
<path d="M11.8377 29.9332L11.8378 29.9331L11.94 29.7287C11.5072 29.4016 11.0979 29.0442 10.7153 28.6591C8.80037 26.7319 7.33333 23.902 7.33333 20.3333C7.33333 19.0525 7.54934 17.782 7.93957 16.5835L7.93959 16.5835C8.07111 16.1797 8.33843 15.929 8.65971 15.7977C8.94952 15.6794 9.26356 15.6667 9.5 15.6667C12.147 15.6667 14.4889 14.3533 15.9093 12.3374C16.0324 12.1624 16.1957 12.0196 16.3855 11.921C16.5754 11.8225 16.7861 11.771 17 11.771C17.2139 11.771 17.4246 11.8225 17.6145 11.921C17.8043 12.0196 17.9676 12.1624 18.0907 12.3374L18.091 12.3378C18.813 13.3668 19.7725 14.2067 20.8881 14.7861C22.0037 15.3656 23.2425 15.6676 24.4996 15.6667H24.5C24.7364 15.6667 25.0508 15.6794 25.3407 15.7977C25.6619 15.9287 25.9297 16.1794 26.0605 16.5836C26.4574 17.7935 26.662 19.0582 26.6667 20.3315L26.6667 20.3333C26.6667 23.9037 25.1996 26.7319 23.2848 28.659C23.2847 28.659 23.2847 28.6591 23.2847 28.6591L22.93 28.3067C22.455 28.785 21.9467 29.2083 21.4233 29.5733L11.8377 29.9332ZM11.8377 29.9332C11.6025 30.4039 11.2408 30.7999 10.7931 31.0766C10.3455 31.3534 9.8296 31.5 9.30333 31.5H7C5.80653 31.5 4.66193 31.0259 3.81802 30.182C2.97411 29.3381 2.5 28.1935 2.5 27V17C2.5 13.1544 4.02767 9.46623 6.74695 6.74695C9.46623 4.02767 13.1544 2.5 17 2.5C20.8456 2.5 24.5338 4.02767 27.253 6.74695C29.9723 9.46623 31.5 13.1544 31.5 17V27C31.5 28.1935 31.0259 29.3381 30.182 30.182C29.3381 31.0259 28.1935 31.5 27 31.5H24.6967C24.1704 31.5 23.6545 31.3534 23.2069 31.0766C22.7592 30.7999 22.3975 30.4039 22.1623 29.9332L22.1622 29.9331L22.0601 29.7288L11.8377 29.9332Z" stroke="black"/>
</svg>
