<svg width="42" height="42" viewBox="0 0 42 42" fill="none" xmlns="http://www.w3.org/2000/svg">
<path d="M13.0009 18.2604C13.5723 19.9741 14.7169 20.5461 14.7169 20.5461C15.8598 21.1173 17.0026 23.0364 18.7169 23.0364L23.8598 23.0363C25.0026 23.0363 25.0008 22.2603 26.1437 21.6889C26.6548 21.4334 28.4312 19.9746 29.0026 18.8318C29.2582 18.3207 30.1456 16.5461 30.717 14.2604C31.1741 12.4318 31.2857 9.74442 29.5715 7.4587C27.8572 5.17299 26.7143 4.03121 23.8598 3.40335C20.2592 2.61139 18.1429 2.88738 16.4283 5.11722C16.4283 5.11722 14.7151 5.17367 13.0009 6.88795C11.2866 8.60224 10.8873 10.4783 11.4587 13.3354C11.9069 15.5767 12.4294 16.5467 13.0009 18.2604Z" fill="#463837"/>
<path fill-rule="evenodd" clip-rule="evenodd" d="M17.9055 25.8948C17.9055 27.0377 17.5441 28.9145 17.3429 29.3234C16.8711 30.2817 16.3993 30.4364 14.2689 31.1352C13.8587 31.2698 13.3869 31.4245 12.8418 31.6091L8.93846 33.3234C8.18828 33.5139 7.0905 34.2199 6.68791 35.0377C6.48318 35.4535 6.29915 35.7223 6.12639 35.9745C5.72943 36.5542 5.39203 37.0469 5 39.0377H19.5934H22.4066H37C36.608 37.0469 36.2706 36.5542 35.8736 35.9745C35.7009 35.7223 35.5168 35.4535 35.3121 35.0377C34.9095 34.2199 33.8117 33.5139 33.0615 33.3234L29.1582 31.6091C28.6131 31.4245 28.1413 31.2698 27.7311 31.1352C25.6007 30.4364 25.1289 30.2817 24.6571 29.3234C24.4559 28.9145 24.0945 27.0377 24.0945 25.8948V24.752H22.4066H19.5934H17.9055V25.8948Z" fill="#ECB590"/>
<path fill-rule="evenodd" clip-rule="evenodd" d="M28.7435 15.1356C28.9332 14.6218 29.3128 13.5942 30.4509 14.108C31.1708 14.433 31.5894 15.6495 31.0201 16.677C30.7321 17.1968 29.8819 18.2183 29.8819 18.2183C29.8819 18.2183 29.713 19.3984 29.3128 19.7597C28.9127 20.1209 28.1745 20.2734 28.1745 20.2734C28.144 20.4658 28.114 20.6844 28.0818 20.9187C27.9132 22.1437 27.6857 23.7974 27.0363 24.3837C26.9406 24.4701 26.7966 24.6146 26.6152 24.7968C25.7177 25.6976 23.9038 27.5183 22.4836 27.7748C22.3625 27.7966 22.283 27.8217 22.2038 27.8467C22.0272 27.9025 21.8526 27.9576 21.2235 27.9748V27.9803C21.1419 27.9803 21.0656 27.9799 20.9941 27.979C20.926 27.9798 20.8535 27.9802 20.7763 27.9802V27.9749C20.1472 27.9577 19.9725 27.9026 19.796 27.8469C19.7168 27.8219 19.6373 27.7968 19.5161 27.7749C18.096 27.5185 16.2821 25.6977 15.3846 24.7969C15.2032 24.6148 15.0592 24.4702 14.9635 24.3838C14.314 23.7975 14.0866 22.1438 13.918 20.9188C13.8858 20.6846 13.8557 20.466 13.8253 20.2735C13.8253 20.2735 13.0871 20.1211 12.687 19.7598C12.2868 19.3986 12.1179 18.2185 12.1179 18.2185C12.1179 18.2185 11.2677 17.197 10.9797 16.6771C10.4104 15.6496 10.829 14.4331 11.5489 14.1082C12.687 13.5944 13.0665 14.622 13.2562 15.1357C13.0665 13.4231 13.0285 9.68952 14.3944 8.45644C15.7032 7.27477 19.2071 7.5715 20.9995 7.89974C22.7917 7.57145 26.2964 7.27448 27.6054 8.4563C28.9712 9.68939 28.9333 13.423 28.7435 15.1356Z" fill="#F4C3A3"/>
<path d="M13.5715 18.4674L12.9823 14.4674C12.0123 11.0388 14.1245 5.32227 21.0007 5.32227C25.5896 5.32227 27.6667 7.60798 28.4286 8.75084C29.1905 9.89369 30.1427 12.7531 28.9999 15.0388L28.4284 18.4674C28.4284 18.4674 28.4284 16.1816 27.2857 15.0388C26.143 13.8959 22.9048 13.6895 21.5715 12.5466C22.3331 13.4431 23.8572 14.2769 25 15.0388C22.1429 15.0388 18.7145 14.8323 17.5715 11.4037C17.5715 12.318 14.7143 13.7453 14.1252 15.0388C13.536 16.3323 13.5715 18.4674 13.5715 18.4674Z" fill="#463837"/>
</svg>
