<svg width="43" height="42" viewBox="0 0 43 42" fill="none" xmlns="http://www.w3.org/2000/svg">
<rect x="15.8335" y="5.94727" width="10.5873" height="7.41109" fill="white"/>
<path fill-rule="evenodd" clip-rule="evenodd" d="M3.21388 13.8648C4.12687 12.7519 8.78763 7.12094 10.0084 6.64411C11.096 6.21933 13.72 5.79456 14.7144 5.64329C14.9315 5.61026 15.1344 5.7581 15.1913 5.97025C15.4946 7.10079 16.7447 10.3358 21.1288 10.3863C25.5129 10.3358 26.763 7.10079 27.0663 5.97025C27.1232 5.7581 27.3261 5.61026 27.5432 5.64329C28.5376 5.79456 31.1616 6.21933 32.2492 6.64411C33.47 7.12094 38.1307 12.7519 39.0437 13.8648C39.1404 13.9827 39.1591 14.1429 39.0955 14.2814L36.2023 20.5773C36.1108 20.7765 35.8759 20.8649 35.6757 20.7755L31.8613 19.0711C31.5967 18.9529 31.2981 19.1465 31.2981 19.4363V35.8885C31.2981 36.1094 31.119 36.2885 30.8981 36.2885H21.6799H20.5777H11.3595C11.1386 36.2885 10.9595 36.1094 10.9595 35.8885V19.4363C10.9595 19.1465 10.6609 18.9529 10.3963 19.0711L6.58193 20.7755C6.38173 20.8649 6.14684 20.7765 6.05529 20.5773L3.16214 14.2814C3.09851 14.1429 3.11721 13.9827 3.21388 13.8648Z" fill="#16D1DD"/>
<path fill-rule="evenodd" clip-rule="evenodd" d="M14.3083 5.73577C14.9447 8.41462 17.94 11.2403 21.1294 11.2403C24.3189 11.2403 27.3142 8.41454 27.9505 5.73565L26.254 5.00004C25.7906 6.99995 23.4861 9.61119 21.1296 9.61119C18.773 9.61119 16.4685 6.99991 16.0051 5L14.3083 5.73577Z" fill="#4122FF"/>
<path d="M20.0652 16.3626C20.5164 15.5131 21.7336 15.5131 22.1848 16.3626L22.9979 17.8935C23.1714 18.2201 23.4857 18.4485 23.8499 18.5125L25.5572 18.8128C26.5045 18.9793 26.8806 20.137 26.2122 20.8286L25.0074 22.075C24.7504 22.3409 24.6303 22.7104 24.682 23.0766L24.924 24.7931C25.0583 25.7455 24.0736 26.461 23.2092 26.0389L21.6515 25.2783C21.3193 25.116 20.9307 25.116 20.5985 25.2783L19.0408 26.0389C18.1764 26.461 17.1917 25.7455 17.326 24.7931L17.568 23.0766C17.6197 22.7104 17.4996 22.3409 17.2426 22.075L16.0378 20.8286C15.3694 20.137 15.7455 18.9793 16.6928 18.8128L18.4001 18.5125C18.7643 18.4485 19.0786 18.2201 19.2521 17.8935L20.0652 16.3626Z" fill="#4122FF"/>
</svg>
