<svg width="43" height="43" viewBox="0 0 43 43" fill="none" xmlns="http://www.w3.org/2000/svg">
<path d="M17.3999 7.44434L20.9999 9.54803L24.5999 7.44434V8.49618L20.9999 10.5999L17.3999 8.49618V7.44434Z" fill="#D9D9D9"/>
<path d="M9.68578 6.39262L10.7144 5.8667C11.361 7.48527 14.0865 12.9179 14.2208 14.8222C14.4129 17.5443 13.5429 18.164 13.5429 18.164L8.40007 37.2161L3.00007 36.1681C3.00007 36.1681 6.23407 21.6895 6.34293 21.2535C6.90396 19.0066 9.12474 6.95372 9.68578 6.39262Z" fill="#393A3A"/>
<path d="M11.2284 26.3782C11.2284 24.377 10.7142 5.8672 10.7142 5.8672L17.5868 3.58838C18.7088 10.8909 21.2565 23.3138 21.2565 23.3138L21.5142 26.3782L19.9713 39.0003C18.9677 39.0003 16.6284 38.4634 10.7142 37.9485L11.2284 26.3782Z" fill="#434444"/>
<path d="M12.5308 28.6782H17.5983L17.6054 29.0515C17.6106 29.3276 17.391 29.5514 17.1148 29.5514H12.9475C12.7267 29.5514 12.5442 29.3725 12.54 29.1517L12.5308 28.6782Z" fill="#2F2F2F"/>
<path d="M13.8003 4.81499L17.658 3.23139L20.7432 21.2537L17.658 11.4702L14.3144 7.97058L13.8003 4.81499Z" fill="#2F2F2F"/>
<path d="M15.3428 11.1258L18.4285 7.44434L21.2571 22.7984L15.3428 11.1258Z" fill="#2F2F2F"/>
<path d="M32.3161 6.39311L31.2877 5.86719C30.6413 7.48576 27.9164 12.9184 27.7821 14.8227C27.5901 17.5447 28.4598 18.1645 28.4598 18.1645L33.6015 37.2166L39.0002 36.1686C39.0002 36.1686 35.7669 21.69 35.6581 21.254C35.0972 19.0071 32.877 6.95421 32.3161 6.39311Z" fill="#393A3A"/>
<path d="M30.7735 26.3782C30.7735 24.377 31.2877 5.8672 31.2877 5.8672L24.4167 3.58838C23.2949 10.8909 20.7478 23.3138 20.7478 23.3138L20.4902 26.3782L22.0327 39.0003C23.0361 39.0003 25.3748 38.4634 31.2877 37.9485L30.7735 26.3782Z" fill="#434444"/>
<path d="M29.4712 28.6782H24.4048L24.3978 29.0515C24.3926 29.3276 24.6122 29.5514 24.8883 29.5514L29.0544 29.5514C29.2753 29.5514 29.4577 29.3725 29.462 29.1517L29.4712 28.6782Z" fill="#2F2F2F"/>
<path d="M28.2021 4.81499L24.3453 3.23139L21.2609 21.2537L24.3453 11.4702L27.6881 7.97058L28.2021 4.81499Z" fill="#2F2F2F"/>
<path d="M26.6602 11.1258L23.5752 7.44434L20.7473 22.7984L26.6602 11.1258Z" fill="#2F2F2F"/>
</svg>
