<svg width="37" height="40" viewBox="0 0 37 40" fill="none" xmlns="http://www.w3.org/2000/svg">
<path d="M16.9783 5.62695H19.3783L20.5783 23.627H15.7783L16.9783 5.62695Z" fill="#2283F4"/>
<path d="M18.1783 1.28516L20.4608 2.94352L19.3783 5.6268H16.9783L15.8958 2.94352L18.1783 1.28516Z" fill="#3D6DE7"/>
<path fill-rule="evenodd" clip-rule="evenodd" d="M13.6785 0L9.82132 1.85613C8.53561 2.47485 6.98873 3.34491 5.96418 4.33098C4.93963 5.31705 3.60704 7.01206 3.39275 7.42454C2.61411 9.07321 2.24071 12.2397 1.88252 15.2772C1.74783 16.4193 1.6153 17.5432 1.46418 18.5613C0.821324 22.8923 0.392753 30.5231 0.178467 35.2666H5.96418L7.89275 14.8491C7.97441 15.0848 8.05606 15.3126 8.1364 15.5367C8.68855 17.077 9.17847 18.4436 9.17847 21.0362C9.17847 24.006 9.17847 27.2233 8.53561 31.5543L7.2499 36.504C7.2499 37.7414 8.53561 38.9788 11.107 39.5975C12.978 40.0477 14.9642 39.5975 15.607 38.9788C15.7338 38.8568 15.8506 38.7588 15.9613 38.666C16.412 38.2879 16.7624 37.994 17.2785 36.504C17.9213 34.6479 18.1785 31.5543 18.1785 31.5543V20.4175C16.2499 13.6117 14.9642 8.04325 14.3213 4.94969C13.6785 1.85613 13.6785 1.03119 13.6785 0ZM22.6785 0L26.5356 1.85613C27.8213 2.47485 29.3682 3.34491 30.3928 4.33098C31.4173 5.31705 32.7499 7.01206 32.9642 7.42454C33.7428 9.07321 34.1162 12.2397 34.4744 15.2772C34.6091 16.4193 34.7416 17.5432 34.8928 18.5613C35.5356 22.8923 35.9642 30.5231 36.1785 35.2666H30.3928L28.4642 14.8491C28.3825 15.0848 28.3009 15.3126 28.2206 15.5367C27.6684 17.077 27.1785 18.4436 27.1785 21.0362C27.1785 24.006 27.1785 27.2233 27.8213 31.5543L29.1071 36.504C29.1071 37.7414 27.8213 38.9788 25.2499 39.5975C23.3789 40.0477 21.3928 39.5975 20.7499 38.9788C20.6231 38.8568 20.5063 38.7588 20.3956 38.666C19.9449 38.2879 19.5946 37.994 19.0785 36.504C18.4356 34.6479 18.1785 31.5543 18.1785 31.5543V20.4175C20.1071 13.6117 21.3928 8.04325 22.0356 4.94969C22.6785 1.85613 22.6785 1.03119 22.6785 0Z" fill="#1F243D"/>
<path fill-rule="evenodd" clip-rule="evenodd" d="M21.1785 31.1465C20.8471 31.1465 20.5785 31.4151 20.5785 31.7465C20.5785 32.0779 20.8471 32.3465 21.1785 32.3465H24.7785C25.1098 32.3465 25.3785 32.0779 25.3785 31.7465C25.3785 31.4151 25.1098 31.1465 24.7785 31.1465H21.1785ZM11.5785 31.1466C11.2471 31.1466 10.9785 31.4152 10.9785 31.7466C10.9785 32.0779 11.2471 32.3466 11.5785 32.3466H15.1785C15.5099 32.3466 15.7785 32.0779 15.7785 31.7466C15.7785 31.4152 15.5099 31.1466 15.1785 31.1466H11.5785Z" fill="#5D707A"/>
</svg>
