<svg width="43" height="42" viewBox="0 0 43 42" fill="none" xmlns="http://www.w3.org/2000/svg">
<path d="M7.91755 9.48828H35.4744C30.0828 30.4554 38.4697 40.0404 38.4697 40.0404H3.72412C3.72412 40.0404 12.71 28.6582 7.91755 9.48828Z" fill="#FF3E3E"/>
<rect x="12.71" y="33.4512" width="16.7737" height="7.18874" fill="white"/>
<path d="M15.7053 3.49781L16.3044 1.10156C17.5025 1.10156 18.7006 1.10156 19.8987 1.70062C21.0968 2.29969 21.3589 2.56177 21.6959 2.89875C22.0329 3.23572 21.0968 21.4426 21.0968 21.4426V35.8822C21.0968 35.8822 19.2997 39.6416 18.7006 39.6451C18.1015 39.6486 17.5734 39.3305 15.7053 38.8811C13.1379 38.2633 10.8272 37.7005 10.8272 37.0453L12.1109 32.562C12.7528 28.2378 12.71 25.6631 12.1109 22.0604C11.6245 19.1354 11.4691 17.7362 10.8272 15.883L8.90166 36.2685H3.125C3.33895 31.5325 3.76685 23.9136 4.4087 19.5894C4.96084 15.8696 5.05055 12.3525 6.12031 10.0875C6.33426 9.67566 7.4936 6.87858 8.51655 5.89405C9.5395 4.90953 14.4216 4.11555 15.7053 3.49781Z" fill="#3442AD"/>
<path d="M26.5445 3.39625L25.9454 1C25.9454 1 21.2235 1.68927 21.0966 2.29992C20.9697 2.91056 21.1529 4.69616 21.1529 4.69616L18.7004 7.69147V34.0502C18.7004 34.0502 22.9501 39.54 23.5492 39.5435C24.1482 39.547 24.6764 39.229 26.5445 38.7795C29.1119 38.1617 31.4225 37.5989 31.4225 36.9437L30.1388 32.4605C29.497 28.1363 29.5398 25.5615 30.1388 21.9588C30.6252 19.0338 30.7807 17.6346 31.4225 15.7814L33.3481 36.1669H39.1248C38.9108 31.4309 38.4829 23.8121 37.8411 19.4879C37.2889 15.768 37.1992 12.251 36.1294 9.98592C35.9155 9.57409 34.7562 6.77702 33.7332 5.79249C32.7103 4.80796 27.8282 4.01399 26.5445 3.39625Z" fill="#1E266A"/>
<path fill-rule="evenodd" clip-rule="evenodd" d="M11.044 4.56332L7.54517 5.38672L7.81963 6.55298C7.97122 7.19709 9.66056 7.35059 11.5929 6.89584C13.5252 6.44109 14.9688 5.55028 14.8172 4.90617L14.5427 3.73991L11.044 4.56332Z" fill="#FFD976"/>
<ellipse cx="11.044" cy="4.56356" rx="3.59437" ry="1.19812" transform="rotate(-13.243 11.044 4.56356)" fill="#E09355"/>
<path d="M6.23024 7.64635C5.96144 7.70961 5.79482 7.9788 5.85808 8.2476C5.92134 8.5164 6.19052 8.68302 6.45932 8.61976L6.23024 7.64635ZM7.90489 6.37262C7.89572 6.47355 7.89464 6.5696 7.89371 6.6433C7.8927 6.72339 7.89183 6.77799 7.88722 6.82873C7.87931 6.91579 7.863 6.95853 7.83023 7.00128C7.78924 7.05476 7.6886 7.14992 7.43289 7.2679C7.17768 7.38564 6.79699 7.51298 6.23024 7.64635L6.45932 8.61976C7.05883 8.47867 7.51139 8.33298 7.85181 8.17592C8.19173 8.0191 8.44911 7.83769 8.62392 7.60959C8.80696 7.37078 8.86424 7.12694 8.88312 6.91922C8.8919 6.82257 8.89272 6.72772 8.89363 6.6559C8.89461 6.57771 8.89567 6.51939 8.90078 6.46311L7.90489 6.37262Z" fill="#FFD976"/>
<path d="M8.14047 9.12892C7.95191 9.33065 7.96259 9.64706 8.16432 9.83562C8.36606 10.0242 8.68246 10.0135 8.87103 9.81177L8.14047 9.12892ZM9.06988 6.11284C9.05499 6.35949 9.07809 6.6175 9.08988 6.82108C9.10253 7.03936 9.10704 7.24169 9.07655 7.45695C9.01845 7.86706 8.82207 8.3997 8.14047 9.12892L8.87103 9.81177C9.66436 8.96302 9.97445 8.24818 10.0667 7.59721C10.1113 7.28192 10.1019 7.00031 10.0882 6.76323C10.0736 6.51145 10.0578 6.34268 10.0681 6.17313L9.06988 6.11284Z" fill="#FFD976"/>
<path d="M10.4892 9.38833C10.4255 9.65704 10.5918 9.92646 10.8605 9.99009C11.1292 10.0537 11.3986 9.88747 11.4623 9.61876L10.4892 9.38833ZM10.8727 6.45066C10.6095 6.8758 10.6089 6.87542 10.6083 6.87503C10.6081 6.87491 10.6075 6.87452 10.6071 6.87427C10.6063 6.87376 10.6055 6.87326 10.6047 6.87276C10.6031 6.87176 10.6016 6.87077 10.6001 6.8698C10.5971 6.86786 10.5943 6.86598 10.5916 6.86416C10.5864 6.86053 10.5817 6.85717 10.5777 6.85412C10.5697 6.84801 10.5643 6.84324 10.561 6.84019C10.5543 6.83394 10.5573 6.83536 10.5662 6.84817C10.5837 6.873 10.6304 6.95021 10.669 7.11402C10.7476 7.44788 10.788 8.12635 10.4892 9.38833L11.4623 9.61876C11.7808 8.27374 11.7697 7.42577 11.6424 6.88494C11.578 6.6114 11.4833 6.4142 11.3849 6.27396C11.336 6.20423 11.2875 6.15045 11.2439 6.10963C11.2221 6.0893 11.2018 6.07239 11.1835 6.05848C11.1744 6.05153 11.1658 6.04535 11.1578 6.03987C11.1538 6.03713 11.15 6.03457 11.1463 6.03218C11.1445 6.03098 11.1427 6.02983 11.141 6.02872C11.1401 6.02817 11.1392 6.02762 11.1384 6.02709C11.1379 6.02682 11.1373 6.02642 11.1371 6.02629C11.1365 6.0259 11.1358 6.02551 10.8727 6.45066Z" fill="#FFD976"/>
<path d="M13.0449 9.38109C13.2797 9.52646 13.5878 9.45398 13.7332 9.2192C13.8786 8.98442 13.8061 8.67624 13.5713 8.53087L13.0449 9.38109ZM11.6138 5.91436C11.4139 6.2372 11.4025 6.61164 11.4542 6.93243C11.5069 7.25967 11.6346 7.59405 11.7918 7.89882C12.0985 8.49357 12.5803 9.09342 13.0449 9.38109L13.5713 8.53087C13.3157 8.37261 12.9399 7.94342 12.6806 7.44051C12.5548 7.19646 12.4723 6.96486 12.4415 6.77329C12.4095 6.57525 12.4409 6.47804 12.4641 6.4407L11.6138 5.91436Z" fill="#FFD976"/>
<path d="M15.3879 8.30776C15.6567 8.37139 15.9261 8.20514 15.9897 7.93642C16.0533 7.66771 15.8871 7.3983 15.6184 7.33467L15.3879 8.30776ZM12.7181 6.01493C12.8767 6.6888 13.1782 7.19841 13.6596 7.57588C14.1231 7.93924 14.7141 8.14819 15.3879 8.30776L15.6184 7.33467C14.9887 7.18557 14.5678 7.01724 14.2766 6.78892C14.0034 6.57471 13.8074 6.27824 13.6915 5.78585L12.7181 6.01493Z" fill="#FFD976"/>
<path d="M16.5457 5.47756C16.691 5.24276 16.6185 4.93459 16.3837 4.78925C16.1489 4.64392 15.8407 4.71644 15.6954 4.95124L16.5457 5.47756ZM13.7472 5.15751C13.8349 5.53004 14.0064 5.8379 14.2647 6.04971C14.525 6.26315 14.8334 6.34589 15.1298 6.33588C15.6989 6.31668 16.246 5.96159 16.5457 5.47756L15.6954 4.95124C15.5491 5.18757 15.2902 5.3299 15.096 5.33645C15.0108 5.33933 14.9483 5.31703 14.8988 5.27644C14.8473 5.23421 14.7702 5.13903 14.7206 4.92843L13.7472 5.15751Z" fill="#FFD976"/>
<path fill-rule="evenodd" clip-rule="evenodd" d="M31.6523 4.56332L35.1511 5.38672L34.8767 6.55298C34.7251 7.19709 33.0357 7.35059 31.1034 6.89584C29.1711 6.44109 27.7275 5.55028 27.8791 4.90617L28.1536 3.73991L31.6523 4.56332Z" fill="#FFD976"/>
<ellipse cx="3.59437" cy="1.19812" rx="3.59437" ry="1.19812" transform="matrix(-0.973407 -0.229081 -0.229081 0.973407 35.4255 4.2207)" fill="#E09355"/>
<path d="M36.466 7.64635C36.7348 7.70961 36.9015 7.9788 36.8382 8.2476C36.775 8.5164 36.5058 8.68302 36.237 8.61976L36.466 7.64635ZM34.7914 6.37262C34.8006 6.47355 34.8017 6.5696 34.8026 6.6433C34.8036 6.72339 34.8045 6.77799 34.8091 6.82873C34.817 6.91579 34.8333 6.95853 34.8661 7.00128C34.9071 7.05476 35.0077 7.14992 35.2634 7.2679C35.5186 7.38564 35.8993 7.51298 36.466 7.64635L36.237 8.61976C35.6375 8.47867 35.1849 8.33298 34.8445 8.17592C34.5046 8.0191 34.2472 7.83769 34.0724 7.60959C33.8893 7.37078 33.832 7.12694 33.8132 6.91922C33.8044 6.82257 33.8036 6.72772 33.8027 6.6559C33.8017 6.57771 33.8006 6.51939 33.7955 6.46311L34.7914 6.37262Z" fill="#FFD976"/>
<path d="M34.5558 9.12892C34.7444 9.33065 34.7337 9.64706 34.532 9.83562C34.3302 10.0242 34.0138 10.0135 33.8253 9.81177L34.5558 9.12892ZM33.6264 6.11284C33.6413 6.35949 33.6182 6.6175 33.6064 6.82108C33.5938 7.03936 33.5892 7.24169 33.6197 7.45695C33.6778 7.86706 33.8742 8.3997 34.5558 9.12892L33.8253 9.81177C33.0319 8.96302 32.7218 8.24818 32.6296 7.59721C32.585 7.28192 32.5943 7.00031 32.6081 6.76323C32.6227 6.51145 32.6385 6.34268 32.6282 6.17313L33.6264 6.11284Z" fill="#FFD976"/>
<path d="M32.2071 9.38833C32.2707 9.65704 32.1045 9.92646 31.8358 9.99009C31.5671 10.0537 31.2977 9.88747 31.234 9.61876L32.2071 9.38833ZM31.8236 6.45066C32.0868 6.8758 32.0874 6.87542 32.088 6.87503C32.0882 6.87491 32.0888 6.87452 32.0892 6.87427C32.09 6.87376 32.0908 6.87326 32.0916 6.87276C32.0932 6.87176 32.0947 6.87077 32.0962 6.8698C32.0992 6.86786 32.102 6.86598 32.1046 6.86416C32.1099 6.86053 32.1146 6.85717 32.1186 6.85412C32.1266 6.84801 32.132 6.84324 32.1353 6.84019C32.142 6.83394 32.139 6.83536 32.13 6.84817C32.1126 6.873 32.0658 6.95021 32.0273 7.11402C31.9487 7.44788 31.9083 8.12635 32.2071 9.38833L31.234 9.61876C30.9155 8.27374 30.9266 7.42577 31.0539 6.88494C31.1183 6.6114 31.213 6.4142 31.3113 6.27396C31.3602 6.20423 31.4088 6.15045 31.4524 6.10963C31.4742 6.0893 31.4945 6.07239 31.5128 6.05848C31.5219 6.05153 31.5305 6.04535 31.5385 6.03987C31.5425 6.03713 31.5463 6.03457 31.55 6.03218C31.5518 6.03098 31.5536 6.02983 31.5553 6.02872C31.5562 6.02817 31.5571 6.02762 31.5579 6.02709C31.5584 6.02682 31.559 6.02642 31.5592 6.02629C31.5598 6.0259 31.5604 6.02551 31.8236 6.45066Z" fill="#FFD976"/>
<path d="M29.6514 9.38109C29.4166 9.52646 29.1085 9.45398 28.9631 9.2192C28.8177 8.98442 28.8902 8.67624 29.125 8.53087L29.6514 9.38109ZM31.0825 5.91436C31.2824 6.2372 31.2938 6.61164 31.2421 6.93243C31.1893 7.25967 31.0616 7.59405 30.9045 7.89882C30.5978 8.49357 30.116 9.09342 29.6514 9.38109L29.125 8.53087C29.3806 8.37261 29.7564 7.94342 30.0157 7.44051C30.1415 7.19646 30.224 6.96486 30.2548 6.77329C30.2868 6.57525 30.2553 6.47804 30.2322 6.4407L31.0825 5.91436Z" fill="#FFD976"/>
<path d="M27.3081 8.30776C27.0394 8.37139 26.77 8.20514 26.7063 7.93642C26.6427 7.66771 26.809 7.3983 27.0777 7.33467L27.3081 8.30776ZM29.9779 6.01493C29.8193 6.6888 29.5179 7.19841 29.0364 7.57588C28.573 7.93924 27.982 8.14819 27.3081 8.30776L27.0777 7.33467C27.7073 7.18557 28.1282 7.01724 28.4194 6.78892C28.6926 6.57471 28.8886 6.27824 29.0045 5.78585L29.9779 6.01493Z" fill="#FFD976"/>
<path d="M26.1504 5.47756C26.005 5.24276 26.0776 4.93459 26.3124 4.78925C26.5472 4.64392 26.8553 4.71644 27.0007 4.95124L26.1504 5.47756ZM28.9489 5.15751C28.8612 5.53004 28.6896 5.8379 28.4313 6.04971C28.171 6.26315 27.8626 6.34589 27.5663 6.33588C26.9971 6.31668 26.45 5.96159 26.1504 5.47756L27.0007 4.95124C27.147 5.18757 27.4059 5.3299 27.6 5.33645C27.6852 5.33933 27.7477 5.31703 27.7972 5.27644C27.8488 5.23421 27.9259 5.13903 27.9755 4.92843L28.9489 5.15751Z" fill="#FFD976"/>
<path d="M17.5024 14.2812H25.2902" stroke="#DBB555"/>
<circle cx="17.5026" cy="14.2821" r="1.19812" fill="#FFD976"/>
<circle cx="24.6913" cy="14.2821" r="1.19812" fill="#FFD976"/>
<path d="M17.5024 19.0723H25.2902" stroke="#DBB555"/>
<circle cx="17.5023" cy="19.0731" r="1.19812" fill="#FFD976"/>
<circle cx="24.691" cy="19.0731" r="1.19812" fill="#FFD976"/>
<path d="M17.5024 23.8652H25.2902" stroke="#DBB555"/>
<circle cx="17.5026" cy="23.8661" r="1.19812" fill="#FFD976"/>
<circle cx="24.6913" cy="23.8661" r="1.19812" fill="#FFD976"/>
<path d="M17.5024 28.6582H25.2902" stroke="#DBB555"/>
<circle cx="17.5023" cy="28.6591" r="1.19812" fill="#FFD976"/>
<circle cx="24.691" cy="28.6591" r="1.19812" fill="#FFD976"/>
</svg>
