<svg width="43" height="42" viewBox="0 0 43 42" fill="none" xmlns="http://www.w3.org/2000/svg">
<path fill-rule="evenodd" clip-rule="evenodd" d="M24.8753 5.67969C21.661 6.24563 21.1253 8.50923 21.1253 8.50923V14.4014C22.3729 14.4013 23.5303 14.1819 24.5119 13.8077C25.104 11.9064 27.0182 9.07532 27.0182 9.07532C25.411 7.94344 24.8753 5.67969 24.8753 5.67969ZM24.3557 14.9203C23.3735 15.2301 22.2768 15.4014 21.1253 15.4014V39.6797C23.6045 39.6797 24.1722 39.3168 24.8132 38.9071C25.1777 38.6741 25.5659 38.4259 26.3427 38.2208C27.4385 37.9314 28.0105 38.0119 28.5227 38.0841C29.0122 38.1531 29.4472 38.2143 30.2325 37.9378C31.1172 37.6262 31.5149 37.2576 31.8724 36.9263C32.1643 36.6557 32.4294 36.41 32.911 36.2404C33.9825 35.8631 36.1253 35.6741 36.1253 35.6741C36.1252 31.9307 33.8753 26.6194 31.3039 23.2238C30.2779 21.869 28.9621 20.5142 27.7509 19.2673L27.7509 19.2673C26.0333 17.4989 24.5264 15.9474 24.3557 14.9203ZM21.1252 14.4014V8.50923C21.1252 8.50923 20.5896 6.24563 17.3753 5.67969C17.3753 5.67969 16.8396 7.94344 15.2324 9.07532C15.2324 9.07532 17.1467 11.9065 17.7387 13.8078C18.7203 14.1819 19.8777 14.4014 21.1252 14.4014C21.1252 14.4014 21.1252 14.4014 21.1252 14.4014ZM17.8949 14.9204C18.877 15.2302 19.9738 15.4014 21.1252 15.4014C21.1252 15.4014 21.1252 15.4014 21.1252 15.4014V39.6797C18.6461 39.6797 18.0784 39.3168 17.4374 38.9071C17.0729 38.6741 16.6847 38.4259 15.9079 38.2208C14.8121 37.9314 14.2401 38.0119 13.7278 38.0841C13.2384 38.1531 12.8034 38.2143 12.0181 37.9378C11.1334 37.6262 10.7357 37.2576 10.3782 36.9263L10.3782 36.9263C10.0862 36.6557 9.82113 36.41 9.33954 36.2404C8.26811 35.8631 6.12524 35.6741 6.12524 35.6741C6.1254 31.9307 8.37525 26.6194 10.9467 23.2238C11.9726 21.869 13.2885 20.5142 14.4997 19.2673L14.4997 19.2673C16.2172 17.4989 17.7242 15.9475 17.8949 14.9204Z" fill="#4122FF"/>
<path d="M24.4007 2.84189C24.488 2.57991 24.7711 2.43833 25.0331 2.52566C25.2951 2.61298 25.4367 2.89614 25.3493 3.15811L24.4007 2.84189ZM24.875 3C25.3493 3.15811 25.3494 3.15805 25.3494 3.15799C25.3494 3.15798 25.3494 3.15793 25.3494 3.15791C25.3494 3.15786 25.3494 3.15784 25.3494 3.15785C25.3494 3.15786 25.3494 3.15796 25.3493 3.15816C25.3492 3.15856 25.3489 3.15935 25.3486 3.16051C25.3478 3.16283 25.3465 3.16666 25.3448 3.17194C25.3414 3.18251 25.3362 3.19891 25.3294 3.22073C25.3158 3.26439 25.296 3.32971 25.2721 3.41359C25.2241 3.5815 25.1597 3.82286 25.0952 4.11293C24.9655 4.69681 24.8393 5.46112 24.8393 6.21429H23.8393C23.8393 5.36032 23.9809 4.51749 24.119 3.896C24.1885 3.58339 24.2581 3.32252 24.3105 3.13887C24.3368 3.04696 24.3588 2.97417 24.3746 2.92366C24.3824 2.8984 24.3887 2.8787 24.3931 2.86494C24.3953 2.85806 24.3971 2.85267 24.3984 2.84881C24.399 2.84688 24.3995 2.84533 24.3999 2.84418C24.4001 2.8436 24.4002 2.84312 24.4004 2.84274C24.4004 2.84255 24.4005 2.84238 24.4005 2.84224C24.4006 2.84217 24.4006 2.84208 24.4006 2.84204C24.4006 2.84196 24.4007 2.84189 24.875 3Z" fill="#4122FF"/>
<path d="M17.8493 2.84189C17.762 2.57991 17.4789 2.43833 17.2169 2.52566C16.9549 2.61298 16.8133 2.89614 16.9007 3.15811L17.8493 2.84189ZM17.375 3C16.9007 3.15811 16.9006 3.15805 16.9006 3.15799C16.9006 3.15798 16.9006 3.15793 16.9006 3.15791C16.9006 3.15786 16.9006 3.15784 16.9006 3.15785C16.9006 3.15786 16.9006 3.15796 16.9007 3.15816C16.9008 3.15856 16.9011 3.15935 16.9014 3.16051C16.9022 3.16283 16.9035 3.16666 16.9052 3.17194C16.9086 3.18251 16.9138 3.19891 16.9206 3.22073C16.9342 3.26439 16.954 3.32971 16.9779 3.41359C17.0259 3.5815 17.0903 3.82286 17.1548 4.11293C17.2845 4.69681 17.4107 5.46112 17.4107 6.21429H18.4107C18.4107 5.36032 18.2691 4.51749 18.131 3.896C18.0615 3.58339 17.9919 3.32252 17.9395 3.13887C17.9132 3.04696 17.8912 2.97417 17.8754 2.92366C17.8676 2.8984 17.8613 2.8787 17.8569 2.86494C17.8547 2.85806 17.8529 2.85267 17.8516 2.84881C17.851 2.84688 17.8505 2.84533 17.8501 2.84418C17.8499 2.8436 17.8498 2.84312 17.8496 2.84274C17.8496 2.84255 17.8495 2.84238 17.8495 2.84224C17.8494 2.84217 17.8494 2.84208 17.8494 2.84204C17.8494 2.84196 17.8493 2.84189 17.375 3Z" fill="#4122FF"/>
</svg>
