<svg width="42" height="42" viewBox="0 0 42 42" fill="none" xmlns="http://www.w3.org/2000/svg">
<path fill-rule="evenodd" clip-rule="evenodd" d="M9.82352 8.93339C10.9787 5.48493 14.2356 3 18.0729 3C19.6278 3 21.0875 3.40804 22.3506 4.12288C22.5801 4.10359 22.8124 4.09375 23.0469 4.09375C27.289 4.09375 30.779 7.31378 31.2061 11.443C31.2885 11.563 31.3639 11.6669 31.4393 11.7708C31.687 12.1122 31.9347 12.4535 32.43 13.3658C32.933 14.2918 32.7977 15.1012 32.6722 15.8527C32.5504 16.5818 32.4376 17.2564 32.9255 17.9302C33.2908 18.4347 33.5321 18.5664 33.7878 18.706C34.0762 18.8635 34.383 19.031 34.907 19.7547C35.8956 21.1201 35.4021 22.4915 34.907 23.8599C34.658 24.5483 34.9067 24.7184 35.314 24.9971C35.631 25.2141 36.0441 25.4967 36.3936 26.1406C36.8888 27.0528 36.6394 27.9681 35.8978 29.3335C35.8322 29.4544 35.7667 29.5671 35.7047 29.6738C35.2948 30.3794 35.0376 30.8221 35.8978 31.6141C36.8882 32.5259 36.8891 34.8071 36.3936 35.7193C35.4026 37.5439 34.4119 38 32.43 38C30.4482 38 28.8837 36.7302 27.9688 35.7193C25.6866 33.1982 17.8631 33.7711 16.6445 33.8771C14.3003 34.2698 12.2215 34.7462 11.5625 35.2656C9.80066 36.6544 7.59945 37.0536 6.15938 36.1075C5.5942 35.7362 4.87944 33.7412 5.19922 32.7964C5.41702 32.1528 5.65208 31.7822 5.83077 31.5005C6.18075 30.9486 6.3145 30.7378 5.67879 29.4852C5.19857 28.539 4.71864 27.5931 5.19919 26.174C5.40982 25.552 5.71239 25.2026 5.98583 24.8869C6.33622 24.4823 6.63879 24.1329 6.63879 23.3359C6.63879 22.7006 6.35019 22.255 6.07446 21.8291C5.73421 21.3037 5.41355 20.8085 5.67879 20.0247C5.90064 19.3691 6.22492 19.1173 6.50964 18.8963C6.84124 18.6388 7.11919 18.4231 7.11919 17.6596C7.11919 17.0678 6.96886 16.7228 6.82143 16.3844C6.61533 15.9114 6.41489 15.4514 6.63879 14.3484C6.82114 13.45 7.26339 12.978 7.7804 12.4263C8.35227 11.816 9.01561 11.1081 9.51986 9.61756C9.60619 9.36236 9.70824 9.13522 9.82352 8.93339Z" fill="#463837"/>
<path fill-rule="evenodd" clip-rule="evenodd" d="M17.3077 26.1543C17.3077 26.1543 17.3077 30.6343 16.2308 31.7543C15.3515 32.6688 14.8311 32.8366 13.7905 33.1722C13.5566 33.2476 13.2964 33.3315 13 33.4343C12.7376 33.5253 12.4325 33.6064 12.0964 33.6958C11.1239 33.9545 9.89285 34.2819 8.69231 35.1143C7.07692 36.2343 6 37.9143 6 40.1543H19.9999H20H33.9999C33.9999 37.9143 32.923 36.2343 31.3076 35.1143C30.107 34.2819 28.876 33.9545 27.9035 33.6958C27.5674 33.6064 27.2623 33.5253 26.9999 33.4343C26.7035 33.3315 26.4433 33.2476 26.2094 33.1722C25.1687 32.8366 24.6484 32.6688 23.7691 31.7543C22.6922 30.6343 22.6922 26.1543 22.6922 26.1543H20H19.9999H17.3077Z" fill="#F2C7B5"/>
<ellipse cx="20.2031" cy="17.1759" rx="8.20312" ry="10.2618" fill="#FCD4C3"/>
<path d="M23.6994 10.8273C23.6994 10.8273 22.7241 12.9827 20.7669 13.7656C18.3203 14.7443 17.3417 13.7656 15.3845 14.7443C13.4272 15.7229 11.9593 16.7015 10.9807 20.616C10.9807 20.616 7.06311 7.89307 18.9975 6.58601C32.018 5.16001 29.0804 18.6554 29.0804 18.6554C28.5911 16.1545 28.1065 16.2122 26.6386 14.7443C25.1707 13.2763 24.192 12.787 23.6994 10.8273Z" fill="#463837"/>
</svg>
