<svg width="43" height="42" viewBox="0 0 43 42" fill="none" xmlns="http://www.w3.org/2000/svg">
<path fill-rule="evenodd" clip-rule="evenodd" d="M23.1312 41.5298L21.8959 36.5886L20.6606 41.5298H15.6467L16.9547 30.4121H26.837L28.145 41.5298H23.1312Z" fill="#00C1EC"/>
<circle cx="21.896" cy="6.94118" r="4.94118" fill="#346BF7"/>
<path d="M20.0154 13.6172H23.7765C25.8077 13.6172 27.4123 15.3405 27.2676 17.3666L26.3716 29.9113H17.4203L16.5243 17.3666C16.3796 15.3405 17.9842 13.6172 20.0154 13.6172Z" fill="#3461D6"/>
<path d="M20.0154 13.6172H23.7765C25.8077 13.6172 27.4123 15.3405 27.2676 17.3666L26.3716 29.9113H17.4203L16.5243 17.3666C16.3796 15.3405 17.9842 13.6172 20.0154 13.6172Z" fill="#241B8F"/>
<path d="M20.0154 13.6172H23.7765C25.8077 13.6172 27.4123 15.3405 27.2676 17.3666L26.3716 29.9113H17.4203L16.5243 17.3666C16.3796 15.3405 17.9842 13.6172 20.0154 13.6172Z" stroke="#3461D6"/>
<path d="M20.0154 13.6172H23.7765C25.8077 13.6172 27.4123 15.3405 27.2676 17.3666L26.3716 29.9113H17.4203L16.5243 17.3666C16.3796 15.3405 17.9842 13.6172 20.0154 13.6172Z" stroke="#241B8F"/>
<path d="M13.3784 18.0586V36.588" stroke="#346BF7" stroke-width="3" stroke-linecap="round" stroke-linejoin="round"/>
<path d="M30.1606 18.0586V36.588" stroke="#346BF7" stroke-width="3" stroke-linecap="round" stroke-linejoin="round"/>
<path d="M15.7783 13.6172H27.7783C29.7113 13.6172 31.2783 15.1842 31.2783 17.1172V18.6172H12.2783V17.1172C12.2783 15.1842 13.8453 13.6172 15.7783 13.6172Z" fill="#3461D6"/>
<path d="M15.7783 13.6172H27.7783C29.7113 13.6172 31.2783 15.1842 31.2783 17.1172V18.6172H12.2783V17.1172C12.2783 15.1842 13.8453 13.6172 15.7783 13.6172Z" fill="#241B8F"/>
<path d="M15.7783 13.6172H27.7783C29.7113 13.6172 31.2783 15.1842 31.2783 17.1172V18.6172H12.2783V17.1172C12.2783 15.1842 13.8453 13.6172 15.7783 13.6172Z" stroke="#3461D6"/>
<path d="M15.7783 13.6172H27.7783C29.7113 13.6172 31.2783 15.1842 31.2783 17.1172V18.6172H12.2783V17.1172C12.2783 15.1842 13.8453 13.6172 15.7783 13.6172Z" stroke="#241B8F"/>
</svg>
