<svg width="42" height="42" viewBox="0 0 42 42" fill="none" xmlns="http://www.w3.org/2000/svg">
<path fill-rule="evenodd" clip-rule="evenodd" d="M17.9055 26.8323C17.9055 27.9752 17.5442 29.852 17.3429 30.2609C16.8711 31.2192 16.3993 31.3739 14.2689 32.0727C13.8587 32.2073 13.3869 32.362 12.8418 32.5466L8.93846 34.2609C8.18828 34.4514 7.0905 35.1574 6.68791 35.9752C6.48318 36.391 6.29915 36.6598 6.12639 36.912C5.72943 37.4917 5.39203 37.9844 5 39.9752H19.5934V39.9753H37C36.608 37.9845 36.2706 37.4918 35.8736 36.9122C35.7009 36.6599 35.5168 36.3912 35.3121 35.9753C34.9095 35.1575 33.8117 34.4515 33.0615 34.261L29.1582 32.5467C28.6131 32.3622 28.1413 32.2074 27.7311 32.0729C25.6007 31.3741 25.1289 31.2193 24.6571 30.261C24.4558 29.8521 24.0945 27.9753 24.0945 26.8325V25.6896H22.4066V25.6895H17.9055V26.8323Z" fill="#ECB590"/>
<path fill-rule="evenodd" clip-rule="evenodd" d="M13.2565 16.0731C13.0668 15.5593 12.6872 14.5317 11.5491 15.0455C10.8293 15.3705 10.4107 16.587 10.9799 17.6145C11.268 18.1343 12.1181 19.1558 12.1181 19.1558C12.1181 19.1558 12.2871 20.3359 12.6872 20.6972C13.0873 21.0584 13.8255 21.2109 13.8255 21.2109C13.856 21.4034 13.886 21.6219 13.9183 21.8562C14.0868 23.0812 14.3143 24.7349 14.9637 25.3212C15.0594 25.4076 15.2034 25.5521 15.3848 25.7343C16.2823 26.6351 18.0962 28.4558 19.5164 28.7123C19.6375 28.7341 19.7171 28.7592 19.7962 28.7842C19.9728 28.84 20.1474 28.8951 20.7764 28.9123V28.9177C20.8558 28.9177 20.9302 28.9173 21.0001 28.9165C21.0699 28.9173 21.1443 28.9177 21.2237 28.9177V28.9123C21.8528 28.8951 22.0274 28.84 22.2039 28.7842C22.2831 28.7592 22.3626 28.7341 22.4837 28.7123C23.9039 28.4558 25.7178 26.6351 26.6153 25.7343C26.7967 25.5521 26.9407 25.4076 27.0364 25.3212C27.6858 24.7349 27.9133 23.0812 28.0819 21.8562C28.1141 21.6219 28.1442 21.4033 28.1746 21.2109C28.1746 21.2109 28.9128 21.0584 29.3129 20.6972C29.7131 20.3359 29.882 19.1558 29.882 19.1558C29.882 19.1558 30.7322 18.1343 31.0202 17.6145C31.5895 16.587 31.1709 15.3705 30.451 15.0455C29.3129 14.5317 28.9334 15.5593 28.7437 16.0731C28.9334 14.3605 28.9713 10.6269 27.6055 9.3938C26.2966 8.21207 22.7924 8.5089 21.0001 8.83716C19.2077 8.5089 15.7036 8.21207 14.3946 9.3938C13.0288 10.6269 13.0668 14.3605 13.2565 16.0731Z" fill="#F4C3A3"/>
<path fill-rule="evenodd" clip-rule="evenodd" d="M12.4286 14.8614C11.8572 11.4329 12.3454 9.31421 12.8584 8.69139C13.0737 8.42995 13.1951 8.17358 13.3221 7.90554C13.4975 7.53502 13.6835 7.1422 14.1428 6.68286C14.3502 6.47547 14.4101 6.35498 14.4802 6.21381C14.5794 6.01416 14.6992 5.77317 15.2857 5.18659C15.6863 4.78605 17 3.8267 18.1429 3.25439C19.0616 2.79433 21.2416 3.07385 22.2348 3.2012C22.4772 3.23227 22.6489 3.25429 22.7143 3.25429C22.7143 3.25429 23.9279 3.32512 24.4286 3.82571C24.6434 4.04047 24.9142 4.15122 25.2308 4.28069C25.6522 4.45301 26.1548 4.65851 26.7143 5.18659C27.3007 5.74006 27.6199 6.19238 27.889 6.5737C28.0696 6.82956 28.2276 7.05345 28.4286 7.25446C28.4778 7.30369 28.5243 7.34876 28.5686 7.39164C28.9744 7.78482 29.1904 7.99413 29.5714 9.54C29.994 11.2545 29.8813 14.8614 29.8813 14.8614C29.2774 15.253 28.9526 16.4549 28.7005 17.3875C28.5848 17.8158 28.4843 18.1874 28.3793 18.3975C28.3793 18.0789 28.3905 17.5311 28.4022 16.9583C28.415 16.3308 28.4285 15.6734 28.4285 15.2547V15.2541C28.4285 14.4534 28.4285 14.1113 27.8572 12.9687C27.6039 12.462 26.5728 11.8258 25.5715 11.8258C25.2818 11.8258 25.0595 11.8149 24.8778 11.7994L24.8744 11.803L24.186 12.1032V11.7131C24.1259 11.7065 24.0649 11.7012 23.9996 11.6982L23.8731 12.1032L22.8717 12.3036L22.6831 12.0395C22.5868 12.0646 22.4832 12.0884 22.371 12.1093V12.3036H21.3697L21.2134 12.1942C21.0618 12.1907 20.9154 12.1822 20.7735 12.1699L20.869 12.3036L19.367 12.1032L19.0692 11.865C18.9317 11.8346 18.7973 11.8059 18.665 11.7812L18.8663 12.1032H17.865L17.6134 11.7008C17.5329 11.7042 17.4496 11.7093 17.3643 11.7163V12.1032C17.3643 12.1032 17.0294 11.9915 16.6231 11.8209C15.8304 11.9836 15.0357 12.3259 14.7143 12.9687C14.2136 13.9699 13.8597 14.8247 13.8597 15.8261V18.3975C13.8597 18.3975 13.5715 16.0043 12.4286 14.8614Z" fill="#463837"/>
</svg>
