<svg width="42" height="42" viewBox="0 0 42 42" fill="none" xmlns="http://www.w3.org/2000/svg">
<mask id="mask0_6230_69866" style="mask-type:alpha" maskUnits="userSpaceOnUse" x="2" y="2" width="38" height="38">
<path d="M21.0001 2.4707C16.0858 2.4707 11.3728 4.4229 7.89784 7.89784C4.4229 11.3728 2.4707 16.0858 2.4707 21.0001V33.3531C2.4707 34.9912 3.12144 36.5622 4.27975 37.7205C5.43806 38.8788 7.00907 39.5295 8.64718 39.5295H11.4925C12.2573 39.5295 13.007 39.3165 13.6576 38.9143C14.3081 38.5121 14.8338 37.9367 15.1757 37.2525L15.536 36.5319C14.8701 36.067 14.2472 35.5433 13.6748 34.9672C11.4122 32.6901 9.67659 29.3466 9.67659 25.1178C9.67659 23.6045 9.93188 22.0995 10.3951 20.6769C10.601 20.0448 11.1713 19.9707 11.7354 19.9707C15.2148 19.9707 18.2928 18.2434 20.1581 15.5957C20.2531 15.4606 20.3791 15.3504 20.5257 15.2743C20.6723 15.1982 20.835 15.1584 21.0001 15.1584C21.1653 15.1584 21.328 15.1982 21.4745 15.2743C21.6211 15.3504 21.7472 15.4606 21.8422 15.5957C22.7912 16.9481 24.0522 18.0519 25.5184 18.8134C26.9845 19.575 28.6127 19.972 30.2648 19.9707C30.8289 19.9707 31.4013 20.0448 31.6051 20.6769C32.0756 22.1104 32.3181 23.609 32.3237 25.1178C32.3237 29.3487 30.5881 32.6901 28.3254 34.9672C27.7386 35.5581 27.1107 36.081 26.4642 36.5319L26.8245 37.2525C27.1664 37.9367 27.6921 38.5121 28.3427 38.9143C28.9932 39.3165 29.7429 39.5295 30.5078 39.5295H33.3531C34.9912 39.5295 36.5622 38.8788 37.7205 37.7205C38.8788 36.5622 39.5295 34.9912 39.5295 33.3531V21.0001C39.5295 16.0858 37.5773 11.3728 34.1024 7.89784C30.6275 4.4229 25.9144 2.4707 21.0001 2.4707Z" fill="black"/>
</mask>
<g mask="url(#mask0_6230_69866)">
<rect y="2" width="41" height="38" fill="black"/>
<path d="M20.7246 10.5C20.0487 12.5 17.5 18 10.0796 18.5" stroke="white" stroke-width="0.8"/>
<path d="M21 6C19.855 5.99994 9.5 7 7.5 16.5" stroke="white" stroke-width="0.8"/>
<path d="M21 8C13 8.5 13 14 9 16.5" stroke="white" stroke-width="0.8"/>
<path d="M19 9.5C18.3241 11.5 14 17 8 17.5" stroke="white" stroke-width="0.8"/>
<path d="M21.2317 4.5C10.5865 4.5 2.38419e-07 11.5 5.01069 39" stroke="white" stroke-width="0.8"/>
<path d="M7.99977 17.5C7.99977 17.5 3 24 8.49996 40.5" stroke="white" stroke-width="0.8"/>
<path d="M10.0796 18.5C6.5 24 9.06577 32.5 10.5866 40" stroke="white" stroke-width="0.8"/>
<path d="M11.7236 29.0746C11.4843 29.8841 11.9438 35.6459 13.8154 38.8838" stroke="white" stroke-width="0.8"/>
<path d="M21.007 10.5C21.6828 12.5 24.2313 18 31.6509 18.5" stroke="white" stroke-width="0.8"/>
<path d="M20.7317 6C21.8766 5.99994 32.2304 7 34.2302 16.5" stroke="white" stroke-width="0.8"/>
<path d="M20.7315 8C28.7307 8.5 28.7307 14 32.7302 16.5" stroke="white" stroke-width="0.8"/>
<path d="M22.7314 9.5C23.4072 11.5 27.7309 17 33.7302 17.5" stroke="white" stroke-width="0.8"/>
<path d="M20.5 4.5C31.1439 4.5 41.7293 11.5 36.7192 39" stroke="white" stroke-width="0.8"/>
<path d="M33.7304 17.5C33.7304 17.5 38.7297 24 33.2303 40.5" stroke="white" stroke-width="0.8"/>
<path d="M31.6508 18.5C35.23 24 32.6645 32.5 31.1439 40" stroke="white" stroke-width="0.8"/>
<path d="M30.0072 29.0746C30.2464 29.8841 29.787 35.6459 27.9156 38.8838" stroke="white" stroke-width="0.8"/>
</g>
</svg>
