<svg width="42" height="42" viewBox="0 0 42 42" fill="none" xmlns="http://www.w3.org/2000/svg">
<path fill-rule="evenodd" clip-rule="evenodd" d="M28.957 19.126C29.7606 17.5797 30.2169 15.8082 30.2169 13.9255C30.2169 7.89152 25.5292 3 19.7466 3C13.9641 3 9.27637 7.89152 9.27637 13.9255C9.27637 19.9595 13.9641 24.851 19.7466 24.851C21.2468 24.851 22.6732 24.5218 23.9632 23.9289C24.0405 24.1022 24.0893 24.307 24.0893 24.5565C24.0892 27.3116 27.323 26.1732 27.323 26.1732C26.4281 27.0916 26.3054 27.4105 26.7839 28.3289C27.2624 29.2472 29.0124 29.272 29.9073 29.272C29.4598 29.7311 28.5835 31.1829 29.4784 32.1013C30.3733 33.0196 31.2496 32.4641 31.2496 32.4641C30.6218 33.3825 30.3547 36.0331 31.6971 36.9515C33.0394 37.8698 36.4845 37.4904 36.4845 37.4904C36.4845 37.4904 34.3287 36.3452 34.3287 35.3347C34.3287 33.6866 33.7777 33.4281 33.0416 33.0828C32.9353 33.0329 32.8251 32.9813 32.7121 32.9233L32.7317 32.9032C33.1699 32.4538 33.5137 32.1013 33.2511 31.0234C33.1038 30.419 32.68 30.2052 31.9217 29.8228C31.8499 29.7866 31.775 29.7488 31.6971 29.7091C31.7535 29.5933 31.8099 29.4822 31.8645 29.3747C32.2431 28.6293 32.5356 28.0536 32.1445 27.251C31.7056 26.3503 31.1476 26.1161 30.506 25.847C30.3136 25.7663 30.1137 25.6824 29.9073 25.5765C30.0427 25.3913 30.219 25.2522 30.3992 25.1101C30.8144 24.7826 31.2496 24.4393 31.2496 23.4786C31.2496 22.1011 29.9073 21.8615 28.9397 21.8615C28.9397 21.8615 30.6581 20.2582 28.957 19.126Z" fill="#463837"/>
<path fill-rule="evenodd" clip-rule="evenodd" d="M17.3077 26.1543C17.3077 26.1543 17.3077 30.6343 16.2308 31.7543C15.3515 32.6688 14.8311 32.8366 13.7905 33.1722C13.5566 33.2476 13.2964 33.3315 13 33.4343C12.7376 33.5253 12.4325 33.6064 12.0964 33.6958C11.1239 33.9545 9.89285 34.2819 8.69231 35.1143C7.07692 36.2343 6 37.9143 6 40.1543H19.9999H20H33.9999C33.9999 37.9143 32.923 36.2343 31.3076 35.1143C30.107 34.2819 28.876 33.9545 27.9035 33.6958C27.5674 33.6064 27.2623 33.5253 26.9999 33.4343C26.7035 33.3315 26.4433 33.2476 26.2094 33.1722C25.1687 32.8366 24.6484 32.6688 23.7691 31.7543C22.6922 30.6343 22.6922 26.1543 22.6922 26.1543H20H19.9999H17.3077Z" fill="#F2C7B5"/>
<ellipse cx="19.7775" cy="17.6114" rx="8.0837" ry="10.1114" fill="#FCD4C3"/>
<path d="M23.3855 10.2824C23.3855 10.2824 22.4781 12.2877 20.6572 13.016C18.381 13.9265 17.4706 13.016 15.6496 13.9265C13.8287 14.837 12.463 15.7474 11.5526 19.3893C11.5526 19.3893 7.90784 7.5525 19.011 6.33647C31.1247 5.00979 28.3917 17.5653 28.3917 17.5653C27.9365 15.2385 27.4856 15.2922 26.1199 13.9265C24.7542 12.5608 23.8438 12.1056 23.3855 10.2824Z" fill="#463837"/>
</svg>
