<svg width="43" height="43" viewBox="0 0 43 43" fill="none" xmlns="http://www.w3.org/2000/svg">
<path d="M15.1592 5L20.881 7.66667L26.6029 5V6.33333L20.881 9L15.1592 6.33333V5Z" fill="#BFBFBF"/>
<path d="M12.1958 4.20233L15.8742 2.34619C15.8742 3.37738 15.8742 4.20233 16.4872 7.29588C17.1003 10.3894 19.5184 18.1942 21.3576 25L20.404 34L19.4503 41C18.8373 41.6187 10.3567 41 8.96027 40.5C8.96027 40.5 10.3567 20.5 10.3567 17.1953L8.5175 37.6127H3C3.20435 32.8693 3.61306 25.2385 4.22611 20.9075C4.75348 17.1819 5.04352 12.0393 6.06528 9.77073C6.41241 9 7.54044 7.66324 8.5175 6.67717C9.49456 5.6911 10.9697 4.82104 12.1958 4.20233Z" fill="#434444"/>
<path d="M12.2815 3.81499L15.9604 2.23139L18.9026 20.2537L15.9604 10.4702L12.7718 6.97058L12.2815 3.81499Z" fill="#2F2F2F"/>
<path d="M13.4662 12.0365L16.5892 8.5L21.3574 25.0001L13.4662 12.0365Z" fill="#2F2F2F"/>
<path d="M12.8042 31.6782H17.6369L17.6436 32.0515C17.6486 32.3276 17.4287 32.5514 17.1526 32.5514H13.2202C12.9993 32.5514 12.8171 32.3725 12.813 32.1517L12.8042 31.6782Z" fill="#2F2F2F"/>
<path d="M29.8042 4.20233L26.1258 2.34619C26.1258 3.37738 26.1258 4.20233 25.5128 7.29588C24.8997 10.3894 22.4816 18.1942 20.6424 25L21.596 34L22.5497 41C23.1627 41.6187 31.6433 41 33.0397 40.5C33.0397 40.5 31.6433 20.5 31.6433 17.1953L33.4825 37.6127H39C38.7956 32.8693 38.3869 25.2385 37.7739 20.9075C37.2465 17.1819 36.9565 12.0393 35.9347 9.77073C35.5876 9 34.4596 7.66324 33.4825 6.67717C32.5054 5.6911 31.0303 4.82104 29.8042 4.20233Z" fill="#434444"/>
<path d="M29.7185 3.81499L26.0396 2.23139L23.0974 20.2537L26.0396 10.4702L29.2282 6.97058L29.7185 3.81499Z" fill="#2F2F2F"/>
<path d="M28.5338 12.0365L25.4108 8.5L20.6426 25.0001L28.5338 12.0365Z" fill="#2F2F2F"/>
<path d="M29.1958 31.6782H24.3631L24.3564 32.0515C24.3514 32.3276 24.5713 32.5514 24.8474 32.5514H28.7798C29.0007 32.5514 29.1829 32.3725 29.187 32.1517L29.1958 31.6782Z" fill="#2F2F2F"/>
</svg>
