<svg width="43" height="42" viewBox="0 0 43 42" fill="none" xmlns="http://www.w3.org/2000/svg">
<path fill-rule="evenodd" clip-rule="evenodd" d="M20.8751 12.5432L23.6877 12.543C23.6877 12.543 26.4325 16.1166 27.5386 17.0461C27.8454 17.3038 28.2271 17.5353 28.6658 17.8013C29.809 18.4945 31.339 19.4223 32.9377 21.6614C34.9809 24.5228 36.6251 29.0971 36.6253 32.8149C36.6254 36.5328 34.1124 37.2278 31.2053 36.1036C30.4678 37.5495 28.4585 38.914 25.5633 37.4526C24.8258 38.6919 23.3879 40.0382 20.8751 37.7899V37.79C18.3623 40.0384 16.9244 38.6921 16.187 37.4528C13.2918 38.9142 11.2824 37.5496 10.545 36.1038C7.63785 37.228 5.12482 36.533 5.125 32.8151C5.12518 29.0973 6.76937 24.5229 8.81251 21.6615C10.4113 19.4225 11.9413 18.4947 13.0845 17.8015C13.5231 17.5355 13.9048 17.304 14.2116 17.0463C15.3178 16.1168 18.0626 12.5431 18.0626 12.5431L20.8751 12.5434V12.5432Z" fill="#BBE3FC"/>
<path fill-rule="evenodd" clip-rule="evenodd" d="M5.74879 28.7773C5.44542 30.5563 6.0439 31.947 7.1315 32.6258C8.07225 33.2129 9.27811 33.2005 10.3352 32.5544C11.0101 33.5575 11.8838 34.2216 12.8772 34.4617C13.8788 34.7038 14.9312 34.4974 15.9212 33.8803C16.3613 34.4421 17.017 34.9846 17.8515 35.2141C18.7661 35.4656 19.8156 35.3201 20.919 34.5537C22.0224 35.3201 23.0719 35.4656 23.9864 35.2141C24.821 34.9846 25.4766 34.4421 25.9168 33.8803C26.9068 34.4974 27.9591 34.7038 28.9608 34.4617C29.9541 34.2216 30.8278 33.5575 31.5027 32.5544C32.5598 33.2005 33.7657 33.2129 34.7064 32.6258C35.794 31.947 36.3925 30.5563 36.0892 28.7773L35.1034 28.9455C35.3552 30.4222 34.8433 31.3616 34.177 31.7774C33.5056 32.1964 32.5419 32.1738 31.6775 31.4516C31.5631 31.3561 31.4121 31.3165 31.2655 31.3437C31.119 31.371 30.9923 31.4622 30.9199 31.5924C30.3126 32.6852 29.5303 33.2953 28.7259 33.4897C27.927 33.6828 27.0142 33.4883 26.0906 32.7862C25.9768 32.6998 25.8314 32.6661 25.6912 32.6938C25.5509 32.7215 25.4293 32.8078 25.3569 32.9311C25.0383 33.4735 24.456 34.0478 23.7213 34.2499C23.0244 34.4415 22.082 34.3276 20.9412 33.2935L20.919 33.318L20.8967 33.2935C19.7559 34.3276 18.8136 34.4415 18.1167 34.2499C17.3819 34.0478 16.7996 33.4735 16.4811 32.9311C16.4087 32.8078 16.287 32.7215 16.1468 32.6938C16.0065 32.6661 15.8612 32.6998 15.7474 32.7862C14.8237 33.4883 13.9109 33.6828 13.1121 33.4897C12.3076 33.2953 11.5254 32.6852 10.9181 31.5924C10.8457 31.4622 10.7189 31.371 10.5724 31.3437C10.4259 31.3165 10.2748 31.3561 10.1605 31.4516C9.29603 32.1738 8.3323 32.1964 7.66095 31.7774C6.99469 31.3616 6.48272 30.4222 6.73456 28.9455L5.74879 28.7773Z" fill="#40ACE9"/>
<path fill-rule="evenodd" clip-rule="evenodd" d="M13.0001 4.84888C12.5693 6.16099 13.0001 8.05056 13.0001 8.05056L14.6875 9.11779C14.6875 9.11779 16.1646 9.31878 16.9979 8.523C17.1636 8.36474 18.2902 11.2522 18.2903 12.8531C18.2904 14.4539 17.5001 15.5211 17.5001 15.5211L16.9376 16.0548H20.6837H20.8751H24.6212L24.0587 15.5211C24.0587 15.5211 23.2684 14.4539 23.2685 12.8531C23.2686 11.2522 24.3952 8.36474 24.5609 8.523C25.3942 9.31878 26.8712 9.11779 26.8712 9.11779L28.5587 8.05056C28.5587 8.05056 28.9895 6.16099 28.5587 4.84888C27.9368 2.95452 25.7462 2.71417 24.0587 3.24724C24.0587 5.29639 22.4048 5.90279 20.8751 5.90193V5.89868C20.8433 5.89974 20.8114 5.90054 20.7794 5.90108C20.7474 5.90054 20.7155 5.89974 20.6837 5.89868V5.90193C19.154 5.90279 17.5001 5.29639 17.5001 3.24724C15.8126 2.71417 13.622 2.95452 13.0001 4.84888Z" fill="#3AA2ED"/>
<path fill-rule="evenodd" clip-rule="evenodd" d="M18.7517 12.1324C15.6762 11.5818 9.32014 13.0133 8.5 23.1442C10.7212 23.5112 15.8812 23.3644 18.7517 19.8406C21.6222 16.3168 20.9729 14.3347 20.2895 13.7841L18.7517 12.1324ZM22.9985 12.1324C26.074 11.5818 32.4301 13.0133 33.2502 23.1442C31.029 23.5112 25.869 23.3644 22.9985 19.8406C20.128 16.3168 20.7773 14.3347 21.4607 13.7841L22.9985 12.1324Z" fill="#6FCBFF"/>
</svg>
