<svg width="24" height="24" viewBox="0 0 24 24" fill="none" xmlns="http://www.w3.org/2000/svg">
<path d="M18.4494 16.8826C17.8988 19.8313 15.649 22.8228 12 22.8228C8.35102 22.8228 6.11285 19.4894 5.58344 16.7116C5.05402 13.9339 5 12.0963 5 12.0963C7.40256 11.8028 11.6573 10.1644 13.0437 7.82275C13.0437 7.82275 15.8958 11.037 19 12.0963C19 12.0963 19 13.9339 18.4494 16.8826Z" stroke="#ff6600" stroke-linejoin="round"/>
<path d="M6.63236 18.8228C6.63236 18.8228 3.21893 18.4154 2.29336 14.3228C1.61767 11.335 1.90002 5.52036 5.32312 2.65892C8.67706 -0.14471 13.8231 1.89149 13.8231 1.89149C15.8231 1.39908 18.1831 2.56332 19.306 3.82275C20.306 4.94429 21.5271 6.71304 21.807 9.32275C22.0633 11.713 22.3102 14.3228 20.8364 15.8228C19.6368 17.0438 18.335 17.9154 18.335 17.9154" stroke="#ff6600"/>
</svg>
