<svg width="42" height="42" viewBox="0 0 42 42" fill="none" xmlns="http://www.w3.org/2000/svg">
<path fill-rule="evenodd" clip-rule="evenodd" d="M17.9055 26.1331C17.9055 27.2759 17.5442 29.1528 17.3429 29.5617C16.8711 30.52 16.3993 30.6747 14.2689 31.3735C13.8587 31.5081 13.3869 31.6628 12.8418 31.8474L8.93846 33.5617C8.18828 33.7521 7.0905 34.4582 6.68791 35.2759C6.48318 35.6918 6.29915 35.9605 6.12639 36.2128C5.72943 36.7925 5.39203 37.2852 5 39.2759H19.5934H22.4066H37C36.608 37.2852 36.2706 36.7925 35.8736 36.2128C35.7009 35.9605 35.5168 35.6918 35.3121 35.2759C34.9095 34.4582 33.8117 33.7521 33.0615 33.5617L29.1582 31.8474C28.6131 31.6628 28.1413 31.5081 27.731 31.3735C25.6007 30.6747 25.1289 30.52 24.6571 29.5617C24.4558 29.1528 24.0945 27.2759 24.0945 26.1331V24.9902H22.4066H19.5934H17.9055V26.1331Z" fill="#ECB590"/>
<path fill-rule="evenodd" clip-rule="evenodd" d="M13.2562 15.3758C13.0665 14.8621 12.687 13.8345 11.5489 14.3483C10.829 14.6732 10.4104 15.8897 10.9797 16.9172C11.2677 17.4371 12.1179 18.4586 12.1179 18.4586C12.1179 18.4586 12.2868 19.6387 12.687 19.9999C13.0871 20.3612 13.8253 20.5136 13.8253 20.5136C13.8557 20.7061 13.8858 20.9247 13.918 21.1589C14.0866 22.384 14.314 24.0376 14.9635 24.6239C15.0592 24.7103 15.2032 24.8549 15.3846 25.037C16.2821 25.9379 18.096 27.7586 19.5161 28.015C19.6373 28.0369 19.7168 28.062 19.796 28.087C19.9725 28.1427 20.1471 28.1978 20.7762 28.215V28.2204C20.8556 28.2204 20.93 28.22 20.9998 28.2192C21.0697 28.22 21.1441 28.2204 21.2235 28.2204V28.215C21.8525 28.1978 22.0271 28.1427 22.2037 28.087C22.2828 28.062 22.3624 28.0369 22.4835 28.015C23.9037 27.7586 25.7176 25.9379 26.615 25.037C26.7965 24.8549 26.9405 24.7103 27.0362 24.6239C27.6856 24.0376 27.9131 22.3839 28.0816 21.1589C28.1139 20.9247 28.1439 20.7061 28.1744 20.5136C28.1744 20.5136 28.9126 20.3612 29.3127 19.9999C29.7128 19.6387 29.8818 18.4586 29.8818 18.4586C29.8818 18.4586 30.7319 17.4371 31.02 16.9172C31.5892 15.8897 31.1706 14.6732 30.4508 14.3483C29.3127 13.8345 28.9331 14.8621 28.7434 15.3758C28.9331 13.6632 28.9711 9.92963 27.6053 8.69654C26.2963 7.51481 22.7922 7.81164 20.9998 8.1399C19.2075 7.81164 15.7033 7.51481 14.3944 8.69654C13.0285 9.92963 13.0665 13.6632 13.2562 15.3758Z" fill="#F4C3A3"/>
<path d="M11.2322 6.55525C11.5195 5.82341 12.6848 4.97057 13.6557 5.02863C14.1689 5.05932 14.6312 5.00909 14.8888 4.77482C15.1464 4.54055 15.4428 3.88881 16.4286 3.69809C17.3849 3.51307 18.2708 3.88986 18.327 4.30928C18.4987 4.1531 18.8608 3.42535 19.7183 2.91155C20.4762 2.45737 21.516 2.8048 22.7144 3.12739C23.4218 3.31781 23.857 3.34171 24.4285 3.12653C24.9999 2.91135 25.1347 2.98952 25.5713 3.12743C26.008 3.26535 26.1427 4.27029 26.1427 4.27029C26.1427 4.27029 25.7691 3.37276 24.9999 3.69796C24.4787 3.91831 24.4285 4.30928 24.4285 4.30928C25.5713 3.73786 25.8571 5.02863 26.7143 5.02863C27.5714 5.02863 28.0399 5.41239 28.4286 5.98382C28.7675 6.48216 28.6499 6.84571 28.6201 7.34328C28.6201 7.34328 29 7.12668 29.7687 7.34328C30.5375 7.55989 31.2857 8.84096 31.2857 8.84096C30.3571 8.48382 30.3571 8.62668 30.3571 8.62668C30.9796 9.08003 31.1198 8.95384 31.6428 9.98382C32.1659 11.0138 31.3201 11.4936 31.2857 12.0692C31.2513 12.6449 31.9189 13.5148 31.6428 14.7624C31.3404 16.1293 30.1885 16.5038 29.7687 16.65C29.3489 16.7962 28.981 17.6016 28.981 17.6016C28.8918 19.0943 27.8613 20.0314 27.8613 20.0314C27.8613 20.0314 28.2873 18.2062 27.8613 17.182C27.8613 17.182 27.5387 16.5166 27.1848 16.3241C26.8309 16.1316 26.2492 15.5673 25.5715 15.6981C24.5335 15.8985 23.8572 16.2695 22.9643 15.5938C22.4968 15.24 22.1429 14.5552 22.1429 14.5552C22.1429 14.5552 21.1965 14.7624 22.1429 16.2695C22.1429 16.2695 21.1589 15.8444 20.5358 15.3615C19.9126 14.8787 19.7744 14.05 19.7183 13.6305C19.3649 14.1087 18.8686 15.3029 17.9048 15.4411C16.6763 15.6174 15.9822 15.4051 15.9822 15.4051C15.7144 15.8101 15.2858 16.2695 15.8393 17.3934C15.8393 17.3934 15.1856 17.2816 14.9726 16.7695C14.7596 16.2574 14.9726 15.5938 14.9726 15.5938C14.1429 16.841 13.8572 17.182 14.1429 20.2695C14.1429 20.2695 13 18.5552 13 16.5254C13 16.5254 12.8049 16.9622 12.3046 17.182C11.8043 17.4017 11.2322 17.0395 11.2322 17.0395C11.2322 17.0395 11.8572 16.7216 11.8572 16.2695C11.8572 15.9047 11.7973 15.7368 11.8171 15.4051C11.6652 15.2296 11.4913 15.1745 11.0889 15.3615C10.5893 15.5938 9.72183 15.174 9.72183 14.5552C9.72183 14.0017 10.2015 13.8623 9.72183 13.7817C8.82144 13.6305 8.73733 13.1091 8.42858 12.841C8.5904 12.8506 8.96144 13.1134 9.72183 12.9483C10.2145 12.8413 10.2966 12.318 10.3115 12.0693C10.3263 11.8205 9.87061 11.2939 9.91525 10.5475C9.95095 9.9504 10.6469 9.17641 10.9903 8.86405C10.7823 8.26904 11.0023 7.14073 11.2322 6.55525Z" fill="#463837"/>
<path d="M13.8165 5.52539H15.6287C12.6083 6.09682 13.8165 7.81111 12.0042 8.95396C12.0042 8.95396 11.4001 7.81111 11.4001 7.23968C11.4001 6.66825 11.9062 5.52539 13.8165 5.52539Z" fill="white"/>
</svg>
