<svg width="24" height="24" viewBox="0 0 24 24" fill="none" xmlns="http://www.w3.org/2000/svg">
<path d="M2 4L4 2L6 3.5L8 2L10 3.5L12 2L14 3.5L16 2L18 3.5L20 2L22 4L20.5 6L22 8L20.5 10L22 12L20.5 14L22 16L20.5 18L22 20L20 22L18 20.5L16 22L14 20.5L12 22L10 20.5L8 22L6 20.5L4 22L2 20L3.5 18L2 16L3.5 14L2 12L3.5 10L2 8L3.5 6L2 4Z" fill="#2F88FF" stroke="black" stroke-linecap="round" stroke-linejoin="round"/>
<path d="M12.0005 16.7364C14.6166 16.7364 16.7374 14.6156 16.7374 11.9995C16.7374 9.38345 14.6166 7.2627 12.0005 7.2627C9.38443 7.2627 7.26367 9.38345 7.26367 11.9995C7.26367 14.6156 9.38443 16.7364 12.0005 16.7364Z" fill="#43CCF8" stroke="white" stroke-linecap="round" stroke-linejoin="round"/>
</svg>
