<svg width="58" height="47" viewBox="0 0 58 47" fill="none" xmlns="http://www.w3.org/2000/svg">
<path d="M47.6705 45.2872C48.1701 46.5744 49.6185 47.2129 50.9057 46.7133C52.1928 46.2137 52.8313 44.7653 52.3317 43.4781L47.6705 45.2872ZM30.2637 24.9612C32.4637 26.5815 36.0417 29.6001 39.4805 33.2938C42.9456 37.0158 46.1021 41.2463 47.6705 45.2872L52.3317 43.4781C50.4266 38.5694 46.7745 33.7906 43.14 29.8867C39.4792 25.9546 35.6666 22.7307 33.2289 20.9353L30.2637 24.9612Z" fill="#FFA45B"/>
<path d="M31.7463 20.6694C26.1994 23.9029 13.8983 32.916 9.06973 43.0999" stroke="#FFA45B" stroke-width="5" stroke-linecap="round"/>
<path d="M31.7462 21.1295C36.0914 9.67882 41.6379 -0.577617 50.1743 7.51706C56.2472 13.2757 61.0636 26.9928 31.7462 21.1295Z" stroke="#FFA45B" stroke-width="5"/>
<path d="M29.2526 19.583C26.6058 14.3195 11.2242 -8.39705 4.9419 14.3247C1.38845 27.1769 26.062 22.9453 29.2526 19.583Z" stroke="#FFA45B" stroke-width="5"/>
<circle cx="31.2081" cy="21.5928" r="6.06405" transform="rotate(-8.21136 31.2081 21.5928)" fill="#EA2F00"/>
</svg>
