<svg width="58" height="59" viewBox="0 0 58 59" fill="none" xmlns="http://www.w3.org/2000/svg">
<path d="M43.4496 16.3374C45.4193 -5.64047 28.8118 -3.08762 25.4347 11.6583C5.39318 -4.10876 2.6345 17.7551 10.9382 23.7103C-11.0173 32.9268 5.30809 45.8298 14.7379 42.0014C13.0488 66.815 30.923 58.3075 33.0347 48.2403C54.1453 61.9941 55.1305 42.0014 48.3755 35.1954C68.5009 23.7103 52.1749 13.5013 43.4496 16.3374Z" fill="#FBA50D"/>
<path d="M42.2888 17.3723C44.1003 -2.84003 28.827 -0.492251 25.7211 13.0691C7.28953 -1.43136 4.75246 18.6761 12.3891 24.153C-7.80272 32.6291 7.21127 44.4956 15.8836 40.9748C14.3302 63.795 30.7685 55.9709 32.7106 46.7124C52.1253 59.3614 53.0314 40.9748 46.8191 34.7155C65.3277 24.153 50.3132 14.7641 42.2888 17.3723Z" stroke="white"/>
<circle cx="28.9999" cy="30.6542" r="9.42963" fill="#561F10"/>
</svg>
