<svg width="59" height="54" viewBox="0 0 59 54" fill="none" xmlns="http://www.w3.org/2000/svg">
<path fill-rule="evenodd" clip-rule="evenodd" d="M20.4133 0.874023C9.45204 0.874023 0.566162 9.7599 0.566162 20.7212C0.566162 31.6825 9.45204 40.5684 20.4133 40.5684H38.6331L34.4185 53.1261L51.0275 36.2918C55.6198 32.6566 58.5662 27.033 58.5662 20.7212C58.5662 9.7599 49.6803 0.874023 38.719 0.874023H20.4133Z" fill="#09C0CD"/>
<mask id="path-2-inside-1_682_11490" fill="white">
<path fill-rule="evenodd" clip-rule="evenodd" d="M20.4167 3.74805C11.1104 3.74805 3.56616 11.2923 3.56616 20.5986C3.56616 29.905 11.1104 37.4492 20.4167 37.4492H38.6462C39.3154 37.4492 39.9754 37.4102 40.6242 37.3344L36.8431 49.529L50.2519 32.8155C51.3533 31.7689 52.3133 30.5748 53.1003 29.2651L53.4696 28.8048L53.3085 28.9088C54.7014 26.4565 55.4968 23.6205 55.4968 20.5986C55.4968 11.2923 47.9526 3.74805 38.6462 3.74805H20.4167Z"/>
</mask>
<path d="M40.6242 37.3344L41.5793 37.6305L42.0345 36.1627L40.5081 36.3411L40.6242 37.3344ZM36.8431 49.529L35.8879 49.2329L37.6231 50.1548L36.8431 49.529ZM50.2519 32.8155L49.5631 32.0906L49.5141 32.1371L49.4719 32.1897L50.2519 32.8155ZM53.1003 29.2651L52.3203 28.6393L52.278 28.692L52.2432 28.75L53.1003 29.2651ZM53.4696 28.8048L54.2496 29.4306L52.9272 27.9647L53.4696 28.8048ZM53.3085 28.9088L52.439 28.4149L53.8509 29.7489L53.3085 28.9088ZM4.56616 20.5986C4.56616 11.8446 11.6627 4.74805 20.4167 4.74805V2.74805C10.5581 2.74805 2.56616 10.74 2.56616 20.5986H4.56616ZM20.4167 36.4492C11.6627 36.4492 4.56616 29.3527 4.56616 20.5986H2.56616C2.56616 30.4572 10.5581 38.4492 20.4167 38.4492V36.4492ZM38.6462 36.4492H20.4167V38.4492H38.6462V36.4492ZM40.5081 36.3411C39.8977 36.4125 39.2765 36.4492 38.6462 36.4492V38.4492C39.3543 38.4492 40.0531 38.4079 40.7403 38.3276L40.5081 36.3411ZM37.7982 49.8252L41.5793 37.6305L39.6691 37.0382L35.8879 49.2329L37.7982 49.8252ZM49.4719 32.1897L36.0631 48.9032L37.6231 50.1548L51.0319 33.4413L49.4719 32.1897ZM52.2432 28.75C51.5028 29.9821 50.5996 31.1056 49.5631 32.0906L50.9408 33.5404C52.1071 32.4321 53.1238 31.1676 53.9575 29.7801L52.2432 28.75ZM52.6896 28.179L52.3203 28.6393L53.8803 29.8908L54.2496 29.4306L52.6896 28.179ZM53.8509 29.7489L54.0119 29.645L52.9272 27.9647L52.7662 28.0687L53.8509 29.7489ZM54.4968 20.5986C54.4968 23.4428 53.7486 26.1092 52.439 28.4149L54.178 29.4027C55.6542 26.8038 56.4968 23.7981 56.4968 20.5986H54.4968ZM38.6462 4.74805C47.4003 4.74805 54.4968 11.8446 54.4968 20.5986H56.4968C56.4968 10.74 48.5048 2.74805 38.6462 2.74805V4.74805ZM20.4167 4.74805H38.6462V2.74805H20.4167V4.74805Z" fill="white" mask="url(#path-2-inside-1_682_11490)"/>
</svg>
