<svg width="59" height="58" viewBox="0 0 59 58" fill="none" xmlns="http://www.w3.org/2000/svg">
<g clip-path="url(#clip0_682_11438)">
<path fill-rule="evenodd" clip-rule="evenodd" d="M38.2577 38.8454C34.5473 34.5007 30.7733 30.9086 28.74 29.4109L31.6072 25.5181C34.0583 27.3234 38.1051 31.2219 41.9342 35.7056C45.7498 40.1736 49.5968 45.5079 51.4276 50.2251C51.9107 51.4697 51.2933 52.8703 50.0486 53.3533C48.804 53.8364 47.4034 53.219 46.9204 51.9744C45.3925 48.0376 41.9814 43.2058 38.2577 38.8454Z" fill="#FFA45B"/>
<path fill-rule="evenodd" clip-rule="evenodd" d="M31.0957 26.3937C31.7681 27.5471 31.3781 29.0272 30.2247 29.6995C27.8292 31.096 24.3308 34.0076 20.8257 37.8453C17.3381 41.6637 13.9834 46.2471 11.7796 50.8951C11.2076 52.1015 9.76597 52.6158 8.55961 52.0438C7.35326 51.4718 6.83899 50.0302 7.41096 48.8238C9.87614 43.6245 13.5456 38.647 17.2558 34.5848C20.9485 30.5418 24.8217 27.2529 27.7899 25.5226C28.9433 24.8503 30.4234 25.2402 31.0957 26.3937Z" fill="#FFA45B"/>
<path fill-rule="evenodd" clip-rule="evenodd" d="M23.7115 15.6689C26.5116 17.6522 28.821 19.6504 29.9704 20.708L31.2217 21.8594L30.5609 23.4262C30.1315 24.4446 29.2839 25.4063 28.4489 26.2055C27.5545 27.0615 26.4337 27.9548 25.1873 28.8197C22.6998 30.546 19.5529 32.2693 16.3912 33.4113C13.3186 34.5211 9.82478 35.232 6.85305 34.4274C5.29456 34.0055 3.85608 33.1573 2.78416 31.7467C1.72808 30.3569 1.16376 28.6009 1.01163 26.5793C0.49968 19.7755 1.44397 14.9797 4.12665 12.2485C6.9962 9.32694 10.9501 9.57987 14.2081 10.602C17.5339 11.6454 20.9433 13.7083 23.7115 15.6689ZM7.57589 15.6363C6.45924 16.7732 5.33889 19.6528 5.83277 26.2165C5.93458 27.5695 6.28179 28.3585 6.63364 28.8215C6.96966 29.2637 7.43552 29.5763 8.11658 29.7607C9.62396 30.1688 11.9501 29.8749 14.7488 28.8641C17.4584 27.8854 20.2341 26.3722 22.4309 24.8477C23.4802 24.1195 24.3608 23.414 25.0197 22.7945C23.9197 21.8671 22.5015 20.7365 20.9171 19.6143C18.2903 17.7539 15.3679 16.033 12.7608 15.2151C10.0858 14.3758 8.50568 14.6897 7.57589 15.6363Z" fill="#FFA45B"/>
<path fill-rule="evenodd" clip-rule="evenodd" d="M36.326 30.9909C33.1887 29.6012 30.5295 28.0996 29.1935 27.2903L27.7391 26.4094L28.0766 24.7428C28.2961 23.6595 28.9365 22.5491 29.5968 21.6005C30.3041 20.5844 31.2259 19.4869 32.2764 18.3924C34.3731 16.2079 37.1166 13.8958 39.9897 12.1507C42.7819 10.4547 46.0659 9.0663 49.1381 9.26681C50.7493 9.37196 52.3272 9.91864 53.6571 11.0892C54.9673 12.2425 55.8681 13.852 56.4173 15.8035C58.2658 22.3714 58.2894 27.2592 56.2003 30.4674C53.9658 33.8991 50.0401 34.4337 46.6442 34.0766C43.1777 33.7121 39.4274 32.3649 36.326 30.9909ZM52.1488 27.8292C53.0183 26.4938 53.5466 23.4495 51.7633 17.1134C51.3958 15.8073 50.8993 15.1026 50.4627 14.7184C50.0458 14.3515 49.5273 14.1373 48.8232 14.0913C47.2649 13.9896 45.0429 14.7381 42.4997 16.2829C40.0374 17.7785 37.6161 19.8112 35.7645 21.7403C34.8801 22.6618 34.1566 23.5276 33.6333 24.2653C34.8951 24.9565 36.509 25.7841 38.2842 26.5705C41.2272 27.8742 44.4324 28.9826 47.1499 29.2684C49.938 29.5616 51.4248 28.9412 52.1488 27.8292Z" fill="#FFA45B"/>
<circle cx="29.3998" cy="25.7069" r="6.46665" fill="#EA2F00"/>
</g>
<defs>
<clipPath id="clip0_682_11438">
<rect width="58" height="58" fill="white" transform="translate(0.5)"/>
</clipPath>
</defs>
</svg>
