<svg width="58" height="44" viewBox="0 0 58 44" fill="none" xmlns="http://www.w3.org/2000/svg">
<line x1="35.8308" y1="11.8642" x2="31.9117" y2="13.1114" stroke="#EECB00"/>
<line x1="7.05374" y1="11.5072" x2="3.2831" y2="9.86479" stroke="#EECB00"/>
<line x1="5.38532" y1="19.112" x2="1.27491" y2="19.2531" stroke="#EECB00"/>
<line x1="7.21363" y1="25.2878" x2="3.53716" y2="27.1314" stroke="#EECB00"/>
<line x1="10.3002" y1="2.32265" x2="12.6908" y2="5.66933" stroke="#EECB00"/>
<line x1="21.8033" y1="0.275802" x2="21.2617" y2="4.35282" stroke="#EECB00"/>
<line x1="31.2969" y1="4.65238" x2="28.2843" y2="7.45229" stroke="#EECB00"/>
<circle cx="19.4805" cy="18.7529" r="13.4805" fill="#FFD900"/>
<path d="M23.9103 13.1613C34.2283 10.8986 38.5711 16.4226 38.5311 20.3444C47.0639 15.4899 52.2332 21.2113 53.7512 24.6788C59.4237 30.1691 63.8978 42.8388 36.1343 43.6264C1.26008 44.6157 0.541002 40.9019 0.0616215 38.3013C-0.89712 24.5302 9.56911 24.0596 14.9221 25.5457C13.0046 22.945 16.0009 14.8958 23.9103 13.1613Z" fill="#4AE1F1"/>
</svg>
