<svg width="47" height="59" viewBox="0 0 47 59" fill="none" xmlns="http://www.w3.org/2000/svg">
<path d="M13.2631 35.9549L10.9391 19.9626L35.8063 14.0225C35.9612 16.0025 37.0612 22.7955 40.2219 34.1274C43.3826 45.4592 40.4543 50.4245 38.5951 51.4907C33.1724 53.09 20.0494 56.6083 10.9391 57.8877C-0.448644 59.487 -1.22025 48.1085 1.64299 42.1236C2.91149 39.4722 9.31226 36.7926 13.2631 35.9549Z" fill="#3D7477"/>
<path d="M38.3629 15.8502C36.5037 18.9573 16.6719 21.7141 6.98842 22.704L4.0651 9.21921C6.00259 5.55936 25.5685 2.2148 35.1093 1C36.9685 4.65544 40.2221 12.7431 38.3629 15.8502Z" fill="white"/>
<path d="M3.96729 8.76802L4.0651 9.21921M4.0651 9.21921L6.98842 22.704C16.6719 21.7141 36.5037 18.9573 38.3629 15.8502C40.2221 12.7431 36.9685 4.65544 35.1093 1C25.5685 2.2148 6.00259 5.55936 4.0651 9.21921Z" stroke="#3D7477"/>
<ellipse cx="34.5287" cy="46.9847" rx="3.21301" ry="3.15857" fill="white"/>
<ellipse cx="39.933" cy="35.1205" rx="3.21301" ry="3.15857" fill="white"/>
<ellipse cx="16.785" cy="49.1097" rx="3.21301" ry="3.15857" fill="white"/>
<ellipse cx="16.785" cy="49.1097" rx="3.21301" ry="3.15857" fill="white"/>
<ellipse cx="5.79675" cy="39.1888" rx="3.21301" ry="3.15857" fill="white"/>
<ellipse cx="20.9279" cy="35.1205" rx="3.21301" ry="3.15857" fill="white"/>
<ellipse cx="33.2303" cy="25.8627" rx="3.21301" ry="3.15857" fill="white"/>
<ellipse cx="5.79675" cy="55.8412" rx="3.21301" ry="3.15857" fill="white"/>
<path d="M33.2304 5.94531L36.2013 14.9337H45.8152L38.0374 20.4889L41.0082 29.4773L33.2304 23.9221L25.4526 29.4773L28.4235 20.4889L20.6457 14.9337H30.2596L33.2304 5.94531Z" fill="#FFAD29"/>
</svg>
