<svg width="59" height="47" viewBox="0 0 59 47" fill="none" xmlns="http://www.w3.org/2000/svg">
<line x1="35.0271" y1="11.6366" x2="31.1962" y2="12.8557" stroke="#EECB00"/>
<line x1="6.89041" y1="11.2875" x2="3.20471" y2="9.68206" stroke="#EECB00"/>
<line x1="5.26447" y1="18.7224" x2="1.24665" y2="18.8603" stroke="#EECB00"/>
<line x1="7.05616" y1="24.7575" x2="3.46251" y2="26.5596" stroke="#EECB00"/>
<line x1="10.0773" y1="2.29335" x2="12.414" y2="5.56465" stroke="#EECB00"/>
<line x1="21.3233" y1="0.300216" x2="20.7939" y2="4.28539" stroke="#EECB00"/>
<line x1="30.5997" y1="4.585" x2="27.6549" y2="7.32183" stroke="#EECB00"/>
<circle cx="19.0415" cy="18.3594" r="13.1768" fill="#FFBB00"/>
<path d="M23.3717 15.8262C33.4573 13.6145 37.7022 19.014 37.6632 22.8475C46.0037 18.1023 51.0565 23.6948 52.5404 27.0842C58.0851 32.4508 62.4584 44.8351 35.3203 45.605C1.23169 46.5721 0.528815 42.9419 0.0602334 40.3998C-0.876912 26.939 9.35356 26.479 14.5859 27.9316C12.7116 25.3895 15.6404 17.5216 23.3717 15.8262Z" fill="#44DDEE"/>
<path d="M26.3137 19.4437C35.9042 17.4992 39.9408 22.2463 39.9037 25.6165C47.8349 21.4447 52.6397 26.3615 54.0507 29.3413C59.3233 34.0594 63.4818 44.9471 37.6758 45.624C5.26035 46.4742 4.59197 43.2827 4.14639 41.0478C3.25524 29.2136 12.9836 28.8092 17.9591 30.0863C16.1768 27.8513 18.9619 20.9343 26.3137 19.4437Z" stroke="white"/>
</svg>
