<svg width="63" height="82" viewBox="0 0 63 82" fill="none" xmlns="http://www.w3.org/2000/svg">
<path d="M7.1515 3.44195C9.52126 2.92055 18.7061 -0.829163 17.414 41.6373C21.8872 38.3063 35.9691 39.8806 40.8067 40.6737C44.7087 36.5814 35.1151 3.44195 46.9123 1.35946C62.8488 0.418432 53.9969 27.9168 50.7231 47.9422C63.1903 77.5399 39.7391 82.4807 26.4551 81.2515C-4.09427 80.4901 -2.83313 55.4833 7.14984 45.0766C6.39866 39.2977 -3.98292 5.89175 7.1515 3.44195Z" fill="white" stroke="#B4C1D1"/>
<path d="M48.471 5.29057C41.9371 2.85887 44.9639 26.1632 43.385 41.3346L47.6816 45.1937C51.9788 25.1984 56.0127 8.09736 48.471 5.29057Z" fill="#D6E0ED"/>
<path d="M7.77004 7.59586C13.6199 3.96194 15.0582 25.4606 15.0585 41.3355L9.97194 44.0538C4.09613 25.374 2.86865 10.6406 7.77004 7.59586Z" fill="#D6E0ED"/>
<path d="M25.8105 69.4404C25.8105 69.4404 26.5151 70.83 28.2939 70.8969C30.0728 70.9638 30.9498 69.4404 30.9498 69.4404" stroke="#9DA6B1" stroke-linecap="round"/>
<ellipse cx="14.4943" cy="63.8956" rx="2.71887" ry="3.92785" fill="#465C78"/>
<ellipse cx="41.3732" cy="63.8956" rx="2.71887" ry="3.92785" fill="#465C78"/>
<circle cx="15.3771" cy="66.4328" r="0.882984" fill="white"/>
<circle cx="42.2541" cy="66.4328" r="0.882984" fill="white"/>
<path d="M60.8054 44.1078C61.12 37.9304 52.0489 40.2895 47.4741 42.2411L45.5082 46.1295C45.4467 48.8062 46.2649 54.4883 50.0292 55.8033C54.7347 57.447 60.4121 51.8295 60.8054 44.1078Z" fill="#FF8E3D"/>
<path d="M27.5375 41.3972C26.7514 48.1485 36.8666 46.2095 42.0225 44.3961L44.4558 40.2727C44.7143 37.342 44.223 31.0529 40.1891 29.3422C35.1468 27.2039 28.5201 32.9582 27.5375 41.3972Z" fill="#FF8E3D"/>
<circle cx="44.2498" cy="43.9741" r="5.80167" transform="rotate(7.07607 44.2498 43.9741)" fill="#ED7206"/>
<ellipse cx="48.4287" cy="69.0903" rx="3.5498" ry="1.7749" fill="#FF9C9C"/>
<ellipse cx="48.4287" cy="69.0903" rx="3.5498" ry="1.7749" fill="#FF9C9C"/>
<ellipse cx="8.22559" cy="69.0903" rx="3.5498" ry="1.7749" fill="#FF9C9C"/>
<ellipse cx="8.22559" cy="69.0903" rx="3.5498" ry="1.7749" fill="#FF9C9C"/>
</svg>
