<svg width="58" height="48" viewBox="0 0 58 48" fill="none" xmlns="http://www.w3.org/2000/svg">
<line x1="35.8308" y1="12.3642" x2="31.9117" y2="13.6114" stroke="#EECB00"/>
<line x1="7.05374" y1="12.0072" x2="3.2831" y2="10.3648" stroke="#EECB00"/>
<line x1="5.38532" y1="19.612" x2="1.27491" y2="19.7531" stroke="#EECB00"/>
<line x1="7.21363" y1="25.7878" x2="3.53716" y2="27.6314" stroke="#EECB00"/>
<line x1="10.3002" y1="2.82265" x2="12.6908" y2="6.16933" stroke="#EECB00"/>
<line x1="21.8033" y1="0.775802" x2="21.2617" y2="4.85282" stroke="#EECB00"/>
<line x1="31.2969" y1="5.15238" x2="28.2843" y2="7.95229" stroke="#EECB00"/>
<circle cx="19.4805" cy="19.2529" r="13.4805" fill="#FFD900"/>
<path d="M23.9103 16.6613C34.2283 14.3986 38.5711 19.9226 38.5311 23.8444C47.0639 18.9899 52.2332 24.7113 53.7512 28.1788C59.4237 33.6691 63.8978 46.3388 36.1343 47.1264C1.26008 48.1157 0.541002 44.4019 0.0616215 41.8013C-0.89712 28.0302 9.56911 27.5596 14.9221 29.0457C13.0046 26.445 16.0009 18.3958 23.9103 16.6613Z" fill="#67E3F1"/>
</svg>
