<svg width="24" height="24" viewBox="0 0 24 24" fill="none" xmlns="http://www.w3.org/2000/svg">
<path d="M11.6717 22.1491C11.8774 22.2647 12.1099 22.3241 12.3459 22.3213C12.5818 22.3186 12.8128 22.2538 13.0158 22.1334C15.4781 20.7075 19.6536 17.5117 21.3053 13.3748C23.759 7.92531 17.9979 3.57514 14.0168 6.70399C13.6194 7.01561 13.126 7.37052 12.7687 7.70969C12.579 7.89068 12.2462 7.90957 12.051 7.73487C11.5311 7.28456 10.9853 6.86493 10.4165 6.47814C7.02251 4.18187 0.845867 7.2092 3.48052 13.6707C4.43586 16.5391 8.94734 20.5965 11.6717 22.1491Z" fill="url(#paint0_radial_770_25528)"/>
<path d="M11.6717 22.1491C11.8774 22.2647 12.1099 22.3241 12.3459 22.3213C12.5818 22.3186 12.8128 22.2538 13.0158 22.1334C15.4781 20.7075 19.6536 17.5117 21.3053 13.3748C23.759 7.92531 17.9979 3.57514 14.0168 6.70399C13.6194 7.01561 13.126 7.37052 12.7687 7.70969C12.579 7.89068 12.2462 7.90957 12.051 7.73487C11.5311 7.28456 10.9853 6.86493 10.4165 6.47814C7.02251 4.18187 0.845867 7.2092 3.48052 13.6707C4.43586 16.5391 8.94734 20.5965 11.6717 22.1491Z" fill="url(#paint1_radial_770_25528)"/>
<path d="M11.6717 22.1491C11.8774 22.2647 12.1099 22.3241 12.3459 22.3213C12.5818 22.3186 12.8128 22.2538 13.0158 22.1334C15.4781 20.7075 19.6536 17.5117 21.3053 13.3748C23.759 7.92531 17.9979 3.57514 14.0168 6.70399C13.6194 7.01561 13.126 7.37052 12.7687 7.70969C12.579 7.89068 12.2462 7.90957 12.051 7.73487C11.5311 7.28456 10.9853 6.86493 10.4165 6.47814C7.02251 4.18187 0.845867 7.2092 3.48052 13.6707C4.43586 16.5391 8.94734 20.5965 11.6717 22.1491Z" fill="url(#paint2_radial_770_25528)"/>
<path d="M11.6717 22.1491C11.8774 22.2647 12.1099 22.3241 12.3459 22.3213C12.5818 22.3186 12.8128 22.2538 13.0158 22.1334C15.4781 20.7075 19.6536 17.5117 21.3053 13.3748C23.759 7.92531 17.9979 3.57514 14.0168 6.70399C13.6194 7.01561 13.126 7.37052 12.7687 7.70969C12.579 7.89068 12.2462 7.90957 12.051 7.73487C11.5311 7.28456 10.9853 6.86493 10.4165 6.47814C7.02251 4.18187 0.845867 7.2092 3.48052 13.6707C4.43586 16.5391 8.94734 20.5965 11.6717 22.1491Z" fill="url(#paint3_radial_770_25528)"/>
<path d="M11.6717 22.1491C11.8774 22.2647 12.1099 22.3241 12.3459 22.3213C12.5818 22.3186 12.8128 22.2538 13.0158 22.1334C15.4781 20.7075 19.6536 17.5117 21.3053 13.3748C23.759 7.92531 17.9979 3.57514 14.0168 6.70399C13.6194 7.01561 13.126 7.37052 12.7687 7.70969C12.579 7.89068 12.2462 7.90957 12.051 7.73487C11.5311 7.28456 10.9853 6.86493 10.4165 6.47814C7.02251 4.18187 0.845867 7.2092 3.48052 13.6707C4.43586 16.5391 8.94734 20.5965 11.6717 22.1491Z" fill="url(#paint4_linear_770_25528)"/>
<path d="M11.6717 22.1491C11.8774 22.2647 12.1099 22.3241 12.3459 22.3213C12.5818 22.3186 12.8128 22.2538 13.0158 22.1334C15.4781 20.7075 19.6536 17.5117 21.3053 13.3748C23.759 7.92531 17.9979 3.57514 14.0168 6.70399C13.6194 7.01561 13.126 7.37052 12.7687 7.70969C12.579 7.89068 12.2462 7.90957 12.051 7.73487C11.5311 7.28456 10.9853 6.86493 10.4165 6.47814C7.02251 4.18187 0.845867 7.2092 3.48052 13.6707C4.43586 16.5391 8.94734 20.5965 11.6717 22.1491Z" fill="url(#paint5_linear_770_25528)"/>
<path d="M12.2235 7.90427C12.916 8.54956 13.9988 8.35597 14.6095 7.63199C15.3822 6.716 16.4454 5.82598 17.8257 5.73785C16.5768 5.49783 15.2162 5.76145 14.0169 6.7042C13.9146 6.78525 13.8044 6.86946 13.6927 6.95523C13.3606 7.20862 13.0081 7.47854 12.7397 7.73902C12.5666 7.90742 12.262 7.92473 12.0826 7.76263L12 7.68865C12.063 7.75161 12.1385 7.82558 12.2235 7.90427Z" fill="url(#paint6_linear_770_25528)"/>
<g filter="url(#filter0_f_770_25528)">
<path d="M12.7734 10.4458V13.7304C12.7734 15.8662 15.0131 16.5476 15.5592 14.4827C15.9007 13.1969 15.9936 11.8662 15.6253 10.6803C15.3522 9.80205 14.7258 9.28739 14.1034 9.06705C13.3062 8.78376 12.7734 9.59981 12.7734 10.4458Z" fill="#FA1C56"/>
</g>
<g filter="url(#filter1_f_770_25528)">
<path d="M19.7093 11.3038C20.8361 10.2083 21.1386 8.69177 20.3849 7.91644C19.6312 7.1411 18.1067 7.40059 16.9798 8.49603C15.8529 9.59147 15.5505 11.108 16.3042 11.8834C17.0579 12.6587 18.5824 12.3992 19.7093 11.3038Z" fill="url(#paint7_radial_770_25528)"/>
</g>
<g filter="url(#filter2_f_770_25528)">
<path d="M11.7281 9.0195C10.4679 7.46078 8.76465 6.7483 7.92378 7.42813C7.08291 8.10796 7.42284 9.92267 8.68304 11.4814C9.94325 13.0401 11.6465 13.7526 12.4874 13.0728C13.3282 12.3929 12.9883 10.5782 11.7281 9.0195Z" fill="url(#paint8_radial_770_25528)" fill-opacity="0.6"/>
</g>
<path fill-rule="evenodd" clip-rule="evenodd" d="M5.05261 4.75112C4.59117 4.97388 4.18604 5.29804 3.86749 5.69938C3.78753 5.7937 3.67377 5.85289 3.55065 5.86424C3.42752 5.87558 3.30486 5.83818 3.20901 5.76006C3.11317 5.68194 3.05179 5.56935 3.03807 5.44646C3.02435 5.32358 3.05938 5.20022 3.13564 5.10288C3.54317 4.59241 4.06073 4.18056 4.6497 3.89809C5.39178 3.54712 6.36364 3.35668 7.61958 3.55184C7.73961 3.57499 7.84598 3.64379 7.91632 3.74377C7.98666 3.84375 8.01548 3.9671 7.99672 4.0879C7.97797 4.20869 7.91309 4.3175 7.81575 4.39144C7.71841 4.46538 7.59619 4.49869 7.47479 4.48435C6.39433 4.31674 5.61448 4.48593 5.05339 4.75191" fill="url(#paint9_radial_770_25528)"/>
<path fill-rule="evenodd" clip-rule="evenodd" d="M5.05261 4.75112C4.59117 4.97388 4.18604 5.29804 3.86749 5.69938C3.78753 5.7937 3.67377 5.85289 3.55065 5.86424C3.42752 5.87558 3.30486 5.83818 3.20901 5.76006C3.11317 5.68194 3.05179 5.56935 3.03807 5.44646C3.02435 5.32358 3.05938 5.20022 3.13564 5.10288C3.54317 4.59241 4.06073 4.18056 4.6497 3.89809C5.39178 3.54712 6.36364 3.35668 7.61958 3.55184C7.73961 3.57499 7.84598 3.64379 7.91632 3.74377C7.98666 3.84375 8.01548 3.9671 7.99672 4.0879C7.97797 4.20869 7.91309 4.3175 7.81575 4.39144C7.71841 4.46538 7.59619 4.49869 7.47479 4.48435C6.39433 4.31674 5.61448 4.48593 5.05339 4.75191" fill="url(#paint10_linear_770_25528)"/>
<g filter="url(#filter3_f_770_25528)">
<path d="M3.45508 5.26665C3.6888 4.96368 5.02894 3.47795 7.46372 3.89581" stroke="url(#paint11_linear_770_25528)" stroke-opacity="0.5" stroke-width="0.3" stroke-linecap="round"/>
</g>
<path fill-rule="evenodd" clip-rule="evenodd" d="M8.42103 2.76789C4.32268 2.02818 2.34433 4.3575 1.84384 4.97209C1.80513 5.02151 1.75695 5.0627 1.70213 5.09328C1.64731 5.12385 1.58694 5.14319 1.52455 5.15015C1.46217 5.15712 1.39902 5.15157 1.33881 5.13384C1.27859 5.11612 1.22251 5.08656 1.17386 5.0469C1.1252 5.00724 1.08494 4.95828 1.05543 4.90288C1.02592 4.84747 1.00775 4.78674 1.00199 4.72424C0.996232 4.66173 1.00299 4.5987 1.02188 4.53884C1.04077 4.47898 1.0714 4.42348 1.11199 4.3756C1.69275 3.66264 3.98194 1.00595 8.58864 1.83853C8.64967 1.84953 8.70793 1.87245 8.76009 1.90597C8.81226 1.93949 8.85731 1.98296 8.89268 2.03389C8.92805 2.08482 8.95304 2.14222 8.96622 2.20281C8.9794 2.2634 8.98053 2.326 8.96952 2.38702C8.95851 2.44804 8.9356 2.5063 8.90208 2.55847C8.86856 2.61063 8.82509 2.65569 8.77416 2.69105C8.72322 2.72642 8.66582 2.75141 8.60523 2.76459C8.54464 2.77778 8.48205 2.7789 8.42103 2.76789Z" fill="url(#paint12_linear_770_25528)"/>
<path fill-rule="evenodd" clip-rule="evenodd" d="M8.42103 2.76789C4.32268 2.02818 2.34433 4.3575 1.84384 4.97209C1.80513 5.02151 1.75695 5.0627 1.70213 5.09328C1.64731 5.12385 1.58694 5.14319 1.52455 5.15015C1.46217 5.15712 1.39902 5.15157 1.33881 5.13384C1.27859 5.11612 1.22251 5.08656 1.17386 5.0469C1.1252 5.00724 1.08494 4.95828 1.05543 4.90288C1.02592 4.84747 1.00775 4.78674 1.00199 4.72424C0.996232 4.66173 1.00299 4.5987 1.02188 4.53884C1.04077 4.47898 1.0714 4.42348 1.11199 4.3756C1.69275 3.66264 3.98194 1.00595 8.58864 1.83853C8.64967 1.84953 8.70793 1.87245 8.76009 1.90597C8.81226 1.93949 8.85731 1.98296 8.89268 2.03389C8.92805 2.08482 8.95304 2.14222 8.96622 2.20281C8.9794 2.2634 8.98053 2.326 8.96952 2.38702C8.95851 2.44804 8.9356 2.5063 8.90208 2.55847C8.86856 2.61063 8.82509 2.65569 8.77416 2.69105C8.72322 2.72642 8.66582 2.75141 8.60523 2.76459C8.54464 2.77778 8.48205 2.7789 8.42103 2.76789Z" fill="url(#paint13_linear_770_25528)"/>
<g filter="url(#filter4_f_770_25528)">
<path d="M1.42773 4.61431C1.66145 4.31134 3.56741 1.81125 7.67441 2.03238" stroke="url(#paint14_linear_770_25528)" stroke-opacity="0.6" stroke-width="0.3" stroke-linecap="round"/>
</g>
<path fill-rule="evenodd" clip-rule="evenodd" d="M18.9478 4.75112C19.5136 5.01868 19.8881 5.39956 20.1329 5.69938C20.2128 5.7937 20.3266 5.85289 20.4497 5.86424C20.5728 5.87558 20.6955 5.83818 20.7913 5.76006C20.8872 5.68194 20.9486 5.56935 20.9623 5.44646C20.976 5.32358 20.941 5.20022 20.8647 5.10288C20.4572 4.59239 19.9396 4.18054 19.3507 3.89809C18.6094 3.54712 17.6367 3.35668 16.3808 3.55184C16.2608 3.57499 16.1544 3.64379 16.084 3.74377C16.0137 3.84375 15.9849 3.9671 16.0036 4.0879C16.0224 4.20869 16.0873 4.3175 16.1846 4.39144C16.282 4.46538 16.4042 4.49869 16.5256 4.48435C17.606 4.31674 18.3859 4.48593 18.947 4.75191" fill="url(#paint15_linear_770_25528)"/>
<path fill-rule="evenodd" clip-rule="evenodd" d="M18.9478 4.75112C19.5136 5.01868 19.8881 5.39956 20.1329 5.69938C20.2128 5.7937 20.3266 5.85289 20.4497 5.86424C20.5728 5.87558 20.6955 5.83818 20.7913 5.76006C20.8872 5.68194 20.9486 5.56935 20.9623 5.44646C20.976 5.32358 20.941 5.20022 20.8647 5.10288C20.4572 4.59239 19.9396 4.18054 19.3507 3.89809C18.6094 3.54712 17.6367 3.35668 16.3808 3.55184C16.2608 3.57499 16.1544 3.64379 16.084 3.74377C16.0137 3.84375 15.9849 3.9671 16.0036 4.0879C16.0224 4.20869 16.0873 4.3175 16.1846 4.39144C16.282 4.46538 16.4042 4.49869 16.5256 4.48435C17.606 4.31674 18.3859 4.48593 18.947 4.75191" fill="url(#paint16_linear_770_25528)"/>
<path fill-rule="evenodd" clip-rule="evenodd" d="M15.5794 2.76789C19.6778 2.02739 21.6553 4.3575 22.1566 4.97209C22.1953 5.02151 22.2435 5.0627 22.2983 5.09328C22.3531 5.12385 22.4135 5.14319 22.4759 5.15015C22.5383 5.15712 22.6014 5.15157 22.6616 5.13384C22.7219 5.11612 22.7779 5.08656 22.8266 5.0469C22.8753 5.00724 22.9155 4.95828 22.945 4.90288C22.9745 4.84747 22.9927 4.78674 22.9985 4.72424C23.0042 4.66173 22.9975 4.5987 22.9786 4.53884C22.9597 4.47898 22.9291 4.42348 22.8885 4.3756C22.3077 3.66264 20.0185 1.00595 15.4118 1.83853C15.3508 1.84953 15.2925 1.87245 15.2404 1.90597C15.1882 1.93949 15.1431 1.98296 15.1078 2.03389C15.0724 2.08482 15.0474 2.14222 15.0342 2.20281C15.0211 2.2634 15.0199 2.326 15.0309 2.38702C15.0419 2.44804 15.0649 2.5063 15.0984 2.55847C15.1319 2.61063 15.1754 2.65569 15.2263 2.69105C15.2772 2.72642 15.3346 2.75141 15.3952 2.76459C15.4558 2.77778 15.5184 2.7789 15.5794 2.76789Z" fill="url(#paint17_linear_770_25528)"/>
<path fill-rule="evenodd" clip-rule="evenodd" d="M15.5794 2.76789C19.6778 2.02739 21.6553 4.3575 22.1566 4.97209C22.1953 5.02151 22.2435 5.0627 22.2983 5.09328C22.3531 5.12385 22.4135 5.14319 22.4759 5.15015C22.5383 5.15712 22.6014 5.15157 22.6616 5.13384C22.7219 5.11612 22.7779 5.08656 22.8266 5.0469C22.8753 5.00724 22.9155 4.95828 22.945 4.90288C22.9745 4.84747 22.9927 4.78674 22.9985 4.72424C23.0042 4.66173 22.9975 4.5987 22.9786 4.53884C22.9597 4.47898 22.9291 4.42348 22.8885 4.3756C22.3077 3.66264 20.0185 1.00595 15.4118 1.83853C15.3508 1.84953 15.2925 1.87245 15.2404 1.90597C15.1882 1.93949 15.1431 1.98296 15.1078 2.03389C15.0724 2.08482 15.0474 2.14222 15.0342 2.20281C15.0211 2.2634 15.0199 2.326 15.0309 2.38702C15.0419 2.44804 15.0649 2.5063 15.0984 2.55847C15.1319 2.61063 15.1754 2.65569 15.2263 2.69105C15.2772 2.72642 15.3346 2.75141 15.3952 2.76459C15.4558 2.77778 15.5184 2.7789 15.5794 2.76789Z" fill="url(#paint18_linear_770_25528)"/>
<g filter="url(#filter5_f_770_25528)">
<path d="M15.5176 2.18192C16.8711 1.96 20.166 1.72628 22.3049 4.22243" stroke="url(#paint19_linear_770_25528)" stroke-opacity="0.75" stroke-width="0.3" stroke-linecap="round"/>
</g>
<g filter="url(#filter6_f_770_25528)">
<path d="M16.4609 3.95013C17.8129 3.729 19.1208 3.79039 20.5845 5.30366" stroke="url(#paint20_linear_770_25528)" stroke-opacity="0.75" stroke-width="0.3" stroke-linecap="round"/>
</g>
<g filter="url(#filter7_f_770_25528)">
<path d="M15.4322 2.34481C15.5026 2.34481 15.5597 2.28773 15.5597 2.21733C15.5597 2.14692 15.5026 2.08984 15.4322 2.08984C15.3618 2.08984 15.3047 2.14692 15.3047 2.21733C15.3047 2.28773 15.3618 2.34481 15.4322 2.34481Z" fill="#FF93BA"/>
</g>
<g filter="url(#filter8_f_770_25528)">
<path d="M16.4595 4.07821C16.5299 4.07821 16.587 4.02113 16.587 3.95073C16.587 3.88032 16.5299 3.82324 16.4595 3.82324C16.3891 3.82324 16.332 3.88032 16.332 3.95073C16.332 4.02113 16.3891 4.07821 16.4595 4.07821Z" fill="#FF93BA"/>
</g>
<defs>
<filter id="filter0_f_770_25528" x="10.7734" y="7.00977" width="7.08789" height="10.7168" filterUnits="userSpaceOnUse" color-interpolation-filters="sRGB">
<feFlood flood-opacity="0" result="BackgroundImageFix"/>
<feBlend mode="normal" in="SourceGraphic" in2="BackgroundImageFix" result="shape"/>
<feGaussianBlur stdDeviation="1" result="effect1_foregroundBlur_770_25528"/>
</filter>
<filter id="filter1_f_770_25528" x="14.3887" y="5.96973" width="7.91016" height="7.86035" filterUnits="userSpaceOnUse" color-interpolation-filters="sRGB">
<feFlood flood-opacity="0" result="BackgroundImageFix"/>
<feBlend mode="normal" in="SourceGraphic" in2="BackgroundImageFix" result="shape"/>
<feGaussianBlur stdDeviation="0.75" result="effect1_foregroundBlur_770_25528"/>
</filter>
<filter id="filter2_f_770_25528" x="5.96289" y="5.6709" width="8.48633" height="9.15918" filterUnits="userSpaceOnUse" color-interpolation-filters="sRGB">
<feFlood flood-opacity="0" result="BackgroundImageFix"/>
<feBlend mode="normal" in="SourceGraphic" in2="BackgroundImageFix" result="shape"/>
<feGaussianBlur stdDeviation="0.75" result="effect1_foregroundBlur_770_25528"/>
</filter>
<filter id="filter3_f_770_25528" x="3.05469" y="3.42188" width="4.80859" height="2.24512" filterUnits="userSpaceOnUse" color-interpolation-filters="sRGB">
<feFlood flood-opacity="0" result="BackgroundImageFix"/>
<feBlend mode="normal" in="SourceGraphic" in2="BackgroundImageFix" result="shape"/>
<feGaussianBlur stdDeviation="0.125" result="effect1_foregroundBlur_770_25528"/>
</filter>
<filter id="filter4_f_770_25528" x="1.02734" y="1.61816" width="7.04688" height="3.39648" filterUnits="userSpaceOnUse" color-interpolation-filters="sRGB">
<feFlood flood-opacity="0" result="BackgroundImageFix"/>
<feBlend mode="normal" in="SourceGraphic" in2="BackgroundImageFix" result="shape"/>
<feGaussianBlur stdDeviation="0.125" result="effect1_foregroundBlur_770_25528"/>
</filter>
<filter id="filter5_f_770_25528" x="15.1172" y="1.65234" width="7.58789" height="2.96973" filterUnits="userSpaceOnUse" color-interpolation-filters="sRGB">
<feFlood flood-opacity="0" result="BackgroundImageFix"/>
<feBlend mode="normal" in="SourceGraphic" in2="BackgroundImageFix" result="shape"/>
<feGaussianBlur stdDeviation="0.125" result="effect1_foregroundBlur_770_25528"/>
</filter>
<filter id="filter6_f_770_25528" x="16.0605" y="3.45508" width="4.92383" height="2.24902" filterUnits="userSpaceOnUse" color-interpolation-filters="sRGB">
<feFlood flood-opacity="0" result="BackgroundImageFix"/>
<feBlend mode="normal" in="SourceGraphic" in2="BackgroundImageFix" result="shape"/>
<feGaussianBlur stdDeviation="0.125" result="effect1_foregroundBlur_770_25528"/>
</filter>
<filter id="filter7_f_770_25528" x="14.8047" y="1.58984" width="1.25586" height="1.25488" filterUnits="userSpaceOnUse" color-interpolation-filters="sRGB">
<feFlood flood-opacity="0" result="BackgroundImageFix"/>
<feBlend mode="normal" in="SourceGraphic" in2="BackgroundImageFix" result="shape"/>
<feGaussianBlur stdDeviation="0.25" result="effect1_foregroundBlur_770_25528"/>
</filter>
<filter id="filter8_f_770_25528" x="15.832" y="3.32324" width="1.25586" height="1.25488" filterUnits="userSpaceOnUse" color-interpolation-filters="sRGB">
<feFlood flood-opacity="0" result="BackgroundImageFix"/>
<feBlend mode="normal" in="SourceGraphic" in2="BackgroundImageFix" result="shape"/>
<feGaussianBlur stdDeviation="0.25" result="effect1_foregroundBlur_770_25528"/>
</filter>
<radialGradient id="paint0_radial_770_25528" cx="0" cy="0" r="1" gradientUnits="userSpaceOnUse" gradientTransform="translate(14.2883 22.0232) rotate(-90) scale(22.2718 37.862)">
<stop stop-color="#F12E52"/>
<stop offset="0.596" stop-color="#FF3B79"/>
<stop offset="1" stop-color="#FF4EC6"/>
</radialGradient>
<radialGradient id="paint1_radial_770_25528" cx="0" cy="0" r="1" gradientUnits="userSpaceOnUse" gradientTransform="translate(17.0962 10.0037) rotate(142.986) scale(17.9288 33.5823)">
<stop offset="0.483" stop-color="#B91D43" stop-opacity="0"/>
<stop offset="0.834" stop-color="#B91D43"/>
</radialGradient>
<radialGradient id="paint2_radial_770_25528" cx="0" cy="0" r="1" gradientUnits="userSpaceOnUse" gradientTransform="translate(15.0262 14.3969) rotate(-158.663) scale(15.5517 21.9845)">
<stop offset="0.41" stop-color="#B91D43" stop-opacity="0"/>
<stop offset="0.834" stop-color="#B91D43"/>
</radialGradient>
<radialGradient id="paint3_radial_770_25528" cx="0" cy="0" r="1" gradientUnits="userSpaceOnUse" gradientTransform="translate(11.9936 11.6806) rotate(90) scale(13.5351)">
<stop offset="0.671" stop-color="#FF7AF2" stop-opacity="0"/>
<stop offset="0.934" stop-color="#FFBCE6"/>
</radialGradient>
<linearGradient id="paint4_linear_770_25528" x1="13.4872" y1="13.2647" x2="18.9642" y2="19.7836" gradientUnits="userSpaceOnUse">
<stop offset="0.694" stop-color="#FF7AF2" stop-opacity="0"/>
<stop offset="0.934" stop-color="#FFBCE6"/>
</linearGradient>
<linearGradient id="paint5_linear_770_25528" x1="12.808" y1="13.5369" x2="6.37958" y2="20.7791" gradientUnits="userSpaceOnUse">
<stop offset="0.694" stop-color="#FF7AF2" stop-opacity="0"/>
<stop offset="0.934" stop-color="#FFBCE6"/>
</linearGradient>
<linearGradient id="paint6_linear_770_25528" x1="14.9101" y1="8.6251" x2="12.9892" y2="6.51534" gradientUnits="userSpaceOnUse">
<stop offset="0.41" stop-color="#C12372" stop-opacity="0"/>
<stop offset="0.834" stop-color="#B5286E"/>
</linearGradient>
<radialGradient id="paint7_radial_770_25528" cx="0" cy="0" r="1" gradientUnits="userSpaceOnUse" gradientTransform="translate(20.8178 8.33604) rotate(139.035) scale(4.20802 2.84145)">
<stop stop-color="#FF93BA"/>
<stop offset="1" stop-color="#FF73A6" stop-opacity="0"/>
</radialGradient>
<radialGradient id="paint8_radial_770_25528" cx="0" cy="0" r="1" gradientUnits="userSpaceOnUse" gradientTransform="translate(9.2693 8.2522) rotate(52.378) scale(7.72371 4.09064)">
<stop stop-color="#FF93BA"/>
<stop offset="1" stop-color="#FF73A6" stop-opacity="0"/>
</radialGradient>
<radialGradient id="paint9_radial_770_25528" cx="0" cy="0" r="1" gradientUnits="userSpaceOnUse" gradientTransform="translate(6.10074 5.32709) rotate(-112.35) scale(2.00478 7.17275)">
<stop stop-color="#F12E52"/>
<stop offset="1" stop-color="#FF3B79"/>
</radialGradient>
<linearGradient id="paint10_linear_770_25528" x1="8.92825" y1="4.67322" x2="5.78052" y2="5.10603" gradientUnits="userSpaceOnUse">
<stop stop-color="#CE2654"/>
<stop offset="1" stop-color="#CE2654" stop-opacity="0"/>
</linearGradient>
<linearGradient id="paint11_linear_770_25528" x1="7.01516" y1="3.95719" x2="4.53082" y2="5.26665" gradientUnits="userSpaceOnUse">
<stop stop-color="#FF93BA" stop-opacity="0"/>
<stop offset="1" stop-color="#FF93BA"/>
</linearGradient>
<linearGradient id="paint12_linear_770_25528" x1="2.36164" y1="5.14601" x2="6.46314" y2="2.79071" gradientUnits="userSpaceOnUse">
<stop offset="0.047" stop-color="#FF1A44"/>
<stop offset="1" stop-color="#FF4781"/>
</linearGradient>
<linearGradient id="paint13_linear_770_25528" x1="10.4301" y1="3.41239" x2="5.42202" y2="4.17414" gradientUnits="userSpaceOnUse">
<stop stop-color="#CE2654"/>
<stop offset="0.578" stop-color="#CE2654" stop-opacity="0"/>
</linearGradient>
<linearGradient id="paint14_linear_770_25528" x1="6.50581" y1="2.36447" x2="2.59161" y2="4.38059" gradientUnits="userSpaceOnUse">
<stop stop-color="#FF93BA" stop-opacity="0"/>
<stop offset="1" stop-color="#FF93BA"/>
</linearGradient>
<linearGradient id="paint15_linear_770_25528" x1="20.1219" y1="5.87329" x2="17.4329" y2="4.47727" gradientUnits="userSpaceOnUse">
<stop offset="0.047" stop-color="#FF1A44"/>
<stop offset="1" stop-color="#FF4781"/>
</linearGradient>
<linearGradient id="paint16_linear_770_25528" x1="20.7302" y1="6.80266" x2="19.2358" y2="5.09895" gradientUnits="userSpaceOnUse">
<stop offset="0.108" stop-color="#9C1036"/>
<stop offset="1" stop-color="#CE2654" stop-opacity="0"/>
</linearGradient>
<linearGradient id="paint17_linear_770_25528" x1="21.6388" y1="5.14601" x2="17.5373" y2="2.79071" gradientUnits="userSpaceOnUse">
<stop offset="0.047" stop-color="#FF1A44"/>
<stop offset="1" stop-color="#FF4781"/>
</linearGradient>
<linearGradient id="paint18_linear_770_25528" x1="22.4533" y1="6.53337" x2="20.486" y2="3.82396" gradientUnits="userSpaceOnUse">
<stop offset="0.108" stop-color="#9C1036"/>
<stop offset="1" stop-color="#CE2654" stop-opacity="0"/>
</linearGradient>
<linearGradient id="paint19_linear_770_25528" x1="21.4031" y1="2.29366" x2="17.4991" y2="4.65839" gradientUnits="userSpaceOnUse">
<stop stop-color="#FF93BA" stop-opacity="0"/>
<stop offset="1" stop-color="#FF93BA" stop-opacity="0.6"/>
</linearGradient>
<linearGradient id="paint20_linear_770_25528" x1="22.3456" y1="4.06266" x2="18.4417" y2="6.42661" gradientUnits="userSpaceOnUse">
<stop stop-color="#FF93BA" stop-opacity="0"/>
<stop offset="1" stop-color="#FF93BA" stop-opacity="0.6"/>
</linearGradient>
</defs>
</svg>
