<svg width="59" height="56" viewBox="0 0 59 56" fill="none" xmlns="http://www.w3.org/2000/svg">
<path d="M13.9358 11.8205L11.3786 3.02128C10.7492 0.855282 13.3717 1.76806 14.9877 2.49519C14.6938 0.840774 16.0799 -0.29431 18.6737 0.840774C24.556 3.41491 23.8347 1.9905 27.7019 0.840566C31.1611 -0.188004 34.2193 4.16758 37.0772 2.13698C39.4923 0.420954 40.8599 3.39751 43.4169 1.74283C45.4626 0.419086 46.6258 1.19127 46.9517 1.74283L43.793 12.2718L13.9358 11.8205Z" fill="#FFA7D7"/>
<path d="M41.2425 2.42871C41.8466 2.42879 42.9888 2.34523 43.2311 2.02867L43.277 1.90137C43.277 1.94749 43.2609 1.98983 43.2311 2.02867L40.53 9.51747C40.8875 7.56098 41.5306 3.40416 41.2425 2.42871Z" fill="#F186C1"/>
<path d="M13.4531 1.91797C14.0485 2.18977 14.397 2.25038 15.0713 2.44835C14.8523 3.4238 15.4631 7.43401 15.7349 9.39049L13.4531 1.91797Z" fill="#F186C1"/>
<path d="M21.2741 1.90137C21.8696 2.17317 22.8816 2.12601 23.5559 2.32398C23.3369 3.29943 23.5555 6.27011 25.4929 8.51468C27.4303 10.7592 22.8134 5.76741 22.4867 5.11392C22.1599 4.46042 21.2741 1.90137 21.2741 1.90137Z" fill="#F186C1"/>
<path d="M36.9223 2.23926C36.516 2.51106 35.8745 2.73519 35.1309 2.73519C35.2803 3.71064 35.2048 6.6969 33.8829 8.94147C32.561 11.186 35.7112 6.19421 35.9341 5.54071C36.1571 4.88721 36.9223 2.23926 36.9223 2.23926Z" fill="#F186C1"/>
<path d="M3.75198 32.0498C4.50582 27.492 11.2853 16.5675 13.9116 11.8057H43.8984C47.0175 15.0493 52.4869 26.377 53.9603 31.4165C44.1644 38.6211 3.10372 35.9691 3.75198 32.0498Z" fill="#FFB9DF"/>
<path d="M53.8336 31.0752C52.4404 31.9688 50.1167 32.9203 47.5281 33.3356C48.9583 34.5558 51.7989 46.2907 53.297 51.7842C62.9895 44.1756 56.1731 37.2527 53.8336 31.0752Z" fill="#F8D869"/>
<path d="M16.7357 34.6428C16.264 34.6092 11.4151 33.6813 9.14088 33.1758C6.15082 37.9769 6.0303 50.7943 6.49358 52.1841C6.8642 53.296 12.7179 54.5506 15.3572 54.8454C14.4536 48.8081 17.3253 34.6848 16.7357 34.6428Z" fill="#7DD2F8"/>
<path d="M28.5594 35.4582C25.7664 35.3924 19.278 34.9953 16.8961 34.8174C15.089 40.3044 14.9565 50.3266 15.2303 54.7347C18.9211 55.3755 27.0244 55.6799 29.7898 55.5294C30.2829 53.1309 28.9703 41.03 28.5594 35.4582Z" fill="#FFB9DF"/>
<path d="M39.8313 34.8623C36.7667 35.8152 30.9653 35.6921 28.5405 35.5004C28.8848 35.9931 29.0956 49.146 29.2248 55.5804C32.3009 55.7599 39.1578 55.2415 42.5726 54.8856C43.0202 48.2158 40.9935 38.7503 39.8313 34.8623Z" fill="#FFB9DF"/>
<path d="M9.14569 33.1648L3.82982 31.6739C3.82982 31.6739 3.85585 31.4016 1.10721 39.6475C-1.64142 47.8934 3.76006 51.4526 6.54759 52.3818C6.0711 46.8881 7.43859 38.5671 9.14569 33.1648Z" fill="#F8D869"/>
<path d="M53.307 51.7644C53.7128 49.8456 50.4687 38.2988 48.0044 33.2061C46.0893 34.2739 42.0952 34.7244 39.5897 34.8158C41.4904 39.1168 42.2981 50.0498 42.4528 54.9398C47.7159 54.9398 51.4725 52.9828 53.307 51.7644Z" fill="#7DD2F8"/>
<circle cx="28.8397" cy="28.0804" r="15.8753" fill="white"/>
<ellipse cx="28.84" cy="28.0805" rx="14.019" ry="14.019" fill="#FFE897"/>
<path fill-rule="evenodd" clip-rule="evenodd" d="M36.036 23.8831H28.7023V22.7773H36.036V23.8831ZM25.4746 24.3053H21.8649V23.1995H25.4746V24.3053ZM23.033 27.6622H20.7743V26.5564H26.3975V27.6622H24.1388V37.8406H23.033V27.6622ZM20.8527 33.3024C20.9203 31.8289 20.9584 30.112 20.9728 28.9807L22.0786 28.9947C22.0641 30.1333 22.0256 31.8633 21.9573 33.353C21.9232 34.0968 21.8814 34.7879 21.8306 35.3177C21.8053 35.5814 21.7769 35.8152 21.7442 35.9994C21.728 36.0909 21.7088 36.1809 21.6853 36.261C21.6676 36.3213 21.6278 36.4492 21.5398 36.5602L20.6734 35.8731C20.6436 35.9107 20.6278 35.9433 20.6217 35.958C20.6224 35.9557 20.6233 35.9528 20.6244 35.9493C20.6319 35.9238 20.6427 35.8778 20.6554 35.8063C20.6805 35.6647 20.7056 35.4645 20.7298 35.2121C20.778 34.7097 20.8189 34.0402 20.8527 33.3024ZM20.6187 35.9663C20.6187 35.9663 20.6195 35.9632 20.6217 35.958C20.6198 35.9639 20.6187 35.9663 20.6187 35.9663ZM25.373 35.6928V28.9877H26.4788V35.6928H25.373Z" fill="#C2A231"/>
<path fill-rule="evenodd" clip-rule="evenodd" d="M27.9395 24.874H37.0608V28.5465H27.9395V24.874ZM29.0452 25.9798V27.4407H35.955V25.9798H29.0452Z" fill="#C2A231"/>
<path fill-rule="evenodd" clip-rule="evenodd" d="M35.7681 30.4085H29.1265V36.2641H35.7681V30.4085ZM28.0208 29.3027V37.3699H36.8739V29.3027H28.0208Z" fill="#C2A231"/>
<path fill-rule="evenodd" clip-rule="evenodd" d="M31.8682 33.0965V29.5107H32.974V33.0965H36.5595V34.2023H32.974V37.2638H31.8682V34.2023H28.5972V33.0965H31.8682Z" fill="#C2A231"/>
<path fill-rule="evenodd" clip-rule="evenodd" d="M32.6284 16.506C31.055 14.7679 29.4361 13.3177 28.5559 12.6694L29.4303 11.4822C30.4099 12.2038 32.1012 13.7267 33.7214 15.5166C35.3322 17.296 36.9467 19.4194 37.6939 21.3445C37.8412 21.724 37.6529 22.1511 37.2733 22.2985C36.8938 22.4458 36.4667 22.2575 36.3194 21.8779C35.6735 20.2139 34.2111 18.2545 32.6284 16.506Z" fill="#EA2F00"/>
<path fill-rule="evenodd" clip-rule="evenodd" d="M30.3225 11.7302C30.5275 12.0819 30.4086 12.5333 30.0568 12.7383C28.9864 13.3623 27.238 14.5607 25.5233 16.1021C23.8017 17.6498 22.1656 19.4976 21.2576 21.4127C21.0832 21.7806 20.6435 21.9374 20.2756 21.763C19.9077 21.5886 19.7509 21.1489 19.9253 20.781C20.9538 18.612 22.7524 16.6105 24.5376 15.0057C26.3298 13.3946 28.1602 12.1373 29.3143 11.4646C29.666 11.2595 30.1174 11.3784 30.3225 11.7302Z" fill="#EA2F00"/>
<path fill-rule="evenodd" clip-rule="evenodd" d="M30.6937 11.7257C33.132 12.1565 34.8527 12.2022 36.0296 12.0207C37.3409 11.8185 37.8504 11.3602 38.0422 10.9751C38.2462 10.5655 38.2224 9.9819 37.922 9.27148C37.6277 8.57542 37.1148 7.88022 36.5677 7.36138C35.7896 6.62358 35.1815 6.4008 34.7219 6.40135C34.2669 6.40189 33.7892 6.62169 33.2696 7.13902C32.3252 8.07926 31.4802 9.76162 30.6937 11.7257ZM34.7201 4.92696C35.6948 4.92579 36.6485 5.4062 37.5822 6.29152C38.2527 6.92738 38.8946 7.78584 39.28 8.69726C39.6593 9.59431 39.8403 10.672 39.3619 11.6324C38.8714 12.6173 37.8115 13.2378 36.2543 13.4779C34.6972 13.7179 32.5164 13.6036 29.5401 13.0084L28.6866 12.8377L28.9954 12.024C29.861 9.74272 30.8994 7.41826 32.2293 6.09417C32.9115 5.41497 33.7408 4.92813 34.7201 4.92696Z" fill="#EA2F00"/>
<path fill-rule="evenodd" clip-rule="evenodd" d="M27.6549 8.71775C28.4444 9.756 29.0545 10.7595 29.3435 11.3342L29.5763 11.7971L29.2197 12.1729C28.9512 12.4557 28.5396 12.6776 28.1278 12.8521C27.693 13.0363 27.1683 13.2043 26.5982 13.3452C25.4597 13.6265 24.0824 13.8138 22.7805 13.7865C21.506 13.7598 20.1759 13.5255 19.2435 12.8459C18.7599 12.4934 18.3781 12.0163 18.1882 11.3991C18.0003 10.7886 18.0194 10.1037 18.2249 9.36019C18.8702 7.02657 19.813 5.59467 21.0896 5.06429C22.395 4.52194 23.7189 5.05075 24.7816 5.79978C25.8657 6.56381 26.8683 7.68345 27.6549 8.71775ZM21.6553 6.42585C21.0335 6.68418 20.2605 7.5306 19.646 9.7531C19.4953 10.2981 19.5119 10.6876 19.5974 10.9656C19.6808 11.2369 19.8483 11.4623 20.1119 11.6544C20.674 12.0641 21.6303 12.2877 22.8114 12.3124C23.9651 12.3366 25.2123 12.1689 26.2445 11.9139C26.7597 11.7866 27.2068 11.6411 27.5525 11.4946C27.6092 11.4705 27.6614 11.4472 27.7093 11.4248C27.4157 10.9294 26.9921 10.282 26.4813 9.61021C25.7339 8.62743 24.8379 7.64327 23.9322 7.00493C23.0053 6.35161 22.2482 6.1795 21.6553 6.42585Z" fill="#EA2F00"/>
<circle cx="29.2237" cy="11.8504" r="2.0257" transform="rotate(-8.21136 29.2237 11.8504)" fill="#FFD84F"/>
</svg>
