<svg width="58" height="54" viewBox="0 0 58 54" fill="none" xmlns="http://www.w3.org/2000/svg">
<path fill-rule="evenodd" clip-rule="evenodd" d="M19.8472 0.874023C8.88588 0.874023 0 9.7599 0 20.7212C0 31.6825 8.88588 40.5684 19.8472 40.5684H38.0669L33.8523 53.1261L50.4613 36.2918C55.0537 32.6566 58 27.033 58 20.7212C58 9.7599 49.1141 0.874023 38.1528 0.874023H19.8472Z" fill="#7CB522"/>
<mask id="path-2-inside-1_682_11490" fill="white">
<path fill-rule="evenodd" clip-rule="evenodd" d="M19.8506 3.74805C10.5443 3.74805 3 11.2923 3 20.5986C3 29.905 10.5443 37.4492 19.8506 37.4492H38.0801C38.7492 37.4492 39.4093 37.4102 40.058 37.3344L36.2769 49.529L49.6857 32.8155C50.7872 31.7689 51.7472 30.5748 52.5342 29.2651L52.9034 28.8048L52.7424 28.9088C54.1352 26.4565 54.9307 23.6205 54.9307 20.5986C54.9307 11.2923 47.3864 3.74805 38.0801 3.74805H19.8506Z"/>
</mask>
<path d="M40.058 37.3344L41.0132 37.6305L41.4683 36.1627L39.9419 36.3411L40.058 37.3344ZM36.2769 49.529L35.3218 49.2329L37.0569 50.1548L36.2769 49.529ZM49.6857 32.8155L48.9969 32.0906L48.948 32.1371L48.9057 32.1897L49.6857 32.8155ZM52.5342 29.2651L51.7542 28.6393L51.7119 28.692L51.677 28.75L52.5342 29.2651ZM52.9034 28.8048L53.6834 29.4306L52.3611 27.9647L52.9034 28.8048ZM52.7424 28.9088L51.8728 28.4149L53.2847 29.7489L52.7424 28.9088ZM4 20.5986C4 11.8446 11.0965 4.74805 19.8506 4.74805V2.74805C9.99198 2.74805 2 10.74 2 20.5986H4ZM19.8506 36.4492C11.0965 36.4492 4 29.3527 4 20.5986H2C2 30.4572 9.99198 38.4492 19.8506 38.4492V36.4492ZM38.0801 36.4492H19.8506V38.4492H38.0801V36.4492ZM39.9419 36.3411C39.3316 36.4125 38.7103 36.4492 38.0801 36.4492V38.4492C38.7881 38.4492 39.4869 38.4079 40.1742 38.3276L39.9419 36.3411ZM37.232 49.8252L41.0132 37.6305L39.1029 37.0382L35.3218 49.2329L37.232 49.8252ZM48.9057 32.1897L35.4969 48.9032L37.0569 50.1548L50.4658 33.4413L48.9057 32.1897ZM51.677 28.75C50.9367 29.9821 50.0334 31.1056 48.9969 32.0906L50.3746 33.5404C51.5409 32.4321 52.5576 31.1676 53.3913 29.7801L51.677 28.75ZM52.1234 28.179L51.7542 28.6393L53.3142 29.8908L53.6834 29.4306L52.1234 28.179ZM53.2847 29.7489L53.4458 29.645L52.3611 27.9647L52.2 28.0687L53.2847 29.7489ZM53.9307 20.5986C53.9307 23.4428 53.1824 26.1092 51.8728 28.4149L53.6119 29.4027C55.088 26.8038 55.9307 23.7981 55.9307 20.5986H53.9307ZM38.0801 4.74805C46.8341 4.74805 53.9307 11.8446 53.9307 20.5986H55.9307C55.9307 10.74 47.9387 2.74805 38.0801 2.74805V4.74805ZM19.8506 4.74805H38.0801V2.74805H19.8506V4.74805Z" fill="white" mask="url(#path-2-inside-1_682_11490)"/>
</svg>
