<svg width="24" height="24" viewBox="0 0 24 24" fill="none" xmlns="http://www.w3.org/2000/svg">
<path d="M11.385 9.02148C11.385 9.02148 9.4634 9.56375 7.85843 10.6228C6.53733 11.4926 5.3418 12.8137 5.3418 12.8137L5.6839 16.0455L6.63014 16.7606L10.5989 13.1886C10.5989 13.1886 11.163 11.7146 11.365 10.7047C11.4705 10.1843 11.5251 9.67475 11.5251 9.67475L11.385 9.02148ZM13.0154 9.42546C13.0154 9.42546 13.4176 10.9449 13.565 11.5472C13.7324 12.2278 14.0545 13.3341 14.0545 13.3341L18.0014 16.1401L19.4935 13.2195C19.4935 13.2195 18.6546 12.1786 18.2034 11.6346C17.7521 11.0905 15.1881 9.31991 15.1881 9.31991L13.0154 9.42546Z" fill="#AF0C1A"/>
<path d="M2.84766 17.7624C2.84766 17.7624 2.98413 16.5123 4.01044 14.7254C5.03674 12.9384 5.5408 12.6273 5.5408 12.6273C5.5408 12.6273 6.13402 12.489 6.65991 12.4253C7.22765 12.3561 7.70077 12.4089 7.70077 12.4089C7.70077 12.4089 6.98563 13.2787 6.58166 14.1176C6.17769 14.9565 5.92839 15.7499 6.225 15.9045C6.51979 16.0592 6.84915 14.9947 7.48423 14.0248C8.15205 13.0021 8.66157 12.4999 8.66157 12.4999C8.66157 12.4999 9.17108 12.5163 9.70243 12.6746C10.2902 12.8493 10.6159 13.1477 10.6159 13.1477C10.6159 13.1477 9.56777 15.9664 8.99275 17.5987C8.41773 19.2309 7.58795 21.3964 7.38596 21.4746C7.18398 21.5529 6.83278 20.9251 6.61442 20.4283C6.39605 19.9315 5.6518 17.2893 5.60449 17.3366C5.55718 17.3839 2.84766 17.7624 2.84766 17.7624ZM14.0515 13.3206C14.0515 13.3206 14.5082 13.013 14.8813 12.8875C15.2543 12.7638 15.9149 12.6582 15.9149 12.6582C15.9149 12.6582 16.3115 13.4334 16.6209 13.9629C16.9321 14.4906 17.4379 15.5788 17.7637 15.4223C18.0894 15.2676 17.6709 14.1686 17.4288 13.6827C17.2087 13.2405 16.8229 12.6418 16.8229 12.6418C16.8229 12.6418 17.3051 12.58 18.1895 12.751C19.0757 12.9221 19.4942 13.2169 19.4942 13.2169C19.4942 13.2169 20.313 14.4324 20.7534 15.1748C21.3393 16.1648 22.0745 17.8461 22.0745 17.8461L18.8264 18.1118L17.1941 21.6857C17.1941 21.6857 16.9685 21.7003 16.8429 21.6238C16.7192 21.5456 16.1314 19.9315 15.813 18.9853C15.3125 17.4913 14.0515 13.3206 14.0515 13.3206Z" fill="#FF605E"/>
<path d="M18.6394 17.8023C18.5139 17.9187 17.3001 20.934 17.2638 21.0231C17.0763 21.4853 16.8197 21.5909 16.8197 21.5909C16.8197 21.5909 17.0399 21.9075 17.413 21.7983C17.7005 21.7146 19.0689 18.4737 19.0689 18.4737C19.0689 18.4737 21.5418 18.4974 21.9021 18.3409C22.3061 18.1662 22.0696 17.8368 22.0696 17.8368C22.0696 17.8368 18.8069 17.6458 18.6394 17.8023ZM2.85363 17.6931C2.85363 17.6931 3.58514 17.5603 4.25843 17.3819C4.93171 17.2036 5.79425 16.9507 5.79425 16.9507C5.79425 16.9507 6.47481 18.8104 6.67862 19.4345C6.88242 20.0587 7.41377 21.4544 7.41377 21.4544C7.41377 21.4544 7.18267 21.7037 6.84967 21.4981C6.5385 21.3052 5.94346 19.6602 5.78697 19.2234C5.5868 18.6703 5.32659 17.8496 5.32659 17.8496C5.32659 17.8496 4.62055 18.0843 4.03279 18.1917C3.44503 18.299 3.04652 18.3773 2.89002 18.2208C2.73353 18.0661 2.85363 17.6931 2.85363 17.6931ZM8.86043 5.10811L5.4849 4.24194L3.09929 6.18173L2.10938 10.9129L2.64982 11.8228C2.64982 11.8228 3.23576 12.2704 4.8844 11.9028C6.53304 11.5334 10.2561 10.0995 10.2561 10.0995C10.2561 10.0995 10.7311 10.296 11.1569 10.3543C11.5827 10.4125 12.3087 10.2597 12.3087 10.2597C12.3087 10.2597 13.2222 10.4089 13.7663 10.3707C14.3086 10.3324 14.5415 10.2742 14.5415 10.2742C14.5415 10.2742 16.3266 11.2241 18.1099 11.7281C19.8932 12.2322 21.2707 12.3468 21.5819 12.3104C22.0659 12.2522 22.2988 11.437 22.2988 11.437L22.1041 9.65188L19.5056 4.06543L14.0939 5.61763L13.7645 5.98702L12.347 5.60125L10.4235 5.97974L10.1815 5.69587L8.86043 5.10811Z" fill="#DC0D28"/>
<path d="M10.3568 5.90917C10.3568 5.90917 10.5715 5.24316 12.1892 5.24316C13.6977 5.24316 13.9016 5.84002 13.9016 5.84002C13.9016 5.84002 14.0981 7.1502 13.9197 8.28569C13.7614 9.30107 13.1991 10.362 13.1991 10.362C13.1991 10.362 12.8261 10.4548 12.2493 10.4711C11.7052 10.4857 11.1265 10.3492 11.1265 10.3492C11.1265 10.3492 10.6134 9.44483 10.3968 8.30934C10.1894 7.21025 10.3568 5.90917 10.3568 5.90917Z" fill="#FF605E"/>
<path d="M11.3243 8.03757C11.6336 8.09944 11.8101 7.26784 12.0048 7.04038C12.3105 6.68554 13.0348 6.75469 13.022 6.27975C13.0129 5.90489 11.6336 5.73202 11.1368 6.42714C10.7911 6.913 10.8311 7.93931 11.3243 8.03757Z" fill="#FCC4BF"/>
<path d="M14.0913 5.61768C14.0913 5.61768 14.2969 5.8688 14.4789 6.32008C14.6135 6.65127 14.7591 7.13531 14.7591 7.13531C14.7591 7.13531 15.4288 6.55119 16.002 6.23456C16.5734 5.91793 19.3047 4.94804 19.3757 6.27095C19.4321 7.34639 17.4195 7.32455 16.4751 7.70851C15.8109 7.97782 14.9065 8.48734 14.9065 8.48734V9.58279C14.9065 9.58279 15.3432 10.0486 16.3659 10.1342C17.3886 10.2197 20.0107 10.1887 20.5275 10.2106C21.603 10.2561 21.9797 10.7383 21.9797 11.3115C21.9797 11.8829 21.7777 12.1176 21.845 12.1922C21.9323 12.2905 22.3818 11.932 22.6256 11.0058C22.8695 10.0796 23.0569 8.34904 22.9841 6.86599C22.8986 5.11363 22.5529 2.76805 21.7704 2.33132C20.9879 1.8946 18.706 2.4769 17.3667 3.0501C15.114 4.01454 14.0913 5.61768 14.0913 5.61768ZM9.58938 7.06798C9.58938 7.06798 9.67309 6.63671 9.8314 6.29461C9.95514 6.02711 10.1826 5.69775 10.1826 5.69775C10.1826 5.69775 9.75315 4.57864 8.17184 3.67062C6.59053 2.76259 3.28233 2.05291 2.22873 2.45324C1.70466 2.65159 1.19697 3.99634 1.04229 6.03803C0.909457 7.81041 1.08415 9.93217 1.64279 10.9785C2.06314 11.7664 3.12948 12.3524 3.45338 12.0285C3.6117 11.8701 2.40342 11.3206 3.55529 10.5964C4.22311 10.1778 5.50054 10.2142 6.60873 10.1414C7.71692 10.0686 8.19004 10.1232 8.77234 9.97766C9.35464 9.83209 9.71676 9.61372 9.71676 9.61372C9.71676 9.61372 9.58028 9.1588 9.55299 8.94044C9.51477 8.64201 9.49112 8.39817 9.49112 8.39817C9.49112 8.39817 9.10716 8.18163 8.09905 8.01422C7.11096 7.84862 5.4878 7.88502 5.46414 6.79684C5.43321 5.4157 7.02726 5.76144 7.77151 6.06897C8.51576 6.37649 9.49839 6.97699 9.58938 7.06798Z" fill="#FF605E"/>
</svg>
