<svg width="58" height="50" viewBox="0 0 58 50" fill="none" xmlns="http://www.w3.org/2000/svg">
<path d="M0.143308 21.9745C-2.05414 -4.89198 21.6707 -2.72109 26.6932 13.3307C54.2341 -25.2062 81.3702 35.1145 24.9791 49.3412C24.9791 49.3412 1.90844 43.5553 0.143308 21.9745Z" fill="#F841E5"/>
<circle cx="42.1371" cy="34.329" r="2.24698" transform="rotate(-4.85609 42.1371 34.329)" fill="white"/>
<path d="M49.0125 15.2835C48.9951 13.8507 50.4479 12.7126 51.7878 13.2204V13.2204C52.4037 13.4539 52.8502 13.9929 52.9126 14.6486C53.0818 16.4241 53.2176 20.1891 51.9393 23.9248C50.6551 27.6774 48.1052 29.9097 46.8247 30.8399C46.3489 31.1856 45.7358 31.2288 45.1859 31.0203V31.0203C43.7712 30.4841 43.414 28.5995 44.4392 27.4869C45.8599 25.945 47.5047 23.8668 48.1271 21.955C48.8731 19.6638 49.0356 17.1845 49.0125 15.2835Z" fill="white"/>
</svg>
