<svg width="45" height="66" viewBox="0 0 45 66" fill="none" xmlns="http://www.w3.org/2000/svg">
<path d="M0.847656 65.7747L20.8691 19.6846L44.8421 65.7747H0.847656Z" fill="#E45023"/>
<path fill-rule="evenodd" clip-rule="evenodd" d="M10.7917 42.8821L6.17997 53.4985L31.504 40.13L28.1651 33.7107L10.7917 42.8821ZM15.4169 32.2347L24.8165 27.2727L20.8691 19.6836L15.4169 32.2347ZM0.847656 65.7737L1.55476 64.1459L34.8526 46.568L37.9828 52.5862L13.0017 65.7737H0.847656ZM41.3315 59.0242L28.5459 65.7737H44.8421L41.3315 59.0242Z" fill="#006F3F"/>
<path d="M15.2167 6.12976L21.1118 10.5076L27.0663 6.21082L26.2226 13.5051L32.9209 16.5134L26.1821 19.4299L26.9259 26.735L21.0308 22.3572L15.0763 26.6539L15.92 19.3597L9.22166 16.3513L15.9605 13.4349L15.2167 6.12976Z" fill="#F3BF41"/>
</svg>
