<svg width="24" height="24" viewBox="0 0 24 24" fill="none" xmlns="http://www.w3.org/2000/svg">
<path d="M14 2.6C13.5 2.6 13 2.5 12.5 2.5C12 2.5 11.5 2.6 11 2.6M19.8 6.3C19.203 5.50404 18.496 4.79697 17.7 4.2M21.4 13C21.5 12.5 21.5 12 21.5 11.5C21.5 11 21.4 10.5 21.4 10M17.7 18.8C18.496 18.203 19.203 17.496 19.8 16.7M11 20.4C11.5 20.5 12 20.5 12.5 20.5C13 20.5 13.5 20.4 14 20.4M4 17L2.5 21.5L7 20M3.6 10C3.6 10.5 3.5 11 3.5 11.5C3.5 12 3.6 12.5 3.6 13M7.3 4.2C6.50404 4.79697 5.79697 5.50404 5.2 6.3" stroke="#4A88FF" stroke-width="2" stroke-linecap="round" stroke-linejoin="round"/>
</svg>
