<svg width="31" height="30" viewBox="0 0 31 30" fill="none" xmlns="http://www.w3.org/2000/svg">
<path d="M11.3242 15.8118C10.9356 12.3095 14.6395 9.50107 19.6052 9.53908C24.5661 9.5771 28.9033 12.4473 29.2919 15.9449C29.6805 19.4471 25.9766 22.2556 21.0109 22.2176C16.05 22.1795 11.7128 19.3141 11.3242 15.807M30.2131 16.9C29.7621 12.5614 24.7724 9.0021 19.063 8.95458C13.3536 8.90706 9.08842 12.3903 9.53461 16.7337C9.9856 21.0771 14.9753 24.6364 20.6895 24.6791C26.3988 24.7266 30.6641 21.2434 30.2179 16.9" fill="white"/>
<path d="M21.5911 24.7656C18.7796 27.6739 14.2649 27.9162 11.511 25.3026C8.75225 22.6937 8.80023 18.2125 11.6117 15.3043C14.4232 12.396 18.9379 12.1584 21.6919 14.7673C24.4458 17.3809 24.4026 21.8574 21.5863 24.7656M11.1751 15.2092C7.90784 18.5927 7.85027 23.7962 11.0552 26.8328C14.2601 29.8693 19.5041 29.589 22.7762 26.2055C26.0483 22.822 26.101 17.6185 22.8961 14.582C19.696 11.5454 14.4472 11.8258 11.1799 15.2092" fill="white"/>
<path d="M11.4724 4.31953C17.3209 2.14785 23.107 4.34329 24.3928 9.22365C25.6786 14.104 21.9795 19.8207 16.131 21.9924C10.2825 24.1689 4.50119 21.9687 3.21058 17.0883C1.92478 12.2079 5.62387 6.49122 11.4724 4.31953ZM6.04128 6.18709C-0.0327204 10.9439 -1.57281 17.8391 2.58687 21.5837C6.75135 25.3284 15.0419 24.511 21.1159 19.7495C27.1851 14.9879 28.73 8.09267 24.5655 4.34805C20.4011 0.603428 12.1105 1.42553 6.04128 6.18709Z" fill="white"/>
</svg>
